<svg width="24" height="24" viewBox="0 0 24 24" fill="none" xmlns="http://www.w3.org/2000/svg">
<path fill-rule="evenodd" clip-rule="evenodd" d="M19.6845 7.75488H2.31543V18.9999C2.31543 20.1045 3.21086 20.9999 4.31543 20.9999H19.6845C20.7891 20.9999 21.6845 20.1045 21.6845 18.9999V16.6294H17.8392C16.5708 16.6294 15.5427 15.6013 15.5427 14.3329C15.5427 13.0646 16.5708 12.0364 17.8392 12.0364H21.6845V9.75488C21.6845 8.65031 20.7891 7.75488 19.6845 7.75488Z" fill="url(#paint0_linear_259_2365)"/>
<path d="M2.31543 6.4375H14.8483V4.9999C14.8483 3.89533 13.9529 2.9999 12.8483 2.9999H4.31543C3.21086 2.9999 2.31543 3.89533 2.31543 4.9999V6.4375Z" fill="url(#paint1_linear_259_2365)"/>
<circle cx="17.937" cy="14.3775" r="0.738801" fill="url(#paint2_linear_259_2365)"/>
<defs>
<linearGradient id="paint0_linear_259_2365" x1="21.6845" y1="20.3704" x2="9.62364" y2="1.55722" gradientUnits="userSpaceOnUse">
<stop stop-color="#7041F3"/>
<stop offset="1" stop-color="#F5C84C"/>
</linearGradient>
<linearGradient id="paint1_linear_259_2365" x1="14.8483" y1="3.16327" x2="13.1866" y2="9.6255" gradientUnits="userSpaceOnUse">
<stop stop-color="#7041F3"/>
<stop offset="1" stop-color="#F5C84C"/>
</linearGradient>
<linearGradient id="paint2_linear_259_2365" x1="18.6758" y1="15.046" x2="17.1982" y2="13.4699" gradientUnits="userSpaceOnUse">
<stop stop-color="#7041F3"/>
<stop offset="1" stop-color="#F5C84C"/>
</linearGradient>
</defs>
</svg>
