<svg width="34" height="42" viewBox="0 0 34 42" fill="none" xmlns="http://www.w3.org/2000/svg">
<path d="M23.0002 1.80001V9.00001C23.0002 10.3255 24.0747 11.4 25.4002 11.4H32.6002M9.80016 11.4H14.6002M9.80016 18.6H24.2002M9.80016 25.8H24.2002M29.0002 5.40001C27.932 4.44429 26.8236 3.31077 26.1239 2.57457C25.6582 2.08468 25.0149 1.80001 24.339 1.80001H6.1996C3.54865 1.80001 1.39962 3.94903 1.3996 6.59998L1.39941 35.3999C1.3994 38.0508 3.54842 40.1999 6.19939 40.1999L27.7995 40.2C30.4504 40.2 32.5994 38.051 32.5995 35.4001L32.6001 9.95568C32.6002 9.342 32.3661 8.75208 31.9401 8.31027C31.1525 7.4933 29.8373 6.14904 29.0002 5.40001Z" stroke="currentColor" stroke-width="2" stroke-linecap="round" stroke-linejoin="round"/>
</svg>
