<svg width="50" height="51" viewBox="0 0 50 51" fill="none" xmlns="http://www.w3.org/2000/svg">
<mask id="path-1-outside-1_2311_2268" maskUnits="userSpaceOnUse" x="-3" y="-2" width="56" height="55" fill="black">
<rect fill="white" x="-3" y="-2" width="56" height="55"/>
<path d="M12.1996 51H0.665483L18.2401 0.0909076H32.1108L49.6605 51H38.1264L25.3743 11.7244H24.9766L12.1996 51ZM11.4787 30.9893H38.723V39.3913H11.4787V30.9893Z"/>
</mask>
<path d="M12.1996 51H0.665483L18.2401 0.0909076H32.1108L49.6605 51H38.1264L25.3743 11.7244H24.9766L12.1996 51ZM11.4787 30.9893H38.723V39.3913H11.4787V30.9893Z" fill="url(#paint0_linear_2311_2268)"/>
<path d="M12.1996 51V53H13.6521L14.1015 51.6187L12.1996 51ZM0.665483 51L-1.22504 50.3474L-2.14077 53H0.665483V51ZM18.2401 0.0909081V-1.90909H16.8147L16.3495 -0.561728L18.2401 0.0909081ZM32.1108 0.0909081L34.0016 -0.560904L33.5368 -1.90909H32.1108V0.0909081ZM49.6605 51V53H52.4655L51.5513 50.3482L49.6605 51ZM38.1264 51L36.2242 51.6176L36.673 53H38.1264V51ZM25.3743 11.7244L27.2765 11.1068L26.8277 9.72443H25.3743V11.7244ZM24.9766 11.7244V9.72443H23.524L23.0747 11.1057L24.9766 11.7244ZM11.4787 30.9893V28.9893H9.47869V30.9893H11.4787ZM38.723 30.9893H40.723V28.9893H38.723V30.9893ZM38.723 39.3913V41.3913H40.723V39.3913H38.723ZM11.4787 39.3913H9.47869V41.3913H11.4787V39.3913ZM12.1996 49H0.665483V53H12.1996V49ZM2.556 51.6526L20.1306 0.743544L16.3495 -0.561728L-1.22504 50.3474L2.556 51.6526ZM18.2401 2.09091H32.1108V-1.90909H18.2401V2.09091ZM30.22 0.742718L47.7697 51.6518L51.5513 50.3482L34.0016 -0.560904L30.22 0.742718ZM49.6605 49H38.1264V53H49.6605V49ZM40.0287 50.3824L27.2765 11.1068L23.472 12.3421L36.2242 51.6176L40.0287 50.3824ZM25.3743 9.72443H24.9766V13.7244H25.3743V9.72443ZM23.0747 11.1057L10.2977 50.3813L14.1015 51.6187L26.8785 12.3431L23.0747 11.1057ZM11.4787 32.9893H38.723V28.9893H11.4787V32.9893ZM36.723 30.9893V39.3913H40.723V30.9893H36.723ZM38.723 37.3913H11.4787V41.3913H38.723V37.3913ZM13.4787 39.3913V30.9893H9.47869V39.3913H13.4787Z" fill="white" mask="url(#path-1-outside-1_2311_2268)"/>
<defs>
<linearGradient id="paint0_linear_2311_2268" x1="25.5" y1="-2.5" x2="25.5" y2="55.5" gradientUnits="userSpaceOnUse">
<stop stop-color="#FFA9A9"/>
<stop offset="1" stop-color="#FF4E4E"/>
</linearGradient>
</defs>
</svg>
