<svg viewBox="0 0 49 51" fill="none" xmlns="http://www.w3.org/2000/svg">
<mask id="path-1-outside-1_2311_2358" maskUnits="userSpaceOnUse" x="-3" y="-2" fill="black">
<rect fill="white" x="-3" y="-2" width="55" height="55"/>
<path d="M0.441761 0.0909076H12.4979L24.1065 22.0156H24.6037L36.2124 0.0909076H48.2685L29.6996 33.0028V51H19.0107V33.0028L0.441761 0.0909076Z"/>
</mask>
<path d="M0.441761 0.0909076H12.4979L24.1065 22.0156H24.6037L36.2124 0.0909076H48.2685L29.6996 33.0028V51H19.0107V33.0028L0.441761 0.0909076Z" fill="url(#paint0_linear_2311_2358)"/>
<path d="M0.441761 0.0909081V-1.90909H-2.983L-1.30012 1.07368L0.441761 0.0909081ZM12.4979 0.0909081L14.2654 -0.844959L13.702 -1.90909H12.4979V0.0909081ZM24.1065 22.0156L22.339 22.9515L22.9024 24.0156H24.1065V22.0156ZM24.6037 22.0156V24.0156H25.8078L26.3712 22.9515L24.6037 22.0156ZM36.2124 0.0909081V-1.90909H35.0083L34.4448 -0.844959L36.2124 0.0909081ZM48.2685 0.0909081L50.0104 1.07368L51.6932 -1.90909H48.2685V0.0909081ZM29.6996 33.0028L27.9577 32.0201L27.6996 32.4776V33.0028H29.6996ZM29.6996 51V53H31.6996V51H29.6996ZM19.0107 51H17.0107V53H19.0107V51ZM19.0107 33.0028H21.0107V32.4776L20.7525 32.0201L19.0107 33.0028ZM0.441761 2.09091H12.4979V-1.90909H0.441761V2.09091ZM10.7303 1.02678L22.339 22.9515L25.8741 21.0798L14.2654 -0.844959L10.7303 1.02678ZM24.1065 24.0156H24.6037V20.0156H24.1065V24.0156ZM26.3712 22.9515L37.9799 1.02678L34.4448 -0.844959L22.8362 21.0798L26.3712 22.9515ZM36.2124 2.09091H48.2685V-1.90909H36.2124V2.09091ZM46.5266 -0.891863L27.9577 32.0201L31.4415 33.9856L50.0104 1.07368L46.5266 -0.891863ZM27.6996 33.0028V51H31.6996V33.0028H27.6996ZM29.6996 49H19.0107V53H29.6996V49ZM21.0107 51V33.0028H17.0107V51H21.0107ZM20.7525 32.0201L2.18365 -0.891863L-1.30012 1.07368L17.2688 33.9856L20.7525 32.0201Z" fill="white" mask="url(#path-1-outside-1_2311_2358)"/>
<defs>
<linearGradient id="paint0_linear_2311_2358" x1="25" y1="0.499999" x2="25" y2="58" gradientUnits="userSpaceOnUse">
<stop stop-color="#5373FF"/>
<stop offset="1" stop-color="#31FFF7"/>
</linearGradient>
</defs>
</svg>
