<svg width="39" height="51" viewBox="0 0 39 51" fill="none" xmlns="http://www.w3.org/2000/svg">
<mask id="path-1-outside-1_2311_2298" maskUnits="userSpaceOnUse" x="-2" y="-2" width="43" height="55" fill="black">
<rect fill="white" x="-2" y="-2" width="43" height="55"/>
<path d="M0.424716 51V0.0909076H20.5099C24.3712 0.0909076 27.6607 0.82836 30.3786 2.30327C33.0964 3.7616 35.1679 5.79167 36.593 8.39346C38.0348 10.9787 38.7557 13.9616 38.7557 17.3423C38.7557 20.723 38.0265 23.706 36.5682 26.2912C35.1099 28.8764 32.9969 30.8899 30.2294 32.3317C27.4785 33.7734 24.1475 34.4943 20.2365 34.4943H7.43466V25.8686H18.4964C20.5679 25.8686 22.2749 25.5123 23.6172 24.7997C24.9761 24.0705 25.987 23.0679 26.6499 21.7919C27.3293 20.4993 27.669 19.0161 27.669 17.3423C27.669 15.652 27.3293 14.1771 26.6499 12.9176C25.987 11.6416 24.9761 10.6555 23.6172 9.95952C22.2583 9.24692 20.5348 8.89062 18.4467 8.89062H11.1882V51H0.424716Z"/>
</mask>
<path d="M0.424716 51V0.0909076H20.5099C24.3712 0.0909076 27.6607 0.82836 30.3786 2.30327C33.0964 3.7616 35.1679 5.79167 36.593 8.39346C38.0348 10.9787 38.7557 13.9616 38.7557 17.3423C38.7557 20.723 38.0265 23.706 36.5682 26.2912C35.1099 28.8764 32.9969 30.8899 30.2294 32.3317C27.4785 33.7734 24.1475 34.4943 20.2365 34.4943H7.43466V25.8686H18.4964C20.5679 25.8686 22.2749 25.5123 23.6172 24.7997C24.9761 24.0705 25.987 23.0679 26.6499 21.7919C27.3293 20.4993 27.669 19.0161 27.669 17.3423C27.669 15.652 27.3293 14.1771 26.6499 12.9176C25.987 11.6416 24.9761 10.6555 23.6172 9.95952C22.2583 9.24692 20.5348 8.89062 18.4467 8.89062H11.1882V51H0.424716Z" fill="url(#paint0_linear_2311_2298)"/>
<path d="M0.424716 51H-1.57528V53H0.424716V51ZM0.424716 0.0909081V-1.90909H-1.57528V0.0909081H0.424716ZM30.3786 2.30327L29.4246 4.06112L29.4329 4.06559L30.3786 2.30327ZM36.593 8.39346L34.839 9.3543L34.8426 9.36096L34.8463 9.3676L36.593 8.39346ZM30.2294 32.3317L29.3054 30.5579L29.301 30.5602L30.2294 32.3317ZM7.43466 34.4943H5.43466V36.4943H7.43466V34.4943ZM7.43466 25.8686V23.8686H5.43466V25.8686H7.43466ZM23.6172 24.7997L24.555 26.5662L24.5628 26.562L23.6172 24.7997ZM26.6499 21.7919L24.8795 20.8613L24.875 20.8699L26.6499 21.7919ZM26.6499 12.9176L24.875 13.8396L24.8822 13.8534L24.8897 13.8672L26.6499 12.9176ZM23.6172 9.95952L22.6884 11.7308L22.6969 11.7352L22.7054 11.7396L23.6172 9.95952ZM11.1882 8.89062V6.89062H9.18821V8.89062H11.1882ZM11.1882 51V53H13.1882V51H11.1882ZM2.42472 51V0.0909081H-1.57528V51H2.42472ZM0.424716 2.09091H20.5099V-1.90909H0.424716V2.09091ZM20.5099 2.09091C24.1195 2.09091 27.0638 2.77991 29.4246 4.0611L31.3325 0.545431C28.2577 -1.12319 24.6229 -1.90909 20.5099 -1.90909V2.09091ZM29.4329 4.06559C31.8236 5.34839 33.6076 7.10629 34.839 9.3543L38.3471 7.43263C36.7281 4.47704 34.3691 2.17481 31.3242 0.540945L29.4329 4.06559ZM34.8463 9.3676C36.0996 11.6149 36.7557 14.2536 36.7557 17.3423H40.7557C40.7557 13.6697 39.97 10.3425 38.3398 7.41932L34.8463 9.3676ZM36.7557 17.3423C36.7557 20.4273 36.093 23.0628 34.8262 25.3085L38.3101 27.2738C39.96 24.3491 40.7557 21.0187 40.7557 17.3423H36.7557ZM34.8262 25.3085C33.5682 27.5387 31.7479 29.2855 29.3054 30.5579L31.1534 34.1054C34.2459 32.4944 36.6515 30.2142 38.3101 27.2738L34.8262 25.3085ZM29.301 30.5602C26.9012 31.8179 23.9061 32.4943 20.2365 32.4943V36.4943C24.3889 36.4943 28.0557 35.7289 31.1578 34.1031L29.301 30.5602ZM20.2365 32.4943H7.43466V36.4943H20.2365V32.4943ZM9.43466 34.4943V25.8686H5.43466V34.4943H9.43466ZM7.43466 27.8686H18.4964V23.8686H7.43466V27.8686ZM18.4964 27.8686C20.7818 27.8686 22.8382 27.4776 24.555 26.5662L22.6794 23.0332C21.7115 23.547 20.3541 23.8686 18.4964 23.8686V27.8686ZM24.5628 26.562C26.2493 25.6571 27.5626 24.3734 28.4247 22.7139L24.875 20.8699C24.4114 21.7625 23.7028 22.484 22.6716 23.0374L24.5628 26.562ZM28.4202 22.7225C29.2712 21.1034 29.669 19.2926 29.669 17.3423H25.669C25.669 18.7396 25.3874 19.8952 24.8795 20.8613L28.4202 22.7225ZM29.669 17.3423C29.669 15.3806 29.2732 13.5679 28.4101 11.968L24.8897 13.8672C25.3855 14.7862 25.669 15.9234 25.669 17.3423H29.669ZM28.4247 11.9956C27.5581 10.3274 26.2335 9.05249 24.5289 8.17943L22.7054 11.7396C23.7187 12.2586 24.4159 12.9557 24.875 13.8396L28.4247 11.9956ZM24.546 8.18828C22.8161 7.28111 20.7472 6.89062 18.4467 6.89062V10.8906C20.3224 10.8906 21.7005 11.2127 22.6884 11.7308L24.546 8.18828ZM18.4467 6.89062H11.1882V10.8906H18.4467V6.89062ZM9.18821 8.89062V51H13.1882V8.89062H9.18821ZM11.1882 49H0.424716V53H11.1882V49Z" fill="white" mask="url(#path-1-outside-1_2311_2298)"/>
<defs>
<linearGradient id="paint0_linear_2311_2298" x1="19" y1="-17" x2="19" y2="68" gradientUnits="userSpaceOnUse">
<stop stop-color="#FFC700"/>
<stop offset="1" stop-color="#FF522C"/>
</linearGradient>
</defs>
</svg>
