<svg width="361" height="41" viewBox="0 0 361 41" fill="none" xmlns="http://www.w3.org/2000/svg">
<path d="M44.4912 0.747681H284.676C285.854 0.747681 286.973 1.26759 287.733 2.1686L290.836 5.84701C291.596 6.74802 292.715 7.26793 293.894 7.26793H355.681C357.89 7.26793 359.681 9.05879 359.681 11.2679V30.4987V35.9987C359.681 38.2078 357.89 39.9987 355.681 39.9987H44.4912H5C2.79086 39.9987 1 38.2078 1 35.9987V34.6465C1 33.7409 1.35971 32.8725 2 32.2322C2.64029 31.5919 3 30.7235 3 29.818V12.1826C3 11.3957 2.62951 10.6548 2 10.1826C1.37049 9.71048 1 8.96951 1 8.18262V4.74768C1 2.53854 2.79086 0.747681 5 0.747681H44.4912Z" fill="url(#paint0_linear_2647_392)"/>
<path d="M44.4912 0.747681H284.676C285.854 0.747681 286.973 1.26759 287.733 2.1686L290.836 5.84701C291.596 6.74802 292.715 7.26793 293.894 7.26793H355.681C357.89 7.26793 359.681 9.05879 359.681 11.2679V30.4987V35.9987C359.681 38.2078 357.89 39.9987 355.681 39.9987H44.4912M44.4912 0.747681H5C2.79086 0.747681 1 2.53854 1 4.74768L1 8.18262C1 8.96951 1.37049 9.71048 2 10.1826V10.1826C2.62951 10.6548 3 11.3957 3 12.1826V29.818C3 30.7235 2.64029 31.5919 2 32.2322V32.2322C1.35971 32.8725 1 33.7409 1 34.6465V35.9987C1 38.2078 2.79086 39.9987 5 39.9987H44.4912M44.4912 0.747681V20.3732V39.9987" stroke="#2F3B4D"/>
<path d="M44.4912 0.747681H284.676C285.854 0.747681 286.973 1.26759 287.733 2.1686L290.836 5.84701C291.596 6.74802 292.715 7.26793 293.894 7.26793H355.681C357.89 7.26793 359.681 9.05879 359.681 11.2679V30.4987V35.9987C359.681 38.2078 357.89 39.9987 355.681 39.9987H44.4912M44.4912 0.747681H5C2.79086 0.747681 1 2.53854 1 4.74768L1 8.18262C1 8.96951 1.37049 9.71048 2 10.1826V10.1826C2.62951 10.6548 3 11.3957 3 12.1826V29.818C3 30.7235 2.64029 31.5919 2 32.2322V32.2322C1.35971 32.8725 1 33.7409 1 34.6465V35.9987C1 38.2078 2.79086 39.9987 5 39.9987H44.4912M44.4912 0.747681V20.3732V39.9987" stroke="url(#paint1_linear_2647_392)"/>
<defs>
<linearGradient id="paint0_linear_2647_392" x1="27.4104" y1="39.9987" x2="309.444" y2="-55.8598" gradientUnits="userSpaceOnUse">
<stop stop-color="#243D5C"/>
<stop offset="1" stop-color="#171F3B"/>
</linearGradient>
<linearGradient id="paint1_linear_2647_392" x1="12.8952" y1="-18.8852" x2="361.73" y2="-18.8848" gradientUnits="userSpaceOnUse">
<stop stop-color="#1D3657"/>
<stop offset="0.305851" stop-color="#498990"/>
<stop offset="1" stop-color="#1D3657"/>
</linearGradient>
</defs>
</svg>
