<svg width="361" height="32" viewBox="0 0 361 32" fill="none" xmlns="http://www.w3.org/2000/svg">
<path d="M29.8238 0.897949H34.8651C35.966 0.897949 37.0182 1.35168 37.7739 2.15224L40.906 5.47035C41.6617 6.27092 42.7139 6.72464 43.8148 6.72464H355.681C357.89 6.72464 359.681 8.5155 359.681 10.7246V20.2554C359.681 21.3163 359.259 22.3337 358.509 23.0839L351.352 30.2407C350.602 30.9909 349.585 31.4123 348.524 31.4123H29.8238H5C2.79086 31.4123 1 29.6214 1 27.4123V26.06C1 25.1545 1.35971 24.2861 2 23.6458C2.64029 23.0055 3 22.1371 3 21.2316V11.1715C3 10.3846 2.62951 9.64359 2 9.17146C1.37049 8.69932 1 7.95835 1 7.17146V4.89795C1 2.68881 2.79086 0.897949 5 0.897949H29.8238Z" fill="url(#paint0_linear_2141_6157)"/>
<path d="M29.8238 0.897949H34.8651C35.966 0.897949 37.0182 1.35168 37.7739 2.15224L40.906 5.47035C41.6617 6.27092 42.7139 6.72464 43.8148 6.72464H355.681C357.89 6.72464 359.681 8.5155 359.681 10.7246V20.2554C359.681 21.3163 359.259 22.3337 358.509 23.0839L351.352 30.2407C350.602 30.9909 349.585 31.4123 348.524 31.4123H29.8238M29.8238 0.897949V31.4123M29.8238 0.897949H5C2.79086 0.897949 1 2.68881 1 4.89795L1 7.17146C1 7.95835 1.37049 8.69932 2 9.17146V9.17146C2.62951 9.6436 3 10.3846 3 11.1715V21.2316C3 22.1371 2.64029 23.0055 2 23.6458V23.6458C1.35971 24.2861 1 25.1545 1 26.06V27.4123C1 29.6214 2.79086 31.4123 5 31.4123H29.8238" stroke="#009F76"/>
<defs>
<linearGradient id="paint0_linear_2141_6157" x1="1" y1="16.1551" x2="359.681" y2="16.1551" gradientUnits="userSpaceOnUse">
<stop stop-color="#00694A"/>
<stop offset="0.5" stop-color="#00815D"/>
<stop offset="1" stop-color="#00694A"/>
</linearGradient>
</defs>
</svg>
