<svg width="361" height="32" viewBox="0 0 361 32" fill="none" xmlns="http://www.w3.org/2000/svg">
<path d="M29.8238 0.897888H34.8651C35.966 0.897888 37.0182 1.35162 37.7739 2.15218L40.906 5.47029C41.6617 6.27085 42.7139 6.72458 43.8148 6.72458H355.681C357.89 6.72458 359.681 8.51544 359.681 10.7246V20.2554C359.681 21.3162 359.259 22.3336 358.509 23.0838L351.352 30.2407C350.602 30.9908 349.585 31.4122 348.524 31.4122H29.8238H5C2.79086 31.4122 1 29.6214 1 27.4122V26.06C1 25.1545 1.35971 24.2861 2 23.6458C2.64029 23.0055 3 22.1371 3 21.2315V11.1714C3 10.3845 2.62951 9.64353 2 9.1714C1.37049 8.69926 1 7.95829 1 7.1714V4.89789C1 2.68875 2.79086 0.897888 5 0.897888H29.8238Z" fill="#262346"/>
<path d="M29.8238 0.897888H34.8651C35.966 0.897888 37.0182 1.35162 37.7739 2.15218L40.906 5.47029C41.6617 6.27085 42.7139 6.72458 43.8148 6.72458H355.681C357.89 6.72458 359.681 8.51544 359.681 10.7246V20.2554C359.681 21.3162 359.259 22.3336 358.509 23.0838L351.352 30.2407C350.602 30.9908 349.585 31.4122 348.524 31.4122H29.8238M29.8238 0.897888V31.4122M29.8238 0.897888H5C2.79086 0.897888 1 2.68875 1 4.89789L1 7.1714C1 7.95829 1.37049 8.69926 2 9.1714V9.1714C2.62951 9.64353 3 10.3845 3 11.1714V21.2315C3 22.1371 2.64029 23.0055 2 23.6458V23.6458C1.35971 24.2861 1 25.1545 1 26.06V27.4122C1 29.6214 2.79086 31.4122 5 31.4122H29.8238" stroke="#5F588C"/>
</svg>
