<svg width="361" height="32" viewBox="0 0 361 32" fill="none" xmlns="http://www.w3.org/2000/svg">
<path d="M29.8238 0.898438H34.8651C35.966 0.898438 37.0182 1.35216 37.7739 2.15273L40.906 5.47084C41.6617 6.2714 42.7139 6.72513 43.8148 6.72513H355.681C357.89 6.72513 359.681 8.51599 359.681 10.7251V20.2559C359.681 21.3168 359.259 22.3342 358.509 23.0843L351.352 30.2412C350.602 30.9913 349.585 31.4128 348.524 31.4128H29.8238H5C2.79086 31.4128 1 29.6219 1 27.4128V26.0605C1 25.155 1.35971 24.2866 2 23.6463C2.64029 23.006 3 22.1376 3 21.2321V11.1719C3 10.3851 2.62951 9.64408 2 9.17195C1.37049 8.69981 1 7.95884 1 7.17195V4.89844C1 2.6893 2.79086 0.898438 5 0.898438H29.8238Z" fill="#2B4F14"/>
<path d="M29.8238 0.898438H34.8651C35.966 0.898438 37.0182 1.35216 37.7739 2.15273L40.906 5.47084C41.6617 6.2714 42.7139 6.72513 43.8148 6.72513H355.681C357.89 6.72513 359.681 8.51599 359.681 10.7251V20.2559C359.681 21.3168 359.259 22.3342 358.509 23.0843L351.352 30.2412C350.602 30.9913 349.585 31.4128 348.524 31.4128H29.8238M29.8238 0.898438V31.4128M29.8238 0.898438H5C2.79086 0.898438 1 2.6893 1 4.89844L1 7.17195C1 7.95884 1.37049 8.69981 2 9.17195V9.17195C2.62951 9.64408 3 10.3851 3 11.1719V21.2321C3 22.1376 2.64029 23.006 2 23.6463V23.6463C1.35971 24.2866 1 25.155 1 26.0605V27.4128C1 29.6219 2.79086 31.4128 5 31.4128H29.8238" stroke="#34571D"/>
</svg>
