<svg  viewBox="0 0 20 20" fill="none" xmlns="http://www.w3.org/2000/svg">
<g id="&#228;&#189;&#147;&#232;&#130;&#178;&#232;&#191;&#148;&#229;&#155;&#158;">
<path id="Vector" d="M10 2.5C8.51664 2.5 7.06659 2.93987 5.83323 3.76398C4.59986 4.58809 3.63856 5.75943 3.07091 7.12987C2.50325 8.50032 2.35472 10.0083 2.64411 11.4632C2.9335 12.918 3.64781 14.2544 4.6967 15.3033C5.7456 16.3522 7.08197 17.0665 8.53682 17.3559C9.99168 17.6453 11.4997 17.4967 12.8701 16.9291C14.2406 16.3614 15.4119 15.4001 16.236 14.1668C17.0601 12.9334 17.5 11.4834 17.5 10C17.5 8.01087 16.7098 6.10322 15.3033 4.6967C13.8968 3.29018 11.9891 2.5 10 2.5ZM14.8438 13.1812C14.8438 13.3304 14.7845 13.4735 14.679 13.579C14.5735 13.6845 14.4304 13.7437 14.2813 13.7437C14.1321 13.7437 13.989 13.6845 13.8835 13.579C13.778 13.4735 13.7188 13.3304 13.7188 13.1812V12.3562C13.7188 11.9459 13.6379 11.5395 13.4809 11.1604C13.3238 10.7812 13.0936 10.4367 12.8035 10.1465C12.5133 9.85636 12.1688 9.62617 11.7896 9.46912C11.4105 9.31208 11.0041 9.23125 10.5938 9.23125H7.05L8.63125 10.8125C8.73734 10.9186 8.79694 11.0625 8.79694 11.2125C8.79694 11.3625 8.73734 11.5064 8.63125 11.6125C8.52517 11.7186 8.38128 11.7782 8.23125 11.7782C8.08122 11.7782 7.93734 11.7186 7.83125 11.6125L5.33125 9.1125C5.27834 9.06018 5.23634 8.99789 5.20767 8.92923C5.179 8.86057 5.16424 8.7869 5.16424 8.7125C5.16424 8.63809 5.179 8.56443 5.20767 8.49576C5.23634 8.4271 5.27834 8.36481 5.33125 8.3125L7.9125 5.7C8.01989 5.60597 8.15902 5.55629 8.30167 5.56101C8.44433 5.56574 8.57986 5.62453 8.68079 5.72546C8.78172 5.82639 8.84051 5.96192 8.84524 6.10458C8.84996 6.24724 8.80028 6.38636 8.70625 6.49375L7.1125 8.09375H10.5813C11.7117 8.09375 12.7959 8.54283 13.5953 9.34221C14.3947 10.1416 14.8438 11.2258 14.8438 12.3562V13.1812Z" fill="currentColor"/>
</g>
</svg>
