<svg viewBox="0 0 18 18" fill="none" xmlns="http://www.w3.org/2000/svg">
<g id="Earth (&#229;&#156;&#176;&#231;&#144;&#131;&#228;&#187;&#170;)">
<path id="Vector" fill-rule="evenodd" clip-rule="evenodd" d="M9 16.5C13.1421 16.5 16.5 13.1421 16.5 9C16.5 4.85786 13.1421 1.5 9 1.5C4.85786 1.5 1.5 4.85786 1.5 9C1.5 13.1421 4.85786 16.5 9 16.5Z" stroke="currentColor" stroke-linecap="round" stroke-linejoin="round"/>
<path id="Vector_2" d="M1.5 9H16.5" stroke="currentColor" stroke-linecap="round" stroke-linejoin="round"/>
<path id="Vector_3" fill-rule="evenodd" clip-rule="evenodd" d="M9 16.5C10.6569 16.5 12 13.1421 12 9C12 4.85786 10.6569 1.5 9 1.5C7.34314 1.5 6 4.85786 6 9C6 13.1421 7.34314 16.5 9 16.5Z" stroke="currentColor" stroke-linecap="round" stroke-linejoin="round"/>
<path id="Vector_4" d="M3.69672 3.80328C5.05395 5.16052 6.92895 6 9 6C11.0711 6 12.9461 5.16052 14.3033 3.80328" stroke="currentColor" stroke-linecap="round" stroke-linejoin="round"/>
<path id="Vector_5" d="M14.3033 14.1967C12.9461 12.8395 11.0711 12 9 12C6.92895 12 5.05395 12.8395 3.69672 14.1967" stroke="currentColor" stroke-linecap="round" stroke-linejoin="round"/>
</g>
</svg>
