<svg viewBox="0 0 16 16" fill="none" xmlns="http://www.w3.org/2000/svg">
<g>
<path fill-rule="evenodd" clip-rule="evenodd" d="M1 0.212128C0.447715 0.212128 0 0.659843 0 1.21213C0 1.76441 0.447715 2.21213 1 2.21213H15C15.5523 2.21213 16 1.76441 16 1.21213C16 0.659843 15.5523 0.212128 15 0.212128H1ZM1 13.7879C0.447715 13.7879 0 14.2356 0 14.7879C0 15.3402 0.447715 15.7879 1 15.7879H15C15.5523 15.7879 16 15.3402 16 14.7879C16 14.2356 15.5523 13.7879 15 13.7879H1ZM5.53685 6.15337C5.53685 5.40141 4.73809 4.91849 4.07223 5.26786L0.552756 7.1145C-0.161084 7.48904 -0.161086 8.51097 0.552755 8.88552L4.07223 10.7322C4.73809 11.0815 5.53685 10.5986 5.53685 9.84665V6.15337ZM8.495 7.00003C7.94271 7.00003 7.495 7.44775 7.495 8.00003C7.495 8.55232 7.94271 9.00003 8.495 9.00003H15C15.5523 9.00003 16 8.55232 16 8.00003C16 7.44775 15.5523 7.00003 15 7.00003H8.495Z" fill="currentColor"/>
</g>
</svg>
