<svg viewBox="0 0 249 203" fill="none" xmlns="http://www.w3.org/2000/svg">
<path d="M8.72656 93.0795V95.1803" stroke="currentColor" stroke-width="2.04545" stroke-linecap="round"/>
<path d="M4.00781 94.2175L5.72445 95.9846" stroke="currentColor" stroke-width="2.04545" stroke-linecap="round"/>
<path d="M2 98.9215H4.4273" stroke="currentColor" stroke-width="2.04545" stroke-linecap="round"/>
<path d="M3.81104 103.709L5.52767 101.942" stroke="currentColor" stroke-width="2.04545" stroke-linecap="round"/>
<path d="M8.72656 104.284V102.183" stroke="currentColor" stroke-width="2.04545" stroke-linecap="round"/>
<path d="M12.2277 102.883L10.8271 101.483" stroke="currentColor" stroke-width="2.04545" stroke-linecap="round"/>
<path d="M15.0285 99.3819H12.9277" stroke="currentColor" stroke-width="2.04545" stroke-linecap="round"/>
<path d="M13.6281 94.4801L12.2275 95.8806" stroke="currentColor" stroke-width="2.04545" stroke-linecap="round"/>
<path d="M121.468 1.34571V2.74623" stroke="currentColor" stroke-width="2.04545" stroke-linecap="round"/>
<path d="M117.267 5.54726H118.667" stroke="currentColor" stroke-width="2.04545" stroke-linecap="round"/>
<path d="M121.468 9.74881V8.3483" stroke="currentColor" stroke-width="2.04545" stroke-linecap="round"/>
<path d="M124.969 5.54726H123.569" stroke="currentColor" stroke-width="2.04545" stroke-linecap="round"/>
<path d="M40.2378 60.1674V62.2682" stroke="currentColor" stroke-width="2.04545" stroke-linecap="round"/>
<path d="M33.9355 66.4697H36.0363" stroke="currentColor" stroke-width="2.04545" stroke-linecap="round"/>
<path d="M40.2378 72.0718V69.971" stroke="currentColor" stroke-width="2.04545" stroke-linecap="round"/>
<path d="M45.84 66.4697H43.7393" stroke="currentColor" stroke-width="2.04545" stroke-linecap="round"/>
<path d="M190.971 136.523C192.645 136.523 194.002 137.881 194.002 139.554C194.002 141.229 192.645 142.586 190.971 142.586C189.298 142.586 187.94 141.229 187.94 139.554" stroke="currentColor" stroke-width="2.04545" stroke-linecap="round"/>
<path fill-rule="evenodd" clip-rule="evenodd" d="M204.841 109.02C206.641 108.459 209.399 106.258 210.038 103.89C210.617 105.983 213.044 108.459 215.234 108.646C212.769 109.519 210.412 112.112 210.038 114.149C209.783 112.073 206.523 109.323 204.841 109.02Z" fill="currentColor"/>
<path fill-rule="evenodd" clip-rule="evenodd" d="M20.1206 135.589C21.0207 135.308 22.3993 134.208 22.7185 133.024C23.008 134.07 24.2214 135.308 25.3164 135.402C24.0841 135.838 22.9058 137.135 22.7185 138.154C22.5913 137.116 20.9612 135.74 20.1206 135.589Z" fill="currentColor"/>
<path fill-rule="evenodd" clip-rule="evenodd" d="M36.8236 38.1773C36.8236 39.476 35.7713 40.5279 34.4736 40.5279C33.1752 40.5279 32.1235 39.476 32.1235 38.1773C32.1235 36.8792 33.1752 35.8267 34.4736 35.8267C35.7713 35.8267 36.8236 36.8792 36.8236 38.1773Z" fill="currentColor"/>
<path fill-rule="evenodd" clip-rule="evenodd" d="M193.748 44.4891C193.748 46.6589 191.989 48.4179 189.82 48.4179C187.65 48.4179 185.892 46.6589 185.892 44.4891C185.892 42.3192 187.65 40.5603 189.82 40.5603C191.989 40.5603 193.748 42.3192 193.748 44.4891Z" fill="currentColor"/>
<path fill-rule="evenodd" clip-rule="evenodd" d="M248.154 33.8445C248.154 35.566 246.76 36.961 245.039 36.961C243.318 36.961 241.923 35.566 241.923 33.8445C241.923 32.123 243.318 30.7279 245.039 30.7279C246.76 30.7279 248.154 32.123 248.154 33.8445Z" fill="currentColor"/>
<path fill-rule="evenodd" clip-rule="evenodd" d="M80.7432 179.399C80.7432 180.484 79.864 181.363 78.779 181.363C77.6947 181.363 76.8154 180.484 76.8154 179.399C76.8154 178.314 77.6947 177.434 78.779 177.434C79.864 177.434 80.7432 178.314 80.7432 179.399Z" stroke="currentColor" stroke-width="2.04545" stroke-linecap="round"/>
<path fill-rule="evenodd" clip-rule="evenodd" d="M79.575 23.0759C79.575 24.3747 78.5228 25.4266 77.225 25.4266C75.9272 25.4266 74.875 24.3747 74.875 23.0759C74.875 21.7778 75.9272 20.7253 77.225 20.7253C78.5228 20.7253 79.575 21.7778 79.575 23.0759Z" stroke="currentColor" stroke-width="2.04545" stroke-linecap="round"/>
<path fill-rule="evenodd" clip-rule="evenodd" d="M139.519 201.155C138.017 201.726 136.336 200.972 135.765 199.47C135.194 197.968 135.948 196.286 137.45 195.716C138.951 195.144 140.632 195.898 141.203 197.4C141.775 198.902 141.02 200.583 139.519 201.155Z" stroke="currentColor" stroke-width="2.04545" stroke-linecap="round"/>
</svg>
