<svg width="390" height="57" viewBox="0 0 390 57" fill="none" xmlns="http://www.w3.org/2000/svg" preserveAspectRatio="none">
<path d="M155.992 11.6616L155.991 11.6535C154.782 5.50764 149.395 1.07568 143.131 1.07568H5.99465C2.40422 1.07568 -0.5 3.98641 -0.5 7.57568V57.5757V58.0757H0H390H390.5V57.5757V7.57568C390.5 3.98744 387.606 1.07568 384.015 1.07568H250.369C244.106 1.07568 238.718 5.50764 237.509 11.6535L237.507 11.6646L237.506 11.6759C236.264 19.9617 233.556 27.0932 228.922 32.3328C224.3 37.5595 217.725 40.9465 208.654 41.6885C198.808 42.1975 193.66 42.3117 183.468 41.6884L183.468 41.6882L183.455 41.6878C174.834 41.3798 168.785 38.2638 164.487 33.0717C160.169 27.8565 157.58 20.5029 155.992 11.6616Z" fill="#F0F5FF" stroke="url(#paint0_radial_7128_1140)"/>
<defs>
<radialGradient id="paint0_radial_7128_1140" cx="0" cy="0" r="1" gradientUnits="userSpaceOnUse" gradientTransform="translate(198.5 -38.5001) scale(299.5 123.5)">
<stop stop-color="#C7A8FF"/>
<stop offset="1" stop-color="white"/>
</radialGradient>
</defs>
</svg>
