<svg width="24" height="24" viewBox="0 0 24 24" fill="none" xmlns="http://www.w3.org/2000/svg">
<path d="M12 2.24438C10.0716 2.24438 8.18657 2.81621 6.58319 3.88756C4.97982 4.9589 3.73013 6.48164 2.99218 8.26322C2.25422 10.0448 2.06114 12.0052 2.43735 13.8965C2.81355 15.7878 3.74215 17.5251 5.10571 18.8887C6.46928 20.2522 8.20656 21.1808 10.0979 21.557C11.9892 21.9332 13.9496 21.7402 15.7312 21.0022C17.5127 20.2643 19.0355 19.0146 20.1068 17.4112C21.1782 15.8078 21.75 13.9228 21.75 11.9944C21.7471 9.40942 20.7189 6.93117 18.8911 5.10332C17.0632 3.27548 14.585 2.24731 12 2.24438ZM13.125 16.4944H12.75V17.2444C12.75 17.4433 12.671 17.6341 12.5303 17.7747C12.3897 17.9154 12.1989 17.9944 12 17.9944C11.8011 17.9944 11.6103 17.9154 11.4697 17.7747C11.329 17.6341 11.25 17.4433 11.25 17.2444V16.4944H9.75C9.55109 16.4944 9.36033 16.4154 9.21967 16.2747C9.07902 16.1341 9 15.9433 9 15.7444C9 15.5455 9.07902 15.3547 9.21967 15.2141C9.36033 15.0734 9.55109 14.9944 9.75 14.9944H13.125C13.4234 14.9944 13.7095 14.8759 13.9205 14.6649C14.1315 14.4539 14.25 14.1678 14.25 13.8694C14.25 13.571 14.1315 13.2849 13.9205 13.0739C13.7095 12.8629 13.4234 12.7444 13.125 12.7444H10.875C10.1788 12.7444 9.51113 12.4678 9.01885 11.9755C8.52657 11.4833 8.25 10.8156 8.25 10.1194C8.25 9.42319 8.52657 8.75551 9.01885 8.26323C9.51113 7.77095 10.1788 7.49438 10.875 7.49438H11.25V6.74438C11.25 6.54547 11.329 6.35471 11.4697 6.21405C11.6103 6.0734 11.8011 5.99438 12 5.99438C12.1989 5.99438 12.3897 6.0734 12.5303 6.21405C12.671 6.35471 12.75 6.54547 12.75 6.74438V7.49438H14.25C14.4489 7.49438 14.6397 7.5734 14.7803 7.71406C14.921 7.85471 15 8.04547 15 8.24438C15 8.4433 14.921 8.63406 14.7803 8.77471C14.6397 8.91537 14.4489 8.99438 14.25 8.99438H10.875C10.5766 8.99438 10.2905 9.11291 10.0795 9.32389C9.86853 9.53487 9.75 9.82102 9.75 10.1194C9.75 10.4178 9.86853 10.7039 10.0795 10.9149C10.2905 11.1259 10.5766 11.2444 10.875 11.2444H13.125C13.8212 11.2444 14.4889 11.5209 14.9812 12.0132C15.4734 12.5055 15.75 13.1732 15.75 13.8694C15.75 14.5656 15.4734 15.2333 14.9812 15.7255C14.4889 16.2178 13.8212 16.4944 13.125 16.4944Z" fill="currentColor" />
</svg>
