<svg width="19" height="18" viewBox="0 0 19 18" fill="none" xmlns="http://www.w3.org/2000/svg">
<path d="M8.21144 2.25H8.14927C7.14334 2.25 6.34557 2.25 5.71545 2.32535C5.06837 2.4007 4.53527 2.56176 4.08976 2.92816C3.93906 3.0506 3.8006 3.19 3.67627 3.3407C3.31082 3.78621 3.1507 4.31837 3.07347 4.96639C3 5.59745 3 6.39428 3 7.39927V7.46049C3 8.46642 3 9.26326 3.07535 9.89432C3.1507 10.5414 3.31176 11.0745 3.67816 11.52C3.8006 11.6707 3.94 11.8092 4.0907 11.9326C4.51266 12.2792 5.01374 12.4412 5.61655 12.5231C6.10444 12.589 6.69312 12.6051 7.40236 12.6079C7.41083 12.9997 7.42873 13.3425 7.46829 13.6411C7.54458 14.2063 7.70753 14.6819 8.08522 15.0596C8.46292 15.4382 8.93951 15.6002 9.50464 15.6765C10.049 15.75 10.7413 15.75 11.5994 15.75H12.2964C13.1554 15.75 13.8477 15.75 14.3921 15.6765C14.9572 15.6012 15.4328 15.4382 15.8105 15.0596C16.1892 14.6828 16.3512 14.2063 16.4275 13.6411C16.5 13.0967 16.5 12.4044 16.5 11.5454V10.8484C16.5 9.99039 16.5 9.29811 16.4275 8.7537C16.3521 8.18857 16.1892 7.71198 15.8105 7.33428C15.4328 6.95659 14.9572 6.79364 14.3921 6.71829C14.0494 6.67739 13.7048 6.65538 13.3598 6.65236C13.356 5.94312 13.34 5.35444 13.2741 4.86467C13.1931 4.26186 13.0301 3.76172 12.6835 3.33976C12.5598 3.18878 12.4216 3.05029 12.2709 2.92627C11.8254 2.56082 11.2923 2.4007 10.6453 2.32347C10.0142 2.25 9.21737 2.25 8.21144 2.25ZM12.4179 6.64576H11.5994C10.7413 6.64576 10.049 6.64576 9.50464 6.71923C8.93951 6.79458 8.46292 6.95753 8.08522 7.33522C7.70753 7.71292 7.54458 8.18951 7.46923 8.75464C7.39576 9.29905 7.39576 9.99133 7.39576 10.8494V11.6679C6.69877 11.6632 6.16849 11.6481 5.74182 11.5906C5.23415 11.5219 4.92521 11.4004 4.68785 11.2054C4.58425 11.1206 4.49006 11.0265 4.40529 10.9229C4.2009 10.6733 4.07563 10.3427 4.0097 9.78412C3.94377 9.21522 3.94188 8.4749 3.94188 7.43035C3.94188 6.38675 3.94282 5.64549 4.01064 5.07659C4.07657 4.51805 4.2009 4.18745 4.40623 3.93785C4.491 3.83425 4.58519 3.74006 4.6888 3.65529C4.93745 3.4509 5.26805 3.32563 5.82659 3.2597C6.39549 3.19377 7.13675 3.19188 8.18129 3.19188C9.22396 3.19188 9.96616 3.19282 10.5341 3.26064C11.0927 3.32657 11.4233 3.4509 11.6738 3.65623C11.7765 3.741 11.8716 3.83519 11.9564 3.9388C12.1504 4.17427 12.2719 4.48509 12.3406 4.99182C12.3972 5.41849 12.4132 5.94877 12.4179 6.64576ZM8.75113 8.00208C8.92538 7.82783 9.16933 7.71386 9.62991 7.65264C10.1037 7.58859 10.7319 7.58671 11.6342 7.58671H12.2615C13.1629 7.58671 13.7921 7.58859 14.2659 7.65264C14.7274 7.71386 14.9713 7.82783 15.1446 8.00113C15.3189 8.17538 15.4319 8.41933 15.4931 8.87991C15.5572 9.35462 15.5591 9.98285 15.5591 10.8842V11.5125C15.5591 12.4139 15.5572 13.0421 15.4931 13.5159C15.4319 13.9774 15.3189 14.2213 15.1446 14.3946C14.9713 14.5689 14.7274 14.6819 14.2659 14.7431C13.7921 14.8081 13.1639 14.8091 12.2615 14.8091H11.6342C10.7329 14.8091 10.1037 14.8072 9.62991 14.7431C9.16839 14.6819 8.92538 14.5689 8.75113 14.3946C8.57783 14.2213 8.46386 13.9774 8.40264 13.5159C8.33859 13.0421 8.33671 12.4139 8.33671 11.5125V10.8842C8.33671 9.98285 8.33859 9.35462 8.40264 8.87991C8.46386 8.41839 8.57783 8.17538 8.75113 8.00113V8.00208Z" fill="currentColor" />
</svg>
