<svg width="43" height="329" viewBox="0 0 43 329" fill="none" xmlns="http://www.w3.org/2000/svg">
<path d="M40.8483 62.5029L40.0113 63.05L40.0113 63.05L40.8483 62.5029ZM0 0L10.3036 5.21234L0.637801 11.5294L0 0ZM7 327H37.5V329H7V327ZM40.5 324V64.6912H42.5V324H40.5ZM40.0113 63.05L4.08656 8.08084L5.76073 6.9867L41.6854 61.9558L40.0113 63.05ZM40.5 64.6912C40.5 64.1082 40.3302 63.5379 40.0113 63.05L41.6854 61.9558C42.2169 62.7691 42.5 63.7196 42.5 64.6912H40.5ZM37.5 327C39.1569 327 40.5 325.657 40.5 324H42.5C42.5 326.761 40.2614 329 37.5 329V327Z" fill="#1DB31E"/>
</svg>
