<svg width="15" height="15" viewBox="0 0 15 15" fill="none" xmlns="http://www.w3.org/2000/svg">
<g clip-path="url(#clip0_235_2672)">
<path d="M7.75001 0.5C11.616 0.5 14.75 3.634 14.75 7.5C14.75 11.366 11.616 14.5 7.75001 14.5C6.46634 14.5 5.26334 14.1543 4.22868 13.5513L1.82434 14.2067C1.71618 14.236 1.60221 14.2362 1.49393 14.2074C1.38565 14.1785 1.2869 14.1216 1.20766 14.0423C1.12843 13.9631 1.07151 13.8644 1.04265 13.7561C1.0138 13.6478 1.01404 13.5338 1.04334 13.4257L1.69901 11.0213C1.07565 9.95263 0.748098 8.73722 0.750008 7.5C0.750008 3.634 3.88401 0.5 7.75001 0.5ZM7.75001 1.83333C4.62034 1.83333 2.08334 4.37033 2.08334 7.5C2.08334 8.51667 2.35034 9.492 2.85067 10.3497L3.11668 10.8057L2.61867 12.6313L4.44434 12.1333L4.90034 12.3993C5.76518 12.9038 6.74881 13.1686 7.75001 13.1667C10.8797 13.1667 13.4167 10.6297 13.4167 7.5C13.4167 4.37033 10.8797 1.83333 7.75001 1.83333ZM10.492 5.36667C10.7353 5.58 10.772 5.94133 10.5853 6.19767L10.5497 6.242L7.63034 9.57533C7.52615 9.69424 7.38047 9.76885 7.22309 9.7839C7.06571 9.79896 6.90852 9.75333 6.78367 9.65633L6.74201 9.621L4.99467 7.998C4.8775 7.88947 4.80673 7.73991 4.7971 7.58049C4.78748 7.42106 4.83975 7.26408 4.94302 7.14224C5.04629 7.02041 5.19259 6.94312 5.35144 6.9265C5.51028 6.90987 5.66942 6.95519 5.79567 7.053L5.83868 7.08967L7.11801 8.27767L9.61701 5.42467C9.67067 5.36342 9.73587 5.31334 9.80889 5.2773C9.88191 5.24125 9.96131 5.21994 10.0426 5.21459C10.1238 5.20923 10.2053 5.21994 10.2824 5.24609C10.3596 5.27224 10.4308 5.31333 10.492 5.367V5.36667Z" fill="#BDB8E1"/>
</g>
<defs>
<clipPath id="clip0_235_2672">
<rect width="14" height="14" fill="white" transform="translate(0.75 0.5)"/>
</clipPath>
</defs>
</svg>
