<svg width="30" height="30" viewBox="0 0 30 30" fill="none" xmlns="http://www.w3.org/2000/svg">
<path fill-rule="evenodd" clip-rule="evenodd" d="M6.92163 3.26432C7.20738 2.91189 7.67067 2.91189 7.95642 3.26432L10.3501 6.21655C11.7392 5.31507 13.3213 4.8049 15 4.8049C16.6787 4.8049 18.2608 5.31507 19.6499 6.21655L22.0436 3.26432C22.3293 2.91189 22.7926 2.91189 23.0784 3.26432C23.3641 3.61675 23.3641 4.18815 23.0784 4.54058L20.9225 7.19958C23.3954 9.44493 25 13.0606 25 17.1384C25 17.239 24.999 17.3392 24.9971 17.4392H5.00292C5.00098 17.3392 5 17.239 5 17.1384C5 13.0606 6.6046 9.44493 9.07754 7.19958L6.92163 4.54058C6.63588 4.18815 6.63588 3.61675 6.92163 3.26432ZM11.0976 13.2278C11.6364 13.2278 12.0732 12.6891 12.0732 12.0245C12.0732 11.36 11.6364 10.8212 11.0976 10.8212C10.5587 10.8212 10.122 11.36 10.122 12.0245C10.122 12.6891 10.5587 13.2278 11.0976 13.2278ZM19.878 12.0245C19.878 12.6891 19.4413 13.2278 18.9024 13.2278C18.3636 13.2278 17.9268 12.6891 17.9268 12.0245C17.9268 11.36 18.3636 10.8212 18.9024 10.8212C19.4413 10.8212 19.878 11.36 19.878 12.0245Z" fill="currentColor"/>
<path d="M7.34591 24.0549H6.68682L7.69108 21.1458H8.4837L9.48654 24.0549H8.82745L8.09875 21.8106H8.07603L7.34591 24.0549ZM7.30472 22.9115H8.86154V23.3916H7.30472V22.9115ZM10.4304 22.7936V24.0549H9.82532V21.8731H10.402V22.2581H10.4276C10.4759 22.1312 10.5569 22.0308 10.6705 21.9569C10.7841 21.8821 10.9219 21.8447 11.0838 21.8447C11.2354 21.8447 11.3675 21.8778 11.4801 21.9441C11.5928 22.0104 11.6804 22.1051 11.7429 22.2282C11.8054 22.3504 11.8367 22.4962 11.8367 22.6657V24.0549H11.2316V22.7737C11.2325 22.6402 11.1984 22.536 11.1293 22.4612C11.0602 22.3854 10.965 22.3475 10.8438 22.3475C10.7623 22.3475 10.6904 22.3651 10.6279 22.4001C10.5663 22.4351 10.518 22.4863 10.483 22.5535C10.4489 22.6198 10.4314 22.6998 10.4304 22.7936ZM13.1176 24.0904C12.9519 24.0904 12.8018 24.0478 12.6673 23.9626C12.5338 23.8764 12.4277 23.75 12.3491 23.5833C12.2715 23.4157 12.2326 23.2102 12.2326 22.9669C12.2326 22.7169 12.2729 22.509 12.3534 22.3433C12.4339 22.1766 12.5409 22.0521 12.6744 21.9697C12.8089 21.8864 12.9561 21.8447 13.1162 21.8447C13.2383 21.8447 13.3401 21.8655 13.4216 21.9072C13.5039 21.9479 13.5702 21.9991 13.6204 22.0606C13.6716 22.1212 13.7104 22.1809 13.7369 22.2396H13.7554V21.1458H14.3591V24.0549H13.7625V23.7055H13.7369C13.7085 23.7661 13.6682 23.8262 13.6162 23.8859C13.565 23.9446 13.4983 23.9934 13.4159 24.0322C13.3344 24.071 13.235 24.0904 13.1176 24.0904ZM13.3093 23.6089C13.4069 23.6089 13.4893 23.5824 13.5565 23.5294C13.6247 23.4754 13.6768 23.4001 13.7127 23.3035C13.7497 23.2069 13.7681 23.0938 13.7681 22.964C13.7681 22.8343 13.7502 22.7216 13.7142 22.626C13.6782 22.5303 13.6261 22.4564 13.5579 22.4044C13.4897 22.3523 13.4069 22.3262 13.3093 22.3262C13.2099 22.3262 13.1261 22.3532 13.0579 22.4072C12.9897 22.4612 12.9381 22.536 12.9031 22.6316C12.868 22.7273 12.8505 22.8381 12.8505 22.964C12.8505 23.0909 12.868 23.2031 12.9031 23.3007C12.9391 23.3973 12.9907 23.473 13.0579 23.5279C13.1261 23.5819 13.2099 23.6089 13.3093 23.6089ZM14.8566 24.0549V21.8731H15.4432V22.2538H15.4659C15.5057 22.1184 15.5725 22.0161 15.6662 21.947C15.76 21.8769 15.8679 21.8419 15.9901 21.8419C16.0204 21.8419 16.0531 21.8438 16.0881 21.8475C16.1231 21.8513 16.1539 21.8565 16.1804 21.8632V22.4001C16.152 22.3916 16.1127 22.384 16.0625 22.3774C16.0123 22.3707 15.9664 22.3674 15.9247 22.3674C15.8357 22.3674 15.7562 22.3868 15.6861 22.4257C15.617 22.4635 15.5621 22.5166 15.5213 22.5848C15.4816 22.6529 15.4617 22.7315 15.4617 22.8206V24.0549H14.8566ZM17.3775 24.0975C17.1569 24.0975 16.9661 24.0507 16.8051 23.9569C16.645 23.8622 16.5215 23.7306 16.4343 23.562C16.3472 23.3925 16.3037 23.196 16.3037 22.9725C16.3037 22.7472 16.3472 22.5502 16.4343 22.3816C16.5215 22.2121 16.645 22.0805 16.8051 21.9867C16.9661 21.8921 17.1569 21.8447 17.3775 21.8447C17.5982 21.8447 17.7885 21.8921 17.9485 21.9867C18.1095 22.0805 18.2336 22.2121 18.3207 22.3816C18.4078 22.5502 18.4514 22.7472 18.4514 22.9725C18.4514 23.196 18.4078 23.3925 18.3207 23.562C18.2336 23.7306 18.1095 23.8622 17.9485 23.9569C17.7885 24.0507 17.5982 24.0975 17.3775 24.0975ZM17.3804 23.6288C17.4807 23.6288 17.5645 23.6004 17.6318 23.5436C17.699 23.4858 17.7497 23.4072 17.7838 23.3078C17.8188 23.2083 17.8363 23.0952 17.8363 22.9683C17.8363 22.8414 17.8188 22.7282 17.7838 22.6288C17.7497 22.5294 17.699 22.4508 17.6318 22.393C17.5645 22.3352 17.4807 22.3064 17.3804 22.3064C17.279 22.3064 17.1938 22.3352 17.1247 22.393C17.0565 22.4508 17.0049 22.5294 16.9698 22.6288C16.9358 22.7282 16.9187 22.8414 16.9187 22.9683C16.9187 23.0952 16.9358 23.2083 16.9698 23.3078C17.0049 23.4072 17.0565 23.4858 17.1247 23.5436C17.1938 23.6004 17.279 23.6288 17.3804 23.6288ZM18.8448 24.0549V21.8731H19.45V24.0549H18.8448ZM19.1488 21.5919C19.0589 21.5919 18.9817 21.562 18.9173 21.5024C18.8538 21.4418 18.8221 21.3693 18.8221 21.285C18.8221 21.2017 18.8538 21.1302 18.9173 21.0706C18.9817 21.01 19.0589 20.9796 19.1488 20.9796C19.2388 20.9796 19.3155 21.01 19.3789 21.0706C19.4433 21.1302 19.4755 21.2017 19.4755 21.285C19.4755 21.3693 19.4433 21.4418 19.3789 21.5024C19.3155 21.562 19.2388 21.5919 19.1488 21.5919ZM20.7387 24.0904C20.5729 24.0904 20.4229 24.0478 20.2884 23.9626C20.1549 23.8764 20.0488 23.75 19.9702 23.5833C19.8926 23.4157 19.8537 23.2102 19.8537 22.9669C19.8537 22.7169 19.894 22.509 19.9745 22.3433C20.055 22.1766 20.162 22.0521 20.2955 21.9697C20.43 21.8864 20.5772 21.8447 20.7372 21.8447C20.8594 21.8447 20.9612 21.8655 21.0426 21.9072C21.125 21.9479 21.1913 21.9991 21.2415 22.0606C21.2926 22.1212 21.3315 22.1809 21.358 22.2396H21.3765V21.1458H21.9801V24.0549H21.3836V23.7055H21.358C21.3296 23.7661 21.2893 23.8262 21.2372 23.8859C21.1861 23.9446 21.1194 23.9934 21.037 24.0322C20.9555 24.071 20.8561 24.0904 20.7387 24.0904ZM20.9304 23.6089C21.028 23.6089 21.1104 23.5824 21.1776 23.5294C21.2458 23.4754 21.2979 23.4001 21.3338 23.3035C21.3708 23.2069 21.3892 23.0938 21.3892 22.964C21.3892 22.8343 21.3712 22.7216 21.3353 22.626C21.2993 22.5303 21.2472 22.4564 21.179 22.4044C21.1108 22.3523 21.028 22.3262 20.9304 22.3262C20.831 22.3262 20.7472 22.3532 20.679 22.4072C20.6108 22.4612 20.5592 22.536 20.5242 22.6316C20.4891 22.7273 20.4716 22.8381 20.4716 22.964C20.4716 23.0909 20.4891 23.2031 20.5242 23.3007C20.5602 23.3973 20.6118 23.473 20.679 23.5279C20.7472 23.5819 20.831 23.6089 20.9304 23.6089Z" fill="currentColor"/>
</svg>
