<svg width="22" height="22" viewBox="0 0 22 22" fill="none" xmlns="http://www.w3.org/2000/svg">
<path d="M3.89308 7.80083H3.84633C3.24499 7.80083 2.75549 8.29308 2.75549 8.89166V13.6427C2.75549 14.2441 3.24499 14.7336 3.84633 14.7336H3.89399C4.49441 14.7336 4.98483 14.2432 4.98483 13.6427V8.89166C4.98362 8.60257 4.86818 8.32567 4.66367 8.12134C4.45916 7.917 4.18217 7.8018 3.89308 7.80083ZM5.50641 15.4761C5.50641 16.0279 5.95741 16.4771 6.50924 16.4771H7.58174V19.0437C7.58174 19.646 8.07216 20.1355 8.67258 20.1355H8.71841C9.32066 20.1355 9.81108 19.6451 9.81108 19.0428V16.4771H11.3089V19.0437C11.3089 19.646 11.8021 20.1355 12.4016 20.1355H12.4474C13.0497 20.1355 13.5392 19.6451 13.5392 19.0428V16.4771H14.6117C15.1626 16.4771 15.6136 16.0279 15.6136 15.4761V7.97591H5.50641V15.4761ZM13.0772 3.4265L13.9287 2.11291C13.9424 2.09306 13.952 2.07067 13.9569 2.04705C13.9618 2.02343 13.962 1.99907 13.9573 1.97541C13.9526 1.95174 13.9433 1.92925 13.9298 1.90926C13.9163 1.88927 13.8989 1.87219 13.8787 1.85902C13.8585 1.84585 13.8359 1.83687 13.8121 1.8326C13.7884 1.82833 13.764 1.82885 13.7405 1.83415C13.717 1.83944 13.6947 1.8494 13.6751 1.86343C13.6555 1.87746 13.6389 1.89528 13.6262 1.91583L12.7435 3.27525C12.0507 2.99362 11.3097 2.84977 10.5618 2.85175C9.81338 2.84963 9.07171 2.99348 8.37833 3.27525L7.49741 1.91583C7.48449 1.89562 7.46768 1.87819 7.44796 1.86455C7.42823 1.85091 7.40598 1.84133 7.38252 1.83639C7.35905 1.83144 7.33483 1.83121 7.31128 1.83572C7.28772 1.84023 7.2653 1.84939 7.24533 1.86266C7.22537 1.87558 7.20816 1.8923 7.19468 1.91188C7.1812 1.93145 7.17172 1.9535 7.16679 1.97675C7.16185 2 7.16154 2.02399 7.1659 2.04736C7.17025 2.07073 7.17918 2.093 7.19216 2.11291L8.04466 3.4265C6.50833 4.18 5.47249 5.59808 5.47249 7.22516C5.47249 7.326 5.47799 7.42408 5.48716 7.52125H15.6347C15.6427 7.42275 15.6469 7.32398 15.6475 7.22516C15.6475 5.59808 14.6117 4.18 13.0762 3.4265H13.0772ZM8.20874 5.77958C8.07941 5.77982 7.95527 5.72868 7.86364 5.63739C7.77202 5.54611 7.7204 5.42217 7.72016 5.29283C7.71992 5.16349 7.77106 5.03936 7.86235 4.94773C7.95363 4.8561 8.07757 4.80449 8.20691 4.80425C8.33625 4.804 8.46038 4.85515 8.55201 4.94643C8.64364 5.03772 8.69525 5.16166 8.69549 5.291C8.69574 5.42033 8.64459 5.54447 8.55331 5.6361C8.46202 5.72772 8.33808 5.77934 8.20874 5.77958ZM12.9131 5.77958C12.849 5.77976 12.7856 5.76733 12.7263 5.74298C12.6671 5.71864 12.6133 5.68287 12.5678 5.63772C12.4761 5.54652 12.4244 5.42263 12.424 5.29329C12.4237 5.16395 12.4747 5.03977 12.5659 4.94805C12.6571 4.85634 12.781 4.80461 12.9103 4.80425C13.0397 4.80388 13.1638 4.85491 13.2556 4.94611C13.3473 5.03731 13.399 5.1612 13.3994 5.29054C13.3997 5.41988 13.3487 5.54406 13.2575 5.63577C13.1663 5.72749 13.0424 5.77922 12.9131 5.77958ZM17.2746 7.80083H17.2287C16.6283 7.80083 16.137 8.29308 16.137 8.89166V13.6427C16.137 14.2441 16.6292 14.7336 17.2287 14.7336H17.2746C17.8768 14.7336 18.3663 14.2432 18.3663 13.6427V8.89166C18.3663 8.29216 17.8759 7.80083 17.2746 7.80083Z" fill="white"/>
</svg>
