<svg width="19" height="19" viewBox="0 0 19 19" fill="none" xmlns="http://www.w3.org/2000/svg">
<path fill-rule="evenodd" clip-rule="evenodd" d="M3.58559 6.65771C3.19317 6.65771 2.87506 6.97583 2.87506 7.36824V8.78929C2.87506 9.1817 3.19317 9.49982 3.58559 9.49982H15.6645C16.0569 9.49982 16.375 9.1817 16.375 8.78929V7.36824C16.375 6.97583 16.0569 6.65771 15.6645 6.65771H3.58559ZM15.025 9.81957H4.225V14.8998C4.225 15.6454 4.82942 16.2498 5.575 16.2498H13.675C14.4206 16.2498 15.025 15.6454 15.025 14.8998V9.81957ZM8.91446 14.4735V11.6314C8.91446 11.239 9.23257 10.9209 9.62499 10.9209C10.0174 10.9209 10.3355 11.239 10.3355 11.6314V14.4735C10.3355 14.8659 10.0174 15.1841 9.62499 15.1841C9.23257 15.1841 8.91446 14.8659 8.91446 14.4735Z" fill="currentColor"/>
<path d="M9.62495 4.52616C9.62495 4.32995 9.4659 4.1709 9.26969 4.1709C9.07349 4.1709 8.91443 4.32995 8.91443 4.52616V7.013C8.91443 7.20921 9.07349 7.36826 9.26969 7.36826C9.4659 7.36826 9.62495 7.20921 9.62495 7.013C9.62495 7.20921 9.78401 7.36826 9.98022 7.36826C10.1764 7.36826 10.3355 7.20921 10.3355 7.013L10.3355 4.52616C10.3355 4.32995 10.1764 4.1709 9.98022 4.1709C9.78401 4.1709 9.62495 4.32995 9.62495 4.52616Z" fill="currentColor"/>
<path d="M9.26987 4.88158C9.26987 3.70434 8.31553 2.75 7.13829 2.75C5.96105 2.75 5.00671 3.70434 5.00671 4.88158C5.00671 6.05882 5.96105 7.01315 7.13829 7.01315" stroke="currentColor" stroke-width="0.75" stroke-linecap="round" stroke-linejoin="round"/>
<path d="M12.112 7.01315C13.2892 7.01315 14.2436 6.05882 14.2436 4.88158C14.2436 3.70434 13.2892 2.75 12.112 2.75C10.9347 2.75 9.98041 3.70434 9.98041 4.88158" stroke="currentColor" stroke-width="0.75" stroke-linecap="round" stroke-linejoin="round"/>
</svg>
