<svg width="15" height="14" viewBox="0 0 15 14" fill="none" xmlns="http://www.w3.org/2000/svg">
<path d="M1.5 10.5813L1.5 3.41866C1.5 3.13955 1.63266 3 1.89798 3L13.102 3C13.3673 3 13.5 3.13955 13.5 3.41866L13.5 10.5813C13.5 10.8604 13.3673 11 13.102 11L1.89798 11C1.63266 11 1.5 10.8604 1.5 10.5813Z" fill="#FF4C40"/>
<path d="M1.5 10L1.5 8L13.5 8L13.5 10L1.5 10Z" fill="#4A4847"/>
<path d="M5.73535 4.21431L5.73535 3.72663L12.9886 3.72663L12.9886 4.21431L5.73535 4.21431ZM5.73535 5.84584L5.73535 5.35816L12.9886 5.35816L12.9886 5.84584L5.73535 5.84584ZM5.73535 5.03008L5.73535 4.54239L10.7807 4.54239L10.7807 5.03008L5.73535 5.03008Z" fill="#D4D6D8"/>
<path d="M2.32129 5.50014L2.32129 3.94842C2.32129 3.80064 2.39518 3.72674 2.54296 3.72674L4.89272 3.72674C5.0405 3.72674 5.11439 3.80064 5.11439 3.94842L5.11439 5.50014C5.11439 5.64793 5.0405 5.72182 4.89272 5.72182L2.54296 5.72182C2.39518 5.72182 2.32129 5.64793 2.32129 5.50014Z" fill="white"/>
</svg>
