<svg width="18" height="18" viewBox="0 0 18 18" fill="none" xmlns="http://www.w3.org/2000/svg">
<path d="M15.3638 2.63623L14.294 3.35312L13.49 4.51006L15.3528 9.00018L16.6705 9.35308L17.9999 9.00018C17.9999 6.59623 17.0638 4.33613 15.3638 2.63623Z" fill="#C157FF"/>
<path d="M2.64706 8.99991L1.18825 8.64697L0 8.99991C0 11.4039 0.93614 13.6639 2.63605 15.3638L3.75293 14.5999L4.50988 13.49L2.64706 8.99991Z" fill="#C157FF"/>
<path d="M2.63599 2.63605L3.09403 4.03532L4.50982 4.50992L8.99994 2.64706L9.52934 1.58824L8.99994 0C6.59595 0 4.33586 0.93614 2.63599 2.63605Z" fill="#C157FF"/>
<path d="M15.3639 2.63605C13.664 0.93614 11.404 0 9 0V2.64706L13.4901 4.50988L15.3639 2.63605Z" fill="#005D81"/>
<path d="M2.63605 2.63623C0.93614 4.33613 0 6.59619 0 9.00018H2.64706L4.50988 4.51006L2.63605 2.63623Z" fill="#005D81"/>
<path d="M13.49 13.4902L8.99991 15.353L8.64697 16.8354L8.99991 18.0001C11.4038 18.0001 13.6639 17.064 15.3638 15.364L14.7294 14.3767L13.49 13.4902Z" fill="#C157FF"/>
<path d="M15.3528 9L13.49 13.4901L15.3638 15.364C17.0638 13.664 17.9999 11.404 17.9999 9H15.3528Z" fill="#005D81"/>
<path d="M4.50982 13.4902L2.63599 15.364C4.33589 17.064 6.59595 18.0001 8.99994 18.0001V15.353L4.50982 13.4902Z" fill="#005D81"/>
<path d="M4.47719 4.53879C2.01315 7.03659 2.04054 11.059 4.53834 13.523L9.37676 9.37213L13.4614 4.47765C10.9636 2.01362 6.94122 2.04099 4.47719 4.53879Z" fill="#FEDEAE"/>
<path d="M13.4617 4.47754L4.53861 13.5229C7.03639 15.9869 11.0587 15.9595 13.5228 13.4617C15.9868 10.9639 15.9595 6.94155 13.4617 4.47754Z" fill="#FED3AE"/>
</svg>
