<svg width="390" height="60" viewBox="0 0 390 60" preserveAspectRatio="none" fill="none" xmlns="http://www.w3.org/2000/svg">
<path d="M138.5 0C146.916 0 153.145 4.80967 155.554 15.6553C155.667 16.3318 155.798 17.0024 155.944 17.667C155.963 17.7775 155.982 17.8884 156 18C156.004 17.9933 156.008 17.9862 156.013 17.9795C160.088 35.7471 175.996 49 195 49C214.004 49 229.911 35.747 233.986 17.9795C233.991 17.9864 233.995 17.9932 234 18C234.018 17.8848 234.038 17.7703 234.058 17.6562C234.2 17.0112 234.326 16.3604 234.437 15.7041C236.859 4.82396 243.268 4.6576e-05 251.696 0H390V60H0V0H138.5Z" fill="currentColor"/>
</svg>
