<svg width="390" height="84" viewBox="0 0 390 84" fill="none" xmlns="http://www.w3.org/2000/svg">
<g clip-path="url(#clip0_10660_142946)">
<path d="M270.75 1.07837H390V89.8186H0V1.07837H120L141.202 1.00024C149.779 0.968516 157.265 6.67859 159.562 14.8538C165.119 29.1953 179.113 39.3723 195.5 39.3723C211.868 39.3723 225.848 29.2187 231.418 14.9036C233.698 6.70255 241.197 0.968297 249.792 1.00024L270.75 1.07837Z" fill="#1A1A1A"/>
<mask id="path-2-outside-1_10660_142946" maskUnits="userSpaceOnUse" x="-1" y="-1" width="392" height="92" fill="black">
<rect fill="white" x="-1" y="-1" width="392" height="92"/>
<path d="M141.202 1C149.779 0.968271 157.265 6.67844 159.562 14.8535C165.119 29.1953 179.113 39.373 195.5 39.373C211.868 39.373 225.848 29.2192 231.418 14.9043C233.697 6.70291 241.196 0.969028 249.792 1.00098L270.75 1.0791H390V89.8193H0V1.0791H120L141.202 1Z"/>
</mask>
<path d="M141.202 1L141.198 6.85453e-06L141.198 6.97374e-06L141.202 1ZM159.562 14.8535L158.599 15.124L158.612 15.1701L158.629 15.2148L159.562 14.8535ZM231.418 14.9043L232.35 15.2669L232.368 15.2203L232.381 15.1721L231.418 14.9043ZM249.792 1.00098L249.796 0.000983536V0.000983477L249.792 1.00098ZM270.75 1.0791L270.746 2.0791H270.75V1.0791ZM390 1.0791H391V0.0791016H390V1.0791ZM390 89.8193V90.8193H391V89.8193H390ZM0 89.8193H-1V90.8193H0V89.8193ZM0 1.0791V0.0791016H-1V1.0791H0ZM120 1.0791V2.07911L120.004 2.07909L120 1.0791ZM141.202 1L141.206 1.99999C149.331 1.96994 156.423 7.37951 158.599 15.124L159.562 14.8535L160.524 14.5831C158.107 5.97738 150.227 -0.0333927 141.198 6.85453e-06L141.202 1ZM159.562 14.8535L158.629 15.2148C164.331 29.9314 178.689 40.373 195.5 40.373V39.373V38.373C179.536 38.373 165.906 28.4592 160.494 14.4922L159.562 14.8535ZM195.5 39.373V40.373C212.291 40.373 226.634 29.9558 232.35 15.2669L231.418 14.9043L230.486 14.5416C225.061 28.4825 211.445 38.373 195.5 38.373V39.373ZM231.418 14.9043L232.381 15.1721C234.541 7.40277 241.645 1.9707 249.788 2.00097L249.792 1.00098L249.796 0.000983477C240.747 -0.032647 232.854 6.00304 230.454 14.6365L231.418 14.9043ZM249.792 1.00098L249.788 2.00097L270.746 2.07909L270.75 1.0791L270.754 0.0791085L249.796 0.000983536L249.792 1.00098ZM270.75 1.0791V2.0791H390V1.0791V0.0791016H270.75V1.0791ZM390 1.0791H389V89.8193H390H391V1.0791H390ZM390 89.8193V88.8193H0V89.8193V90.8193H390V89.8193ZM0 89.8193H1V1.0791H0H-1V89.8193H0ZM0 1.0791V2.0791H120V1.0791V0.0791016H0V1.0791ZM120 1.0791L120.004 2.07909L141.206 1.99999L141.202 1L141.198 6.97374e-06L119.996 0.0791085L120 1.0791Z" fill="url(#paint0_linear_10660_142946)" mask="url(#path-2-outside-1_10660_142946)"/>
</g>
<defs>
<linearGradient id="paint0_linear_10660_142946" x1="0" y1="46.5933" x2="390" y2="46.5933" gradientUnits="userSpaceOnUse">
<stop stop-color="#1A1A1A"/>
<stop offset="0.504089" stop-color="#FF5900"/>
<stop offset="1" stop-color="#1A1A1A"/>
</linearGradient>
<clipPath id="clip0_10660_142946">
<rect width="390" height="84" fill="white"/>
</clipPath>
</defs>
</svg>
