<svg width="80" height="37" viewBox="0 0 80 37" fill="none" xmlns="http://www.w3.org/2000/svg">
<g opacity="0.2">
<path d="M30 0L34.3 2.55218L38.6603 5L38.6 10L38.6603 15L34.3 17.4478L30 20L25.7 17.4478L21.3397 15L21.4 10L21.3397 5L25.7 2.55218L30 0Z" fill="#D9D9D9"/>
<path d="M40 17L44.3 19.5522L48.6603 22L48.6 27L48.6603 32L44.3 34.4478L40 37L35.7 34.4478L31.3397 32L31.4 27L31.3397 22L35.7 19.5522L40 17Z" fill="#D9D9D9"/>
<path d="M20 17L24.3 19.5522L28.6603 22L28.6 27L28.6603 32L24.3 34.4478L20 37L15.7 34.4478L11.3397 32L11.4 27L11.3397 22L15.7 19.5522L20 17Z" fill="#D9D9D9"/>
<path d="M10 0L14.3 2.55218L18.6603 5L18.6 10L18.6603 15L14.3 17.4478L10 20L5.7 17.4478L1.33975 15L1.4 10L1.33975 5L5.7 2.55218L10 0Z" fill="#D9D9D9"/>
<path d="M60 17L64.3 19.5522L68.6603 22L68.6 27L68.6603 32L64.3 34.4478L60 37L55.7 34.4478L51.3397 32L51.4 27L51.3397 22L55.7 19.5522L60 17Z" fill="#D9D9D9"/>
<path d="M70 0L74.3 2.55218L78.6603 5L78.6 10L78.6603 15L74.3 17.4478L70 20L65.7 17.4478L61.3397 15L61.4 10L61.3397 5L65.7 2.55218L70 0Z" fill="#D9D9D9"/>
<path d="M50 0L54.3 2.55218L58.6603 5L58.6 10L58.6603 15L54.3 17.4478L50 20L45.7 17.4478L41.3397 15L41.4 10L41.3397 5L45.7 2.55218L50 0Z" fill="#D9D9D9"/>
</g>
</svg>
