<svg width="22" height="18" viewBox="0 0 22 18" fill="none" xmlns="http://www.w3.org/2000/svg">
<g clip-path="url(#clip0_12534_12925)">
<path d="M22 0H4C1.79086 0 0 1.79086 0 4V14C0 16.2091 1.79086 18 4 18H22C18.7311 12.4452 18.7311 5.55477 22 0Z" fill="url(#paint0_linear_12534_12925)"/>
<path d="M15.4368 4.31517H13.8667V3.30347C13.8667 2.95453 13.5314 2.70851 13.2035 2.81394L10.436 3.71016C10.3938 3.72522 10.3466 3.72522 10.3044 3.71016L7.53697 2.81394C7.20906 2.70851 6.87369 2.95453 6.87369 3.30347V4.31517H5.30118C4.67268 4.31517 4.15845 4.83483 4.15845 5.46996C4.15845 6.10509 4.67268 6.62475 5.30118 6.62475H15.4368C16.0653 6.62475 16.5795 6.10509 16.5795 5.46996C16.5795 4.83483 16.0653 4.31517 15.4368 4.31517ZM14.3959 7.17704H6.34455C5.98931 7.17704 5.70114 7.46825 5.70114 7.82724V13.8798C5.70114 14.6104 6.29487 15.2104 7.01777 15.2104H13.7251C14.4505 15.2104 15.0418 14.6104 15.0418 13.8798V7.82724C15.0393 7.46825 14.7511 7.17704 14.3959 7.17704ZM12.1054 10.8222L11.5664 11.3544C11.4968 11.4247 11.4645 11.5226 11.4794 11.623L11.6061 12.3736C11.6483 12.6196 11.3925 12.8079 11.1714 12.6924L10.5031 12.3384C10.4162 12.2933 10.3118 12.2933 10.2249 12.3384L9.55664 12.6924C9.33803 12.8079 9.07967 12.6196 9.1219 12.3736L9.24859 11.623C9.26598 11.5251 9.23369 11.4247 9.16165 11.3544L8.62754 10.8222C8.45116 10.6464 8.54805 10.3427 8.79398 10.3075L9.53925 10.1971C9.63613 10.182 9.72059 10.1218 9.76531 10.0314L10.0982 9.34855C10.2075 9.12512 10.5255 9.12512 10.6348 9.34855L10.9677 10.0314C11.0124 10.1218 11.0944 10.182 11.1937 10.1971L11.939 10.3075C12.1849 10.3427 12.2818 10.6464 12.1054 10.8222Z" fill="url(#paint1_linear_12534_12925)"/>
</g>
<defs>
<linearGradient id="paint0_linear_12534_12925" x1="11" y1="0" x2="11" y2="18" gradientUnits="userSpaceOnUse">
<stop stop-color="#FC9036"/>
<stop offset="1" stop-color="#F5631A"/>
</linearGradient>
<linearGradient id="paint1_linear_12534_12925" x1="10.369" y1="2.78931" x2="10.369" y2="15.2104" gradientUnits="userSpaceOnUse">
<stop stop-color="#FFD187"/>
<stop offset="1" stop-color="#FF8F0F"/>
</linearGradient>
<clipPath id="clip0_12534_12925">
<rect width="22" height="18" fill="white"/>
</clipPath>
</defs>
</svg>
