<svg width="20" height="20" viewBox="0 0 20 20" fill="none" xmlns="http://www.w3.org/2000/svg">
<path d="M13.4999 2.50065C14.0256 2.49621 14.547 2.59607 15.0337 2.79492C15.5218 2.99438 15.9656 3.28926 16.3384 3.66211C16.7112 4.03492 17.0062 4.47812 17.2056 4.96615C17.4044 5.45279 17.5043 5.97436 17.4999 6.5L17.4973 6.64844C17.4698 7.38762 17.2381 8.10602 16.826 8.72266C16.7662 8.81215 16.7024 8.89846 16.6359 8.98242C16.7818 9.07707 16.915 9.18088 17.0305 9.29492C17.3001 9.56141 17.4998 9.90869 17.4999 10.3203V15.4069C17.4999 16.1631 16.8495 16.6851 16.1822 16.9889C15.47 17.3131 14.5212 17.5 13.4999 17.5C12.4786 17.5 11.5298 17.3131 10.8176 16.9889C10.5237 16.8551 10.2332 16.6788 9.99993 16.459C9.7667 16.6788 9.47615 16.8551 9.18223 16.9889C8.47011 17.3131 7.52127 17.5 6.49996 17.5C5.47865 17.5 4.52982 17.3131 3.8177 16.9889C3.1504 16.6851 2.5 16.1631 2.5 15.4069V5.22656C2.50013 4.47055 3.15052 3.94896 3.8177 3.64518C4.52982 3.32098 5.47865 3.13346 6.49996 3.13346C7.52127 3.13346 8.47011 3.32098 9.18223 3.64518C9.5401 3.80813 9.89206 4.03467 10.1425 4.32552C10.4372 3.87064 10.823 3.47841 11.2779 3.17448C11.9344 2.73584 12.7058 2.50155 13.4953 2.50065V2.5L13.4973 2.50065C13.4982 2.50065 13.499 2.5 13.4999 2.5V2.50065ZM9.49993 14.2786C9.39575 14.3389 9.28915 14.3945 9.18158 14.4434C8.46977 14.7665 7.52126 14.9538 6.49996 14.9538C5.47867 14.9538 4.53015 14.7665 3.81835 14.4434C3.71078 14.3945 3.60418 14.3389 3.49999 14.2786V15.4069C3.49999 15.5307 3.63305 15.8059 4.23241 16.0788C4.78693 16.3312 5.58811 16.5 6.49996 16.5C7.41182 16.5 8.213 16.3312 8.76752 16.0788C9.36688 15.8059 9.49993 15.5307 9.49993 15.4069V14.2786ZM16.4999 14.2786C16.3957 14.3389 16.2891 14.3945 16.1815 14.4434C15.4697 14.7665 14.5212 14.9538 13.4999 14.9538C12.4786 14.9538 11.5301 14.7665 10.8183 14.4434C10.7107 14.3945 10.6041 14.3389 10.4999 14.2786V15.4069C10.4999 15.5307 10.633 15.8059 11.2323 16.0788C11.7869 16.3312 12.588 16.5 13.4999 16.5C14.4117 16.5 15.2129 16.3312 15.7675 16.0788C16.3668 15.8059 16.4999 15.5307 16.4999 15.4069V14.2786ZM3.49999 12.8672C3.50014 12.9864 3.63118 13.2599 4.23175 13.5326C4.78659 13.7844 5.58805 13.9538 6.49996 13.9538C7.41187 13.9538 8.21334 13.7844 8.76817 13.5326C9.36875 13.2599 9.49978 12.9864 9.49993 12.8672V11.7474C9.28801 11.8689 9.05127 11.9702 8.79812 12.0514C8.78291 12.0567 8.76787 12.0626 8.75255 12.0677L8.74604 12.0697C8.02229 12.302 7.26583 12.4151 6.50582 12.4062L6.50647 12.4069C6.50431 12.4069 6.50213 12.4062 6.49996 12.4062C6.4978 12.4062 6.49562 12.4069 6.49345 12.4069V12.4062C5.73366 12.4151 4.97743 12.3019 4.25389 12.0697L4.24738 12.0677C4.23774 12.0645 4.22833 12.0606 4.21873 12.0573C3.95903 11.9752 3.71675 11.8709 3.49999 11.7467V12.8672ZM10.4999 12.8672C10.5001 12.9864 10.6311 13.2599 11.2317 13.5326C11.7865 13.7844 12.588 13.9538 13.4999 13.9538C14.4118 13.9538 15.2133 13.7844 15.7681 13.5326C16.3687 13.2599 16.4997 12.9864 16.4999 12.8672V11.7474C16.2879 11.8689 16.0512 11.9702 15.7981 12.0514C15.7829 12.0567 15.7678 12.0626 15.7525 12.0677L15.746 12.0697C15.2032 12.2439 14.642 12.351 14.0748 12.39C13.8856 12.403 13.6958 12.4085 13.5058 12.4062L13.5064 12.4069C13.5042 12.4069 13.5021 12.4062 13.4999 12.4062C13.4977 12.4062 13.4956 12.4069 13.4934 12.4069V12.4062C12.7361 12.415 11.9824 12.3023 11.261 12.0716V12.0723C10.9852 11.9882 10.7285 11.8779 10.4999 11.7467V12.8672ZM9.49277 9.19271C9.4414 9.22219 9.38865 9.25055 9.33457 9.278C9.32852 9.28107 9.32242 9.28406 9.31634 9.28711C9.26299 9.31382 9.20862 9.33984 9.15293 9.36458C9.14752 9.36699 9.14209 9.36935 9.13666 9.37175C9.01331 9.42593 8.88521 9.47692 8.75255 9.52148L8.74799 9.52279C8.02377 9.75807 7.26592 9.87365 6.50452 9.86654L6.50517 9.86719C6.50344 9.86721 6.5017 9.86652 6.49996 9.86654C6.49823 9.86652 6.49649 9.86721 6.49475 9.86719V9.86654C5.73357 9.87358 4.97595 9.75801 4.25194 9.52279L4.24738 9.52148C4.11452 9.47685 3.98613 9.42602 3.86262 9.37175C3.85719 9.36935 3.85175 9.36699 3.84634 9.36458C3.79066 9.33983 3.73628 9.31383 3.68293 9.28711C3.67685 9.28406 3.67075 9.28107 3.6647 9.278C3.61064 9.25054 3.55786 9.2222 3.5065 9.19271C3.5044 9.1915 3.50209 9.19066 3.49999 9.18945V10.3203C3.49999 10.3898 3.53574 10.511 3.71548 10.6706C3.89417 10.8292 4.17793 10.9886 4.56118 11.1178L4.67055 11.1504C4.78242 11.184 4.895 11.2145 5.00844 11.2415C5.34843 11.3225 5.6947 11.3739 6.04359 11.3952C6.19321 11.4043 6.34323 11.4089 6.49345 11.4069H6.50647C7.08053 11.4146 7.65252 11.3405 8.20502 11.1875L8.4407 11.1172C8.82292 10.988 9.10604 10.8289 9.28444 10.6706C9.46401 10.5112 9.49986 10.3899 9.49993 10.3203V9.18945C9.49767 9.19076 9.49504 9.19141 9.49277 9.19271ZM11.106 9.70443C10.9122 9.80135 10.7675 9.89948 10.6679 9.99544C10.5359 10.1226 10.5 10.2264 10.4999 10.3203C10.4999 10.331 10.5025 10.3425 10.5045 10.3555C10.5159 10.4275 10.5631 10.5354 10.7154 10.6706C10.8947 10.8297 11.1798 10.9896 11.565 11.1191C12.188 11.3185 12.8393 11.4157 13.4934 11.4069H13.5064L13.7512 11.4049C14.3224 11.3895 14.8891 11.2935 15.4341 11.1191C15.8196 10.9896 16.105 10.8297 16.2844 10.6706C16.4364 10.5356 16.4838 10.4275 16.4953 10.3555C16.4973 10.3425 16.4999 10.331 16.4999 10.3203C16.4998 10.2522 16.4689 10.1458 16.3273 10.0059C16.2261 9.90596 16.0803 9.80423 15.8905 9.70638C15.6263 9.9033 15.338 10.0686 15.0305 10.196C14.7895 10.2958 14.5403 10.3704 14.287 10.4212C14.2719 10.4243 14.2566 10.4268 14.2414 10.4297C14.2102 10.4356 14.179 10.4415 14.1477 10.4466C14.1316 10.4493 14.1156 10.452 14.0995 10.4544C14.0664 10.4594 14.0331 10.4639 13.9999 10.4681C13.9782 10.4709 13.9565 10.4735 13.9348 10.4759C13.9137 10.4782 13.8927 10.4805 13.8716 10.4824C13.8348 10.4859 13.7979 10.4891 13.761 10.4915C13.7527 10.4921 13.7445 10.4924 13.7362 10.4928C13.7182 10.4939 13.7002 10.4959 13.6822 10.4967L13.6073 10.498C13.5999 10.4982 13.5926 10.4985 13.5852 10.4987L13.4999 10.5007C13.4888 10.5007 13.4778 10.4994 13.4667 10.4993C13.4374 10.4991 13.4081 10.4983 13.3788 10.4974C13.3617 10.4969 13.3445 10.4968 13.3274 10.4961C13.28 10.494 13.2327 10.4907 13.1854 10.487C13.182 10.4867 13.1785 10.4866 13.175 10.4863C13.1285 10.4825 13.0821 10.4774 13.0357 10.472C13.0286 10.4712 13.0214 10.4709 13.0142 10.4701C12.9156 10.458 12.8172 10.4427 12.7193 10.4232C12.714 10.4221 12.7089 10.4203 12.7037 10.4193C12.6952 10.4175 12.6867 10.4159 12.6783 10.4141C12.1067 10.2941 11.5705 10.0514 11.106 9.70443ZM13.2779 3.50846C12.7627 3.54669 12.2648 3.71747 11.8332 4.00586C11.3399 4.3355 10.9555 4.80404 10.7284 5.35221C10.5014 5.90036 10.4421 6.50338 10.5579 7.08529C10.6736 7.66723 10.9593 8.20219 11.3788 8.62175C11.3818 8.62468 11.385 8.62729 11.3879 8.63021L11.5188 8.74675L11.623 8.83529C11.849 9.01854 12.0994 9.16595 12.3651 9.27539C12.3747 9.2793 12.3842 9.2833 12.3938 9.28711C12.447 9.30837 12.5009 9.32754 12.5552 9.3457C12.6637 9.38171 12.7741 9.41203 12.8866 9.43555C12.9053 9.43947 12.9239 9.4437 12.9426 9.44727C13.4938 9.55148 14.0621 9.49774 14.5845 9.29492C14.6304 9.277 14.6757 9.25781 14.7206 9.23763C14.733 9.23209 14.7454 9.22641 14.7577 9.2207C15.0184 9.0993 15.2627 8.94093 15.481 8.74675L15.5943 8.64518C15.7427 8.50027 15.8776 8.34087 15.994 8.16667C16.3236 7.67332 16.4999 7.09334 16.4999 6.5V6.49544L16.4979 6.34766C16.4841 6.00356 16.4103 5.66389 16.2798 5.3444C16.1307 4.97945 15.9101 4.64795 15.6314 4.36914C15.3525 4.09025 15.0206 3.86923 14.6555 3.72005C14.2904 3.57089 13.8988 3.49619 13.5045 3.5H13.4999L13.2779 3.50846ZM9.47194 6.65755C9.43294 6.67954 9.39334 6.70118 9.3528 6.72201C9.33423 6.73157 9.31568 6.74132 9.29681 6.75065C9.26031 6.76863 9.22306 6.78566 9.18548 6.80273C9.16391 6.81258 9.14229 6.82249 9.12038 6.83203C9.0772 6.85075 9.03327 6.86851 8.98887 6.88607C8.97236 6.89263 8.95607 6.89986 8.93939 6.90625C8.90931 6.91775 8.87882 6.92848 8.84825 6.93945C8.81644 6.95089 8.78486 6.96375 8.75255 6.97461L8.74994 6.97526C8.02665 7.21395 7.26864 7.32974 6.50712 7.31966L6.50777 7.32031C6.50521 7.32035 6.50253 7.31962 6.49996 7.31966C6.4974 7.31962 6.49471 7.32035 6.49215 7.32031V7.31966C5.73085 7.32966 4.97306 7.21389 4.24998 6.97526L4.24738 6.97461C4.21487 6.96369 4.18303 6.95097 4.15103 6.93945C4.12046 6.92848 4.08996 6.91775 4.05988 6.90625C4.04321 6.89985 4.02692 6.89263 4.0104 6.88607C3.96601 6.8685 3.92207 6.85076 3.87889 6.83203C3.85699 6.82249 3.83536 6.81258 3.81379 6.80273C3.77621 6.78566 3.73896 6.76863 3.70246 6.75065C3.6836 6.74132 3.66504 6.73157 3.64647 6.72201C3.60594 6.70117 3.56633 6.67954 3.52733 6.65755C3.51836 6.65249 3.50888 6.64835 3.49999 6.64323V7.77344C3.49999 7.84295 3.53574 7.96413 3.71548 8.1237C3.89408 8.28221 4.17757 8.44172 4.56053 8.57096H4.56118C5.18535 8.77376 5.83851 8.8736 6.49475 8.86654H6.50517C7.07948 8.87271 7.65154 8.79749 8.20372 8.64258L8.43875 8.57096C8.822 8.44169 9.10575 8.28229 9.28444 8.1237C9.46419 7.96413 9.49993 7.84295 9.49993 7.77344V6.64323C9.49088 6.64845 9.48108 6.6524 9.47194 6.65755ZM6.49996 4.13346C5.58804 4.13346 4.78693 4.30292 4.23241 4.55534C3.63343 4.82803 3.50016 5.10264 3.49999 5.22656C3.49999 5.29608 3.53574 5.41725 3.71548 5.57682C3.89488 5.73608 4.18007 5.89646 4.56574 6.02604H4.56508C4.87579 6.12847 5.19396 6.20469 5.51625 6.25391C5.83857 6.30297 6.16502 6.32534 6.49215 6.32031H6.50777L6.75256 6.31836C7.07906 6.3098 7.40393 6.27406 7.72391 6.21159C7.96391 6.16462 8.20117 6.10284 8.43419 6.02604L8.57416 5.97591C8.88955 5.85627 9.12749 5.71616 9.28444 5.57682C9.46419 5.41725 9.49993 5.29608 9.49993 5.22656C9.49977 5.10264 9.3665 4.82803 8.76752 4.55534C8.21299 4.30292 7.41189 4.13346 6.49996 4.13346Z" fill="currentColor"/>
</svg>
