<svg width="22" height="25" viewBox="0 0 22 25" fill="none" xmlns="http://www.w3.org/2000/svg">
<path d="M13.1137 21.8222C12.5847 23.6096 10.6556 24.546 8.75626 23.9843C6.85686 23.4226 5.74738 21.5874 6.27579 19.7998L13.1137 21.8222ZM12.8852 1.55855C13.2356 0.374406 14.4964 -0.272968 15.7924 0.110306C17.0074 0.469648 17.7036 1.57224 17.4975 2.68452L17.4662 2.91402L17.3676 3.24898C20.3196 5.26428 21.8299 9.1136 20.7328 12.8232L19.8676 15.7509C19.8543 15.7959 18.6177 19.9987 19.7514 20.3339C20.3544 20.5124 20.7585 21.1175 20.5805 21.7207C20.4086 22.3014 19.7335 22.6127 19.1303 22.4345L0.87149 17.0351C0.26833 16.8566 -0.135839 16.2506 0.0423889 15.6474C0.214223 15.0664 0.800783 14.7296 1.49356 14.9345C2.64589 15.2015 3.87314 11.0758 3.88809 11.0253L4.7543 8.09761C5.85136 4.38809 9.36623 1.95273 12.7856 1.89449L12.8852 1.55855Z" fill="white"/>
</svg>
