<svg width="32" height="32" viewBox="0 0 32 32" fill="none" xmlns="http://www.w3.org/2000/svg">
<path d="M21.5714 18.3261C21.5714 18.597 21.4897 18.8618 21.3367 19.087C21.1836 19.3122 20.9661 19.4877 20.7116 19.5914C20.4571 19.6951 20.177 19.7222 19.9068 19.6693C19.6367 19.6165 19.3885 19.4861 19.1937 19.2945C18.9989 19.103 18.8662 18.8589 18.8125 18.5933C18.7587 18.3276 18.7863 18.0522 18.8917 17.802C18.9972 17.5517 19.1757 17.3378 19.4047 17.1873C19.6338 17.0369 19.9031 16.9565 20.1786 16.9565C20.5479 16.9569 20.9019 17.1014 21.163 17.3581C21.4241 17.6149 21.571 17.963 21.5714 18.3261ZM11.8214 16.9565C11.5459 16.9565 11.2767 17.0369 11.0476 17.1873C10.8185 17.3378 10.64 17.5517 10.5346 17.802C10.4292 18.0522 10.4016 18.3276 10.4553 18.5933C10.5091 18.8589 10.6417 19.103 10.8365 19.2945C11.0313 19.4861 11.2795 19.6165 11.5497 19.6693C11.8199 19.7222 12.0999 19.6951 12.3545 19.5914C12.609 19.4877 12.8265 19.3122 12.9795 19.087C13.1326 18.8618 13.2143 18.597 13.2143 18.3261C13.2139 17.963 13.067 17.6149 12.8059 17.3581C12.5447 17.1014 12.1907 16.9569 11.8214 16.9565ZM29 9.65218V18.7826C28.9975 20.9612 28.1162 23.0499 26.5495 24.5905C24.9828 26.131 22.8585 26.9975 20.6429 27H11.3571C9.14146 26.9975 7.01723 26.131 5.45051 24.5905C3.88378 23.0499 3.0025 20.9612 3 18.7826V9.65218C3.00006 8.76324 3.32983 7.90484 3.92749 7.23786C4.52515 6.57089 5.34967 6.14112 6.24652 6.02912C7.14337 5.91711 8.05098 6.13056 8.79924 6.62946C9.54749 7.12835 10.085 7.87844 10.3111 8.73914H21.6889C21.915 7.87844 22.4525 7.12835 23.2008 6.62946C23.949 6.13056 24.8566 5.91711 25.7535 6.02912C26.6503 6.14112 27.4749 6.57089 28.0725 7.23786C28.6702 7.90484 28.9999 8.76324 29 9.65218ZM24.3571 17.8696C24.3571 17.39 24.2611 16.915 24.0744 16.4719C23.8878 16.0288 23.6142 15.6262 23.2693 15.2871C22.9244 14.9479 22.5149 14.6789 22.0643 14.4954C21.6136 14.3119 21.1306 14.2174 20.6429 14.2174H11.3571C10.3721 14.2174 9.42731 14.6022 8.73075 15.2871C8.03418 15.972 7.64286 16.901 7.64286 17.8696V18.7826C7.64287 19.7512 8.0342 20.6802 8.73076 21.3651C9.42732 22.05 10.3721 22.4348 11.3571 22.4348H20.6429C21.6279 22.4348 22.5727 22.05 23.2693 21.3651C23.9658 20.6802 24.3571 19.7512 24.3571 18.7826V17.8696Z" fill="currentColor"/>
</svg>
