<svg xmlns="http://www.w3.org/2000/svg" style="display: none;">

  <symbol id="ONE_API_HOT" width="36" height="36" viewBox="0 0 36 36">
    <path d="M14.0858 32.4C14.0858 32.4 1.62529 29.5907 7.19439 15.6471C7.19439 15.6471 8.45878 17.1964 8.28505 17.9421C8.28505 17.9421 9.27597 14.4225 11.4155 12.3203C13.2525 10.5139 15.1185 5.43533 13.3973 3.59998C13.3973 3.59998 21.9231 5.43533 22.8722 14.6153C22.8722 14.6153 23.9628 11.6903 26.2021 11.401C26.2021 11.401 25.5136 13.0082 26.2021 15.4189C26.2021 15.4189 33.264 27.81 21.093 31.9982C21.093 31.9982 24.7414 27.7521 17.0039 20.4653C17.0039 20.4653 15.1797 24.3675 14.089 25.7432C14.0858 25.7464 11.0423 29.2435 14.0858 32.4Z" fill="currentColor"/>
  </symbol>

  <symbol id="ELECTRONIC" width="36" height="36" viewBox="0 0 36 36">
    <path d="M5.30281 17.7774C5.30281 19.3204 5.38659 20.8054 5.55416 22.2356C5.72173 23.6551 4.31567 24.358 3.80229 23.0208C3.67971 22.7138 3.48038 22.4434 3.22342 22.2356C2.60685 21.7477 2.10847 21.1266 1.76554 20.4187C1.4226 19.7109 1.24399 18.9346 1.24304 18.1479C1.24381 17.3879 1.41055 16.6373 1.73159 15.9485C2.05262 15.2598 2.52018 14.6497 3.10155 14.1608C3.35138 13.9473 3.56313 13.6439 3.66976 13.3374C4.15724 11.9454 5.6151 12.6437 5.47342 14.1105C5.35917 15.2845 5.30128 16.5073 5.30128 17.7774H5.30281ZM29.5411 9.01947C29.535 8.99508 29.5654 8.97831 29.5837 8.99508C30.7597 10.0791 31.7118 11.5749 32.3288 13.3298C32.4461 13.6652 32.6655 13.958 32.9382 14.1928C33.5083 14.6818 33.9661 15.2884 34.28 15.9711C34.594 16.6538 34.7567 17.3963 34.7571 18.1479C34.7571 19.7839 33.9999 21.243 32.8117 22.2097C32.5421 22.4277 32.309 22.7433 32.1826 23.0666C31.6296 24.4845 30.1656 23.7603 30.3591 22.2524C30.5571 20.7078 30.6546 19.2167 30.6546 17.7774C30.6546 14.9902 30.2829 12.0719 29.5426 9.01947H29.5411ZM25.6032 5.04C26.8036 5.04 27.8608 5.82065 28.1974 6.95655C29.3339 10.7744 29.9006 14.3819 29.9006 17.7774C29.9006 21.1973 29.3263 24.9419 28.1746 29.0099C28.0113 29.5742 27.6686 30.0699 27.1986 30.4217C26.7285 30.7736 26.1566 30.9626 25.5696 30.96H10.7229C10.1816 30.9622 9.65213 30.8019 9.20292 30.4996C8.7537 30.1973 8.40547 29.767 8.20329 29.2645C6.86883 25.9025 6.20159 22.074 6.20159 17.7774C6.20159 13.5143 6.85968 9.81842 8.17282 6.68668C8.38144 6.1965 8.72989 5.77881 9.17456 5.4859C9.61922 5.19299 10.1403 5.03788 10.6727 5.04H25.6016H25.6032ZM21.9958 18.6769C22.4224 17.0547 23.1734 15.4751 24.2504 13.9397C24.2904 13.8835 24.3093 13.8149 24.3037 13.7461C24.3003 13.7069 24.2891 13.6688 24.271 13.6339C24.2528 13.5991 24.2279 13.5682 24.1978 13.543C24.1676 13.5177 24.1328 13.4987 24.0953 13.487C24.0578 13.4753 24.0184 13.4711 23.9792 13.4747C23.1307 13.5463 22.5077 13.5234 22.1116 13.406C21.3728 13.188 19.9012 12.9837 17.6055 12.8907C17.1241 12.8709 16.4889 12.9456 15.814 13.0249C15.1605 13.1011 14.4689 13.1834 13.8443 13.188C13.3843 13.1911 12.7399 13.1148 11.9096 12.9593C11.8444 12.9476 11.7772 12.9575 11.718 12.9875C11.6589 13.0175 11.6112 13.0659 11.5821 13.1255C11.5628 13.1644 11.5524 13.2071 11.5516 13.2505V17.4816C11.5528 17.521 11.5692 17.5583 11.5973 17.5859C11.6254 17.6135 11.6631 17.6291 11.7025 17.6295H13.7118C13.7474 17.6295 13.7819 17.6171 13.8093 17.5944C13.8365 17.5721 13.8549 17.5407 13.8611 17.506C13.9372 17.0303 14.2084 16.6872 14.6715 16.4783C15.1514 16.2618 16.9444 16.457 20.0505 17.0638C20.0811 17.0697 20.1091 17.0851 20.1304 17.1079C20.1517 17.1307 20.1653 17.1596 20.1692 17.1906C20.1731 17.2216 20.1671 17.253 20.152 17.2803C20.137 17.3076 20.1137 17.3295 20.0855 17.3428C18.3428 18.1646 16.9763 19.1222 15.9846 20.2184C15.3981 20.8664 15.0021 21.5602 14.7964 22.2996C14.4978 23.3685 15.5139 24.2208 16.6397 24.2208H19.1319C20.5258 24.2208 21.5617 22.9705 21.5906 21.5983C21.6104 20.6123 21.7469 19.6322 21.9974 18.6785L21.9958 18.6769Z" fill="currentColor"/>
    <path d="M5.30281 17.7774C5.30281 19.3204 5.38659 20.8054 5.55416 22.2356C5.72173 23.6551 4.31567 24.358 3.80229 23.0208C3.67971 22.7138 3.48038 22.4434 3.22342 22.2356C2.60685 21.7477 2.10847 21.1266 1.76554 20.4187C1.4226 19.7109 1.24399 18.9346 1.24304 18.1479C1.24381 17.3879 1.41055 16.6373 1.73159 15.9485C2.05262 15.2598 2.52018 14.6497 3.10155 14.1608C3.35138 13.9473 3.56313 13.6439 3.66976 13.3374C4.15724 11.9454 5.6151 12.6437 5.47342 14.1105C5.35917 15.2845 5.30128 16.5073 5.30128 17.7774H5.30281ZM29.5411 9.01947C29.535 8.99508 29.5654 8.97831 29.5837 8.99508C30.7597 10.0791 31.7118 11.5749 32.3288 13.3298C32.4461 13.6652 32.6655 13.958 32.9382 14.1928C33.5083 14.6818 33.9661 15.2884 34.28 15.9711C34.594 16.6538 34.7567 17.3963 34.7571 18.1479C34.7571 19.7839 33.9999 21.243 32.8117 22.2097C32.5421 22.4277 32.309 22.7433 32.1826 23.0666C31.6296 24.4845 30.1656 23.7603 30.3591 22.2524C30.5571 20.7078 30.6546 19.2167 30.6546 17.7774C30.6546 14.9902 30.2829 12.0719 29.5426 9.01947H29.5411ZM25.6032 5.04C26.8036 5.04 27.8608 5.82065 28.1974 6.95655C29.3339 10.7744 29.9006 14.3819 29.9006 17.7774C29.9006 21.1973 29.3263 24.9419 28.1746 29.0099C28.0113 29.5742 27.6686 30.0699 27.1986 30.4217C26.7285 30.7736 26.1566 30.9626 25.5696 30.96H10.7229C10.1816 30.9622 9.65213 30.8019 9.20292 30.4996C8.7537 30.1973 8.40547 29.767 8.20329 29.2645C6.86883 25.9025 6.20159 22.074 6.20159 17.7774C6.20159 13.5143 6.85968 9.81842 8.17282 6.68668C8.38144 6.1965 8.72989 5.77881 9.17456 5.4859C9.61922 5.19299 10.1403 5.03788 10.6727 5.04H25.6016H25.6032ZM21.9958 18.6769C22.4224 17.0547 23.1734 15.4751 24.2504 13.9397C24.2904 13.8835 24.3093 13.8149 24.3037 13.7461C24.3003 13.7069 24.2891 13.6688 24.271 13.6339C24.2528 13.5991 24.2279 13.5682 24.1978 13.543C24.1676 13.5177 24.1328 13.4987 24.0953 13.487C24.0578 13.4753 24.0184 13.4711 23.9792 13.4747C23.1307 13.5463 22.5077 13.5234 22.1116 13.406C21.3728 13.188 19.9012 12.9837 17.6055 12.8907C17.1241 12.8709 16.4889 12.9456 15.814 13.0249C15.1605 13.1011 14.4689 13.1834 13.8443 13.188C13.3843 13.1911 12.7399 13.1148 11.9096 12.9593C11.8444 12.9476 11.7772 12.9575 11.718 12.9875C11.6589 13.0175 11.6112 13.0659 11.5821 13.1255C11.5628 13.1644 11.5524 13.2071 11.5516 13.2505V17.4816C11.5528 17.521 11.5692 17.5583 11.5973 17.5859C11.6254 17.6135 11.6631 17.6291 11.7025 17.6295H13.7118C13.7474 17.6295 13.7819 17.6171 13.8093 17.5944C13.8365 17.5721 13.8549 17.5407 13.8611 17.506C13.9372 17.0303 14.2084 16.6872 14.6715 16.4783C15.1514 16.2618 16.9444 16.457 20.0505 17.0638C20.0811 17.0697 20.1091 17.0851 20.1304 17.1079C20.1517 17.1307 20.1653 17.1596 20.1692 17.1906C20.1731 17.2216 20.1671 17.253 20.152 17.2803C20.137 17.3076 20.1137 17.3295 20.0855 17.3428C18.3428 18.1646 16.9763 19.1222 15.9846 20.2184C15.3981 20.8664 15.0021 21.5602 14.7964 22.2996C14.4978 23.3685 15.5139 24.2208 16.6397 24.2208H19.1319C20.5258 24.2208 21.5617 22.9705 21.5906 21.5983C21.6104 20.6123 21.7469 19.6322 21.9974 18.6785L21.9958 18.6769Z" fill="currentColor"/>
  </symbol>

  <symbol id="CHESS" width="36" height="36" viewBox="0 0 36 36">
    <path d="M17.9612 5.25358C17.1606 5.04696 16.36 5.56352 16.1774 6.40479L11.5142 27.5546C11.3737 28.1892 11.7389 28.8091 12.3429 28.9715L24.956 31.9676C25.9392 32.2037 26.9084 31.5691 27.1612 30.5507L31.6418 10.2864C31.8244 9.45993 31.3328 8.61866 30.5463 8.42679L17.9612 5.25358ZM17.4134 7.98402C17.8348 7.93974 18.214 8.26444 18.2562 8.70721C18.2983 9.14998 17.9893 9.54848 17.5679 9.59276C17.1466 9.63703 16.7673 9.31233 16.7252 8.86956C16.683 8.41203 16.9921 8.02829 17.4134 7.98402ZM24.2678 29.3257C23.8324 29.3699 23.4531 29.0305 23.411 28.5877C23.3689 28.1302 23.6919 27.7317 24.1133 27.6874C24.5487 27.6431 24.9279 27.9826 24.9701 28.4254C25.0122 28.8829 24.7032 29.2814 24.2678 29.3257ZM25.3774 19.9536C25.1386 21.0753 24.2257 21.8723 23.1722 21.9756C22.0486 22.0937 20.9951 21.4148 20.5737 20.3079C19.5343 21.3115 17.9191 21.2229 16.978 20.1308C16.8797 20.0274 16.7954 19.9094 16.7252 19.7765C16.36 19.1862 16.2476 18.4777 16.3881 17.7988C16.5145 17.1937 16.7392 16.5 17.6663 15.7325C18.3405 15.1865 20.5316 13.9467 21.7817 13.253C21.7957 13.253 21.7957 13.2383 21.8098 13.2383C22.0064 13.1349 22.2592 13.194 22.3857 13.3858C22.9194 14.1386 24.6892 16.6476 25.0965 17.5036C25.6021 18.6253 25.5179 19.3485 25.3774 19.9536Z" fill="currentColor"/>
    <path d="M11.6547 29.7094C11.2333 29.6061 10.8822 29.3404 10.6575 28.9714C10.4327 28.5877 10.3625 28.1449 10.4468 27.7022L15.1661 5.88822C15.2645 5.40117 15.5735 5.00268 15.9668 4.78129C15.0959 4.2352 13.9863 4.14665 13.0171 4.66322L3.84522 9.53372L3.83118 9.54848C3.10079 9.93221 2.56705 10.5964 2.31423 11.4081C2.0614 12.2199 2.11759 13.0907 2.49682 13.8581L10.3765 30.285C10.8962 31.3772 11.9497 32.0413 13.1014 32.0413C13.579 32.0413 14.0565 31.9233 14.4779 31.6871L16.1494 30.7721L11.6547 29.7094H11.6547ZM5.57289 13.7991C5.13747 13.7991 4.78632 13.4301 4.78632 12.9726C4.78632 12.5151 5.13747 12.1461 5.57289 12.1461C6.00831 12.1461 6.35946 12.5151 6.35946 12.9726C6.35946 13.4301 6.00831 13.7991 5.57289 13.7991Z" fill="currentColor"/>
  </symbol>

  <symbol id="FISHING" width="36" height="36" viewBox="0 0 36 36">
    <path d="M30.9505 3.65161C29.7497 3.7869 29.0902 3.93911 27.5399 4.4352C24.3886 5.44993 20.6059 6.9833 18.8019 7.98112C18.599 8.09386 18.1987 8.31372 17.9112 8.46593C16.9642 8.97893 15.4364 9.96548 14.8163 10.4672C12.8883 12.0288 10.9547 14.357 9.79341 16.5218C9.43825 17.1813 9.038 18.3821 8.88579 19.2333C8.77304 19.8647 8.71667 20.5525 8.77868 20.6089C8.82941 20.6596 10.9547 19.9098 11.4057 19.6843C11.6425 19.5659 11.9694 19.3743 12.1329 19.2672C12.4599 19.0473 12.4768 19.1262 12.1611 19.3799C11.7214 19.7294 10.0302 20.5863 9.11128 20.9189C8.74485 21.0542 7.25658 21.8829 6.68157 22.2719C6.20803 22.5932 5.59356 23.1908 5.21021 23.6981C4.86633 24.1548 4.2575 25.2822 4.32514 25.3443C4.34206 25.3668 4.73667 25.2315 5.1933 25.0455C6.88452 24.369 8.23185 23.9857 9.4608 23.8222C10.2726 23.7207 10.2275 23.7207 10.0753 23.8278C10.0076 23.8729 9.95125 23.9518 9.95125 23.9969C9.95125 24.2224 10.453 24.9496 11.1915 25.8009C12.3415 27.1144 14.23 28.4166 15.7859 28.9635C17.184 29.4596 18.1029 29.5498 20.324 29.4145C22.2577 29.2961 22.827 29.2904 23.1484 29.4032C23.4584 29.5159 23.5825 29.6287 24.0447 30.2488C25.02 31.5567 24.9298 31.4777 25.984 31.9569C26.497 32.188 26.9311 32.3684 26.9423 32.3572C26.9705 32.329 26.5477 30.6829 26.3335 29.9895C26.046 29.0311 26.1362 28.4166 26.8296 26.7254C27.9345 24.042 28.3291 23.0668 28.3291 22.9878C28.3291 22.7793 27.7598 22.6101 27.3369 22.6947C26.8803 22.7793 25.4428 24.3634 24.383 25.9475C23.3964 27.4132 23.1878 27.6669 22.8778 27.8078C22.5057 27.9713 22.0096 27.9262 21.4515 27.6781C20.4199 27.2215 19.7829 26.7311 19.1684 25.9362C18.864 25.5359 18.7287 25.2766 18.5144 24.6283C18.1931 23.653 18.1818 23.6361 18.0691 24.0646C18.0296 24.2111 17.9902 24.3013 17.9733 24.2619C17.962 24.2224 17.9902 24.0364 18.0409 23.8391C18.3171 22.7398 19.1853 21.5052 20.1606 20.8118C21.0174 20.1973 22.7932 19.2108 23.7628 18.8049C24.569 18.4667 25.8487 17.8127 26.356 17.4801C28.0529 16.3583 29.31 15.0504 30.1782 13.4945C30.7137 12.5361 30.9223 11.978 30.9223 11.5045C30.9223 11.0648 30.8885 11.0366 30.6292 11.2508C30.539 11.3297 30.4431 11.3805 30.415 11.3635C30.3924 11.3466 30.3529 11.2057 30.3304 11.0535C30.3078 10.8956 30.2684 10.7716 30.2458 10.7716C30.2177 10.7716 30.15 10.8336 30.088 10.9126C30.026 10.9915 29.9527 11.0535 29.9189 11.0535C29.8907 11.0535 29.8118 10.9238 29.7441 10.7716C29.637 10.5179 29.513 10.3996 29.513 10.5461C29.513 10.5743 29.4228 10.7603 29.3157 10.952L29.124 11.3015L28.9774 10.9802C28.8985 10.7998 28.8365 10.6194 28.8365 10.5743C28.8365 10.4334 28.7463 10.4785 28.5941 10.6983C28.4024 10.9858 28.3573 11.1493 28.4532 11.2621C28.5152 11.3466 28.5152 11.3523 28.425 11.3184C28.3686 11.2959 28.3122 11.279 28.2953 11.279C28.284 11.279 28.2333 11.1832 28.1882 11.0704C28.098 10.8562 27.9514 10.6589 27.8781 10.6589C27.8556 10.6589 27.7879 10.8224 27.7316 11.0253C27.647 11.3466 27.6188 11.3974 27.5173 11.3805C27.4271 11.3692 27.382 11.2903 27.32 11.0648C27.2524 10.8111 27.2242 10.766 27.1227 10.7829C27.0269 10.7942 26.9987 10.8505 26.9762 11.0704C26.9592 11.217 26.9029 11.3748 26.8521 11.4256C26.7676 11.5101 26.745 11.4932 26.5703 11.2283C26.4688 11.0704 26.3504 10.9407 26.3109 10.9407C26.232 10.9407 26.1305 11.1662 26.1305 11.3523C26.1305 11.4199 26.1024 11.5158 26.0742 11.5609C26.0234 11.6285 25.9783 11.6003 25.7979 11.3974C25.5386 11.1099 25.4259 11.1155 25.409 11.4256C25.3977 11.5496 25.3582 11.6849 25.3131 11.73C25.2398 11.7976 25.206 11.7864 25.0369 11.6229C24.9298 11.5214 24.817 11.4537 24.7832 11.4707C24.755 11.4932 24.7099 11.6229 24.6874 11.7582C24.6705 11.8991 24.6479 12.0118 24.6366 12.0118C24.631 12.0118 24.5352 11.978 24.4337 11.9329C23.9883 11.7525 23.9883 11.7525 23.9883 12.0344V12.2937L23.278 12.632C22.8834 12.818 22.5564 12.9646 22.5452 12.9533C22.4944 12.9026 23.1935 12.2035 23.6952 11.7976C24.7663 10.9351 25.8881 10.3601 27.0889 10.0557C27.8443 9.85837 28.9098 9.8189 29.5975 9.9542C30.1162 10.0557 30.7307 10.2812 31.0689 10.4954C31.176 10.5574 31.2775 10.5969 31.3057 10.58C31.362 10.5461 31.4466 10.1628 31.5763 9.33409C31.7003 8.53358 31.7172 6.55486 31.6044 5.88965C31.5312 5.47812 31.5368 5.38792 31.6157 5.10041C31.6946 4.81291 31.6946 4.7058 31.6326 4.32809C31.5368 3.74744 31.3902 3.60087 30.9505 3.65161ZM29.902 5.57959C29.902 5.69234 29.8794 5.83327 29.8569 5.88965C29.823 5.98548 29.8005 5.97421 29.699 5.81072C29.5863 5.63596 29.5863 5.61342 29.6708 5.43866C29.7836 5.20189 29.9076 5.27517 29.902 5.57959ZM24.304 6.57741C24.6197 6.72962 24.631 6.78035 24.4337 7.10168C24.3322 7.25953 24.2646 7.40047 24.2758 7.41174C24.2871 7.42865 24.4281 7.48503 24.5803 7.54704C24.9016 7.6767 24.9185 7.75562 24.6761 8.06004C24.2082 8.64633 23.3908 8.5674 23.0187 7.89656C22.9398 7.74998 22.9172 7.62032 22.9342 7.40047C22.9849 6.72962 23.7065 6.29554 24.304 6.57741ZM10.0358 10.8675C9.52281 10.9238 8.81814 11.0704 8.73922 11.1324C8.65466 11.1944 8.69412 11.217 9.02672 11.3297C9.77649 11.5778 10.9547 12.2937 11.4452 12.7954C11.5635 12.9251 11.6932 13.0266 11.727 13.0209C11.7778 13.0209 13.2209 11.279 13.266 11.1662C13.2829 11.1268 12.629 10.9858 11.9807 10.8844C11.6368 10.8336 10.4135 10.8224 10.0358 10.8675Z" fill="currentColor"/>
    <path d="M30.9505 3.65161C29.7497 3.7869 29.0902 3.93911 27.5399 4.4352C24.3886 5.44993 20.6059 6.9833 18.8019 7.98112C18.599 8.09386 18.1987 8.31372 17.9112 8.46593C16.9642 8.97893 15.4364 9.96548 14.8163 10.4672C12.8883 12.0288 10.9547 14.357 9.79341 16.5218C9.43825 17.1813 9.038 18.3821 8.88579 19.2333C8.77304 19.8647 8.71667 20.5525 8.77868 20.6089C8.82941 20.6596 10.9547 19.9098 11.4057 19.6843C11.6425 19.5659 11.9694 19.3743 12.1329 19.2672C12.4599 19.0473 12.4768 19.1262 12.1611 19.3799C11.7214 19.7294 10.0302 20.5863 9.11128 20.9189C8.74485 21.0542 7.25658 21.8829 6.68157 22.2719C6.20803 22.5932 5.59356 23.1908 5.21021 23.6981C4.86633 24.1548 4.2575 25.2822 4.32514 25.3443C4.34206 25.3668 4.73667 25.2315 5.1933 25.0455C6.88452 24.369 8.23185 23.9857 9.4608 23.8222C10.2726 23.7207 10.2275 23.7207 10.0753 23.8278C10.0076 23.8729 9.95125 23.9518 9.95125 23.9969C9.95125 24.2224 10.453 24.9496 11.1915 25.8009C12.3415 27.1144 14.23 28.4166 15.7859 28.9635C17.184 29.4596 18.1029 29.5498 20.324 29.4145C22.2577 29.2961 22.827 29.2904 23.1484 29.4032C23.4584 29.5159 23.5825 29.6287 24.0447 30.2488C25.02 31.5567 24.9298 31.4777 25.984 31.9569C26.497 32.188 26.9311 32.3684 26.9423 32.3572C26.9705 32.329 26.5477 30.6829 26.3335 29.9895C26.046 29.0311 26.1362 28.4166 26.8296 26.7254C27.9345 24.042 28.3291 23.0668 28.3291 22.9878C28.3291 22.7793 27.7598 22.6101 27.3369 22.6947C26.8803 22.7793 25.4428 24.3634 24.383 25.9475C23.3964 27.4132 23.1878 27.6669 22.8778 27.8078C22.5057 27.9713 22.0096 27.9262 21.4515 27.6781C20.4199 27.2215 19.7829 26.7311 19.1684 25.9362C18.864 25.5359 18.7287 25.2766 18.5144 24.6283C18.1931 23.653 18.1818 23.6361 18.0691 24.0646C18.0296 24.2111 17.9902 24.3013 17.9733 24.2619C17.962 24.2224 17.9902 24.0364 18.0409 23.8391C18.3171 22.7398 19.1853 21.5052 20.1606 20.8118C21.0174 20.1973 22.7932 19.2108 23.7628 18.8049C24.569 18.4667 25.8487 17.8127 26.356 17.4801C28.0529 16.3583 29.31 15.0504 30.1782 13.4945C30.7137 12.5361 30.9223 11.978 30.9223 11.5045C30.9223 11.0648 30.8885 11.0366 30.6292 11.2508C30.539 11.3297 30.4431 11.3805 30.415 11.3635C30.3924 11.3466 30.3529 11.2057 30.3304 11.0535C30.3078 10.8956 30.2684 10.7716 30.2458 10.7716C30.2177 10.7716 30.15 10.8336 30.088 10.9126C30.026 10.9915 29.9527 11.0535 29.9189 11.0535C29.8907 11.0535 29.8118 10.9238 29.7441 10.7716C29.637 10.5179 29.513 10.3996 29.513 10.5461C29.513 10.5743 29.4228 10.7603 29.3157 10.952L29.124 11.3015L28.9774 10.9802C28.8985 10.7998 28.8365 10.6194 28.8365 10.5743C28.8365 10.4334 28.7463 10.4785 28.5941 10.6983C28.4024 10.9858 28.3573 11.1493 28.4532 11.2621C28.5152 11.3466 28.5152 11.3523 28.425 11.3184C28.3686 11.2959 28.3122 11.279 28.2953 11.279C28.284 11.279 28.2333 11.1832 28.1882 11.0704C28.098 10.8562 27.9514 10.6589 27.8781 10.6589C27.8556 10.6589 27.7879 10.8224 27.7316 11.0253C27.647 11.3466 27.6188 11.3974 27.5173 11.3805C27.4271 11.3692 27.382 11.2903 27.32 11.0648C27.2524 10.8111 27.2242 10.766 27.1227 10.7829C27.0269 10.7942 26.9987 10.8505 26.9762 11.0704C26.9592 11.217 26.9029 11.3748 26.8521 11.4256C26.7676 11.5101 26.745 11.4932 26.5703 11.2283C26.4688 11.0704 26.3504 10.9407 26.3109 10.9407C26.232 10.9407 26.1305 11.1662 26.1305 11.3523C26.1305 11.4199 26.1024 11.5158 26.0742 11.5609C26.0234 11.6285 25.9783 11.6003 25.7979 11.3974C25.5386 11.1099 25.4259 11.1155 25.409 11.4256C25.3977 11.5496 25.3582 11.6849 25.3131 11.73C25.2398 11.7976 25.206 11.7864 25.0369 11.6229C24.9298 11.5214 24.817 11.4537 24.7832 11.4707C24.755 11.4932 24.7099 11.6229 24.6874 11.7582C24.6705 11.8991 24.6479 12.0118 24.6366 12.0118C24.631 12.0118 24.5352 11.978 24.4337 11.9329C23.9883 11.7525 23.9883 11.7525 23.9883 12.0344V12.2937L23.278 12.632C22.8834 12.818 22.5564 12.9646 22.5452 12.9533C22.4944 12.9026 23.1935 12.2035 23.6952 11.7976C24.7663 10.9351 25.8881 10.3601 27.0889 10.0557C27.8443 9.85837 28.9098 9.8189 29.5975 9.9542C30.1162 10.0557 30.7307 10.2812 31.0689 10.4954C31.176 10.5574 31.2775 10.5969 31.3057 10.58C31.362 10.5461 31.4466 10.1628 31.5763 9.33409C31.7003 8.53358 31.7172 6.55486 31.6044 5.88965C31.5312 5.47812 31.5368 5.38792 31.6157 5.10041C31.6946 4.81291 31.6946 4.7058 31.6326 4.32809C31.5368 3.74744 31.3902 3.60087 30.9505 3.65161ZM29.902 5.57959C29.902 5.69234 29.8794 5.83327 29.8569 5.88965C29.823 5.98548 29.8005 5.97421 29.699 5.81072C29.5863 5.63596 29.5863 5.61342 29.6708 5.43866C29.7836 5.20189 29.9076 5.27517 29.902 5.57959ZM24.304 6.57741C24.6197 6.72962 24.631 6.78035 24.4337 7.10168C24.3322 7.25953 24.2646 7.40047 24.2758 7.41174C24.2871 7.42865 24.4281 7.48503 24.5803 7.54704C24.9016 7.6767 24.9185 7.75562 24.6761 8.06004C24.2082 8.64633 23.3908 8.5674 23.0187 7.89656C22.9398 7.74998 22.9172 7.62032 22.9342 7.40047C22.9849 6.72962 23.7065 6.29554 24.304 6.57741ZM10.0358 10.8675C9.52281 10.9238 8.81814 11.0704 8.73922 11.1324C8.65466 11.1944 8.69412 11.217 9.02672 11.3297C9.77649 11.5778 10.9547 12.2937 11.4452 12.7954C11.5635 12.9251 11.6932 13.0266 11.727 13.0209C11.7778 13.0209 13.2209 11.279 13.266 11.1662C13.2829 11.1268 12.629 10.9858 11.9807 10.8844C11.6368 10.8336 10.4135 10.8224 10.0358 10.8675Z" fill="currentColor"/>
    <path d="M27.711 20.0004C26.6044 20.5362 25.794 21.0951 25.033 21.848C24.5641 22.3052 24.5682 22.393 25.0371 22.2868C27.2873 21.7925 29.3893 21.8757 31.4296 22.5408C31.6682 22.6193 31.8698 22.6701 31.8821 22.6563C31.9192 22.6147 31.1047 21.7556 30.6316 21.3399C29.7719 20.5824 28.5625 19.7694 28.3033 19.7786C28.2252 19.7833 27.9619 19.8803 27.711 20.0004Z" fill="#97DF7E"/>
  </symbol>

  <symbol id="VIDEO" width="36" height="36" viewBox="0 0 36 36">
    <path d="M9.51127 8.20852C9.20049 7.36872 9.64095 6.4402 10.4951 6.13463L11.2683 5.85798C12.1225 5.55241 13.0668 5.98549 13.3776 6.8253L16.1912 14.4283C16.5019 15.2681 16.0615 16.1967 15.2074 16.5022L14.4341 16.7789C13.58 17.0844 12.6356 16.6514 12.3249 15.8116L9.51127 8.20852Z" fill="currentColor"/>
    <path d="M26.0652 8.20852C26.376 7.36872 25.9355 6.4402 25.0814 6.13463L24.3081 5.85798C23.454 5.55241 22.5097 5.98549 22.1989 6.8253L19.3853 14.4283C19.0745 15.2681 19.515 16.1967 20.3691 16.5022L21.1424 16.7789C21.9965 17.0844 22.9408 16.6514 23.2516 15.8116L26.0652 8.20852Z" fill="currentColor"/>
    <path fill-rule="evenodd" clip-rule="evenodd" d="M26.2286 11.5423C28.0464 11.5423 29.52 12.9913 29.52 14.7786V27.7237C29.52 29.5111 28.0464 30.96 26.2286 30.96H9.77141C7.9536 30.96 6.47998 29.5111 6.47998 27.7237V14.7786C6.47998 12.9913 7.9536 11.5423 9.77141 11.5423H26.2286ZM16.3543 17.047C15.8057 16.7357 15.12 17.125 15.12 17.7478V24.7545C15.12 25.3773 15.8057 25.7667 16.3543 25.4553L22.5257 21.952C23.0743 21.6406 23.0743 20.8618 22.5257 20.5503L16.3543 17.047Z" fill="currentColor"/>
  </symbol>

  <symbol id="SPORTS" width="36" height="36" viewBox="0 0 36 36">
    <path d="M30.96 20.6304C30.96 16.9192 25.8166 13.8688 19.2352 13.5367V13.6474L19.3221 14.3832C22.7897 14.6403 25.7586 15.7049 27.3736 17.2122C28.226 18.0195 28.7247 18.9017 28.7247 19.8947C28.7247 20.2983 28.6377 20.6662 28.4898 21.0341C28.255 21.5842 27.8723 22.0986 27.3446 22.5772C25.4919 24.2667 21.9373 25.4062 17.8522 25.4062C13.767 25.4062 10.2124 24.2667 8.35977 22.5772C7.83209 22.0986 7.44938 21.5842 7.21454 21.0341C7.06667 20.6662 6.97969 20.2625 6.97969 19.8947C6.97969 19.1231 7.30152 18.3874 7.86109 17.6907C9.33105 15.9262 12.5348 14.6403 16.3822 14.3832L16.4692 13.5758C10.1255 14.0153 5.1879 16.994 5.1879 20.6304C5.1879 20.8127 5.2169 20.9983 5.2169 21.1806C5.27488 21.6591 5.42275 22.0986 5.6576 22.5414C5.6576 22.5414 5.6576 22.5772 5.68659 22.5772C7.21454 25.5559 12.1811 27.724 18.058 27.724C22.5549 27.724 26.4922 26.4739 28.7855 24.5272C26.611 26.9525 22.2621 28.5705 17.2375 28.5705C11.6215 28.5705 6.86082 26.513 5.04004 23.645C5.71558 27.7631 11.2417 30.96 17.9421 30.96C25.1121 30.96 30.931 27.3204 30.931 22.7985V20.9983H30.9021C30.96 20.9266 30.96 20.7769 30.96 20.6304ZM26.698 21.441C26.9619 21.441 27.1967 21.2945 27.3736 21.0731C27.5504 20.8518 27.6374 20.5946 27.6374 20.2658C27.6374 19.6049 27.2257 19.0906 26.698 19.0906C26.1993 19.0906 25.7586 19.6049 25.7586 20.2658C25.7586 20.5978 25.8456 20.855 26.0225 21.0731C26.1993 21.2945 26.4342 21.441 26.698 21.441ZM10.801 18.9408C10.801 19.7124 11.2707 20.4481 12.0941 21.0373C13.3872 21.9554 15.5037 22.5804 17.8841 22.5804C20.2644 22.5804 22.3809 21.9554 23.674 21.0373C24.4974 20.4481 24.9671 19.7156 24.9671 18.9408C24.9671 17.2122 22.6158 15.7439 19.4729 15.3761L19.9136 19.198C19.9136 20.0053 18.2378 20.4123 17.887 20.4123C17.5332 20.4123 15.8603 20.0086 15.8603 19.2371L16.301 15.3761C13.1524 15.7439 10.801 17.2122 10.801 18.9408ZM13.5322 12.9508C13.825 12.9508 14.0599 12.8043 14.2657 12.5829H16.9128L16.7939 13.5758L16.7069 14.3832L16.6779 14.7152L16.591 15.3761L16.1503 19.3087C16.1503 19.6017 17.3564 20.0802 17.8841 20.0802C18.4117 20.0802 19.6179 19.6017 19.6179 19.2729L19.1772 15.3761L19.0902 14.7152L19.0612 14.3832L18.9742 13.6474V13.5725L18.8553 12.6154H21.7953C22.0011 12.8368 22.236 12.9833 22.5288 12.9833C23.1174 12.9833 23.616 12.3583 23.616 11.6225C23.616 10.8868 23.1174 10.2617 22.5288 10.2617C22.236 10.2617 22.0011 10.4082 21.7953 10.6296H18.6205L18.5625 10.1152C18.6205 10.0794 18.6495 10.0794 18.7104 10.0404C18.7684 10.0046 18.7974 10.0046 18.8582 9.96549C19.5338 9.52601 19.9745 8.67959 19.9745 7.65086C19.9745 6.21846 19.0351 5.03998 17.887 5.03998C16.7417 5.03998 15.7994 6.2152 15.7994 7.65086C15.7994 8.64378 16.2691 9.52601 16.9157 9.96549C16.9737 10.0013 17.0027 10.0404 17.0636 10.0404C17.1215 10.0762 17.1505 10.0762 17.2114 10.1152L17.1534 10.6296H14.2715C14.0656 10.4082 13.8308 10.2617 13.538 10.2617C12.9494 10.2617 12.4507 10.8868 12.4507 11.6225C12.4449 12.3257 12.9465 12.9508 13.5322 12.9508ZM19.2352 7.40019C19.2352 7.40019 19.1163 7.06813 18.6176 6.51796C18.3538 6.1859 17.8841 5.8571 17.8841 5.8571C19.2062 5.92872 19.2352 7.40019 19.2352 7.40019Z" fill="currentColor"/>
  </symbol>

  <symbol id="LOTTERY" width="36" height="36" viewBox="0 0 36 36">
    <path d="M18 5.04004C25.1624 5.04004 30.96 10.8434 30.96 18C30.96 25.1566 25.1566 30.96 18 30.96C10.8434 30.96 5.04004 25.1566 5.04004 18C5.04004 10.8434 10.8434 5.04004 18 5.04004ZM15.4102 10.8779C11.1175 10.878 7.63574 14.3606 7.63574 18.6533C7.63578 22.946 11.1175 26.4276 15.4102 26.4277C19.7029 26.4277 23.1855 22.9461 23.1855 18.6533C23.1855 14.3605 19.7029 10.8779 15.4102 10.8779ZM15.7773 13.8877C17.8304 14.0452 18.9039 14.8563 19.0205 16.3203C18.9796 17.3701 18.3616 18.0818 17.1719 18.4609C18.7114 19.0792 19.4636 20.0354 19.4287 21.3359C19.3179 23.2373 18.0059 24.217 15.498 24.2871C13.3283 24.2113 12.1967 23.4238 12.0801 21.9189C12.1386 20.7994 12.8149 19.9888 14.1094 19.4873C13.0071 19.1256 12.2894 18.0581 12.3711 16.8975C12.5577 15.0837 13.6954 14.0802 15.7773 13.8877ZM14.71 19.8955C14.0569 20.2572 13.6602 20.9459 13.666 21.6924C13.7245 23.0394 14.3722 23.7561 15.6084 23.832C16.5124 23.8379 17.253 23.115 17.2705 22.2109C17.3055 21.5577 16.9091 21.0156 16.0576 20.5898L15.1133 20.0703C15.0666 20.0645 15.0253 20.0467 14.9961 20.0117C14.9145 19.9477 14.8148 19.9072 14.71 19.8955ZM15.7715 14.4717C14.9901 14.4602 14.3427 15.0779 14.3311 15.8594C14.2553 16.7051 15.0083 17.463 16.5889 18.1221C17.166 17.708 17.492 17.0317 17.457 16.3262C17.4162 15.1188 16.8622 14.5125 15.7773 14.4717H15.7715ZM26.1836 10.7969C24.7899 9.40316 23.2557 8.69727 22.7363 9.20996C22.2173 9.7232 22.9284 11.2633 24.3223 12.6572C25.7103 14.0452 27.2502 14.7571 27.7695 14.2441C28.2886 13.7309 27.5774 12.1908 26.1836 10.7969Z" fill="currentColor"/>
    <path d="M18 5.04004C25.1624 5.04004 30.96 10.8434 30.96 18C30.96 25.1566 25.1566 30.96 18 30.96C10.8434 30.96 5.04004 25.1566 5.04004 18C5.04004 10.8434 10.8434 5.04004 18 5.04004ZM15.4102 10.8779C11.1175 10.878 7.63574 14.3606 7.63574 18.6533C7.63578 22.946 11.1175 26.4276 15.4102 26.4277C19.7029 26.4277 23.1855 22.9461 23.1855 18.6533C23.1855 14.3605 19.7029 10.8779 15.4102 10.8779ZM15.7773 13.8877C17.8304 14.0452 18.9039 14.8563 19.0205 16.3203C18.9796 17.3701 18.3616 18.0818 17.1719 18.4609C18.7114 19.0792 19.4636 20.0354 19.4287 21.3359C19.3179 23.2373 18.0059 24.217 15.498 24.2871C13.3283 24.2113 12.1967 23.4238 12.0801 21.9189C12.1386 20.7994 12.8149 19.9888 14.1094 19.4873C13.0071 19.1256 12.2894 18.0581 12.3711 16.8975C12.5577 15.0837 13.6954 14.0802 15.7773 13.8877ZM14.71 19.8955C14.0569 20.2572 13.6602 20.9459 13.666 21.6924C13.7245 23.0394 14.3722 23.7561 15.6084 23.832C16.5124 23.8379 17.253 23.115 17.2705 22.2109C17.3055 21.5577 16.9091 21.0156 16.0576 20.5898L15.1133 20.0703C15.0666 20.0645 15.0253 20.0467 14.9961 20.0117C14.9145 19.9477 14.8148 19.9072 14.71 19.8955ZM15.7715 14.4717C14.9901 14.4602 14.3427 15.0779 14.3311 15.8594C14.2553 16.7051 15.0083 17.463 16.5889 18.1221C17.166 17.708 17.492 17.0317 17.457 16.3262C17.4162 15.1188 16.8622 14.5125 15.7773 14.4717H15.7715ZM26.1836 10.7969C24.7899 9.40316 23.2557 8.69727 22.7363 9.20996C22.2173 9.7232 22.9284 11.2633 24.3223 12.6572C25.7103 14.0452 27.2502 14.7571 27.7695 14.2441C28.2886 13.7309 27.5774 12.1908 26.1836 10.7969Z" fill="currentColor"/>
    <path d="M18 5.04004C25.1624 5.04004 30.96 10.8434 30.96 18C30.96 25.1566 25.1566 30.96 18 30.96C10.8434 30.96 5.04004 25.1566 5.04004 18C5.04004 10.8434 10.8434 5.04004 18 5.04004ZM15.4102 10.8779C11.1175 10.878 7.63574 14.3606 7.63574 18.6533C7.63578 22.946 11.1175 26.4276 15.4102 26.4277C19.7029 26.4277 23.1855 22.9461 23.1855 18.6533C23.1855 14.3605 19.7029 10.8779 15.4102 10.8779ZM15.7773 13.8877C17.8304 14.0452 18.9039 14.8563 19.0205 16.3203C18.9796 17.3701 18.3616 18.0818 17.1719 18.4609C18.7114 19.0792 19.4636 20.0354 19.4287 21.3359C19.3179 23.2373 18.0059 24.217 15.498 24.2871C13.3283 24.2113 12.1967 23.4238 12.0801 21.9189C12.1386 20.7994 12.8149 19.9888 14.1094 19.4873C13.0071 19.1256 12.2894 18.0581 12.3711 16.8975C12.5577 15.0837 13.6954 14.0802 15.7773 13.8877ZM14.71 19.8955C14.0569 20.2572 13.6602 20.9459 13.666 21.6924C13.7245 23.0394 14.3722 23.7561 15.6084 23.832C16.5124 23.8379 17.253 23.115 17.2705 22.2109C17.3055 21.5577 16.9091 21.0156 16.0576 20.5898L15.1133 20.0703C15.0666 20.0645 15.0253 20.0467 14.9961 20.0117C14.9145 19.9477 14.8148 19.9072 14.71 19.8955ZM15.7715 14.4717C14.9901 14.4602 14.3427 15.0779 14.3311 15.8594C14.2553 16.7051 15.0083 17.463 16.5889 18.1221C17.166 17.708 17.492 17.0317 17.457 16.3262C17.4162 15.1188 16.8622 14.5125 15.7773 14.4717H15.7715ZM26.1836 10.7969C24.7899 9.40316 23.2557 8.69727 22.7363 9.20996C22.2173 9.7232 22.9284 11.2633 24.3223 12.6572C25.7103 14.0452 27.2502 14.7571 27.7695 14.2441C28.2886 13.7309 27.5774 12.1908 26.1836 10.7969Z" fill="currentColor"/>
  </symbol>
</svg>
