<svg width="328" height="128" viewBox="0 0 328 128" fill="none" xmlns="http://www.w3.org/2000/svg">
<path d="M204.414 49.6734C204.417 53.1762 203.147 56.5608 200.84 59.1961C198.532 61.8315 195.345 63.5376 191.872 63.9965C191.237 64.0774 190.598 64.119 189.958 64.121H141.901C140.858 64.1187 139.818 64.0328 138.789 63.8642C134.371 63.102 130.392 60.7327 127.617 57.2124C124.841 53.6922 123.466 49.2697 123.756 44.7964C124.045 40.323 125.98 36.1149 129.186 32.982C132.392 29.8492 136.644 28.013 141.123 27.8269C143.444 22.7865 147.342 18.6376 152.227 16.006C157.113 13.3745 162.722 12.403 168.208 13.2382C173.694 14.0733 178.76 16.6698 182.641 20.636C186.522 24.6022 189.009 29.7229 189.725 35.2258H189.943C191.842 35.2227 193.723 35.5942 195.479 36.3188C197.234 37.0435 198.83 38.1072 200.174 39.4491C201.518 40.791 202.584 42.3848 203.312 44.1391C204.039 45.8935 204.414 47.7741 204.414 49.6734Z" fill="url(#paint0_linear_7090_9654)"/>
<path d="M326.607 119.237C326.609 121.05 325.952 122.802 324.757 124.166C323.563 125.531 321.913 126.414 320.115 126.651C319.787 126.693 319.456 126.715 319.125 126.716H294.248C293.708 126.715 293.169 126.67 292.637 126.583C290.35 126.188 288.29 124.962 286.853 123.14C285.417 121.317 284.705 119.028 284.855 116.712C285.005 114.397 286.006 112.218 287.666 110.597C289.325 108.975 291.526 108.025 293.845 107.928C295.047 105.319 297.064 103.171 299.593 101.809C302.122 100.447 305.026 99.944 307.865 100.376C310.705 100.809 313.328 102.153 315.337 104.206C317.346 106.259 318.633 108.91 319.004 111.758H319.116C320.1 111.757 321.073 111.949 321.982 112.324C322.891 112.699 323.717 113.25 324.413 113.944C325.108 114.639 325.66 115.464 326.037 116.372C326.413 117.28 326.607 118.254 326.607 119.237Z" fill="url(#paint1_linear_7090_9654)"/>
<path d="M69.0597 90.9504C69.0621 93.1992 68.2466 95.372 66.7652 97.0639C65.2838 98.7557 63.2376 99.851 61.0083 100.146C60.6007 100.198 60.1904 100.224 59.7796 100.226H28.9274C28.2581 100.224 27.59 100.169 26.9295 100.061C24.0936 99.5714 21.5389 98.0503 19.7571 95.7904C17.9754 93.5304 17.0925 90.6913 17.2785 87.8194C17.4645 84.9476 18.7062 82.2461 20.7646 80.2348C22.823 78.2236 25.5526 77.0448 28.4279 76.9253C29.9182 73.6894 32.4203 71.0259 35.5568 69.3365C38.6933 67.6471 42.2942 67.0234 45.8162 67.5596C49.3382 68.0957 52.5903 69.7626 55.082 72.3089C57.5737 74.8551 59.1699 78.1425 59.6297 81.6753H59.7696C60.9889 81.6733 62.1966 81.9118 63.3236 82.377C64.4507 82.8422 65.4749 83.5251 66.3378 84.3866C67.2006 85.2481 67.8852 86.2712 68.3522 87.3975C68.8193 88.5238 69.0597 89.7311 69.0597 90.9504Z" fill="url(#paint2_linear_7090_9654)"/>
<defs>
<linearGradient id="paint0_linear_7090_9654" x1="189.1" y1="86.1914" x2="148.96" y2="12.9468" gradientUnits="userSpaceOnUse">
<stop stop-color="#0D1814"/>
<stop offset="1" stop-color="#1F3E53"/>
</linearGradient>
<linearGradient id="paint1_linear_7090_9654" x1="318.68" y1="138.14" x2="297.902" y2="100.226" gradientUnits="userSpaceOnUse">
<stop stop-color="#0D1814"/>
<stop offset="1" stop-color="#1F3E53"/>
</linearGradient>
<linearGradient id="paint2_linear_7090_9654" x1="59.2285" y1="114.394" x2="33.4594" y2="67.3725" gradientUnits="userSpaceOnUse">
<stop stop-color="#0D1814"/>
<stop offset="1" stop-color="#1F3E53"/>
</linearGradient>
</defs>
</svg>
