<svg width="36" height="36" viewBox="0 0 36 36" fill="none" xmlns="http://www.w3.org/2000/svg">
<path d="M10 10.9993H30.25C31.2462 11.0888 32.1758 11.5374 32.8652 12.262C33.5546 12.9865 33.9571 13.9375 33.9971 14.9368L34 15.1028V17.7493H33.0889L32.9834 17.7336L32.875 17.7278H25.375L25.209 17.7317C24.1741 17.7734 23.1927 18.2029 22.46 18.9348C21.7271 19.6668 21.2968 20.648 21.2539 21.6829L21.25 21.8528L21.2529 22.0188C21.2945 23.054 21.7239 24.0358 22.4561 24.7688C23.1883 25.5017 24.1699 25.9323 25.2051 25.9749L25.375 25.9778H31.75V25.9993H34V27.8528C34.0001 28.9182 33.5876 29.9428 32.8496 30.7112C32.1117 31.4792 31.1053 31.932 30.041 31.9749L29.875 31.9778H12.5215C14.6119 30.6467 16 28.3106 16 25.6487C15.9998 21.5067 12.642 18.1487 8.5 18.1487C6.81154 18.1487 5.25351 18.7071 4 19.6487V15.1038C3.99991 14.0384 4.4124 13.0147 5.15039 12.2463C5.88835 11.478 6.89456 11.0246 7.95898 10.9817L8.125 10.9778H10V10.9993ZM34 23.7278H25.375L25.252 23.7239C24.7984 23.6939 24.3712 23.5004 24.0498 23.179C23.7284 22.8575 23.5348 22.4304 23.5049 21.9768L23.5 21.8528L23.5039 21.7297L23.5156 21.6086C23.5723 21.1786 23.7762 20.7811 24.0928 20.4846C24.4093 20.1882 24.8192 20.0111 25.252 19.9827L25.375 19.9778H34V23.7278ZM26.125 20.7278C25.8266 20.7278 25.5401 20.8469 25.3291 21.0579C25.1184 21.2688 25.0001 21.5547 25 21.8528C25 22.1511 25.1182 22.4377 25.3291 22.6487C25.5401 22.8597 25.8266 22.9778 26.125 22.9778C26.4234 22.9778 26.7099 22.8597 26.9209 22.6487C27.1318 22.4377 27.25 22.1511 27.25 21.8528C27.2499 21.5547 27.1316 21.2688 26.9209 21.0579C26.7099 20.8469 26.4234 20.7278 26.125 20.7278ZM22.293 5.34985C22.8754 5.0153 23.5637 4.91581 24.2168 5.07251C24.8702 5.22941 25.4396 5.63073 25.8066 6.1936L25.8848 6.32153L27.7188 9.49829H25.75V9.49927H19V9.49829H15.1064L19 7.25024V7.24927H19.0029L22.293 5.34985Z" fill="url(#paint0_linear_13001_42314)"/>
<circle cx="8" cy="25.749" r="6" fill="url(#paint1_linear_13001_42314)"/>
<path d="M4 25.749C4 25.1967 4.44772 24.749 5 24.749H11C11.5523 24.749 12 25.1967 12 25.749C12 26.3013 11.5523 26.749 11 26.749H5C4.44772 26.749 4 26.3013 4 25.749Z" fill="#0A4100"/>
<path d="M8 29.749C7.44772 29.749 7 29.3013 7 28.749L7 22.749C7 22.1967 7.44771 21.749 8 21.749C8.55228 21.749 9 22.1967 9 22.749L9 28.749C9 29.3013 8.55228 29.749 8 29.749Z" fill="#0A4100"/>
<defs>
<linearGradient id="paint0_linear_13001_42314" x1="4.35081" y1="10.8185" x2="31.51" y2="31.9692" gradientUnits="userSpaceOnUse">
<stop stop-color="#FFDC8B"/>
<stop offset="0.632339" stop-color="#CF883D"/>
<stop offset="1" stop-color="#F5AA54"/>
</linearGradient>
<linearGradient id="paint1_linear_13001_42314" x1="8" y1="19.749" x2="8" y2="31.749" gradientUnits="userSpaceOnUse">
<stop stop-color="#69E440"/>
<stop offset="1" stop-color="#49991D"/>
</linearGradient>
</defs>
</svg>
