<svg width="25" height="24" viewBox="0 0 25 24" fill="currentColor" xmlns="http://www.w3.org/2000/svg">
<g clip-path="url(#clip0_502_13255)">
<path d="M23.6118 10.3906C23.3312 9.72736 22.9302 9.13214 22.4197 8.62168C21.9092 8.11114 21.314 7.70996 20.6508 7.4295C20.4843 7.35915 20.3146 7.29687 20.1422 7.24287C19.6181 6.03582 18.8112 4.956 17.7849 4.10944C17.0519 3.5048 16.2292 3.03312 15.3398 2.70757C14.4189 2.37057 13.4515 2.19971 12.4645 2.19971C11.4856 2.19971 10.5258 2.36787 9.61162 2.69951C8.72859 3.01988 7.91048 3.48436 7.18012 4.08C6.12426 4.94131 5.29602 6.0503 4.76643 7.29157C3.94401 7.59082 3.19473 8.06051 2.5762 8.67425C1.50684 9.73526 0.917969 11.1286 0.917969 12.5975C0.917969 13.392 1.08817 14.1616 1.42396 14.8852C1.74037 15.5669 2.18896 16.1751 2.75704 16.6928C3.59348 17.4551 4.62728 17.9616 5.74532 18.1717C5.85317 18.2058 5.96539 18.2241 6.07848 18.2261C6.07973 18.2263 6.08085 18.2265 6.08228 18.2267V18.2262C6.08859 18.2263 6.09491 18.2267 6.10122 18.2267C6.74978 18.2267 7.27553 17.7009 7.27553 17.0522C7.27553 16.4036 6.74973 15.8779 6.10122 15.8779C6.09491 15.8779 6.08856 15.8783 6.08228 15.8784V15.8363C4.47236 15.4889 3.27454 14.1707 3.27454 12.5975C3.27454 10.8618 4.73259 9.43664 6.59334 9.28299C7.18066 6.58046 9.58602 4.55625 12.4646 4.55625C15.3672 4.55625 17.7891 6.61439 18.3506 9.35096C18.3948 9.34885 18.439 9.3477 18.4832 9.34751C20.2564 9.34751 21.6938 10.785 21.6938 12.5582C21.6938 14.1948 20.4689 15.5444 18.8861 15.7427V15.7605C18.2462 15.7707 17.7306 16.2921 17.7306 16.9343C17.7306 17.5767 18.2462 18.0981 18.8861 18.1084V18.1108C18.8951 18.1103 18.9043 18.1094 18.9135 18.1086C18.9808 18.1081 19.048 18.1018 19.1143 18.0898C19.6432 18.0302 20.1607 17.8945 20.6508 17.6869C21.3141 17.4063 21.9092 17.0052 22.4197 16.4948C22.9302 15.9842 23.3313 15.3891 23.6119 14.7258C23.9027 14.038 24.0503 13.3087 24.0503 12.5582C24.0503 11.8077 23.9027 11.0783 23.6118 10.3906V10.3906Z" fill="currentColor"/>
<path d="M8.36257 18.3137L11.5115 21.4626C11.741 21.6921 12.048 21.8 12.3503 21.7861C12.6527 21.8 12.9596 21.6923 13.1892 21.4626L16.3381 18.3137C16.7711 17.8807 16.7711 17.1722 16.3381 16.7391C15.9052 16.3063 15.1967 16.3063 14.7636 16.7391L13.5166 17.9862V12.7223C13.5166 12.11 13.0157 11.6089 12.4033 11.6089C11.7909 11.6089 11.29 12.11 11.29 12.7223V18.0661C11.29 18.0752 11.2905 18.0841 11.2906 18.0928L9.93698 16.7391C9.50405 16.3063 8.79555 16.3063 8.36254 16.7391C7.92961 17.1722 7.92961 17.8807 8.36254 18.3137L8.36257 18.3137Z" fill="currentColor"/>
</g>
<defs>
<clipPath id="clip0_502_13255">
<rect width="24" height="24" fill="currentColor" transform="translate(0.5)"/>
</clipPath>
</defs>
</svg>
