<svg width="24" height="24" viewBox="0 0 24 24" fill="none" xmlns="http://www.w3.org/2000/svg">
<path d="M17.0264 0C20.8711 0.000188875 23.9999 3.36819 24 7.50684V7.52734H18.418C16.2121 7.52748 14.416 9.4595 14.416 11.834C14.416 14.2085 16.2122 16.1405 18.418 16.1406H24V16.4932C23.9999 20.6318 20.8711 23.9998 17.0264 24H6.97363C3.12892 23.9998 0.000127385 20.6318 0 16.4932V7.50684C0.000128343 3.36819 3.12892 0.000188322 6.97363 0H17.0264ZM24 14.2637H18.418C17.1752 14.2635 16.1612 13.1718 16.1611 11.834C16.1611 10.4962 17.1752 9.40444 18.418 9.4043H24V14.2637ZM18.5889 10.8164C18.1058 10.8165 17.716 11.2349 17.7158 11.7549C17.7158 12.2751 18.1093 12.6942 18.5889 12.6943H18.9521C19.4353 12.6941 19.8242 12.2751 19.8242 11.7549C19.824 11.2349 19.4316 10.8166 18.9521 10.8164H18.5889ZM6.14551 5.67578C5.66228 5.67592 5.27246 6.09503 5.27246 6.61523C5.27251 7.1354 5.66594 7.55357 6.14551 7.55371H12.4248C12.9081 7.55371 13.2968 7.13549 13.2969 6.61523C13.2969 6.09494 12.9045 5.67578 12.4248 5.67578H6.14551Z" fill="currentColor"/>
</svg>
