<svg width="24" height="24" viewBox="0 0 24 24" fill="none" xmlns="http://www.w3.org/2000/svg">
<mask id="mask0_5_283192" style="mask-type:luminance" maskUnits="userSpaceOnUse" x="2" y="2" width="20" height="20">
<path d="M22 2H2V22H22V2Z" fill="white"/>
</mask>
<g mask="url(#mask0_5_283192)">
<path d="M18.375 7.5H5.875C5.70924 7.5 5.55027 7.43415 5.43306 7.31694C5.31585 7.19973 5.25 7.04076 5.25 6.875C5.25 6.70924 5.31585 6.55027 5.43306 6.43306C5.55027 6.31585 5.70924 6.25 5.875 6.25H16.5C16.6658 6.25 16.8247 6.18415 16.9419 6.06694C17.0592 5.94973 17.125 5.79076 17.125 5.625C17.125 5.45924 17.0592 5.30027 16.9419 5.18306C16.8247 5.06585 16.6658 5 16.5 5H5.875C5.37772 5 4.90081 5.19754 4.54917 5.54917C4.19754 5.90081 4 6.37772 4 6.875V16.875C4 17.3723 4.19754 17.8492 4.54917 18.2008C4.90081 18.5525 5.37772 18.75 5.875 18.75H18.375C18.7065 18.75 19.0245 18.6183 19.2589 18.3839C19.4933 18.1495 19.625 17.8315 19.625 17.5V8.75C19.625 8.41848 19.4933 8.10054 19.2589 7.86612C19.0245 7.6317 18.7065 7.5 18.375 7.5ZM15.5625 13.75C15.3771 13.75 15.1958 13.695 15.0417 13.592C14.8875 13.489 14.7673 13.3426 14.6964 13.1713C14.6254 13 14.6068 12.8115 14.643 12.6296C14.6792 12.4477 14.7685 12.2807 14.8996 12.1496C15.0307 12.0185 15.1977 11.9292 15.3796 11.893C15.5615 11.8568 15.75 11.8754 15.9213 11.9464C16.0926 12.0173 16.239 12.1375 16.342 12.2916C16.445 12.4458 16.5 12.6271 16.5 12.8125C16.5 13.0611 16.4012 13.2996 16.2254 13.4754C16.0496 13.6512 15.8111 13.75 15.5625 13.75Z" fill="currentColor"/>
</g>
</svg>
