<svg width="30" height="30" viewBox="0 0 30 30" fill="none" xmlns="http://www.w3.org/2000/svg">
<g clip-path="url(#clip0_12310_1427)">
<path d="M0.045166 14.6611C0.091735 14.389 0.124497 14.1135 0.187073 13.8451C0.644338 11.883 2.34193 10.3209 4.32816 10.0875C6.51287 9.83083 8.18987 10.6717 9.36261 12.5277C9.37726 12.5509 9.39116 12.5746 9.41255 12.6098C9.45865 12.5838 9.50176 12.5601 9.54435 12.5355C13.0468 10.5139 16.5489 8.49165 20.0532 6.47323C20.1647 6.40901 20.1906 6.3543 20.1597 6.22587C19.4904 3.44184 21.2391 0.70452 24.0452 0.139C24.2436 0.09903 24.4456 0.076705 24.6459 0.0461426C24.8863 0.0461426 25.1266 0.0461426 25.367 0.0461426C25.6752 0.101838 25.9884 0.138298 26.2909 0.216365C28.2531 0.722633 29.7386 2.4404 29.9665 4.45307C30.2685 7.12084 28.4411 9.56854 25.7973 9.96061C23.8253 10.253 22.214 9.56583 20.9842 7.99362C20.9616 7.9647 20.9398 7.93507 20.912 7.89819C20.8662 7.92351 20.8223 7.94691 20.7791 7.97181C17.216 10.0284 13.653 12.0852 10.0894 14.1408C10.0127 14.1851 9.96141 14.2217 9.97709 14.3302C10.1152 15.2875 9.97686 16.2071 9.5831 17.0894C9.57014 17.1184 9.5583 17.148 9.53859 17.1948C12.2706 18.7721 14.9997 20.3476 17.7386 21.9289C17.7935 21.8665 17.8463 21.8041 17.9015 21.7439C19.2882 20.2343 20.996 19.6683 22.9711 20.1979C24.9351 20.7245 26.1553 22.059 26.5724 24.0503C27.1486 26.8015 25.2589 29.4813 22.4724 29.9356C19.758 30.3781 17.1532 28.4913 16.7456 25.7866C16.6302 25.021 16.6786 24.266 16.9119 23.5267C16.9456 23.4198 16.9217 23.3755 16.8297 23.3225C14.1171 21.7598 11.4057 20.195 8.69647 18.6264C8.59135 18.5655 8.53748 18.5828 8.45234 18.6586C6.99251 19.9587 5.30807 20.3639 3.45771 19.7448C1.61957 19.1297 0.516706 17.8046 0.125433 15.9001C0.0902841 15.7292 0.0715629 15.5548 0.0452129 15.3821C0.045166 15.1418 0.045166 14.9015 0.045166 14.6611ZM25.001 8.3658C26.8607 8.36051 28.3416 6.86932 28.3346 5.00885C28.3278 3.18999 26.8281 1.70727 24.9982 1.71008C23.1605 1.71294 21.6724 3.21143 21.6783 5.05322C21.6842 6.87854 23.1812 8.37099 25.001 8.3658ZM5.042 18.3494C6.89465 18.3401 8.37067 16.8509 8.36552 14.9963C8.36042 13.1717 6.85636 11.6874 5.01906 11.6938C3.18335 11.7002 1.69961 13.2034 1.70929 15.047C1.71889 16.8702 3.22094 18.3586 5.042 18.3494ZM21.6706 28.3331C23.5306 28.3287 25.0123 26.8387 25.0064 24.9784C25.0006 23.1594 23.5016 21.6753 21.6722 21.6774C19.8339 21.6795 18.3451 23.1768 18.3501 25.0184C18.3551 26.844 19.851 28.3373 21.6706 28.3331Z" fill="currentColor"/>
</g>
<defs>
<clipPath id="clip0_12310_1427">
<rect width="30" height="30" fill="currentColor"/>
</clipPath>
</defs>
</svg>
