<svg width="100" height="100" viewBox="0 0 100 100" fill="none" xmlns="http://www.w3.org/2000/svg">
<path d="M40.9605 90C40.9605 90 6.59138 82.1964 21.9523 43.4643C21.9523 43.4643 25.4398 47.7679 24.9606 49.8393C24.9606 49.8393 27.6939 40.0625 33.5951 34.2232C38.6622 29.2054 43.8091 15.0982 39.0615 10C39.0615 10 62.5777 15.0982 65.1956 40.5982C65.1956 40.5982 68.2039 32.4732 74.3802 31.6696C74.3802 31.6696 72.4811 36.1339 74.3802 42.8304C74.3802 42.8304 93.8587 77.25 60.2882 88.8839C60.2882 88.8839 70.3514 77.0893 49.0093 56.8482C49.0093 56.8482 43.9777 67.6875 40.9694 71.5089C40.9605 71.5179 32.5657 81.2321 40.9605 90Z" fill="url(#paint0_linear_12314_32715)"/>
<path d="M40.9605 90C40.9605 90 6.59138 82.1964 21.9523 43.4643C21.9523 43.4643 25.4398 47.7679 24.9606 49.8393C24.9606 49.8393 27.6939 40.0625 33.5951 34.2232C38.6622 29.2054 43.8091 15.0982 39.0615 10C39.0615 10 62.5777 15.0982 65.1956 40.5982C65.1956 40.5982 68.2039 32.4732 74.3802 31.6696C74.3802 31.6696 72.4811 36.1339 74.3802 42.8304C74.3802 42.8304 93.8587 77.25 60.2882 88.8839C60.2882 88.8839 70.3514 77.0893 49.0093 56.8482C49.0093 56.8482 43.9777 67.6875 40.9694 71.5089C40.9605 71.5179 32.5657 81.2321 40.9605 90Z" fill="url(#paint1_linear_12314_32715)"/>
<defs>
<linearGradient id="paint0_linear_12314_32715" x1="49" y1="90" x2="49" y2="10" gradientUnits="userSpaceOnUse">
<stop stop-color="#FF586B"/>
<stop offset="1" stop-color="#FF2F38"/>
</linearGradient>
<linearGradient id="paint1_linear_12314_32715" x1="35.4375" y1="86.0976" x2="72.6628" y2="14.1159" gradientUnits="userSpaceOnUse">
<stop stop-color="#FFEAED"/>
<stop offset="1" stop-color="#FF1B25"/>
</linearGradient>
</defs>
</svg>
