<svg width="10" height="10" viewBox="0 0 10 10" fill="none" xmlns="http://www.w3.org/2000/svg">
<path d="M7.82849 0.757568C8.21902 0.367044 8.85203 0.367044 9.24255 0.757568C9.63307 1.14809 9.63307 1.78111 9.24255 2.17163L6.41345 4.99976L9.24255 7.82886C9.63283 8.2194 9.63299 8.85248 9.24255 9.24292C8.85211 9.63334 8.21903 9.63319 7.82849 9.24292L4.99939 6.41382L2.17126 9.24292C1.78072 9.63318 1.14764 9.63335 0.757202 9.24292C0.366763 8.85248 0.366935 8.2194 0.757202 7.82886L3.58533 4.99976L0.757202 2.17163C0.366683 1.78111 0.366693 1.14809 0.757202 0.757568C1.14773 0.367044 1.78074 0.367044 2.17126 0.757568L4.99939 3.58569L7.82849 0.757568Z" fill="currentColor"/>
</svg>
