<svg width="16" height="16" viewBox="0 0 16 16" fill="none" xmlns="http://www.w3.org/2000/svg">
<path d="M6.63239 2H6.57713C5.68297 2 4.97384 2 4.41373 2.06698C3.83855 2.13396 3.36468 2.27712 2.96867 2.6028C2.83472 2.71164 2.71164 2.83555 2.60113 2.96951C2.27629 3.36552 2.13396 3.83855 2.0653 4.41457C2 4.97551 2 5.68381 2 6.57713V6.63155C2 7.52571 2 8.23401 2.06698 8.79495C2.13396 9.37012 2.27712 9.844 2.6028 10.24C2.71164 10.374 2.83555 10.497 2.96951 10.6067C3.34459 10.9148 3.79 11.0588 4.32582 11.1317C4.75951 11.1903 5.28277 11.2045 5.91321 11.207C5.92074 11.5553 5.93665 11.86 5.97181 12.1254C6.03963 12.6278 6.18447 13.0506 6.5202 13.3863C6.85593 13.7229 7.27956 13.8669 7.7819 13.9347C8.26582 14 8.88118 14 9.6439 14H10.2634C11.027 14 11.6424 14 12.1263 13.9347C12.6286 13.8677 13.0514 13.7229 13.3871 13.3863C13.7237 13.0514 13.8677 12.6278 13.9355 12.1254C14 11.6415 14 11.0262 14 10.2626V9.64306C14 8.88035 14 8.26498 13.9355 7.78106C13.8686 7.27873 13.7237 6.85509 13.3871 6.51936C13.0514 6.18363 12.6286 6.03879 12.1263 5.97181C11.8217 5.93546 11.5154 5.91589 11.2087 5.91321C11.2053 5.28277 11.1911 4.75951 11.1325 4.32415C11.0605 3.78832 10.9156 3.34375 10.6075 2.96867C10.4976 2.83447 10.3748 2.71137 10.2408 2.60113C9.84483 2.27629 9.37096 2.13396 8.79579 2.0653C8.23484 2 7.52655 2 6.63239 2ZM10.3715 5.90735H9.6439C8.88118 5.90735 8.26582 5.90735 7.7819 5.97265C7.27956 6.03963 6.85593 6.18447 6.5202 6.5202C6.18447 6.85593 6.03963 7.27956 5.97265 7.7819C5.90735 8.26582 5.90735 8.88118 5.90735 9.6439V10.3715C5.2878 10.3673 4.81644 10.3539 4.43717 10.3028C3.98591 10.2417 3.7113 10.1337 3.50031 9.96037C3.40822 9.88502 3.3245 9.8013 3.24915 9.7092C3.06747 9.48734 2.95612 9.19347 2.89751 8.69699C2.8389 8.19131 2.83723 7.53325 2.83723 6.60476C2.83723 5.67711 2.83807 5.01821 2.89835 4.51252C2.95695 4.01605 3.06747 3.72218 3.24998 3.50031C3.32533 3.40822 3.40906 3.3245 3.50115 3.24915C3.72218 3.06747 4.01605 2.95612 4.51252 2.89751C5.01821 2.8389 5.67711 2.83723 6.6056 2.83723C7.53241 2.83723 8.19214 2.83807 8.69699 2.89835C9.19347 2.95695 9.48734 3.06747 9.71004 3.24998C9.8013 3.32533 9.88586 3.40906 9.96121 3.50115C10.1337 3.71046 10.2417 3.98674 10.3028 4.43717C10.353 4.81644 10.3673 5.2878 10.3715 5.90735ZM7.11212 7.11296C7.26701 6.95807 7.48385 6.85676 7.89325 6.80234C8.31438 6.74541 8.87281 6.74374 9.67488 6.74374H10.2325C11.0337 6.74374 11.593 6.74541 12.0141 6.80234C12.4243 6.85676 12.6412 6.95807 12.7952 7.11212C12.9501 7.26701 13.0506 7.48385 13.105 7.89325C13.1619 8.31522 13.1636 8.87365 13.1636 9.67488V10.2333C13.1636 11.0345 13.1619 11.593 13.105 12.0141C13.0506 12.4243 12.9501 12.6412 12.7952 12.7952C12.6412 12.9501 12.4243 13.0506 12.0141 13.105C11.593 13.1628 11.0345 13.1636 10.2325 13.1636H9.67488C8.87365 13.1636 8.31438 13.1619 7.89325 13.105C7.48301 13.0506 7.26701 12.9501 7.11212 12.7952C6.95807 12.6412 6.85676 12.4243 6.80234 12.0141C6.74541 11.593 6.74374 11.0345 6.74374 10.2333V9.67488C6.74374 8.87365 6.74541 8.31522 6.80234 7.89325C6.85676 7.48301 6.95807 7.26701 7.11212 7.11212V7.11296Z" fill="currentColor" />
</svg>
