<svg width="18" height="18" viewBox="0 0 18 18" fill="none" xmlns="http://www.w3.org/2000/svg">
<path d="M9 2.25C5.27243 2.25 2.25 5.27243 2.25 9C2.25 12.7276 5.27243 15.75 9 15.75C12.7276 15.75 15.75 12.7276 15.75 9C15.75 5.27243 12.7276 2.25 9 2.25ZM10.2656 7.41948L8.9548 11.9607C8.88248 12.2198 8.84632 12.3916 8.84632 12.4714C8.84632 12.5181 8.8659 12.5618 8.90357 12.6025C8.94124 12.6432 8.98192 12.6628 9.02561 12.6628C9.09794 12.6628 9.17026 12.6311 9.24258 12.5664C9.43393 12.4081 9.66445 12.1234 9.93265 11.7105L10.1496 11.8386C9.50625 12.9596 8.82372 13.5201 8.099 13.5201C7.82176 13.5201 7.60179 13.4417 7.43756 13.2866C7.27333 13.1314 7.19196 12.934 7.19196 12.6959C7.19196 12.5377 7.22813 12.3388 7.30045 12.0948L8.18789 9.04068C8.27377 8.74688 8.31596 8.52539 8.31596 8.37623C8.31596 8.28281 8.27528 8.19994 8.19392 8.12762C8.11256 8.0553 8.00257 8.01914 7.86244 8.01914C7.79916 8.01914 7.72232 8.02065 7.63192 8.02517L7.71479 7.76903L9.87991 7.41797H10.2656V7.41948ZM10.5338 6.08304C10.35 6.26685 10.1285 6.35725 9.86936 6.35725C9.61323 6.35725 9.39475 6.26535 9.21094 6.08304C9.02712 5.89922 8.93672 5.67773 8.93672 5.41858C8.93672 5.15943 9.02712 4.93795 9.20792 4.75413C9.38873 4.57182 9.60871 4.47991 9.86936 4.47991C10.133 4.47991 10.356 4.57182 10.5368 4.75413C10.7176 4.93795 10.808 5.15943 10.808 5.41858C10.808 5.67773 10.7161 5.89922 10.5338 6.08304Z" fill="currentColor" />
</svg>
