<svg width="16" height="16" viewBox="0 0 16 16" fill="none" xmlns="http://www.w3.org/2000/svg">
<path d="M12.5933 3.3179C13.1118 3.3179 13.4369 3.76154 13.4369 4.2059V13.9564C13.4369 14.4524 12.9191 15.0001 12.4529 15.0001H3.65802C3.08783 15.0001 2.66602 14.4081 2.66602 13.9564V4.25827C2.66602 3.7099 2.94674 3.31063 3.56129 3.36227H3.81292C4.02093 3.37681 4.18383 3.55426 4.17656 3.76226V5.5019C4.17656 5.7019 4.31692 5.9019 4.55329 5.9019L11.5569 5.85681C11.7497 5.85681 11.9351 5.70917 11.9351 5.45681V3.7179C11.9351 3.46627 12.1198 3.3179 12.3569 3.3179H12.5933ZM8.38092 10.4103H5.52347C5.4553 10.4098 5.38771 10.4228 5.32463 10.4487C5.26155 10.4745 5.20422 10.5126 5.15599 10.5608C5.10775 10.609 5.06955 10.6663 5.04362 10.7293C5.01769 10.7923 5.00454 10.8599 5.00493 10.9281C5.00493 11.2095 5.23474 11.4466 5.52347 11.4466H8.38165C8.51894 11.4461 8.65042 11.3912 8.74743 11.2941C8.84443 11.1969 8.89909 11.0654 8.89947 10.9281C8.89986 10.8599 8.8867 10.7923 8.86077 10.7293C8.83484 10.6663 8.79665 10.609 8.74841 10.5608C8.70017 10.5126 8.64285 10.4745 8.57976 10.4487C8.51668 10.4228 8.44909 10.4098 8.38092 10.4103ZM10.5358 8.34481H5.47911C5.41096 8.34742 5.34401 8.36351 5.28211 8.39214C5.22022 8.42077 5.1646 8.46138 5.11849 8.51162C5.07237 8.56186 5.03667 8.62074 5.01343 8.68486C4.99019 8.74897 4.97989 8.81705 4.98311 8.88517C4.98572 8.95332 5.00181 9.02028 5.03044 9.08217C5.05907 9.14407 5.09968 9.19968 5.14992 9.24579C5.20016 9.29191 5.25903 9.32762 5.32315 9.35085C5.38727 9.37409 5.45535 9.38439 5.52347 9.38118H10.5358C10.604 9.38156 10.6716 9.36841 10.7346 9.34248C10.7977 9.31655 10.8549 9.27835 10.9031 9.23011C10.9513 9.18188 10.9894 9.12455 11.0152 9.06147C11.0411 8.99839 11.0541 8.9308 11.0537 8.86263C11.054 8.79452 11.0409 8.72701 11.015 8.66401C10.9891 8.60101 10.951 8.54378 10.9028 8.49562C10.8547 8.44745 10.7974 8.40933 10.7345 8.38344C10.6715 8.35756 10.6039 8.34443 10.5358 8.34481ZM9.15111 1.66699C9.56565 1.67426 9.89874 2.00008 9.90602 2.41463C9.90602 2.61463 10.0471 2.81463 10.2842 2.81463H10.5278C10.7431 2.8219 10.906 2.99936 10.8987 3.21463V4.4059C10.8987 4.6059 10.7577 4.8059 10.5206 4.8059H5.53874C5.48801 4.80534 5.43789 4.79469 5.39131 4.77458C5.34473 4.75446 5.30261 4.72528 5.26742 4.68873C5.23222 4.65218 5.20465 4.60899 5.1863 4.56169C5.16796 4.51438 5.15921 4.4639 5.16056 4.41317V3.2219C5.16056 3.02263 5.30165 2.8219 5.53874 2.8219H5.81947C6.0122 2.8219 6.19765 2.67427 6.19765 2.42263C6.20493 2.00808 6.53802 1.67499 6.95256 1.66772L9.15111 1.66699ZM8.07765 2.4219C7.65583 2.4219 7.27765 2.8219 7.27765 3.26554C7.27765 3.7099 7.65583 4.10917 8.07765 4.10917C8.49947 4.10917 8.87765 3.8139 8.87765 3.26554C8.87765 2.8219 8.55111 2.4219 8.07765 2.4219Z" fill="currentColor" fill-opacity="1"/>
</svg>
