<svg width="200" height="200" viewBox="0 0 200 200" fill="none" xmlns="http://www.w3.org/2000/svg">
<path d="M75.7 27.6502C82.6479 22.247 91.1984 19.3135 100 19.3135C108.802 19.3135 117.352 22.247 124.3 27.6502L165.967 60.0585C170.726 63.7596 174.577 68.4988 177.225 73.9146C179.874 79.3304 181.251 85.2797 181.25 91.3085V141.667C181.25 152.165 177.08 162.233 169.656 169.657C162.233 177.08 152.165 181.25 141.667 181.25H58.3333C53.1352 181.25 47.9879 180.226 43.1854 178.237C38.383 176.248 34.0193 173.332 30.3437 169.657C22.9204 162.233 18.75 152.165 18.75 141.667V91.3002C18.7495 85.2714 20.1261 79.3221 22.7748 73.9063C25.4235 68.4905 29.2743 63.7513 34.0333 60.0502L75.7 27.6502ZM71.15 121.75C70.8333 123.359 70.8333 125.292 70.8333 129.167C70.8333 133.042 70.8333 134.975 71.15 136.584C71.7925 139.818 73.3802 142.789 75.7122 145.121C78.0441 147.453 81.0154 149.041 84.25 149.684C85.8583 150 87.7917 150 91.6667 150H108.333C112.208 150 114.142 150 115.75 149.684C118.985 149.041 121.956 147.453 124.288 145.121C126.62 142.789 128.207 139.818 128.85 136.584C129.167 134.975 129.167 133.042 129.167 129.167C129.167 125.292 129.167 123.359 128.85 121.75C128.207 118.516 126.62 115.544 124.288 113.212C121.956 110.88 118.985 109.293 115.75 108.65C114.142 108.334 112.208 108.334 108.333 108.334H91.6667C87.7917 108.334 85.8583 108.334 84.25 108.65C81.0154 109.293 78.0441 110.88 75.7122 113.212C73.3802 115.544 71.7925 118.516 71.15 121.75Z" fill="#2056AC"/>
<path d="M87.5002 108.333H112.5C123.611 108.333 129.167 113.889 129.167 125V133.333C129.167 144.444 123.611 150 112.5 150H87.5002C76.3891 150 70.8335 144.444 70.8335 133.333V125C70.8335 113.889 76.3891 108.333 87.5002 108.333Z" fill="#5F79A2"/>
</svg>
