<svg width="24" height="24" viewBox="0 0 24 24" fill="none" xmlns="http://www.w3.org/2000/svg">
<mask id="mask0_5_283170" style="mask-type:luminance" maskUnits="userSpaceOnUse" x="2" y="2" width="20" height="20">
<path d="M22 2H2V22H22V2Z" fill="white"/>
</mask>
<g mask="url(#mask0_5_283170)">
</g>
<path d="M9.57 4.76483C10.2648 4.2245 11.1198 3.93115 12 3.93115C12.8802 3.93115 13.7352 4.2245 14.43 4.76483L18.5967 8.00566C19.0726 8.37576 19.4577 8.84969 19.7225 9.39127C19.9874 9.93285 20.1251 10.5278 20.125 11.1307V16.1665C20.125 17.2163 19.708 18.2231 18.9656 18.9655C18.2233 19.7078 17.2165 20.1248 16.1667 20.1248H7.83333C7.31352 20.1248 6.79879 20.0224 6.31854 19.8235C5.8383 19.6246 5.40193 19.333 5.03437 18.9655C4.29204 18.2231 3.875 17.2163 3.875 16.1665V11.1298C3.87495 10.5269 4.01261 9.93202 4.27748 9.39044C4.54235 8.84885 4.92743 8.37493 5.40333 8.00483L9.57 4.76483ZM9.115 14.1748C9.08333 14.3357 9.08333 14.529 9.08333 14.9165C9.08333 15.304 9.08333 15.4973 9.115 15.6582C9.17925 15.9816 9.33802 16.2788 9.57122 16.5119C9.80441 16.7451 10.1015 16.9039 10.425 16.9682C10.5858 16.9998 10.7792 16.9998 11.1667 16.9998H12.8333C13.2208 16.9998 13.4142 16.9998 13.575 16.9682C13.8985 16.9039 14.1956 16.7451 14.4288 16.5119C14.662 16.2788 14.8207 15.9816 14.885 15.6582C14.9167 15.4973 14.9167 15.304 14.9167 14.9165C14.9167 14.529 14.9167 14.3357 14.885 14.1748C14.8207 13.8514 14.662 13.5542 14.4288 13.321C14.1956 13.0878 13.8985 12.9291 13.575 12.8648C13.4142 12.8332 13.2208 12.8332 12.8333 12.8332H11.1667C10.7792 12.8332 10.5858 12.8332 10.425 12.8648C10.1015 12.9291 9.80441 13.0878 9.57122 13.321C9.33802 13.5542 9.17925 13.8514 9.115 14.1748Z" fill="url(#paint0_linear_5_283170)"/>
<path d="M10.7502 12.8335H13.2502C14.3613 12.8335 14.9168 13.3891 14.9168 14.5002V15.3335C14.9168 16.4446 14.3613 17.0002 13.2502 17.0002H10.7502C9.63905 17.0002 9.0835 16.4446 9.0835 15.3335V14.5002C9.0835 13.3891 9.63905 12.8335 10.7502 12.8335Z" fill="#0D120D"/>
<defs>
<linearGradient id="paint0_linear_5_283170" x1="17.5" y1="20" x2="6.5" y2="4" gradientUnits="userSpaceOnUse">
<stop stop-color="#31372F"/>
<stop offset="1" stop-color="#445142"/>
</linearGradient>
</defs>
</svg>
