<svg width="24" height="24" viewBox="0 0 24 24" fill="none" xmlns="http://www.w3.org/2000/svg">
<path d="M18.1172 11.8709C18.1172 12.03 18.0858 12.1876 18.025 12.3346C17.9641 12.4816 17.8748 12.6152 17.7623 12.7277C17.6498 12.8402 17.5162 12.9295 17.3692 12.9904C17.2222 13.0513 17.0646 13.0826 16.9055 13.0826C16.7463 13.0826 16.5888 13.0513 16.4418 12.9904C16.2948 12.9295 16.1612 12.8402 16.0487 12.7277C15.9361 12.6152 15.8469 12.4816 15.786 12.3346C15.7251 12.1876 15.6938 12.03 15.6938 11.8709C15.6938 11.7118 15.7251 11.5542 15.786 11.4072C15.8469 11.2602 15.9361 11.1266 16.0487 11.0141C16.1612 10.9016 16.2948 10.8123 16.4418 10.7514C16.5888 10.6905 16.7463 10.6592 16.9055 10.6592C17.0646 10.6592 17.2222 10.6905 17.3692 10.7514C17.5162 10.8123 17.6498 10.9016 17.7623 11.0141C17.8748 11.1266 17.9641 11.2602 18.025 11.4072C18.0858 11.5542 18.1172 11.7118 18.1172 11.8709Z" fill="currentColor"/>
<path d="M12.0607 10.6592C12.7287 10.6592 13.2725 11.2006 13.2725 11.8709C13.2725 12.3045 13.0428 12.7029 12.6678 12.9186C12.2928 13.1342 11.8311 13.1342 11.4561 12.9186C11.0811 12.7029 10.8514 12.3021 10.8514 11.8709C10.8514 11.2006 11.3928 10.6592 12.0607 10.6592ZM6.61387 10.8209C6.98887 10.6053 7.45059 10.6053 7.82559 10.8209C8.20059 11.0365 8.43027 11.4373 8.43027 11.8686C8.43027 12.3021 8.20059 12.7006 7.82559 12.9162C7.45059 13.1318 6.98887 13.1318 6.61387 12.9162C6.23887 12.7006 6.00918 12.2998 6.00918 11.8686C6.00918 11.4373 6.23887 11.0365 6.61387 10.8209Z" fill="currentColor"/>
<path d="M12.0001 2.46338C17.7915 2.46338 22.5024 6.66807 22.5024 11.8337C22.5024 13.6149 21.9376 15.3399 20.8688 16.8446L21.947 20.6204C22.022 20.8806 21.9423 21.1595 21.7431 21.3446C21.6095 21.4688 21.4337 21.5345 21.2556 21.5345C21.1712 21.5345 21.0868 21.5204 21.0048 21.4899L17.0813 20.0274C15.5251 20.7962 13.7743 21.2017 12.0001 21.2017C6.20869 21.2017 1.49776 16.9993 1.49776 11.8337C1.49776 6.66807 6.20869 2.46338 12.0001 2.46338ZM12.0001 19.7673C13.6524 19.7673 15.2767 19.3665 16.6993 18.6118C16.8048 18.5556 16.9196 18.5274 17.0368 18.5274C17.1212 18.5274 17.2056 18.5415 17.2876 18.572L20.1774 19.6501L19.3923 16.8985C19.329 16.6782 19.3759 16.4438 19.5142 16.2634C20.5313 14.9438 21.0681 13.4134 21.0681 11.8337C21.0681 7.45791 16.9993 3.89775 12.0001 3.89775C7.00088 3.89775 2.93213 7.45791 2.93213 11.8337C2.93213 16.2095 7.00088 19.7673 12.0001 19.7673Z" fill="currentColor"/>
</svg>
