<svg width="14" height="15" viewBox="0 0 14 15" fill="none" xmlns="http://www.w3.org/2000/svg">
<path d="M13.1604 10.4405C13.2533 10.6414 13.3012 10.8496 13.3012 11.0614C13.3012 12.8597 10.1315 13.8001 7.00213 13.8001C3.8708 13.8001 0.701172 12.8588 0.701172 11.0614C0.701172 10.8749 0.739476 10.6876 0.815125 10.5066C0.875951 10.3594 0.99613 10.2411 1.14923 10.1777C1.30232 10.1144 1.47579 10.111 1.63147 10.1685C1.78716 10.226 1.9123 10.3396 1.97937 10.4843C2.04645 10.629 2.04996 10.7929 1.98913 10.9401C1.9717 10.9784 1.96227 11.0196 1.96136 11.0614C1.96136 11.6777 3.97231 12.609 7.00213 12.609C10.031 12.609 12.0419 11.6777 12.0419 11.0614C12.0412 11.0144 12.0298 10.9681 12.0084 10.9256C11.9748 10.8541 11.9564 10.7771 11.9542 10.6988C11.9521 10.6206 11.9663 10.5428 11.996 10.4698C12.0257 10.3967 12.0703 10.3299 12.1273 10.2732C12.1843 10.2165 12.2526 10.1709 12.3283 10.1391C12.481 10.0749 12.6545 10.0707 12.8106 10.1274C12.8878 10.1554 12.9585 10.1976 13.0185 10.2515C13.0786 10.3054 13.1268 10.3699 13.1604 10.4414V10.4405ZM13.1604 6.86823C13.2533 7.06915 13.3012 7.27732 13.3012 7.4891C13.3012 9.28745 10.1315 10.2278 7.00213 10.2278C3.8708 10.2278 0.701172 9.28654 0.701172 7.4891C0.701172 7.30266 0.739476 7.11531 0.815125 6.93339C0.845306 6.86054 0.890375 6.79401 0.947758 6.73761C1.00514 6.68122 1.07371 6.63606 1.14956 6.60471C1.22541 6.57336 1.30705 6.55644 1.38982 6.55491C1.47259 6.55339 1.55487 6.56728 1.63195 6.59581C1.70904 6.62433 1.77943 6.66693 1.83909 6.72116C1.89876 6.7754 1.94655 6.84021 1.97971 6.9119C2.01288 6.98358 2.03078 7.06075 2.0324 7.13897C2.03402 7.2172 2.01931 7.29496 1.98913 7.36782C1.9717 7.40618 1.96227 7.44736 1.96136 7.4891C1.96136 8.10544 3.97231 9.03675 7.00213 9.03675C10.031 9.03675 12.0419 8.10544 12.0419 7.4891C12.0412 7.4421 12.0298 7.3958 12.0084 7.35334C11.9747 7.28185 11.9562 7.20478 11.9541 7.12655C11.9519 7.04831 11.966 6.97043 11.9957 6.89735C12.0253 6.82428 12.0699 6.75744 12.1269 6.70065C12.1839 6.64387 12.2521 6.59824 12.3278 6.56639C12.4034 6.53454 12.485 6.51708 12.5677 6.51501C12.6505 6.51294 12.7329 6.5263 12.8102 6.55433C12.8875 6.58236 12.9583 6.6245 13.0184 6.67836C13.0784 6.73222 13.1267 6.79674 13.1604 6.86823ZM0.702129 3.89692C0.702129 0.301124 13.3012 0.301124 13.3012 3.89692C13.3012 5.69527 10.1315 6.63563 7.00213 6.63563C3.8708 6.63563 0.701172 5.69437 0.701172 3.89692H0.702129ZM7.00213 2.34927C3.97231 2.34927 1.96232 3.28058 1.96232 3.89692C1.96232 4.51236 3.97327 5.44457 7.00213 5.44457C10.031 5.44457 12.0419 4.51236 12.0419 3.89692C12.0419 3.28058 10.031 2.34927 7.00213 2.34927Z" fill="currentColor"/>
</svg>
