<svg width="20" height="21" viewBox="0 0 20 21" fill="none" xmlns="http://www.w3.org/2000/svg">
<path opacity="0.01" d="M1.25684 2.20636H18.7432V19.6927H1.25684V2.20636Z" fill="#202425"/>
<path d="M4.9133 4.63522C4.35956 3.86349 4.91038 2.78924 5.85989 2.78924H14.1391C15.0886 2.78924 15.6394 3.86349 15.0857 4.63522L13.7608 6.48061C13.5449 6.78133 13.2604 7.02632 12.931 7.19528C12.6016 7.36425 12.2367 7.45234 11.8664 7.45226H8.13253C7.76231 7.45234 7.39739 7.36425 7.06797 7.19528C6.73855 7.02632 6.45411 6.78133 6.23818 6.48061L4.9133 4.63522Z" fill="#FFAA44"/>
<path d="M10.5744 6.28651H9.42613C7.78807 6.28642 6.20193 6.86125 4.94426 7.91079C3.6866 8.96032 2.83717 10.418 2.5441 12.0296L2.00668 14.9871C1.61616 17.1339 3.2657 19.1098 5.44799 19.1098H14.5537C16.7354 19.1098 18.385 17.1339 17.9944 14.9871L17.457 12.0296C17.1639 10.4178 16.3143 8.95997 15.0564 7.91041C13.7985 6.86086 12.2121 6.28615 10.5738 6.28651H10.5744Z" fill="#FF7744"/>
<path d="M9.6139 16.6482V15.8678C9.35375 15.8541 9.08332 15.837 8.80263 15.8164C8.52194 15.7891 8.27548 15.7582 8.06325 15.724V14.8306C8.10433 14.8306 8.17963 14.8374 8.28917 14.8511C8.40556 14.8648 8.54248 14.8785 8.69994 14.8922C8.86425 14.8991 9.04567 14.9059 9.24421 14.9127C9.44959 14.9196 9.66182 14.923 9.8809 14.923C10.2301 14.9299 10.4834 14.9127 10.6408 14.8717C10.8051 14.8237 10.9078 14.7519 10.9489 14.656C10.9968 14.5533 11.0208 14.413 11.0208 14.235C11.0208 14.0364 11.0037 13.8961 10.9694 13.8139C10.9421 13.7318 10.8839 13.677 10.7949 13.6496C10.7127 13.6222 10.5895 13.5983 10.4252 13.5777L9.0799 13.4032C8.74444 13.3552 8.49113 13.2662 8.31998 13.1362C8.15567 13.0061 8.04271 12.8315 7.98109 12.6124C7.91948 12.3934 7.88867 12.1366 7.88867 11.8422C7.88867 11.452 7.95371 11.1474 8.08379 10.9283C8.22071 10.7024 8.41583 10.5381 8.66913 10.4354C8.92929 10.3327 9.24421 10.2676 9.6139 10.2403V9.41871H10.4354V10.23C10.7024 10.2368 10.9421 10.2505 11.1543 10.2711C11.3665 10.2916 11.5856 10.3258 11.8115 10.3738V11.2672C11.6404 11.2466 11.4555 11.2295 11.257 11.2158C11.0584 11.1953 10.8633 11.1816 10.6716 11.1748C10.4799 11.1611 10.3019 11.1542 10.1376 11.1542C9.93225 11.1542 9.75767 11.1611 9.6139 11.1748C9.47013 11.1884 9.35032 11.2158 9.25448 11.2569C9.15863 11.298 9.08675 11.363 9.03882 11.452C8.99775 11.541 8.97721 11.6643 8.97721 11.8217C8.97721 11.9997 8.98748 12.1332 9.00802 12.2222C9.0354 12.3044 9.09017 12.3591 9.17232 12.3865C9.25448 12.4139 9.37771 12.4379 9.54202 12.4584L11.0208 12.633C11.2741 12.6672 11.4795 12.7288 11.6369 12.8178C11.7944 12.9068 11.9108 13.0609 11.9861 13.2799C12.0682 13.4922 12.1093 13.8002 12.1093 14.2042C12.1093 14.6012 12.0546 14.9162 11.945 15.1489C11.8423 15.3749 11.6677 15.5426 11.4213 15.6521C11.1817 15.7548 10.8531 15.8199 10.4354 15.8472V16.6482H9.6139Z" fill="white"/>
</svg>
