<svg width="200" height="200" viewBox="0 0 200 200" fill="none" xmlns="http://www.w3.org/2000/svg">
<path d="M181.985 100C182.805 150.897 150.897 182.773 100 181.986C49.1038 182.773 17.2279 150.897 18.015 100C17.2279 49.104 49.1038 17.2282 100 18.0152C150.897 17.2282 182.772 49.104 181.985 100Z" fill="#2056AC"/>
<path d="M100 58.4199C112.767 58.4199 119.15 64.8033 119.15 77.57V82.3576C119.15 95.1243 112.767 101.508 100 101.508C87.2332 101.508 80.8499 95.1243 80.8499 82.3576V77.57C80.8499 64.8033 87.2332 58.4199 100 58.4199Z" fill="#5F79A2"/>
<path d="M106.966 108.689C109.823 108.689 112.653 109.252 115.293 110.346C117.933 111.439 120.332 113.042 122.352 115.062C124.373 117.083 125.976 119.481 127.069 122.121C128.163 124.761 128.725 127.591 128.725 130.448V132.842C128.725 133.128 128.669 133.411 128.559 133.676C128.45 133.94 128.29 134.181 128.088 134.383C127.885 134.585 127.645 134.745 127.381 134.854C127.116 134.964 126.833 135.021 126.547 135.021H73.4529C73.167 135.02 72.884 134.964 72.6199 134.854C72.3557 134.745 72.1151 134.585 71.9128 134.383C71.7106 134.181 71.5506 133.94 71.4412 133.676C71.3317 133.411 71.2751 133.128 71.2751 132.842V130.448C71.2752 127.591 71.8379 124.761 72.9314 122.121C74.0249 119.481 75.6278 117.083 77.6482 115.062C79.6687 113.042 82.0678 111.439 84.7078 110.346C87.3476 109.252 90.1767 108.689 93.0339 108.689H96.4089V117.067C96.409 118.02 96.7874 118.933 97.4607 119.606C98.134 120.28 99.0475 120.658 99.9998 120.658C100.952 120.658 101.865 120.28 102.539 119.606C103.212 118.933 103.591 118.02 103.591 117.067V108.689H106.966Z" fill="#70A496"/>
</svg>
