<svg width="200" height="200" viewBox="0 0 200 200" fill="none" xmlns="http://www.w3.org/2000/svg">
<g filter="url(#filter0_i_10028_57835)">
<path d="M181.985 100C182.805 150.897 150.897 182.773 100 181.986C49.1038 182.773 17.2279 150.897 18.015 100C17.2279 49.104 49.1038 17.2282 100 18.0152C150.897 17.2282 182.772 49.104 181.985 100Z" fill="#E8FE5C" fill-opacity="0.4"/>
</g>
<path d="M100.875 62C112.542 62 118.375 67.9259 118.375 79.7778V84.2222C118.375 96.0741 112.542 102 100.875 102C89.2083 102 83.375 96.0741 83.375 84.2222V79.7778C83.375 67.9259 89.2083 62 100.875 62Z" fill="#E8FE5C"/>
<path d="M107.741 107.377C110.763 107.377 113.755 107.972 116.547 109.128C119.338 110.284 121.874 111.98 124.011 114.116C126.147 116.253 127.843 118.789 128.999 121.58C130.155 124.372 130.75 127.364 130.75 130.386V132.917C130.75 133.219 130.691 133.519 130.575 133.799C130.459 134.078 130.29 134.332 130.076 134.546C129.862 134.76 129.608 134.929 129.328 135.045C129.049 135.161 128.75 135.221 128.447 135.221C106.485 139.734 94.294 139.913 72.3037 135.221C72.0012 135.221 71.7013 135.161 71.4219 135.045C71.1425 134.929 70.8886 134.76 70.6748 134.546C70.461 134.332 70.2915 134.078 70.1758 133.799C70.06 133.519 70 133.219 70 132.917V130.386C70 127.364 70.5956 124.372 71.752 121.58C72.9082 118.789 74.6029 116.253 76.7393 114.116C78.8759 111.98 81.4125 110.284 84.2041 109.128C86.9957 107.972 89.9882 107.377 93.0098 107.377H96.5781V116.236C96.5782 117.243 96.9785 118.209 97.6904 118.921C98.4024 119.633 99.3681 120.033 100.375 120.033C101.382 120.033 102.348 119.633 103.06 118.921C103.772 118.209 104.172 117.243 104.172 116.236V107.377H107.741Z" fill="#E8FE5C"/>
<defs>
<filter id="filter0_i_10028_57835" x="18.0007" y="18.001" width="164" height="163.999" filterUnits="userSpaceOnUse" color-interpolation-filters="sRGB">
<feFlood flood-opacity="0" result="BackgroundImageFix"/>
<feBlend mode="normal" in="SourceGraphic" in2="BackgroundImageFix" result="shape"/>
<feColorMatrix in="SourceAlpha" type="matrix" values="0 0 0 0 0 0 0 0 0 0 0 0 0 0 0 0 0 0 127 0" result="hardAlpha"/>
<feOffset/>
<feGaussianBlur stdDeviation="5"/>
<feComposite in2="hardAlpha" operator="arithmetic" k2="-1" k3="1"/>
<feColorMatrix type="matrix" values="0 0 0 0 1 0 0 0 0 1 0 0 0 0 1 0 0 0 0.3 0"/>
<feBlend mode="normal" in2="shape" result="effect1_innerShadow_10028_57835"/>
</filter>
</defs>
</svg>
