<svg width="24" height="24" viewBox="0 0 24 24" fill="none" xmlns="http://www.w3.org/2000/svg">
<mask id="mask0_5_283234" style="mask-type:luminance" maskUnits="userSpaceOnUse" x="2" y="2" width="20" height="20">
<path d="M22 2H2V22H22V2Z" fill="white"/>
</mask>
<g mask="url(#mask0_5_283234)">
</g>
<g filter="url(#filter0_i_5_283234)">
<path d="M20.1983 12.0002C20.2802 17.0899 17.0894 20.2775 11.9997 20.1988C6.91011 20.2775 3.72252 17.0899 3.80123 12.0002C3.72252 6.9106 6.91011 3.72301 11.9997 3.80172C17.0894 3.72301 20.277 6.9106 20.1983 12.0002Z" fill="#19CC10" fill-opacity="0.4"/>
</g>
<path d="M12 7.8418C13.2766 7.8418 13.915 8.48013 13.915 9.75681V10.2356C13.915 11.5122 13.2766 12.1506 12 12.1506C10.7233 12.1506 10.085 11.5122 10.085 10.2356V9.75681C10.085 8.48013 10.7233 7.8418 12 7.8418Z" fill="#19CC10"/>
<path d="M12.6968 12.8691C12.9825 12.8692 13.2658 12.9248 13.5298 13.0342C13.7935 13.1435 14.033 13.304 14.2349 13.5059C14.4368 13.7078 14.5972 13.948 14.7065 14.2119C14.8159 14.4759 14.8726 14.7592 14.8726 15.0449V15.2842C14.8726 15.3127 14.8668 15.3408 14.856 15.3672C14.845 15.3936 14.8293 15.4183 14.8091 15.4385C14.7889 15.4587 14.7642 15.4744 14.7378 15.4854C14.7114 15.4962 14.6833 15.5019 14.6548 15.502H9.34521C9.31672 15.5019 9.28855 15.4962 9.26221 15.4854C9.23578 15.4744 9.21115 15.4587 9.19092 15.4385C9.17072 15.4183 9.15498 15.3936 9.14404 15.3672C9.13318 15.3409 9.12744 15.3127 9.12744 15.2842V15.0449C9.12744 14.7592 9.18411 14.4759 9.29346 14.2119C9.40281 13.948 9.56315 13.7079 9.76514 13.5059C9.96713 13.3039 10.2073 13.1435 10.4712 13.0342C10.735 12.925 11.0177 12.8692 11.3032 12.8691H11.6411V13.707C11.6412 13.8021 11.6793 13.8937 11.7466 13.9609C11.8139 14.028 11.9055 14.0654 12.0005 14.0654C12.0956 14.0653 12.1872 14.0282 12.2544 13.9609C12.3216 13.8937 12.3588 13.8021 12.3589 13.707V12.8691H12.6968Z" fill="#19CC10"/>
<defs>
<filter id="filter0_i_5_283234" x="3.7998" y="3.80029" width="16.3999" height="16.3999" filterUnits="userSpaceOnUse" color-interpolation-filters="sRGB">
<feFlood flood-opacity="0" result="BackgroundImageFix"/>
<feBlend mode="normal" in="SourceGraphic" in2="BackgroundImageFix" result="shape"/>
<feColorMatrix in="SourceAlpha" type="matrix" values="0 0 0 0 0 0 0 0 0 0 0 0 0 0 0 0 0 0 127 0" result="hardAlpha"/>
<feOffset/>
<feGaussianBlur stdDeviation="0.5"/>
<feComposite in2="hardAlpha" operator="arithmetic" k2="-1" k3="1"/>
<feColorMatrix type="matrix" values="0 0 0 0 1 0 0 0 0 1 0 0 0 0 1 0 0 0 0.3 0"/>
<feBlend mode="normal" in2="shape" result="effect1_innerShadow_5_283234"/>
</filter>
</defs>
</svg>
