<svg width="18" height="18" viewBox="0 0 18 18" fill="none" xmlns="http://www.w3.org/2000/svg">
<path d="M9.00013 0.852539C11.8088 0.852539 13.2132 2.25688 13.2132 5.06556V6.11882C13.2132 8.9275 11.8088 10.3318 9.00013 10.3318C6.19145 10.3318 4.78711 8.9275 4.78711 6.11882V5.06556C4.78711 2.25688 6.19145 0.852539 9.00013 0.852539Z" fill="currentColor"/>
<path d="M10.5327 11.9111C11.1614 11.9111 11.784 12.0348 12.3647 12.2754C12.9455 12.516 13.473 12.869 13.9175 13.3135C14.362 13.758 14.715 14.2854 14.9556 14.8662C15.1961 15.447 15.3198 16.0696 15.3198 16.6982V17.2246C15.3198 17.2875 15.3077 17.3501 15.2837 17.4082C15.2596 17.4663 15.2237 17.519 15.1792 17.5635C15.1347 17.608 15.0821 17.6439 15.0239 17.668C14.9658 17.692 14.9032 17.7041 14.8403 17.7041H3.15967C3.09682 17.7041 3.03414 17.692 2.97607 17.668C2.91804 17.6439 2.86523 17.6079 2.8208 17.5635C2.77642 17.519 2.74132 17.4662 2.71729 17.4082C2.6932 17.3501 2.68115 17.2875 2.68115 17.2246V16.6982C2.68115 16.0696 2.80484 15.447 3.04541 14.8662C3.28594 14.2856 3.63816 13.7579 4.08252 13.3135C4.52704 12.869 5.05544 12.516 5.63623 12.2754C6.21676 12.035 6.83895 11.9112 7.46729 11.9111H8.21045V13.7539C8.21045 13.9634 8.2938 14.1644 8.44189 14.3125C8.59004 14.4606 8.79098 14.5439 9.00049 14.5439C9.20988 14.5439 9.41101 14.4606 9.55908 14.3125C9.70699 14.1644 9.79053 13.9632 9.79053 13.7539V11.9111H10.5327Z" fill="currentColor"/>
</svg>
