<svg width="24" height="24" viewBox="0 0 24 24" fill="none" xmlns="http://www.w3.org/2000/svg">
<g clip-path="url(#clip0_12056_32581)">
<path d="M9.59961 0C10.4422 -2.40478e-05 11.2703 0.215432 12 0.625C12.7294 0.214825 13.5578 -7.17039e-05 14.4004 0.000976562C15.6448 0.00105517 16.8404 0.470843 17.7354 1.31152C18.6302 2.15222 19.1545 3.29773 19.1973 4.50684L19.2002 4.66699H20.2285C21.2026 4.66692 22.1393 5.03345 22.8418 5.68945C23.5441 6.34543 23.9579 7.24042 23.9971 8.18652L24 8.33398V11C24.0001 11.7483 23.7644 12.4792 23.3252 13.0938C22.886 13.7081 22.2642 14.1775 21.543 14.4385L21.3926 14.4893L21.2568 14.5293V19C21.2568 20.2697 20.7601 21.4924 19.8672 22.4189C18.9743 23.3453 17.7523 23.9066 16.4492 23.9893L16.2812 23.9971L16.1143 24H7.88574C6.55073 24 5.26781 23.4955 4.30859 22.5928C3.34936 21.6899 2.78837 20.4594 2.74512 19.1621L2.74316 19V14.5293L2.60742 14.4893C1.90122 14.2661 1.27783 13.8449 0.816406 13.2793C0.355057 12.7137 0.0753497 12.0279 0.0126953 11.3086L0.00292969 11.1475L0 11V8.33398C-7.82571e-05 7.38705 0.377064 6.4769 1.05176 5.79395C1.72651 5.11098 2.64684 4.70797 3.62012 4.66992L3.77148 4.66699H4.7998C4.79973 3.84801 5.02134 3.04332 5.44238 2.33398C5.86363 1.6245 6.47049 1.03464 7.2002 0.625C7.92972 0.215574 8.75726 6.66843e-05 9.59961 0ZM8.57129 12.334L8.47266 12.3379C8.20974 12.3627 7.96673 12.4854 7.79395 12.6797C7.62125 12.8739 7.53223 13.1254 7.54492 13.3818C7.5577 13.6382 7.67121 13.8805 7.8623 14.0576C8.05342 14.2346 8.30733 14.3329 8.57129 14.333H15.4287L15.5273 14.3291C15.7902 14.3043 16.0333 14.1815 16.2061 13.9873C16.3787 13.7931 16.4678 13.5416 16.4551 13.2852C16.4423 13.0287 16.3288 12.7865 16.1377 12.6094C15.9466 12.4323 15.6927 12.3342 15.4287 12.334H8.57129ZM9.59961 2.00098C8.89604 2.00107 8.21975 2.26392 7.70996 2.73535C7.20008 3.20687 6.89554 3.85089 6.86035 4.53418L6.85742 4.66699H12.3428L12.3418 4.58691L12.3359 4.47559L12.3281 4.38379L12.3096 4.25L12.2822 4.10645L12.251 3.98047L12.2129 3.85156L12.167 3.72461L12.1318 3.63867C12.0871 3.53507 12.0354 3.43418 11.9775 3.33691L11.8867 3.19336L11.8252 3.10742L11.7812 3.0498L11.6943 2.94434L11.584 2.82617L11.4678 2.71484L11.3447 2.60938C10.9335 2.27912 10.4316 2.07318 9.90137 2.0166L9.7373 2.00293L9.59961 2.00098ZM14.4004 2.00098C14.2386 2.00098 14.0785 2.01339 13.9229 2.04004L13.7686 2.07129L13.6162 2.11035L13.7393 2.30371L13.8525 2.50098L13.9434 2.67871C14.0277 2.85198 14.1014 3.03092 14.1631 3.21484L14.2314 3.43848L14.292 3.67871C14.3317 3.85528 14.3601 4.03681 14.3779 4.2207L14.3926 4.40234L14.3975 4.49805L14.4004 4.66699H17.1426C17.1426 4.00628 16.8903 3.36909 16.4346 2.87891C15.979 2.38889 15.3527 2.08032 14.6768 2.01367L14.5371 2.00391L14.4004 2.00098Z" fill="currentColor"/>
</g>
<defs>
<clipPath id="clip0_12056_32581">
<rect width="24" height="24" fill="white"/>
</clipPath>
</defs>
</svg>
