<svg width="24" height="24" viewBox="0 0 24 24" fill="none" xmlns="http://www.w3.org/2000/svg">
<path d="M12 2.25024C10.0716 2.25024 8.18657 2.82207 6.58319 3.89342C4.97982 4.96476 3.73013 6.4875 2.99218 8.26908C2.25422 10.0507 2.06114 12.0111 2.43735 13.9024C2.81355 15.7937 3.74215 17.531 5.10571 18.8945C6.46928 20.2581 8.20656 21.1867 10.0979 21.5629C11.9892 21.9391 13.9496 21.746 15.7312 21.0081C17.5127 20.2701 19.0355 19.0204 20.1068 17.4171C21.1782 15.8137 21.75 13.9286 21.75 12.0002C21.747 9.4153 20.7188 6.93709 18.891 5.10925C17.0632 3.28142 14.5849 2.25323 12 2.25024ZM16.6436 10.293L11.1431 15.543C11.0032 15.676 10.8176 15.7502 10.6245 15.7502C10.4315 15.7502 10.2458 15.676 10.106 15.543L7.35645 12.918C7.2128 12.7804 7.12965 12.5914 7.12524 12.3925C7.12084 12.1936 7.19555 12.0012 7.33297 11.8573C7.47038 11.7135 7.65927 11.6301 7.85813 11.6255C8.05699 11.6208 8.24956 11.6953 8.39356 11.8325L10.6245 13.9631L15.6064 9.20752C15.7504 9.07029 15.943 8.99582 16.1419 9.00047C16.3407 9.00513 16.5296 9.08853 16.667 9.23235C16.8045 9.37617 16.8792 9.56865 16.8748 9.76752C16.8704 9.96638 16.7872 10.1554 16.6436 10.293Z" fill="#53C154"/>
</svg>
