<svg width="20" height="20" viewBox="0 0 20 20" fill="none" xmlns="http://www.w3.org/2000/svg">
<path d="M17.6948 6.91332C18.0396 7.20344 18.3431 7.49783 18.6062 7.79671C18.8684 8.09517 19 8.38988 19 8.67982C19 9.00432 18.8809 9.26911 18.6429 9.47381C18.4051 9.67907 18.1134 9.9091 17.7691 10.1654C17.2437 10.5745 16.69 11.0061 16.1072 11.4586C15.5547 11.8876 15.0006 12.3144 14.4449 12.7389C13.92 13.1398 13.4564 13.4901 13.054 13.788C12.6516 14.0865 12.3683 14.2867 12.2045 14.3896C11.6627 14.7309 11.2441 14.855 10.9489 14.7606C10.6531 14.6663 10.4643 14.4831 10.3818 14.2104V11.2404H10.2836C9.03547 11.2404 7.94437 11.3813 7.00869 11.6631C6.07366 11.9449 5.25232 12.3717 4.54671 12.9434C3.84042 13.5155 3.22439 14.2244 2.69911 15.0691C2.17405 15.9139 1.69818 16.8904 1.27068 18C1.22159 17.9665 1.17216 17.8722 1.12251 17.7187C1.08964 17.5823 1.06084 17.3859 1.03682 17.1297C1.01283 16.8739 1 16.5156 1 16.0526C1 14.6196 1.20876 13.2801 1.62771 12.0342C2.04629 10.7881 2.64539 9.70029 3.42476 8.76966C4.20419 7.83958 5.1486 7.10994 6.25701 6.58055C7.36497 6.05125 8.60906 5.79524 9.98774 5.81217C10.0689 5.81217 10.1394 5.81621 10.1966 5.82519C10.2541 5.83417 10.3245 5.83834 10.4061 5.83834L10.3818 3.15016C10.4148 2.67226 10.6041 2.3264 10.9489 2.11275C11.2931 1.89939 11.7279 1.98878 12.2532 2.38142C12.5525 2.62941 12.8522 2.87681 13.1524 3.12363C13.6403 3.52557 14.1287 3.92673 14.6177 4.3271C15.17 4.78062 15.7198 5.23736 16.2672 5.69728C16.8256 6.16639 17.3018 6.57179 17.6964 6.91332H17.6948Z" fill="currentColor"/>
</svg>
