<svg xmlns="http://www.w3.org/2000/svg" width="24" height="24" viewBox="0 0 24 24" fill="none">
  <path d="M18 1C20.2091 1 22 2.79086 22 5C22 7.20914 20.2091 9 18 9C16.8882 9 15.8831 8.54567 15.1582 7.81348L9.84863 10.9121C9.94625 11.2581 10 11.6228 10 12C10 12.3765 9.94685 12.7405 9.84961 13.0859L15.1611 16.1816C15.8858 15.4517 16.8902 15 18 15C20.2091 15 22 16.7909 22 19C22 21.2091 20.2091 23 18 23C15.7909 23 14 21.2091 14 19C14 18.6214 14.0531 18.2553 14.1514 17.9082L8.84082 14.8135C8.11591 15.5454 7.11153 16 6 16C3.79086 16 2 14.2091 2 12C2 9.79086 3.79086 8 6 8C7.11103 8 8.11598 8.45324 8.84082 9.18457L14.1504 6.08691C14.053 5.74124 14 5.37683 14 5C14 2.79086 15.7909 1 18 1ZM18 17C17.3038 17 16.6912 17.356 16.333 17.8955C16.3183 17.9284 16.3027 17.9613 16.2842 17.9932C16.2654 18.0254 16.2443 18.0556 16.2227 18.085C16.0811 18.3593 16 18.67 16 19C16 20.1046 16.8954 21 18 21C19.1046 21 20 20.1046 20 19C20 17.8954 19.1046 17 18 17ZM6 10C4.89543 10 4 10.8954 4 12C4 13.1046 4.89543 14 6 14C6.73268 14 7.37041 13.6043 7.71875 13.0166C7.72084 13.0129 7.72345 13.0095 7.72559 13.0059C7.73143 12.9958 7.738 12.9863 7.74414 12.9766C7.90629 12.6876 8 12.3549 8 12C8 10.8954 7.10457 10 6 10ZM18 3C16.8954 3 16 3.89543 16 5C16 6.10457 16.8954 7 18 7C19.1046 7 20 6.10457 20 5C20 3.89543 19.1046 3 18 3Z" fill="currentColor" />
</svg>