<svg width="14" height="15" viewBox="0 0 14 15" fill="none" xmlns="http://www.w3.org/2000/svg">
<path d="M7.00039 1.46246C5.39915 1.46246 3.86348 2.09856 2.73123 3.23081C1.59898 4.36306 0.962891 5.89872 0.962891 7.49996C0.962891 9.10121 1.59898 10.6369 2.73123 11.7691C3.86348 12.9014 5.39915 13.5375 7.00039 13.5375C8.60163 13.5375 10.1373 12.9014 11.2695 11.7691C12.4018 10.6369 13.0379 9.10121 13.0379 7.49996C13.0379 5.89872 12.4018 4.36306 11.2695 3.23081C10.1373 2.09856 8.60163 1.46246 7.00039 1.46246ZM7.00039 2.33746C8.36957 2.33746 9.68267 2.88137 10.6508 3.84952C11.619 4.81768 12.1629 6.13078 12.1629 7.49996C12.1629 8.86914 11.619 10.1822 10.6508 11.1504C9.68267 12.1186 8.36957 12.6625 7.00039 12.6625C5.63121 12.6625 4.31811 12.1186 3.34995 11.1504C2.3818 10.1822 1.83789 8.86914 1.83789 7.49996C1.83789 6.13078 2.3818 4.81768 3.34995 3.84952C4.31811 2.88137 5.63121 2.33746 7.00039 2.33746Z" fill="currentColor"/>
<path d="M7.4375 7.0625V4C7.4375 3.88397 7.39141 3.77269 7.30936 3.69064C7.22731 3.60859 7.11603 3.5625 7 3.5625C6.88397 3.5625 6.77269 3.60859 6.69064 3.69064C6.60859 3.77269 6.5625 3.88397 6.5625 4V7.15C6.5625 7.5847 6.9153 7.9375 7.35 7.9375H10.5C10.616 7.9375 10.7273 7.89141 10.8094 7.80936C10.8914 7.72731 10.9375 7.61603 10.9375 7.5C10.9375 7.38397 10.8914 7.27269 10.8094 7.19064C10.7273 7.10859 10.616 7.0625 10.5 7.0625H7.4375Z" fill="currentColor"/>
</svg>
