<svg xmlns="http://www.w3.org/2000/svg" width="24" height="24" viewBox="0 0 24 24" fill="none">
  <path d="M11.5478 21C10.6981 21 10.2733 20.6086 10.2733 19.8258V6.93817C10.2733 6.15538 10.6981 5.76398 11.5478 5.76398C12.3975 5.76398 12.8223 6.15538 12.8223 6.93817V19.8258C12.8223 20.6086 12.3975 21 11.5478 21Z" fill="currentColor"/>
  <path d="M11.5148 5.83495L5.19127 11.6607C5.0737 11.7728 4.93307 11.8623 4.77757 11.9238C4.62207 11.9854 4.45483 12.0178 4.2856 12.0191C4.11637 12.0205 3.94854 11.9908 3.79191 11.9317C3.63527 11.8727 3.49297 11.7855 3.3733 11.6752C3.25363 11.565 3.15899 11.4339 3.09491 11.2896C3.03083 11.1453 2.99858 10.9907 3.00005 10.8348C3.00152 10.6789 3.03668 10.5248 3.10347 10.3815C3.17027 10.2383 3.26737 10.1087 3.3891 10.0004L10.5991 3.35799C10.7168 3.24585 10.8576 3.15643 11.0132 3.09497C11.1688 3.03351 11.3362 3.00124 11.5055 3.00003C11.6748 2.99883 11.8427 3.02872 11.9994 3.08797C12.156 3.14721 12.2983 3.23462 12.4178 3.34508L19.6265 9.98806C19.8656 10.2082 19.9999 10.5069 20 10.8183C20.0001 11.1297 19.8658 11.4284 19.6269 11.6487C19.3879 11.8689 19.0637 11.9927 18.7257 11.9927C18.3876 11.9928 18.0634 11.8691 17.8244 11.6489L11.5148 5.83495Z" fill="currentColor"/>
</svg>