<svg width="24" height="24" viewBox="0 0 24 24" fill="none" xmlns="http://www.w3.org/2000/svg">
<path d="M19.2102 3.81818H4.75093C4.20871 3.81818 3.84722 3.45455 3.84722 2.90909C3.84722 2.36364 4.20871 2 4.75093 2H19.2102C19.7524 2 20.1139 2.36364 20.1139 2.90909C20.1139 3.45455 19.7524 3.81818 19.2102 3.81818ZM16.3184 22H7.64278C7.10056 22 6.73908 21.6364 6.73908 21.0909V12.8182H3.84722C3.48574 12.8182 3.12426 12.5455 3.03389 12.1818C2.94352 11.8182 3.03389 11.3636 3.305 11.1818L11.4383 5C11.7998 4.72727 12.1613 4.72727 12.5228 5L20.6561 11.1818C20.9272 11.4545 21.108 11.8182 20.9272 12.1818C20.8369 12.5455 20.4754 12.8182 20.1139 12.8182H17.2221V21.0909C17.2221 21.6364 16.8606 22 16.3184 22ZM8.54649 20.1818H15.505V11.9091C15.505 11.3636 15.8665 11 16.4087 11H17.4028L11.9806 6.90909L6.55834 11H7.64278C8.18501 11 8.54649 11.3636 8.54649 11.9091V20.1818Z" fill="currentColor"/>
</svg>
