<svg width="24" height="24" viewBox="0 0 24 24" fill="none" xmlns="http://www.w3.org/2000/svg">
<mask id="mask0_4061_28173" style="mask-type:luminance" maskUnits="userSpaceOnUse" x="2" y="2" width="20" height="20">
<path d="M22 2H2V22H22V2Z" fill="white"/>
</mask>
<g mask="url(#mask0_4061_28173)">
<g filter="url(#filter0_i_4061_28173)">
<path d="M20.3985 12.1999C20.4804 17.2896 17.2896 20.4772 12.1999 20.3985C7.1103 20.4772 3.92272 17.2896 4.00142 12.1999C3.92272 7.1103 7.1103 3.92272 12.1999 4.00142C17.2896 3.92272 20.4772 7.1103 20.3985 12.1999Z" fill="#19CC10" fill-opacity="0.4"/>
</g>
</g>
<g clip-path="url(#clip0_4061_28173)">
<path d="M12.0573 14.138C12.7476 14.1436 13.1613 14.478 13.1675 15.2432C13.1712 15.7171 12.934 16.2412 12.4716 16.8265C12.4477 16.8569 12.4202 16.8841 12.3897 16.9081C12.1831 17.0699 11.885 17.0407 11.7069 16.8449L11.6843 16.8186L11.63 16.7492C11.1948 16.1856 10.9682 15.6809 10.9646 15.2255C10.9585 14.4605 11.367 14.1327 12.0573 14.138ZM11.5385 7.34628L11.6158 7.30518L11.693 7.26658C11.7893 7.22031 11.8948 7.19655 12.0016 7.19711C12.1084 7.19767 12.2136 7.22254 12.3094 7.26982C13.2146 7.71339 13.8245 8.46999 14.1297 9.51946C14.2554 9.95182 14.3233 10.4122 14.3336 10.9001L14.3351 11.0338L14.3338 11.1577L14.351 11.1785C14.7132 11.6277 14.942 12.4719 15.0687 13.7326L15.0795 13.8418L15.0971 14.0407C15.1163 14.2649 14.8915 14.4219 14.6879 14.3379L14.6615 14.3257L13.3328 13.631L13.2842 13.6398C12.9791 13.6911 12.6711 13.7224 12.362 13.7335L12.208 13.7372L12.0542 13.7378C11.5942 13.7338 11.1356 13.6856 10.6848 13.594L10.64 13.5843L9.27383 14.2829C9.08144 14.381 8.85502 14.2482 8.83439 14.0432L8.83277 14.0171L8.83366 13.9915C8.9409 12.4005 9.19958 11.4061 9.67894 10.988L9.71032 10.9617L9.72918 10.9469L9.72874 10.8708C9.72991 10.4648 9.77087 10.0794 9.85219 9.71494L9.88062 9.59429L9.90905 9.48572C10.1783 8.51109 10.723 7.79294 11.5386 7.34643L11.5385 7.34628ZM11.06 10.6741C11.0602 11.1907 11.4807 11.6095 11.9996 11.6095C12.5184 11.6095 12.939 11.1907 12.9391 10.6741C12.939 10.1575 12.5184 9.73866 11.9996 9.73866C11.4807 9.73866 11.0602 10.1575 11.06 10.6741Z" fill="#19CC10"/>
</g>
<defs>
<filter id="filter0_i_4061_28173" x="4" y="4" width="16.3999" height="16.3999" filterUnits="userSpaceOnUse" color-interpolation-filters="sRGB">
<feFlood flood-opacity="0" result="BackgroundImageFix"/>
<feBlend mode="normal" in="SourceGraphic" in2="BackgroundImageFix" result="shape"/>
<feColorMatrix in="SourceAlpha" type="matrix" values="0 0 0 0 0 0 0 0 0 0 0 0 0 0 0 0 0 0 127 0" result="hardAlpha"/>
<feOffset/>
<feGaussianBlur stdDeviation="0.5"/>
<feComposite in2="hardAlpha" operator="arithmetic" k2="-1" k3="1"/>
<feColorMatrix type="matrix" values="0 0 0 0 1 0 0 0 0 1 0 0 0 0 1 0 0 0 0.3 0"/>
<feBlend mode="normal" in2="shape" result="effect1_innerShadow_4061_28173"/>
</filter>
<clipPath id="clip0_4061_28173">
<rect width="10" height="10" fill="white" transform="translate(4.92871 12) rotate(-45)"/>
</clipPath>
</defs>
</svg>
