<svg width="15" height="15" viewBox="0 0 15 15" fill="none" xmlns="http://www.w3.org/2000/svg">
<g clip-path="url(#clip0_10030_77945)">
<path d="M7.12886 9.20933C7.81917 9.21493 8.23283 9.54933 8.23902 10.3145C8.2427 10.7884 8.00553 11.3125 7.54311 11.8978C7.51924 11.9282 7.49169 11.9554 7.4612 11.9794C7.25467 12.1412 6.9565 12.112 6.7784 11.9162L6.75586 11.8899L6.7015 11.8205C6.26634 11.2568 6.03977 10.7521 6.03609 10.2968C6.03005 9.5318 6.43855 9.20403 7.12886 9.20933ZM6.61002 2.41757L6.68736 2.37647L6.76455 2.33787C6.8608 2.2916 6.96632 2.26784 7.07311 2.2684C7.1799 2.26896 7.28516 2.29383 7.38091 2.34111C8.28616 2.78468 8.89604 3.54128 9.20127 4.59074C9.32693 5.02311 9.39484 5.48347 9.40516 5.97137L9.40663 6.10513L9.4053 6.22902L9.42254 6.24979C9.78478 6.69895 10.0136 7.54321 10.1403 8.80392L10.151 8.91308L10.1687 9.11196C10.1878 9.33617 9.96303 9.4932 9.75944 9.40924L9.73308 9.39701L8.4043 8.70228L8.35569 8.71111C8.05066 8.76235 7.74261 8.79364 7.43351 8.80481L7.27956 8.80849L7.12577 8.80908C6.66574 8.80506 6.20716 8.75692 5.75634 8.6653L5.71155 8.65558L4.34536 9.35414C4.15297 9.45225 3.92655 9.31952 3.90593 9.11446L3.90431 9.08839L3.90519 9.06275C4.01243 7.47176 4.27112 6.47739 4.75048 6.05932L4.78185 6.03295L4.80071 6.01822L4.80027 5.94205C4.80145 5.53606 4.8424 5.15068 4.92372 4.78623L4.95215 4.66558L4.98058 4.55701C5.24987 3.58238 5.79449 2.86423 6.61017 2.41772L6.61002 2.41757ZM6.13155 5.74539C6.13169 6.26202 6.55227 6.68083 7.07111 6.68083C7.58995 6.68083 8.01053 6.26202 8.01068 5.74539C8.01053 5.22876 7.58995 4.80995 7.07111 4.80995C6.55227 4.80995 6.13169 5.22876 6.13155 5.74539Z" fill="currentColor"/>
</g>
<defs>
<clipPath id="clip0_10030_77945">
<rect width="10" height="10" fill="white" transform="translate(0 7.07129) rotate(-45)"/>
</clipPath>
</defs>
</svg>
