<svg width="35" height="34" viewBox="0 0 35 34" fill="none" xmlns="http://www.w3.org/2000/svg">
<path d="M20.3154 14.0781H8.30918C7.77793 14.0781 7.2998 14.5562 7.2998 15.0875C7.2998 15.6719 7.7248 16.0969 8.30918 16.0969H20.2623C20.7936 16.0969 21.2717 15.6187 21.2717 15.0875C21.2717 14.5562 20.8467 14.0781 20.3154 14.0781ZM17.8186 25.1812C17.8186 24.5969 17.8717 24.0656 17.9779 23.5344H8.30918C7.77793 23.5344 7.2998 23.9594 7.2998 24.5437C7.2998 25.075 7.7248 25.5531 8.30918 25.5531H17.8186C17.8717 25.4469 17.8186 25.3406 17.8186 25.1812ZM20.8467 19.0187C20.6873 18.9125 20.4748 18.8594 20.2623 18.8594H8.30918C7.77793 18.8594 7.2998 19.2844 7.2998 19.8688C7.2998 20.4 7.7248 20.8781 8.30918 20.8781H19.1467C19.6248 20.1344 20.2092 19.55 20.8467 19.0187Z" fill="currentColor"/>
<path d="M18.9344 29.1655H5.12187C4.80312 29.1655 4.59062 28.8999 4.59062 28.6343V6.64053C4.59062 5.68428 5.3875 4.62178 6.34375 4.62178H6.71562C7.725 4.62178 8.575 5.25928 8.575 6.64053C8.575 7.59678 7.725 8.39365 6.71562 8.39365C6.13125 8.39365 5.70625 8.87178 5.70625 9.40303C5.70625 9.9874 6.18437 10.4124 6.71562 10.4124H25.2031V17.3187C25.4156 17.3187 25.575 17.2655 25.7875 17.2655C26.1594 17.2655 26.5312 17.3187 26.9031 17.3718V10.3062C28.55 9.88115 29.7719 8.39365 29.7719 6.64053C29.7719 4.56865 28.0187 2.86865 25.8937 2.86865H6.76875H6.71562C4.64375 2.86865 2.89062 4.56865 2.89062 6.64053V28.5812C2.89062 29.8562 3.9 30.8655 5.175 30.8655H20.3688C19.7313 30.3343 19.3062 29.7499 18.9344 29.1655ZM9.79688 4.51553H25.8406C26.85 4.51553 28.0719 5.68428 28.0719 6.64053C28.0719 7.59678 26.9031 8.76553 25.8406 8.76553H9.425C9.69062 8.23428 10.2219 7.27803 10.2219 6.64053C10.2219 6.00303 10.0625 5.0999 9.79688 4.51553Z" fill="currentColor"/>
<path d="M25.7348 31.875C22.0691 31.875 19.041 28.9 19.041 25.1813C19.041 21.4625 22.016 18.4875 25.7348 18.4875C29.4004 18.4875 32.4285 21.4625 32.4285 25.1813C32.4285 28.9 29.4004 31.875 25.7348 31.875ZM25.7348 19.975C22.866 19.975 20.4754 22.3125 20.4754 25.2344C20.4754 28.1563 22.8129 30.4938 25.7348 30.4938C28.6035 30.4938 30.9941 28.1563 30.9941 25.2344C30.9941 22.3125 28.6035 19.975 25.7348 19.975Z" fill="#FEB805"/>
<path d="M25.2562 21.728C25.5219 21.4624 25.8937 21.4624 26.1594 21.728L28.6031 24.1718C28.8688 24.4374 28.8688 24.8093 28.6031 25.0218C28.3906 25.2343 27.9656 25.2343 27.7531 25.0218L26.3187 23.5874V28.2624C26.3187 28.5812 26.0531 28.8468 25.6813 28.8468C25.3625 28.8468 25.0969 28.5812 25.0969 28.2624V23.6405L23.6625 25.0218C23.3969 25.2343 23.025 25.2343 22.8125 25.0218C22.5469 24.7562 22.5469 24.3843 22.8125 24.1718L25.2562 21.728Z" fill="#FEB805"/>
</svg>
