<svg width="34" height="34" viewBox="0 0 34 34" fill="none" xmlns="http://www.w3.org/2000/svg">
<path opacity="0.4" d="M17 2.83331C13.2883 2.83331 10.2708 5.85081 10.2708 9.56248C10.2708 13.2033 13.1183 16.15 16.83 16.2775C16.9433 16.2633 17.0567 16.2633 17.1417 16.2775C17.17 16.2775 17.1842 16.2775 17.2125 16.2775C17.2267 16.2775 17.2267 16.2775 17.2408 16.2775C20.8675 16.15 23.715 13.2033 23.7292 9.56248C23.7292 5.85081 20.7117 2.83331 17 2.83331Z" fill="white"/>
<path d="M24.1967 20.0458C20.2442 17.4108 13.7983 17.4108 9.81751 20.0458C8.01834 21.25 7.02667 22.8792 7.02667 24.6217C7.02667 26.3642 8.01834 27.9792 9.80334 29.1692C11.7867 30.5008 14.3933 31.1667 17 31.1667C19.6067 31.1667 22.2133 30.5008 24.1967 29.1692C25.9817 27.965 26.9733 26.35 26.9733 24.5933C26.9592 22.8508 25.9817 21.2358 24.1967 20.0458Z" fill="white"/>
</svg>
