<svg width="24" height="24" viewBox="0 0 24 24" fill="none" xmlns="http://www.w3.org/2000/svg">
<path d="M12 0C13.1783 0 14.318 0.170021 15.3954 0.487263C15.73 0.585789 15.9213 0.9372 15.8228 1.27181C15.7242 1.60617 15.3733 1.7976 15.0388 1.6992C14.0761 1.41568 13.0563 1.26316 12 1.26316C6.07023 1.26316 1.26316 6.07023 1.26316 12C1.26316 17.9298 6.07023 22.7368 12 22.7368C17.9298 22.7368 22.7368 17.9298 22.7368 12C22.7368 10.5894 22.4654 9.24354 21.9721 8.01133C21.8425 7.68752 21.9998 7.32 22.3236 7.1904C22.6473 7.06086 23.0149 7.21825 23.1445 7.54194C23.6967 8.92099 24 10.4259 24 12C24 18.6274 18.6274 24 12 24C5.37259 24 0 18.6274 0 12C0 5.37259 5.37259 0 12 0ZM9.60013 7.62954C10.0126 7.62954 10.3956 7.65486 10.7492 7.70539C11.1028 7.74752 11.4147 7.84434 11.6842 7.99592C11.962 8.14743 12.1766 8.37891 12.3281 8.6904C12.4881 8.99349 12.5687 9.40623 12.5687 9.92823C12.5687 10.4418 12.5095 10.8546 12.3916 11.1661C12.2822 11.4693 12.1139 11.7181 11.8865 11.9118C11.6591 12.0971 11.3641 12.2608 11.002 12.404L8.57691 13.4019C8.36634 13.4862 8.2104 13.5791 8.10935 13.6801C8.00842 13.7811 7.94526 13.9158 7.92 14.0841C7.89474 14.2525 7.88242 14.4715 7.88242 14.7409V15.1955H12.5687V16.4211H6.49282V15.3472C6.49282 14.859 6.5052 14.4507 6.5304 14.1224C6.56413 13.7855 6.62716 13.5028 6.71975 13.2755C6.8124 13.0482 6.95994 12.8545 7.16198 12.6945C7.36408 12.5345 7.64223 12.3831 7.99592 12.2399L10.1176 11.3561C10.4122 11.2383 10.6313 11.1284 10.7745 11.0274C10.9176 10.9179 11.0144 10.7872 11.0649 10.6357C11.1155 10.4841 11.1408 10.2865 11.1408 10.0424C11.1408 9.68027 11.0823 9.41451 10.9645 9.24606C10.855 9.07775 10.6527 8.96848 10.3581 8.91796C10.0719 8.86743 9.66752 8.8421 9.14558 8.8421C8.95187 8.8421 8.71149 8.85057 8.42514 8.86737C8.13032 8.88538 7.8357 8.90635 7.54131 8.93027C7.23815 8.95554 6.94712 8.98093 6.66922 9.00619V7.88242C6.92185 7.83189 7.21686 7.78964 7.55368 7.75598C7.89843 7.72147 8.24364 7.69185 8.58922 7.66712C8.9513 7.64185 9.28857 7.62954 9.60013 7.62954ZM16.9811 16.4211H15.5539V9.32198L13.7979 10.1176V8.87975L15.9831 7.73065H16.9811V16.4211ZM19.352 0.680905C19.7008 0.680905 19.9835 0.963663 19.9835 1.31248V3.20722H21.8783C22.2271 3.20722 22.5099 3.48998 22.5099 3.8388C22.5099 4.18762 22.2271 4.47038 21.8783 4.47038H19.9835V6.36512C19.9835 6.71394 19.7008 6.99669 19.352 6.99669C19.0031 6.99669 18.7204 6.71394 18.7204 6.36512V4.47038H16.8256C16.4768 4.47038 16.1941 4.18762 16.1941 3.8388C16.1941 3.48998 16.4768 3.20722 16.8256 3.20722H18.7204V1.31248C18.7204 0.963663 19.0031 0.680905 19.352 0.680905Z" fill="currentColor" />
</svg>
