<svg width="24" height="24" viewBox="0 0 24 24" fill="none" xmlns="http://www.w3.org/2000/svg">
<g clip-path="url(#clip0_12546_39869)">
<path d="M20.1055 0.5C21.2099 0.500137 22.1055 1.39551 22.1055 2.5V14.8203C22.1053 15.9247 21.2098 16.8202 20.1055 16.8203H10.627V14.4922C13.5308 14.3403 16.6594 13.635 19.1895 12.6045L19.084 13.5781C19.0239 14.1271 19.4208 14.6132 19.9707 14.6641L20.0557 14.6719C20.6054 14.7225 21.1001 14.3193 21.1602 13.7705L21.5371 10.3262C21.5969 9.77748 21.199 9.29036 20.6494 9.23926L20.5645 9.23145C20.5447 9.22962 20.5245 9.22917 20.5049 9.22852C20.3824 9.17172 20.2455 9.13972 20.1016 9.13965H14.7178C14.1877 9.13965 13.758 9.5696 13.7578 10.0996C13.758 10.6296 14.1877 11.0596 14.7178 11.0596H17.6348C15.4949 11.8286 12.975 12.3572 10.627 12.4912V5.36719C12.8611 5.48242 15.1059 5.95714 16.6221 6.52539C17.139 6.71887 17.7162 6.45623 17.9102 5.93945C18.1032 5.4227 17.8407 4.84622 17.3242 4.65234C15.6133 4.01109 13.1232 3.48132 10.627 3.36426V0.5H20.1055Z" fill="currentColor" />
<path d="M7.33813 3.48242C8.38943 3.34226 9.50906 3.31179 10.6272 3.36426V5.36719C9.59212 5.31377 8.55906 5.33721 7.60181 5.46484C6.08675 5.667 4.90052 6.11146 4.17017 6.78125C3.50207 7.39424 3.10716 8.29229 3.34985 9.74414C3.4918 10.5927 4.03082 11.2441 5.01294 11.7236C6.02338 12.2168 7.43473 12.484 9.09009 12.5205C9.58986 12.5315 10.1043 12.5201 10.6272 12.4902V14.4922C10.0908 14.5202 9.56203 14.5318 9.04614 14.5205C7.24117 14.4808 5.50779 14.1901 4.13599 13.5205C2.73636 12.8372 1.65247 11.7197 1.3772 10.0732C1.0372 8.03871 1.59131 6.43234 2.8186 5.30664C3.984 4.23799 5.64308 3.7085 7.33813 3.48242Z" fill="currentColor" />
<path d="M1.85192 19.5368C2.24352 19.5368 2.55592 19.6292 2.78912 19.8228C3.00912 20.0032 3.14552 20.2628 3.20272 20.606H2.84192C2.79352 20.3684 2.68792 20.188 2.52512 20.0604C2.35352 19.924 2.12912 19.858 1.85192 19.858C1.50872 19.858 1.24032 19.9768 1.03792 20.2188C0.835515 20.4564 0.738715 20.7776 0.738715 21.1824C0.738715 21.5784 0.835515 21.8908 1.02912 22.1196C1.23592 22.3616 1.54392 22.4848 1.95312 22.4848C2.12472 22.4848 2.28752 22.4584 2.44592 22.4144C2.59992 22.3704 2.73192 22.3088 2.84192 22.2384V21.4376H1.85632V21.1252H3.19832V22.41C3.04872 22.5332 2.86392 22.6256 2.64832 22.696C2.41952 22.7664 2.17752 22.8016 1.91792 22.8016C1.42072 22.8016 1.03352 22.6432 0.760715 22.3264C0.505515 22.0316 0.377915 21.6488 0.377915 21.1824C0.377915 20.716 0.501115 20.3332 0.756315 20.0296C1.02472 19.6996 1.38992 19.5368 1.85192 19.5368ZM4.72092 19.5984H5.13892L6.37532 22.74H5.98372L5.64932 21.86H4.20612L3.87172 22.74H3.48452L4.72092 19.5984ZM4.32052 21.5564H5.53492L4.94092 19.9856H4.92332L4.32052 21.5564ZM6.69312 19.5984H7.14192L8.31232 22.278H8.32552L9.49152 19.5984H9.94032V22.74H9.57952V20.2408H9.56632L8.47952 22.74H8.15392L7.06712 20.2408H7.05392V22.74H6.69312V19.5984ZM11.9284 19.5368C12.2936 19.5368 12.5972 19.6292 12.8348 19.8228C13.0636 20.0076 13.2044 20.2628 13.2528 20.5796H12.7864C12.7336 20.3684 12.6324 20.21 12.4828 20.1088C12.3332 20.0076 12.1484 19.9592 11.9196 19.9592C11.5808 19.9592 11.3256 20.0736 11.154 20.3068C10.9912 20.518 10.912 20.8084 10.912 21.1736C10.912 21.552 10.9912 21.8424 11.1496 22.0492C11.3168 22.2692 11.5764 22.3792 11.9284 22.3792C12.1572 22.3792 12.3508 22.322 12.5004 22.2076C12.6588 22.0844 12.7688 21.8996 12.8304 21.6532H13.2968C13.2264 22.0184 13.0636 22.3044 12.804 22.5112C12.562 22.7048 12.2716 22.8016 11.9328 22.8016C11.418 22.8016 11.0308 22.6344 10.7712 22.3088C10.5424 22.0272 10.4324 21.6488 10.4324 21.1736C10.4324 20.7072 10.5468 20.3288 10.7844 20.034C11.0484 19.6996 11.4268 19.5368 11.9284 19.5368ZM14.6848 19.5984H15.2304L16.4404 22.74H15.9256L15.6308 21.9304H14.28L13.9852 22.74H13.4748L14.6848 19.5984ZM14.4252 21.5344H15.4856L14.9664 20.1132H14.9488L14.4252 21.5344ZM16.7476 19.5984H18.138C18.4548 19.5984 18.71 19.6688 18.8948 19.814C19.0884 19.9724 19.1852 20.1968 19.1852 20.496C19.1852 20.6632 19.1412 20.8084 19.0532 20.936C18.952 21.0768 18.8156 21.1692 18.644 21.2132V21.222C18.9256 21.2836 19.0796 21.4684 19.1148 21.7764L19.1676 22.278C19.1852 22.4716 19.2468 22.6256 19.3524 22.74H18.8332C18.7584 22.6432 18.7144 22.5024 18.6968 22.3264L18.6572 21.9348C18.6396 21.7588 18.5824 21.6356 18.49 21.5564C18.3932 21.4772 18.2568 21.442 18.0764 21.442H17.2272V22.74H16.7476V19.5984ZM17.2272 20.0076V21.0328H18.0764C18.2876 21.0328 18.446 20.9844 18.5516 20.8964C18.6528 20.8084 18.7056 20.6808 18.7056 20.5136C18.7056 20.3376 18.6528 20.21 18.556 20.1308C18.4504 20.0472 18.292 20.0076 18.072 20.0076H17.2272ZM19.7941 19.5984H22.0513V20.0076H20.2737V20.9228H21.9457V21.332H20.2737V22.3308H22.1261V22.74H19.7941V19.5984Z" fill="currentColor" />
</g>
<defs>
<clipPath id="clip0_12546_39869">
<rect width="24" height="24" fill="white"/>
</clipPath>
</defs>
</svg>
