<svg width="390" height="50" viewBox="0 0 390 50" fill="none" xmlns="http://www.w3.org/2000/svg">
<g clip-path="url(#clip0_11053_42145)">
<g opacity="0.4">
<path opacity="0.2" d="M167.091 54.0658L166.379 53.2396L109.422 -12.8561L109.273 -13.0299H-6.86121L-7.01062 -12.8541L-60.5682 49.9437C-61.9518 51.5666 -60.7985 54.0656 -58.6659 54.0658H167.091Z" stroke="url(#paint0_linear_11053_42145)"/>
<path opacity="0.2" d="M-64.0907 54.0658L-63.3788 53.2396L-6.42175 -12.8561L-6.27234 -13.0299H109.861L110.011 -12.8541L163.568 49.9437C164.952 51.5666 163.799 54.0656 161.666 54.0658H-64.0907Z" stroke="url(#paint1_linear_11053_42145)"/>
<path opacity="0.2" d="M-60.1873 50.268C-61.2946 51.5663 -60.372 53.5658 -58.6656 53.5658H166L109.044 -12.5295H-6.63066L-60.1873 50.268Z" fill="url(#paint2_linear_11053_42145)"/>
<path opacity="0.2" d="M163.188 50.268C164.295 51.5663 163.372 53.5658 161.666 53.5658H-62.9998L-6.04343 -12.5295H109.631L163.188 50.268Z" fill="url(#paint3_linear_11053_42145)"/>
<path opacity="0.3" d="M-60.1873 50.268C-61.2946 51.5663 -60.372 53.5658 -58.6656 53.5658H166L109.044 -12.5295H-6.63066L-60.1873 50.268Z" fill="url(#paint4_linear_11053_42145)"/>
<path opacity="0.3" d="M163.188 50.268C164.295 51.5663 163.372 53.5658 161.666 53.5658H-62.9998L-6.04343 -12.5295H109.631L163.188 50.268Z" fill="url(#paint5_linear_11053_42145)"/>
<g opacity="0.4">
<path opacity="0.2" d="M196.091 54.0668L195.379 53.2406L138.422 -12.8551L138.272 -13.0289H22.1387L21.9893 -12.8531L-31.5684 49.9447C-32.9519 51.5675 -31.7987 54.0666 -29.666 54.0668H196.091Z" stroke="url(#paint6_linear_11053_42145)"/>
<path opacity="0.2" d="M-35.0908 54.0668L-34.3789 53.2406L22.5781 -12.8551L22.7275 -13.0289H138.861L139.011 -12.8531L192.568 49.9447C193.952 51.5675 192.799 54.0666 190.666 54.0668H-35.0908Z" stroke="url(#paint7_linear_11053_42145)"/>
<path opacity="0.2" d="M-31.1875 50.269C-32.2947 51.5673 -31.3721 53.5668 -29.6657 53.5668H195L138.044 -12.5285H22.3692L-31.1875 50.269Z" fill="url(#paint8_linear_11053_42145)"/>
<path opacity="0.2" d="M192.187 50.269C193.295 51.5673 192.372 53.5668 190.666 53.5668H-34L22.9565 -12.5285H138.631L192.187 50.269Z" fill="url(#paint9_linear_11053_42145)"/>
<path opacity="0.3" d="M-31.1875 50.269C-32.2947 51.5673 -31.3721 53.5668 -29.6657 53.5668H195L138.044 -12.5285H22.3692L-31.1875 50.269Z" fill="url(#paint10_linear_11053_42145)"/>
<path opacity="0.3" d="M192.187 50.269C193.295 51.5673 192.372 53.5668 190.666 53.5668H-34L22.9565 -12.5285H138.631L192.187 50.269Z" fill="url(#paint11_linear_11053_42145)"/>
</g>
</g>
<g opacity="0.4">
<path opacity="0.2" d="M136.091 54.048L135.379 53.2218L78.422 -12.8739L78.2726 -13.0477H-37.8612L-38.0106 -12.8719L-91.5682 49.9259C-92.9518 51.5488 -91.7985 54.0478 -89.6659 54.048H136.091Z" stroke="url(#paint12_linear_11053_42145)"/>
<path opacity="0.2" d="M-95.0908 54.048L-94.3789 53.2218L-37.4219 -12.8739L-37.2725 -13.0477H78.8613L79.0107 -12.8719L132.568 49.9259C133.952 51.5488 132.799 54.0478 130.666 54.048H-95.0908Z" stroke="url(#paint13_linear_11053_42145)"/>
<path opacity="0.2" d="M-91.1873 50.2502C-92.2946 51.5485 -91.372 53.548 -89.6656 53.548H135L78.0437 -12.5473H-37.6307L-91.1873 50.2502Z" fill="url(#paint14_linear_11053_42145)"/>
<path opacity="0.2" d="M132.187 50.2502C133.295 51.5485 132.372 53.548 130.666 53.548H-94L-37.0435 -12.5473H78.6308L132.187 50.2502Z" fill="url(#paint15_linear_11053_42145)"/>
<path opacity="0.3" d="M-91.1873 50.2502C-92.2946 51.5485 -91.372 53.548 -89.6656 53.548H135L78.0437 -12.5473H-37.6307L-91.1873 50.2502Z" fill="url(#paint16_linear_11053_42145)"/>
<path opacity="0.3" d="M132.187 50.2502C133.295 51.5485 132.372 53.548 130.666 53.548H-94L-37.0435 -12.5473H78.6308L132.187 50.2502Z" fill="url(#paint17_linear_11053_42145)"/>
</g>
<path opacity="0.4" d="M-44.4599 50.1649C-45.5375 51.469 -44.6098 53.4387 -42.9181 53.4387H105L52.9129 -12.4394H7.2634L-44.4599 50.1649Z" fill="url(#paint18_linear_11053_42145)" fill-opacity="0.6"/>
<path opacity="0.4" d="M102.295 50.1649C103.373 51.469 102.445 53.4387 100.753 53.4387H-47.1649L4.92235 -12.4394H50.5718L102.295 50.1649Z" fill="url(#paint19_linear_11053_42145)" fill-opacity="0.6"/>
<path opacity="0.4" d="M-44.4599 50.1649C-45.5375 51.469 -44.6098 53.4387 -42.9181 53.4387H105L52.9129 -12.4394H7.2634L-44.4599 50.1649Z" fill="url(#paint20_linear_11053_42145)" fill-opacity="0.6"/>
<path opacity="0.4" d="M102.295 50.1649C103.373 51.469 102.445 53.4387 100.753 53.4387H-47.1649L4.92235 -12.4394H50.5718L102.295 50.1649Z" fill="url(#paint21_linear_11053_42145)" fill-opacity="0.6"/>
<path opacity="0.4" d="M-81.4599 50.1652C-82.5375 51.4694 -81.6098 53.4391 -79.9181 53.4391H68.0001L15.9129 -12.439H-29.7366L-81.4599 50.1652Z" fill="url(#paint22_linear_11053_42145)" fill-opacity="0.7"/>
<path opacity="0.4" d="M65.2951 50.1652C66.3727 51.4694 65.445 53.4391 63.7533 53.4391H-84.1649L-32.0777 -12.439H13.5718L65.2951 50.1652Z" fill="url(#paint23_linear_11053_42145)" fill-opacity="0.7"/>
<path opacity="0.4" d="M-81.4599 50.1652C-82.5375 51.4694 -81.6098 53.4391 -79.9181 53.4391H68.0001L15.9129 -12.439H-29.7366L-81.4599 50.1652Z" fill="url(#paint24_linear_11053_42145)" fill-opacity="0.7"/>
<path opacity="0.4" d="M65.2951 50.1652C66.3727 51.4694 65.445 53.4391 63.7533 53.4391H-84.1649L-32.0777 -12.439H13.5718L65.2951 50.1652Z" fill="url(#paint25_linear_11053_42145)" fill-opacity="0.7"/>
<path opacity="0.2" d="M24.2951 50.1802C25.3727 51.4844 24.445 53.4541 22.7533 53.4541H-125.165L-73.0777 -12.424H-27.4282L24.2951 50.1802Z" fill="url(#paint26_linear_11053_42145)"/>
</g>
<defs>
<linearGradient id="paint0_linear_11053_42145" x1="-64.7614" y1="51.5829" x2="11.0639" y2="7.60287" gradientUnits="userSpaceOnUse">
<stop stop-color="white"/>
<stop offset="1" stop-color="white" stop-opacity="0"/>
</linearGradient>
<linearGradient id="paint1_linear_11053_42145" x1="167.762" y1="51.5829" x2="91.9364" y2="7.60287" gradientUnits="userSpaceOnUse">
<stop stop-color="white"/>
<stop offset="1" stop-color="white" stop-opacity="0"/>
</linearGradient>
<linearGradient id="paint2_linear_11053_42145" x1="39.7565" y1="13.9086" x2="-42.9397" y2="46.32" gradientUnits="userSpaceOnUse">
<stop offset="0.382543" stop-color="white" stop-opacity="0"/>
<stop offset="1" stop-color="white" stop-opacity="0.3"/>
</linearGradient>
<linearGradient id="paint3_linear_11053_42145" x1="63.2437" y1="13.9086" x2="145.94" y2="46.32" gradientUnits="userSpaceOnUse">
<stop offset="0.382543" stop-color="white" stop-opacity="0"/>
<stop offset="1" stop-color="white" stop-opacity="0.3"/>
</linearGradient>
<linearGradient id="paint4_linear_11053_42145" x1="39.7565" y1="13.9086" x2="-42.9397" y2="46.32" gradientUnits="userSpaceOnUse">
<stop offset="0.382543" stop-color="white" stop-opacity="0"/>
<stop offset="1" stop-color="white" stop-opacity="0.3"/>
</linearGradient>
<linearGradient id="paint5_linear_11053_42145" x1="63.2437" y1="13.9086" x2="145.94" y2="46.32" gradientUnits="userSpaceOnUse">
<stop offset="0.382543" stop-color="white" stop-opacity="0"/>
<stop offset="1" stop-color="white" stop-opacity="0.3"/>
</linearGradient>
<linearGradient id="paint6_linear_11053_42145" x1="-35.7615" y1="51.5839" x2="40.0638" y2="7.60384" gradientUnits="userSpaceOnUse">
<stop stop-color="white"/>
<stop offset="1" stop-color="white" stop-opacity="0"/>
</linearGradient>
<linearGradient id="paint7_linear_11053_42145" x1="196.762" y1="51.5839" x2="120.936" y2="7.60384" gradientUnits="userSpaceOnUse">
<stop stop-color="white"/>
<stop offset="1" stop-color="white" stop-opacity="0"/>
</linearGradient>
<linearGradient id="paint8_linear_11053_42145" x1="68.7564" y1="13.9096" x2="-13.9399" y2="46.321" gradientUnits="userSpaceOnUse">
<stop offset="0.382543" stop-color="white" stop-opacity="0"/>
<stop offset="1" stop-color="white" stop-opacity="0.3"/>
</linearGradient>
<linearGradient id="paint9_linear_11053_42145" x1="92.2436" y1="13.9096" x2="174.94" y2="46.321" gradientUnits="userSpaceOnUse">
<stop offset="0.382543" stop-color="white" stop-opacity="0"/>
<stop offset="1" stop-color="white" stop-opacity="0.3"/>
</linearGradient>
<linearGradient id="paint10_linear_11053_42145" x1="68.7564" y1="13.9096" x2="-13.9399" y2="46.321" gradientUnits="userSpaceOnUse">
<stop offset="0.382543" stop-color="white" stop-opacity="0"/>
<stop offset="1" stop-color="white" stop-opacity="0.3"/>
</linearGradient>
<linearGradient id="paint11_linear_11053_42145" x1="92.2436" y1="13.9096" x2="174.94" y2="46.321" gradientUnits="userSpaceOnUse">
<stop offset="0.382543" stop-color="white" stop-opacity="0"/>
<stop offset="1" stop-color="white" stop-opacity="0.3"/>
</linearGradient>
<linearGradient id="paint12_linear_11053_42145" x1="-95.7614" y1="51.5651" x2="-19.9361" y2="7.58504" gradientUnits="userSpaceOnUse">
<stop stop-color="white"/>
<stop offset="1" stop-color="white" stop-opacity="0"/>
</linearGradient>
<linearGradient id="paint13_linear_11053_42145" x1="136.762" y1="51.5651" x2="60.9362" y2="7.58504" gradientUnits="userSpaceOnUse">
<stop stop-color="white"/>
<stop offset="1" stop-color="white" stop-opacity="0"/>
</linearGradient>
<linearGradient id="paint14_linear_11053_42145" x1="8.75652" y1="13.8908" x2="-73.9397" y2="46.3022" gradientUnits="userSpaceOnUse">
<stop offset="0.382543" stop-color="white" stop-opacity="0"/>
<stop offset="1" stop-color="white" stop-opacity="0.3"/>
</linearGradient>
<linearGradient id="paint15_linear_11053_42145" x1="32.2436" y1="13.8908" x2="114.94" y2="46.3022" gradientUnits="userSpaceOnUse">
<stop offset="0.382543" stop-color="white" stop-opacity="0"/>
<stop offset="1" stop-color="white" stop-opacity="0.3"/>
</linearGradient>
<linearGradient id="paint16_linear_11053_42145" x1="8.75652" y1="13.8908" x2="-73.9397" y2="46.3022" gradientUnits="userSpaceOnUse">
<stop offset="0.382543" stop-color="white" stop-opacity="0"/>
<stop offset="1" stop-color="white" stop-opacity="0.3"/>
</linearGradient>
<linearGradient id="paint17_linear_11053_42145" x1="32.2436" y1="13.8908" x2="114.94" y2="46.3022" gradientUnits="userSpaceOnUse">
<stop offset="0.382543" stop-color="white" stop-opacity="0"/>
<stop offset="1" stop-color="white" stop-opacity="0.3"/>
</linearGradient>
<linearGradient id="paint18_linear_11053_42145" x1="-47.1648" y1="65.9556" x2="33.1448" y2="24.7946" gradientUnits="userSpaceOnUse">
<stop stop-color="white" stop-opacity="0.2"/>
<stop offset="1" stop-color="white" stop-opacity="0"/>
</linearGradient>
<linearGradient id="paint19_linear_11053_42145" x1="105" y1="65.9556" x2="24.6904" y2="24.7946" gradientUnits="userSpaceOnUse">
<stop stop-color="white" stop-opacity="0.2"/>
<stop offset="1" stop-color="white" stop-opacity="0"/>
</linearGradient>
<linearGradient id="paint20_linear_11053_42145" x1="-47.1648" y1="65.9556" x2="33.1448" y2="24.7946" gradientUnits="userSpaceOnUse">
<stop stop-color="white" stop-opacity="0.2"/>
<stop offset="1" stop-color="white" stop-opacity="0"/>
</linearGradient>
<linearGradient id="paint21_linear_11053_42145" x1="105" y1="65.9556" x2="24.6904" y2="24.7946" gradientUnits="userSpaceOnUse">
<stop stop-color="white" stop-opacity="0.2"/>
<stop offset="1" stop-color="white" stop-opacity="0"/>
</linearGradient>
<linearGradient id="paint22_linear_11053_42145" x1="-84.1648" y1="65.9559" x2="-3.85523" y2="24.795" gradientUnits="userSpaceOnUse">
<stop stop-color="white" stop-opacity="0.2"/>
<stop offset="1" stop-color="white" stop-opacity="0"/>
</linearGradient>
<linearGradient id="paint23_linear_11053_42145" x1="68" y1="65.9559" x2="-12.3096" y2="24.795" gradientUnits="userSpaceOnUse">
<stop stop-color="white" stop-opacity="0.2"/>
<stop offset="1" stop-color="white" stop-opacity="0"/>
</linearGradient>
<linearGradient id="paint24_linear_11053_42145" x1="-84.1648" y1="65.9559" x2="-3.85523" y2="24.795" gradientUnits="userSpaceOnUse">
<stop stop-color="white" stop-opacity="0.2"/>
<stop offset="1" stop-color="white" stop-opacity="0"/>
</linearGradient>
<linearGradient id="paint25_linear_11053_42145" x1="68" y1="65.9559" x2="-12.3096" y2="24.795" gradientUnits="userSpaceOnUse">
<stop stop-color="white" stop-opacity="0.2"/>
<stop offset="1" stop-color="white" stop-opacity="0"/>
</linearGradient>
<linearGradient id="paint26_linear_11053_42145" x1="27" y1="65.9709" x2="-53.3096" y2="24.81" gradientUnits="userSpaceOnUse">
<stop stop-color="white" stop-opacity="0.2"/>
<stop offset="1" stop-color="white" stop-opacity="0"/>
</linearGradient>
<clipPath id="clip0_11053_42145">
<rect width="390" height="50" fill="white"/>
</clipPath>
</defs>
</svg>
