<svg width="42" height="42" viewBox="0 0 42 42" fill="none" xmlns="http://www.w3.org/2000/svg">
<path d="M22.8262 3.56087C22.5822 3.39012 22.2147 3.60965 22.3697 3.83649C23.7594 5.86835 24.8476 9.55643 19.4007 13.7958C18.6599 10.6785 15.0134 9.10517 15.0134 9.10517C16.2653 11.2224 15.5561 14.1177 14.5339 16.2325C14.0285 17.2789 13.3107 18.2375 12.4722 19.1181C12.3689 19.2254 12.2713 19.3327 12.1736 19.4376C9.28795 22.6037 8.7223 25.4625 8.75102 27.2967C8.75102 27.3211 8.75102 27.3431 8.75102 27.3675C8.75102 33.5167 14.62 38.5 21.8557 38.5C29.0915 38.5 34.5757 33.4338 34.9604 27.3675C35.0552 25.882 35.819 12.6713 22.8262 3.56574V3.56087ZM28.2444 29.8091C28.0463 32.6142 25.2094 34.7534 21.9074 34.5851C18.6054 34.4168 16.0872 32.0068 16.2854 29.2018C16.2854 29.2018 16.1016 25.5332 20.4258 23.2257C24.75 20.9182 23.1335 17.1326 23.1335 17.1326C23.1335 17.1326 29.0053 23.233 28.2416 29.8091H28.2444Z" fill="#fbbf24"/>
</svg>
