<svg width="24" height="24" viewBox="0 0 24 24" fill="none" xmlns="http://www.w3.org/2000/svg">
<mask id="mask0_5_283234" style="mask-type:luminance" maskUnits="userSpaceOnUse" x="2" y="2" width="20" height="20">
<path d="M22 2H2V22H22V2Z" fill="white"/>
</mask>
<g mask="url(#mask0_5_283234)">
<path d="M17.0671 15.2529L9.14747 7.33326C8.83635 7.02214 8.26359 7.08578 7.87468 7.47468C7.48577 7.86359 7.42213 8.43635 7.73326 8.74748L15.6529 16.6671C15.964 16.9782 16.5367 16.9146 16.9256 16.5257C17.3146 16.1367 17.3782 15.564 17.0671 15.2529Z" fill="currentColor"/>
<path d="M9.14729 16.6669L17.0669 8.74733C17.378 8.4362 17.3144 7.86344 16.9255 7.47453C16.5366 7.08563 15.9638 7.02199 15.6527 7.33311L7.73307 15.2527C7.42195 15.5638 7.48559 16.1366 7.87449 16.5255C8.2634 16.9144 8.83616 16.978 9.14729 16.6669Z" fill="currentColor"/>
</g>
</svg>
