<svg width="24" height="24" viewBox="0 0 24 24" fill="none" xmlns="http://www.w3.org/2000/svg">
<mask id="mask0_5_283228" style="mask-type:luminance" maskUnits="userSpaceOnUse" x="2" y="2" width="20" height="20">
<path d="M22 2H2V22H22V2Z" fill="white"/>
</mask>
<g mask="url(#mask0_5_283228)">
<path d="M6.8 8H18C18.44 8 18.8 7.55 18.8 7C18.8 6.45 18.44 6 18 6H6.8C6.36 6 6 6.45 6 7C6 7.55 6.36 8 6.8 8ZM18 11H6.8C6.36 11 6 11.45 6 12C6 12.55 6.36 13 6.8 13H18C18.44 13 18.8 12.55 18.8 12C18.8 11.45 18.44 11 18 11ZM18 16H6.8C6.36 16 6 16.45 6 17C6 17.55 6.36 18 6.8 18H18C18.44 18 18.8 17.55 18.8 17C18.8 16.45 18.44 16 18 16Z" fill="currentColor" fill-opacity="0.4"/>
</g>
</svg>
