<svg width="42" height="42" viewBox="0 0 42 42" fill="none" xmlns="http://www.w3.org/2000/svg">
<path d="M40.5985 29.8174C40.5972 29.8102 40.5958 29.8029 40.5945 29.7957L37.912 15.9451C37.91 15.9347 37.9067 15.9249 37.9044 15.9146C37.4894 13.6482 36.2936 11.5989 34.5247 10.1224C32.7559 8.64598 30.5258 7.83577 28.2217 7.83252H28.2179L13.782 7.87513C11.4661 7.87053 9.22301 8.68441 7.44892 10.173C5.67483 11.6617 4.4838 13.7293 4.08616 16.0108C4.08408 16.0227 4.08216 16.0347 4.08039 16.0465L1.40717 29.7948C1.40573 29.8023 1.40437 29.8098 1.403 29.8174C1.18502 31.0543 1.36698 32.3285 1.92247 33.4549C2.47796 34.5814 3.37806 35.5014 4.49206 36.0815C5.60605 36.6615 6.87595 36.8714 8.11734 36.6806C9.35873 36.4898 10.507 35.9083 11.3954 35.0204C11.4191 34.9967 11.4419 34.9722 11.4636 34.947L18.1457 27.5602L23.8632 27.5374L30.5359 34.9446C30.5581 34.9706 30.5816 34.9959 30.6061 35.0204C31.4945 35.9084 32.6427 36.49 33.8842 36.6809C35.1256 36.8718 36.3956 36.662 37.5096 36.0819C38.6237 35.5018 39.5238 34.5816 40.0793 33.4551C40.6347 32.3286 40.8166 31.0543 40.5985 29.8174L40.5985 29.8174ZM17.0625 19.0314H15.75V20.3439C15.75 20.692 15.6117 21.0258 15.3656 21.272C15.1194 21.5181 14.7856 21.6564 14.4375 21.6564C14.0894 21.6564 13.7555 21.5181 13.5094 21.272C13.2633 21.0258 13.125 20.692 13.125 20.3439V19.0314H11.8125C11.4644 19.0314 11.1305 18.8931 10.8844 18.647C10.6383 18.4008 10.5 18.067 10.5 17.7189C10.5 17.3708 10.6383 17.0369 10.8844 16.7908C11.1305 16.5447 11.4644 16.4064 11.8125 16.4064H13.125V15.0939C13.125 14.7458 13.2633 14.4119 13.5094 14.1658C13.7555 13.9197 14.0894 13.7814 14.4375 13.7814C14.7856 13.7814 15.1194 13.9197 15.3656 14.1658C15.6117 14.4119 15.75 14.7458 15.75 15.0939V16.4064H17.0625C17.4106 16.4064 17.7444 16.5447 17.9906 16.7908C18.2367 17.0369 18.375 17.3708 18.375 17.7189C18.375 18.067 18.2367 18.4008 17.9906 18.647C17.7444 18.8931 17.4106 19.0314 17.0625 19.0314ZM23.625 17.7189C23.625 17.3708 23.7633 17.0369 24.0094 16.7908C24.2555 16.5447 24.5894 16.4064 24.9375 16.4064H30.1875C30.5356 16.4064 30.8694 16.5447 31.1156 16.7908C31.3617 17.0369 31.5 17.3708 31.5 17.7189C31.5 18.067 31.3617 18.4008 31.1156 18.647C30.8694 18.8931 30.5356 19.0314 30.1875 19.0314H24.9375C24.5894 19.0314 24.2555 18.8931 24.0094 18.647C23.7633 18.4008 23.625 18.067 23.625 17.7189ZM35.3518 34.0745C34.8384 34.1646 34.311 34.1314 33.8131 33.9775C33.3151 33.8236 32.8609 33.5535 32.4879 33.1895L27.3836 27.5234L28.2217 27.52C29.8952 27.519 31.5409 27.0914 33.0032 26.2776C34.4656 25.4638 35.6963 24.2906 36.5792 22.8689L38.0151 30.2833C38.1623 31.1389 37.9648 32.018 37.4657 32.7285C36.9667 33.4389 36.2066 33.9228 35.3518 34.0745V34.0745Z" fill="#21063B"/>
</svg>
