<svg width="42" height="42" viewBox="0 0 42 42" fill="none" xmlns="http://www.w3.org/2000/svg">
<path d="M34.6704 26.2859C34.3971 25.482 33.6294 24.9394 32.7652 24.9394H25.6908C25.321 24.9394 25.0195 25.2328 25.0195 25.5945V27.5641C25.0195 29.7347 23.2148 31.5033 21 31.5033C18.7852 31.5033 16.9805 29.7347 16.9805 27.5641V25.5945C16.9805 25.2328 16.679 24.9394 16.3092 24.9394H9.23483C8.37063 24.9394 7.6029 25.482 7.32957 26.2859L4.92188 32.898V34.7872C4.92188 35.8725 5.82225 36.7568 6.93164 36.7568H35.0684C36.1777 36.7568 37.0781 35.8725 37.0781 34.7872V32.898L34.6704 26.2859ZM15.642 30.1929C15.642 30.3818 15.5616 30.5587 15.4169 30.6833C15.3767 30.7154 14.4562 31.5033 12.9609 31.5033C11.4657 31.5033 10.5452 30.7154 10.505 30.6833C10.3603 30.5587 10.2799 30.3818 10.2799 30.1929V28.8785C10.2799 28.7378 10.3281 28.5971 10.4126 28.4846C10.4849 28.3881 11.1682 27.5641 12.9569 27.5641C14.7456 27.5641 15.4289 28.3881 15.5013 28.4846C15.5897 28.5971 15.6339 28.7378 15.6339 28.8785V30.1929H15.642ZM31.7201 30.1929C31.7201 30.3818 31.6397 30.5587 31.495 30.6833C31.4548 30.7154 30.5343 31.5033 29.0391 31.5033C27.5438 31.5033 26.6233 30.7154 26.5831 30.6833C26.4384 30.5587 26.358 30.3818 26.358 30.1929V28.8785C26.358 28.7378 26.4063 28.5971 26.4907 28.4846C26.563 28.3881 27.2464 27.5641 29.035 27.5641C30.8237 27.5641 31.5071 28.3881 31.5794 28.4846C31.6678 28.5971 31.7121 28.7338 31.7121 28.8785V30.1929H31.7201ZM18.319 17.8248V27.5641C18.319 29.0111 19.5208 30.1889 21 30.1889C22.4792 30.1889 23.681 29.0111 23.681 27.5641V17.8248C26.0445 16.8078 27.7006 14.4966 27.7006 11.8075C27.7006 8.18595 24.6939 5.24365 21 5.24365C17.3061 5.24365 14.2994 8.18997 14.2994 11.8075C14.2994 14.4966 15.9555 16.8119 18.319 17.8248Z" fill="#21063B"/>
</svg>
