<svg width="42" height="42" viewBox="0 0 42 42" fill="none" xmlns="http://www.w3.org/2000/svg">
<path d="M38.0625 10.5H34.125V9.1875C34.1242 8.49155 33.8474 7.82433 33.3553 7.33222C32.8632 6.84011 32.196 6.5633 31.5 6.5625H10.5C9.80407 6.5633 9.13685 6.84011 8.64474 7.33222C8.15263 7.82433 7.87581 8.49155 7.87501 9.1875V10.5H3.91669C3.22074 10.5008 2.55352 10.7776 2.06141 11.2697C1.5693 11.7618 1.29248 12.4291 1.29169 13.125V15.75C1.29368 17.4899 1.98572 19.1579 3.216 20.3882C4.44627 21.6185 6.11431 22.3105 7.85419 22.3125H8.51765C10.0996 27.224 14.4473 30.9006 19.6875 31.4315V35.4375H15.75C15.4019 35.4375 15.0681 35.5758 14.8219 35.8219C14.5758 36.0681 14.4375 36.4019 14.4375 36.75C14.4375 37.0981 14.5758 37.4319 14.8219 37.6781C15.0681 37.9242 15.4019 38.0625 15.75 38.0625H26.25C26.5981 38.0625 26.932 37.9242 27.1781 37.6781C27.4242 37.4319 27.5625 37.0981 27.5625 36.75C27.5625 36.4019 27.4242 36.0681 27.1781 35.8219C26.932 35.5758 26.5981 35.4375 26.25 35.4375H22.3125V31.4354C24.8685 31.1769 27.2928 30.175 29.2856 28.5537C31.2784 26.9323 32.7524 24.7625 33.5254 22.3125H34.125C35.8649 22.3105 37.5329 21.6185 38.7632 20.3882C39.9935 19.1579 40.6855 17.4899 40.6875 15.75V13.125C40.6867 12.4291 40.4099 11.7618 39.9178 11.2697C39.4257 10.7776 38.7585 10.5008 38.0625 10.5V10.5ZM7.85419 19.6875C6.81026 19.6863 5.80944 19.2711 5.07127 18.5329C4.33311 17.7947 3.91788 16.7939 3.91669 15.75V13.125H7.87501V18.2266C7.87571 18.7147 7.90304 19.2024 7.95688 19.6875H7.85419ZM38.0625 15.75C38.0613 16.7939 37.6461 17.7947 36.9079 18.5329C36.1698 19.2711 35.1689 19.6863 34.125 19.6875H34.0607C34.1034 19.2542 34.1248 18.8167 34.125 18.375V13.125H38.0625V15.75Z" fill="#21063B"/>
</svg>
