<svg width="30" height="30" viewBox="0 0 30 30" fill="none" xmlns="http://www.w3.org/2000/svg">
<g clip-path="url(#clip0_4476_4098)">
<path d="M20.864 15.2194C20.8375 12.311 23.2746 10.9148 23.3848 10.8467C22.0134 8.86965 19.8792 8.59881 19.1178 8.56694C17.3024 8.38589 15.5739 9.61992 14.6537 9.61992C13.7336 9.61992 12.3107 8.59302 10.8055 8.62198C8.82414 8.65095 7.00001 9.75607 5.9799 11.5028C3.92353 15.0181 5.45516 20.228 7.45714 23.0813C8.43756 24.4761 9.60464 26.0476 11.1392 25.9897C12.6179 25.9317 13.1765 25.0482 14.9609 25.0482C16.7454 25.0482 17.2481 25.9897 18.8105 25.9621C20.3995 25.9317 21.4078 24.5369 22.3809 23.1378C23.5039 21.5185 23.9684 19.9513 23.9948 19.8688C23.9596 19.8543 20.8963 18.697 20.864 15.2194Z" fill="currentColor"/>
<path d="M17.9286 6.67941C18.7429 5.70754 19.2926 4.35617 19.1412 3.00922C17.9682 3.05561 16.5483 3.77978 15.7061 4.75165C14.952 5.61059 14.2906 6.98652 14.4698 8.30605C15.7781 8.40599 17.1141 7.64986 17.9286 6.67941Z" fill="currentColor"/>
</g>
<defs>
<clipPath id="clip0_4476_4098">
<rect width="19" height="23" fill="currentColor" transform="translate(5 3)"/>
</clipPath>
</defs>
</svg>
