<svg xmlns="http://www.w3.org/2000/svg" width="26" height="26" viewBox="0 0 26 26" fill="none">
  <path d="M14.5401 17.5737L18.595 13.5189C18.6703 13.4436 18.73 13.3542 18.7708 13.2559C18.8115 13.1575 18.8325 13.052 18.8325 12.9455C18.8325 12.8391 18.8115 12.7336 18.7708 12.6352C18.73 12.5369 18.6703 12.4475 18.595 12.3722L14.5401 8.31512C14.4648 8.23983 14.3755 8.1801 14.2771 8.13936C14.1787 8.09861 14.0733 8.07764 13.9668 8.07764C13.8603 8.07764 13.7549 8.09861 13.6565 8.13936C13.5581 8.1801 13.4687 8.23983 13.3935 8.31512C13.2414 8.46718 13.156 8.67342 13.156 8.88846C13.156 9.10351 13.2414 9.30974 13.3935 9.4618L16.0615 12.1298H8.29017C8.18187 12.127 8.0741 12.1458 7.97321 12.1853C7.87232 12.2247 7.78036 12.284 7.70275 12.3596C7.62514 12.4352 7.56346 12.5255 7.52134 12.6253C7.47922 12.7252 7.45752 12.8324 7.45752 12.9407C7.45752 13.0491 7.47922 13.1563 7.52134 13.2561C7.56346 13.3559 7.62514 13.4463 7.70275 13.5219C7.78036 13.5974 7.87232 13.6567 7.97321 13.6962C8.0741 13.7356 8.18187 13.7545 8.29017 13.7516H16.0643L13.3963 16.4196C13.2442 16.5717 13.1588 16.7779 13.1588 16.993C13.1588 17.208 13.2442 17.4143 13.3963 17.5663C13.5484 17.7184 13.7546 17.8038 13.9696 17.8038C14.1847 17.8038 14.3909 17.7184 14.543 17.5663L14.5401 17.5737Z" fill="currentColor"/>
</svg>