<svg xmlns="http://www.w3.org/2000/svg" width="26" height="26" viewBox="0 0 26 26" fill="none">
  <path d="M11.7499 17.5737L7.69509 13.5189C7.61977 13.4436 7.56003 13.3542 7.51926 13.2559C7.4785 13.1575 7.45752 13.052 7.45752 12.9455C7.45752 12.8391 7.4785 12.7336 7.51926 12.6352C7.56003 12.5369 7.61977 12.4475 7.69509 12.3722L11.7499 8.31512C11.8252 8.23983 11.9146 8.1801 12.013 8.13936C12.1113 8.09861 12.2168 8.07764 12.3232 8.07764C12.4297 8.07764 12.5352 8.09861 12.6335 8.13936C12.7319 8.1801 12.8213 8.23983 12.8966 8.31512C13.0486 8.46718 13.1341 8.67342 13.1341 8.88846C13.1341 9.10351 13.0486 9.30974 12.8966 9.4618L10.2286 12.1298H17.9999C18.1082 12.127 18.2159 12.1458 18.3168 12.1853C18.4177 12.2247 18.5097 12.284 18.5873 12.3596C18.6649 12.4352 18.7266 12.5255 18.7687 12.6253C18.8108 12.7252 18.8325 12.8324 18.8325 12.9407C18.8325 13.0491 18.8108 13.1563 18.7687 13.2561C18.7266 13.3559 18.6649 13.4463 18.5873 13.5219C18.5097 13.5974 18.4177 13.6567 18.3168 13.6962C18.2159 13.7356 18.1082 13.7545 17.9999 13.7516H10.2257L12.8937 16.4196C13.0458 16.5717 13.1312 16.7779 13.1312 16.993C13.1312 17.208 13.0458 17.4143 12.8937 17.5663C12.7417 17.7184 12.5354 17.8038 12.3204 17.8038C12.1054 17.8038 11.8991 17.7184 11.7471 17.5663L11.7499 17.5737Z" fill="currentColor"/>
</svg>