<svg xmlns="http://www.w3.org/2000/svg" width="38" height="38" viewBox="0 0 38 38" fill="none">
  <path d="M20.5836 4.0805L31.1286 10.1684C31.61 10.4463 32.0097 10.8461 32.2876 11.3275C32.5656 11.8088 32.7119 12.3549 32.7119 12.9108V25.0882C32.7119 26.2203 32.1087 27.2653 31.1286 27.8305L20.5836 33.92C20.1021 34.1978 19.5561 34.344 19.0002 34.344C18.4444 34.344 17.8984 34.1978 17.4169 33.92L6.87191 27.8321C6.39053 27.5542 5.99078 27.1544 5.71285 26.673C5.43491 26.1917 5.28859 25.6456 5.28857 25.0898V12.9123C5.28857 11.7803 5.89182 10.7353 6.87191 10.17L17.4169 4.0805C17.8984 3.80272 18.4444 3.65649 19.0002 3.65649C19.5561 3.65649 20.1021 3.80272 20.5836 4.0805Z" fill="url(#paint0_linear_3070_1437)"/>
  <path d="M19.7919 5.45167C19.5513 5.31239 19.2782 5.23905 19.0002 5.23905C18.7222 5.23905 18.4492 5.31239 18.2086 5.45167L7.66357 11.5412C7.17432 11.8246 6.87191 12.3471 6.87191 12.9123V25.0898C6.87191 25.655 7.17432 26.1775 7.66357 26.4609L18.2086 32.5488C18.4492 32.6881 18.7222 32.7615 19.0002 32.7615C19.2782 32.7615 19.5513 32.6881 19.7919 32.5488L30.3369 26.4609C30.8262 26.1775 31.1286 25.655 31.1286 25.0898V12.9123C31.1286 12.3471 30.8262 11.8246 30.3369 11.5412L19.7919 5.45167ZM20.5836 4.0805L31.1286 10.1684C31.61 10.4463 32.0097 10.8461 32.2876 11.3275C32.5656 11.8088 32.7119 12.3549 32.7119 12.9108V25.0882C32.7119 26.2203 32.1087 27.2653 31.1286 27.8305L20.5836 33.92C20.1021 34.1978 19.5561 34.344 19.0002 34.344C18.4444 34.344 17.8984 34.1978 17.4169 33.92L6.87191 27.8321C6.39053 27.5542 5.99078 27.1544 5.71285 26.673C5.43492 26.1917 5.28859 25.6456 5.28857 25.0898V12.9123C5.28857 11.7803 5.89182 10.7353 6.87191 10.17L17.4169 4.0805C17.8984 3.80272 18.4444 3.65649 19.0002 3.65649C19.5561 3.65649 20.1021 3.80272 20.5836 4.0805Z" fill="#116578"/>
  <path d="M9.48731 21.4208C9.98764 20.6941 9.73114 19.9658 8.71781 19.239C8.38689 20.4962 8.64339 21.2245 9.48731 21.4208ZM10.2584 23.3462C10.0272 22.4199 9.35748 22.0748 8.24756 22.3123C8.58639 23.3478 9.25773 23.6929 10.2584 23.3462ZM10.2584 23.3462C10.0146 22.2679 10.3771 21.595 11.3477 21.3306C11.6612 22.3154 11.2986 22.9868 10.2584 23.3462ZM11.6992 24.7648C11.6992 24.7648 11.0216 23.6153 9.57281 24.3801C10.5323 25.9333 11.6992 24.7648 11.6992 24.7648Z" fill="#FFF6A2"/>
  <path d="M11.6962 24.7616C11.2766 23.9367 11.4903 23.2068 12.339 22.5703C12.7237 23.7594 12.51 24.4893 11.6962 24.7616ZM13.1845 26.1692C13.1845 26.1692 12.3738 25.0435 10.9932 26.3561C12.4435 27.504 13.1845 26.1692 13.1845 26.1692Z" fill="#FFF6A2"/>
  <path d="M13.1846 26.168C12.5132 25.5172 12.5275 24.7414 13.2305 23.842C13.905 24.8142 13.8907 25.59 13.1846 26.168ZM15.1495 27.1433C14.38 26.7886 14.1916 26.0777 14.5842 25.0121C15.5691 25.59 15.7575 26.2994 15.1495 27.1433Z" fill="#FFF6A2"/>
  <path d="M15.146 27.1414C14.329 26.7868 13.6324 27.0686 13.0576 27.9901C14.1739 28.4318 14.8705 28.15 15.146 27.1414ZM28.5125 21.4208C28.0122 20.6941 28.2687 19.9658 29.282 19.239C29.6129 20.4962 29.3564 21.2245 28.5125 21.4208ZM27.7415 23.3462C27.9726 22.4199 28.6424 22.0748 29.7523 22.3123C29.4135 23.3478 28.7421 23.6929 27.7415 23.3462ZM27.7415 23.3462C27.9853 22.2679 27.6227 21.595 26.6521 21.3306C26.3386 22.3154 26.7012 22.9868 27.7415 23.3462ZM26.3006 24.7648C26.3006 24.7648 26.9783 23.6153 28.427 24.3801C27.4675 25.9333 26.3006 24.7648 26.3006 24.7648ZM26.3022 24.7617C26.7218 23.9368 26.508 23.2068 25.6594 22.5703C25.2762 23.7594 25.49 24.4893 26.3022 24.7617ZM24.8154 26.1693C24.8154 26.1693 25.6261 25.0435 27.0068 26.3561C25.5564 27.504 24.8154 26.1693 24.8154 26.1693Z" fill="#FFF6A2"/>
  <path d="M24.8155 26.168C25.4868 25.5172 25.4726 24.7414 24.7696 23.842C24.0951 24.8142 24.1093 25.59 24.8155 26.168ZM22.8506 27.1433C23.6201 26.7886 23.8085 26.0777 23.4158 25.0121C22.431 25.59 22.2426 26.2994 22.8506 27.1433Z" fill="#FFF6A2"/>
  <path d="M22.8537 27.1413C23.6707 26.7867 24.3674 27.0685 24.9421 27.99C23.8259 28.4318 23.1292 28.1499 22.8537 27.1413ZM18.9999 29.2915L18.0689 29.7808L18.2462 28.7453L17.4941 28.0106L18.5344 27.8586L18.9999 26.9165L19.4654 27.8586L20.5056 28.0106L19.7536 28.7453L19.9309 29.7808L18.9999 29.2915Z" fill="#FFF6A2"/>
  <path d="M14.2262 20.3679H23.7737C24.0523 20.3679 24.2772 20.5928 24.2772 20.8714V21.4478C24.2772 21.5813 24.2241 21.7094 24.1297 21.8038C24.0353 21.8982 23.9072 21.9513 23.7737 21.9513H14.2262C14.0926 21.9513 13.9646 21.8982 13.8701 21.8038C13.7757 21.7094 13.7227 21.5813 13.7227 21.4478V20.8714C13.7227 20.5928 13.9475 20.3679 14.2262 20.3679Z" fill="#FFF6A2"/>
  <path d="M13.3598 11.1736L15.5844 14.0046C15.614 14.0424 15.6519 14.073 15.6951 14.0941C15.7383 14.1151 15.7857 14.1261 15.8338 14.1261C15.8818 14.1261 15.9293 14.1151 15.9725 14.0941C16.0157 14.073 16.0535 14.0424 16.0832 14.0046L18.7511 10.6083C18.7807 10.5705 18.8185 10.5399 18.8618 10.5188C18.905 10.4978 18.9524 10.4868 19.0005 10.4868C19.0485 10.4868 19.0959 10.4978 19.1392 10.5188C19.1824 10.5399 19.2202 10.5705 19.2498 10.6083L21.9146 14.0046C21.9442 14.0424 21.982 14.073 22.0253 14.0941C22.0685 14.1151 22.1159 14.1261 22.164 14.1261C22.212 14.1261 22.2594 14.1151 22.3026 14.0941C22.3459 14.073 22.3837 14.0424 22.4133 14.0046L24.6427 11.172C24.6684 11.1393 24.7004 11.1121 24.7367 11.0918C24.773 11.0715 24.813 11.0585 24.8543 11.0537C24.8956 11.0488 24.9375 11.0522 24.9775 11.0635C25.0175 11.0748 25.0549 11.0939 25.0876 11.1197C25.1302 11.1531 25.1635 11.1968 25.1843 11.2467C25.205 11.2966 25.2127 11.351 25.2063 11.4047L24.2801 19.3594H13.7224L12.7962 11.4063C12.788 11.3377 12.8025 11.2683 12.8375 11.2087C12.8724 11.1491 12.9259 11.1026 12.9898 11.0762C13.0536 11.0499 13.1243 11.0451 13.1912 11.0627C13.258 11.0803 13.3172 11.1192 13.3598 11.1736Z" fill="#FFF6A2"/>
  <defs>
    <linearGradient id="paint0_linear_3070_1437" x1="19.0002" y1="3.65649" x2="19.0002" y2="34.344" gradientUnits="userSpaceOnUse">
      <stop stop-color="#23DB8C"/>
      <stop offset="1" stop-color="#2382DB"/>
    </linearGradient>
  </defs>
</svg>