<svg width="24" height="25" viewBox="0 0 24 25" fill="none" xmlns="http://www.w3.org/2000/svg">
<path d="M4.74737 8.35278L11.8504 6.10841L11.8549 6.10699L19.9782 3.54022C20.1846 3.47502 20.4021 3.46276 20.6136 3.50442C20.8251 3.54608 21.0247 3.64051 21.1967 3.78024C21.3686 3.91996 21.5082 4.10114 21.6043 4.30943C21.7005 4.51772 21.7505 4.74739 21.7505 4.98026V17.9802C21.7502 18.3773 21.6048 18.7582 21.3461 19.0395C21.0873 19.3208 20.7363 19.4797 20.3698 19.4814C20.2372 19.4812 20.1053 19.4606 19.9781 19.4202L12.75 17.1363V18.2302C12.7496 18.6279 12.6035 19.0092 12.344 19.2904C12.0844 19.5716 11.7325 19.7298 11.3654 19.7302H8.59613C8.22904 19.7298 7.8771 19.5716 7.61753 19.2904C7.35795 19.0092 7.21194 18.6279 7.21152 18.2302V15.3863L4.74745 14.6078C4.46043 14.5158 4.20843 14.326 4.02884 14.0666C3.84925 13.8072 3.75163 13.492 3.75049 13.1677V9.79272C3.75162 9.46849 3.84922 9.15329 4.0288 8.8939C4.20838 8.63451 4.46037 8.44475 4.74737 8.35278V8.35278ZM8.59613 18.2302H11.3654V16.6988L8.59613 15.8238V18.2302ZM5.1351 13.1677L8.108 14.1071L8.11045 14.1078L11.3654 15.1363V7.82411L5.1351 9.79272V13.1677Z" fill="url(#paint0_linear_54_2259)"/>
<defs>
<linearGradient id="paint0_linear_54_2259" x1="20.5743" y1="19.7302" x2="2.21694" y2="5.19534" gradientUnits="userSpaceOnUse">
<stop stop-color="#7041F3"/>
<stop offset="1" stop-color="#F5C84C"/>
</linearGradient>
</defs>
</svg>
