<svg viewBox="0 0 30 30" fill="none" xmlns="http://www.w3.org/2000/svg">
<rect width="30" height="30" rx="10" fill="#909090" fill-opacity="0.3"/>
<path fill-rule="evenodd" clip-rule="evenodd" d="M14.435 12.835C14.8255 13.2255 15.4587 13.2255 15.8492 12.835L20.835 7.8492C21.2255 7.45867 21.8587 7.45867 22.2492 7.8492L22.435 8.03498C22.8255 8.42551 22.8255 9.05867 22.435 9.4492L17.4492 14.435C17.0587 14.8255 17.0587 15.4587 17.4492 15.8492L22.435 20.835C22.8255 21.2255 22.8255 21.8587 22.435 22.2492L22.2492 22.435C21.8587 22.8255 21.2255 22.8255 20.835 22.435L15.8492 17.4492C15.4587 17.0587 14.8255 17.0587 14.435 17.4492L9.4492 22.435C9.05867 22.8255 8.42551 22.8255 8.03498 22.435L7.8492 22.2492C7.45867 21.8587 7.45867 21.2255 7.8492 20.835L12.835 15.8492C13.2255 15.4587 13.2255 14.8255 12.835 14.435L7.8492 9.4492C7.45867 9.05867 7.45867 8.42551 7.8492 8.03498L8.03498 7.8492C8.42551 7.45867 9.05867 7.45867 9.4492 7.8492L14.435 12.835Z" fill="white"/>
</svg>
