<svg width="28" height="28" viewBox="0 0 28 28" fill="none" xmlns="http://www.w3.org/2000/svg">
<path d="M14.7001 12.4H8.4001C7.90304 12.4 7.5001 12.803 7.5001 13.3V19.6C7.5001 20.0971 7.90304 20.5 8.4001 20.5H14.7001C15.1972 20.5 15.6001 20.0971 15.6001 19.6V13.3C15.6001 12.803 15.1972 12.4 14.7001 12.4Z" stroke="currentColor" stroke-linecap="round" stroke-linejoin="round"/>
<mask id="path-2-inside-1_2416_6061" fill="white">
<path d="M17.9 17.1H18.6C19.3732 17.1 20 16.4732 20 15.7V9.4C20 8.6268 19.3732 8 18.6 8H12.3C11.5268 8 10.9 8.6268 10.9 9.4V10.1"/>
</mask>
<path d="M17.9 18.1C17.3477 18.1 16.9 17.6523 16.9 17.1C16.9 16.5477 17.3477 16.1 17.9 16.1V18.1ZM11.9 10.1C11.9 10.6523 11.4523 11.1 10.9 11.1C10.3477 11.1 9.9 10.6523 9.9 10.1H11.9ZM17.9 16.1H18.6V18.1H17.9V16.1ZM18.6 16.1C18.8209 16.1 19 15.9209 19 15.7H21C21 17.0255 19.9255 18.1 18.6 18.1V16.1ZM19 15.7V9.4H21V15.7H19ZM19 9.4C19 9.17909 18.8209 9 18.6 9V7C19.9255 7 21 8.07452 21 9.4H19ZM18.6 9H12.3V7H18.6V9ZM12.3 9C12.0791 9 11.9 9.17908 11.9 9.4H9.9C9.9 8.07453 10.9745 7 12.3 7V9ZM11.9 9.4V10.1H9.9V9.4H11.9Z" fill="currentColor" mask="url(#path-2-inside-1_2416_6061)"/>
</svg>
