<svg width="26" height="26" viewBox="0 0 26 26" fill="none" xmlns="http://www.w3.org/2000/svg">
<path fill-rule="evenodd" clip-rule="evenodd" d="M20.8719 11.8415C20.8551 11.8415 20.8415 11.8278 20.8415 11.811V11.811C20.8415 7.49712 17.3444 4 13.0305 4C8.7166 4 5.21948 7.49712 5.21948 11.811V11.811C5.21948 11.8278 5.20589 11.8415 5.18909 11.8415H4.24999C4.23315 11.8415 4.21948 11.8279 4.21948 11.811V11.811C4.21948 6.94483 8.16432 3 13.0305 3C17.8967 3 21.8415 6.94483 21.8415 11.811V11.811C21.8415 11.8279 21.8279 11.8415 21.811 11.8415H20.8719Z" fill="currentColor"/>
<path d="M21.8414 11.5977C21.8414 16.8006 17.6236 21.0184 12.4207 21.0184" stroke="currentColor" stroke-width="0.75"/>
<rect x="10.9878" y="9.58545" width="2.01221" height="4.02442" rx="1.0061" fill="currentColor"/>
<rect x="15.1951" y="9.58545" width="2.01221" height="4.02442" rx="1.0061" fill="currentColor"/>
<path d="M20.5608 10.622C21.7927 10.622 22.9999 12.1235 22.9999 13.9757C22.9999 15.8279 21.7927 17.3293 20.5608 17.3293C19.3289 17.3293 19.4986 15.8279 19.4986 13.9757C19.4986 12.1235 19.3289 10.622 20.5608 10.622Z" fill="currentColor"/>
<path d="M5.43918 10.622C4.20729 10.622 3.00014 12.1235 3.00014 13.9757C3.00014 15.8279 4.20729 17.3293 5.43918 17.3293C6.67106 17.3293 6.50136 15.8279 6.50136 13.9757C6.50136 12.1235 6.67106 10.622 5.43918 10.622Z" fill="currentColor"/>
<ellipse cx="12.9387" cy="20.7135" rx="2.25611" ry="1.43294" fill="currentColor"/>
</svg>
