<svg width="170" height="99" viewBox="0 0 170 99" fill="none" xmlns="http://www.w3.org/2000/svg">
<path d="M93.3899 47.8667L92.7522 49.2243L93.3899 47.8667ZM164.406 1.47682C164.117 0.700417 163.253 0.305253 162.477 0.594196L149.825 5.30281C149.048 5.59175 148.653 6.45538 148.942 7.23179C149.231 8.00819 150.095 8.40336 150.871 8.11441L162.117 3.92898L166.303 15.1754C166.592 15.9518 167.455 16.347 168.232 16.058C169.008 15.7691 169.403 14.9055 169.114 14.1291L164.406 1.47682ZM3.16657 98.9429C3.77388 98.1916 4.38357 97.3853 4.99722 96.5332L2.56279 94.7801C1.97473 95.5966 1.39901 96.3573 0.833425 97.0571L3.16657 98.9429ZM8.34519 91.5581C9.36737 89.9614 10.4173 88.2693 11.499 86.5166L8.94613 84.941C7.86523 86.6922 6.82644 88.3663 5.81859 89.9406L8.34519 91.5581ZM14.6115 81.4836C15.6312 79.8482 16.683 78.1836 17.773 76.5077L15.2582 74.8719C14.1543 76.5691 13.0916 78.2511 12.0658 79.8964L14.6115 81.4836ZM21.0441 71.6373C22.1524 70.0453 23.2988 68.4614 24.488 66.9018L22.1024 65.0828C20.8833 66.6817 19.7113 68.3011 18.582 69.9233L21.0441 71.6373ZM28.1492 62.3577C29.4106 60.8819 30.7169 59.4466 32.0724 58.0672L29.9326 55.9645C28.5235 57.3985 27.1703 58.8856 25.8687 60.4086L28.1492 62.3577ZM36.2961 54.1074C37.7594 52.851 39.2755 51.6673 40.8485 50.5714L39.1337 48.1098C37.4712 49.268 35.8754 50.5145 34.3418 51.8313L36.2961 54.1074ZM45.7362 47.5659C47.4098 46.6698 49.1436 45.8744 50.9422 45.1942L49.881 42.3882C47.955 43.1165 46.1028 43.9666 44.3202 44.9211L45.7362 47.5659ZM56.4004 43.545C58.2157 43.1299 60.0946 42.8289 62.0411 42.6552L61.7744 39.6671C59.692 39.8529 57.6788 40.1752 55.7316 40.6205L56.4004 43.545ZM67.7533 42.515C69.6066 42.5854 71.5186 42.7669 73.4923 43.0696L73.9472 40.1043C71.8639 39.7848 69.838 39.592 67.8671 39.5172L67.7533 42.515ZM79.1188 44.226C80.9134 44.6855 82.7557 45.2413 84.6474 45.8999L85.6338 43.0667C83.6659 42.3816 81.7427 41.8011 79.8629 41.3198L79.1188 44.226ZM90.0539 48.0089C90.9431 48.392 91.8424 48.797 92.7522 49.2243L94.0277 46.509C93.0894 46.0682 92.1606 45.65 91.241 45.2538L90.0539 48.0089ZM92.7522 49.2243C93.7213 49.6796 94.6781 50.1046 95.6227 50.5003L96.7817 47.7332C95.8774 47.3545 94.9595 46.9467 94.0277 46.509L92.7522 49.2243ZM101.442 52.6196C103.541 53.2655 105.575 53.7588 107.548 54.1097L108.073 51.1561C106.228 50.8278 104.313 50.3642 102.324 49.7523L101.442 52.6196ZM113.799 54.7635C115.989 54.8251 118.091 54.7006 120.109 54.4087L119.68 51.4396C117.835 51.7064 115.905 51.8215 113.883 51.7647L113.799 54.7635ZM126.281 52.9268C128.316 52.2336 130.246 51.3631 132.075 50.3447L130.616 47.7235C128.935 48.659 127.17 49.4548 125.314 50.0871L126.281 52.9268ZM137.322 46.8336C138.966 45.5384 140.514 44.1242 141.973 42.6211L139.821 40.5312C138.444 41.9487 136.994 43.2722 135.465 44.4773L137.322 46.8336ZM146.065 37.9117C147.342 36.2789 148.541 34.5854 149.67 32.8591L147.159 31.2176C146.071 32.8814 144.921 34.5049 143.702 36.0633L146.065 37.9117ZM152.87 27.5708C153.893 25.7525 154.848 23.9261 155.743 22.1212L153.056 20.7882C152.18 22.5541 151.248 24.3341 150.255 26.1006L152.87 27.5708ZM158.361 16.5653C159.236 14.6185 160.046 12.7351 160.797 10.9592L158.035 9.78979C157.287 11.5557 156.488 13.4166 155.625 15.335L158.361 16.5653ZM163.163 5.35354C163.584 4.36845 163.983 3.45579 164.364 2.62411L161.636 1.37589C161.241 2.23883 160.831 3.17636 160.405 4.17288L163.163 5.35354Z" fill="white"/>
</svg>
