<svg width="361" height="41" viewBox="0 0 361 41" fill="none" xmlns="http://www.w3.org/2000/svg">
<path d="M44.4912 0.748047H284.676C285.854 0.748047 286.973 1.26796 287.733 2.16896L290.836 5.84738C291.596 6.74838 292.715 7.26829 293.894 7.26829H355.681C357.89 7.26829 359.681 9.05915 359.681 11.2683V30.4991V35.9991C359.681 38.2082 357.89 39.9991 355.681 39.9991H44.4912H5C2.79086 39.9991 1 38.2082 1 35.9991V34.6468C1 33.7413 1.35971 32.8729 2 32.2326C2.64029 31.5923 3 30.7239 3 29.8184V12.183C3 11.3961 2.62951 10.6551 2 10.183C1.37049 9.71085 1 8.96988 1 8.18298V4.74805C1 2.53891 2.79086 0.748047 5 0.748047H44.4912Z" fill="#2B4F14"/>
<path d="M44.4912 0.748047H284.676C285.854 0.748047 286.973 1.26796 287.733 2.16896L290.836 5.84738C291.596 6.74838 292.715 7.26829 293.894 7.26829H355.681C357.89 7.26829 359.681 9.05915 359.681 11.2683V30.4991V35.9991C359.681 38.2082 357.89 39.9991 355.681 39.9991H44.4912M44.4912 0.748047H5C2.79086 0.748047 1 2.53891 1 4.74805L1 8.18298C1 8.96988 1.37049 9.71085 2 10.183V10.183C2.62951 10.6551 3 11.3961 3 12.183V29.8184C3 30.7239 2.64029 31.5923 2 32.2326V32.2326C1.35971 32.8729 1 33.7413 1 34.6468V35.9991C1 38.2082 2.79086 39.9991 5 39.9991H44.4912M44.4912 0.748047V20.3736V39.9991" stroke="#34571D"/>
</svg>
