<svg width="361" height="41" viewBox="0 0 361 41" fill="none" xmlns="http://www.w3.org/2000/svg">
<path d="M44.4912 0.747696H284.676C285.854 0.747696 286.973 1.26761 287.733 2.16861L290.836 5.84703C291.596 6.74803 292.715 7.26794 293.894 7.26794H355.681C357.89 7.26794 359.681 9.0588 359.681 11.2679V30.4987V35.9987C359.681 38.2079 357.89 39.9987 355.681 39.9987H44.4912H5C2.79086 39.9987 1 38.2079 1 35.9987V34.6465C1 33.741 1.35971 32.8725 2 32.2323C2.64029 31.592 3 30.7235 3 29.818V12.1826C3 11.3957 2.62951 10.6548 2 10.1826C1.37049 9.7105 1 8.96953 1 8.18263V4.7477C1 2.53856 2.79086 0.747696 5 0.747696H44.4912Z" fill="url(#paint0_linear_2143_8325)"/>
<path d="M44.4912 0.747696H284.676C285.854 0.747696 286.973 1.26761 287.733 2.16861L290.836 5.84703C291.596 6.74803 292.715 7.26794 293.894 7.26794H355.681C357.89 7.26794 359.681 9.0588 359.681 11.2679V30.4987V35.9987C359.681 38.2079 357.89 39.9987 355.681 39.9987H44.4912M44.4912 0.747696H5C2.79086 0.747696 1 2.53856 1 4.7477L1 8.18263C1 8.96953 1.37049 9.7105 2 10.1826V10.1826C2.62951 10.6548 3 11.3957 3 12.1826V29.818C3 30.7235 2.64029 31.592 2 32.2323V32.2323C1.35971 32.8725 1 33.741 1 34.6465V35.9987C1 38.2079 2.79086 39.9987 5 39.9987H44.4912M44.4912 0.747696V20.3732V39.9987" stroke="#50B388"/>
<defs>
<linearGradient id="paint0_linear_2143_8325" x1="1" y1="20.3732" x2="359.681" y2="20.3732" gradientUnits="userSpaceOnUse">
<stop stop-color="#00694A"/>
<stop offset="0.5" stop-color="#00815D"/>
<stop offset="1" stop-color="#00694A"/>
</linearGradient>
</defs>
</svg>
