<svg width="27" height="31" viewBox="0 0 27 31" fill="none" xmlns="http://www.w3.org/2000/svg">
<g style="mix-blend-mode:lighten" clip-path="url(#clip0_645_4450)">
<mask id="path-1-inside-1_645_4450" fill="white">
<path d="M22.5436 16.4695C22.506 12.5495 25.9692 10.6676 26.1258 10.5759C24.177 7.91115 21.1441 7.5461 20.0621 7.50315C17.4824 7.25913 15.026 8.92238 13.7184 8.92238C12.4109 8.92238 10.3889 7.53829 8.25 7.57734C5.43431 7.61638 2.84213 9.10589 1.39251 11.4602C-1.52971 16.1982 0.646813 23.2202 3.49174 27.066C4.88496 28.9459 6.54345 31.064 8.72415 30.9859C10.8255 30.9079 11.6192 29.717 14.155 29.717C16.6908 29.717 17.4051 30.9859 19.6255 30.9489C21.8835 30.9079 23.3164 29.0279 24.6992 27.1421C26.295 24.9596 26.9551 22.8473 26.9927 22.736C26.9425 22.7165 22.5895 21.1567 22.5436 16.4695Z"/>
</mask>
<path d="M22.5436 16.4695C22.506 12.5495 25.9692 10.6676 26.1258 10.5759C24.177 7.91115 21.1441 7.5461 20.0621 7.50315C17.4824 7.25913 15.026 8.92238 13.7184 8.92238C12.4109 8.92238 10.3889 7.53829 8.25 7.57734C5.43431 7.61638 2.84213 9.10589 1.39251 11.4602C-1.52971 16.1982 0.646813 23.2202 3.49174 27.066C4.88496 28.9459 6.54345 31.064 8.72415 30.9859C10.8255 30.9079 11.6192 29.717 14.155 29.717C16.6908 29.717 17.4051 30.9859 19.6255 30.9489C21.8835 30.9079 23.3164 29.0279 24.6992 27.1421C26.295 24.9596 26.9551 22.8473 26.9927 22.736C26.9425 22.7165 22.5895 21.1567 22.5436 16.4695Z" fill="url(#paint0_linear_645_4450)"/>
<path d="M26.1258 10.5759L26.933 9.98556L27.5866 10.8792L26.6312 11.4388L26.1258 10.5759ZM20.0621 7.50315L20.0224 8.50236L19.9951 8.50128L19.9679 8.49871L20.0621 7.50315ZM8.25 7.57734L8.26825 8.57718L8.26386 8.57724L8.25 7.57734ZM1.39251 11.4602L2.24404 11.9845L2.24364 11.9852L1.39251 11.4602ZM3.49174 27.066L2.68832 27.6614L2.6878 27.6607L3.49174 27.066ZM8.72415 30.9859L8.76128 31.9853L8.75993 31.9853L8.72415 30.9859ZM19.6255 30.9489L19.6437 31.9487L19.6422 31.9487L19.6255 30.9489ZM24.6992 27.1421L25.5064 27.7323L25.5056 27.7334L24.6992 27.1421ZM26.9927 22.736L27.3556 21.8042L28.2459 22.1509L27.9401 23.0561L26.9927 22.736ZM21.5436 16.4791C21.5217 14.1977 22.525 12.5147 23.5208 11.4157C24.0178 10.8672 24.5196 10.4557 24.9083 10.1742C25.1034 10.033 25.2716 9.92332 25.3988 9.84455C25.5222 9.76814 25.6209 9.7127 25.6204 9.71298L26.6312 11.4388C26.4375 11.5522 23.512 13.1711 23.5435 16.4599L21.5436 16.4791ZM25.3187 11.1662C23.6468 8.88017 21.0139 8.54172 20.0224 8.50236L20.1017 6.50394C21.2743 6.55048 24.7072 6.94214 26.933 9.98556L25.3187 11.1662ZM19.9679 8.49871C18.9056 8.39822 17.8196 8.68819 16.7438 9.06503C16.2647 9.23288 15.6567 9.46708 15.2159 9.6146C14.7549 9.76892 14.2216 9.92238 13.7184 9.92238L13.7184 7.92238C13.8691 7.92238 14.1332 7.86794 14.5811 7.71802C15.0493 7.56131 15.4618 7.39495 16.0826 7.17748C17.2068 6.7837 18.6389 6.36406 20.1563 6.50759L19.9679 8.49871ZM13.7184 9.92238C13.2341 9.92238 12.7438 9.79738 12.3106 9.65986C11.8771 9.52225 11.3925 9.33471 10.9536 9.1748C10.0215 8.83516 9.13529 8.56134 8.26825 8.57717L8.23175 6.5775C9.50362 6.55429 10.6979 6.95299 11.6383 7.29564C12.1357 7.47687 12.5355 7.63291 12.9157 7.7536C13.2962 7.87437 13.549 7.92238 13.7184 7.92238L13.7184 9.92238ZM8.26386 8.57724C5.79126 8.61153 3.51467 9.92088 2.24404 11.9845L0.540978 10.9359C2.16958 8.2909 5.07736 6.62123 8.23613 6.57743L8.26386 8.57724ZM2.24364 11.9852C0.958811 14.0683 0.754824 16.7276 1.26206 19.412C1.76816 22.0903 2.96158 24.6678 4.29568 26.4713L2.6878 27.6607C1.17697 25.6183 -0.140329 22.7619 -0.703165 19.7833C-1.26487 16.8107 -1.09601 13.5901 0.541375 10.9353L2.24364 11.9852ZM4.29516 26.4706C4.99727 27.4179 5.70192 28.3336 6.47167 29.0081C7.23581 29.6777 7.95523 30.0128 8.68836 29.9866L8.75993 31.9853C7.31237 32.0371 6.1122 31.3523 5.15361 30.5123C4.20064 29.6773 3.37944 28.5939 2.68832 27.6614L4.29516 26.4706ZM8.68701 29.9866C9.5387 29.955 10.1047 29.7101 10.9091 29.3922C11.732 29.067 12.7018 28.717 14.155 28.717L14.155 30.717C13.0724 30.717 12.3774 30.9625 11.6442 31.2522C10.8925 31.5493 10.0109 31.9388 8.76128 31.9853L8.68701 29.9866ZM14.155 28.717C15.6209 28.717 16.5795 29.0947 17.3834 29.4198C18.1553 29.7319 18.7212 29.9638 19.6088 29.949L19.6422 31.9487C18.3095 31.971 17.408 31.587 16.6337 31.2739C15.8914 30.9738 15.2249 30.717 14.155 30.717L14.155 28.717ZM19.6074 29.949C20.4323 29.934 21.1374 29.5919 21.8325 28.9843C22.5496 28.3576 23.1918 27.5067 23.8928 26.5508L25.5056 27.7334C24.8238 28.6633 24.0582 29.6953 23.1486 30.4902C22.2171 31.3044 21.0768 31.9227 19.6437 31.9487L19.6074 29.949ZM23.892 26.5519C25.3926 24.4996 26.0135 22.5102 26.0453 22.4159L27.9401 23.0561C27.9515 23.0224 27.9114 23.1432 27.8953 23.1903C27.868 23.2707 27.8298 23.3795 27.7802 23.5129C27.6811 23.7795 27.5365 24.1439 27.3411 24.5751C26.9514 25.4353 26.3547 26.5722 25.5064 27.7323L23.892 26.5519ZM26.6298 23.6679C26.638 23.6711 26.5379 23.6344 26.3915 23.571C26.2456 23.5078 26.0464 23.4153 25.8115 23.2898C25.3438 23.0398 24.7243 22.6537 24.1021 22.1005C22.8474 20.9849 21.57 19.1727 21.5436 16.4793L23.5435 16.4597C23.5824 20.4244 27.2673 21.7698 27.3556 21.8042L26.6298 23.6679Z" fill="#AECED0" mask="url(#path-1-inside-1_645_4450)"/>
<mask id="path-3-inside-2_645_4450" fill="white">
<path d="M18.3721 4.95924C19.5293 3.64932 20.3105 1.82791 20.0953 0.012451C18.4284 0.0749885 16.4107 1.05103 15.2138 2.36095C14.1423 3.51864 13.2023 5.37316 13.457 7.15166C15.3161 7.28636 17.2148 6.26723 18.3721 4.95924Z"/>
</mask>
<path d="M18.3721 4.95924C19.5293 3.64932 20.3105 1.82791 20.0953 0.012451C18.4284 0.0749885 16.4107 1.05103 15.2138 2.36095C14.1423 3.51864 13.2023 5.37316 13.457 7.15166C15.3161 7.28636 17.2148 6.26723 18.3721 4.95924Z" fill="url(#paint1_linear_645_4450)"/>
<path d="M20.0953 0.012451L21.0884 -0.105244L20.9798 -1.02143L20.0578 -0.986846L20.0953 0.012451ZM15.2138 2.36095L15.9477 3.04023L15.952 3.0355L15.2138 2.36095ZM13.457 7.15166L12.4671 7.29343L12.5813 8.09083L13.3848 8.14905L13.457 7.15166ZM19.1216 5.6213C20.4145 4.15772 21.3454 2.06347 21.0884 -0.105244L19.1023 0.130146C19.2756 1.59235 18.6441 3.14092 17.6227 4.29718L19.1216 5.6213ZM20.0578 -0.986846C18.1018 -0.913466 15.8382 0.195133 14.4756 1.6864L15.952 3.0355C16.9832 1.90693 18.7549 1.06344 20.1328 1.01175L20.0578 -0.986846ZM14.4799 1.68168C13.2944 2.9625 12.1538 5.10573 12.4671 7.29343L14.4469 7.00989C14.2508 5.6406 14.9901 4.07478 15.9477 3.04021L14.4799 1.68168ZM13.3848 8.14905C15.6297 8.31171 17.8126 7.10069 19.121 5.62191L17.6232 4.29657C16.617 5.43377 15.0025 6.26102 13.5293 6.15427L13.3848 8.14905Z" fill="#AECED0" mask="url(#path-3-inside-2_645_4450)"/>
</g>
<defs>
<linearGradient id="paint0_linear_645_4450" x1="-1.49385" y1="27.2265" x2="23.6939" y2="24.7313" gradientUnits="userSpaceOnUse">
<stop stop-color="#00549B"/>
<stop offset="1" stop-color="#0C5B57"/>
</linearGradient>
<linearGradient id="paint1_linear_645_4450" x1="13.0417" y1="1.15664" x2="19.3303" y2="1.66633" gradientUnits="userSpaceOnUse">
<stop stop-color="#00549B"/>
<stop offset="1" stop-color="#0C5B57"/>
</linearGradient>
<clipPath id="clip0_645_4450">
<rect width="27" height="31" fill="white"/>
</clipPath>
</defs>
</svg>
