<svg width="12" height="10" viewBox="0 0 12 10" fill="none" xmlns="http://www.w3.org/2000/svg">
<path d="M6.0001 0.259277C3.0015 0.259277 0.570801 2.27162 0.570801 4.75412C0.570801 6.50912 1.78674 8.02834 3.55838 8.76826L3.01603 9.34084C2.85291 9.51287 3.01627 9.79131 3.24596 9.73295L5.30611 9.211C5.53369 9.23514 5.76502 9.24873 6.00033 9.24873C8.99893 9.24873 11.4296 7.23639 11.4296 4.75389C11.4294 2.27162 8.99869 0.259277 6.0001 0.259277ZM2.76666 4.75389C2.76666 4.3524 3.09221 4.02686 3.49369 4.02686C3.89518 4.02686 4.22072 4.3524 4.22072 4.75389C4.22072 5.15537 3.89518 5.48092 3.49369 5.48092C3.09221 5.48092 2.76666 5.15537 2.76666 4.75389ZM6.0001 5.73053C5.4608 5.73053 5.02369 5.29342 5.02369 4.75412C5.02369 4.21482 5.4608 3.77771 6.0001 3.77771C6.53939 3.77771 6.9765 4.21482 6.9765 4.75412C6.9765 5.29318 6.53939 5.73053 6.0001 5.73053ZM8.5065 5.48092C8.10502 5.48092 7.77947 5.15537 7.77947 4.75389C7.77947 4.3524 8.10502 4.02686 8.5065 4.02686C8.90799 4.02686 9.23354 4.3524 9.23354 4.75389C9.23354 5.15537 8.90799 5.48092 8.5065 5.48092Z" fill="currentColor"/>
</svg>
