<svg width="18" height="22" viewBox="0 0 18 22" fill="none" xmlns="http://www.w3.org/2000/svg">
<path d="M12.0001 1.40001V5.00001C12.0001 5.66275 12.5373 6.20001 13.2001 6.20001H16.8001M5.40008 6.20001H7.80008M5.40008 9.80001H12.6001M5.40008 13.4H12.6001M15.0001 3.20001C14.466 2.72215 13.9118 2.15539 13.5619 1.78729C13.3291 1.54234 13.0074 1.40001 12.6695 1.40001H3.5998C2.27432 1.40001 1.19981 2.47452 1.1998 3.8L1.19971 18.1999C1.1997 19.5254 2.27421 20.6 3.5997 20.6L14.3997 20.6C15.7252 20.6 16.7997 19.5255 16.7998 18.2001L16.8001 5.47784C16.8001 5.171 16.683 4.87604 16.4701 4.65514C16.0763 4.24666 15.4187 3.57453 15.0001 3.20001Z" stroke="currentColor" stroke-linecap="round" stroke-linejoin="round"/>
</svg>
