<svg width="20" height="20" viewBox="0 0 20 20" fill="none" xmlns="http://www.w3.org/2000/svg">
<path d="M10.6999 8.40039H4.39986C3.9028 8.40039 3.49986 8.80333 3.49986 9.30039V15.6004C3.49986 16.0974 3.9028 16.5004 4.39986 16.5004H10.6999C11.1969 16.5004 11.5999 16.0974 11.5999 15.6004V9.30039C11.5999 8.80333 11.1969 8.40039 10.6999 8.40039Z" stroke="currentColor" stroke-linecap="round" stroke-linejoin="round"/>
<mask id="path-2-inside-1_3766_2588" fill="white">
<path d="M13.9 13.1H14.6C15.3732 13.1 16 12.4732 16 11.7V5.4C16 4.6268 15.3732 4 14.6 4H8.3C7.52678 4 6.9 4.6268 6.9 5.4V6.1"/>
</mask>
<path d="M13.9 14.1C13.3477 14.1 12.9 13.6523 12.9 13.1C12.9 12.5477 13.3477 12.1 13.9 12.1V14.1ZM7.9 6.1C7.9 6.65228 7.45229 7.1 6.9 7.1C6.34772 7.1 5.9 6.65228 5.9 6.1H7.9ZM13.9 12.1H14.6V14.1H13.9V12.1ZM14.6 12.1C14.8209 12.1 15 11.9209 15 11.7H17C17 13.0255 15.9255 14.1 14.6 14.1V12.1ZM15 11.7V5.4H17V11.7H15ZM15 5.4C15 5.17909 14.8209 5 14.6 5V3C15.9255 3 17 4.07452 17 5.4H15ZM14.6 5H8.3V3H14.6V5ZM8.3 5C8.07908 5 7.9 5.17908 7.9 5.4H5.9C5.9 4.07453 6.97449 3 8.3 3V5ZM7.9 5.4V6.1H5.9V5.4H7.9Z" fill="currentColor" mask="url(#path-2-inside-1_3766_2588)"/>
</svg>
