<svg xmlns="http://www.w3.org/2000/svg" width="24" height="24" viewBox="0 0 24 24" fill="none">
  <path fill-rule="evenodd" clip-rule="evenodd" d="M10.7129 3.22877L5.91143 4.88046C5.10404 5.1582 4.56201 5.91787 4.56201 6.77169V13.7707C4.56201 16.354 6.90681 18.6971 11.7329 20.9341L11.9852 20.9887L12.2446 20.9438C17.0172 18.9528 19.438 16.5398 19.438 13.7707V6.8199C19.438 5.97403 18.9058 5.21962 18.109 4.93583L13.3561 3.24308C12.5021 2.93893 11.5701 2.93389 10.7129 3.22877ZM15.9341 10.5288C16.2856 10.1774 16.2856 9.60752 15.9341 9.25605C15.5827 8.90458 15.0128 8.90458 14.6614 9.25605L11.2484 12.669L9.96957 11.4273C9.61295 11.081 9.04316 11.0895 8.69691 11.4461C8.35067 11.8027 8.35907 12.3725 8.7157 12.7187L10.6308 14.5782C10.9837 14.9208 11.5463 14.9166 11.8942 14.5688L15.9341 10.5288Z" fill="currentColor"/>
</svg>