<svg width="24" height="24" viewBox="0 0 24 24" fill="none" xmlns="http://www.w3.org/2000/svg">
<g clip-path="url(#clip0_627_1311)">
<path d="M11.9727 5.69931C15.9865 5.69931 19.2441 9.01277 19.2441 13.0951C19.2441 13.3607 19.2303 13.6404 19.2028 13.8922C18.378 14.2834 17.4845 14.591 16.5499 14.8149C15.6911 15.0174 14.8179 15.1529 13.9381 15.2202C13.713 14.7908 13.2684 14.5216 12.7836 14.521H11.3266C10.6116 14.521 10.0206 15.1223 10.0206 15.8494C10.0206 16.5765 10.6116 17.1774 11.3266 17.1774H12.7836C13.3195 17.1774 13.787 16.8421 13.9794 16.3806C14.9552 16.2968 15.9039 16.1571 16.7975 15.9474C17.5396 15.7656 18.2407 15.5558 18.9144 15.2761C17.9932 18.296 15.2303 20.4908 11.9589 20.4908C7.94506 20.4908 4.68748 17.1774 4.68748 13.0951C4.68748 9.01275 7.94504 5.69931 11.9727 5.69931ZM12.0273 2.40002C9.11326 2.40002 6.48802 3.60249 4.5773 5.54546C3.33397 6.80883 2.4226 8.36024 1.92446 10.0614H1.55343C0.701176 10.0614 0 10.7743 0 11.6412V14.102C0 14.9684 0.701176 15.6818 1.55346 15.6818H3.5877V10.2711C4.01761 8.93819 4.75721 7.72611 5.7459 6.73416C7.35404 5.09847 9.58073 4.07779 12.0411 4.07779C14.5019 4.07779 16.7286 5.08431 18.3367 6.73416C19.2736 7.68903 19.9872 8.83974 20.4261 10.1035V15.6955H22.4469C23.2988 15.6955 24 14.9826 24 14.1157V11.6412C24 10.7743 23.2988 10.0614 22.4469 10.0614H22.1306C21.6325 8.36025 20.7211 6.80883 19.4778 5.54546C17.5808 3.60249 14.9414 2.40002 12.0273 2.40002Z" fill="white"/>
</g>
<defs>
<clipPath id="clip0_627_1311">
<rect width="24" height="24" fill="white"/>
</clipPath>
</defs>
</svg>
