<svg width="22" height="22" viewBox="0 0 22 22" fill="none" xmlns="http://www.w3.org/2000/svg">
<g id="Frame 745">
<g id="Group 140">
<path id="Line 49" d="M6 4H16" stroke="white" stroke-linecap="round"/>
<ellipse id="Ellipse 60" cx="11" cy="11.5" rx="3" ry="6" fill="white"/>
<path id="Ellipse 62" d="M15.4999 14.5C15.4999 16.1569 14.8284 17.5 13.9999 17.5C13.1715 17.5 12.4999 16.1569 12.4999 14.5C12.4999 12.8431 13.1715 11.5 13.9999 11.5C14.8284 11.5 15.4999 12.8431 15.4999 14.5Z" fill="white"/>
<path id="Ellipse 63" d="M9.49988 14.5C9.49988 16.1569 8.82831 17.5 7.99988 17.5C7.17145 17.5 6.49988 16.1569 6.49988 14.5C6.49988 12.8431 7.17145 11.5 7.99988 11.5C8.82831 11.5 9.49988 12.8431 9.49988 14.5Z" fill="white"/>
<rect id="Rectangle 1077" x="9.80005" y="8.59998" width="2.4" height="1.2" rx="0.6" fill="url(#paint1_linear_2_1104)"/>
</g>
</g>
<defs>
<linearGradient id="paint1_linear_2_1104" x1="10.9995" y1="9.9652" x2="10.9995" y2="8.57187" gradientUnits="userSpaceOnUse">
<stop stop-color="transparent"/>
<stop offset="1" stop-color="transparent"/>
</linearGradient>
</defs>
</svg>
