<svg width="17" height="16" viewBox="0 0 17 16" fill="none" xmlns="http://www.w3.org/2000/svg">
<g id="&#232;&#173;&#166;&#229;&#145;&#138;">
<path id="Vector" d="M8.81297 14C12.1267 14 14.8132 11.3136 14.8132 8C14.8132 4.68594 12.1267 2 8.81297 2C5.49925 2 2.81272 4.68594 2.81272 8C2.81272 11.3136 5.49924 14 8.81297 14ZM8.81297 2.95999C11.5965 2.95999 13.8532 5.21656 13.8532 8C13.8532 10.7834 11.5965 13.04 8.81297 13.04C6.02942 13.04 3.77279 10.7835 3.77279 8C3.77279 5.21655 6.02942 2.95999 8.81297 2.95999ZM9.63471 9.39033L10.0125 6.46999V4.87907H7.61338V6.46999L7.99121 9.39033H9.63471ZM7.87873 11.6H9.69755V10.3747H7.87873V11.6Z" fill="#6691D5"/>
</g>
</svg>
