<svg width="29" height="24" viewBox="0 0 29 24" fill="none" xmlns="http://www.w3.org/2000/svg">
<path fill-rule="evenodd" clip-rule="evenodd" d="M23.5575 23.6925C23.9676 24.1025 24.6324 24.1025 25.0425 23.6925L27.8425 20.8925C28.2525 20.4824 28.2525 19.8176 27.8425 19.4075C27.4324 18.9975 26.7676 18.9975 26.3575 19.4075L25.35 20.4151V14.55C25.35 13.9701 24.8799 13.5 24.3 13.5C23.7201 13.5 23.25 13.9701 23.25 14.55V20.4151L22.2425 19.4075C21.8324 18.9975 21.1676 18.9975 20.7575 19.4075C20.3475 19.8176 20.3475 20.4824 20.7575 20.8925L23.5575 23.6925Z" fill="white"/>
<path d="M11.7 0.549995H17.3C22.5797 0.549995 25.2196 0.549995 26.8598 2.1902C28.0408 3.37115 28.3714 5.07035 28.464 7.89999H0.536003C0.628585 5.07035 0.959245 3.37115 2.1402 2.1902C3.7804 0.549995 6.42027 0.549995 11.7 0.549995Z" fill="white"/>
<path fill-rule="evenodd" clip-rule="evenodd" d="M11.7 22.95H17.3C18.2233 22.95 19.0659 22.95 19.8365 22.9412L19.2726 22.3774C18.0425 21.1472 18.0425 19.1528 19.2726 17.9226C19.7985 17.3967 20.4641 17.0956 21.15 17.0194V14.55C21.15 12.8103 22.5603 11.4 24.3 11.4C26.0397 11.4 27.45 12.8103 27.45 14.55V17.0194C27.7634 17.0542 28.0726 17.136 28.3661 17.2647C28.5 15.834 28.5 14.0404 28.5 11.75C28.5 11.1313 28.5 10.5488 28.4974 9.99999H0.502639C0.5 10.5488 0.5 11.1313 0.5 11.75C0.5 17.0297 0.5 19.6696 2.1402 21.3098C3.7804 22.95 6.42027 22.95 11.7 22.95ZM6.1 16.3C5.5201 16.3 5.05 16.7701 5.05 17.35C5.05 17.9299 5.5201 18.4 6.1 18.4H11.7C12.2799 18.4 12.75 17.9299 12.75 17.35C12.75 16.7701 12.2799 16.3 11.7 16.3H6.1ZM15.2 16.3C14.6201 16.3 14.15 16.7701 14.15 17.35C14.15 17.9299 14.6201 18.4 15.2 18.4H17.3C17.8799 18.4 18.35 17.9299 18.35 17.35C18.35 16.7701 17.8799 16.3 17.3 16.3H15.2Z" fill="white"/>
</svg>