<svg width="42" height="51" viewBox="0 0 42 51" fill="none" xmlns="http://www.w3.org/2000/svg">
<path d="M5.93466 39.772C2.26702 31.4326 3.79001 20.2008 10.1928 12.4624C16.5956 4.72408 25.858 2.92094 32.7581 7.31602L33.2554 6.71499L36.5811 10.7344C43.4813 19.0738 42.8285 33.3484 35.1514 42.6269C27.4431 51.9429 15.6321 52.6943 8.732 44.3924L5.43736 40.373L5.93466 39.772Z" fill="url(#paint0_linear_3105_26460)"/>
<path d="M5.43736 40.373C12.3064 48.7124 24.1485 47.9235 31.8256 38.6075C39.5028 29.329 40.1555 15.0544 33.2554 6.71499C26.3553 -1.58681 14.5442 -0.835503 6.86709 8.48055C-0.810075 17.759 -1.46276 32.0336 5.43736 40.373Z" fill="url(#paint1_linear_3105_26460)"/>
<path d="M31.3905 38.0815C38.9744 28.9157 39.6893 14.829 33.0378 6.45205C33.1207 6.55222 33.1932 6.63986 33.2554 6.71499C40.1555 15.0544 39.5028 29.329 31.8256 38.6075C24.1485 47.9235 12.3064 48.7124 5.43736 40.373C5.35447 40.2728 5.28192 40.1727 5.21976 40.0725C12.1199 48.1489 23.7755 47.2849 31.3905 38.0815Z" fill="url(#paint2_linear_3105_26460)"/>
<path fill-rule="evenodd" clip-rule="evenodd" d="M21.3822 0.967607V0.178711C15.9429 0.178711 10.4726 2.9961 6.40088 7.91708C2.57784 12.5375 0.308877 18.5103 0.0291428 24.7461C-0.250592 30.9818 1.48999 36.7292 4.97113 40.9365L8.29685 44.9184C11.4983 48.8251 15.8808 50.9287 20.6363 50.9287C26.0756 50.9287 31.5459 48.1113 35.6176 43.1903C43.5434 33.6113 44.165 18.8109 37.0474 10.171L33.7216 6.15151C30.5202 2.28235 26.1377 0.178711 21.3822 0.178711V0.967607C25.7958 0.967607 30.054 2.84582 33.2554 6.71499L36.5811 10.7344C43.4813 19.0738 42.8285 33.3484 35.1514 42.6269C31.0175 47.623 25.7337 50.1398 20.6363 50.1398C16.2227 50.1398 11.9334 48.2616 8.732 44.3924L5.43736 40.373C-1.46276 32.0336 -0.810075 17.759 6.86709 8.48055C10.9699 3.48444 16.2848 0.967607 21.3822 0.967607Z" fill="#EF8521"/>
<path d="M8.42119 36.7668C13.8294 43.303 23.1228 42.702 29.1526 35.4144C35.1825 28.0893 35.7109 16.8574 30.2716 10.3212C24.8634 3.78491 15.57 4.38597 9.54012 11.7111C3.51029 18.9987 2.98191 30.2305 8.42119 36.7668Z" fill="url(#paint3_linear_3105_26460)"/>
<path d="M10.8145 13.2137C5.0022 20.2383 4.31842 30.8691 9.04282 37.4805C8.83561 37.2551 8.6284 37.0172 8.42119 36.7668C2.98191 30.2305 3.51029 18.9987 9.54012 11.7111C15.57 4.38597 24.8634 3.78491 30.2716 10.3212C30.4788 10.5716 30.686 10.8346 30.8932 11.1101C25.3918 5.36266 16.5956 6.22664 10.8145 13.2137Z" fill="#DC4A26"/>
<path d="M13.674 16.6696C17.4349 12.1243 23.0295 11.373 26.8215 14.6411L26.8837 14.566L27.8783 15.7305C31.6081 20.2383 31.2351 27.9391 27.1012 32.9352C22.9674 37.9313 16.5957 38.3445 12.8969 33.8743L11.9023 32.6722L11.9956 32.5595C9.26038 28.0142 9.91311 21.215 13.674 16.6696Z" fill="#DC4A26"/>
<path d="M11.9023 32.6722C15.601 37.1424 21.9728 36.7292 26.1066 31.7331C30.2716 26.737 30.6135 19.0362 26.8837 14.566C23.185 10.0582 16.8132 10.4715 12.6793 15.5052C8.54549 20.5013 8.20359 28.202 11.9023 32.6722Z" fill="url(#paint4_linear_3105_26460)"/>
<defs>
<linearGradient id="paint0_linear_3105_26460" x1="47.5826" y1="61.3849" x2="47.5826" y2="-10.2776" gradientUnits="userSpaceOnUse">
<stop stop-color="#E86124"/>
<stop offset="1" stop-color="#FFD140"/>
</linearGradient>
<linearGradient id="paint1_linear_3105_26460" x1="47.5892" y1="61.3732" x2="47.5892" y2="-10.2814" gradientUnits="userSpaceOnUse">
<stop stop-color="#F0E92D"/>
<stop offset="1" stop-color="#FFF57F"/>
</linearGradient>
<linearGradient id="paint2_linear_3105_26460" x1="20.9946" y1="76.2769" x2="70.8297" y2="34.9989" gradientUnits="userSpaceOnUse">
<stop stop-color="#E86124"/>
<stop offset="0.545" stop-color="#FFF57F"/>
<stop offset="0.994" stop-color="#E86124"/>
</linearGradient>
<linearGradient id="paint3_linear_3105_26460" x1="47.5853" y1="61.3835" x2="47.5853" y2="-10.2798" gradientUnits="userSpaceOnUse">
<stop stop-color="#E8C13F"/>
<stop offset="1" stop-color="#EF8521"/>
</linearGradient>
<linearGradient id="paint4_linear_3105_26460" x1="32.1451" y1="40.7934" x2="32.1451" y2="6.43112" gradientUnits="userSpaceOnUse">
<stop stop-color="#BE6D00"/>
<stop offset="1" stop-color="#FFF57F"/>
</linearGradient>
</defs>
</svg>
