<svg width="33" height="33" viewBox="0 0 33 33" fill="none" xmlns="http://www.w3.org/2000/svg">
<path d="M22.4443 18.201C22.4443 18.4977 22.3564 18.7877 22.1915 19.0344C22.0267 19.2811 21.7924 19.4733 21.5184 19.5868C21.2443 19.7004 20.9427 19.7301 20.6517 19.6722C20.3607 19.6143 20.0935 19.4715 19.8837 19.2617C19.6739 19.0519 19.531 18.7846 19.4732 18.4937C19.4153 18.2027 19.445 17.9011 19.5585 17.627C19.672 17.3529 19.8643 17.1186 20.111 16.9538C20.3577 16.789 20.6477 16.701 20.9443 16.701C21.342 16.7015 21.7233 16.8596 22.0045 17.1409C22.2857 17.4221 22.4439 17.8033 22.4443 18.201ZM11.9443 16.701C11.6477 16.701 11.3577 16.789 11.111 16.9538C10.8643 17.1186 10.672 17.3529 10.5585 17.627C10.445 17.9011 10.4153 18.2027 10.4732 18.4937C10.531 18.7846 10.6739 19.0519 10.8837 19.2617C11.0935 19.4715 11.3607 19.6143 11.6517 19.6722C11.9427 19.7301 12.2443 19.7004 12.5184 19.5868C12.7924 19.4733 13.0267 19.2811 13.1915 19.0344C13.3564 18.7877 13.4443 18.4977 13.4443 18.201C13.4439 17.8033 13.2857 17.4221 13.0045 17.1409C12.7233 16.8596 12.342 16.7015 11.9443 16.701ZM30.4443 8.70103V18.701C30.4416 21.0871 29.4926 23.3748 27.8053 25.062C26.1181 26.7493 23.8305 27.6983 21.4443 27.701H11.4443C9.05821 27.6983 6.77059 26.7493 5.08334 25.062C3.3961 23.3748 2.44702 21.0871 2.44434 18.701V8.70103C2.4444 7.72743 2.79953 6.78727 3.44317 6.05677C4.0868 5.32627 4.97475 4.85557 5.94059 4.7329C6.90643 4.61023 7.88386 4.84401 8.68967 5.39042C9.49548 5.93683 10.0744 6.75836 10.3178 7.70103H22.5709C22.8143 6.75836 23.3932 5.93683 24.199 5.39042C25.0048 4.84401 25.9822 4.61023 26.9481 4.7329C27.9139 4.85557 28.8019 5.32627 29.4455 6.05677C30.0891 6.78727 30.4443 7.72743 30.4443 8.70103ZM25.4443 17.701C25.4443 17.1757 25.3409 16.6556 25.1399 16.1703C24.9388 15.685 24.6442 15.244 24.2728 14.8726C23.9013 14.5012 23.4604 14.2065 22.9751 14.0055C22.4898 13.8045 21.9696 13.701 21.4443 13.701H11.4443C10.3835 13.701 9.36605 14.1225 8.61591 14.8726C7.86576 15.6227 7.44434 16.6402 7.44434 17.701V18.701C7.44435 19.7619 7.86578 20.7793 8.61592 21.5294C9.36606 22.2796 10.3835 22.701 11.4443 22.701H21.4443C22.5052 22.701 23.5226 22.2796 24.2728 21.5295C25.0229 20.7793 25.4443 19.7619 25.4443 18.701V17.701Z" fill="currentColor"/>
</svg>
