<svg width="446" height="549" viewBox="0 0 446 549" fill="none" xmlns="http://www.w3.org/2000/svg">
<path d="M173 -9H272L242.331 270H202.669L173 -9Z" fill="url(#paint0_radial_1803_1807)" fill-opacity="0.25"/>
<path d="M272 549H173L202.669 270H242.331L272 549Z" fill="url(#paint1_radial_1803_1807)" fill-opacity="0.25"/>
<path d="M501.5 220.5V319.5L222.5 289.831V250.169L501.5 220.5Z" fill="url(#paint2_radial_1803_1807)" fill-opacity="0.25"/>
<path d="M-56.5 319.5L-56.5 220.5L222.5 250.169V289.831L-56.5 319.5Z" fill="url(#paint3_radial_1803_1807)" fill-opacity="0.25"/>
<path d="M384.781 37.7155L454.785 107.719L236.523 284.023L208.478 255.977L384.781 37.7155Z" fill="url(#paint4_radial_1803_1807)" fill-opacity="0.25"/>
<path d="M60.2188 502.285L-9.78482 432.281L208.478 255.977L236.523 284.023L60.2188 502.285Z" fill="url(#paint5_radial_1803_1807)" fill-opacity="0.25"/>
<path d="M454.784 432.281L384.781 502.285L208.477 284.023L236.522 255.977L454.784 432.281Z" fill="url(#paint6_radial_1803_1807)" fill-opacity="0.25"/>
<path d="M-9.78418 107.719L60.2194 37.7154L236.522 255.977L208.477 284.023L-9.78418 107.719Z" fill="url(#paint7_radial_1803_1807)" fill-opacity="0.25"/>
<defs>
<radialGradient id="paint0_radial_1803_1807" cx="0" cy="0" r="1" gradientUnits="userSpaceOnUse" gradientTransform="translate(222.5 270) rotate(90) scale(279)">
<stop stop-color="white"/>
<stop offset="1" stop-color="white" stop-opacity="0"/>
</radialGradient>
<radialGradient id="paint1_radial_1803_1807" cx="0" cy="0" r="1" gradientUnits="userSpaceOnUse" gradientTransform="translate(222.5 270) rotate(90) scale(279)">
<stop stop-color="white"/>
<stop offset="1" stop-color="white" stop-opacity="0"/>
</radialGradient>
<radialGradient id="paint2_radial_1803_1807" cx="0" cy="0" r="1" gradientUnits="userSpaceOnUse" gradientTransform="translate(222.5 270) rotate(90) scale(279)">
<stop stop-color="white"/>
<stop offset="1" stop-color="white" stop-opacity="0"/>
</radialGradient>
<radialGradient id="paint3_radial_1803_1807" cx="0" cy="0" r="1" gradientUnits="userSpaceOnUse" gradientTransform="translate(222.5 270) rotate(90) scale(279)">
<stop stop-color="white"/>
<stop offset="1" stop-color="white" stop-opacity="0"/>
</radialGradient>
<radialGradient id="paint4_radial_1803_1807" cx="0" cy="0" r="1" gradientUnits="userSpaceOnUse" gradientTransform="translate(222.5 270) rotate(90) scale(279)">
<stop stop-color="white"/>
<stop offset="1" stop-color="white" stop-opacity="0"/>
</radialGradient>
<radialGradient id="paint5_radial_1803_1807" cx="0" cy="0" r="1" gradientUnits="userSpaceOnUse" gradientTransform="translate(222.5 270) rotate(90) scale(279)">
<stop stop-color="white"/>
<stop offset="1" stop-color="white" stop-opacity="0"/>
</radialGradient>
<radialGradient id="paint6_radial_1803_1807" cx="0" cy="0" r="1" gradientUnits="userSpaceOnUse" gradientTransform="translate(222.5 270) rotate(90) scale(279)">
<stop stop-color="white"/>
<stop offset="1" stop-color="white" stop-opacity="0"/>
</radialGradient>
<radialGradient id="paint7_radial_1803_1807" cx="0" cy="0" r="1" gradientUnits="userSpaceOnUse" gradientTransform="translate(222.5 270) rotate(90) scale(279)">
<stop stop-color="white"/>
<stop offset="1" stop-color="white" stop-opacity="0"/>
</radialGradient>
</defs>
</svg>
