<svg width="10" height="14" viewBox="0 0 10 14" fill="none" xmlns="http://www.w3.org/2000/svg">
<g style="mix-blend-mode:multiply" opacity="0.6">
<path d="M5.91161 1.16145C4.97315 1.635 4.20474 2.40891 3.71873 3.37C3.54885 3.81814 3.41371 4.27973 3.31461 4.75035C3.29142 4.86078 3.27154 5.26453 3.19536 5.337C3.08355 5.3401 2.97243 5.35631 2.86411 5.38531C2.24798 5.64067 1.39004 6.19626 1.20786 6.79326C0.833543 8.07353 0.638106 8.86378 0.727543 9.41592C1.07867 11.6038 2.86079 11.5865 3.79823 12.0662C4.42429 12.3987 5.0731 12.6824 5.73936 12.9151C6.13023 13.0462 6.52773 13.2222 6.93186 13.0497C7.2626 12.8737 7.53837 12.6032 7.72686 12.2698C8.10344 11.6521 8.44199 11.0101 8.74048 10.3477C9.01211 9.81622 9.48248 9.1295 9.43942 8.49454C9.33954 8.10358 9.18674 7.72944 8.98561 7.38336C9.07504 7.21427 9.25392 6.82087 9.33673 6.64833C9.95286 5.39911 10.082 4.49844 9.46592 3.13189C8.70073 1.40301 7.44198 0.585155 5.91161 1.16145ZM4.94767 3.86003C5.19416 3.46323 5.56809 3.17072 6.00261 3.03479C6.43712 2.89887 6.90388 2.92839 7.31942 3.11809C7.75599 3.33227 8.09996 3.7087 8.28382 4.1735C8.46767 4.63829 8.47814 5.1579 8.31317 5.63032C8.23009 5.89013 8.13276 6.14477 8.02167 6.39296C7.96204 6.53445 7.89579 6.67248 7.82623 6.81397C7.75667 6.95545 7.62086 6.83812 7.49498 6.76911C6.97733 6.52727 6.44641 6.31755 5.90498 6.14105C5.63667 6.05133 5.36836 5.9616 5.10336 5.86498C4.95761 5.81667 4.81186 5.76145 4.66611 5.70279C4.52036 5.64412 4.35142 5.66828 4.39117 5.48883C4.48693 4.91501 4.67985 4.3635 4.96092 3.86003H4.94767Z" fill="#8A7D63"/>
</g>
<path d="M8.92549 2.29686C8.45437 1.47883 7.6926 0.887358 6.80549 0.650795C6.03497 0.478233 5.2321 0.557777 4.50661 0.878552C3.84411 1.17878 3.43999 1.83789 3.16505 2.53497C2.93008 3.17269 2.75481 3.83257 2.64168 4.50541C1.82349 4.35703 1.47236 5.90991 1.28686 6.51037C1.05499 7.2592 0.717114 7.98043 0.677364 8.78104C0.66174 9.06245 0.717862 9.34317 0.840034 9.59469C0.962206 9.84621 1.14608 10.0596 1.37299 10.2131C1.91955 10.6721 2.66486 10.9033 3.26111 11.2242C3.79111 11.4969 4.32443 11.7522 4.8743 11.9696C5.14593 12.0732 5.42418 12.156 5.70243 12.2423C6.2258 12.4079 6.65312 12.1387 6.98436 11.7108C7.38607 11.1575 7.72509 10.5577 7.99468 9.92327C8.32546 9.33022 8.61014 8.71054 8.84599 8.07016C8.90404 7.9107 8.9193 7.73779 8.89011 7.56998C8.86093 7.40218 8.78842 7.24582 8.68037 7.11772C8.58586 7.00891 8.48281 6.90849 8.3723 6.81749C8.73318 6.18658 9.01589 5.51058 9.21368 4.80564C9.44026 3.96261 9.33662 3.06038 8.92549 2.29686ZM7.52099 5.4475C7.43155 5.6649 7.32887 5.87541 7.22949 6.08591C6.80081 5.86191 6.35814 5.66822 5.90449 5.50616C5.34136 5.28531 4.74843 5.12312 4.19524 4.90571L3.80105 4.76078C3.90548 4.15486 4.10705 3.57157 4.3973 3.03534C4.6086 2.6881 4.91919 2.41872 5.28528 2.26518C5.65138 2.11163 6.0545 2.08168 6.4378 2.17953C6.83521 2.28102 7.19078 2.51292 7.45202 2.841C7.71326 3.16907 7.86635 3.57595 7.88868 4.00159C7.86821 4.50563 7.74275 4.99901 7.52099 5.4475Z" fill="url(#paint0_radial_7036_8867)"/>
<path d="M9.02303 4.91982C8.82315 5.5425 8.56114 6.14163 8.24128 6.70737C7.99763 6.52931 7.74314 6.36793 7.47941 6.22425L7.36016 6.15868C7.46616 5.90677 7.57547 5.65485 7.66822 5.40294C7.88616 4.91012 7.99269 4.37178 7.97959 3.82935C7.92917 3.42161 7.76615 3.0379 7.51035 2.72486C7.25455 2.41181 6.91698 2.18291 6.53866 2.06595C6.16058 1.95024 5.75755 1.95799 5.38384 2.08818C5.01013 2.21837 4.68368 2.46473 4.44847 2.79409C4.04111 3.35916 3.76451 4.0146 3.64022 4.70932C3.35485 4.61367 3.05855 4.55796 2.75909 4.54368H2.72266C2.82534 4.10887 2.91478 3.67406 3.05391 3.2496C3.19669 2.64174 3.46581 2.07394 3.84228 1.58628C4.18333 1.23088 4.61023 0.978112 5.07784 0.8547C5.59912 0.718385 6.14233 0.699561 6.67116 0.799486C7.11328 0.8949 7.52966 1.09103 7.89046 1.37383C8.25126 1.65662 8.54753 2.01907 8.75803 2.4352C8.95969 2.80974 9.08706 3.22268 9.13259 3.64949C9.17811 4.0763 9.14085 4.50829 9.02303 4.91982Z" fill="url(#paint1_radial_7036_8867)"/>
<g style="mix-blend-mode:multiply" opacity="0.7">
<path d="M8.92239 2.29692C8.63751 1.79717 8.23945 1.37774 7.76301 1.07531C7.5309 0.932287 7.28427 0.81655 7.02764 0.730225C7.39591 0.896392 7.73251 1.13017 8.02139 1.4204C8.31327 1.69673 8.54588 2.03414 8.70399 2.41056C8.86211 2.78698 8.94217 3.19393 8.93895 3.6048C8.92615 4.08927 8.82965 4.56738 8.65408 5.0162C8.5663 5.24144 8.44192 5.44923 8.28639 5.63045C8.19032 5.73053 7.89883 5.85131 7.95514 5.55799C8.04458 4.97824 8.35595 4.50202 8.30626 3.88777C8.29354 3.40737 8.16358 2.93826 7.92864 2.52467C7.45164 1.8345 6.50758 1.52392 5.7192 1.57224C5.25365 1.6247 4.81379 1.82096 4.4561 2.13579C4.0984 2.45062 3.83922 2.86965 3.71182 3.33908C3.65551 3.52543 3.42364 4.13623 3.2017 4.10517C2.7512 4.04306 3.09901 2.69722 3.2017 2.46256C3.19317 2.48732 3.18322 2.51152 3.17189 2.53503C2.93692 3.17275 2.76165 3.83263 2.64851 4.50547C1.83032 4.35708 1.4792 5.90997 1.2937 6.51042C1.06182 7.25926 0.72395 7.98049 0.6842 8.78109C0.668576 9.06251 0.724698 9.34323 0.84687 9.59475C0.969042 9.84627 1.15291 10.0596 1.37982 10.2132C1.92639 10.6722 2.6717 10.9034 3.26795 11.2243C3.79795 11.4969 4.33126 11.7523 4.88114 11.9697C5.15276 12.0732 5.43101 12.156 5.70926 12.2423C6.23264 12.408 6.65995 12.1388 6.9912 11.7109C7.39291 11.1575 7.73193 10.5577 8.00151 9.92333C8.3323 9.33028 8.61698 8.7106 8.85283 8.07022C8.91088 7.91076 8.92613 7.73785 8.89695 7.57004C8.86777 7.40223 8.79526 7.24588 8.6872 7.11778C8.59269 7.00897 8.48965 6.90854 8.37914 6.81755C8.74002 6.18664 9.02273 5.51064 9.22051 4.8057C9.44409 3.96131 9.33687 3.05901 8.92239 2.29692ZM4.3942 3.02505C4.60688 2.67969 4.91807 2.41241 5.28405 2.26077C5.65004 2.10912 6.05243 2.08074 6.4347 2.17959C6.83211 2.28108 7.18767 2.51298 7.44892 2.84105C7.71016 3.16913 7.86324 3.57601 7.88558 4.00164C7.86703 4.51039 7.74151 5.00868 7.51789 5.46136C7.42845 5.67877 7.32576 5.88927 7.22639 6.09977C6.79771 5.87577 6.35504 5.68208 5.90139 5.52003C5.33826 5.28537 4.74533 5.12318 4.19214 4.90577L3.79795 4.76084C3.9013 4.15135 4.1029 3.56447 4.3942 3.02505ZM8.09426 7.66992C8.09426 8.33248 7.5477 9.05026 7.23633 9.63691C7.02657 10.1454 6.73408 10.6124 6.37176 11.0173C5.62976 11.6867 4.51345 11.2416 3.72176 10.9206C3.14885 10.6936 2.59489 10.4178 2.06551 10.0959C1.70252 9.9327 1.40595 9.64206 1.22745 9.27457C0.8962 8.31178 1.5587 7.22475 1.88995 6.34823C2.04895 5.89962 2.2212 5.34058 2.68495 5.15423C3.29114 4.90577 4.0762 5.26466 4.67245 5.41305C5.35027 5.56461 6.00929 5.79616 6.63676 6.10322C7.01289 6.30619 7.36999 6.54534 7.70339 6.81755C7.82878 6.91713 7.92962 7.04637 7.99758 7.19458C8.06555 7.34279 8.09869 7.50572 8.09426 7.66992Z" fill="#C3BCB3"/>
</g>
<g style="mix-blend-mode:screen" opacity="0.4">
<path d="M8.09431 7.66979C8.0937 7.75676 8.08482 7.84346 8.06781 7.92861C8.2638 7.97416 8.4573 8.03061 8.6475 8.0977L8.81975 8.14256C8.82896 8.11895 8.83671 8.09474 8.84294 8.07009C8.90099 7.91064 8.91624 7.73772 8.88706 7.56992C8.85788 7.40211 8.78537 7.24576 8.67731 7.11765C8.67731 7.11765 8.58456 7.01758 8.53819 6.96927L8.38912 6.83813L7.83594 6.97962C8.00393 7.16659 8.09644 7.41371 8.09431 7.66979Z" fill="#C3BCB3"/>
</g>
<g style="mix-blend-mode:screen" opacity="0.4">
<path d="M8.74073 7.3903H8.83348C8.79703 7.29286 8.74432 7.2029 8.6778 7.12458L8.62148 7.06592L8.29023 7.13148C8.18092 7.14874 8.07492 7.17635 7.95898 7.19705C7.99767 7.2652 8.02773 7.33827 8.04842 7.41446C8.2803 7.38685 8.50886 7.40065 8.74073 7.3903Z" fill="#C3BCB3"/>
</g>
<g style="mix-blend-mode:screen" opacity="0.4">
<path d="M8.48365 7.84555C8.61284 7.87661 8.74865 7.90077 8.88115 7.92147C8.89146 7.85065 8.897 7.77915 8.89771 7.70752H8.88115C8.61946 7.70752 8.35446 7.70752 8.09277 7.70752C8.09453 7.72703 8.09453 7.74667 8.09277 7.76618C8.22488 7.78177 8.35559 7.80832 8.48365 7.84555Z" fill="#C3BCB3"/>
</g>
<g style="mix-blend-mode:multiply" opacity="0.7">
<path d="M6.15071 11.1692C5.9877 11.2621 5.80874 11.3207 5.62402 11.3417C5.71797 11.6392 5.76713 11.95 5.76977 12.2631C5.9891 12.3065 6.2158 12.2831 6.42264 12.1955C6.62948 12.108 6.80766 11.9601 6.93577 11.7696C6.79665 11.6765 6.66415 11.6005 6.60452 11.5488C6.43902 11.4419 6.28663 11.3144 6.15071 11.1692Z" fill="#C3BCB3"/>
</g>
<g style="mix-blend-mode:multiply" opacity="0.7">
<path d="M1.19882 9.26752C1.13941 9.09695 1.10697 8.91748 1.10275 8.73608C0.958932 8.75744 0.814044 8.77011 0.668817 8.77404C0.667208 8.78201 0.667208 8.79023 0.668817 8.7982C0.653198 9.0653 0.703078 9.33215 0.813762 9.57363C0.924446 9.81511 1.09229 10.0233 1.3015 10.1785C1.34886 10.0154 1.40527 9.85523 1.47044 9.69888C1.34716 9.5806 1.25386 9.43242 1.19882 9.26752Z" fill="#C3BCB3"/>
</g>
<g style="mix-blend-mode:screen" opacity="0.6">
<path d="M2.58276 5.17499C2.60207 5.16452 2.62198 5.1553 2.64238 5.14739C2.68821 5.12724 2.73596 5.11221 2.78482 5.10253C2.70022 4.90877 2.63152 4.7079 2.57945 4.50207C2.42242 4.49154 2.26738 4.54332 2.14551 4.64701C2.2773 4.83505 2.42353 5.01162 2.58276 5.17499Z" fill="#C3BCB3"/>
</g>
<g style="mix-blend-mode:screen" opacity="0.6">
<path d="M1.93118 4.87476C1.92046 4.88793 1.9105 4.90175 1.90137 4.91617C2.03055 5.03695 2.15643 5.16463 2.2823 5.28886C2.16968 5.14392 2.03718 5.01969 1.93118 4.87476Z" fill="#C3BCB3"/>
</g>
<g style="mix-blend-mode:multiply" opacity="0.8">
<path d="M8.92549 2.29686C8.45437 1.47883 7.6926 0.887358 6.80549 0.650795C6.03497 0.478233 5.2321 0.557777 4.50661 0.878552C3.84411 1.17878 3.43999 1.83789 3.16505 2.53497C2.93008 3.17269 2.75481 3.83257 2.64168 4.50541C1.82349 4.35703 1.47236 5.90991 1.28686 6.51037C1.05499 7.2592 0.717114 7.98043 0.677364 8.78104C0.66174 9.06245 0.717862 9.34317 0.840034 9.59469C0.962206 9.84621 1.14608 10.0596 1.37299 10.2131C1.91955 10.6721 2.66486 10.9033 3.26111 11.2242C3.79111 11.4969 4.32443 11.7522 4.8743 11.9696C5.14593 12.0732 5.42418 12.156 5.70243 12.2423C6.2258 12.4079 6.65312 12.1387 6.98436 11.7108C7.38607 11.1575 7.72509 10.5577 7.99468 9.92327C8.32546 9.33022 8.61014 8.71054 8.84599 8.07016C8.90404 7.9107 8.9193 7.73779 8.89011 7.56998C8.86093 7.40218 8.78842 7.24582 8.68037 7.11772C8.58586 7.00891 8.48281 6.90849 8.3723 6.81749C8.73318 6.18658 9.01589 5.51058 9.21368 4.80564C9.44026 3.96261 9.33662 3.06038 8.92549 2.29686ZM8.65387 7.38343C8.80624 7.69056 8.65387 8.07361 8.53462 8.36003C8.31599 8.88801 8.03112 9.39529 7.7893 9.91637C7.55379 10.4487 7.27683 10.9599 6.96118 11.4451C6.83309 11.6434 6.67925 11.8222 6.50405 11.9765C6.04693 12.3492 5.29168 11.9317 4.82461 11.7557C4.28136 11.5521 3.75468 11.3105 3.23461 11.0655C2.66643 10.8298 2.11322 10.5566 1.57836 10.2477C1.5353 10.2269 1.49555 10.2028 1.4558 10.1786C1.28503 10.0392 1.13637 9.87269 1.01524 9.68516C0.838974 9.35693 0.772548 8.97693 0.826426 8.60504C0.937767 7.92904 1.12453 7.2689 1.38293 6.63805C1.61149 5.94787 1.83011 4.78493 2.60524 4.64345C3.09218 4.76078 3.57911 4.82634 4.05943 4.98853C4.59936 5.17833 5.1393 5.38193 5.67593 5.58553C6.20912 5.77617 6.72833 6.00683 7.22949 6.27571C7.38849 6.36543 7.54418 6.45515 7.69987 6.55178C7.81391 6.60791 7.92454 6.6713 8.03112 6.74157C8.27832 6.90934 8.49019 7.12772 8.65387 7.38343ZM3.80105 4.76078C3.90548 4.15486 4.10705 3.57157 4.3973 3.03534C4.6086 2.6881 4.91919 2.41872 5.28528 2.26518C5.65138 2.11163 6.0545 2.08168 6.4378 2.17953C6.83521 2.28102 7.19078 2.51292 7.45202 2.841C7.71326 3.16907 7.86635 3.57595 7.88868 4.00159C7.87013 4.51033 7.74461 5.00862 7.52099 5.4613C7.43155 5.67871 7.32887 5.88921 7.22949 6.09971C6.80081 5.87571 6.35814 5.68202 5.90449 5.51997C5.34136 5.28531 4.74843 5.12312 4.19524 4.90571L3.80105 4.76078ZM9.02487 4.91952C8.82499 5.5422 8.56297 6.14133 8.24312 6.70707C7.99946 6.52901 7.74497 6.36763 7.48124 6.22394L7.36199 6.15838C7.46799 5.90646 7.5773 5.65455 7.67005 5.40264C7.888 4.90982 7.99452 4.37148 7.98143 3.82904C7.931 3.4213 7.76798 3.0376 7.51218 2.72456C7.25638 2.41151 6.91881 2.1826 6.54049 2.06565C6.16242 1.94993 5.75938 1.95769 5.38567 2.08788C5.01196 2.21806 4.68551 2.46442 4.4503 2.79378C4.04294 3.35886 3.76634 4.01429 3.64205 4.70901C3.35669 4.61336 3.06038 4.55766 2.76093 4.54337H2.72449C2.82718 4.10856 2.91661 3.67375 3.05574 3.2493C3.19852 2.64143 3.46765 2.07363 3.84411 1.58598C4.18516 1.23058 4.61207 0.977808 5.07968 0.854396C5.60096 0.718081 6.14417 0.699257 6.67299 0.799182C7.11511 0.894596 7.5315 1.09073 7.89229 1.37353C8.25309 1.65632 8.54936 2.01877 8.75987 2.43489C8.96153 2.80944 9.0889 3.22237 9.13442 3.64919C9.17994 4.076 9.14269 4.50799 9.02487 4.91952Z" fill="#665D4A"/>
</g>
<path opacity="0.8" d="M5.28977 6.56583C5.06642 6.4633 4.81582 6.44475 4.58079 6.51336C4.34577 6.58196 4.1409 6.73347 4.00121 6.94198C3.88932 7.13289 3.84374 7.35803 3.87208 7.57976C3.90042 7.80149 4.00096 8.00637 4.1569 8.16013C3.82565 8.50522 3.54077 8.89517 3.20952 9.2437C3.16646 9.28511 3.13334 9.33688 3.24265 9.37829C3.75277 9.58189 4.08402 9.77169 4.6074 9.97529C4.65377 9.99599 4.7134 9.97529 4.72002 9.93388C4.77302 9.47146 4.84259 8.95728 4.89227 8.49487C5.93902 8.62255 6.23715 6.97303 5.28977 6.56583Z" fill="url(#paint2_radial_7036_8867)"/>
<g style="mix-blend-mode:multiply" opacity="0.7">
<path d="M5.28977 6.56583C5.06642 6.4633 4.81582 6.44475 4.58079 6.51336C4.34577 6.58196 4.1409 6.73347 4.00121 6.94198C3.88932 7.13289 3.84374 7.35803 3.87208 7.57976C3.90042 7.80149 4.00096 8.00637 4.1569 8.16013C3.82565 8.50522 3.54077 8.89517 3.20952 9.2437C3.16646 9.28511 3.13334 9.33688 3.24265 9.37829C3.75277 9.58189 4.08402 9.77169 4.6074 9.97529C4.65377 9.99599 4.7134 9.97529 4.72002 9.93388C4.77302 9.47146 4.84259 8.95728 4.89227 8.49487C5.93902 8.62255 6.23715 6.97303 5.28977 6.56583ZM4.90221 8.39134C4.90221 8.39134 4.82934 8.36373 4.79621 8.39134C4.75977 8.6467 4.65046 9.47146 4.59415 9.77169C4.19436 9.62192 3.80288 9.44911 3.42152 9.25406C3.71965 8.93313 3.87534 8.70882 4.1569 8.37409C4.28277 8.20499 4.36559 8.15323 4.33909 8.12907C4.20749 8.03478 4.10782 7.89961 4.05429 7.74284C4.00076 7.58607 3.9961 7.4157 4.04096 7.25601C4.14034 6.79704 4.70346 6.58999 5.06452 6.65901C5.25047 6.69854 5.41773 6.80341 5.53833 6.95605C5.65893 7.1087 5.72554 7.29987 5.72702 7.49757C5.73496 7.61413 5.71932 7.73113 5.68113 7.841C5.64293 7.95088 5.58303 8.05118 5.50529 8.13542C5.42755 8.21966 5.3337 8.28596 5.22982 8.33005C5.12593 8.37413 5.01433 8.39501 4.90221 8.39134Z" fill="#665D4A"/>
</g>
<path style="mix-blend-mode:screen" d="M3.19141 3.71853C3.19141 3.71853 3.37028 2.30367 3.95328 1.74808C4.53628 1.19249 5.32134 0.647258 6.90472 1.05791C8.48809 1.46856 8.75972 3.0249 8.81603 3.56324C8.85424 4.13203 8.73343 4.70018 8.46822 5.19895C8.65714 4.68831 8.7319 4.13954 8.68684 3.5943C8.66599 3.03629 8.4602 2.50304 8.10449 2.08528C7.74877 1.66751 7.26511 1.39105 6.73578 1.30292C4.95034 0.930229 3.71478 1.37539 3.19141 3.71853Z" fill="url(#paint3_radial_7036_8867)"/>
<path style="mix-blend-mode:screen" d="M2.21973 10.2477C2.21973 10.2477 4.43579 11.3485 5.1281 11.4383C5.82041 11.528 6.26429 11.5867 6.87379 10.5134C7.48329 9.44022 7.86754 8.54645 8.03648 8.24967C8.20542 7.9529 8.43067 7.40076 7.65223 6.82446C7.65223 6.82446 8.09279 7.35245 8.00998 7.65267C7.72474 8.43865 7.3722 9.19629 6.9566 9.91644C6.45642 10.7826 6.1616 11.2968 5.57198 11.3485C4.90616 11.4072 2.21973 10.2477 2.21973 10.2477Z" fill="url(#paint4_radial_7036_8867)"/>
<g style="mix-blend-mode:screen">
<path d="M1.10301 8.73598C1.10301 8.73598 1.0467 8.1942 1.63632 6.8242C2.22595 5.45421 2.28226 5.13673 3.00439 5.05736C3.72651 4.97799 5.70076 5.69232 6.64814 6.14783C6.64814 6.14783 4.35589 5.41625 3.83914 5.31272C3.32239 5.2092 2.82551 5.17469 2.43795 5.63366C2.05039 6.09262 1.13282 7.94574 1.10301 8.73598Z" fill="white"/>
</g>
<path d="M5.19963 6.42074C4.98103 6.34742 4.74561 6.34908 4.52798 6.42549C4.31035 6.50189 4.12199 6.649 3.99057 6.8452C3.92124 6.95231 3.87422 7.07336 3.85254 7.20055C3.83086 7.32775 3.835 7.45826 3.86469 7.58369C3.86594 7.49005 3.87369 7.39663 3.88788 7.30417C3.93188 7.13908 4.01379 6.98762 4.12653 6.86287C4.23927 6.73812 4.37945 6.64382 4.53498 6.58811C4.69051 6.53241 4.85672 6.51696 5.01926 6.54311C5.1818 6.56927 5.33579 6.63623 5.46794 6.73822C5.62486 6.89059 5.73616 7.08696 5.78847 7.30368C5.84077 7.52041 5.83184 7.74827 5.76275 7.95983C5.83082 7.82164 5.87022 7.67007 5.87841 7.51498C5.8866 7.3599 5.86339 7.20475 5.81028 7.05961C5.75718 6.91447 5.67537 6.78259 5.57017 6.67253C5.46497 6.56246 5.33872 6.47668 5.19963 6.42074Z" fill="white"/>
<path d="M4.71777 9.93335L4.89002 8.49434C5.03325 8.51105 5.1782 8.48975 5.31141 8.43244C5.44461 8.37512 5.56174 8.28364 5.6519 8.1665C5.58549 8.28846 5.48913 8.3898 5.3727 8.46015C5.25628 8.5305 5.12399 8.56731 4.9894 8.5668L4.71777 9.93335Z" fill="white"/>
<defs>
<radialGradient id="paint0_radial_7036_8867" cx="0" cy="0" r="1" gradientUnits="userSpaceOnUse" gradientTransform="translate(4.33741 4.66332) scale(6.80732 7.36443)">
<stop stop-color="#F0EEE8"/>
<stop offset="0.4" stop-color="#B7A892"/>
<stop offset="1" stop-color="#6C614F"/>
</radialGradient>
<radialGradient id="paint1_radial_7036_8867" cx="0" cy="0" r="1" gradientUnits="userSpaceOnUse" gradientTransform="translate(75.3675 -49.0024) scale(103.374 96.0143)">
<stop stop-color="#F0EEE8"/>
<stop offset="0.4" stop-color="#B7A892"/>
<stop offset="1" stop-color="#6C614F"/>
</radialGradient>
<radialGradient id="paint2_radial_7036_8867" cx="0" cy="0" r="1" gradientUnits="userSpaceOnUse" gradientTransform="translate(6.89859 9.59804) scale(3.81017 4.12199)">
<stop stop-color="white"/>
<stop offset="0.32" stop-color="#B2B2B2"/>
<stop offset="1"/>
</radialGradient>
<radialGradient id="paint3_radial_7036_8867" cx="0" cy="0" r="1" gradientUnits="userSpaceOnUse" gradientTransform="translate(5.78417 0.966118) scale(4.41649 4.77793)">
<stop stop-color="#F0EEE8"/>
<stop offset="0.4" stop-color="#B7A892"/>
<stop offset="1"/>
</radialGradient>
<radialGradient id="paint4_radial_7036_8867" cx="0" cy="0" r="1" gradientUnits="userSpaceOnUse" gradientTransform="translate(97.6403 101.478) scale(69.636 54.2208)">
<stop stop-color="#F0EEE8"/>
<stop offset="0.4" stop-color="#B7A892"/>
<stop offset="1"/>
</radialGradient>
</defs>
</svg>
