<svg width="38" height="26" viewBox="0 0 38 26" fill="none" xmlns="http://www.w3.org/2000/svg">
<mask id="path-1-outside-1_2311_2367" maskUnits="userSpaceOnUse" x="-4" y="-2" width="44" height="30" fill="black">
<rect fill="white" x="-4" y="-2" width="44" height="30"/>
<path d="M6.25852 0.545454L11.3917 9.22088H11.5906L16.7486 0.545454L22.8264 0.545454L15.0582 13.2727L23.0004 26L16.8107 26L11.5906 17.3121H11.3917L6.17152 26L0.00674718 26L7.97372 13.2727L0.155895 0.545454L6.25852 0.545454ZM37.157 0.545454L37.157 26L31.7752 26L31.7752 5.65376H31.6261L25.7969 9.30788L25.7969 4.53516L32.0984 0.545454L37.157 0.545454Z"/>
</mask>
<path d="M6.25852 0.545454L11.3917 9.22088H11.5906L16.7486 0.545454L22.8264 0.545454L15.0582 13.2727L23.0004 26L16.8107 26L11.5906 17.3121H11.3917L6.17152 26L0.00674718 26L7.97372 13.2727L0.155895 0.545454L6.25852 0.545454ZM37.157 0.545454L37.157 26L31.7752 26L31.7752 5.65376H31.6261L25.7969 9.30788L25.7969 4.53516L32.0984 0.545454L37.157 0.545454Z" fill="url(#paint0_linear_2311_2367)"/>
<path d="M6.25852 0.545454L7.97979 -0.473001L7.39902 -1.45455L6.25852 -1.45455L6.25852 0.545454ZM11.3917 9.22088L9.67043 10.2393L10.2512 11.2209L11.3917 11.2209L11.3917 9.22088ZM11.5906 9.22088L11.5906 11.2209L12.7282 11.2209L13.3097 10.243L11.5906 9.22088ZM16.7486 0.545454L16.7486 -1.45455L15.6109 -1.45455L15.0295 -0.476648L16.7486 0.545454ZM22.8264 0.545454L24.5335 1.58741L26.3902 -1.45455L22.8264 -1.45455L22.8264 0.545454ZM15.0582 13.2727L13.3511 12.2308L12.708 13.2844L13.3615 14.3315L15.0582 13.2727ZM23.0004 26L23.0004 28L26.6059 28L24.6971 24.9412L23.0004 26ZM16.8107 26L15.0964 27.0301L15.6792 28H16.8107L16.8107 26ZM11.5906 17.3121L13.3049 16.2821L12.7221 15.3121L11.5906 15.3121L11.5906 17.3121ZM11.3917 17.3121L11.3917 15.3121L10.2601 15.3121L9.67735 16.2821L11.3917 17.3121ZM6.17152 26L6.17152 28H7.30307L7.88586 27.0301L6.17152 26ZM0.00674713 26L-1.6885 24.9388L-3.60474 28L0.00674713 28L0.00674713 26ZM7.97372 13.2727L9.66897 14.3339L10.327 13.2827L9.6779 12.2259L7.97372 13.2727ZM0.155895 0.545454L0.155895 -1.45455L-3.4198 -1.45455L-1.54828 1.59226L0.155895 0.545454ZM4.53726 1.56391L9.67043 10.2393L13.113 8.20243L7.97979 -0.473001L4.53726 1.56391ZM11.3917 11.2209H11.5906L11.5906 7.22088H11.3917L11.3917 11.2209ZM13.3097 10.243L18.4677 1.56756L15.0295 -0.476648L9.87145 8.19878L13.3097 10.243ZM16.7486 2.54545L22.8264 2.54545L22.8264 -1.45455L16.7486 -1.45455L16.7486 2.54545ZM21.1192 -0.496502L13.3511 12.2308L16.7654 14.3147L24.5335 1.58741L21.1192 -0.496502ZM13.3615 14.3315L21.3036 27.0588L24.6971 24.9412L16.755 12.2139L13.3615 14.3315ZM23.0004 24L16.8107 24L16.8107 28L23.0004 28L23.0004 24ZM18.5251 24.9699L13.3049 16.2821L9.87622 18.3422L15.0964 27.0301L18.5251 24.9699ZM11.5906 15.3121H11.3917L11.3917 19.3121H11.5906L11.5906 15.3121ZM9.67735 16.2821L4.45718 24.9699L7.88586 27.0301L13.106 18.3422L9.67735 16.2821ZM6.17152 24L0.00674713 24L0.00674713 28L6.17152 28L6.17152 24ZM1.702 27.0612L9.66897 14.3339L6.27847 12.2115L-1.6885 24.9388L1.702 27.0612ZM9.6779 12.2259L1.86007 -0.501348L-1.54828 1.59226L6.26955 14.3195L9.6779 12.2259ZM0.155895 2.54545L6.25852 2.54545L6.25852 -1.45455L0.155895 -1.45455L0.155895 2.54545ZM37.157 0.545454L39.157 0.545454V-1.45455L37.157 -1.45455V0.545454ZM37.157 26L37.157 28L39.157 28L39.157 26L37.157 26ZM31.7752 26L29.7752 26L29.7752 28L31.7752 28L31.7752 26ZM31.7752 5.65376L33.7752 5.65376V3.65376L31.7752 3.65376V5.65376ZM31.6261 5.65376V3.65376L31.051 3.65376L30.5638 3.95919L31.6261 5.65376ZM25.7969 9.30788L23.7969 9.30788L23.7969 12.9221L26.8591 11.0025L25.7969 9.30788ZM25.7969 4.53516L24.727 2.84537L23.7969 3.43427V4.53516L25.7969 4.53516ZM32.0984 0.545454V-1.45455L31.5185 -1.45455L31.0285 -1.14433L32.0984 0.545454ZM35.157 0.545454L35.157 26L39.157 26L39.157 0.545454L35.157 0.545454ZM37.157 24L31.7752 24L31.7752 28L37.157 28L37.157 24ZM33.7752 26L33.7752 5.65376L29.7752 5.65376L29.7752 26L33.7752 26ZM31.7752 3.65376H31.6261L31.6261 7.65376H31.7752L31.7752 3.65376ZM30.5638 3.95919L24.7346 7.61331L26.8591 11.0025L32.6883 7.34834L30.5638 3.95919ZM27.7969 9.30788L27.7969 4.53516L23.7969 4.53516L23.7969 9.30788L27.7969 9.30788ZM26.8667 6.22495L33.1682 2.23524L31.0285 -1.14433L24.727 2.84537L26.8667 6.22495ZM32.0984 2.54545L37.157 2.54545L37.157 -1.45455L32.0984 -1.45455L32.0984 2.54545Z" fill="white" mask="url(#path-1-outside-1_2311_2367)"/>
<defs>
<linearGradient id="paint0_linear_2311_2367" x1="20.5" y1="-8" x2="20.5" y2="34" gradientUnits="userSpaceOnUse">
<stop stop-color="#FFC700"/>
<stop offset="1" stop-color="#FF522C"/>
</linearGradient>
</defs>
</svg>
