<svg viewBox="0 0 23 106" fill="none" xmlns="http://www.w3.org/2000/svg">
<path d="M19.505 0.193181L22.8182 0.193181L22.8182 17.6009L19.505 17.6009L19.505 10.8572L0.999999 10.8572L1 6.93679L19.505 6.93679L19.505 0.193181ZM10.5881 24.6428L0.999999 24.6428L0.999999 20.7862L22.8182 20.7862L22.8182 24.5575L14.5831 24.5575L14.5831 24.7493C15.5064 25.1328 16.2344 25.7259 16.767 26.5284C17.3068 27.3381 17.5767 28.3679 17.5767 29.6179C17.5767 30.7543 17.3388 31.745 16.8629 32.5902C16.3871 33.4354 15.6911 34.0888 14.7749 34.5504C13.8587 35.0192 12.7401 35.2536 11.419 35.2536L0.999998 35.2536L0.999999 31.397L10.8224 31.397C11.9233 31.397 12.7791 31.1129 13.3899 30.5447C14.0078 29.9837 14.3168 29.1953 14.3168 28.1797C14.3168 27.4979 14.1676 26.8871 13.8693 26.3473C13.5781 25.8146 13.1555 25.3956 12.6016 25.0902C12.0476 24.7919 11.3764 24.6428 10.5881 24.6428ZM0.669742 43.8935C0.669742 42.8565 0.854402 41.9226 1.22372 41.0916C1.60014 40.2678 2.15412 39.6143 2.88565 39.1314C3.61719 38.6555 4.51917 38.4176 5.59162 38.4176C6.51491 38.4176 7.27841 38.5881 7.8821 38.929C8.48579 39.2699 8.96875 39.7351 9.33096 40.3246C9.69318 40.9141 9.96662 41.5781 10.1513 42.3168C10.343 43.0625 10.4815 43.8331 10.5668 44.6286C10.6662 45.5874 10.755 46.3651 10.8331 46.9616C10.9183 47.5582 11.0462 47.9915 11.2166 48.2614C11.3942 48.5384 11.6676 48.6768 12.0369 48.6768L12.1009 48.6768C12.9034 48.6768 13.5249 48.4389 13.9652 47.9631C14.4055 47.4872 14.6257 46.8018 14.6257 45.907C14.6257 44.9624 14.4197 44.2131 14.0078 43.6591C13.5959 43.1122 13.1094 42.7429 12.5483 42.5511L13.0597 38.9503C14.054 39.2344 14.8849 39.7031 15.5526 40.3565C16.2273 41.0099 16.7315 41.8089 17.0653 42.7536C17.4062 43.6982 17.5767 44.7422 17.5767 45.8857C17.5767 46.674 17.4844 47.4588 17.2997 48.2401C17.1151 49.0213 16.8097 49.7351 16.3835 50.3814C15.9645 51.0277 15.3928 51.5462 14.6683 51.9368C13.9439 52.3345 13.0384 52.5334 11.9517 52.5334L0.999998 52.5334L0.999998 48.826L3.24787 48.826L3.24787 48.6982C2.79332 48.4638 2.36719 48.1335 1.96946 47.7074C1.57883 47.2884 1.26278 46.7592 1.0213 46.12C0.78693 45.4879 0.669742 44.7457 0.669742 43.8935ZM3.50355 44.8949C3.50355 45.669 3.65625 46.3402 3.96165 46.9084C4.27415 47.4766 4.68608 47.9134 5.19744 48.2187C5.7088 48.5312 6.26633 48.6875 6.87003 48.6875L8.79829 48.6875C8.69886 48.5668 8.60653 48.3608 8.52131 48.0696C8.43608 47.7855 8.3615 47.4659 8.29758 47.1108C8.23366 46.7557 8.17684 46.4041 8.12713 46.0561C8.07741 45.7081 8.0348 45.4062 7.99929 45.1506C7.92116 44.5753 7.79332 44.0604 7.61577 43.6058C7.43821 43.1513 7.18963 42.7926 6.87003 42.5298C6.55753 42.267 6.1527 42.1357 5.65554 42.1357C4.94531 42.1357 4.40909 42.3949 4.04687 42.9134C3.68466 43.4318 3.50355 44.0923 3.50355 44.8949ZM10.5881 60.2678L0.999997 60.2678L0.999997 56.4112L17.3636 56.4112L17.3636 60.0973L14.5831 60.0973L14.5831 60.2891C15.4993 60.6655 16.2273 61.2656 16.767 62.0895C17.3068 62.9205 17.5767 63.9467 17.5767 65.1683C17.5767 66.2976 17.3352 67.2812 16.8523 68.1193C16.3693 68.9645 15.6697 69.6179 14.7535 70.0795C13.8374 70.5483 12.7258 70.7791 11.419 70.772L0.999997 70.772L0.999997 66.9155L10.8224 66.9155C11.9162 66.9155 12.772 66.6314 13.3899 66.0632C14.0078 65.5021 14.3168 64.7244 14.3168 63.7301C14.3168 63.0554 14.1676 62.4553 13.8693 61.9297C13.5781 61.4112 13.1555 61.0028 12.6016 60.7045C12.0476 60.4134 11.3764 60.2678 10.5881 60.2678ZM6.13494 78.2081L10.7905 78.1974L10.7905 78.8153L17.3636 84.696L17.3636 89.2024L9.30966 81.9687L9.30966 81.1697L6.13494 78.2081ZM0.999997 74.6925L22.8182 74.6925L22.8182 78.549L0.999997 78.549L0.999997 74.6925ZM0.999996 84.9624L8.44673 79.6357L11.1633 82.2351L0.999996 89.5753L0.999996 84.9624ZM13.0383 104.706L12.6548 101.19C13.0099 101.091 13.3437 100.917 13.6562 100.668C13.9687 100.427 14.2209 100.1 14.4126 99.688C14.6044 99.2761 14.7003 98.7718 14.7003 98.1752C14.7003 97.3727 14.5263 96.698 14.1783 96.1511C13.8303 95.6113 13.3793 95.345 12.8253 95.3521C12.3494 95.345 11.9624 95.519 11.6641 95.8741C11.3658 96.2363 11.1207 96.8329 10.929 97.6639L10.3324 100.455C9.99858 102.003 9.46946 103.154 8.74502 103.907C8.02059 104.667 7.07244 105.05 5.90056 105.057C4.87073 105.05 3.96164 104.748 3.17329 104.152C2.39204 103.562 1.78125 102.742 1.3409 101.691C0.900564 100.64 0.680393 99.4323 0.680393 98.0687C0.680393 96.0659 1.09943 94.4537 1.9375 93.2321C2.78267 92.0105 3.95809 91.2825 5.46377 91.0481L5.82599 94.8088C5.08735 94.9792 4.52983 95.3414 4.1534 95.8954C3.77698 96.4494 3.58877 97.1703 3.58877 98.0581C3.58877 98.9743 3.77698 99.7093 4.1534 100.263C4.52983 100.824 4.99502 101.105 5.549 101.105C6.01775 101.105 6.40483 100.924 6.71022 100.562C7.01562 100.206 7.25 99.6525 7.41335 98.8997L7.99929 96.1085C8.32599 94.5389 8.87642 93.3777 9.65056 92.6248C10.4318 91.872 11.419 91.4991 12.6122 91.5062C13.6207 91.4991 14.4943 91.7725 15.233 92.3265C15.9787 92.8876 16.554 93.6653 16.9588 94.6596C17.3707 95.661 17.5767 96.8152 17.5767 98.122C17.5767 100.04 17.1683 101.549 16.3516 102.65C15.5348 103.758 14.4304 104.443 13.0383 104.706Z" fill="#520E80"/>
</svg>
