<svg viewBox="0 0 44 51" fill="none" xmlns="http://www.w3.org/2000/svg">
<mask id="path-1-outside-1_2311_2238" maskUnits="userSpaceOnUse" x="-2" y="-2" fill="black">
<rect fill="white" x="-2" y="-2" width="48" height="55"/>
<path d="M0.424716 51V0.0909076H11.1882V21.0959H33.0384V0.0909076H43.777V51H33.0384V29.9702H11.1882V51H0.424716Z"/>
</mask>
<path d="M0.424716 51V0.0909076H11.1882V21.0959H33.0384V0.0909076H43.777V51H33.0384V29.9702H11.1882V51H0.424716Z" fill="url(#paint0_linear_2311_2238)"/>
<path d="M0.424716 51H-1.57528V53H0.424716V51ZM0.424716 0.0909081V-1.90909H-1.57528V0.0909081H0.424716ZM11.1882 0.0909081H13.1882V-1.90909H11.1882V0.0909081ZM11.1882 21.0959H9.18821V23.0959H11.1882V21.0959ZM33.0384 21.0959V23.0959H35.0384V21.0959H33.0384ZM33.0384 0.0909081V-1.90909H31.0384V0.0909081H33.0384ZM43.777 0.0909081H45.777V-1.90909H43.777V0.0909081ZM43.777 51V53H45.777V51H43.777ZM33.0384 51H31.0384V53H33.0384V51ZM33.0384 29.9702H35.0384V27.9702H33.0384V29.9702ZM11.1882 29.9702V27.9702H9.18821V29.9702H11.1882ZM11.1882 51V53H13.1882V51H11.1882ZM2.42472 51V0.0909081H-1.57528V51H2.42472ZM0.424716 2.09091H11.1882V-1.90909H0.424716V2.09091ZM9.18821 0.0909081V21.0959H13.1882V0.0909081H9.18821ZM11.1882 23.0959H33.0384V19.0959H11.1882V23.0959ZM35.0384 21.0959V0.0909081H31.0384V21.0959H35.0384ZM33.0384 2.09091H43.777V-1.90909H33.0384V2.09091ZM41.777 0.0909081V51H45.777V0.0909081H41.777ZM43.777 49H33.0384V53H43.777V49ZM35.0384 51V29.9702H31.0384V51H35.0384ZM33.0384 27.9702H11.1882V31.9702H33.0384V27.9702ZM9.18821 29.9702V51H13.1882V29.9702H9.18821ZM11.1882 49H0.424716V53H11.1882V49Z" fill="white" mask="url(#path-1-outside-1_2311_2238)"/>
<defs>
<linearGradient id="paint0_linear_2311_2238" x1="22.5" y1="-17" x2="22.5" y2="68" gradientUnits="userSpaceOnUse">
<stop stop-color="#DB55FF"/>
<stop offset="1" stop-color="#722CFF"/>
</linearGradient>
</defs>
</svg>
