<svg viewBox="0 0 24 25" fill="none" xmlns="http://www.w3.org/2000/svg">
<g id="Find" opacity="0.4">
<path id="Icon" d="M17.6738 17.4666C17.4785 17.2714 17.1619 17.2714 16.9666 17.4666C16.7714 17.6619 16.7714 17.9785 16.9666 18.1738L17.6738 17.4666ZM20.7499 21.957C20.9452 22.1523 21.2617 22.1523 21.457 21.957C21.6523 21.7617 21.6523 21.4452 21.457 21.2499L20.7499 21.957ZM18.6688 12.3603C18.6688 16.1205 15.6205 19.1688 11.8603 19.1688V20.1688C16.1728 20.1688 19.6688 16.6728 19.6688 12.3603H18.6688ZM11.8603 19.1688C8.10002 19.1688 5.05173 16.1205 5.05173 12.3603H4.05173C4.05173 16.6728 7.54774 20.1688 11.8603 20.1688V19.1688ZM5.05173 12.3603C5.05173 8.60002 8.10002 5.55173 11.8603 5.55173V4.55173C7.54774 4.55173 4.05173 8.04774 4.05173 12.3603H5.05173ZM11.8603 5.55173C15.6205 5.55173 18.6688 8.60002 18.6688 12.3603H19.6688C19.6688 8.04774 16.1728 4.55173 11.8603 4.55173V5.55173ZM16.9666 18.1738L20.7499 21.957L21.457 21.2499L17.6738 17.4666L16.9666 18.1738Z" fill="currentColor"/>
</g>
</svg>
