<svg viewBox="0 0 16 16" fill="none" xmlns="http://www.w3.org/2000/svg">
<g>
<path fill-rule="evenodd" clip-rule="evenodd" d="M1 0.212128C0.447715 0.212128 0 0.659843 0 1.21213C0 1.76441 0.447715 2.21213 1 2.21213H15C15.5523 2.21213 16 1.76441 16 1.21213C16 0.659843 15.5523 0.212128 15 0.212128H1ZM1 13.7879C0.447715 13.7879 0 14.2356 0 14.7879C0 15.3402 0.447715 15.7879 1 15.7879H15C15.5523 15.7879 16 15.3402 16 14.7879C16 14.2356 15.5523 13.7879 15 13.7879H1ZM0 6.15401C0 5.40206 0.798759 4.91913 1.46462 5.2685L4.98291 7.11452C5.69675 7.48907 5.69675 8.51099 4.98291 8.88554L1.46462 10.7316C0.798758 11.0809 0 10.598 0 9.84605V6.15401ZM8.8125 7.00003C8.26021 7.00003 7.8125 7.44775 7.8125 8.00003C7.8125 8.55232 8.26021 9.00003 8.8125 9.00003H15C15.5523 9.00003 16 8.55232 16 8.00003C16 7.44775 15.5523 7.00003 15 7.00003H8.8125Z" fill="currentColor"/>
</g>
</svg>
