<svg viewBox="0 0 30 28" fill="none" xmlns="http://www.w3.org/2000/svg">
<path fill-rule="evenodd" clip-rule="evenodd" d="M26.4105 13.2427C26.3865 13.2427 26.367 13.2232 26.367 13.1991C26.367 6.96471 21.313 1.91072 15.0786 1.91072C8.84419 1.91072 3.7902 6.96471 3.7902 13.1991C3.7902 13.2232 3.77075 13.2427 3.7467 13.2427H2.53578C2.51169 13.2427 2.49213 13.2232 2.49213 13.1991C2.49213 6.2478 8.12729 0.61264 15.0786 0.61264C22.0299 0.61264 27.6651 6.2478 27.6651 13.1991C27.6651 13.2232 27.6455 13.2427 27.6214 13.2427H26.4105Z" fill="currentColor"/>
<path d="M27.6649 12.8943C27.6649 20.3266 21.6398 26.3518 14.2074 26.3518" stroke="currentColor" stroke-width="0.519231"/>
<rect x="12.1604" y="10.0198" width="2.87442" height="5.74884" rx="1.43721" fill="currentColor"/>
<rect x="18.1706" y="10.0198" width="2.87442" height="5.74884" rx="1.43721" fill="currentColor"/>
<path d="M25.8358 11.5006C27.5955 11.5006 29.3199 13.6454 29.3199 16.2913C29.3199 18.9371 27.5955 21.082 25.8358 21.082C24.076 21.082 24.3184 18.9371 24.3184 16.2913C24.3184 13.6454 24.076 11.5006 25.8358 11.5006Z" fill="currentColor"/>
<path d="M4.23425 11.5006C2.47451 11.5006 0.750102 13.6454 0.750102 16.2913C0.750102 18.9371 2.47451 21.082 4.23425 21.082C5.99399 21.082 5.75157 18.9371 5.75157 16.2913C5.75157 13.6454 5.99399 11.5006 4.23425 11.5006Z" fill="currentColor"/>
<ellipse cx="14.9478" cy="25.9163" rx="3.22284" ry="2.04694" fill="currentColor"/>
</svg>
