<svg width="383" height="302" viewBox="0 0 383 302" fill="none" xmlns="http://www.w3.org/2000/svg">
<path opacity="0.74" fill-rule="evenodd" clip-rule="evenodd" d="M11.1496 65.1575C120.379 42.7087 193.146 28.0689 229.45 21.238C333.108 1.73453 354.361 -0.967433 367.314 1.53139C370.163 2.08098 376.361 4.12504 379.767 8.32913C382.643 11.879 382.795 15.8855 382.687 18.6525C382.58 21.4195 381.864 27.623 380.408 32.2807C363.783 85.4435 313.628 212.383 289.425 270.747C279.184 295.442 267.892 302.063 258.546 300.97C238.233 298.594 226.272 280.397 209.646 263.67C183.63 237.495 169.173 221.569 143.941 196.06C114.781 166.581 139.333 158.95 162.875 142.977C169.036 138.797 273.694 77.4904 276.924 70.6056C277.328 69.7445 278.238 66.4092 276.609 64.2022C274.979 61.9952 271.889 61.9795 269.65 62.0131C266.476 62.0607 211.499 83.7557 104.717 127.098C89.0376 133.608 75.6669 135.57 64.605 132.982C52.4101 130.129 30.2519 118.489 13.9363 109.094C-6.07539 97.5699 -22.3729 90.2695 -18.38 78.7216C-16.3002 72.7067 -6.45704 68.1853 11.1496 65.1575Z" fill="currentColor"/>
</svg>
