<svg xmlns="http://www.w3.org/2000/svg" width="21" height="24" viewBox="0 0 21 24" fill="none">
  <path fill-rule="evenodd" clip-rule="evenodd" d="M9.5252 0C11.2316 0 10.3743 1.92601 11.2316 4.16901C12.0889 6.41202 13.3132 7.90246 13.8144 7.98215C14.7943 8.13794 14.8839 4.96286 15.3187 4.85413C15.9592 4.69392 16.5527 5.52342 18.3028 7.98215C22.4753 13.844 20.2649 23.2833 11.2316 23.9539C2.19838 24.6244 -0.991362 17.8661 0.820952 11.4272C1.79062 7.98215 3.01859 6.1228 4.91887 3.76554C5.36554 3.21145 7.81877 0 9.5252 0ZM9.75435 13.3077C7.39042 15.991 6.54852 18.3485 7.22865 20.3802C8.24885 23.4277 12.5455 23.1616 13.4796 20.8318C14.1928 18.5933 12.6824 15.7684 12.6824 16.3056C12.6824 16.8428 12.363 17.3816 11.4968 17.0359C10.9194 16.8055 10.3386 15.5627 9.75435 13.3077Z" fill="currentColor"/>
</svg>