<svg width="14" height="14" viewBox="0 0 14 14" fill="none" xmlns="http://www.w3.org/2000/svg">
<path d="M7 0.25C3.27243 0.25 0.25 3.27243 0.25 7C0.25 10.7276 3.27243 13.75 7 13.75C10.7276 13.75 13.75 10.7276 13.75 7C13.75 3.27243 10.7276 0.25 7 0.25ZM8.26562 5.41948L6.9548 9.96066C6.88248 10.2198 6.84632 10.3916 6.84632 10.4714C6.84632 10.5181 6.8659 10.5618 6.90357 10.6025C6.94124 10.6432 6.98192 10.6628 7.02561 10.6628C7.09794 10.6628 7.17026 10.6311 7.24258 10.5664C7.43393 10.4081 7.66445 10.1234 7.93265 9.71055L8.14961 9.83862C7.50625 10.9596 6.82372 11.5201 6.099 11.5201C5.82176 11.5201 5.60179 11.4417 5.43756 11.2866C5.27333 11.1314 5.19196 10.934 5.19196 10.6959C5.19196 10.5377 5.22813 10.3388 5.30045 10.0948L6.18789 7.04068C6.27377 6.74688 6.31596 6.52539 6.31596 6.37623C6.31596 6.28281 6.27528 6.19994 6.19392 6.12762C6.11256 6.0553 6.00257 6.01914 5.86244 6.01914C5.79916 6.01914 5.72232 6.02065 5.63192 6.02517L5.71479 5.76903L7.87991 5.41797H8.26562V5.41948ZM8.53382 4.08304C8.35 4.26685 8.12852 4.35725 7.86936 4.35725C7.61323 4.35725 7.39475 4.26535 7.21094 4.08304C7.02712 3.89922 6.93672 3.67773 6.93672 3.41858C6.93672 3.15943 7.02712 2.93795 7.20792 2.75413C7.38873 2.57182 7.60871 2.47991 7.86936 2.47991C8.13304 2.47991 8.35603 2.57182 8.53683 2.75413C8.71763 2.93795 8.80804 3.15943 8.80804 3.41858C8.80804 3.67773 8.71613 3.89922 8.53382 4.08304Z" fill="currentColor" fill-opacity="0.4"/>
</svg>
