<svg viewBox="0 0 32 33" fill="none" xmlns="http://www.w3.org/2000/svg">
<g id="Popular">
<path id="Vector" d="M13.3028 29.8263C13.3028 29.8263 1.77247 27.29 6.926 14.7021C6.926 14.7021 8.096 16.1009 7.93512 16.774C7.93512 16.774 8.85227 13.5968 10.8318 11.6988C12.5316 10.0679 14.2586 5.48314 12.6658 3.82629C12.6658 3.82629 20.5552 5.48314 21.4333 13.7706C21.4333 13.7706 22.4425 11.13 24.5143 10.869C24.5143 10.869 23.8773 12.3198 24.5143 14.496C24.5143 14.496 31.0494 25.6825 19.7869 29.4636C19.7869 29.4636 23.163 25.6302 16.0032 19.0519C16.0032 19.0519 14.3152 22.5749 13.3057 23.8164C13.3028 23.8196 10.4867 26.9767 13.3028 29.8263Z" fill="currentColor"/>
</g>
</svg>
