<svg  viewBox="0 0 18 18" fill="none" xmlns="http://www.w3.org/2000/svg">
<g id="&#229;&#164;&#141;&#229;&#136;&#182;">
<path id="Vector" d="M7.46144 2.25H7.39927C6.39334 2.25 5.59557 2.25 4.96545 2.32535C4.31837 2.4007 3.78527 2.56176 3.33976 2.92816C3.18906 3.0506 3.0506 3.19 2.92627 3.3407C2.56082 3.78621 2.4007 4.31837 2.32347 4.96639C2.25 5.59745 2.25 6.39428 2.25 7.39927V7.46049C2.25 8.46642 2.25 9.26326 2.32535 9.89432C2.4007 10.5414 2.56176 11.0745 2.92816 11.52C3.0506 11.6707 3.19 11.8092 3.3407 11.9326C3.76266 12.2792 4.26374 12.4412 4.86655 12.5231C5.35444 12.589 5.94312 12.6051 6.65236 12.6079C6.66083 12.9997 6.67873 13.3425 6.71829 13.6411C6.79458 14.2063 6.95753 14.6819 7.33522 15.0596C7.71292 15.4382 8.18951 15.6002 8.75464 15.6765C9.29905 15.75 9.99133 15.75 10.8494 15.75H11.5464C12.4054 15.75 13.0977 15.75 13.6421 15.6765C14.2072 15.6012 14.6828 15.4382 15.0605 15.0596C15.4392 14.6828 15.6012 14.2063 15.6775 13.6411C15.75 13.0967 15.75 12.4044 15.75 11.5454V10.8484C15.75 9.99039 15.75 9.29811 15.6775 8.7537C15.6021 8.18857 15.4392 7.71198 15.0605 7.33428C14.6828 6.95659 14.2072 6.79364 13.6421 6.71829C13.2994 6.67739 12.9548 6.65538 12.6098 6.65236C12.606 5.94312 12.59 5.35444 12.5241 4.86467C12.4431 4.26186 12.2801 3.76172 11.9335 3.33976C11.8098 3.18878 11.6716 3.05029 11.5209 2.92627C11.0754 2.56082 10.5423 2.4007 9.89526 2.32347C9.2642 2.25 8.46737 2.25 7.46144 2.25ZM11.6679 6.64576H10.8494C9.99133 6.64576 9.29905 6.64576 8.75464 6.71923C8.18951 6.79458 7.71292 6.95753 7.33522 7.33522C6.95753 7.71292 6.79458 8.18951 6.71923 8.75464C6.64576 9.29905 6.64576 9.99133 6.64576 10.8494V11.6679C5.94877 11.6632 5.41849 11.6481 4.99182 11.5906C4.48414 11.5219 4.17521 11.4004 3.93785 11.2054C3.83425 11.1206 3.74006 11.0265 3.65529 10.9229C3.4509 10.6733 3.32563 10.3427 3.2597 9.78412C3.19377 9.21522 3.19188 8.4749 3.19188 7.43035C3.19188 6.38675 3.19282 5.64549 3.26064 5.07659C3.32657 4.51805 3.4509 4.18745 3.65623 3.93785C3.741 3.83425 3.83519 3.74006 3.9388 3.65529C4.18745 3.4509 4.51805 3.32563 5.07659 3.2597C5.64549 3.19377 6.38675 3.19188 7.43129 3.19188C8.47396 3.19188 9.21616 3.19282 9.78412 3.26064C10.3427 3.32657 10.6733 3.4509 10.9238 3.65623C11.0265 3.741 11.1216 3.83519 11.2064 3.9388C11.4004 4.17427 11.5219 4.48509 11.5906 4.99182C11.6472 5.41849 11.6632 5.94877 11.6679 6.64576ZM8.00113 8.00208C8.17538 7.82783 8.41933 7.71386 8.87991 7.65264C9.35368 7.58859 9.98191 7.58671 10.8842 7.58671H11.5115C12.4129 7.58671 13.0421 7.58859 13.5159 7.65264C13.9774 7.71386 14.2213 7.82783 14.3946 8.00113C14.5689 8.17538 14.6819 8.41933 14.7431 8.87991C14.8072 9.35462 14.8091 9.98285 14.8091 10.8842V11.5125C14.8091 12.4139 14.8072 13.0421 14.7431 13.5159C14.6819 13.9774 14.5689 14.2213 14.3946 14.3946C14.2213 14.5689 13.9774 14.6819 13.5159 14.7431C13.0421 14.8081 12.4139 14.8091 11.5115 14.8091H10.8842C9.98285 14.8091 9.35368 14.8072 8.87991 14.7431C8.41839 14.6819 8.17538 14.5689 8.00113 14.3946C7.82783 14.2213 7.71386 13.9774 7.65264 13.5159C7.58859 13.0421 7.58671 12.4139 7.58671 11.5125V10.8842C7.58671 9.98285 7.58859 9.35462 7.65264 8.87991C7.71386 8.41839 7.82783 8.17538 8.00113 8.00113V8.00208Z" fill="currentColor" />
</g>
</svg>
