<svg viewBox="0 0 16 16" fill="none" xmlns="http://www.w3.org/2000/svg">
<g id="&#232;&#173;&#166;&#229;&#145;&#138;">
<path id="Vector" d="M8.00022 14C11.314 14 14.0005 11.3136 14.0005 8C14.0005 4.68594 11.314 2 8.00022 2C4.68651 2 1.99998 4.68594 1.99998 8C1.99998 11.3136 4.68649 14 8.00022 14ZM8.00022 2.95999C10.7838 2.95999 13.0405 5.21656 13.0405 8C13.0405 10.7834 10.7838 13.04 8.00022 13.04C5.21667 13.04 2.96004 10.7835 2.96004 8C2.96004 5.21655 5.21668 2.95999 8.00022 2.95999ZM8.82196 9.39033L9.19979 6.46999V4.87907H6.80064V6.46999L7.17846 9.39033H8.82196ZM7.06598 11.6H8.88481V10.3747H7.06598V11.6Z" fill="currentColor"/>
</g>
</svg>
