<svg width="30" height="30" viewBox="0 0 30 30" fill="none" xmlns="http://www.w3.org/2000/svg">
<path fill-rule="evenodd" clip-rule="evenodd" d="M4.49442 3.27418C4.86535 2.90861 5.46674 2.90861 5.83766 3.27418L8.94482 6.33653C10.748 5.40142 12.8017 4.87223 14.9808 4.87223C17.1599 4.87223 19.2135 5.40142 21.0167 6.33653L24.1239 3.27418C24.4948 2.90861 25.0962 2.90861 25.4671 3.27418C25.838 3.63976 25.838 4.23247 25.4671 4.59804L22.6686 7.35623C25.8786 9.68532 27.9615 13.4358 27.9615 17.6658C27.9615 17.7701 27.9603 17.8741 27.9578 17.9778H2.00379C2.00127 17.8741 2 17.7701 2 17.6658C2 13.4358 4.08289 9.68532 7.29297 7.35623L4.49442 4.59804C4.1235 4.23247 4.1235 3.63976 4.49442 3.27418ZM9.9151 13.6093C10.6145 13.6093 11.1815 13.0505 11.1815 12.3611C11.1815 11.6718 10.6145 11.113 9.9151 11.113C9.21568 11.113 8.64869 11.6718 8.64869 12.3611C8.64869 13.0505 9.21568 13.6093 9.9151 13.6093ZM21.3129 12.3611C21.3129 13.0505 20.7459 13.6093 20.0464 13.6093C19.347 13.6093 18.78 13.0505 18.78 12.3611C18.78 11.6718 19.347 11.113 20.0464 11.113C20.7459 11.113 21.3129 11.6718 21.3129 12.3611Z" fill="#5CD27C"/>
<path d="M4.16051 25.7049C3.91856 25.7049 3.69898 25.6593 3.50178 25.5682C3.30457 25.4754 3.14796 25.3419 3.03196 25.1679C2.91596 24.9923 2.85795 24.7802 2.85795 24.5316C2.85795 24.3128 2.90104 24.1355 2.98722 23.9996C3.07339 23.8621 3.18857 23.7544 3.33274 23.6765C3.47692 23.5986 3.63601 23.5406 3.81001 23.5025C3.98568 23.4627 4.16217 23.4312 4.33949 23.408C4.5715 23.3782 4.75959 23.3558 4.90376 23.3409C5.0496 23.3243 5.15566 23.297 5.22195 23.2589C5.28989 23.2207 5.32386 23.1544 5.32386 23.06V23.0401C5.32386 22.7948 5.25675 22.6043 5.12251 22.4684C4.98994 22.3325 4.78859 22.2645 4.51847 22.2645C4.2384 22.2645 4.01882 22.3259 3.85973 22.4485C3.70064 22.5711 3.58878 22.702 3.52415 22.8412L2.96733 22.6424C3.06676 22.4104 3.19934 22.2297 3.36506 22.1005C3.53243 21.9696 3.71473 21.8784 3.91193 21.827C4.1108 21.774 4.30634 21.7475 4.49858 21.7475C4.62121 21.7475 4.76207 21.7624 4.92116 21.7922C5.08191 21.8204 5.23686 21.8792 5.38601 21.9687C5.53681 22.0582 5.66193 22.1933 5.76136 22.3739C5.8608 22.5545 5.91051 22.7965 5.91051 23.0998V25.6154H5.32386V25.0983H5.29403C5.25426 25.1812 5.18797 25.2699 5.09517 25.3643C5.00237 25.4588 4.87891 25.5392 4.72479 25.6054C4.57067 25.6717 4.38258 25.7049 4.16051 25.7049ZM4.25 25.1779C4.48201 25.1779 4.67756 25.1323 4.83665 25.0412C4.9974 24.95 5.11837 24.8324 5.19957 24.6882C5.28243 24.544 5.32386 24.3924 5.32386 24.2333V23.6964C5.29901 23.7262 5.24432 23.7535 5.1598 23.7784C5.07694 23.8016 4.98082 23.8223 4.87145 23.8405C4.76373 23.8571 4.6585 23.872 4.55575 23.8853C4.45466 23.8969 4.37263 23.9068 4.30966 23.9151C4.1572 23.935 4.01468 23.9673 3.8821 24.012C3.75118 24.0551 3.64512 24.1206 3.56392 24.2084C3.48438 24.2946 3.4446 24.4123 3.4446 24.5614C3.4446 24.7652 3.52 24.9194 3.67081 25.0238C3.82327 25.1265 4.01634 25.1779 4.25 25.1779ZM7.56792 23.3185V25.6154H6.98127V21.7972H7.54803V22.3938H7.59775C7.68723 22.1999 7.82312 22.0441 8.00542 21.9265C8.18771 21.8071 8.42303 21.7475 8.71138 21.7475C8.9699 21.7475 9.19611 21.8005 9.39 21.9066C9.5839 22.011 9.7347 22.1701 9.84242 22.3839C9.95014 22.596 10.004 22.8644 10.004 23.1893V25.6154H9.41735V23.229C9.41735 22.9291 9.33946 22.6954 9.18368 22.528C9.02791 22.359 8.81413 22.2745 8.54235 22.2745C8.35508 22.2745 8.18771 22.3151 8.04022 22.3963C7.89438 22.4775 7.77921 22.596 7.69469 22.7518C7.61017 22.9075 7.56792 23.0964 7.56792 23.3185ZM12.5178 25.6949C12.1996 25.6949 11.9187 25.6146 11.6751 25.4538C11.4315 25.2914 11.2409 25.0627 11.1033 24.7677C10.9658 24.4711 10.897 24.1206 10.897 23.7162C10.897 23.3152 10.9658 22.9672 11.1033 22.6722C11.2409 22.3772 11.4323 22.1494 11.6776 21.9886C11.9228 21.8279 12.2062 21.7475 12.5277 21.7475C12.7763 21.7475 12.9727 21.7889 13.1168 21.8718C13.2627 21.953 13.3737 22.0458 13.4499 22.1502C13.5278 22.2529 13.5883 22.3375 13.6314 22.4037H13.6811V20.5245H14.2678V25.6154H13.701V25.0287H13.6314C13.5883 25.0983 13.527 25.1862 13.4474 25.2922C13.3679 25.3966 13.2544 25.4903 13.1069 25.5731C12.9594 25.6543 12.763 25.6949 12.5178 25.6949ZM12.5973 25.1679C12.8326 25.1679 13.0315 25.1066 13.1939 24.984C13.3563 24.8597 13.4798 24.6882 13.5643 24.4694C13.6488 24.249 13.6911 23.9946 13.6911 23.7063C13.6911 23.4213 13.6496 23.1718 13.5668 22.9581C13.4839 22.7426 13.3613 22.5753 13.1989 22.4559C13.0365 22.335 12.8359 22.2745 12.5973 22.2745C12.3487 22.2745 12.1416 22.3383 11.9759 22.4659C11.8118 22.5918 11.6883 22.7634 11.6055 22.9804C11.5243 23.1959 11.4837 23.4378 11.4837 23.7063C11.4837 23.9781 11.5251 24.225 11.608 24.4471C11.6925 24.6675 11.8168 24.8431 11.9808 24.9741C12.1465 25.1033 12.352 25.1679 12.5973 25.1679ZM15.4237 25.6154V21.7972H15.9904V22.3739H16.0302C16.0998 22.185 16.2257 22.0317 16.408 21.914C16.5903 21.7964 16.7958 21.7375 17.0245 21.7375C17.0676 21.7375 17.1214 21.7384 17.1861 21.74C17.2507 21.7417 17.2996 21.7442 17.3327 21.7475V22.3441C17.3129 22.3391 17.2673 22.3317 17.196 22.3217C17.1264 22.3101 17.0527 22.3043 16.9748 22.3043C16.7892 22.3043 16.6235 22.3433 16.4776 22.4211C16.3335 22.4974 16.2191 22.6034 16.1346 22.7393C16.0517 22.8736 16.0103 23.0268 16.0103 23.1992V25.6154H15.4237ZM19.4631 25.6949C19.1184 25.6949 18.8159 25.6129 18.5558 25.4488C18.2972 25.2848 18.0951 25.0553 17.9492 24.7603C17.805 24.4653 17.733 24.1206 17.733 23.7262C17.733 23.3285 17.805 22.9813 17.9492 22.6846C18.0951 22.388 18.2972 22.1576 18.5558 21.9936C18.8159 21.8295 19.1184 21.7475 19.4631 21.7475C19.8078 21.7475 20.1094 21.8295 20.3679 21.9936C20.6281 22.1576 20.8303 22.388 20.9744 22.6846C21.1203 22.9813 21.1932 23.3285 21.1932 23.7262C21.1932 24.1206 21.1203 24.4653 20.9744 24.7603C20.8303 25.0553 20.6281 25.2848 20.3679 25.4488C20.1094 25.6129 19.8078 25.6949 19.4631 25.6949ZM19.4631 25.1679C19.7249 25.1679 19.9403 25.1008 20.1094 24.9666C20.2784 24.8324 20.4035 24.6559 20.4847 24.4371C20.5659 24.2184 20.6065 23.9814 20.6065 23.7262C20.6065 23.471 20.5659 23.2332 20.4847 23.0128C20.4035 22.7924 20.2784 22.6142 20.1094 22.4783C19.9403 22.3424 19.7249 22.2745 19.4631 22.2745C19.2012 22.2745 18.9858 22.3424 18.8168 22.4783C18.6477 22.6142 18.5226 22.7924 18.4414 23.0128C18.3602 23.2332 18.3196 23.471 18.3196 23.7262C18.3196 23.9814 18.3602 24.2184 18.4414 24.4371C18.5226 24.6559 18.6477 24.8324 18.8168 24.9666C18.9858 25.1008 19.2012 25.1679 19.4631 25.1679ZM22.0887 25.6154V21.7972H22.6753V25.6154H22.0887ZM22.387 21.1608C22.2726 21.1608 22.174 21.1219 22.0912 21.044C22.01 20.9661 21.9694 20.8725 21.9694 20.7631C21.9694 20.6537 22.01 20.5601 22.0912 20.4822C22.174 20.4043 22.2726 20.3654 22.387 20.3654C22.5013 20.3654 22.5991 20.4043 22.6803 20.4822C22.7632 20.5601 22.8046 20.6537 22.8046 20.7631C22.8046 20.8725 22.7632 20.9661 22.6803 21.044C22.5991 21.1219 22.5013 21.1608 22.387 21.1608ZM25.1916 25.6949C24.8734 25.6949 24.5925 25.6146 24.3489 25.4538C24.1053 25.2914 23.9147 25.0627 23.7772 24.7677C23.6396 24.4711 23.5708 24.1206 23.5708 23.7162C23.5708 23.3152 23.6396 22.9672 23.7772 22.6722C23.9147 22.3772 24.1061 22.1494 24.3514 21.9886C24.5967 21.8279 24.88 21.7475 25.2015 21.7475C25.4501 21.7475 25.6465 21.7889 25.7907 21.8718C25.9365 21.953 26.0475 22.0458 26.1238 22.1502C26.2016 22.2529 26.2621 22.3375 26.3052 22.4037H26.3549V20.5245H26.9416V25.6154H26.3748V25.0287H26.3052C26.2621 25.0983 26.2008 25.1862 26.1213 25.2922C26.0417 25.3966 25.9282 25.4903 25.7807 25.5731C25.6332 25.6543 25.4368 25.6949 25.1916 25.6949ZM25.2711 25.1679C25.5065 25.1679 25.7053 25.1066 25.8677 24.984C26.0301 24.8597 26.1536 24.6882 26.2381 24.4694C26.3226 24.249 26.3649 23.9946 26.3649 23.7063C26.3649 23.4213 26.3234 23.1718 26.2406 22.9581C26.1577 22.7426 26.0351 22.5753 25.8727 22.4559C25.7103 22.335 25.5098 22.2745 25.2711 22.2745C25.0225 22.2745 24.8154 22.3383 24.6497 22.4659C24.4856 22.5918 24.3622 22.7634 24.2793 22.9804C24.1981 23.1959 24.1575 23.4378 24.1575 23.7063C24.1575 23.9781 24.1989 24.225 24.2818 24.4471C24.3663 24.6675 24.4906 24.8431 24.6547 24.9741C24.8204 25.1033 25.0259 25.1679 25.2711 25.1679Z" fill="#5CD27C"/>
</svg>
