<svg width="36" height="36" viewBox="0 0 36 36" fill="none" xmlns="http://www.w3.org/2000/svg">
<path d="M12 27.25H12.7V31.125C12.7 32.4192 13.7088 33.5 15 33.5C16.2912 33.5 17.3 32.4192 17.3 31.125V27.25H18.7V31.125C18.7 32.4192 19.7088 33.5 21 33.5C22.2912 33.5 23.3 32.4192 23.3 31.125V27.25H24C24.9552 27.25 25.7 26.4442 25.7 25.5V13V12.5H25.2H10.8H10.3V13V25.5C10.3 26.4442 11.0448 27.25 12 27.25ZM11.8073 4.42127L13.0062 5.67015C11.3542 7.13479 10.3 9.309 10.3 11.75V12.25H10.8H25.2H25.7V11.75C25.7 9.30893 24.6456 7.12247 22.972 5.6553L24.1567 4.42127C24.5824 3.97778 24.5824 3.28472 24.1567 2.84123C23.7199 2.38626 23.0201 2.38625 22.5833 2.84123L21.0611 4.42685C20.129 3.99484 19.0903 3.75 18 3.75C16.8969 3.75 15.8559 3.99577 14.9148 4.42853L13.3807 2.84123C13.3805 2.841 13.3802 2.84077 13.38 2.84054C12.9432 2.38626 12.2439 2.38649 11.8073 2.84123C11.3816 3.28471 11.3816 3.97778 11.8073 4.42127ZM7.8 12.5C6.50882 12.5 5.5 13.5808 5.5 14.875V23.625C5.5 24.9192 6.50882 26 7.8 26C9.09118 26 10.1 24.9192 10.1 23.625V14.875C10.1 13.5808 9.09118 12.5 7.8 12.5ZM28.2 12.5C26.9088 12.5 25.9 13.5808 25.9 14.875V23.625C25.9 24.9192 26.9088 26 28.2 26C29.4912 26 30.5 24.9192 30.5 23.625V14.875C30.5 13.5808 29.4912 12.5 28.2 12.5ZM15.1 8.75H14.9V8.5H15.1V8.75ZM21.1 8.75H20.9V8.5H21.1V8.75Z" fill="url(#paint0_linear_645_4460)" stroke="#AECED0"/>
<defs>
<linearGradient id="paint0_linear_645_4460" x1="4.66639" y1="7.8" x2="27.1789" y2="9.35427" gradientUnits="userSpaceOnUse">
<stop stop-color="#00549B"/>
<stop offset="1" stop-color="#0C5B57"/>
</linearGradient>
</defs>
</svg>
