<svg width="14" height="14" viewBox="0 0 14 14" fill="none" xmlns="http://www.w3.org/2000/svg">
<path d="M7.00001 0C10.866 0 14 3.134 14 7C14 10.866 10.866 14 7.00001 14C5.71634 14 4.51334 13.6543 3.47868 13.0513L1.07434 13.7067C0.966183 13.736 0.852206 13.7362 0.743927 13.7074C0.635647 13.6785 0.5369 13.6216 0.457664 13.5423C0.378427 13.4631 0.321507 13.3644 0.292654 13.2561C0.263802 13.1478 0.264039 13.0338 0.293342 12.9257L0.949008 10.5213C0.325652 9.45263 -0.00190216 8.23722 8.30951e-06 7C8.30951e-06 3.134 3.13401 0 7.00001 0ZM7.00001 1.33333C3.87034 1.33333 1.33334 3.87033 1.33334 7C1.33334 8.01667 1.60034 8.992 2.10067 9.84967L2.36668 10.3057L1.86867 12.1313L3.69434 11.6333L4.15034 11.8993C5.01518 12.4038 5.99881 12.6686 7.00001 12.6667C10.1297 12.6667 12.6667 10.1297 12.6667 7C12.6667 3.87033 10.1297 1.33333 7.00001 1.33333ZM9.74201 4.86667C9.98534 5.08 10.022 5.44133 9.83534 5.69767L9.79967 5.742L6.88034 9.07533C6.77615 9.19424 6.63047 9.26885 6.47309 9.2839C6.31571 9.29896 6.15852 9.25333 6.03367 9.15633L5.99201 9.121L4.24467 7.498C4.1275 7.38947 4.05673 7.23991 4.0471 7.08049C4.03748 6.92106 4.08975 6.76408 4.19302 6.64224C4.29629 6.52041 4.44259 6.44312 4.60144 6.4265C4.76028 6.40987 4.91942 6.45519 5.04567 6.553L5.08868 6.58967L6.36801 7.77767L8.86701 4.92467C8.92067 4.86342 8.98587 4.81334 9.05889 4.7773C9.13191 4.74125 9.21131 4.71994 9.29256 4.71459C9.37382 4.70923 9.45533 4.71994 9.53245 4.74609C9.60956 4.77224 9.68077 4.813 9.74201 4.86667Z" fill="white"/>
</svg>
