<svg width="17" height="14" viewBox="0 0 17 14" fill="none" xmlns="http://www.w3.org/2000/svg">
  <path fill-rule="evenodd" clip-rule="evenodd" d="M8.41602 0.640625L6.71381 2.34283C5.77613 3.28051 4.50436 3.80729 3.17828 3.80729H1.49935C0.999349 3.80729 0.666016 4.14062 0.666016 4.64062V8.80729C0.666016 9.30729 0.999349 9.64063 1.49935 9.64063H3.17828C4.50436 9.64063 5.77613 10.1674 6.71381 11.1051L8.41602 12.8073C8.58268 12.974 8.74935 13.0573 8.99935 13.0573C9.49935 13.0573 9.83268 12.724 9.83268 12.224V1.22396C9.83268 0.973958 9.74935 0.807292 9.58268 0.640625C9.24935 0.307292 8.74935 0.307292 8.41602 0.640625Z" fill="currentColor"/>
  <path d="M14.2493 11.5573C14.2033 11.6033 14.1287 11.6033 14.0827 11.5573L13.3327 10.8073C13.2867 10.7613 13.2867 10.6866 13.3327 10.6406C14.416 9.55729 14.916 8.22396 14.916 6.72396C14.916 5.22396 14.3327 3.89063 13.3327 2.80729C13.2867 2.76127 13.2867 2.68665 13.3327 2.64062L14.0827 1.89062C14.1287 1.8446 14.2033 1.8446 14.2493 1.89063C15.4993 3.14062 16.2493 4.89062 16.2493 6.72396C16.2493 8.55729 15.5827 10.224 14.2493 11.5573Z" fill="currentColor">
    <animate attributeName="opacity" dur="1.5s" repeatCount="indefinite" values="0;0;1;" keyTimes="0;0.5;1" />
    <animate attributeName="stroke-width" dur="1.5s" repeatCount="indefinite" values="0;2;0;" keyTimes="0;0.5;1" />
  </path>
  <path d="M12.5827 9.89062C12.5367 9.93665 12.462 9.93665 12.416 9.89062L11.666 9.14062C11.62 9.0946 11.62 9.01998 11.666 8.97396C12.2493 8.39062 12.5827 7.55729 12.5827 6.72396C12.5827 5.89062 12.2493 5.05729 11.666 4.47396C11.62 4.42793 11.62 4.35332 11.666 4.30729L12.416 3.55729C12.462 3.51127 12.5367 3.51127 12.5827 3.55729C13.416 4.39062 13.916 5.55729 13.916 6.72396C13.916 7.89062 13.416 9.05729 12.5827 9.89062Z" fill="currentColor">
    <animate attributeName="opacity" dur="1.5s" repeatCount="indefinite" values="0;1;1;" keyTimes="0;0.5;1" />
    <animate attributeName="stroke-width" dur="1.5s" repeatCount="indefinite" values="0;2;0;" keyTimes="0;0.5;1" />
  </path>
</svg>
