<svg width="20" height="20" viewBox="0 0 20 20" fill="none" xmlns="http://www.w3.org/2000/svg">
<path d="M5.80605 18.0679H5.30605C4.10005 18.0679 3.12305 17.0909 3.12305 15.8849V13.2019H7.98905V15.8849C7.98905 17.0909 7.01205 18.0679 5.80605 18.0679Z" fill="#7518ED"/>
<path d="M5.21605 18.0679C4.06005 18.0679 3.12305 17.1309 3.12305 15.9749V13.2019H7.31005V15.9749C7.31005 17.1309 6.37305 18.0679 5.21605 18.0679Z" fill="#9539FC"/>
<path d="M12.408 2.2689L7.614 5.1719H3.01C2.078 5.1719 1.323 5.9349 1.323 6.8769V12.0619C1.323 13.0039 2.078 13.7669 3.01 13.7669H7.963L12.539 16.6869C13.721 17.2259 14.662 16.5189 14.662 15.6939V3.5469C14.662 1.9669 13.121 1.8359 12.408 2.2689Z" fill="#FCB423"/>
<path d="M12.359 3.17199L7.70197 5.96599H2.91197C2.03497 5.96599 1.32397 6.67699 1.32397 7.55399V12.384C1.32397 13.261 2.03497 13.972 2.91197 13.972H7.57697L12.388 16.647C13.059 17.02 13.885 16.535 13.885 15.767V4.03599C13.884 3.25299 13.03 2.76899 12.359 3.17199Z" fill="#F7FB43"/>
<path d="M15.6049 8.06906C15.3189 8.05506 15.0539 7.86106 14.9379 7.54406C14.7759 7.10406 14.9619 6.59506 15.3539 6.40706L17.1209 5.55006C17.5119 5.36206 18.0479 5.48706 18.2539 5.94206C18.4479 6.36906 18.1709 6.92006 17.7799 7.10806L15.9389 8.00006C15.8353 8.05118 15.7203 8.07494 15.6049 8.06906Z" fill="#FF9100"/>
<path d="M15.6371 8.06997C15.3871 8.06997 15.1461 7.92897 15.0311 7.68797C14.9931 7.60847 14.971 7.52224 14.9663 7.43421C14.9616 7.34618 14.9742 7.25809 15.0036 7.17497C15.0329 7.09184 15.0784 7.01532 15.1373 6.94977C15.1963 6.88423 15.2676 6.83095 15.3471 6.79297L17.0851 5.96097C17.4191 5.80097 17.8201 5.94197 17.9801 6.27697C18.1401 6.61097 17.9991 7.01197 17.6641 7.17197L15.9261 8.00397C15.8331 8.04897 15.7341 8.06997 15.6371 8.06997Z" fill="#F7FB43"/>
<path d="M17.7971 10.573H15.4801C15.0811 10.573 14.7581 10.195 14.7581 9.72901C14.7581 9.26301 15.0811 8.88501 15.4801 8.88501H17.7971C18.1961 8.88501 18.5191 9.26301 18.5191 9.72901C18.5191 10.195 18.1951 10.573 17.7971 10.573Z" fill="#FF9100"/>
<path d="M17.5831 10.573H15.4281C15.0571 10.573 14.7571 10.272 14.7571 9.90196C14.7571 9.53196 15.0581 9.23096 15.4281 9.23096H17.5831C17.759 9.23399 17.9268 9.30603 18.0501 9.43153C18.1735 9.55704 18.2426 9.72598 18.2426 9.90196C18.2426 10.0779 18.1735 10.2469 18.0501 10.3724C17.9268 10.4979 17.759 10.5699 17.5831 10.573Z" fill="#F7FB43"/>
<path d="M17.762 13.9699C17.539 13.9699 17.332 13.8909 17.228 13.8439L15.374 12.8359C15.1856 12.7503 15.0389 12.5934 14.9661 12.3997C14.8933 12.206 14.9005 11.9914 14.986 11.8029C15.0715 11.6145 15.2284 11.4678 15.4221 11.3951C15.6158 11.3223 15.8305 11.3294 16.019 11.4149L18.153 12.3819C18.545 12.5599 18.7 13.0139 18.541 13.4149C18.405 13.7569 18.173 13.9699 17.762 13.9699Z" fill="#FF9100"/>
<path d="M17.4241 13.8729C17.3311 13.8729 17.2371 13.8539 17.1471 13.8129L15.3111 12.9809C14.9731 12.8279 14.8241 12.4299 14.9771 12.0919C15.1301 11.7539 15.5281 11.6049 15.8661 11.7579L17.7021 12.5899C18.0401 12.7429 18.1891 13.1409 18.0361 13.4789C17.9825 13.5962 17.8964 13.6958 17.7879 13.7656C17.6794 13.8355 17.5531 13.8727 17.4241 13.8729Z" fill="#F7FB43"/>
<path d="M11.662 14.0769C11.291 14.0769 10.991 13.7759 10.991 13.4059V8.30088C10.991 7.92988 11.292 7.62988 11.662 7.62988C12.032 7.62988 12.333 7.93088 12.333 8.30088V13.4059C12.333 13.7759 12.033 14.0769 11.662 14.0769Z" fill="#EA4606"/>
<path d="M11.662 13.3611C11.291 13.3611 10.991 13.0601 10.991 12.6901V7.58409C10.991 7.21309 11.292 6.91309 11.662 6.91309C12.032 6.91309 12.333 7.21409 12.333 7.58409V12.6891C12.333 13.0601 12.033 13.3611 11.662 13.3611Z" fill="#FF8150"/>
</svg>
