<svg width="20" height="20" viewBox="0 0 20 20" fill="none" xmlns="http://www.w3.org/2000/svg">
<path fill-rule="evenodd" clip-rule="evenodd" d="M9.99996 14.8334C12.9924 14.8334 15.7324 13.3478 17.4513 10.9351C17.8504 10.3749 17.8504 9.62526 17.4513 9.06509C15.7324 6.65237 12.9924 5.16675 9.99996 5.16675C7.00749 5.16675 4.26749 6.65237 2.54859 9.06509C2.14951 9.62526 2.14951 10.3749 2.54859 10.9351C4.26749 13.3478 7.00749 14.8334 9.99996 14.8334ZM9.99996 4.16675C13.6663 4.16675 16.8836 6.15394 18.6985 9.14305C19.0184 9.66992 19.0184 10.3302 18.6985 10.8571C16.8836 13.8462 13.6663 15.8334 9.99996 15.8334C6.33361 15.8334 3.11634 13.8462 1.30145 10.8571C0.981549 10.3302 0.981549 9.66992 1.30145 9.14305C3.11634 6.15394 6.33361 4.16675 9.99996 4.16675ZM9.99996 12.3334C11.2886 12.3334 12.3333 11.2887 12.3333 10.0001C12.3333 8.71142 11.2886 7.66675 9.99996 7.66675C8.71129 7.66675 7.66662 8.71142 7.66662 10.0001C7.66662 11.2887 8.71129 12.3334 9.99996 12.3334ZM9.99996 13.3334C8.15901 13.3334 6.66662 11.841 6.66662 10.0001C6.66662 8.15913 8.15901 6.66675 9.99996 6.66675C11.8409 6.66675 13.3333 8.15913 13.3333 10.0001C13.3333 11.841 11.8409 13.3334 9.99996 13.3334Z" fill="currentColor"/>
<path d="M16.5 3.5L4 16" stroke="#9BA7BE" stroke-linecap="round"/>
</svg>
