<svg width="20" height="20" viewBox="0 0 20 20" fill="none" xmlns="http://www.w3.org/2000/svg">
<path fill-rule="evenodd" clip-rule="evenodd" d="M9.99967 14.8334C12.9921 14.8334 15.7321 13.3478 17.451 10.9351C17.8501 10.3749 17.8501 9.62526 17.451 9.06509C15.7321 6.65237 12.9921 5.16675 9.99967 5.16675C7.0072 5.16675 4.26721 6.65237 2.5483 9.06509C2.14923 9.62526 2.14923 10.3749 2.5483 10.9351C4.26721 13.3478 7.0072 14.8334 9.99967 14.8334ZM9.99967 4.16675C13.666 4.16675 16.8833 6.15394 18.6982 9.14305C19.0181 9.66992 19.0181 10.3302 18.6982 10.8571C16.8833 13.8462 13.666 15.8334 9.99967 15.8334C6.33333 15.8334 3.11605 13.8462 1.30116 10.8571C0.981265 10.3302 0.981265 9.66992 1.30116 9.14305C3.11605 6.15394 6.33333 4.16675 9.99967 4.16675ZM9.99967 12.3334C11.2883 12.3334 12.333 11.2887 12.333 10.0001C12.333 8.71142 11.2883 7.66675 9.99967 7.66675C8.71101 7.66675 7.66634 8.71142 7.66634 10.0001C7.66634 11.2887 8.71101 12.3334 9.99967 12.3334ZM9.99967 13.3334C8.15872 13.3334 6.66634 11.841 6.66634 10.0001C6.66634 8.15913 8.15872 6.66675 9.99967 6.66675C11.8406 6.66675 13.333 8.15913 13.333 10.0001C13.333 11.841 11.8406 13.3334 9.99967 13.3334Z" fill="currentColor"/>
</svg>
