<svg xmlns="http://www.w3.org/2000/svg" width="11" height="11" viewBox="0 0 11 11" fill="none">
  <path d="M9.97491 7.76043C9.9746 7.75871 9.97428 7.75699 9.97396 7.75528L9.33526 4.45751C9.33478 4.45503 9.33401 4.45271 9.33347 4.45024C9.23464 3.91063 8.94993 3.42269 8.52878 3.07115C8.10762 2.71962 7.57664 2.52671 7.02806 2.52594H7.02714L3.59002 2.53609C3.03862 2.53499 2.50456 2.72877 2.08216 3.08321C1.65975 3.43764 1.37618 3.92993 1.2815 4.47315C1.281 4.47597 1.28055 4.47883 1.28013 4.48166L0.643644 7.75505C0.643301 7.75684 0.642977 7.75864 0.642652 7.76043C0.590751 8.05493 0.634076 8.35831 0.766336 8.62651C0.898595 8.89471 1.1129 9.11377 1.37814 9.25188C1.64338 9.38999 1.94573 9.43996 2.2413 9.39453C2.53687 9.3491 2.81027 9.21064 3.02178 8.99925C3.02745 8.9936 3.03287 8.98778 3.03803 8.98178L4.62901 7.22301L5.99032 7.21758L7.57905 8.98121C7.58435 8.98739 7.58993 8.9934 7.59578 8.99925C7.80728 9.21067 8.08068 9.34916 8.37626 9.39461C8.67184 9.44005 8.97422 9.39009 9.23947 9.25197C9.50472 9.11386 9.71903 8.89478 9.85128 8.62656C9.98354 8.35834 10.0268 8.05494 9.97491 7.76043L9.97491 7.76043ZM4.3711 5.19234H4.0586V5.50484C4.0586 5.58772 4.02568 5.6672 3.96707 5.72581C3.90847 5.78441 3.82898 5.81734 3.7461 5.81734C3.66322 5.81734 3.58373 5.78441 3.52513 5.72581C3.46652 5.6672 3.4336 5.58772 3.4336 5.50484V5.19234H3.1211C3.03822 5.19234 2.95873 5.15941 2.90013 5.10081C2.84152 5.0422 2.8086 4.96272 2.8086 4.87984C2.8086 4.79696 2.84152 4.71747 2.90013 4.65886C2.95873 4.60026 3.03822 4.56734 3.1211 4.56734H3.4336V4.25484C3.4336 4.17196 3.46652 4.09247 3.52513 4.03386C3.58373 3.97526 3.66322 3.94234 3.7461 3.94234C3.82898 3.94234 3.90847 3.97526 3.96707 4.03386C4.02568 4.09247 4.0586 4.17196 4.0586 4.25484V4.56734H4.3711C4.45398 4.56734 4.53347 4.60026 4.59207 4.65886C4.65068 4.71747 4.6836 4.79696 4.6836 4.87984C4.6836 4.96272 4.65068 5.0422 4.59207 5.10081C4.53347 5.15941 4.45398 5.19234 4.3711 5.19234ZM5.9336 4.87984C5.9336 4.79696 5.96652 4.71747 6.02513 4.65887C6.08373 4.60026 6.16322 4.56734 6.2461 4.56734H7.4961C7.57898 4.56734 7.65847 4.60026 7.71707 4.65886C7.77568 4.71747 7.8086 4.79696 7.8086 4.87984C7.8086 4.96272 7.77568 5.0422 7.71707 5.10081C7.65847 5.15941 7.57898 5.19234 7.4961 5.19234H6.2461C6.16322 5.19233 6.08373 5.15941 6.02513 5.10081C5.96652 5.0422 5.9336 4.96272 5.9336 4.87984ZM8.72569 8.77403C8.60347 8.79549 8.47789 8.78757 8.35933 8.75093C8.24077 8.71429 8.13262 8.64998 8.04381 8.56331L6.82851 7.21424L7.02806 7.21344C7.42652 7.2132 7.81834 7.11139 8.16651 6.91763C8.51469 6.72386 8.80772 6.44453 9.01793 6.10603L9.35983 7.87136C9.39488 8.07508 9.34785 8.2844 9.22902 8.45354C9.11019 8.62269 8.92923 8.73792 8.72569 8.77403Z" fill="currentColor"/>
</svg>