<svg width="14" height="14" viewBox="0 0 14 14" fill="none" xmlns="http://www.w3.org/2000/svg">
<path d="M13.2998 10.0499C13.7494 9.1219 13.9884 8.10596 13.9996 7.0748C14.0108 6.04365 13.794 5.02275 13.3647 4.08513C12.9355 3.14751 12.3043 2.31635 11.5163 1.65109C10.7284 0.98583 9.80317 0.502918 8.80686 0.236892C8.79473 0.233113 8.78247 0.229859 8.77011 0.226934C7.67709 -0.058502 6.5312 -0.0749216 5.43045 0.17908C4.3297 0.433081 3.30687 0.949943 2.44944 1.68545C2.41663 1.70822 2.38648 1.73459 2.35955 1.76407C1.29591 2.70545 0.543979 3.94827 0.203719 5.32731C-0.136541 6.70636 -0.0490142 8.1563 0.454664 9.4844C0.958342 10.8125 1.85431 11.9558 3.02347 12.7624C4.19263 13.569 5.5796 14.0007 7 14C7.04953 14 7.09886 13.9991 7.14816 13.9981C7.14937 13.9981 7.15059 13.9983 7.15177 13.9983C7.15414 13.9983 7.1564 13.998 7.15874 13.998C8.43002 13.968 9.66918 13.5927 10.7435 12.9123C11.8178 12.2319 12.6867 11.272 13.2572 10.1355L13.2582 10.1341C13.2745 10.1073 13.2884 10.0792 13.2998 10.0499ZM12.9231 7C12.9237 7.70566 12.7976 8.40569 12.5508 9.06679L9.42768 7.14592C9.29968 7.067 9.15649 7.01594 9.00743 6.99606L7.47158 6.78901C7.27414 6.7634 7.07346 6.79266 6.89155 6.87356C6.70964 6.95447 6.55352 7.0839 6.44031 7.24767H5.8653L5.60921 6.71861C5.53787 6.57121 5.43384 6.44201 5.30506 6.34085C5.17628 6.2397 5.02612 6.16924 4.86601 6.13483L4.4241 6.03988L4.59354 5.63761C4.63467 5.53997 4.70369 5.45663 4.79196 5.39803C4.88023 5.33943 4.98383 5.30817 5.08978 5.30817H6.16904C6.35111 5.30808 6.5302 5.26191 6.68962 5.17395L7.51368 4.7189C7.5862 4.67884 7.65387 4.63056 7.71534 4.57502L9.52663 2.93689C9.68277 2.79675 9.79429 2.61383 9.84734 2.41085C9.9004 2.20787 9.89264 1.99377 9.82505 1.79516C10.7617 2.30405 11.5438 3.05607 12.089 3.97204C12.6342 4.88801 12.9223 5.93405 12.9231 7ZM1.07692 7C1.07587 6.07234 1.29407 5.15756 1.71372 4.33024L2.41529 6.20276C2.47827 6.37203 2.58299 6.52264 2.71972 6.64063C2.85646 6.75862 3.02078 6.84016 3.19744 6.87768L3.56849 6.95744L3.57155 6.9581L4.38285 7.13249C4.46289 7.1497 4.53794 7.18492 4.60232 7.23549C4.66669 7.28605 4.71869 7.35063 4.75435 7.42431L4.896 7.71691C4.98417 7.89904 5.12186 8.05264 5.2933 8.16012C5.46474 8.26759 5.66299 8.3246 5.86533 8.3246H5.93997L5.42202 9.48684C5.33611 9.67924 5.3086 9.89264 5.3429 10.1005C5.37719 10.3084 5.47179 10.5017 5.61494 10.6563L6.69522 11.8248C6.75259 11.8868 6.79454 11.9615 6.8177 12.0428C6.84085 12.124 6.84456 12.2096 6.82851 12.2926L6.70796 12.9158C5.1901 12.8391 3.75962 12.1826 2.71178 11.0817C1.66394 9.9809 1.07873 8.5198 1.07692 7Z" fill="currentColor"/>
</svg>
