<svg width="20" height="20" viewBox="0 0 20 20" fill="none" xmlns="http://www.w3.org/2000/svg">
<path d="M9.58317 5.83325C9.58317 5.61224 9.67097 5.40028 9.82725 5.244C9.98353 5.08772 10.1955 4.99992 10.4165 4.99992H17.4998C17.6093 4.9999 17.7177 5.02144 17.8188 5.06332C17.9199 5.10519 18.0118 5.16657 18.0892 5.24395C18.1666 5.32134 18.228 5.41321 18.2699 5.51432C18.3117 5.61543 18.3333 5.72381 18.3333 5.83325C18.3333 5.9427 18.3117 6.05107 18.2699 6.15218C18.228 6.2533 18.1666 6.34517 18.0892 6.42255C18.0118 6.49994 17.9199 6.56132 17.8188 6.60319C17.7177 6.64506 17.6093 6.6666 17.4998 6.66659H10.4165C10.1955 6.66659 9.98353 6.57879 9.82725 6.42251C9.67097 6.26623 9.58317 6.05427 9.58317 5.83325ZM1.6665 10.8333C1.6665 10.7238 1.68806 10.6155 1.72994 10.5143C1.77182 10.4132 1.8332 10.3214 1.91058 10.244C1.98796 10.1666 2.07983 10.1052 2.18093 10.0634C2.28204 10.0215 2.3904 9.99992 2.49984 9.99992H17.4998C17.6093 9.9999 17.7177 10.0214 17.8188 10.0633C17.9199 10.1052 18.0118 10.1666 18.0892 10.244C18.1666 10.3213 18.228 10.4132 18.2699 10.5143C18.3117 10.6154 18.3333 10.7238 18.3333 10.8333C18.3333 10.9427 18.3117 11.0511 18.2699 11.1522C18.228 11.2533 18.1666 11.3452 18.0892 11.4226C18.0118 11.4999 17.9199 11.5613 17.8188 11.6032C17.7177 11.6451 17.6093 11.6666 17.4998 11.6666H2.49984C2.27882 11.6666 2.06686 11.5788 1.91058 11.4225C1.7543 11.2662 1.6665 11.0543 1.6665 10.8333ZM1.6665 15.8333C1.6665 15.6122 1.7543 15.4003 1.91058 15.244C2.06686 15.0877 2.27882 14.9999 2.49984 14.9999H17.4998C17.6093 14.9999 17.7177 15.0214 17.8188 15.0633C17.9199 15.1052 18.0118 15.1666 18.0892 15.2439C18.1666 15.3213 18.228 15.4132 18.2699 15.5143C18.3117 15.6154 18.3333 15.7238 18.3333 15.8333C18.3333 15.9427 18.3117 16.0511 18.2699 16.1522C18.228 16.2533 18.1666 16.3452 18.0892 16.4226C18.0118 16.4999 17.9199 16.5613 17.8188 16.6032C17.7177 16.6451 17.6093 16.6666 17.4998 16.6666H2.49984C2.27882 16.6666 2.06686 16.5788 1.91058 16.4225C1.7543 16.2662 1.6665 16.0543 1.6665 15.8333ZM4.1665 4.99992C3.94551 4.99995 3.73358 5.08776 3.57733 5.24404C3.42108 5.40032 3.3333 5.61226 3.3333 5.83325C3.3333 6.05424 3.42108 6.26619 3.57733 6.42246C3.73358 6.57874 3.94551 6.66655 4.1665 6.66659H5.83317C6.05416 6.66655 6.26609 6.57874 6.42234 6.42246C6.5786 6.26619 6.66638 6.05424 6.66638 5.83325C6.66638 5.61226 6.5786 5.40032 6.42234 5.24404C6.26609 5.08776 6.05416 4.99995 5.83317 4.99992H4.1665ZM1.6665 5.83325C1.6665 5.17021 1.9299 4.53433 2.39874 4.06548C2.86758 3.59664 3.50346 3.33325 4.1665 3.33325H5.83317C6.49621 3.33325 7.1321 3.59664 7.60094 4.06548C8.06978 4.53433 8.33317 5.17021 8.33317 5.83325C8.33317 6.49629 8.06978 7.13218 7.60094 7.60102C7.1321 8.06986 6.49621 8.33325 5.83317 8.33325H4.1665C3.50346 8.33325 2.86758 8.06986 2.39874 7.60102C1.9299 7.13218 1.6665 6.49629 1.6665 5.83325Z" fill="currentColor"/>
</svg>
