<svg width="20" height="19" viewBox="0 0 20 19" fill="none" xmlns="http://www.w3.org/2000/svg">
<path fill-rule="evenodd" clip-rule="evenodd" d="M1 0C0.447715 0 0 0.447715 0 1C0 1.55228 0.447715 2 1 2H19C19.5523 2 20 1.55228 20 1C20 0.447715 19.5523 0 19 0H1ZM1 16.1038C0.447715 16.1038 0 16.5515 0 17.1038C0 17.656 0.447715 18.1038 1 18.1038H19C19.5523 18.1038 20 17.656 20 17.1038C20 16.5515 19.5523 16.1038 19 16.1038H1ZM0 8.87976C0 8.32748 0.447715 7.87976 1 7.87976H14V5.83966C14 5.52235 14.3518 5.33137 14.6179 5.50421L19.4835 8.66455C19.7264 8.82227 19.7264 9.17773 19.4835 9.33545L14.6179 12.4958C14.3518 12.6686 14 12.4777 14 12.1603V9.87976H1C0.447715 9.87976 0 9.43205 0 8.87976Z" fill="currentColor"/>
</svg>
