<?xml version="1.0" encoding="UTF-8"?>
<svg id="_图层_1" data-name="图层_1" xmlns="http://www.w3.org/2000/svg" xmlns:xlink="http://www.w3.org/1999/xlink" version="1.1" viewBox="0 0 23 23">
  <!-- Generator: Adobe Illustrator 29.0.1, SVG Export Plug-In . SVG Version: 2.1.0 Build 192)  -->
  <defs>
    <style>
      .st0 {
        fill: url(#_未命名的渐变);
        fill-rule: evenodd;
      }
    </style>
    <linearGradient id="_未命名的渐变" data-name="未命名的渐变" x1="20.4" y1="0" x2="-2.1" y2="23.9" gradientTransform="translate(0 23.9) scale(1 -1)" gradientUnits="userSpaceOnUse">
      <stop offset="0" stop-color="#7041f3"/>
      <stop offset="1" stop-color="#f5c84c"/>
    </linearGradient>
  </defs>
  <path class="st0" d="M21.5,13.1h-.8c-.1,0-.2,0-.2,0,0-.5-.3-1.3-1-2-.6-.7-1.4-1.2-2.3-1.5,0-.8.3-1.5.8-2.7,0-.1,0-.3,0-.4-.1-.1-.3-.1-.4-.1-1.7.4-2.8,1.1-3.6,2.3-.9-.2-1.8-.2-2.7-.2-2.6,0-4.7.6-6.6,1.9-.8.5-1.4,1.3-1.9,2.1,0,0,0,.2-.1.3-.2,0-.4-.1-.7-.3-.5-.3-.7-.7-.7-1.1s.3-.9.7-1c.2,0,.3-.3.2-.5,0-.2-.3-.3-.6-.2-.7.3-1.2.9-1.2,1.7s.4,1.3,1.1,1.8c.3.2.7.3.9.4-.2.6-.2,1.3-.2,2.1,0,1.9,1.7,3.3,2.7,4h0s0,0,0,0c.1,0,.2.1.1.3-.2.4-.4,1-.4,1h0c-.1.3-.1.6,0,.8.1.3.4.5.7.6l1.6.5c.1,0,.3,0,.4,0,.5,0,1-.3,1.2-.7,0,0,.2-.5.4-.9,0,0,0-.1,0-.1,0,0,.2,0,.3,0h0c.4,0,1,.2,1.9.2s1.4,0,1.8,0h0s0,0,0,0c.2,0,.3,0,.4,0s0,0,0,0c0,0,0,0,0,0,.1.4.3.7.4.8.2.4.7.7,1.2.7s.3,0,.4,0l1.6-.5c.3-.1.6-.3.7-.6.1-.3.1-.6,0-.8l-.3-.6s0,0,0,0c0,0,0,0,0,0,0,0,0,0,.1,0,1.1-.5,2.1-1.4,2.6-2.4.1-.2.2-.3.4-.3h.8c.7,0,1.2-.5,1.2-1.1v-2.1c0-.6-.5-1.1-1.2-1.1ZM17.1,14.7c-.5,0-.9-.4-.9-.9s.4-.9.9-.9.9.4.9.9-.4.9-.9.9ZM12.6,7.1c.3-.6.5-1.3.5-2.1C13.1,2.4,11,.2,8.3.2S3.5,2.4,3.5,5.1s.5,2.5,1.3,3.3c1.2-.7,3.8-1.7,7.8-1.3ZM9.7,6.4h-2.7v-2.7h2.7v2.7Z"/>
</svg>