<svg xmlns="http://www.w3.org/2000/svg" width="28" height="24" fill="currentColor" viewBox="0 0 28 24">
  <path fill="currentColor" fill-rule="evenodd" d="M11.2 0h5.6c5.28 0 7.92 0 9.56 1.64 1.18 1.181 1.511 2.88 1.604 5.71H.036C.129 4.52.459 2.821 1.64 1.64 3.28 0 5.92 0 11.2 0Zm11.858 13.258a1.05 1.05 0 0 1 1.485 0l2.8 2.8a1.05 1.05 0 0 1-1.485 1.485l-1.008-1.008V22.4a1.05 1.05 0 1 1-2.1 0v-5.865l-1.008 1.008a1.05 1.05 0 0 1-1.485-1.485l2.8-2.8ZM16.8 22.4h-5.6c-5.28 0-7.92 0-9.56-1.64C0 19.12 0 16.48 0 11.2c0-.618 0-1.201.003-1.75h27.994C28 10 28 10.582 28 11.2c0 .924 0 1.766-.009 2.537l-1.964-1.964a3.15 3.15 0 0 0-4.454 0l-2.8 2.8a3.15 3.15 0 0 0 1.877 5.358v2.433c-1.1.036-2.372.036-3.85.036ZM5.6 15.75a1.05 1.05 0 1 0 0 2.1h5.6a1.05 1.05 0 1 0 0-2.1H5.6Zm8.05 1.05c0-.58.47-1.05 1.05-1.05h2.1a1.05 1.05 0 1 1 0 2.1h-2.1c-.58 0-1.05-.47-1.05-1.05Z" clip-rule="evenodd"/>
</svg>
