<svg width="32" height="32" viewBox="0 0 32 32" fill="none" xmlns="http://www.w3.org/2000/svg">
<path d="M16.1093 22.9343C16.2266 22.9343 16.3459 22.9271 16.4661 22.9128C17.6182 22.7745 18.5965 21.9692 18.9576 20.8595C18.9849 20.7765 18.9455 20.6875 18.8661 20.651C18.7875 20.6144 18.6924 20.6461 18.648 20.7205C18.6438 20.7276 18.186 21.467 16.4039 21.7077C16.1371 21.7435 15.8776 21.7622 15.6315 21.7622C14.383 21.7614 13.8266 21.2909 13.8215 21.2865C13.7587 21.2307 13.6628 21.2292 13.5984 21.2836C13.5333 21.3381 13.5184 21.4327 13.5627 21.505C14.1062 22.3862 15.0815 22.9343 16.1093 22.9343ZM25.6914 11.8899C25.6757 11.8899 25.6614 11.8927 25.6465 11.8927C24.6023 7.37217 20.6125 4 15.8289 4C10.9138 4 6.83241 7.55839 5.92781 12.2661C5.04825 12.4243 4.37878 13.1974 4.37878 14.1323V17.8742C4.37878 18.923 5.21979 19.7734 6.25821 19.7734C6.84396 19.7734 7.36098 19.4968 7.70492 19.072C8.53595 21.27 10.2278 23.0422 12.3689 23.9773C12.374 23.9662 12.4145 23.8873 12.4633 23.8245C12.497 23.7809 12.5348 23.7453 12.5672 23.7453C12.6008 23.7453 12.6316 23.7575 12.6579 23.7761C12.1624 23.4071 10.3725 21.5107 9.98475 18.8642C9.81464 17.6994 10.6871 16.5559 11.7032 16.3668C13.3345 16.063 14.9572 15.717 16.5885 15.419C17.6254 15.2299 18.3341 14.6611 18.7674 13.7139C18.869 13.4925 19.0156 13.0449 19.0829 12.3993C19.1007 12.3033 19.1794 12.2296 19.2803 12.2296C19.3476 12.2296 19.4048 12.2639 19.4427 12.3134L19.4877 12.2855C20.1306 13.2189 21.4056 15.2858 21.5887 17.4651C21.799 19.9568 21.6817 21.6634 19.7745 23.4092C19.7723 23.4115 19.7694 23.4142 19.7666 23.4165C19.7401 23.445 19.7244 23.4823 19.7244 23.5232C19.7244 23.5769 19.753 23.6228 19.7944 23.6507C19.8102 23.6571 19.8259 23.6658 19.8417 23.6722C19.8545 23.6751 19.8667 23.6793 19.8796 23.6793C19.8925 23.6793 19.9039 23.6751 19.9154 23.6722C19.9425 23.6579 19.9682 23.6414 19.9947 23.6271C21.9235 22.5645 23.4031 20.7901 24.0868 18.6558C24.3636 19.067 24.7969 19.3629 25.3003 19.4661C24.4929 23.1384 21.2177 25.4367 17.1599 25.7856C16.9167 25.1824 16.3181 24.754 15.6151 24.754C14.697 24.754 13.9525 25.4812 13.9525 26.3774C13.9525 27.2737 14.6968 28 15.6151 28C16.3554 28 16.9754 27.5244 17.1906 26.871C21.8876 26.4892 25.6529 23.6973 26.4389 19.3594C27.1333 19.0691 27.6209 18.3879 27.6209 17.5926V13.8064C27.6209 12.7482 26.757 11.8899 25.6914 11.8899ZM23.9587 12.9775C22.7336 9.65895 19.5591 7.28832 15.8247 7.28832C12.1059 7.28832 8.94281 9.63887 7.70636 12.9359C7.64485 12.8606 7.57269 12.7962 7.50187 12.731C8.20186 8.71328 11.6597 5.65852 15.8289 5.65852C19.9782 5.65852 23.4252 8.68322 24.1482 12.673C24.0767 12.769 24.0109 12.8692 23.9587 12.9775ZM12.3691 23.9773C12.369 23.9773 12.369 23.9773 12.3689 23.9773C12.3681 23.979 12.3681 23.9793 12.3691 23.9773Z" fill="white"/>
</svg>
