<svg width="9" height="9" viewBox="0 0 9 9" fill="none" xmlns="http://www.w3.org/2000/svg">
<g>
<path d="M3.98809 0.110954C4.05247 -0.0369847 4.26229 -0.0369847 4.32666 0.110954L5.37667 2.52401C5.40343 2.58551 5.46143 2.62766 5.5282 2.63411L8.1476 2.88705C8.3082 2.90256 8.3731 3.10211 8.2523 3.20905L6.2818 4.95334C6.23155 4.9978 6.20939 5.066 6.22389 5.13148L6.7928 7.70087C6.8277 7.85839 6.6579 7.98172 6.5189 7.89987L4.25103 6.56485C4.19323 6.53082 4.12152 6.53082 4.06372 6.56485L1.79589 7.89987C1.65685 7.98172 1.4871 7.85839 1.52198 7.70087L2.09087 5.13148C2.10537 5.066 2.08321 4.9978 2.03298 4.95334L0.0624956 3.20905C-0.0583144 3.10211 0.00652556 2.90256 0.167116 2.88705L2.78655 2.63411C2.85331 2.62766 2.91132 2.58551 2.93809 2.52401L3.98809 0.110954Z" fill="currentColor"/>
</g>
</svg>
