<svg xmlns="http://www.w3.org/2000/svg" width="40" height="40" viewBox="0 0 40 40" fill="none">
  <path d="M20.625 2.63672L20 1.98438L19.3789 2.63672C19.0937 2.9375 12.3516 10.082 12.3516 19.0742C12.3516 23.4492 13.9141 27.2812 15.2227 29.7266L15.4648 30.1797H24.4922L24.7227 29.6719C24.8438 29.4062 27.6523 23.1172 27.6523 19.0742C27.6523 10.082 20.9102 2.9375 20.625 2.63672ZM20 4.54297C20.7422 5.4375 22.0273 7.125 23.2148 9.32812H16.7891C17.9727 7.125 19.2617 5.4375 20 4.54297ZM23.3711 28.457H16.5039C15.5 26.4805 14.0742 22.9844 14.0742 19.0742C14.0742 16.1445 14.8867 13.3906 15.9375 11.0508H24.0703C25.1172 13.3906 25.9297 16.1406 25.9297 19.0742C25.9258 22.1328 24.0273 26.9023 23.3711 28.457Z" fill="currentColor"/>
  <path d="M32.6055 24.3711H25.1289L25.3906 23.3047C25.7461 21.8594 25.9258 20.4375 25.9258 19.0781C25.9258 17.3281 25.625 15.4844 25.0312 13.5977L24.3672 11.4883L26.2852 12.5937C30.1836 14.8438 32.6055 19.0273 32.6055 23.5117V24.3711ZM27.2969 22.6445H30.8477C30.625 19.8711 29.332 17.2852 27.2813 15.4336C27.5273 16.6719 27.6484 17.8906 27.6484 19.0742C27.6523 20.2344 27.5312 21.4297 27.2969 22.6445ZM14.8477 24.3711H7.39453V23.5078C7.39453 19.0234 9.81641 14.8398 13.7148 12.5898L15.6328 11.4844L14.9688 13.5938C14.375 15.4805 14.0742 17.3242 14.0742 19.0742C14.0742 20.4219 14.25 21.8477 14.5977 23.3086L14.8477 24.3711ZM9.15234 22.6445H12.6953C12.4648 21.4219 12.3516 20.2266 12.3516 19.0742C12.3516 17.8906 12.4766 16.6719 12.7188 15.4336C10.668 17.2891 9.375 19.8711 9.15234 22.6445ZM20 20.6836C18.2422 20.6836 16.8125 19.2539 16.8125 17.4961C16.8125 15.7383 18.2422 14.3086 20 14.3086C21.7578 14.3086 23.1875 15.7383 23.1875 17.4961C23.1875 19.2539 21.7578 20.6836 20 20.6836ZM20 16.0352C19.1914 16.0352 18.5352 16.6914 18.5352 17.5C18.5352 18.3086 19.1914 18.9648 20 18.9648C20.8086 18.9648 21.4648 18.3086 21.4648 17.5C21.4648 16.6914 20.8086 16.0352 20 16.0352Z" fill="currentColor"/>
  <path d="M20 39.0508L19.207 38.2578C18.082 37.1406 16.5391 35.6055 16.5391 33.8984C16.5391 31.9883 18.0938 30.4375 20 30.4375C21.9102 30.4375 23.4609 31.9922 23.4609 33.8984C23.4609 35.6016 22.5078 36.5508 20.9297 38.125L20 39.0508ZM20 32.1602C19.043 32.1602 18.2617 32.9414 18.2617 33.8984C18.2617 34.7383 19.1914 35.7891 20 36.6133C21.3125 35.2969 21.7344 34.7773 21.7344 33.8984C21.7383 32.9375 20.957 32.1602 20 32.1602Z" fill="#FF5A06"/>
</svg>