<svg width="46" height="46" viewBox="0 0 46 46" fill="none" xmlns="http://www.w3.org/2000/svg">
<g filter="url(#filter0_b_2647_4026)">
<g clip-path="url(#clip0_2647_4026)">
<path d="M1.65119e-05 0.738447C1.65119e-05 0.330614 0.330631 0 0.738464 0C1.1463 0 1.47691 0.330614 1.47691 0.738447C1.47691 1.14628 1.1463 1.47689 0.738464 1.47689C0.330631 1.47689 1.65119e-05 1.14628 1.65119e-05 0.738447Z" fill="#FDDC73" fill-opacity="0.16"/>
<path d="M20.6765 0.738448C20.6765 0.330615 21.0071 4.96067e-07 21.415 4.96067e-07C21.8228 4.96067e-07 22.1534 0.330615 22.1534 0.738448C22.1534 1.14628 21.8228 1.47689 21.415 1.47689C21.0071 1.47689 20.6765 1.14628 20.6765 0.738448Z" fill="#FDDC73" fill-opacity="0.16"/>
<path d="M41.353 0.738448C41.353 0.330615 41.6837 4.96067e-07 42.0915 4.96067e-07C42.4993 4.96067e-07 42.8299 0.330615 42.8299 0.738448C42.8299 1.14628 42.4993 1.47689 42.0915 1.47689C41.6837 1.47689 41.353 1.14628 41.353 0.738448Z" fill="#FDDC73" fill-opacity="0.16"/>
<path d="M2.95379 0.738448C2.95379 0.330615 3.2844 4.96067e-07 3.69224 4.96067e-07C4.10007 4.96067e-07 4.43068 0.330615 4.43068 0.738448C4.43068 1.14628 4.10007 1.47689 3.69224 1.47689C3.2844 1.47689 2.95379 1.14628 2.95379 0.738448Z" fill="#FDDC73" fill-opacity="0.16"/>
<path d="M23.6303 0.738448C23.6303 0.330615 23.9609 4.96067e-07 24.3688 4.96067e-07C24.7766 4.96067e-07 25.1072 0.330615 25.1072 0.738448C25.1072 1.14628 24.7766 1.47689 24.3688 1.47689C23.9609 1.47689 23.6303 1.14628 23.6303 0.738448Z" fill="#FDDC73" fill-opacity="0.16"/>
<path d="M44.3068 0.738448C44.3068 0.330615 44.6374 4.96067e-07 45.0453 4.96067e-07C45.4531 4.96067e-07 45.7837 0.330615 45.7837 0.738448C45.7837 1.14628 45.4531 1.47689 45.0453 1.47689C44.6374 1.47689 44.3068 1.14628 44.3068 0.738448Z" fill="#FDDC73" fill-opacity="0.16"/>
<path d="M5.90757 0.738448C5.90757 0.330615 6.23818 4.96067e-07 6.64601 4.96067e-07C7.05385 4.96067e-07 7.38446 0.330615 7.38446 0.738448C7.38446 1.14628 7.05385 1.47689 6.64601 1.47689C6.23818 1.47689 5.90757 1.14628 5.90757 0.738448Z" fill="#FDDC73" fill-opacity="0.16"/>
<path d="M26.5841 0.738448C26.5841 0.330615 26.9147 4.96067e-07 27.3225 4.96067e-07C27.7304 4.96067e-07 28.061 0.330615 28.061 0.738448C28.061 1.14628 27.7304 1.47689 27.3225 1.47689C26.9147 1.47689 26.5841 1.14628 26.5841 0.738448Z" fill="#FDDC73" fill-opacity="0.16"/>
<path d="M47.2606 0.738448C47.2606 0.330615 47.5912 4.96067e-07 47.9991 4.96067e-07C48.4069 4.96067e-07 48.7375 0.330615 48.7375 0.738448C48.7375 1.14628 48.4069 1.47689 47.9991 1.47689C47.5912 1.47689 47.2606 1.14628 47.2606 0.738448Z" fill="#FDDC73" fill-opacity="0.16"/>
<path d="M8.86137 0.738448C8.86137 0.330615 9.19198 4.96067e-07 9.59981 4.96067e-07C10.0076 4.96067e-07 10.3383 0.330615 10.3383 0.738448C10.3383 1.14628 10.0076 1.47689 9.59981 1.47689C9.19198 1.47689 8.86137 1.14628 8.86137 0.738448Z" fill="#FDDC73" fill-opacity="0.16"/>
<path d="M29.5379 0.738448C29.5379 0.330615 29.8685 4.96067e-07 30.2763 4.96067e-07C30.6842 4.96067e-07 31.0148 0.330615 31.0148 0.738448C31.0148 1.14628 30.6842 1.47689 30.2763 1.47689C29.8685 1.47689 29.5379 1.14628 29.5379 0.738448Z" fill="#FDDC73" fill-opacity="0.16"/>
<path d="M50.2144 0.738448C50.2144 0.330615 50.545 4.96067e-07 50.9529 4.96067e-07C51.3607 4.96067e-07 51.6913 0.330615 51.6913 0.738448C51.6913 1.14628 51.3607 1.47689 50.9529 1.47689C50.545 1.47689 50.2144 1.14628 50.2144 0.738448Z" fill="#FDDC73" fill-opacity="0.16"/>
<path d="M11.8151 0.738448C11.8151 0.330615 12.1458 4.96067e-07 12.5536 4.96067e-07C12.9614 4.96067e-07 13.292 0.330615 13.292 0.738448C13.292 1.14628 12.9614 1.47689 12.5536 1.47689C12.1458 1.47689 11.8151 1.14628 11.8151 0.738448Z" fill="#FDDC73" fill-opacity="0.16"/>
<path d="M32.4917 0.738448C32.4917 0.330615 32.8223 4.96067e-07 33.2301 4.96067e-07C33.638 4.96067e-07 33.9686 0.330615 33.9686 0.738448C33.9686 1.14628 33.638 1.47689 33.2301 1.47689C32.8223 1.47689 32.4917 1.14628 32.4917 0.738448Z" fill="#FDDC73" fill-opacity="0.16"/>
<path d="M14.7689 0.738448C14.7689 0.330615 15.0996 4.96067e-07 15.5074 4.96067e-07C15.9152 4.96067e-07 16.2458 0.330615 16.2458 0.738448C16.2458 1.14628 15.9152 1.47689 15.5074 1.47689C15.0996 1.47689 14.7689 1.14628 14.7689 0.738448Z" fill="#FDDC73" fill-opacity="0.16"/>
<path d="M35.4455 0.738448C35.4455 0.330615 35.7761 4.96067e-07 36.1839 4.96067e-07C36.5917 4.96067e-07 36.9224 0.330615 36.9224 0.738448C36.9224 1.14628 36.5917 1.47689 36.1839 1.47689C35.7761 1.47689 35.4455 1.14628 35.4455 0.738448Z" fill="#FDDC73" fill-opacity="0.16"/>
<path d="M17.7227 0.738448C17.7227 0.330615 18.0533 4.96067e-07 18.4612 4.96067e-07C18.869 4.96067e-07 19.1996 0.330615 19.1996 0.738448C19.1996 1.14628 18.869 1.47689 18.4612 1.47689C18.0533 1.47689 17.7227 1.14628 17.7227 0.738448Z" fill="#FDDC73" fill-opacity="0.16"/>
<path d="M38.3993 0.738448C38.3993 0.330615 38.7299 4.96067e-07 39.1377 4.96067e-07C39.5455 4.96067e-07 39.8761 0.330615 39.8761 0.738448C39.8761 1.14628 39.5455 1.47689 39.1377 1.47689C38.7299 1.47689 38.3993 1.14628 38.3993 0.738448Z" fill="#FDDC73" fill-opacity="0.16"/>
<path d="M0 3.69224C0 3.2844 0.330614 2.95379 0.738447 2.95379C1.14628 2.95379 1.47689 3.2844 1.47689 3.69224C1.47689 4.10007 1.14628 4.43068 0.738447 4.43068C0.330614 4.43068 0 4.10007 0 3.69224Z" fill="#FDDC73" fill-opacity="0.16"/>
<path d="M20.6765 3.69224C20.6765 3.2844 21.0071 2.95379 21.4149 2.95379C21.8228 2.95379 22.1534 3.2844 22.1534 3.69224C22.1534 4.10007 21.8228 4.43068 21.4149 4.43068C21.0071 4.43068 20.6765 4.10007 20.6765 3.69224Z" fill="#FDDC73" fill-opacity="0.16"/>
<path d="M41.353 3.69224C41.353 3.2844 41.6836 2.95379 42.0915 2.95379C42.4993 2.95379 42.8299 3.2844 42.8299 3.69224C42.8299 4.10007 42.4993 4.43068 42.0915 4.43068C41.6836 4.43068 41.353 4.10007 41.353 3.69224Z" fill="#FDDC73" fill-opacity="0.16"/>
<path d="M2.95376 3.69224C2.95376 3.2844 3.28438 2.95379 3.69221 2.95379C4.10004 2.95379 4.43066 3.2844 4.43066 3.69224C4.43066 4.10007 4.10004 4.43068 3.69221 4.43068C3.28438 4.43068 2.95376 4.10007 2.95376 3.69224Z" fill="#FDDC73" fill-opacity="0.16"/>
<path d="M23.6303 3.69224C23.6303 3.2844 23.9609 2.95379 24.3687 2.95379C24.7766 2.95379 25.1072 3.2844 25.1072 3.69224C25.1072 4.10007 24.7766 4.43068 24.3687 4.43068C23.9609 4.43068 23.6303 4.10007 23.6303 3.69224Z" fill="#FDDC73" fill-opacity="0.16"/>
<path d="M44.3068 3.69224C44.3068 3.2844 44.6374 2.95379 45.0453 2.95379C45.4531 2.95379 45.7837 3.2844 45.7837 3.69224C45.7837 4.10007 45.4531 4.43068 45.0453 4.43068C44.6374 4.43068 44.3068 4.10007 44.3068 3.69224Z" fill="#FDDC73" fill-opacity="0.16"/>
<path d="M5.90756 3.69224C5.90756 3.2844 6.23818 2.95379 6.64601 2.95379C7.05384 2.95379 7.38446 3.2844 7.38446 3.69224C7.38446 4.10007 7.05384 4.43068 6.64601 4.43068C6.23818 4.43068 5.90756 4.10007 5.90756 3.69224Z" fill="#FDDC73" fill-opacity="0.16"/>
<path d="M26.5841 3.69224C26.5841 3.2844 26.9147 2.95379 27.3225 2.95379C27.7304 2.95379 28.061 3.2844 28.061 3.69224C28.061 4.10007 27.7304 4.43068 27.3225 4.43068C26.9147 4.43068 26.5841 4.10007 26.5841 3.69224Z" fill="#FDDC73" fill-opacity="0.16"/>
<path d="M47.2606 3.69224C47.2606 3.2844 47.5912 2.95379 47.999 2.95379C48.4069 2.95379 48.7375 3.2844 48.7375 3.69224C48.7375 4.10007 48.4069 4.43068 47.999 4.43068C47.5912 4.43068 47.2606 4.10007 47.2606 3.69224Z" fill="#FDDC73" fill-opacity="0.16"/>
<path d="M8.86134 3.69224C8.86134 3.2844 9.19195 2.95379 9.59979 2.95379C10.0076 2.95379 10.3382 3.2844 10.3382 3.69224C10.3382 4.10007 10.0076 4.43068 9.59979 4.43068C9.19195 4.43068 8.86134 4.10007 8.86134 3.69224Z" fill="#FDDC73" fill-opacity="0.16"/>
<path d="M29.5379 3.69224C29.5379 3.2844 29.8685 2.95379 30.2763 2.95379C30.6841 2.95379 31.0148 3.2844 31.0148 3.69224C31.0148 4.10007 30.6841 4.43068 30.2763 4.43068C29.8685 4.43068 29.5379 4.10007 29.5379 3.69224Z" fill="#FDDC73" fill-opacity="0.16"/>
<path d="M50.2144 3.69224C50.2144 3.2844 50.545 2.95379 50.9528 2.95379C51.3607 2.95379 51.6913 3.2844 51.6913 3.69224C51.6913 4.10007 51.3607 4.43068 50.9528 4.43068C50.545 4.43068 50.2144 4.10007 50.2144 3.69224Z" fill="#FDDC73" fill-opacity="0.16"/>
<path d="M11.8151 3.69224C11.8151 3.2844 12.1458 2.95379 12.5536 2.95379C12.9614 2.95379 13.292 3.2844 13.292 3.69224C13.292 4.10007 12.9614 4.43068 12.5536 4.43068C12.1458 4.43068 11.8151 4.10007 11.8151 3.69224Z" fill="#FDDC73" fill-opacity="0.16"/>
<path d="M32.4917 3.69224C32.4917 3.2844 32.8223 2.95379 33.2301 2.95379C33.6379 2.95379 33.9685 3.2844 33.9685 3.69224C33.9685 4.10007 33.6379 4.43068 33.2301 4.43068C32.8223 4.43068 32.4917 4.10007 32.4917 3.69224Z" fill="#FDDC73" fill-opacity="0.16"/>
<path d="M14.7689 3.69224C14.7689 3.2844 15.0995 2.95379 15.5074 2.95379C15.9152 2.95379 16.2458 3.2844 16.2458 3.69224C16.2458 4.10007 15.9152 4.43068 15.5074 4.43068C15.0995 4.43068 14.7689 4.10007 14.7689 3.69224Z" fill="#FDDC73" fill-opacity="0.16"/>
<path d="M35.4454 3.69224C35.4454 3.2844 35.7761 2.95379 36.1839 2.95379C36.5917 2.95379 36.9223 3.2844 36.9223 3.69224C36.9223 4.10007 36.5917 4.43068 36.1839 4.43068C35.7761 4.43068 35.4454 4.10007 35.4454 3.69224Z" fill="#FDDC73" fill-opacity="0.16"/>
<path d="M17.7227 3.69224C17.7227 3.2844 18.0533 2.95379 18.4612 2.95379C18.869 2.95379 19.1996 3.2844 19.1996 3.69224C19.1996 4.10007 18.869 4.43068 18.4612 4.43068C18.0533 4.43068 17.7227 4.10007 17.7227 3.69224Z" fill="#FDDC73" fill-opacity="0.16"/>
<path d="M38.3992 3.69224C38.3992 3.2844 38.7298 2.95379 39.1377 2.95379C39.5455 2.95379 39.8761 3.2844 39.8761 3.69224C39.8761 4.10007 39.5455 4.43068 39.1377 4.43068C38.7298 4.43068 38.3992 4.10007 38.3992 3.69224Z" fill="#FDDC73" fill-opacity="0.16"/>
<path d="M0 6.64603C0 6.23819 0.330614 5.90758 0.738447 5.90758C1.14628 5.90758 1.47689 6.23819 1.47689 6.64603C1.47689 7.05386 1.14628 7.38447 0.738447 7.38447C0.330614 7.38447 0 7.05386 0 6.64603Z" fill="#FDDC73" fill-opacity="0.16"/>
<path d="M20.6765 6.64603C20.6765 6.23819 21.0071 5.90758 21.4149 5.90758C21.8228 5.90758 22.1534 6.23819 22.1534 6.64603C22.1534 7.05386 21.8228 7.38447 21.4149 7.38447C21.0071 7.38447 20.6765 7.05386 20.6765 6.64603Z" fill="#FDDC73" fill-opacity="0.16"/>
<path d="M41.353 6.64603C41.353 6.23819 41.6836 5.90758 42.0915 5.90758C42.4993 5.90758 42.8299 6.23819 42.8299 6.64603C42.8299 7.05386 42.4993 7.38447 42.0915 7.38447C41.6836 7.38447 41.353 7.05386 41.353 6.64603Z" fill="#FDDC73" fill-opacity="0.16"/>
<path d="M2.95376 6.64603C2.95376 6.23819 3.28438 5.90758 3.69221 5.90758C4.10004 5.90758 4.43066 6.23819 4.43066 6.64603C4.43066 7.05386 4.10004 7.38447 3.69221 7.38447C3.28438 7.38447 2.95376 7.05386 2.95376 6.64603Z" fill="#FDDC73" fill-opacity="0.16"/>
<path d="M23.6303 6.64603C23.6303 6.23819 23.9609 5.90758 24.3687 5.90758C24.7766 5.90758 25.1072 6.23819 25.1072 6.64603C25.1072 7.05386 24.7766 7.38447 24.3687 7.38447C23.9609 7.38447 23.6303 7.05386 23.6303 6.64603Z" fill="#FDDC73" fill-opacity="0.16"/>
<path d="M44.3068 6.64603C44.3068 6.23819 44.6374 5.90758 45.0453 5.90758C45.4531 5.90758 45.7837 6.23819 45.7837 6.64603C45.7837 7.05386 45.4531 7.38447 45.0453 7.38447C44.6374 7.38447 44.3068 7.05386 44.3068 6.64603Z" fill="#FDDC73" fill-opacity="0.16"/>
<path d="M5.90756 6.64603C5.90756 6.23819 6.23818 5.90758 6.64601 5.90758C7.05384 5.90758 7.38446 6.23819 7.38446 6.64603C7.38446 7.05386 7.05384 7.38447 6.64601 7.38447C6.23818 7.38447 5.90756 7.05386 5.90756 6.64603Z" fill="#FDDC73" fill-opacity="0.16"/>
<path d="M26.5841 6.64603C26.5841 6.23819 26.9147 5.90758 27.3225 5.90758C27.7304 5.90758 28.061 6.23819 28.061 6.64603C28.061 7.05386 27.7304 7.38447 27.3225 7.38447C26.9147 7.38447 26.5841 7.05386 26.5841 6.64603Z" fill="#FDDC73" fill-opacity="0.16"/>
<path d="M47.2606 6.64603C47.2606 6.23819 47.5912 5.90758 47.999 5.90758C48.4069 5.90758 48.7375 6.23819 48.7375 6.64603C48.7375 7.05386 48.4069 7.38447 47.999 7.38447C47.5912 7.38447 47.2606 7.05386 47.2606 6.64603Z" fill="#FDDC73" fill-opacity="0.16"/>
<path d="M8.86134 6.64603C8.86134 6.23819 9.19195 5.90758 9.59979 5.90758C10.0076 5.90758 10.3382 6.23819 10.3382 6.64603C10.3382 7.05386 10.0076 7.38447 9.59979 7.38447C9.19195 7.38447 8.86134 7.05386 8.86134 6.64603Z" fill="#FDDC73" fill-opacity="0.16"/>
<path d="M29.5379 6.64603C29.5379 6.23819 29.8685 5.90758 30.2763 5.90758C30.6841 5.90758 31.0148 6.23819 31.0148 6.64603C31.0148 7.05386 30.6841 7.38447 30.2763 7.38447C29.8685 7.38447 29.5379 7.05386 29.5379 6.64603Z" fill="#FDDC73" fill-opacity="0.16"/>
<path d="M50.2144 6.64603C50.2144 6.23819 50.545 5.90758 50.9528 5.90758C51.3607 5.90758 51.6913 6.23819 51.6913 6.64603C51.6913 7.05386 51.3607 7.38447 50.9528 7.38447C50.545 7.38447 50.2144 7.05386 50.2144 6.64603Z" fill="#FDDC73" fill-opacity="0.16"/>
<path d="M11.8151 6.64603C11.8151 6.23819 12.1458 5.90758 12.5536 5.90758C12.9614 5.90758 13.292 6.23819 13.292 6.64603C13.292 7.05386 12.9614 7.38447 12.5536 7.38447C12.1458 7.38447 11.8151 7.05386 11.8151 6.64603Z" fill="#FDDC73" fill-opacity="0.16"/>
<path d="M32.4917 6.64603C32.4917 6.23819 32.8223 5.90758 33.2301 5.90758C33.6379 5.90758 33.9685 6.23819 33.9685 6.64603C33.9685 7.05386 33.6379 7.38447 33.2301 7.38447C32.8223 7.38447 32.4917 7.05386 32.4917 6.64603Z" fill="#FDDC73" fill-opacity="0.16"/>
<path d="M14.7689 6.64603C14.7689 6.23819 15.0995 5.90758 15.5074 5.90758C15.9152 5.90758 16.2458 6.23819 16.2458 6.64603C16.2458 7.05386 15.9152 7.38447 15.5074 7.38447C15.0995 7.38447 14.7689 7.05386 14.7689 6.64603Z" fill="#FDDC73" fill-opacity="0.16"/>
<path d="M35.4454 6.64603C35.4454 6.23819 35.7761 5.90758 36.1839 5.90758C36.5917 5.90758 36.9223 6.23819 36.9223 6.64603C36.9223 7.05386 36.5917 7.38447 36.1839 7.38447C35.7761 7.38447 35.4454 7.05386 35.4454 6.64603Z" fill="#FDDC73" fill-opacity="0.16"/>
<path d="M17.7227 6.64603C17.7227 6.23819 18.0533 5.90758 18.4612 5.90758C18.869 5.90758 19.1996 6.23819 19.1996 6.64603C19.1996 7.05386 18.869 7.38447 18.4612 7.38447C18.0533 7.38447 17.7227 7.05386 17.7227 6.64603Z" fill="#FDDC73" fill-opacity="0.16"/>
<path d="M38.3992 6.64603C38.3992 6.23819 38.7298 5.90758 39.1377 5.90758C39.5455 5.90758 39.8761 6.23819 39.8761 6.64603C39.8761 7.05386 39.5455 7.38447 39.1377 7.38447C38.7298 7.38447 38.3992 7.05386 38.3992 6.64603Z" fill="#FDDC73" fill-opacity="0.16"/>
<path d="M0 9.59981C0 9.19198 0.330614 8.86137 0.738447 8.86137C1.14628 8.86137 1.47689 9.19198 1.47689 9.59981C1.47689 10.0076 1.14628 10.3383 0.738447 10.3383C0.330614 10.3383 0 10.0076 0 9.59981Z" fill="#FDDC73" fill-opacity="0.16"/>
<path d="M20.6765 9.59981C20.6765 9.19198 21.0071 8.86137 21.4149 8.86137C21.8228 8.86137 22.1534 9.19198 22.1534 9.59981C22.1534 10.0076 21.8228 10.3383 21.4149 10.3383C21.0071 10.3383 20.6765 10.0076 20.6765 9.59981Z" fill="#FDDC73" fill-opacity="0.16"/>
<path d="M41.353 9.59981C41.353 9.19198 41.6836 8.86137 42.0915 8.86137C42.4993 8.86137 42.8299 9.19198 42.8299 9.59981C42.8299 10.0076 42.4993 10.3383 42.0915 10.3383C41.6836 10.3383 41.353 10.0076 41.353 9.59981Z" fill="#FDDC73" fill-opacity="0.16"/>
<path d="M2.95376 9.59981C2.95376 9.19198 3.28438 8.86137 3.69221 8.86137C4.10004 8.86137 4.43066 9.19198 4.43066 9.59981C4.43066 10.0076 4.10004 10.3383 3.69221 10.3383C3.28438 10.3383 2.95376 10.0076 2.95376 9.59981Z" fill="#FDDC73" fill-opacity="0.16"/>
<path d="M23.6303 9.59981C23.6303 9.19198 23.9609 8.86137 24.3687 8.86137C24.7766 8.86137 25.1072 9.19198 25.1072 9.59981C25.1072 10.0076 24.7766 10.3383 24.3687 10.3383C23.9609 10.3383 23.6303 10.0076 23.6303 9.59981Z" fill="#FDDC73" fill-opacity="0.16"/>
<path d="M44.3068 9.59981C44.3068 9.19198 44.6374 8.86137 45.0453 8.86137C45.4531 8.86137 45.7837 9.19198 45.7837 9.59981C45.7837 10.0076 45.4531 10.3383 45.0453 10.3383C44.6374 10.3383 44.3068 10.0076 44.3068 9.59981Z" fill="#FDDC73" fill-opacity="0.16"/>
<path d="M5.90756 9.59981C5.90756 9.19198 6.23818 8.86137 6.64601 8.86137C7.05384 8.86137 7.38446 9.19198 7.38446 9.59981C7.38446 10.0076 7.05384 10.3383 6.64601 10.3383C6.23818 10.3383 5.90756 10.0076 5.90756 9.59981Z" fill="#FDDC73" fill-opacity="0.16"/>
<path d="M26.5841 9.59981C26.5841 9.19198 26.9147 8.86137 27.3225 8.86137C27.7304 8.86137 28.061 9.19198 28.061 9.59981C28.061 10.0076 27.7304 10.3383 27.3225 10.3383C26.9147 10.3383 26.5841 10.0076 26.5841 9.59981Z" fill="#FDDC73" fill-opacity="0.16"/>
<path d="M47.2606 9.59981C47.2606 9.19198 47.5912 8.86137 47.999 8.86137C48.4069 8.86137 48.7375 9.19198 48.7375 9.59981C48.7375 10.0076 48.4069 10.3383 47.999 10.3383C47.5912 10.3383 47.2606 10.0076 47.2606 9.59981Z" fill="#FDDC73" fill-opacity="0.16"/>
<path d="M8.86134 9.59981C8.86134 9.19198 9.19195 8.86137 9.59979 8.86137C10.0076 8.86137 10.3382 9.19198 10.3382 9.59981C10.3382 10.0076 10.0076 10.3383 9.59979 10.3383C9.19195 10.3383 8.86134 10.0076 8.86134 9.59981Z" fill="#FDDC73" fill-opacity="0.16"/>
<path d="M29.5379 9.59981C29.5379 9.19198 29.8685 8.86137 30.2763 8.86137C30.6841 8.86137 31.0148 9.19198 31.0148 9.59981C31.0148 10.0076 30.6841 10.3383 30.2763 10.3383C29.8685 10.3383 29.5379 10.0076 29.5379 9.59981Z" fill="#FDDC73" fill-opacity="0.16"/>
<path d="M50.2144 9.59981C50.2144 9.19198 50.545 8.86137 50.9528 8.86137C51.3607 8.86137 51.6913 9.19198 51.6913 9.59981C51.6913 10.0076 51.3607 10.3383 50.9528 10.3383C50.545 10.3383 50.2144 10.0076 50.2144 9.59981Z" fill="#FDDC73" fill-opacity="0.16"/>
<path d="M11.8151 9.59981C11.8151 9.19198 12.1458 8.86137 12.5536 8.86137C12.9614 8.86137 13.292 9.19198 13.292 9.59981C13.292 10.0076 12.9614 10.3383 12.5536 10.3383C12.1458 10.3383 11.8151 10.0076 11.8151 9.59981Z" fill="#FDDC73" fill-opacity="0.16"/>
<path d="M32.4917 9.59981C32.4917 9.19198 32.8223 8.86137 33.2301 8.86137C33.6379 8.86137 33.9685 9.19198 33.9685 9.59981C33.9685 10.0076 33.6379 10.3383 33.2301 10.3383C32.8223 10.3383 32.4917 10.0076 32.4917 9.59981Z" fill="#FDDC73" fill-opacity="0.16"/>
<path d="M14.7689 9.59981C14.7689 9.19198 15.0995 8.86137 15.5074 8.86137C15.9152 8.86137 16.2458 9.19198 16.2458 9.59981C16.2458 10.0076 15.9152 10.3383 15.5074 10.3383C15.0995 10.3383 14.7689 10.0076 14.7689 9.59981Z" fill="#FDDC73" fill-opacity="0.16"/>
<path d="M35.4454 9.59981C35.4454 9.19198 35.7761 8.86137 36.1839 8.86137C36.5917 8.86137 36.9223 9.19198 36.9223 9.59981C36.9223 10.0076 36.5917 10.3383 36.1839 10.3383C35.7761 10.3383 35.4454 10.0076 35.4454 9.59981Z" fill="#FDDC73" fill-opacity="0.16"/>
<path d="M17.7227 9.59981C17.7227 9.19198 18.0533 8.86137 18.4612 8.86137C18.869 8.86137 19.1996 9.19198 19.1996 9.59981C19.1996 10.0076 18.869 10.3383 18.4612 10.3383C18.0533 10.3383 17.7227 10.0076 17.7227 9.59981Z" fill="#FDDC73" fill-opacity="0.16"/>
<path d="M38.3992 9.59981C38.3992 9.19198 38.7298 8.86137 39.1377 8.86137C39.5455 8.86137 39.8761 9.19198 39.8761 9.59981C39.8761 10.0076 39.5455 10.3383 39.1377 10.3383C38.7298 10.3383 38.3992 10.0076 38.3992 9.59981Z" fill="#FDDC73" fill-opacity="0.16"/>
<path d="M0 12.5536C0 12.1458 0.330614 11.8152 0.738447 11.8152C1.14628 11.8152 1.47689 12.1458 1.47689 12.5536C1.47689 12.9614 1.14628 13.292 0.738447 13.292C0.330614 13.292 0 12.9614 0 12.5536Z" fill="#FDDC73" fill-opacity="0.16"/>
<path d="M20.6765 12.5536C20.6765 12.1458 21.0071 11.8152 21.4149 11.8152C21.8228 11.8152 22.1534 12.1458 22.1534 12.5536C22.1534 12.9614 21.8228 13.292 21.4149 13.292C21.0071 13.292 20.6765 12.9614 20.6765 12.5536Z" fill="#FDDC73" fill-opacity="0.16"/>
<path d="M41.353 12.5536C41.353 12.1458 41.6836 11.8152 42.0915 11.8152C42.4993 11.8152 42.8299 12.1458 42.8299 12.5536C42.8299 12.9614 42.4993 13.292 42.0915 13.292C41.6836 13.292 41.353 12.9614 41.353 12.5536Z" fill="#FDDC73" fill-opacity="0.16"/>
<path d="M2.95376 12.5536C2.95376 12.1458 3.28438 11.8152 3.69221 11.8152C4.10004 11.8152 4.43066 12.1458 4.43066 12.5536C4.43066 12.9614 4.10004 13.292 3.69221 13.292C3.28438 13.292 2.95376 12.9614 2.95376 12.5536Z" fill="#FDDC73" fill-opacity="0.16"/>
<path d="M23.6303 12.5536C23.6303 12.1458 23.9609 11.8152 24.3687 11.8152C24.7766 11.8152 25.1072 12.1458 25.1072 12.5536C25.1072 12.9614 24.7766 13.292 24.3687 13.292C23.9609 13.292 23.6303 12.9614 23.6303 12.5536Z" fill="#FDDC73" fill-opacity="0.16"/>
<path d="M44.3068 12.5536C44.3068 12.1458 44.6374 11.8152 45.0453 11.8152C45.4531 11.8152 45.7837 12.1458 45.7837 12.5536C45.7837 12.9614 45.4531 13.292 45.0453 13.292C44.6374 13.292 44.3068 12.9614 44.3068 12.5536Z" fill="#FDDC73" fill-opacity="0.16"/>
<path d="M5.90756 12.5536C5.90756 12.1458 6.23818 11.8152 6.64601 11.8152C7.05384 11.8152 7.38446 12.1458 7.38446 12.5536C7.38446 12.9614 7.05384 13.292 6.64601 13.292C6.23818 13.292 5.90756 12.9614 5.90756 12.5536Z" fill="#FDDC73" fill-opacity="0.16"/>
<path d="M26.5841 12.5536C26.5841 12.1458 26.9147 11.8152 27.3225 11.8152C27.7304 11.8152 28.061 12.1458 28.061 12.5536C28.061 12.9614 27.7304 13.292 27.3225 13.292C26.9147 13.292 26.5841 12.9614 26.5841 12.5536Z" fill="#FDDC73" fill-opacity="0.16"/>
<path d="M47.2606 12.5536C47.2606 12.1458 47.5912 11.8152 47.999 11.8152C48.4069 11.8152 48.7375 12.1458 48.7375 12.5536C48.7375 12.9614 48.4069 13.292 47.999 13.292C47.5912 13.292 47.2606 12.9614 47.2606 12.5536Z" fill="#FDDC73" fill-opacity="0.16"/>
<path d="M8.86134 12.5536C8.86134 12.1458 9.19195 11.8152 9.59979 11.8152C10.0076 11.8152 10.3382 12.1458 10.3382 12.5536C10.3382 12.9614 10.0076 13.292 9.59979 13.292C9.19195 13.292 8.86134 12.9614 8.86134 12.5536Z" fill="#FDDC73" fill-opacity="0.16"/>
<path d="M29.5379 12.5536C29.5379 12.1458 29.8685 11.8152 30.2763 11.8152C30.6841 11.8152 31.0148 12.1458 31.0148 12.5536C31.0148 12.9614 30.6841 13.292 30.2763 13.292C29.8685 13.292 29.5379 12.9614 29.5379 12.5536Z" fill="#FDDC73" fill-opacity="0.16"/>
<path d="M50.2144 12.5536C50.2144 12.1458 50.545 11.8152 50.9528 11.8152C51.3607 11.8152 51.6913 12.1458 51.6913 12.5536C51.6913 12.9614 51.3607 13.292 50.9528 13.292C50.545 13.292 50.2144 12.9614 50.2144 12.5536Z" fill="#FDDC73" fill-opacity="0.16"/>
<path d="M11.8151 12.5536C11.8151 12.1458 12.1458 11.8152 12.5536 11.8152C12.9614 11.8152 13.292 12.1458 13.292 12.5536C13.292 12.9614 12.9614 13.292 12.5536 13.292C12.1458 13.292 11.8151 12.9614 11.8151 12.5536Z" fill="#FDDC73" fill-opacity="0.16"/>
<path d="M32.4917 12.5536C32.4917 12.1458 32.8223 11.8152 33.2301 11.8152C33.6379 11.8152 33.9685 12.1458 33.9685 12.5536C33.9685 12.9614 33.6379 13.292 33.2301 13.292C32.8223 13.292 32.4917 12.9614 32.4917 12.5536Z" fill="#FDDC73" fill-opacity="0.16"/>
<path d="M14.7689 12.5536C14.7689 12.1458 15.0995 11.8152 15.5074 11.8152C15.9152 11.8152 16.2458 12.1458 16.2458 12.5536C16.2458 12.9614 15.9152 13.292 15.5074 13.292C15.0995 13.292 14.7689 12.9614 14.7689 12.5536Z" fill="#FDDC73" fill-opacity="0.16"/>
<path d="M35.4454 12.5536C35.4454 12.1458 35.7761 11.8152 36.1839 11.8152C36.5917 11.8152 36.9223 12.1458 36.9223 12.5536C36.9223 12.9614 36.5917 13.292 36.1839 13.292C35.7761 13.292 35.4454 12.9614 35.4454 12.5536Z" fill="#FDDC73" fill-opacity="0.16"/>
<path d="M17.7227 12.5536C17.7227 12.1458 18.0533 11.8152 18.4612 11.8152C18.869 11.8152 19.1996 12.1458 19.1996 12.5536C19.1996 12.9614 18.869 13.292 18.4612 13.292C18.0533 13.292 17.7227 12.9614 17.7227 12.5536Z" fill="#FDDC73" fill-opacity="0.16"/>
<path d="M38.3992 12.5536C38.3992 12.1458 38.7298 11.8152 39.1377 11.8152C39.5455 11.8152 39.8761 12.1458 39.8761 12.5536C39.8761 12.9614 39.5455 13.292 39.1377 13.292C38.7298 13.292 38.3992 12.9614 38.3992 12.5536Z" fill="#FDDC73" fill-opacity="0.16"/>
<path d="M0 15.5074C0 15.0996 0.330614 14.7689 0.738447 14.7689C1.14628 14.7689 1.47689 15.0996 1.47689 15.5074C1.47689 15.9152 1.14628 16.2458 0.738447 16.2458C0.330614 16.2458 0 15.9152 0 15.5074Z" fill="#FDDC73" fill-opacity="0.16"/>
<path d="M20.6765 15.5074C20.6765 15.0996 21.0071 14.7689 21.4149 14.7689C21.8228 14.7689 22.1534 15.0996 22.1534 15.5074C22.1534 15.9152 21.8228 16.2458 21.4149 16.2458C21.0071 16.2458 20.6765 15.9152 20.6765 15.5074Z" fill="#FDDC73" fill-opacity="0.16"/>
<path d="M41.353 15.5074C41.353 15.0996 41.6836 14.7689 42.0915 14.7689C42.4993 14.7689 42.8299 15.0996 42.8299 15.5074C42.8299 15.9152 42.4993 16.2458 42.0915 16.2458C41.6836 16.2458 41.353 15.9152 41.353 15.5074Z" fill="#FDDC73" fill-opacity="0.16"/>
<path d="M2.95376 15.5074C2.95376 15.0996 3.28438 14.7689 3.69221 14.7689C4.10004 14.7689 4.43066 15.0996 4.43066 15.5074C4.43066 15.9152 4.10004 16.2458 3.69221 16.2458C3.28438 16.2458 2.95376 15.9152 2.95376 15.5074Z" fill="#FDDC73" fill-opacity="0.16"/>
<path d="M23.6303 15.5074C23.6303 15.0996 23.9609 14.7689 24.3687 14.7689C24.7766 14.7689 25.1072 15.0996 25.1072 15.5074C25.1072 15.9152 24.7766 16.2458 24.3687 16.2458C23.9609 16.2458 23.6303 15.9152 23.6303 15.5074Z" fill="#FDDC73" fill-opacity="0.16"/>
<path d="M44.3068 15.5074C44.3068 15.0996 44.6374 14.7689 45.0453 14.7689C45.4531 14.7689 45.7837 15.0996 45.7837 15.5074C45.7837 15.9152 45.4531 16.2458 45.0453 16.2458C44.6374 16.2458 44.3068 15.9152 44.3068 15.5074Z" fill="#FDDC73" fill-opacity="0.16"/>
<path d="M5.90756 15.5074C5.90756 15.0996 6.23818 14.7689 6.64601 14.7689C7.05384 14.7689 7.38446 15.0996 7.38446 15.5074C7.38446 15.9152 7.05384 16.2458 6.64601 16.2458C6.23818 16.2458 5.90756 15.9152 5.90756 15.5074Z" fill="#FDDC73" fill-opacity="0.16"/>
<path d="M26.5841 15.5074C26.5841 15.0996 26.9147 14.7689 27.3225 14.7689C27.7304 14.7689 28.061 15.0996 28.061 15.5074C28.061 15.9152 27.7304 16.2458 27.3225 16.2458C26.9147 16.2458 26.5841 15.9152 26.5841 15.5074Z" fill="#FDDC73" fill-opacity="0.16"/>
<path d="M47.2606 15.5074C47.2606 15.0996 47.5912 14.7689 47.999 14.7689C48.4069 14.7689 48.7375 15.0996 48.7375 15.5074C48.7375 15.9152 48.4069 16.2458 47.999 16.2458C47.5912 16.2458 47.2606 15.9152 47.2606 15.5074Z" fill="#FDDC73" fill-opacity="0.16"/>
<path d="M8.86134 15.5074C8.86134 15.0996 9.19195 14.7689 9.59979 14.7689C10.0076 14.7689 10.3382 15.0996 10.3382 15.5074C10.3382 15.9152 10.0076 16.2458 9.59979 16.2458C9.19195 16.2458 8.86134 15.9152 8.86134 15.5074Z" fill="#FDDC73" fill-opacity="0.16"/>
<path d="M29.5379 15.5074C29.5379 15.0996 29.8685 14.7689 30.2763 14.7689C30.6841 14.7689 31.0148 15.0996 31.0148 15.5074C31.0148 15.9152 30.6841 16.2458 30.2763 16.2458C29.8685 16.2458 29.5379 15.9152 29.5379 15.5074Z" fill="#FDDC73" fill-opacity="0.16"/>
<path d="M50.2144 15.5074C50.2144 15.0996 50.545 14.7689 50.9528 14.7689C51.3607 14.7689 51.6913 15.0996 51.6913 15.5074C51.6913 15.9152 51.3607 16.2458 50.9528 16.2458C50.545 16.2458 50.2144 15.9152 50.2144 15.5074Z" fill="#FDDC73" fill-opacity="0.16"/>
<path d="M11.8151 15.5074C11.8151 15.0996 12.1458 14.7689 12.5536 14.7689C12.9614 14.7689 13.292 15.0996 13.292 15.5074C13.292 15.9152 12.9614 16.2458 12.5536 16.2458C12.1458 16.2458 11.8151 15.9152 11.8151 15.5074Z" fill="#FDDC73" fill-opacity="0.16"/>
<path d="M32.4917 15.5074C32.4917 15.0996 32.8223 14.7689 33.2301 14.7689C33.6379 14.7689 33.9685 15.0996 33.9685 15.5074C33.9685 15.9152 33.6379 16.2458 33.2301 16.2458C32.8223 16.2458 32.4917 15.9152 32.4917 15.5074Z" fill="#FDDC73" fill-opacity="0.16"/>
<path d="M14.7689 15.5074C14.7689 15.0996 15.0995 14.7689 15.5074 14.7689C15.9152 14.7689 16.2458 15.0996 16.2458 15.5074C16.2458 15.9152 15.9152 16.2458 15.5074 16.2458C15.0995 16.2458 14.7689 15.9152 14.7689 15.5074Z" fill="#FDDC73" fill-opacity="0.16"/>
<path d="M35.4454 15.5074C35.4454 15.0996 35.7761 14.7689 36.1839 14.7689C36.5917 14.7689 36.9223 15.0996 36.9223 15.5074C36.9223 15.9152 36.5917 16.2458 36.1839 16.2458C35.7761 16.2458 35.4454 15.9152 35.4454 15.5074Z" fill="#FDDC73" fill-opacity="0.16"/>
<path d="M17.7227 15.5074C17.7227 15.0996 18.0533 14.7689 18.4612 14.7689C18.869 14.7689 19.1996 15.0996 19.1996 15.5074C19.1996 15.9152 18.869 16.2458 18.4612 16.2458C18.0533 16.2458 17.7227 15.9152 17.7227 15.5074Z" fill="#FDDC73" fill-opacity="0.16"/>
<path d="M38.3992 15.5074C38.3992 15.0996 38.7298 14.7689 39.1377 14.7689C39.5455 14.7689 39.8761 15.0996 39.8761 15.5074C39.8761 15.9152 39.5455 16.2458 39.1377 16.2458C38.7298 16.2458 38.3992 15.9152 38.3992 15.5074Z" fill="#FDDC73" fill-opacity="0.16"/>
<path d="M0 18.4612C0 18.0533 0.330614 17.7227 0.738447 17.7227C1.14628 17.7227 1.47689 18.0533 1.47689 18.4612C1.47689 18.869 1.14628 19.1996 0.738447 19.1996C0.330614 19.1996 0 18.869 0 18.4612Z" fill="#FDDC73" fill-opacity="0.16"/>
<path d="M20.6765 18.4612C20.6765 18.0533 21.0071 17.7227 21.4149 17.7227C21.8228 17.7227 22.1534 18.0533 22.1534 18.4612C22.1534 18.869 21.8228 19.1996 21.4149 19.1996C21.0071 19.1996 20.6765 18.869 20.6765 18.4612Z" fill="#FDDC73" fill-opacity="0.16"/>
<path d="M41.353 18.4612C41.353 18.0533 41.6836 17.7227 42.0915 17.7227C42.4993 17.7227 42.8299 18.0533 42.8299 18.4612C42.8299 18.869 42.4993 19.1996 42.0915 19.1996C41.6836 19.1996 41.353 18.869 41.353 18.4612Z" fill="#FDDC73" fill-opacity="0.16"/>
<path d="M2.95376 18.4612C2.95376 18.0533 3.28438 17.7227 3.69221 17.7227C4.10004 17.7227 4.43066 18.0533 4.43066 18.4612C4.43066 18.869 4.10004 19.1996 3.69221 19.1996C3.28438 19.1996 2.95376 18.869 2.95376 18.4612Z" fill="#FDDC73" fill-opacity="0.16"/>
<path d="M23.6303 18.4612C23.6303 18.0533 23.9609 17.7227 24.3687 17.7227C24.7766 17.7227 25.1072 18.0533 25.1072 18.4612C25.1072 18.869 24.7766 19.1996 24.3687 19.1996C23.9609 19.1996 23.6303 18.869 23.6303 18.4612Z" fill="#FDDC73" fill-opacity="0.16"/>
<path d="M44.3068 18.4612C44.3068 18.0533 44.6374 17.7227 45.0453 17.7227C45.4531 17.7227 45.7837 18.0533 45.7837 18.4612C45.7837 18.869 45.4531 19.1996 45.0453 19.1996C44.6374 19.1996 44.3068 18.869 44.3068 18.4612Z" fill="#FDDC73" fill-opacity="0.16"/>
<path d="M5.90756 18.4612C5.90756 18.0533 6.23818 17.7227 6.64601 17.7227C7.05384 17.7227 7.38446 18.0533 7.38446 18.4612C7.38446 18.869 7.05384 19.1996 6.64601 19.1996C6.23818 19.1996 5.90756 18.869 5.90756 18.4612Z" fill="#FDDC73" fill-opacity="0.16"/>
<path d="M26.5841 18.4612C26.5841 18.0533 26.9147 17.7227 27.3225 17.7227C27.7304 17.7227 28.061 18.0533 28.061 18.4612C28.061 18.869 27.7304 19.1996 27.3225 19.1996C26.9147 19.1996 26.5841 18.869 26.5841 18.4612Z" fill="#FDDC73" fill-opacity="0.16"/>
<path d="M47.2606 18.4612C47.2606 18.0533 47.5912 17.7227 47.999 17.7227C48.4069 17.7227 48.7375 18.0533 48.7375 18.4612C48.7375 18.869 48.4069 19.1996 47.999 19.1996C47.5912 19.1996 47.2606 18.869 47.2606 18.4612Z" fill="#FDDC73" fill-opacity="0.16"/>
<path d="M8.86134 18.4612C8.86134 18.0533 9.19195 17.7227 9.59979 17.7227C10.0076 17.7227 10.3382 18.0533 10.3382 18.4612C10.3382 18.869 10.0076 19.1996 9.59979 19.1996C9.19195 19.1996 8.86134 18.869 8.86134 18.4612Z" fill="#FDDC73" fill-opacity="0.16"/>
<path d="M29.5379 18.4612C29.5379 18.0533 29.8685 17.7227 30.2763 17.7227C30.6841 17.7227 31.0148 18.0533 31.0148 18.4612C31.0148 18.869 30.6841 19.1996 30.2763 19.1996C29.8685 19.1996 29.5379 18.869 29.5379 18.4612Z" fill="#FDDC73" fill-opacity="0.16"/>
<path d="M50.2144 18.4612C50.2144 18.0533 50.545 17.7227 50.9528 17.7227C51.3607 17.7227 51.6913 18.0533 51.6913 18.4612C51.6913 18.869 51.3607 19.1996 50.9528 19.1996C50.545 19.1996 50.2144 18.869 50.2144 18.4612Z" fill="#FDDC73" fill-opacity="0.16"/>
<path d="M11.8151 18.4612C11.8151 18.0533 12.1458 17.7227 12.5536 17.7227C12.9614 17.7227 13.292 18.0533 13.292 18.4612C13.292 18.869 12.9614 19.1996 12.5536 19.1996C12.1458 19.1996 11.8151 18.869 11.8151 18.4612Z" fill="#FDDC73" fill-opacity="0.16"/>
<path d="M32.4917 18.4612C32.4917 18.0533 32.8223 17.7227 33.2301 17.7227C33.6379 17.7227 33.9685 18.0533 33.9685 18.4612C33.9685 18.869 33.6379 19.1996 33.2301 19.1996C32.8223 19.1996 32.4917 18.869 32.4917 18.4612Z" fill="#FDDC73" fill-opacity="0.16"/>
<path d="M14.7689 18.4612C14.7689 18.0533 15.0995 17.7227 15.5074 17.7227C15.9152 17.7227 16.2458 18.0533 16.2458 18.4612C16.2458 18.869 15.9152 19.1996 15.5074 19.1996C15.0995 19.1996 14.7689 18.869 14.7689 18.4612Z" fill="#FDDC73" fill-opacity="0.16"/>
<path d="M35.4454 18.4612C35.4454 18.0533 35.7761 17.7227 36.1839 17.7227C36.5917 17.7227 36.9223 18.0533 36.9223 18.4612C36.9223 18.869 36.5917 19.1996 36.1839 19.1996C35.7761 19.1996 35.4454 18.869 35.4454 18.4612Z" fill="#FDDC73" fill-opacity="0.16"/>
<path d="M17.7227 18.4612C17.7227 18.0533 18.0533 17.7227 18.4612 17.7227C18.869 17.7227 19.1996 18.0533 19.1996 18.4612C19.1996 18.869 18.869 19.1996 18.4612 19.1996C18.0533 19.1996 17.7227 18.869 17.7227 18.4612Z" fill="#FDDC73" fill-opacity="0.16"/>
<path d="M38.3992 18.4612C38.3992 18.0533 38.7298 17.7227 39.1377 17.7227C39.5455 17.7227 39.8761 18.0533 39.8761 18.4612C39.8761 18.869 39.5455 19.1996 39.1377 19.1996C38.7298 19.1996 38.3992 18.869 38.3992 18.4612Z" fill="#FDDC73" fill-opacity="0.16"/>
<path d="M0 21.415C0 21.0071 0.330614 20.6765 0.738447 20.6765C1.14628 20.6765 1.47689 21.0071 1.47689 21.415C1.47689 21.8228 1.14628 22.1534 0.738447 22.1534C0.330614 22.1534 0 21.8228 0 21.415Z" fill="#FDDC73" fill-opacity="0.16"/>
<path d="M20.6765 21.415C20.6765 21.0071 21.0071 20.6765 21.4149 20.6765C21.8228 20.6765 22.1534 21.0071 22.1534 21.415C22.1534 21.8228 21.8228 22.1534 21.4149 22.1534C21.0071 22.1534 20.6765 21.8228 20.6765 21.415Z" fill="#FDDC73" fill-opacity="0.16"/>
<path d="M41.353 21.415C41.353 21.0071 41.6836 20.6765 42.0915 20.6765C42.4993 20.6765 42.8299 21.0071 42.8299 21.415C42.8299 21.8228 42.4993 22.1534 42.0915 22.1534C41.6836 22.1534 41.353 21.8228 41.353 21.415Z" fill="#FDDC73" fill-opacity="0.16"/>
<path d="M2.95376 21.415C2.95376 21.0071 3.28438 20.6765 3.69221 20.6765C4.10004 20.6765 4.43066 21.0071 4.43066 21.415C4.43066 21.8228 4.10004 22.1534 3.69221 22.1534C3.28438 22.1534 2.95376 21.8228 2.95376 21.415Z" fill="#FDDC73" fill-opacity="0.16"/>
<path d="M23.6303 21.415C23.6303 21.0071 23.9609 20.6765 24.3687 20.6765C24.7766 20.6765 25.1072 21.0071 25.1072 21.415C25.1072 21.8228 24.7766 22.1534 24.3687 22.1534C23.9609 22.1534 23.6303 21.8228 23.6303 21.415Z" fill="#FDDC73" fill-opacity="0.16"/>
<path d="M44.3068 21.415C44.3068 21.0071 44.6374 20.6765 45.0453 20.6765C45.4531 20.6765 45.7837 21.0071 45.7837 21.415C45.7837 21.8228 45.4531 22.1534 45.0453 22.1534C44.6374 22.1534 44.3068 21.8228 44.3068 21.415Z" fill="#FDDC73" fill-opacity="0.16"/>
<path d="M5.90756 21.415C5.90756 21.0071 6.23818 20.6765 6.64601 20.6765C7.05384 20.6765 7.38446 21.0071 7.38446 21.415C7.38446 21.8228 7.05384 22.1534 6.64601 22.1534C6.23818 22.1534 5.90756 21.8228 5.90756 21.415Z" fill="#FDDC73" fill-opacity="0.16"/>
<path d="M26.5841 21.415C26.5841 21.0071 26.9147 20.6765 27.3225 20.6765C27.7304 20.6765 28.061 21.0071 28.061 21.415C28.061 21.8228 27.7304 22.1534 27.3225 22.1534C26.9147 22.1534 26.5841 21.8228 26.5841 21.415Z" fill="#FDDC73" fill-opacity="0.16"/>
<path d="M47.2606 21.415C47.2606 21.0071 47.5912 20.6765 47.999 20.6765C48.4069 20.6765 48.7375 21.0071 48.7375 21.415C48.7375 21.8228 48.4069 22.1534 47.999 22.1534C47.5912 22.1534 47.2606 21.8228 47.2606 21.415Z" fill="#FDDC73" fill-opacity="0.16"/>
<path d="M8.86134 21.415C8.86134 21.0071 9.19195 20.6765 9.59979 20.6765C10.0076 20.6765 10.3382 21.0071 10.3382 21.415C10.3382 21.8228 10.0076 22.1534 9.59979 22.1534C9.19195 22.1534 8.86134 21.8228 8.86134 21.415Z" fill="#FDDC73" fill-opacity="0.16"/>
<path d="M29.5379 21.415C29.5379 21.0071 29.8685 20.6765 30.2763 20.6765C30.6841 20.6765 31.0148 21.0071 31.0148 21.415C31.0148 21.8228 30.6841 22.1534 30.2763 22.1534C29.8685 22.1534 29.5379 21.8228 29.5379 21.415Z" fill="#FDDC73" fill-opacity="0.16"/>
<path d="M50.2144 21.415C50.2144 21.0071 50.545 20.6765 50.9528 20.6765C51.3607 20.6765 51.6913 21.0071 51.6913 21.415C51.6913 21.8228 51.3607 22.1534 50.9528 22.1534C50.545 22.1534 50.2144 21.8228 50.2144 21.415Z" fill="#FDDC73" fill-opacity="0.16"/>
<path d="M11.8151 21.415C11.8151 21.0071 12.1458 20.6765 12.5536 20.6765C12.9614 20.6765 13.292 21.0071 13.292 21.415C13.292 21.8228 12.9614 22.1534 12.5536 22.1534C12.1458 22.1534 11.8151 21.8228 11.8151 21.415Z" fill="#FDDC73" fill-opacity="0.16"/>
<path d="M32.4917 21.415C32.4917 21.0071 32.8223 20.6765 33.2301 20.6765C33.6379 20.6765 33.9685 21.0071 33.9685 21.415C33.9685 21.8228 33.6379 22.1534 33.2301 22.1534C32.8223 22.1534 32.4917 21.8228 32.4917 21.415Z" fill="#FDDC73" fill-opacity="0.16"/>
<path d="M14.7689 21.415C14.7689 21.0071 15.0995 20.6765 15.5074 20.6765C15.9152 20.6765 16.2458 21.0071 16.2458 21.415C16.2458 21.8228 15.9152 22.1534 15.5074 22.1534C15.0995 22.1534 14.7689 21.8228 14.7689 21.415Z" fill="#FDDC73" fill-opacity="0.16"/>
<path d="M35.4454 21.415C35.4454 21.0071 35.7761 20.6765 36.1839 20.6765C36.5917 20.6765 36.9223 21.0071 36.9223 21.415C36.9223 21.8228 36.5917 22.1534 36.1839 22.1534C35.7761 22.1534 35.4454 21.8228 35.4454 21.415Z" fill="#FDDC73" fill-opacity="0.16"/>
<path d="M17.7227 21.415C17.7227 21.0071 18.0533 20.6765 18.4612 20.6765C18.869 20.6765 19.1996 21.0071 19.1996 21.415C19.1996 21.8228 18.869 22.1534 18.4612 22.1534C18.0533 22.1534 17.7227 21.8228 17.7227 21.415Z" fill="#FDDC73" fill-opacity="0.16"/>
<path d="M38.3992 21.415C38.3992 21.0071 38.7298 20.6765 39.1377 20.6765C39.5455 20.6765 39.8761 21.0071 39.8761 21.415C39.8761 21.8228 39.5455 22.1534 39.1377 22.1534C38.7298 22.1534 38.3992 21.8228 38.3992 21.415Z" fill="#FDDC73" fill-opacity="0.16"/>
<path d="M0 24.3688C0 23.9609 0.330614 23.6303 0.738447 23.6303C1.14628 23.6303 1.47689 23.9609 1.47689 24.3688C1.47689 24.7766 1.14628 25.1072 0.738447 25.1072C0.330614 25.1072 0 24.7766 0 24.3688Z" fill="#FDDC73" fill-opacity="0.16"/>
<path d="M20.6765 24.3688C20.6765 23.9609 21.0071 23.6303 21.4149 23.6303C21.8228 23.6303 22.1534 23.9609 22.1534 24.3688C22.1534 24.7766 21.8228 25.1072 21.4149 25.1072C21.0071 25.1072 20.6765 24.7766 20.6765 24.3688Z" fill="#FDDC73" fill-opacity="0.16"/>
<path d="M41.353 24.3688C41.353 23.9609 41.6836 23.6303 42.0915 23.6303C42.4993 23.6303 42.8299 23.9609 42.8299 24.3688C42.8299 24.7766 42.4993 25.1072 42.0915 25.1072C41.6836 25.1072 41.353 24.7766 41.353 24.3688Z" fill="#FDDC73" fill-opacity="0.16"/>
<path d="M2.95376 24.3688C2.95376 23.9609 3.28438 23.6303 3.69221 23.6303C4.10004 23.6303 4.43066 23.9609 4.43066 24.3688C4.43066 24.7766 4.10004 25.1072 3.69221 25.1072C3.28438 25.1072 2.95376 24.7766 2.95376 24.3688Z" fill="#FDDC73" fill-opacity="0.16"/>
<path d="M23.6303 24.3688C23.6303 23.9609 23.9609 23.6303 24.3687 23.6303C24.7766 23.6303 25.1072 23.9609 25.1072 24.3688C25.1072 24.7766 24.7766 25.1072 24.3687 25.1072C23.9609 25.1072 23.6303 24.7766 23.6303 24.3688Z" fill="#FDDC73" fill-opacity="0.16"/>
<path d="M44.3068 24.3688C44.3068 23.9609 44.6374 23.6303 45.0453 23.6303C45.4531 23.6303 45.7837 23.9609 45.7837 24.3688C45.7837 24.7766 45.4531 25.1072 45.0453 25.1072C44.6374 25.1072 44.3068 24.7766 44.3068 24.3688Z" fill="#FDDC73" fill-opacity="0.16"/>
<path d="M5.90756 24.3688C5.90756 23.9609 6.23818 23.6303 6.64601 23.6303C7.05384 23.6303 7.38446 23.9609 7.38446 24.3688C7.38446 24.7766 7.05384 25.1072 6.64601 25.1072C6.23818 25.1072 5.90756 24.7766 5.90756 24.3688Z" fill="#FDDC73" fill-opacity="0.16"/>
<path d="M26.5841 24.3688C26.5841 23.9609 26.9147 23.6303 27.3225 23.6303C27.7304 23.6303 28.061 23.9609 28.061 24.3688C28.061 24.7766 27.7304 25.1072 27.3225 25.1072C26.9147 25.1072 26.5841 24.7766 26.5841 24.3688Z" fill="#FDDC73" fill-opacity="0.16"/>
<path d="M47.2606 24.3688C47.2606 23.9609 47.5912 23.6303 47.999 23.6303C48.4069 23.6303 48.7375 23.9609 48.7375 24.3688C48.7375 24.7766 48.4069 25.1072 47.999 25.1072C47.5912 25.1072 47.2606 24.7766 47.2606 24.3688Z" fill="#FDDC73" fill-opacity="0.16"/>
<path d="M8.86134 24.3688C8.86134 23.9609 9.19195 23.6303 9.59979 23.6303C10.0076 23.6303 10.3382 23.9609 10.3382 24.3688C10.3382 24.7766 10.0076 25.1072 9.59979 25.1072C9.19195 25.1072 8.86134 24.7766 8.86134 24.3688Z" fill="#FDDC73" fill-opacity="0.16"/>
<path d="M29.5379 24.3688C29.5379 23.9609 29.8685 23.6303 30.2763 23.6303C30.6841 23.6303 31.0148 23.9609 31.0148 24.3688C31.0148 24.7766 30.6841 25.1072 30.2763 25.1072C29.8685 25.1072 29.5379 24.7766 29.5379 24.3688Z" fill="#FDDC73" fill-opacity="0.16"/>
<path d="M50.2144 24.3688C50.2144 23.9609 50.545 23.6303 50.9528 23.6303C51.3607 23.6303 51.6913 23.9609 51.6913 24.3688C51.6913 24.7766 51.3607 25.1072 50.9528 25.1072C50.545 25.1072 50.2144 24.7766 50.2144 24.3688Z" fill="#FDDC73" fill-opacity="0.16"/>
<path d="M11.8151 24.3688C11.8151 23.9609 12.1458 23.6303 12.5536 23.6303C12.9614 23.6303 13.292 23.9609 13.292 24.3688C13.292 24.7766 12.9614 25.1072 12.5536 25.1072C12.1458 25.1072 11.8151 24.7766 11.8151 24.3688Z" fill="#FDDC73" fill-opacity="0.16"/>
<path d="M32.4917 24.3688C32.4917 23.9609 32.8223 23.6303 33.2301 23.6303C33.6379 23.6303 33.9685 23.9609 33.9685 24.3688C33.9685 24.7766 33.6379 25.1072 33.2301 25.1072C32.8223 25.1072 32.4917 24.7766 32.4917 24.3688Z" fill="#FDDC73" fill-opacity="0.16"/>
<path d="M14.7689 24.3688C14.7689 23.9609 15.0995 23.6303 15.5074 23.6303C15.9152 23.6303 16.2458 23.9609 16.2458 24.3688C16.2458 24.7766 15.9152 25.1072 15.5074 25.1072C15.0995 25.1072 14.7689 24.7766 14.7689 24.3688Z" fill="#FDDC73" fill-opacity="0.16"/>
<path d="M35.4454 24.3688C35.4454 23.9609 35.7761 23.6303 36.1839 23.6303C36.5917 23.6303 36.9223 23.9609 36.9223 24.3688C36.9223 24.7766 36.5917 25.1072 36.1839 25.1072C35.7761 25.1072 35.4454 24.7766 35.4454 24.3688Z" fill="#FDDC73" fill-opacity="0.16"/>
<path d="M17.7227 24.3688C17.7227 23.9609 18.0533 23.6303 18.4612 23.6303C18.869 23.6303 19.1996 23.9609 19.1996 24.3688C19.1996 24.7766 18.869 25.1072 18.4612 25.1072C18.0533 25.1072 17.7227 24.7766 17.7227 24.3688Z" fill="#FDDC73" fill-opacity="0.16"/>
<path d="M38.3992 24.3688C38.3992 23.9609 38.7298 23.6303 39.1377 23.6303C39.5455 23.6303 39.8761 23.9609 39.8761 24.3688C39.8761 24.7766 39.5455 25.1072 39.1377 25.1072C38.7298 25.1072 38.3992 24.7766 38.3992 24.3688Z" fill="#FDDC73" fill-opacity="0.16"/>
<path d="M0 27.3225C0 26.9147 0.330614 26.5841 0.738447 26.5841C1.14628 26.5841 1.47689 26.9147 1.47689 27.3225C1.47689 27.7304 1.14628 28.061 0.738447 28.061C0.330614 28.061 0 27.7304 0 27.3225Z" fill="#FDDC73" fill-opacity="0.16"/>
<path d="M20.6765 27.3225C20.6765 26.9147 21.0071 26.5841 21.4149 26.5841C21.8228 26.5841 22.1534 26.9147 22.1534 27.3225C22.1534 27.7304 21.8228 28.061 21.4149 28.061C21.0071 28.061 20.6765 27.7304 20.6765 27.3225Z" fill="#FDDC73" fill-opacity="0.16"/>
<path d="M41.353 27.3225C41.353 26.9147 41.6836 26.5841 42.0915 26.5841C42.4993 26.5841 42.8299 26.9147 42.8299 27.3225C42.8299 27.7304 42.4993 28.061 42.0915 28.061C41.6836 28.061 41.353 27.7304 41.353 27.3225Z" fill="#FDDC73" fill-opacity="0.16"/>
<path d="M2.95376 27.3225C2.95376 26.9147 3.28438 26.5841 3.69221 26.5841C4.10004 26.5841 4.43066 26.9147 4.43066 27.3225C4.43066 27.7304 4.10004 28.061 3.69221 28.061C3.28438 28.061 2.95376 27.7304 2.95376 27.3225Z" fill="#FDDC73" fill-opacity="0.16"/>
<path d="M23.6303 27.3225C23.6303 26.9147 23.9609 26.5841 24.3687 26.5841C24.7766 26.5841 25.1072 26.9147 25.1072 27.3225C25.1072 27.7304 24.7766 28.061 24.3687 28.061C23.9609 28.061 23.6303 27.7304 23.6303 27.3225Z" fill="#FDDC73" fill-opacity="0.16"/>
<path d="M44.3068 27.3225C44.3068 26.9147 44.6374 26.5841 45.0453 26.5841C45.4531 26.5841 45.7837 26.9147 45.7837 27.3225C45.7837 27.7304 45.4531 28.061 45.0453 28.061C44.6374 28.061 44.3068 27.7304 44.3068 27.3225Z" fill="#FDDC73" fill-opacity="0.16"/>
<path d="M5.90756 27.3225C5.90756 26.9147 6.23818 26.5841 6.64601 26.5841C7.05384 26.5841 7.38446 26.9147 7.38446 27.3225C7.38446 27.7304 7.05384 28.061 6.64601 28.061C6.23818 28.061 5.90756 27.7304 5.90756 27.3225Z" fill="#FDDC73" fill-opacity="0.16"/>
<path d="M26.5841 27.3225C26.5841 26.9147 26.9147 26.5841 27.3225 26.5841C27.7304 26.5841 28.061 26.9147 28.061 27.3225C28.061 27.7304 27.7304 28.061 27.3225 28.061C26.9147 28.061 26.5841 27.7304 26.5841 27.3225Z" fill="#FDDC73" fill-opacity="0.16"/>
<path d="M47.2606 27.3225C47.2606 26.9147 47.5912 26.5841 47.999 26.5841C48.4069 26.5841 48.7375 26.9147 48.7375 27.3225C48.7375 27.7304 48.4069 28.061 47.999 28.061C47.5912 28.061 47.2606 27.7304 47.2606 27.3225Z" fill="#FDDC73" fill-opacity="0.16"/>
<path d="M8.86134 27.3225C8.86134 26.9147 9.19195 26.5841 9.59979 26.5841C10.0076 26.5841 10.3382 26.9147 10.3382 27.3225C10.3382 27.7304 10.0076 28.061 9.59979 28.061C9.19195 28.061 8.86134 27.7304 8.86134 27.3225Z" fill="#FDDC73" fill-opacity="0.16"/>
<path d="M29.5379 27.3225C29.5379 26.9147 29.8685 26.5841 30.2763 26.5841C30.6841 26.5841 31.0148 26.9147 31.0148 27.3225C31.0148 27.7304 30.6841 28.061 30.2763 28.061C29.8685 28.061 29.5379 27.7304 29.5379 27.3225Z" fill="#FDDC73" fill-opacity="0.16"/>
<path d="M50.2144 27.3225C50.2144 26.9147 50.545 26.5841 50.9528 26.5841C51.3607 26.5841 51.6913 26.9147 51.6913 27.3225C51.6913 27.7304 51.3607 28.061 50.9528 28.061C50.545 28.061 50.2144 27.7304 50.2144 27.3225Z" fill="#FDDC73" fill-opacity="0.16"/>
<path d="M11.8151 27.3225C11.8151 26.9147 12.1458 26.5841 12.5536 26.5841C12.9614 26.5841 13.292 26.9147 13.292 27.3225C13.292 27.7304 12.9614 28.061 12.5536 28.061C12.1458 28.061 11.8151 27.7304 11.8151 27.3225Z" fill="#FDDC73" fill-opacity="0.16"/>
<path d="M32.4917 27.3225C32.4917 26.9147 32.8223 26.5841 33.2301 26.5841C33.6379 26.5841 33.9685 26.9147 33.9685 27.3225C33.9685 27.7304 33.6379 28.061 33.2301 28.061C32.8223 28.061 32.4917 27.7304 32.4917 27.3225Z" fill="#FDDC73" fill-opacity="0.16"/>
<path d="M14.7689 27.3225C14.7689 26.9147 15.0995 26.5841 15.5074 26.5841C15.9152 26.5841 16.2458 26.9147 16.2458 27.3225C16.2458 27.7304 15.9152 28.061 15.5074 28.061C15.0995 28.061 14.7689 27.7304 14.7689 27.3225Z" fill="#FDDC73" fill-opacity="0.16"/>
<path d="M35.4454 27.3225C35.4454 26.9147 35.7761 26.5841 36.1839 26.5841C36.5917 26.5841 36.9223 26.9147 36.9223 27.3225C36.9223 27.7304 36.5917 28.061 36.1839 28.061C35.7761 28.061 35.4454 27.7304 35.4454 27.3225Z" fill="#FDDC73" fill-opacity="0.16"/>
<path d="M17.7227 27.3225C17.7227 26.9147 18.0533 26.5841 18.4612 26.5841C18.869 26.5841 19.1996 26.9147 19.1996 27.3225C19.1996 27.7304 18.869 28.061 18.4612 28.061C18.0533 28.061 17.7227 27.7304 17.7227 27.3225Z" fill="#FDDC73" fill-opacity="0.16"/>
<path d="M38.3992 27.3225C38.3992 26.9147 38.7298 26.5841 39.1377 26.5841C39.5455 26.5841 39.8761 26.9147 39.8761 27.3225C39.8761 27.7304 39.5455 28.061 39.1377 28.061C38.7298 28.061 38.3992 27.7304 38.3992 27.3225Z" fill="#FDDC73" fill-opacity="0.16"/>
<path d="M0 30.2763C0 29.8685 0.330614 29.5379 0.738447 29.5379C1.14628 29.5379 1.47689 29.8685 1.47689 30.2763C1.47689 30.6842 1.14628 31.0148 0.738447 31.0148C0.330614 31.0148 0 30.6842 0 30.2763Z" fill="#FDDC73" fill-opacity="0.16"/>
<path d="M20.6765 30.2763C20.6765 29.8685 21.0071 29.5379 21.4149 29.5379C21.8228 29.5379 22.1534 29.8685 22.1534 30.2763C22.1534 30.6842 21.8228 31.0148 21.4149 31.0148C21.0071 31.0148 20.6765 30.6842 20.6765 30.2763Z" fill="#FDDC73" fill-opacity="0.16"/>
<path d="M41.353 30.2763C41.353 29.8685 41.6836 29.5379 42.0915 29.5379C42.4993 29.5379 42.8299 29.8685 42.8299 30.2763C42.8299 30.6842 42.4993 31.0148 42.0915 31.0148C41.6836 31.0148 41.353 30.6842 41.353 30.2763Z" fill="#FDDC73" fill-opacity="0.16"/>
<path d="M2.95376 30.2763C2.95376 29.8685 3.28438 29.5379 3.69221 29.5379C4.10004 29.5379 4.43066 29.8685 4.43066 30.2763C4.43066 30.6842 4.10004 31.0148 3.69221 31.0148C3.28438 31.0148 2.95376 30.6842 2.95376 30.2763Z" fill="#FDDC73" fill-opacity="0.16"/>
<path d="M23.6303 30.2763C23.6303 29.8685 23.9609 29.5379 24.3687 29.5379C24.7766 29.5379 25.1072 29.8685 25.1072 30.2763C25.1072 30.6842 24.7766 31.0148 24.3687 31.0148C23.9609 31.0148 23.6303 30.6842 23.6303 30.2763Z" fill="#FDDC73" fill-opacity="0.16"/>
<path d="M44.3068 30.2763C44.3068 29.8685 44.6374 29.5379 45.0453 29.5379C45.4531 29.5379 45.7837 29.8685 45.7837 30.2763C45.7837 30.6842 45.4531 31.0148 45.0453 31.0148C44.6374 31.0148 44.3068 30.6842 44.3068 30.2763Z" fill="#FDDC73" fill-opacity="0.16"/>
<path d="M5.90756 30.2763C5.90756 29.8685 6.23818 29.5379 6.64601 29.5379C7.05384 29.5379 7.38446 29.8685 7.38446 30.2763C7.38446 30.6842 7.05384 31.0148 6.64601 31.0148C6.23818 31.0148 5.90756 30.6842 5.90756 30.2763Z" fill="#FDDC73" fill-opacity="0.16"/>
<path d="M26.5841 30.2763C26.5841 29.8685 26.9147 29.5379 27.3225 29.5379C27.7304 29.5379 28.061 29.8685 28.061 30.2763C28.061 30.6842 27.7304 31.0148 27.3225 31.0148C26.9147 31.0148 26.5841 30.6842 26.5841 30.2763Z" fill="#FDDC73" fill-opacity="0.16"/>
<path d="M47.2606 30.2763C47.2606 29.8685 47.5912 29.5379 47.999 29.5379C48.4069 29.5379 48.7375 29.8685 48.7375 30.2763C48.7375 30.6842 48.4069 31.0148 47.999 31.0148C47.5912 31.0148 47.2606 30.6842 47.2606 30.2763Z" fill="#FDDC73" fill-opacity="0.16"/>
<path d="M8.86134 30.2763C8.86134 29.8685 9.19195 29.5379 9.59979 29.5379C10.0076 29.5379 10.3382 29.8685 10.3382 30.2763C10.3382 30.6842 10.0076 31.0148 9.59979 31.0148C9.19195 31.0148 8.86134 30.6842 8.86134 30.2763Z" fill="#FDDC73" fill-opacity="0.16"/>
<path d="M29.5379 30.2763C29.5379 29.8685 29.8685 29.5379 30.2763 29.5379C30.6841 29.5379 31.0148 29.8685 31.0148 30.2763C31.0148 30.6842 30.6841 31.0148 30.2763 31.0148C29.8685 31.0148 29.5379 30.6842 29.5379 30.2763Z" fill="#FDDC73" fill-opacity="0.16"/>
<path d="M50.2144 30.2763C50.2144 29.8685 50.545 29.5379 50.9528 29.5379C51.3607 29.5379 51.6913 29.8685 51.6913 30.2763C51.6913 30.6842 51.3607 31.0148 50.9528 31.0148C50.545 31.0148 50.2144 30.6842 50.2144 30.2763Z" fill="#FDDC73" fill-opacity="0.16"/>
<path d="M11.8151 30.2763C11.8151 29.8685 12.1458 29.5379 12.5536 29.5379C12.9614 29.5379 13.292 29.8685 13.292 30.2763C13.292 30.6842 12.9614 31.0148 12.5536 31.0148C12.1458 31.0148 11.8151 30.6842 11.8151 30.2763Z" fill="#FDDC73" fill-opacity="0.16"/>
<path d="M32.4917 30.2763C32.4917 29.8685 32.8223 29.5379 33.2301 29.5379C33.6379 29.5379 33.9685 29.8685 33.9685 30.2763C33.9685 30.6842 33.6379 31.0148 33.2301 31.0148C32.8223 31.0148 32.4917 30.6842 32.4917 30.2763Z" fill="#FDDC73" fill-opacity="0.16"/>
<path d="M14.7689 30.2763C14.7689 29.8685 15.0995 29.5379 15.5074 29.5379C15.9152 29.5379 16.2458 29.8685 16.2458 30.2763C16.2458 30.6842 15.9152 31.0148 15.5074 31.0148C15.0995 31.0148 14.7689 30.6842 14.7689 30.2763Z" fill="#FDDC73" fill-opacity="0.16"/>
<path d="M35.4454 30.2763C35.4454 29.8685 35.7761 29.5379 36.1839 29.5379C36.5917 29.5379 36.9223 29.8685 36.9223 30.2763C36.9223 30.6842 36.5917 31.0148 36.1839 31.0148C35.7761 31.0148 35.4454 30.6842 35.4454 30.2763Z" fill="#FDDC73" fill-opacity="0.16"/>
<path d="M17.7227 30.2763C17.7227 29.8685 18.0533 29.5379 18.4612 29.5379C18.869 29.5379 19.1996 29.8685 19.1996 30.2763C19.1996 30.6842 18.869 31.0148 18.4612 31.0148C18.0533 31.0148 17.7227 30.6842 17.7227 30.2763Z" fill="#FDDC73" fill-opacity="0.16"/>
<path d="M38.3992 30.2763C38.3992 29.8685 38.7298 29.5379 39.1377 29.5379C39.5455 29.5379 39.8761 29.8685 39.8761 30.2763C39.8761 30.6842 39.5455 31.0148 39.1377 31.0148C38.7298 31.0148 38.3992 30.6842 38.3992 30.2763Z" fill="#FDDC73" fill-opacity="0.16"/>
<path d="M0 33.2301C0 32.8223 0.330614 32.4917 0.738447 32.4917C1.14628 32.4917 1.47689 32.8223 1.47689 33.2301C1.47689 33.638 1.14628 33.9686 0.738447 33.9686C0.330614 33.9686 0 33.638 0 33.2301Z" fill="#FDDC73" fill-opacity="0.16"/>
<path d="M20.6765 33.2301C20.6765 32.8223 21.0071 32.4917 21.4149 32.4917C21.8228 32.4917 22.1534 32.8223 22.1534 33.2301C22.1534 33.638 21.8228 33.9686 21.4149 33.9686C21.0071 33.9686 20.6765 33.638 20.6765 33.2301Z" fill="#FDDC73" fill-opacity="0.16"/>
<path d="M41.353 33.2301C41.353 32.8223 41.6836 32.4917 42.0915 32.4917C42.4993 32.4917 42.8299 32.8223 42.8299 33.2301C42.8299 33.638 42.4993 33.9686 42.0915 33.9686C41.6836 33.9686 41.353 33.638 41.353 33.2301Z" fill="#FDDC73" fill-opacity="0.16"/>
<path d="M2.95376 33.2301C2.95376 32.8223 3.28438 32.4917 3.69221 32.4917C4.10004 32.4917 4.43066 32.8223 4.43066 33.2301C4.43066 33.638 4.10004 33.9686 3.69221 33.9686C3.28438 33.9686 2.95376 33.638 2.95376 33.2301Z" fill="#FDDC73" fill-opacity="0.16"/>
<path d="M23.6303 33.2301C23.6303 32.8223 23.9609 32.4917 24.3687 32.4917C24.7766 32.4917 25.1072 32.8223 25.1072 33.2301C25.1072 33.638 24.7766 33.9686 24.3687 33.9686C23.9609 33.9686 23.6303 33.638 23.6303 33.2301Z" fill="#FDDC73" fill-opacity="0.16"/>
<path d="M44.3068 33.2301C44.3068 32.8223 44.6374 32.4917 45.0453 32.4917C45.4531 32.4917 45.7837 32.8223 45.7837 33.2301C45.7837 33.638 45.4531 33.9686 45.0453 33.9686C44.6374 33.9686 44.3068 33.638 44.3068 33.2301Z" fill="#FDDC73" fill-opacity="0.16"/>
<path d="M5.90756 33.2301C5.90756 32.8223 6.23818 32.4917 6.64601 32.4917C7.05384 32.4917 7.38446 32.8223 7.38446 33.2301C7.38446 33.638 7.05384 33.9686 6.64601 33.9686C6.23818 33.9686 5.90756 33.638 5.90756 33.2301Z" fill="#FDDC73" fill-opacity="0.16"/>
<path d="M26.5841 33.2301C26.5841 32.8223 26.9147 32.4917 27.3225 32.4917C27.7304 32.4917 28.061 32.8223 28.061 33.2301C28.061 33.638 27.7304 33.9686 27.3225 33.9686C26.9147 33.9686 26.5841 33.638 26.5841 33.2301Z" fill="#FDDC73" fill-opacity="0.16"/>
<path d="M47.2606 33.2301C47.2606 32.8223 47.5912 32.4917 47.999 32.4917C48.4069 32.4917 48.7375 32.8223 48.7375 33.2301C48.7375 33.638 48.4069 33.9686 47.999 33.9686C47.5912 33.9686 47.2606 33.638 47.2606 33.2301Z" fill="#FDDC73" fill-opacity="0.16"/>
<path d="M8.86134 33.2301C8.86134 32.8223 9.19195 32.4917 9.59979 32.4917C10.0076 32.4917 10.3382 32.8223 10.3382 33.2301C10.3382 33.638 10.0076 33.9686 9.59979 33.9686C9.19195 33.9686 8.86134 33.638 8.86134 33.2301Z" fill="#FDDC73" fill-opacity="0.16"/>
<path d="M29.5379 33.2301C29.5379 32.8223 29.8685 32.4917 30.2763 32.4917C30.6841 32.4917 31.0148 32.8223 31.0148 33.2301C31.0148 33.638 30.6841 33.9686 30.2763 33.9686C29.8685 33.9686 29.5379 33.638 29.5379 33.2301Z" fill="#FDDC73" fill-opacity="0.16"/>
<path d="M50.2144 33.2301C50.2144 32.8223 50.545 32.4917 50.9528 32.4917C51.3607 32.4917 51.6913 32.8223 51.6913 33.2301C51.6913 33.638 51.3607 33.9686 50.9528 33.9686C50.545 33.9686 50.2144 33.638 50.2144 33.2301Z" fill="#FDDC73" fill-opacity="0.16"/>
<path d="M11.8151 33.2301C11.8151 32.8223 12.1458 32.4917 12.5536 32.4917C12.9614 32.4917 13.292 32.8223 13.292 33.2301C13.292 33.638 12.9614 33.9686 12.5536 33.9686C12.1458 33.9686 11.8151 33.638 11.8151 33.2301Z" fill="#FDDC73" fill-opacity="0.16"/>
<path d="M32.4917 33.2301C32.4917 32.8223 32.8223 32.4917 33.2301 32.4917C33.6379 32.4917 33.9685 32.8223 33.9685 33.2301C33.9685 33.638 33.6379 33.9686 33.2301 33.9686C32.8223 33.9686 32.4917 33.638 32.4917 33.2301Z" fill="#FDDC73" fill-opacity="0.16"/>
<path d="M14.7689 33.2301C14.7689 32.8223 15.0995 32.4917 15.5074 32.4917C15.9152 32.4917 16.2458 32.8223 16.2458 33.2301C16.2458 33.638 15.9152 33.9686 15.5074 33.9686C15.0995 33.9686 14.7689 33.638 14.7689 33.2301Z" fill="#FDDC73" fill-opacity="0.16"/>
<path d="M35.4454 33.2301C35.4454 32.8223 35.7761 32.4917 36.1839 32.4917C36.5917 32.4917 36.9223 32.8223 36.9223 33.2301C36.9223 33.638 36.5917 33.9686 36.1839 33.9686C35.7761 33.9686 35.4454 33.638 35.4454 33.2301Z" fill="#FDDC73" fill-opacity="0.16"/>
<path d="M17.7227 33.2301C17.7227 32.8223 18.0533 32.4917 18.4612 32.4917C18.869 32.4917 19.1996 32.8223 19.1996 33.2301C19.1996 33.638 18.869 33.9686 18.4612 33.9686C18.0533 33.9686 17.7227 33.638 17.7227 33.2301Z" fill="#FDDC73" fill-opacity="0.16"/>
<path d="M38.3992 33.2301C38.3992 32.8223 38.7298 32.4917 39.1377 32.4917C39.5455 32.4917 39.8761 32.8223 39.8761 33.2301C39.8761 33.638 39.5455 33.9686 39.1377 33.9686C38.7298 33.9686 38.3992 33.638 38.3992 33.2301Z" fill="#FDDC73" fill-opacity="0.16"/>
<path d="M0 36.1839C0 35.7761 0.330614 35.4455 0.738447 35.4455C1.14628 35.4455 1.47689 35.7761 1.47689 36.1839C1.47689 36.5917 1.14628 36.9224 0.738447 36.9224C0.330614 36.9224 0 36.5917 0 36.1839Z" fill="#FDDC73" fill-opacity="0.16"/>
<path d="M20.6765 36.1839C20.6765 35.7761 21.0071 35.4455 21.4149 35.4455C21.8228 35.4455 22.1534 35.7761 22.1534 36.1839C22.1534 36.5917 21.8228 36.9224 21.4149 36.9224C21.0071 36.9224 20.6765 36.5917 20.6765 36.1839Z" fill="#FDDC73" fill-opacity="0.16"/>
<path d="M41.353 36.1839C41.353 35.7761 41.6836 35.4455 42.0915 35.4455C42.4993 35.4455 42.8299 35.7761 42.8299 36.1839C42.8299 36.5917 42.4993 36.9224 42.0915 36.9224C41.6836 36.9224 41.353 36.5917 41.353 36.1839Z" fill="#FDDC73" fill-opacity="0.16"/>
<path d="M2.95376 36.1839C2.95376 35.7761 3.28438 35.4455 3.69221 35.4455C4.10004 35.4455 4.43066 35.7761 4.43066 36.1839C4.43066 36.5917 4.10004 36.9224 3.69221 36.9224C3.28438 36.9224 2.95376 36.5917 2.95376 36.1839Z" fill="#FDDC73" fill-opacity="0.16"/>
<path d="M23.6303 36.1839C23.6303 35.7761 23.9609 35.4455 24.3687 35.4455C24.7766 35.4455 25.1072 35.7761 25.1072 36.1839C25.1072 36.5917 24.7766 36.9224 24.3687 36.9224C23.9609 36.9224 23.6303 36.5917 23.6303 36.1839Z" fill="#FDDC73" fill-opacity="0.16"/>
<path d="M44.3068 36.1839C44.3068 35.7761 44.6374 35.4455 45.0453 35.4455C45.4531 35.4455 45.7837 35.7761 45.7837 36.1839C45.7837 36.5917 45.4531 36.9224 45.0453 36.9224C44.6374 36.9224 44.3068 36.5917 44.3068 36.1839Z" fill="#FDDC73" fill-opacity="0.16"/>
<path d="M5.90756 36.1839C5.90756 35.7761 6.23818 35.4455 6.64601 35.4455C7.05384 35.4455 7.38446 35.7761 7.38446 36.1839C7.38446 36.5917 7.05384 36.9224 6.64601 36.9224C6.23818 36.9224 5.90756 36.5917 5.90756 36.1839Z" fill="#FDDC73" fill-opacity="0.16"/>
<path d="M26.5841 36.1839C26.5841 35.7761 26.9147 35.4455 27.3225 35.4455C27.7304 35.4455 28.061 35.7761 28.061 36.1839C28.061 36.5917 27.7304 36.9224 27.3225 36.9224C26.9147 36.9224 26.5841 36.5917 26.5841 36.1839Z" fill="#FDDC73" fill-opacity="0.16"/>
<path d="M47.2606 36.1839C47.2606 35.7761 47.5912 35.4455 47.999 35.4455C48.4069 35.4455 48.7375 35.7761 48.7375 36.1839C48.7375 36.5917 48.4069 36.9224 47.999 36.9224C47.5912 36.9224 47.2606 36.5917 47.2606 36.1839Z" fill="#FDDC73" fill-opacity="0.16"/>
<path d="M8.86134 36.1839C8.86134 35.7761 9.19195 35.4455 9.59979 35.4455C10.0076 35.4455 10.3382 35.7761 10.3382 36.1839C10.3382 36.5917 10.0076 36.9224 9.59979 36.9224C9.19195 36.9224 8.86134 36.5917 8.86134 36.1839Z" fill="#FDDC73" fill-opacity="0.16"/>
<path d="M29.5379 36.1839C29.5379 35.7761 29.8685 35.4455 30.2763 35.4455C30.6841 35.4455 31.0148 35.7761 31.0148 36.1839C31.0148 36.5917 30.6841 36.9224 30.2763 36.9224C29.8685 36.9224 29.5379 36.5917 29.5379 36.1839Z" fill="#FDDC73" fill-opacity="0.16"/>
<path d="M50.2144 36.1839C50.2144 35.7761 50.545 35.4455 50.9528 35.4455C51.3607 35.4455 51.6913 35.7761 51.6913 36.1839C51.6913 36.5917 51.3607 36.9224 50.9528 36.9224C50.545 36.9224 50.2144 36.5917 50.2144 36.1839Z" fill="#FDDC73" fill-opacity="0.16"/>
<path d="M11.8151 36.1839C11.8151 35.7761 12.1458 35.4455 12.5536 35.4455C12.9614 35.4455 13.292 35.7761 13.292 36.1839C13.292 36.5917 12.9614 36.9224 12.5536 36.9224C12.1458 36.9224 11.8151 36.5917 11.8151 36.1839Z" fill="#FDDC73" fill-opacity="0.16"/>
<path d="M32.4917 36.1839C32.4917 35.7761 32.8223 35.4455 33.2301 35.4455C33.6379 35.4455 33.9685 35.7761 33.9685 36.1839C33.9685 36.5917 33.6379 36.9224 33.2301 36.9224C32.8223 36.9224 32.4917 36.5917 32.4917 36.1839Z" fill="#FDDC73" fill-opacity="0.16"/>
<path d="M14.7689 36.1839C14.7689 35.7761 15.0995 35.4455 15.5074 35.4455C15.9152 35.4455 16.2458 35.7761 16.2458 36.1839C16.2458 36.5917 15.9152 36.9224 15.5074 36.9224C15.0995 36.9224 14.7689 36.5917 14.7689 36.1839Z" fill="#FDDC73" fill-opacity="0.16"/>
<path d="M35.4454 36.1839C35.4454 35.7761 35.7761 35.4455 36.1839 35.4455C36.5917 35.4455 36.9223 35.7761 36.9223 36.1839C36.9223 36.5917 36.5917 36.9224 36.1839 36.9224C35.7761 36.9224 35.4454 36.5917 35.4454 36.1839Z" fill="#FDDC73" fill-opacity="0.16"/>
<path d="M17.7227 36.1839C17.7227 35.7761 18.0533 35.4455 18.4612 35.4455C18.869 35.4455 19.1996 35.7761 19.1996 36.1839C19.1996 36.5917 18.869 36.9224 18.4612 36.9224C18.0533 36.9224 17.7227 36.5917 17.7227 36.1839Z" fill="#FDDC73" fill-opacity="0.16"/>
<path d="M38.3992 36.1839C38.3992 35.7761 38.7298 35.4455 39.1377 35.4455C39.5455 35.4455 39.8761 35.7761 39.8761 36.1839C39.8761 36.5917 39.5455 36.9224 39.1377 36.9224C38.7298 36.9224 38.3992 36.5917 38.3992 36.1839Z" fill="#FDDC73" fill-opacity="0.16"/>
<path d="M0 39.1377C0 38.7299 0.330614 38.3993 0.738447 38.3993C1.14628 38.3993 1.47689 38.7299 1.47689 39.1377C1.47689 39.5455 1.14628 39.8761 0.738447 39.8761C0.330614 39.8761 0 39.5455 0 39.1377Z" fill="#FDDC73" fill-opacity="0.16"/>
<path d="M20.6765 39.1377C20.6765 38.7299 21.0071 38.3993 21.4149 38.3993C21.8228 38.3993 22.1534 38.7299 22.1534 39.1377C22.1534 39.5455 21.8228 39.8761 21.4149 39.8761C21.0071 39.8761 20.6765 39.5455 20.6765 39.1377Z" fill="#FDDC73" fill-opacity="0.16"/>
<path d="M41.353 39.1377C41.353 38.7299 41.6836 38.3993 42.0915 38.3993C42.4993 38.3993 42.8299 38.7299 42.8299 39.1377C42.8299 39.5455 42.4993 39.8761 42.0915 39.8761C41.6836 39.8761 41.353 39.5455 41.353 39.1377Z" fill="#FDDC73" fill-opacity="0.16"/>
<path d="M2.95376 39.1377C2.95376 38.7299 3.28438 38.3993 3.69221 38.3993C4.10004 38.3993 4.43066 38.7299 4.43066 39.1377C4.43066 39.5455 4.10004 39.8761 3.69221 39.8761C3.28438 39.8761 2.95376 39.5455 2.95376 39.1377Z" fill="#FDDC73" fill-opacity="0.16"/>
<path d="M23.6303 39.1377C23.6303 38.7299 23.9609 38.3993 24.3687 38.3993C24.7766 38.3993 25.1072 38.7299 25.1072 39.1377C25.1072 39.5455 24.7766 39.8761 24.3687 39.8761C23.9609 39.8761 23.6303 39.5455 23.6303 39.1377Z" fill="#FDDC73" fill-opacity="0.16"/>
<path d="M44.3068 39.1377C44.3068 38.7299 44.6374 38.3993 45.0453 38.3993C45.4531 38.3993 45.7837 38.7299 45.7837 39.1377C45.7837 39.5455 45.4531 39.8761 45.0453 39.8761C44.6374 39.8761 44.3068 39.5455 44.3068 39.1377Z" fill="#FDDC73" fill-opacity="0.16"/>
<path d="M5.90756 39.1377C5.90756 38.7299 6.23818 38.3993 6.64601 38.3993C7.05384 38.3993 7.38446 38.7299 7.38446 39.1377C7.38446 39.5455 7.05384 39.8761 6.64601 39.8761C6.23818 39.8761 5.90756 39.5455 5.90756 39.1377Z" fill="#FDDC73" fill-opacity="0.16"/>
<path d="M26.5841 39.1377C26.5841 38.7299 26.9147 38.3993 27.3225 38.3993C27.7304 38.3993 28.061 38.7299 28.061 39.1377C28.061 39.5455 27.7304 39.8761 27.3225 39.8761C26.9147 39.8761 26.5841 39.5455 26.5841 39.1377Z" fill="#FDDC73" fill-opacity="0.16"/>
<path d="M47.2606 39.1377C47.2606 38.7299 47.5912 38.3993 47.999 38.3993C48.4069 38.3993 48.7375 38.7299 48.7375 39.1377C48.7375 39.5455 48.4069 39.8761 47.999 39.8761C47.5912 39.8761 47.2606 39.5455 47.2606 39.1377Z" fill="#FDDC73" fill-opacity="0.16"/>
<path d="M8.86134 39.1377C8.86134 38.7299 9.19195 38.3993 9.59979 38.3993C10.0076 38.3993 10.3382 38.7299 10.3382 39.1377C10.3382 39.5455 10.0076 39.8761 9.59979 39.8761C9.19195 39.8761 8.86134 39.5455 8.86134 39.1377Z" fill="#FDDC73" fill-opacity="0.16"/>
<path d="M29.5379 39.1377C29.5379 38.7299 29.8685 38.3993 30.2763 38.3993C30.6841 38.3993 31.0148 38.7299 31.0148 39.1377C31.0148 39.5455 30.6841 39.8761 30.2763 39.8761C29.8685 39.8761 29.5379 39.5455 29.5379 39.1377Z" fill="#FDDC73" fill-opacity="0.16"/>
<path d="M50.2144 39.1377C50.2144 38.7299 50.545 38.3993 50.9528 38.3993C51.3607 38.3993 51.6913 38.7299 51.6913 39.1377C51.6913 39.5455 51.3607 39.8761 50.9528 39.8761C50.545 39.8761 50.2144 39.5455 50.2144 39.1377Z" fill="#FDDC73" fill-opacity="0.16"/>
<path d="M11.8151 39.1377C11.8151 38.7299 12.1458 38.3993 12.5536 38.3993C12.9614 38.3993 13.292 38.7299 13.292 39.1377C13.292 39.5455 12.9614 39.8761 12.5536 39.8761C12.1458 39.8761 11.8151 39.5455 11.8151 39.1377Z" fill="#FDDC73" fill-opacity="0.16"/>
<path d="M32.4917 39.1377C32.4917 38.7299 32.8223 38.3993 33.2301 38.3993C33.6379 38.3993 33.9685 38.7299 33.9685 39.1377C33.9685 39.5455 33.6379 39.8761 33.2301 39.8761C32.8223 39.8761 32.4917 39.5455 32.4917 39.1377Z" fill="#FDDC73" fill-opacity="0.16"/>
<path d="M14.7689 39.1377C14.7689 38.7299 15.0995 38.3993 15.5074 38.3993C15.9152 38.3993 16.2458 38.7299 16.2458 39.1377C16.2458 39.5455 15.9152 39.8761 15.5074 39.8761C15.0995 39.8761 14.7689 39.5455 14.7689 39.1377Z" fill="#FDDC73" fill-opacity="0.16"/>
<path d="M35.4454 39.1377C35.4454 38.7299 35.7761 38.3993 36.1839 38.3993C36.5917 38.3993 36.9223 38.7299 36.9223 39.1377C36.9223 39.5455 36.5917 39.8761 36.1839 39.8761C35.7761 39.8761 35.4454 39.5455 35.4454 39.1377Z" fill="#FDDC73" fill-opacity="0.16"/>
<path d="M17.7227 39.1377C17.7227 38.7299 18.0533 38.3993 18.4612 38.3993C18.869 38.3993 19.1996 38.7299 19.1996 39.1377C19.1996 39.5455 18.869 39.8761 18.4612 39.8761C18.0533 39.8761 17.7227 39.5455 17.7227 39.1377Z" fill="#FDDC73" fill-opacity="0.16"/>
<path d="M38.3992 39.1377C38.3992 38.7299 38.7298 38.3993 39.1377 38.3993C39.5455 38.3993 39.8761 38.7299 39.8761 39.1377C39.8761 39.5455 39.5455 39.8761 39.1377 39.8761C38.7298 39.8761 38.3992 39.5455 38.3992 39.1377Z" fill="#FDDC73" fill-opacity="0.16"/>
<path d="M0 42.0915C0 41.6837 0.330614 41.353 0.738447 41.353C1.14628 41.353 1.47689 41.6837 1.47689 42.0915C1.47689 42.4993 1.14628 42.8299 0.738447 42.8299C0.330614 42.8299 0 42.4993 0 42.0915Z" fill="#FDDC73" fill-opacity="0.16"/>
<path d="M20.6765 42.0915C20.6765 41.6837 21.0071 41.353 21.4149 41.353C21.8228 41.353 22.1534 41.6837 22.1534 42.0915C22.1534 42.4993 21.8228 42.8299 21.4149 42.8299C21.0071 42.8299 20.6765 42.4993 20.6765 42.0915Z" fill="#FDDC73" fill-opacity="0.16"/>
<path d="M41.353 42.0915C41.353 41.6837 41.6836 41.353 42.0915 41.353C42.4993 41.353 42.8299 41.6837 42.8299 42.0915C42.8299 42.4993 42.4993 42.8299 42.0915 42.8299C41.6836 42.8299 41.353 42.4993 41.353 42.0915Z" fill="#FDDC73" fill-opacity="0.16"/>
<path d="M2.95376 42.0915C2.95376 41.6837 3.28438 41.353 3.69221 41.353C4.10004 41.353 4.43066 41.6837 4.43066 42.0915C4.43066 42.4993 4.10004 42.8299 3.69221 42.8299C3.28438 42.8299 2.95376 42.4993 2.95376 42.0915Z" fill="#FDDC73" fill-opacity="0.16"/>
<path d="M23.6303 42.0915C23.6303 41.6837 23.9609 41.353 24.3687 41.353C24.7766 41.353 25.1072 41.6837 25.1072 42.0915C25.1072 42.4993 24.7766 42.8299 24.3687 42.8299C23.9609 42.8299 23.6303 42.4993 23.6303 42.0915Z" fill="#FDDC73" fill-opacity="0.16"/>
<path d="M44.3068 42.0915C44.3068 41.6837 44.6374 41.353 45.0453 41.353C45.4531 41.353 45.7837 41.6837 45.7837 42.0915C45.7837 42.4993 45.4531 42.8299 45.0453 42.8299C44.6374 42.8299 44.3068 42.4993 44.3068 42.0915Z" fill="#FDDC73" fill-opacity="0.16"/>
<path d="M5.90756 42.0915C5.90756 41.6837 6.23818 41.353 6.64601 41.353C7.05384 41.353 7.38446 41.6837 7.38446 42.0915C7.38446 42.4993 7.05384 42.8299 6.64601 42.8299C6.23818 42.8299 5.90756 42.4993 5.90756 42.0915Z" fill="#FDDC73" fill-opacity="0.16"/>
<path d="M26.5841 42.0915C26.5841 41.6837 26.9147 41.353 27.3225 41.353C27.7304 41.353 28.061 41.6837 28.061 42.0915C28.061 42.4993 27.7304 42.8299 27.3225 42.8299C26.9147 42.8299 26.5841 42.4993 26.5841 42.0915Z" fill="#FDDC73" fill-opacity="0.16"/>
<path d="M47.2606 42.0915C47.2606 41.6837 47.5912 41.353 47.999 41.353C48.4069 41.353 48.7375 41.6837 48.7375 42.0915C48.7375 42.4993 48.4069 42.8299 47.999 42.8299C47.5912 42.8299 47.2606 42.4993 47.2606 42.0915Z" fill="#FDDC73" fill-opacity="0.16"/>
<path d="M8.86134 42.0915C8.86134 41.6837 9.19195 41.353 9.59979 41.353C10.0076 41.353 10.3382 41.6837 10.3382 42.0915C10.3382 42.4993 10.0076 42.8299 9.59979 42.8299C9.19195 42.8299 8.86134 42.4993 8.86134 42.0915Z" fill="#FDDC73" fill-opacity="0.16"/>
<path d="M29.5379 42.0915C29.5379 41.6837 29.8685 41.353 30.2763 41.353C30.6841 41.353 31.0148 41.6837 31.0148 42.0915C31.0148 42.4993 30.6841 42.8299 30.2763 42.8299C29.8685 42.8299 29.5379 42.4993 29.5379 42.0915Z" fill="#FDDC73" fill-opacity="0.16"/>
<path d="M50.2144 42.0915C50.2144 41.6837 50.545 41.353 50.9528 41.353C51.3607 41.353 51.6913 41.6837 51.6913 42.0915C51.6913 42.4993 51.3607 42.8299 50.9528 42.8299C50.545 42.8299 50.2144 42.4993 50.2144 42.0915Z" fill="#FDDC73" fill-opacity="0.16"/>
<path d="M11.8151 42.0915C11.8151 41.6837 12.1458 41.353 12.5536 41.353C12.9614 41.353 13.292 41.6837 13.292 42.0915C13.292 42.4993 12.9614 42.8299 12.5536 42.8299C12.1458 42.8299 11.8151 42.4993 11.8151 42.0915Z" fill="#FDDC73" fill-opacity="0.16"/>
<path d="M32.4917 42.0915C32.4917 41.6837 32.8223 41.353 33.2301 41.353C33.6379 41.353 33.9685 41.6837 33.9685 42.0915C33.9685 42.4993 33.6379 42.8299 33.2301 42.8299C32.8223 42.8299 32.4917 42.4993 32.4917 42.0915Z" fill="#FDDC73" fill-opacity="0.16"/>
<path d="M14.7689 42.0915C14.7689 41.6837 15.0995 41.353 15.5074 41.353C15.9152 41.353 16.2458 41.6837 16.2458 42.0915C16.2458 42.4993 15.9152 42.8299 15.5074 42.8299C15.0995 42.8299 14.7689 42.4993 14.7689 42.0915Z" fill="#FDDC73" fill-opacity="0.16"/>
<path d="M35.4454 42.0915C35.4454 41.6837 35.7761 41.353 36.1839 41.353C36.5917 41.353 36.9223 41.6837 36.9223 42.0915C36.9223 42.4993 36.5917 42.8299 36.1839 42.8299C35.7761 42.8299 35.4454 42.4993 35.4454 42.0915Z" fill="#FDDC73" fill-opacity="0.16"/>
<path d="M17.7227 42.0915C17.7227 41.6837 18.0533 41.353 18.4612 41.353C18.869 41.353 19.1996 41.6837 19.1996 42.0915C19.1996 42.4993 18.869 42.8299 18.4612 42.8299C18.0533 42.8299 17.7227 42.4993 17.7227 42.0915Z" fill="#FDDC73" fill-opacity="0.16"/>
<path d="M38.3992 42.0915C38.3992 41.6837 38.7298 41.353 39.1377 41.353C39.5455 41.353 39.8761 41.6837 39.8761 42.0915C39.8761 42.4993 39.5455 42.8299 39.1377 42.8299C38.7298 42.8299 38.3992 42.4993 38.3992 42.0915Z" fill="#FDDC73" fill-opacity="0.16"/>
<path d="M0 45.0453C0 44.6374 0.330614 44.3068 0.738447 44.3068C1.14628 44.3068 1.47689 44.6374 1.47689 45.0453C1.47689 45.4531 1.14628 45.7837 0.738447 45.7837C0.330614 45.7837 0 45.4531 0 45.0453Z" fill="#FDDC73" fill-opacity="0.16"/>
<path d="M20.6765 45.0453C20.6765 44.6374 21.0071 44.3068 21.4149 44.3068C21.8228 44.3068 22.1534 44.6374 22.1534 45.0453C22.1534 45.4531 21.8228 45.7837 21.4149 45.7837C21.0071 45.7837 20.6765 45.4531 20.6765 45.0453Z" fill="#FDDC73" fill-opacity="0.16"/>
<path d="M41.353 45.0453C41.353 44.6374 41.6836 44.3068 42.0915 44.3068C42.4993 44.3068 42.8299 44.6374 42.8299 45.0453C42.8299 45.4531 42.4993 45.7837 42.0915 45.7837C41.6836 45.7837 41.353 45.4531 41.353 45.0453Z" fill="#FDDC73" fill-opacity="0.16"/>
<path d="M2.95376 45.0453C2.95376 44.6374 3.28438 44.3068 3.69221 44.3068C4.10004 44.3068 4.43066 44.6374 4.43066 45.0453C4.43066 45.4531 4.10004 45.7837 3.69221 45.7837C3.28438 45.7837 2.95376 45.4531 2.95376 45.0453Z" fill="#FDDC73" fill-opacity="0.16"/>
<path d="M23.6303 45.0453C23.6303 44.6374 23.9609 44.3068 24.3687 44.3068C24.7766 44.3068 25.1072 44.6374 25.1072 45.0453C25.1072 45.4531 24.7766 45.7837 24.3687 45.7837C23.9609 45.7837 23.6303 45.4531 23.6303 45.0453Z" fill="#FDDC73" fill-opacity="0.16"/>
<path d="M44.3068 45.0453C44.3068 44.6374 44.6374 44.3068 45.0453 44.3068C45.4531 44.3068 45.7837 44.6374 45.7837 45.0453C45.7837 45.4531 45.4531 45.7837 45.0453 45.7837C44.6374 45.7837 44.3068 45.4531 44.3068 45.0453Z" fill="#FDDC73" fill-opacity="0.16"/>
<path d="M5.90756 45.0453C5.90756 44.6374 6.23818 44.3068 6.64601 44.3068C7.05384 44.3068 7.38446 44.6374 7.38446 45.0453C7.38446 45.4531 7.05384 45.7837 6.64601 45.7837C6.23818 45.7837 5.90756 45.4531 5.90756 45.0453Z" fill="#FDDC73" fill-opacity="0.16"/>
<path d="M26.5841 45.0453C26.5841 44.6374 26.9147 44.3068 27.3225 44.3068C27.7304 44.3068 28.061 44.6374 28.061 45.0453C28.061 45.4531 27.7304 45.7837 27.3225 45.7837C26.9147 45.7837 26.5841 45.4531 26.5841 45.0453Z" fill="#FDDC73" fill-opacity="0.16"/>
<path d="M47.2606 45.0453C47.2606 44.6374 47.5912 44.3068 47.999 44.3068C48.4069 44.3068 48.7375 44.6374 48.7375 45.0453C48.7375 45.4531 48.4069 45.7837 47.999 45.7837C47.5912 45.7837 47.2606 45.4531 47.2606 45.0453Z" fill="#FDDC73" fill-opacity="0.16"/>
<path d="M8.86134 45.0453C8.86134 44.6374 9.19195 44.3068 9.59979 44.3068C10.0076 44.3068 10.3382 44.6374 10.3382 45.0453C10.3382 45.4531 10.0076 45.7837 9.59979 45.7837C9.19195 45.7837 8.86134 45.4531 8.86134 45.0453Z" fill="#FDDC73" fill-opacity="0.16"/>
<path d="M29.5379 45.0453C29.5379 44.6374 29.8685 44.3068 30.2763 44.3068C30.6841 44.3068 31.0148 44.6374 31.0148 45.0453C31.0148 45.4531 30.6841 45.7837 30.2763 45.7837C29.8685 45.7837 29.5379 45.4531 29.5379 45.0453Z" fill="#FDDC73" fill-opacity="0.16"/>
<path d="M50.2144 45.0453C50.2144 44.6374 50.545 44.3068 50.9528 44.3068C51.3607 44.3068 51.6913 44.6374 51.6913 45.0453C51.6913 45.4531 51.3607 45.7837 50.9528 45.7837C50.545 45.7837 50.2144 45.4531 50.2144 45.0453Z" fill="#FDDC73" fill-opacity="0.16"/>
<path d="M11.8151 45.0453C11.8151 44.6374 12.1458 44.3068 12.5536 44.3068C12.9614 44.3068 13.292 44.6374 13.292 45.0453C13.292 45.4531 12.9614 45.7837 12.5536 45.7837C12.1458 45.7837 11.8151 45.4531 11.8151 45.0453Z" fill="#FDDC73" fill-opacity="0.16"/>
<path d="M32.4917 45.0453C32.4917 44.6374 32.8223 44.3068 33.2301 44.3068C33.6379 44.3068 33.9685 44.6374 33.9685 45.0453C33.9685 45.4531 33.6379 45.7837 33.2301 45.7837C32.8223 45.7837 32.4917 45.4531 32.4917 45.0453Z" fill="#FDDC73" fill-opacity="0.16"/>
<path d="M14.7689 45.0453C14.7689 44.6374 15.0995 44.3068 15.5074 44.3068C15.9152 44.3068 16.2458 44.6374 16.2458 45.0453C16.2458 45.4531 15.9152 45.7837 15.5074 45.7837C15.0995 45.7837 14.7689 45.4531 14.7689 45.0453Z" fill="#FDDC73" fill-opacity="0.16"/>
<path d="M35.4454 45.0453C35.4454 44.6374 35.7761 44.3068 36.1839 44.3068C36.5917 44.3068 36.9223 44.6374 36.9223 45.0453C36.9223 45.4531 36.5917 45.7837 36.1839 45.7837C35.7761 45.7837 35.4454 45.4531 35.4454 45.0453Z" fill="#FDDC73" fill-opacity="0.16"/>
<path d="M17.7227 45.0453C17.7227 44.6374 18.0533 44.3068 18.4612 44.3068C18.869 44.3068 19.1996 44.6374 19.1996 45.0453C19.1996 45.4531 18.869 45.7837 18.4612 45.7837C18.0533 45.7837 17.7227 45.4531 17.7227 45.0453Z" fill="#FDDC73" fill-opacity="0.16"/>
<path d="M38.3992 45.0453C38.3992 44.6374 38.7298 44.3068 39.1377 44.3068C39.5455 44.3068 39.8761 44.6374 39.8761 45.0453C39.8761 45.4531 39.5455 45.7837 39.1377 45.7837C38.7298 45.7837 38.3992 45.4531 38.3992 45.0453Z" fill="#FDDC73" fill-opacity="0.16"/>
<rect width="46" height="46" fill="url(#paint0_linear_2647_4026)"/>
<rect width="46" height="46" fill="url(#paint1_linear_2647_4026)"/>
<g filter="url(#filter1_f_2647_4026)">
<ellipse cx="27.5811" cy="10.5842" rx="27.5811" ry="10.5842" transform="matrix(1 0 0 -1 -25.1233 15.6083)" fill="#FDDC75"/>
</g>
</g>
</g>
<defs>
<filter id="filter0_b_2647_4026" x="-50" y="-50" width="146" height="146" filterUnits="userSpaceOnUse" color-interpolation-filters="sRGB">
<feFlood flood-opacity="0" result="BackgroundImageFix"/>
<feGaussianBlur in="BackgroundImageFix" stdDeviation="25"/>
<feComposite in2="SourceAlpha" operator="in" result="effect1_backgroundBlur_2647_4026"/>
<feBlend mode="normal" in="SourceGraphic" in2="effect1_backgroundBlur_2647_4026" result="shape"/>
</filter>
<filter id="filter1_f_2647_4026" x="-55.1233" y="-35.5601" width="115.162" height="81.1683" filterUnits="userSpaceOnUse" color-interpolation-filters="sRGB">
<feFlood flood-opacity="0" result="BackgroundImageFix"/>
<feBlend mode="normal" in="SourceGraphic" in2="BackgroundImageFix" result="shape"/>
<feGaussianBlur stdDeviation="15" result="effect1_foregroundBlur_2647_4026"/>
</filter>
<linearGradient id="paint0_linear_2647_4026" x1="1" y1="0.999999" x2="49.6083" y2="37.1269" gradientUnits="userSpaceOnUse">
<stop stop-color="#F5C84C"/>
<stop offset="1" stop-color="#7041F3"/>
</linearGradient>
<linearGradient id="paint1_linear_2647_4026" x1="46" y1="43.8138" x2="0.386814" y2="-13.021" gradientUnits="userSpaceOnUse">
<stop offset="0.221434" stop-color="#7041F3"/>
<stop offset="0.8" stop-color="#F5C84C"/>
</linearGradient>
<clipPath id="clip0_2647_4026">
<rect width="46" height="46" rx="6" fill="white"/>
</clipPath>
</defs>
</svg>
