<svg width="284" height="284" viewBox="0 0 284 284" fill="none" xmlns="http://www.w3.org/2000/svg">
<path d="M86.7246 12.3696C103.801 5.05798 122.15 1.18135 140.725 0.961078C159.299 0.740808 177.735 4.18121 194.98 11.0859L142.402 142.403L86.7246 12.3696Z" fill="url(#paint0_linear_4550_39536)"/>
<path d="M272.438 86.7266C279.749 103.803 283.626 122.152 283.846 140.727C284.066 159.301 280.626 177.737 273.721 194.982L142.404 142.404L272.438 86.7266Z" fill="url(#paint1_linear_4550_39536)"/>
<path d="M198.082 272.438C181.006 279.75 162.657 283.626 144.082 283.847C125.508 284.067 107.072 280.626 89.8267 273.722L142.405 142.404L198.082 272.438Z" fill="url(#paint2_linear_4550_39536)"/>
<path d="M12.3711 198.082C5.05944 181.006 1.18282 162.657 0.962545 144.082C0.742276 125.508 4.18268 107.072 11.0873 89.8267L142.405 142.405L12.3711 198.082Z" fill="url(#paint3_linear_4550_39536)"/>
<path d="M198.082 272.438C215.158 265.126 230.627 254.523 243.606 241.233C256.584 227.943 266.818 212.227 273.722 194.982L142.405 142.404L198.082 272.438Z" fill="url(#paint4_linear_4550_39536)"/>
<path d="M12.3711 198.082C19.6827 215.158 30.2862 230.627 43.5761 243.606C56.866 256.584 72.5821 266.818 89.8269 273.722L142.405 142.405L12.3711 198.082Z" fill="url(#paint5_linear_4550_39536)"/>
<path d="M86.7246 12.3696C69.6483 19.6813 54.1794 30.2848 41.201 43.5747C28.2226 56.8646 17.989 72.5806 11.0844 89.8255L142.402 142.403L86.7246 12.3696Z" fill="url(#paint6_linear_4550_39536)"/>
<path d="M272.438 86.7271C265.126 69.6508 254.522 54.1818 241.232 41.2035C227.943 28.2251 212.227 17.9914 194.982 11.0868L142.404 142.404L272.438 86.7271Z" fill="url(#paint7_linear_4550_39536)"/>
<g style="mix-blend-mode:hard-light">
<path d="M138.905 35.6031C140.232 32.5368 144.58 32.5368 145.907 35.6031L165.251 80.3107C166.069 82.2014 168.241 83.1009 170.156 82.3425L215.448 64.4079C218.554 63.1779 221.629 66.2524 220.399 69.3588L202.464 114.65C201.706 116.566 202.605 118.737 204.496 119.555L249.203 138.9C252.27 140.227 252.27 144.575 249.203 145.901L204.496 165.246C202.605 166.064 201.706 168.235 202.464 170.151L220.399 215.442C221.629 218.549 218.554 221.623 215.448 220.393L170.156 202.459C168.241 201.7 166.069 202.6 165.251 204.49L145.907 249.198C144.58 252.264 140.232 252.264 138.905 249.198L119.561 204.49C118.743 202.6 116.571 201.7 114.656 202.459L69.3641 220.393C66.2578 221.623 63.1832 218.549 64.4133 215.442L82.3478 170.151C83.1063 168.235 82.2068 166.064 80.316 165.246L35.6084 145.901C32.5422 144.575 32.5422 140.227 35.6084 138.9L80.3161 119.555C82.2068 118.737 83.1063 116.566 82.3478 114.65L64.4133 69.3588C63.1832 66.2524 66.2578 63.1779 69.3641 64.4079L114.656 82.3425C116.571 83.1009 118.743 82.2014 119.561 80.3107L138.905 35.6031Z" fill="black" fill-opacity="0.04"/>
</g>
<g style="mix-blend-mode:hard-light">
<path d="M142.404 86.7188L155.104 111.74L181.776 103.027L173.064 129.7L198.085 142.4L173.064 155.1L181.776 181.772L155.104 173.06L142.404 198.081L129.704 173.06L103.031 181.772L111.744 155.1L86.7227 142.4L111.744 129.7L103.031 103.027L129.704 111.74L142.404 86.7188Z" fill="#1E1E1E" fill-opacity="0.1"/>
</g>
<defs>
<linearGradient id="paint0_linear_4550_39536" x1="142.096" y1="2.16331" x2="142.84" y2="133.936" gradientUnits="userSpaceOnUse">
<stop stop-color="#A300F9"/>
<stop offset="1" stop-color="#600093"/>
</linearGradient>
<linearGradient id="paint1_linear_4550_39536" x1="281.314" y1="133.936" x2="151.775" y2="142.87" gradientUnits="userSpaceOnUse">
<stop stop-color="#FAAB05"/>
<stop offset="1" stop-color="#946503"/>
</linearGradient>
<linearGradient id="paint2_linear_4550_39536" x1="144.331" y1="283.575" x2="142.098" y2="159.248" gradientUnits="userSpaceOnUse">
<stop stop-color="#D7D7D7"/>
<stop offset="1" stop-color="#414141"/>
</linearGradient>
<linearGradient id="paint3_linear_4550_39536" x1="-1.58531" y1="146.592" x2="133.165" y2="144.359" gradientUnits="userSpaceOnUse">
<stop stop-color="#09C070"/>
<stop offset="1" stop-color="#045A35"/>
</linearGradient>
<linearGradient id="paint4_linear_4550_39536" x1="151.766" y1="148.648" x2="235.119" y2="232.001" gradientUnits="userSpaceOnUse">
<stop stop-color="#991F26"/>
<stop offset="1" stop-color="#FF333F"/>
</linearGradient>
<linearGradient id="paint5_linear_4550_39536" x1="43.0833" y1="240.396" x2="136.887" y2="148.826" gradientUnits="userSpaceOnUse">
<stop stop-color="#745FE9"/>
<stop offset="1" stop-color="#413583"/>
</linearGradient>
<linearGradient id="paint6_linear_4550_39536" x1="41.5914" y1="43.1095" x2="130.929" y2="131.702" gradientUnits="userSpaceOnUse">
<stop stop-color="#FE6A00"/>
<stop offset="1" stop-color="#983F00"/>
</linearGradient>
<linearGradient id="paint7_linear_4550_39536" x1="241.856" y1="43.1095" x2="147.308" y2="136.169" gradientUnits="userSpaceOnUse">
<stop stop-color="#0074FF"/>
<stop offset="1" stop-color="#004699"/>
</linearGradient>
</defs>
</svg>
