<svg width="30" height="30" viewBox="0 0 30 30" fill="none" xmlns="http://www.w3.org/2000/svg">
<path d="M23.6136 6.22088C24.5859 6.22088 25.1955 7.0527 25.1955 7.88588V26.1682C25.1955 27.0982 24.2245 28.125 23.3505 28.125H6.86C5.79091 28.125 5 27.015 5 26.1682V7.98406C5 6.95588 5.52636 6.20725 6.67864 6.30406H7.15045C7.54045 6.33134 7.84591 6.66406 7.83227 7.05406V10.3159C7.83227 10.6909 8.09545 11.0659 8.53864 11.0659L21.6705 10.9813C22.0318 10.9813 22.3795 10.7045 22.3795 10.2313V6.97088C22.3795 6.49906 22.7259 6.22088 23.1705 6.22088H23.6136ZM15.7155 19.5191H10.3577C10.2299 19.5182 10.1032 19.5426 9.9849 19.5911C9.86662 19.6396 9.75914 19.711 9.66869 19.8013C9.57825 19.8917 9.50664 19.999 9.45801 20.1173C9.40939 20.2355 9.38473 20.3622 9.38546 20.49C9.38546 21.0177 9.81636 21.4622 10.3577 21.4622H15.7168C15.9742 21.4612 16.2208 21.3583 16.4026 21.1762C16.5845 20.9941 16.687 20.7474 16.6877 20.49C16.6885 20.3622 16.6638 20.2355 16.6152 20.1173C16.5665 19.999 16.4949 19.8917 16.4045 19.8013C16.314 19.711 16.2066 19.6396 16.0883 19.5911C15.97 19.5426 15.8433 19.5182 15.7155 19.5191ZM19.7559 15.6463H10.2745C10.1468 15.6512 10.0212 15.6814 9.90518 15.7351C9.78912 15.7888 9.68485 15.8649 9.59839 15.9591C9.51192 16.0533 9.44497 16.1637 9.4014 16.2839C9.35783 16.4041 9.33851 16.5318 9.34455 16.6595C9.34945 16.7873 9.37961 16.9128 9.43329 17.0289C9.48697 17.1449 9.56311 17.2492 9.65731 17.3357C9.75151 17.4221 9.86191 17.4891 9.98213 17.5327C10.1023 17.5762 10.23 17.5956 10.3577 17.5895H19.7559C19.8837 17.5902 20.0104 17.5656 20.1286 17.517C20.2468 17.4683 20.3542 17.3967 20.4445 17.3063C20.5349 17.2158 20.6063 17.1084 20.6548 16.9901C20.7032 16.8718 20.7277 16.7451 20.7268 16.6172C20.7275 16.4895 20.7029 16.363 20.6544 16.2448C20.6058 16.1267 20.5344 16.0194 20.4441 15.9291C20.3538 15.8388 20.2464 15.7673 20.1283 15.7188C20.0102 15.6702 19.8836 15.6456 19.7559 15.6463ZM17.1595 3.12543C17.9368 3.13906 18.5614 3.74997 18.575 4.52725C18.575 4.90225 18.8395 5.27725 19.2841 5.27725H19.7409C20.1445 5.29088 20.45 5.62361 20.4364 6.02725V8.26088C20.4364 8.63588 20.1718 9.01088 19.7273 9.01088H10.3864C10.2912 9.00983 10.1973 8.98987 10.1099 8.95215C10.0226 8.91443 9.94362 8.85971 9.87762 8.79118C9.81163 8.72265 9.75994 8.64168 9.72554 8.55298C9.69114 8.46428 9.67474 8.36962 9.67727 8.27452V6.04088C9.67727 5.66725 9.94182 5.29088 10.3864 5.29088H10.9127C11.2741 5.29088 11.6218 5.01406 11.6218 4.54225C11.6355 3.76497 12.26 3.14043 13.0373 3.12679L17.1595 3.12543ZM15.1468 4.54088C14.3559 4.54088 13.6468 5.29088 13.6468 6.1227C13.6468 6.95588 14.3559 7.70452 15.1468 7.70452C15.9377 7.70452 16.6468 7.15088 16.6468 6.1227C16.6468 5.29088 16.0345 4.54088 15.1468 4.54088Z" fill="currentColor"/>
</svg>
