<svg width="16" height="17" viewBox="0 0 16 17" fill="none" xmlns="http://www.w3.org/2000/svg">
<g id="&#229;&#136;&#183;&#230;&#150;&#176;">
<path id="Vector" d="M13.9999 8.78775C13.9972 8.63099 13.9262 8.47692 13.7935 8.37375C13.5591 8.1902 13.2201 8.23039 13.0352 8.46486C12.9588 8.56266 12.9213 8.67655 12.92 8.79177H12.9146C12.9066 9.84083 12.5649 10.8953 11.8696 11.7835C10.1962 13.9165 7.09991 14.2903 4.96695 12.6182C2.83399 10.9462 2.45884 7.84989 4.13225 5.71693C5.80566 3.58397 8.90194 3.21017 11.0349 4.88224C11.4315 5.19307 11.7664 5.55348 12.0397 5.94738H11.055C10.7549 5.94738 10.5097 6.19256 10.5097 6.49268V6.53287C10.5097 6.83298 10.7549 7.07817 11.055 7.07817H13.4305C13.7306 7.07817 13.9758 6.83298 13.9758 6.53287V4.15607C13.9758 3.85595 13.7306 3.61077 13.4305 3.61077H13.3903C13.0901 3.61077 12.845 3.85595 12.845 4.15607V5.20781C12.5221 4.76702 12.1402 4.37177 11.7035 4.02879C11.0657 3.52904 10.3503 3.16864 9.57451 2.95829C8.82557 2.75598 8.05384 2.70105 7.28078 2.79349C6.50772 2.88728 5.77083 3.12442 5.09289 3.50091C4.38949 3.88945 3.77989 4.41063 3.28014 5.04703C2.7804 5.68478 2.41999 6.40023 2.20964 7.17597C2.00599 7.92492 1.95106 8.69664 2.04485 9.46971C2.13863 10.2428 2.37578 10.9797 2.75226 11.6576C3.1408 12.361 3.66198 12.9706 4.29839 13.4703C4.93613 13.9701 5.65158 14.3305 6.42733 14.5408C7.17628 14.7445 7.948 14.7994 8.72106 14.7056C9.49413 14.6119 10.231 14.3747 10.909 13.9982C11.6123 13.6097 12.222 13.0885 12.7217 12.4521C13.2214 11.8144 13.5819 11.0989 13.7922 10.3232C13.9289 9.82073 13.9985 9.30625 13.9999 8.78775Z" fill="currentColor"/>
</g>
</svg>
