<svg width="12" height="13" viewBox="0 0 12 13" fill="none" xmlns="http://www.w3.org/2000/svg">
<g clip-path="url(#clip0_342_282)">
<path d="M6 1.55408C3.10078 1.55408 0.75 3.90486 0.75 6.80408C0.75 9.7033 3.10078 12.0541 6 12.0541C8.89922 12.0541 11.25 9.7033 11.25 6.80408C11.25 3.90486 8.89922 1.55408 6 1.55408ZM8.47266 5.96501L6.53086 7.90681L6.27539 8.16228L6.2543 8.18337C6.1875 8.24548 6.09727 8.28298 5.99883 8.28181C5.90156 8.28181 5.81367 8.24548 5.74687 8.18455L5.72109 8.15876L5.46914 7.90681L3.52734 5.96501C3.38203 5.8197 3.38203 5.58064 3.52734 5.43416C3.67266 5.28884 3.91172 5.28884 4.0582 5.43416L6 7.37712L7.94297 5.43533C8.08828 5.29001 8.32734 5.29001 8.47383 5.43533C8.61914 5.58064 8.61914 5.8197 8.47266 5.96501Z" fill="currentColor"/>
</g>
<defs>
<clipPath id="clip0_342_282">
<rect width="12" height="12" fill="white" transform="translate(0 0.804077)"/>
</clipPath>
</defs>
</svg>
