<svg width="364" height="68" viewBox="0 0 364 68" fill="none" xmlns="http://www.w3.org/2000/svg">
<path d="M26.9112 0.0385742H340.262L351.965 4.19873L181.596 10.0386L11.9414 4.06201L26.9112 0.0385742Z" fill="#603E8F"/>
<g filter="url(#filter0_d_7669_34418)">
<path d="M24.6853 17.3806C25.6206 16.4073 26.7364 15.8757 27.5686 15.0238C29.2592 13.6588 64.937 12.4841 82.5761 12.1079C134.01 12.152 245.773 12.8228 282.667 12.717C328.786 12.5847 332.45 14.6559 335.131 14.9046C337.276 15.1037 345.167 23.2146 348.404 27.0844L357.396 25.9183L359.981 13.752L351.964 4.19513L283.94 5.75569H84.0401C62.2208 5.18543 17.1897 4.04492 11.6197 4.04492C6.47 5.12731 4.39419 11.5114 4 14.5682V19.9114L7.69397 26.6901H16.1381C18.24 24.1345 23.5295 18.5832 24.6853 17.3806Z" fill="#2F256C"/>
</g>
<path d="M23.574 15.6205C24.5196 15.9814 26.4205 14.3678 27.2528 13.5159C28.9434 12.1509 64.6442 11.0573 82.2833 10.6811C133.718 10.7252 245.81 10.7869 282.704 10.6811C328.823 10.5489 333.578 12.9155 336.259 13.1642C338.404 13.3633 345.414 21.1528 348.651 25.0227L355.972 23.8823L359.981 13.752L351.964 4.19513L283.94 5.75569H84.0401C62.2208 5.18543 17.1897 4.04492 11.6197 4.04492C6.47 5.12731 4.39419 11.5114 4 14.5682L8.46677 24.7907H15.8236C17.9255 22.2351 22.4183 16.8231 23.574 15.6205Z" fill="url(#paint0_linear_7669_34418)"/>
<g filter="url(#filter1_i_7669_34418)">
<path d="M17.3055 14.117L14.1699 17.2827C17.2664 10.0344 22.8926 10.9143 25.3186 12.2602L26.4116 12.5382L27.1808 13.7425L24.4684 15.9661L23.4844 15.5943L22.3778 14.117H17.3055Z" fill="#654294"/>
</g>
<g filter="url(#filter2_i_7669_34418)">
<path d="M347.403 14.3372L350.539 17.5029C347.443 10.2546 341.816 11.1345 339.39 12.4804L338.297 12.7584L337.528 13.9628L340.241 16.1863L341.225 15.8145L342.331 14.3372H347.403Z" fill="#654294"/>
</g>
<g filter="url(#filter3_i_7669_34418)">
<path d="M18.8725 4.22729C19.8808 3.16161 27.8881 0.652869 32.287 -9.17103e-05C52.5621 -9.17103e-05 97.6837 0.0208437 102.09 0.0208437C99.1214 1.0182 94.4869 4.21835 94.0327 5.79388C91.8031 13.5288 92.6228 31.3549 92.9302 47.9021C93.0645 55.1337 87.6911 56.6299 84.7358 58.1261C81.7804 59.6223 81.9147 57.8767 81.9147 53.3881C81.9147 49.7973 80.6609 51.3101 80.034 52.5154C80.2131 54.5518 80.249 58.9739 78.9594 60.3703C76.5413 62.864 52.764 67.3526 51.2864 67.3526C49.8087 67.3526 33.2855 60.2457 24.8224 55.8818C18.0519 52.3907 16.6281 48.3593 16.7625 46.7799C16.7177 36.0157 16.655 23.3882 16.7625 15.9072C16.8755 8.03895 17.6805 5.48713 18.8725 4.22729Z" fill="url(#paint1_linear_7669_34418)"/>
</g>
<g filter="url(#filter4_i_7669_34418)">
<path d="M344.566 4.37551C343.601 3.11421 335.474 1.32444 329.452 0.0503058C308.129 0.0793513 251.952 0.0340576 247.334 0.0340576C252.751 0.575238 263.316 3.25824 266.166 5.76162C267.925 7.30703 266.013 39.919 265.243 47.2683C264.491 54.4447 273.082 56.5747 276.179 58.0674C279.276 59.5601 279.135 57.8186 279.135 53.3405C279.135 49.7579 280.449 51.2672 281.106 52.4697C280.918 54.5015 280.881 58.9133 282.232 60.3065C284.766 62.7943 309.683 67.2725 311.231 67.2725C312.696 67.2725 328.269 60.9279 337.455 56.5568C337.98 56.307 337.922 50.0419 339.29 50.0419C340.657 50.0419 340.132 55.2309 340.657 54.9281C346.3 51.6777 347.337 48.1529 347.409 46.7476C347.958 36.0247 347.452 23.4761 347.339 16.0125C347.221 8.16249 345.636 5.77335 344.566 4.37551Z" fill="url(#paint2_linear_7669_34418)"/>
</g>
<g filter="url(#filter5_i_7669_34418)">
<path d="M182.126 5.72588C181.737 4.06033 176.038 1.58037 169.735 0.03125C146.656 0.0777516 109.247 0.0505445 104.265 0.0505445C101.281 1.12966 96.3525 4.72344 96.0079 5.74542C93.5918 12.9129 95.2676 40.3133 96.2116 47.2697C97.1557 54.226 104.68 57.0968 108.021 58.5895C111.362 60.0822 111.211 58.3407 111.211 53.8625C111.211 50.28 112.628 51.7893 113.337 52.9918C113.134 55.0235 113.094 59.4353 114.552 60.8285C115.378 60.8285 114.552 57.2015 115.652 57.3059C116.29 57.544 115.652 61.6226 118.661 62.4985C126.982 64.9207 144.5 67.7946 145.838 67.7946C147.509 67.7946 166.19 60.7042 175.758 56.3504C180.869 54.0247 181.954 49.5155 182.054 47.2697C182.542 36.2889 182.727 24.1364 182.784 16.672C182.842 9.16102 182.511 7.38177 182.126 5.72588Z" fill="url(#paint3_linear_7669_34418)"/>
</g>
<g filter="url(#filter6_i_7669_34418)">
<path d="M263.503 5.76524C262.184 4.35994 249.353 0.89162 242.33 0.0377197C221.706 0.0752133 176.923 0.0390127 172.467 0.0390127C176.204 0.601328 183.001 3.56943 184.184 5.76344C185.95 9.03652 183.737 39.3136 184.056 46.7448C184.307 52.5652 188.486 55.3945 191.812 57.0522C192.2 57.2459 191.812 53.781 193.047 53.781C193.906 53.781 193.612 57.9178 193.906 58.0646C196.895 59.5574 196.759 57.8158 196.759 53.3377C196.759 49.7552 198.027 51.2645 198.661 52.4669C198.48 54.4987 198.444 58.9105 199.748 60.3037C202.194 62.7916 226.243 67.2697 227.738 67.2697C229.232 67.2697 245.944 60.1793 254.504 55.8256C261.352 52.3425 262.533 48.4993 262.656 46.7448C263.403 36.1555 264.704 23.6726 264.595 16.209C264.481 8.35898 264.116 6.4183 263.503 5.76524Z" fill="url(#paint4_linear_7669_34418)"/>
</g>
<defs>
<filter id="filter0_d_7669_34418" x="0" y="4.04492" width="363.98" height="31.0396" filterUnits="userSpaceOnUse" color-interpolation-filters="sRGB">
<feFlood flood-opacity="0" result="BackgroundImageFix"/>
<feColorMatrix in="SourceAlpha" type="matrix" values="0 0 0 0 0 0 0 0 0 0 0 0 0 0 0 0 0 0 127 0" result="hardAlpha"/>
<feOffset dy="4"/>
<feGaussianBlur stdDeviation="2"/>
<feComposite in2="hardAlpha" operator="out"/>
<feColorMatrix type="matrix" values="0 0 0 0 0 0 0 0 0 0 0 0 0 0 0 0 0 0 0.25 0"/>
<feBlend mode="normal" in2="BackgroundImageFix" result="effect1_dropShadow_7669_34418"/>
<feBlend mode="normal" in="SourceGraphic" in2="effect1_dropShadow_7669_34418" result="shape"/>
</filter>
<filter id="filter1_i_7669_34418" x="14.1699" y="11.3452" width="13.0117" height="5.9375" filterUnits="userSpaceOnUse" color-interpolation-filters="sRGB">
<feFlood flood-opacity="0" result="BackgroundImageFix"/>
<feBlend mode="normal" in="SourceGraphic" in2="BackgroundImageFix" result="shape"/>
<feColorMatrix in="SourceAlpha" type="matrix" values="0 0 0 0 0 0 0 0 0 0 0 0 0 0 0 0 0 0 127 0" result="hardAlpha"/>
<feOffset/>
<feGaussianBlur stdDeviation="1"/>
<feComposite in2="hardAlpha" operator="arithmetic" k2="-1" k3="1"/>
<feColorMatrix type="matrix" values="0 0 0 0 0.19726 0 0 0 0 0.0879106 0 0 0 0 0.397104 0 0 0 1 0"/>
<feBlend mode="normal" in2="shape" result="effect1_innerShadow_7669_34418"/>
</filter>
<filter id="filter2_i_7669_34418" x="337.527" y="11.5654" width="13.0117" height="5.9375" filterUnits="userSpaceOnUse" color-interpolation-filters="sRGB">
<feFlood flood-opacity="0" result="BackgroundImageFix"/>
<feBlend mode="normal" in="SourceGraphic" in2="BackgroundImageFix" result="shape"/>
<feColorMatrix in="SourceAlpha" type="matrix" values="0 0 0 0 0 0 0 0 0 0 0 0 0 0 0 0 0 0 127 0" result="hardAlpha"/>
<feOffset/>
<feGaussianBlur stdDeviation="1"/>
<feComposite in2="hardAlpha" operator="arithmetic" k2="-1" k3="1"/>
<feColorMatrix type="matrix" values="0 0 0 0 0.19726 0 0 0 0 0.0879106 0 0 0 0 0.397104 0 0 0 1 0"/>
<feBlend mode="normal" in2="shape" result="effect1_innerShadow_7669_34418"/>
</filter>
<filter id="filter3_i_7669_34418" x="16.7031" y="-4.00012" width="85.3867" height="71.3527" filterUnits="userSpaceOnUse" color-interpolation-filters="sRGB">
<feFlood flood-opacity="0" result="BackgroundImageFix"/>
<feBlend mode="normal" in="SourceGraphic" in2="BackgroundImageFix" result="shape"/>
<feColorMatrix in="SourceAlpha" type="matrix" values="0 0 0 0 0 0 0 0 0 0 0 0 0 0 0 0 0 0 127 0" result="hardAlpha"/>
<feOffset dy="-4"/>
<feGaussianBlur stdDeviation="2"/>
<feComposite in2="hardAlpha" operator="arithmetic" k2="-1" k3="1"/>
<feColorMatrix type="matrix" values="0 0 0 0 0.0452877 0 0 0 0 0.0342958 0 0 0 0 0.328332 0 0 0 0.25 0"/>
<feBlend mode="normal" in2="shape" result="effect1_innerShadow_7669_34418"/>
</filter>
<filter id="filter4_i_7669_34418" x="247.334" y="-3.96594" width="100.326" height="71.2384" filterUnits="userSpaceOnUse" color-interpolation-filters="sRGB">
<feFlood flood-opacity="0" result="BackgroundImageFix"/>
<feBlend mode="normal" in="SourceGraphic" in2="BackgroundImageFix" result="shape"/>
<feColorMatrix in="SourceAlpha" type="matrix" values="0 0 0 0 0 0 0 0 0 0 0 0 0 0 0 0 0 0 127 0" result="hardAlpha"/>
<feOffset dy="-4"/>
<feGaussianBlur stdDeviation="2"/>
<feComposite in2="hardAlpha" operator="arithmetic" k2="-1" k3="1"/>
<feColorMatrix type="matrix" values="0 0 0 0 0.0452877 0 0 0 0 0.0342958 0 0 0 0 0.328332 0 0 0 0.25 0"/>
<feBlend mode="normal" in2="shape" result="effect1_innerShadow_7669_34418"/>
</filter>
<filter id="filter5_i_7669_34418" x="94.7617" y="-3.96875" width="88.0293" height="71.7633" filterUnits="userSpaceOnUse" color-interpolation-filters="sRGB">
<feFlood flood-opacity="0" result="BackgroundImageFix"/>
<feBlend mode="normal" in="SourceGraphic" in2="BackgroundImageFix" result="shape"/>
<feColorMatrix in="SourceAlpha" type="matrix" values="0 0 0 0 0 0 0 0 0 0 0 0 0 0 0 0 0 0 127 0" result="hardAlpha"/>
<feOffset dy="-4"/>
<feGaussianBlur stdDeviation="2"/>
<feComposite in2="hardAlpha" operator="arithmetic" k2="-1" k3="1"/>
<feColorMatrix type="matrix" values="0 0 0 0 0.0452877 0 0 0 0 0.0342958 0 0 0 0 0.328332 0 0 0 0.25 0"/>
<feBlend mode="normal" in2="shape" result="effect1_innerShadow_7669_34418"/>
</filter>
<filter id="filter6_i_7669_34418" x="172.467" y="-3.96228" width="92.1348" height="71.232" filterUnits="userSpaceOnUse" color-interpolation-filters="sRGB">
<feFlood flood-opacity="0" result="BackgroundImageFix"/>
<feBlend mode="normal" in="SourceGraphic" in2="BackgroundImageFix" result="shape"/>
<feColorMatrix in="SourceAlpha" type="matrix" values="0 0 0 0 0 0 0 0 0 0 0 0 0 0 0 0 0 0 127 0" result="hardAlpha"/>
<feOffset dy="-4"/>
<feGaussianBlur stdDeviation="2"/>
<feComposite in2="hardAlpha" operator="arithmetic" k2="-1" k3="1"/>
<feColorMatrix type="matrix" values="0 0 0 0 0.0452877 0 0 0 0 0.0342958 0 0 0 0 0.328332 0 0 0 0.25 0"/>
<feBlend mode="normal" in2="shape" result="effect1_innerShadow_7669_34418"/>
</filter>
<linearGradient id="paint0_linear_7669_34418" x1="145.264" y1="14.5338" x2="145.264" y2="4.04492" gradientUnits="userSpaceOnUse">
<stop stop-color="#7463BF"/>
<stop offset="1" stop-color="#5947AA"/>
</linearGradient>
<linearGradient id="paint1_linear_7669_34418" x1="58.8854" y1="-7.74666" x2="58.1573" y2="75.2226" gradientUnits="userSpaceOnUse">
<stop stop-color="#918DFA"/>
<stop offset="0.14" stop-color="#6F6BDC"/>
<stop offset="0.17" stop-color="#4E4AB1"/>
<stop offset="0.504808" stop-color="#534FBA"/>
<stop offset="1" stop-color="#48448E"/>
</linearGradient>
<linearGradient id="paint2_linear_7669_34418" x1="305.193" y1="-13.5022" x2="305.364" y2="81.641" gradientUnits="userSpaceOnUse">
<stop stop-color="#918DFA"/>
<stop offset="0.173077" stop-color="#6F6BDC"/>
<stop offset="0.201923" stop-color="#4E4AB1"/>
<stop offset="0.504808" stop-color="#534FBA"/>
<stop offset="1" stop-color="#48448E"/>
</linearGradient>
<linearGradient id="paint3_linear_7669_34418" x1="135.495" y1="-8.11396" x2="136.193" y2="81.4833" gradientUnits="userSpaceOnUse">
<stop offset="0.01" stop-color="#918DFA"/>
<stop offset="0.14" stop-color="#6F6BDC"/>
<stop offset="0.169046" stop-color="#4E4AB1"/>
<stop offset="0.504808" stop-color="#534FBA"/>
<stop offset="1" stop-color="#48448E"/>
</linearGradient>
<linearGradient id="paint4_linear_7669_34418" x1="219.712" y1="-13.1011" x2="219.388" y2="81.8483" gradientUnits="userSpaceOnUse">
<stop stop-color="#918DFA"/>
<stop offset="0.178446" stop-color="#6F6BDC"/>
<stop offset="0.207223" stop-color="#4E4AB1"/>
<stop offset="0.504808" stop-color="#534FBA"/>
<stop offset="1" stop-color="#48448E"/>
</linearGradient>
</defs>
</svg>
