<svg width="64" height="56" viewBox="0 0 64 56" fill="none" xmlns="http://www.w3.org/2000/svg">
<path fill-rule="evenodd" clip-rule="evenodd" d="M64 24V4C64 1.79 62.21 0 60 0H4C1.79 0 0 1.79 0 4V24C1.86 24 3.43 25.27 3.87 27C3.96 27.32 4 27.65 4 28C4 28.35 3.96 28.68 3.87 29C3.43 30.73 1.86 32 0 32V52C0 54.21 1.79 56 4 56H60C62.21 56 64 54.21 64 52V32C62.14 32 60.57 30.73 60.13 29C60.04 28.68 60 28.35 60 28C60 27.65 60.04 27.32 60.13 27C60.57 25.27 62.14 24 64 24ZM5 32C4.45 32 4 31.55 4 31C4 30.45 4.45 30 5 30C5.55 30 6 30.45 6 31C6 31.55 5.55 32 5 32ZM59 32C58.45 32 58 31.55 58 31C58 30.45 58.45 30 59 30C59.55 30 60 30.45 60 31C60 31.55 59.55 32 59 32ZM59 24C59.55 24 60 24.45 60 25C60 25.55 59.55 26 59 26C58.45 26 58 25.55 58 25C58 24.45 58.45 24 59 24ZM5 24C5.55 24 6 24.45 6 25C6 25.55 5.55 26 5 26C4.45 26 4 25.55 4 25C4 24.45 4.45 24 5 24Z" fill="#B271E0"/>
</svg>
