<svg width="140" height="180" viewBox="0 0 140 180" fill="none" xmlns="http://www.w3.org/2000/svg">
<rect x="20" y="14" width="7" height="7" fill="white" fill-opacity="0.2"/>
<rect x="15" y="40" width="3" height="3" fill="white" fill-opacity="0.2"/>
<rect x="34" y="59" width="10" height="10" fill="white" fill-opacity="0.2"/>
<rect x="15" y="85" width="6" height="6" fill="white" fill-opacity="0.2"/>
<rect x="34" y="98" width="5" height="5" fill="white" fill-opacity="0.2"/>
<rect x="15" y="124" width="4" height="4" fill="white" fill-opacity="0.2"/>
<rect x="73" y="116" width="5" height="5" fill="white" fill-opacity="0.2"/>
<rect x="49" y="123" width="9" height="9" fill="white" fill-opacity="0.2"/>
<rect x="58" y="95" width="6" height="6" fill="white" fill-opacity="0.2"/>
<rect x="77" y="81" width="10" height="10" fill="white" fill-opacity="0.2"/>
<rect x="70" y="55" width="5" height="5" fill="white" fill-opacity="0.2"/>
<rect x="58" y="40" width="6" height="6" fill="white" fill-opacity="0.2"/>
<rect x="47" y="24" width="4" height="4" fill="white" fill-opacity="0.2"/>
<rect x="87" y="19" width="7" height="7" fill="white" fill-opacity="0.2"/>
<rect x="114" y="19" width="10" height="10" fill="white" fill-opacity="0.2"/>
<rect x="97" y="40" width="9" height="9" fill="white" fill-opacity="0.2"/>
<rect x="116" y="42" width="6" height="6" fill="white" fill-opacity="0.2"/>
<rect x="112" y="60" width="4" height="4" fill="white" fill-opacity="0.2"/>
<rect x="115" y="77" width="8" height="8" fill="white" fill-opacity="0.2"/>
<rect x="99" y="81" width="8" height="8" fill="white" fill-opacity="0.2"/>
<rect x="100" y="103" width="4" height="4" fill="white" fill-opacity="0.2"/>
<rect x="121" y="105" width="6" height="6" fill="white" fill-opacity="0.2"/>
<rect x="120" y="120" width="8" height="8" fill="white" fill-opacity="0.2"/>
<rect x="102" y="133" width="10" height="10" fill="white" fill-opacity="0.2"/>
<rect x="90" y="132" width="4" height="4" fill="white" fill-opacity="0.2"/>
<path d="M0 0H113.5L54.5 94L0 180V0Z" fill="white" fill-opacity="0.15"/>
</svg>
