<svg width="18" height="18" viewBox="0 0 18 18" fill="none" xmlns="http://www.w3.org/2000/svg">
<path d="M9.08208 14.2007C9.17004 14.2007 9.25954 14.1953 9.34964 14.1846C10.2137 14.0809 10.9475 13.4769 11.2183 12.6446C11.2388 12.5823 11.2093 12.5156 11.1496 12.4883C11.0907 12.4608 11.0194 12.4846 10.9861 12.5404C10.9829 12.5457 10.6396 13.1003 9.30303 13.2808C9.10295 13.3076 8.90826 13.3217 8.72372 13.3217C7.78732 13.3211 7.37004 12.9681 7.36621 12.9649C7.31909 12.923 7.24717 12.9219 7.19887 12.9627C7.15009 13.0035 7.13886 13.0745 7.17212 13.1288C7.57976 13.7896 8.31125 14.2007 9.08208 14.2007ZM16.2687 5.91739C16.2569 5.91739 16.2461 5.91956 16.2349 5.91956C15.4518 2.52912 12.4595 0 8.87177 0C5.18541 0 2.1244 2.66879 1.44595 6.19954C0.786278 6.31825 0.28418 6.89807 0.28418 7.59926V10.4057C0.28418 11.1922 0.914937 11.8301 1.69375 11.8301C2.13306 11.8301 2.52083 11.6226 2.77878 11.304C3.40206 12.9525 4.67093 14.2817 6.27674 14.983C6.28057 14.9746 6.31097 14.9155 6.34756 14.8684C6.37284 14.8357 6.40117 14.809 6.42547 14.809C6.45066 14.809 6.47377 14.8181 6.49354 14.8321C6.12189 14.5553 4.77944 13.133 4.48865 11.1482C4.36107 10.2745 5.01543 9.41694 5.77752 9.27509C7.00095 9.04728 8.218 8.78777 9.44144 8.56427C10.2192 8.42242 10.7506 7.99579 11.0757 7.28546C11.1518 7.1194 11.2618 6.78366 11.3123 6.29947C11.3256 6.22747 11.3847 6.17219 11.4603 6.17219C11.5108 6.17219 11.5537 6.19795 11.5821 6.23505L11.6158 6.2141C12.098 6.91418 13.0543 8.46432 13.1916 10.0988C13.3493 11.9676 13.2614 13.2475 11.831 14.5569C11.8293 14.5586 11.8271 14.5607 11.8251 14.5624C11.8052 14.5838 11.7934 14.6117 11.7934 14.6424C11.7934 14.6826 11.8148 14.7171 11.8459 14.738C11.8577 14.7429 11.8695 14.7493 11.8813 14.7542C11.891 14.7563 11.9001 14.7595 11.9098 14.7595C11.9195 14.7595 11.9281 14.7563 11.9366 14.7542C11.957 14.7434 11.9763 14.7311 11.9961 14.7203C13.4427 13.9234 14.5524 12.5926 15.0652 10.9919C15.2728 11.3002 15.5978 11.5222 15.9753 11.5996C15.3698 14.3538 12.9133 16.0776 9.87002 16.3392C9.68765 15.8868 9.23869 15.5655 8.71143 15.5655C8.02283 15.5655 7.46447 16.1109 7.46447 16.7831C7.46447 17.4552 8.02273 18 8.71143 18C9.26664 18 9.73162 17.6433 9.89304 17.1532C13.4158 16.8669 16.2398 14.773 16.8293 11.5195C17.3501 11.3018 17.7158 10.7909 17.7158 10.1945V7.35481C17.7158 6.56114 17.0678 5.91739 16.2687 5.91739ZM14.9691 6.73309C14.0503 4.24421 11.6694 2.46624 8.86862 2.46624C6.07951 2.46624 3.7072 4.22915 2.77986 6.70192C2.73373 6.64546 2.67961 6.59716 2.6265 6.54825C3.15149 3.53496 5.74485 1.24389 8.87177 1.24389C11.9837 1.24389 14.569 3.51242 15.1112 6.50478C15.0576 6.57678 15.0083 6.65193 14.9691 6.73309ZM6.27694 14.983C6.27684 14.983 6.27684 14.983 6.27674 14.983C6.27616 14.9842 6.27616 14.9844 6.27694 14.983Z" fill="currentColor"/>
</svg>
