<svg width="67" height="330" viewBox="0 0 67 330" fill="none" xmlns="http://www.w3.org/2000/svg">
<path d="M1.60169 104.531L0.75211 104.003L0.75211 104.003L1.60169 104.531ZM66.5 0L56.3203 5.45047L66.1304 11.5411L66.5 0ZM31.5 328H5V330H31.5V328ZM2 325V106.641H0V325H2ZM2.45127 105.058L62.6024 8.17366L60.9033 7.11874L0.75211 104.003L2.45127 105.058ZM2 106.641C2 106.082 2.1563 105.533 2.45127 105.058L0.75211 104.003C0.260504 104.795 0 105.709 0 106.641H2ZM5 328C3.34315 328 2 326.657 2 325H0C0 327.761 2.23858 330 5 330V328Z" fill="#1DB31E"/>
</svg>
