<svg width="24" height="25" viewBox="0 0 24 25" fill="none" xmlns="http://www.w3.org/2000/svg">
<path fill-rule="evenodd" clip-rule="evenodd" d="M17.3333 8.51644C17.3333 11.462 14.9455 13.8498 12 13.8498C9.05444 13.8498 6.66663 11.462 6.66663 8.51644C6.66663 5.57092 9.05444 3.18311 12 3.18311C13.4144 3.18311 14.771 3.74501 15.7712 4.7452C16.7714 5.7454 17.3333 7.10195 17.3333 8.51644Z" fill="currentColor"/>
<path fill-rule="evenodd" clip-rule="evenodd" d="M17.4444 15.1831H6.55551C4.40774 15.1831 2.66663 16.6755 2.66663 18.5164C2.66663 20.3574 4.40774 21.8498 6.55551 21.8498H17.4444C19.5922 21.8498 21.3333 20.3574 21.3333 18.5164C21.3333 16.6755 19.5922 15.1831 17.4444 15.1831Z" fill="currentColor"/>
</svg>
