<svg width="12" height="13" viewBox="0 0 12 13" fill="none" xmlns="http://www.w3.org/2000/svg">
<path fill-rule="evenodd" clip-rule="evenodd" d="M7 2.42813C7 1.87584 6.55228 1.42813 6 1.42813C5.44772 1.42813 5 1.87584 5 2.42813L5 5.67092L1.75736 5.67092C1.20507 5.67092 0.757359 6.11864 0.757359 6.67092C0.757359 7.22321 1.20508 7.67092 1.75736 7.67092L5 7.67092V10.9134C5 11.4657 5.44772 11.9134 6 11.9134C6.55228 11.9134 7 11.4657 7 10.9134V7.67092L10.2426 7.67092C10.7949 7.67092 11.2426 7.22321 11.2426 6.67092C11.2426 6.11864 10.7949 5.67092 10.2426 5.67092L7 5.67092L7 2.42813Z" fill="url(#paint0_linear_2989_3976)"/>
<defs>
<linearGradient id="paint0_linear_2989_3976" x1="8.82847" y1="9.49931" x2="1.42241" y2="2.09325" gradientUnits="userSpaceOnUse">
<stop stop-color="#7041F3"/>
<stop offset="1" stop-color="#F5C84C"/>
</linearGradient>
</defs>
</svg>
