<svg width="12" height="11" viewBox="0 0 12 11" fill="none" xmlns="http://www.w3.org/2000/svg">
<path fill-rule="evenodd" clip-rule="evenodd" d="M7 1.42813C7 0.875845 6.55228 0.42813 6 0.42813C5.44772 0.42813 5 0.875845 5 1.42813L5 4.67094L1.75736 4.67094C1.20507 4.67094 0.757359 5.11866 0.757359 5.67094C0.757359 6.22323 1.20508 6.67094 1.75736 6.67094L5 6.67094V9.91341C5 10.4657 5.44772 10.9134 6 10.9134C6.55228 10.9134 7 10.4657 7 9.91341V6.67094L10.2426 6.67094C10.7949 6.67094 11.2426 6.22323 11.2426 5.67094C11.2426 5.11866 10.7949 4.67094 10.2426 4.67094L7 4.67094L7 1.42813Z" fill="currentColor"/>
</svg>
