<svg width="12" height="12" viewBox="0 0 12 12" fill="none" xmlns="http://www.w3.org/2000/svg">
<path d="M2.81401 5.05715C3.42298 4.57272 3.97434 4.2917 4.46169 4.20287C4.90867 4.1214 5.30774 4.19986 5.68922 4.444C5.79918 4.51438 6.16149 4.74942 6.20225 4.77567C6.40346 4.90528 6.55615 5.0007 6.70428 5.08809C7.09257 5.31719 7.42056 5.47174 7.75088 5.56724C8.69664 5.84066 9.57754 5.58516 10.5096 4.72927C10.748 4.5104 10.7638 4.13974 10.5449 3.90139C10.326 3.66303 9.95534 3.64724 9.71699 3.86612C9.36862 4.18602 9.06393 4.37231 8.78813 4.45229C8.55557 4.51974 8.33153 4.51523 8.07635 4.44146C7.85568 4.37766 7.61055 4.26217 7.29977 4.0788C7.1673 4.00064 7.02629 3.91251 6.83685 3.7905C6.79892 3.76606 6.43457 3.5297 6.32094 3.45698C5.68976 3.05301 4.98986 2.91542 4.25156 3.04999C3.55362 3.1772 2.83339 3.54429 2.08447 4.14007C1.83122 4.34151 1.78924 4.71013 1.99069 4.96338C2.19214 5.21662 2.56076 5.25861 2.81401 5.05715ZM2.81401 8.1509C3.42298 7.66647 3.97434 7.38545 4.46169 7.29662C4.90867 7.21515 5.30774 7.29361 5.68922 7.53775C5.79918 7.60813 6.16149 7.84317 6.20225 7.86942C6.40346 7.99903 6.55615 8.09445 6.70428 8.18184C7.09257 8.41094 7.42056 8.56549 7.75088 8.66098C8.69664 8.93441 9.57754 8.67892 10.5096 7.82302C10.748 7.60415 10.7638 7.23349 10.5449 6.99514C10.326 6.75678 9.95534 6.74099 9.71699 6.95987C9.36862 7.27977 9.06393 7.46606 8.78813 7.54604C8.55557 7.61349 8.33153 7.60898 8.07635 7.53521C7.85568 7.47142 7.61055 7.35592 7.29977 7.17255C7.1673 7.09439 7.02629 7.00626 6.83685 6.88425C6.79892 6.85981 6.43457 6.62345 6.32094 6.55073C5.68976 6.14676 4.98986 6.00917 4.25156 6.14374C3.55362 6.27095 2.83339 6.63804 2.08447 7.23382C1.83122 7.43526 1.78924 7.80388 1.99069 8.05713C2.19214 8.31037 2.56076 8.35236 2.81401 8.1509Z" fill="currentColor"/>
</svg>
