<svg width="390" height="91" viewBox="0 0 390 91" fill="none" xmlns="http://www.w3.org/2000/svg">
<g clip-path="url(#clip0_10027_56014)">
<path d="M259 22C248.243 22 243.271 15.6354 240.974 9.75293C238.964 4.60864 234.523 7.62939e-06 229 0H159C153.477 0 149.036 4.60863 147.026 9.75293C144.729 15.6354 139.757 22 129 22H10C4.47715 22 0 26.4771 0 32V91H390V32C390 26.4771 385.523 22 380 22H259Z" fill="#193E7B"/>
<g filter="url(#filter0_d_10027_56014)">
<path d="M18.8766 30.2014C18.3942 29.9229 18.2324 29.3039 18.5167 28.825L20.2637 25.8826C20.5432 25.4118 21.1493 25.2534 21.6234 25.5271C22.1058 25.8056 22.2676 26.4246 21.9833 26.9035L20.2363 29.8459C19.9568 30.3167 19.3507 30.4752 18.8766 30.2014Z" fill="#E8FE5C"/>
</g>
<g filter="url(#filter1_d_10027_56014)">
<path d="M12.3766 30.2014C11.8942 29.9229 11.7324 29.3039 12.0167 28.825L13.7637 25.8826C14.0432 25.4118 14.6493 25.2534 15.1234 25.5271C15.6058 25.8056 15.7676 26.4246 15.4833 26.9035L13.7363 29.8459C13.4568 30.3167 12.8507 30.4752 12.3766 30.2014Z" fill="#E8FE5C"/>
</g>
<g filter="url(#filter2_d_10027_56014)">
<path d="M5.87658 30.2014C5.39419 29.9229 5.23237 29.3039 5.51673 28.825L7.26365 25.8826C7.54316 25.4118 8.14928 25.2534 8.62342 25.5271C9.10581 25.8056 9.26763 26.4246 8.98327 26.9035L7.23635 29.8459C6.95684 30.3167 6.35072 30.4752 5.87658 30.2014Z" fill="#E8FE5C"/>
</g>
<g filter="url(#filter3_d_10027_56014)">
<path d="M370.623 30.2014C371.106 29.9229 371.268 29.3039 370.983 28.825L369.236 25.8826C368.957 25.4118 368.351 25.2534 367.877 25.5271C367.394 25.8056 367.232 26.4246 367.517 26.9035L369.264 29.8459C369.543 30.3167 370.149 30.4752 370.623 30.2014Z" fill="#E8FE5C"/>
</g>
<g filter="url(#filter4_d_10027_56014)">
<path d="M377.123 30.2014C377.606 29.9229 377.768 29.3039 377.483 28.825L375.736 25.8826C375.457 25.4118 374.851 25.2534 374.377 25.5271C373.894 25.8056 373.732 26.4246 374.017 26.9035L375.764 29.8459C376.043 30.3167 376.649 30.4752 377.123 30.2014Z" fill="#E8FE5C"/>
</g>
<g filter="url(#filter5_d_10027_56014)">
<path d="M383.623 30.2014C384.106 29.9229 384.268 29.3039 383.983 28.825L382.236 25.8826C381.957 25.4118 381.351 25.2534 380.877 25.5271C380.394 25.8056 380.232 26.4246 380.517 26.9035L382.264 29.8459C382.543 30.3167 383.149 30.4752 383.623 30.2014Z" fill="#E8FE5C"/>
</g>
<mask id="mask0_10027_56014" style="mask-type:alpha" maskUnits="userSpaceOnUse" x="0" y="0" width="390" height="91">
<path d="M259 22C248.243 22 243.271 15.6354 240.974 9.75293C238.964 4.60864 234.523 7.62939e-06 229 0H159C153.477 0 149.036 4.60863 147.026 9.75293C144.729 15.6354 139.757 22 129 22H10C4.47715 22 0 26.4771 0 32V91H390V32C390 26.4771 385.523 22 380 22H259Z" fill="#193E7B"/>
</mask>
<g mask="url(#mask0_10027_56014)">
<path d="M390 32C390 26.4772 385.523 22 380 22H259C248.243 22 243.271 15.6354 240.974 9.75293C238.964 4.60864 234.523 8.58837e-06 229 0H159C153.477 0 149.036 4.60863 147.026 9.75293C144.729 15.6354 139.757 22 129 22H10C4.47715 22 0 26.4772 0 32" stroke="url(#paint0_linear_10027_56014)"/>
<g filter="url(#filter6_f_10027_56014)">
<path d="M7 22H131.348C136.65 22 141.498 19.004 143.87 14.261L150.5 1L162 -3.5L0 13.5L-11.5 34.5L7 22Z" fill="url(#paint1_linear_10027_56014)" fill-opacity="0.44"/>
</g>
<g filter="url(#filter7_f_10027_56014)">
<path d="M385 22H256.652C251.35 22 246.502 19.004 244.13 14.261L237.5 1L226 -3.5L388 13.5L399.5 34.5L385 22Z" fill="url(#paint2_linear_10027_56014)" fill-opacity="0.44"/>
</g>
</g>
<g filter="url(#filter8_d_10027_56014)">
<path d="M159 1C159 0.447715 159.448 0 160 0H228C228.552 0 229 0.447715 229 1C229 1.55228 228.552 2 228 2H160C159.448 2 159 1.55228 159 1Z" fill="#E8FE5C"/>
</g>
</g>
<defs>
<filter id="filter0_d_10027_56014" x="10.3765" y="19.3931" width="19.7471" height="20.9424" filterUnits="userSpaceOnUse" color-interpolation-filters="sRGB">
<feFlood flood-opacity="0" result="BackgroundImageFix"/>
<feColorMatrix in="SourceAlpha" type="matrix" values="0 0 0 0 0 0 0 0 0 0 0 0 0 0 0 0 0 0 127 0" result="hardAlpha"/>
<feOffset dy="2"/>
<feGaussianBlur stdDeviation="4"/>
<feComposite in2="hardAlpha" operator="out"/>
<feColorMatrix type="matrix" values="0 0 0 0 0.909804 0 0 0 0 0.996078 0 0 0 0 0.360784 0 0 0 1 0"/>
<feBlend mode="normal" in2="BackgroundImageFix" result="effect1_dropShadow_10027_56014"/>
<feBlend mode="normal" in="SourceGraphic" in2="effect1_dropShadow_10027_56014" result="shape"/>
</filter>
<filter id="filter1_d_10027_56014" x="3.87646" y="19.3931" width="19.7471" height="20.9424" filterUnits="userSpaceOnUse" color-interpolation-filters="sRGB">
<feFlood flood-opacity="0" result="BackgroundImageFix"/>
<feColorMatrix in="SourceAlpha" type="matrix" values="0 0 0 0 0 0 0 0 0 0 0 0 0 0 0 0 0 0 127 0" result="hardAlpha"/>
<feOffset dy="2"/>
<feGaussianBlur stdDeviation="4"/>
<feComposite in2="hardAlpha" operator="out"/>
<feColorMatrix type="matrix" values="0 0 0 0 0.909804 0 0 0 0 0.996078 0 0 0 0 0.360784 0 0 0 1 0"/>
<feBlend mode="normal" in2="BackgroundImageFix" result="effect1_dropShadow_10027_56014"/>
<feBlend mode="normal" in="SourceGraphic" in2="effect1_dropShadow_10027_56014" result="shape"/>
</filter>
<filter id="filter2_d_10027_56014" x="-2.62354" y="19.3931" width="19.7471" height="20.9424" filterUnits="userSpaceOnUse" color-interpolation-filters="sRGB">
<feFlood flood-opacity="0" result="BackgroundImageFix"/>
<feColorMatrix in="SourceAlpha" type="matrix" values="0 0 0 0 0 0 0 0 0 0 0 0 0 0 0 0 0 0 127 0" result="hardAlpha"/>
<feOffset dy="2"/>
<feGaussianBlur stdDeviation="4"/>
<feComposite in2="hardAlpha" operator="out"/>
<feColorMatrix type="matrix" values="0 0 0 0 0.909804 0 0 0 0 0.996078 0 0 0 0 0.360784 0 0 0 1 0"/>
<feBlend mode="normal" in2="BackgroundImageFix" result="effect1_dropShadow_10027_56014"/>
<feBlend mode="normal" in="SourceGraphic" in2="effect1_dropShadow_10027_56014" result="shape"/>
</filter>
<filter id="filter3_d_10027_56014" x="359.376" y="19.3931" width="19.7471" height="20.9424" filterUnits="userSpaceOnUse" color-interpolation-filters="sRGB">
<feFlood flood-opacity="0" result="BackgroundImageFix"/>
<feColorMatrix in="SourceAlpha" type="matrix" values="0 0 0 0 0 0 0 0 0 0 0 0 0 0 0 0 0 0 127 0" result="hardAlpha"/>
<feOffset dy="2"/>
<feGaussianBlur stdDeviation="4"/>
<feComposite in2="hardAlpha" operator="out"/>
<feColorMatrix type="matrix" values="0 0 0 0 0.909804 0 0 0 0 0.996078 0 0 0 0 0.360784 0 0 0 1 0"/>
<feBlend mode="normal" in2="BackgroundImageFix" result="effect1_dropShadow_10027_56014"/>
<feBlend mode="normal" in="SourceGraphic" in2="effect1_dropShadow_10027_56014" result="shape"/>
</filter>
<filter id="filter4_d_10027_56014" x="365.876" y="19.3931" width="19.7471" height="20.9424" filterUnits="userSpaceOnUse" color-interpolation-filters="sRGB">
<feFlood flood-opacity="0" result="BackgroundImageFix"/>
<feColorMatrix in="SourceAlpha" type="matrix" values="0 0 0 0 0 0 0 0 0 0 0 0 0 0 0 0 0 0 127 0" result="hardAlpha"/>
<feOffset dy="2"/>
<feGaussianBlur stdDeviation="4"/>
<feComposite in2="hardAlpha" operator="out"/>
<feColorMatrix type="matrix" values="0 0 0 0 0.909804 0 0 0 0 0.996078 0 0 0 0 0.360784 0 0 0 1 0"/>
<feBlend mode="normal" in2="BackgroundImageFix" result="effect1_dropShadow_10027_56014"/>
<feBlend mode="normal" in="SourceGraphic" in2="effect1_dropShadow_10027_56014" result="shape"/>
</filter>
<filter id="filter5_d_10027_56014" x="372.376" y="19.3931" width="19.7471" height="20.9424" filterUnits="userSpaceOnUse" color-interpolation-filters="sRGB">
<feFlood flood-opacity="0" result="BackgroundImageFix"/>
<feColorMatrix in="SourceAlpha" type="matrix" values="0 0 0 0 0 0 0 0 0 0 0 0 0 0 0 0 0 0 127 0" result="hardAlpha"/>
<feOffset dy="2"/>
<feGaussianBlur stdDeviation="4"/>
<feComposite in2="hardAlpha" operator="out"/>
<feColorMatrix type="matrix" values="0 0 0 0 0.909804 0 0 0 0 0.996078 0 0 0 0 0.360784 0 0 0 1 0"/>
<feBlend mode="normal" in2="BackgroundImageFix" result="effect1_dropShadow_10027_56014"/>
<feBlend mode="normal" in="SourceGraphic" in2="effect1_dropShadow_10027_56014" result="shape"/>
</filter>
<filter id="filter6_f_10027_56014" x="-16.5" y="-8.5" width="183.5" height="48" filterUnits="userSpaceOnUse" color-interpolation-filters="sRGB">
<feFlood flood-opacity="0" result="BackgroundImageFix"/>
<feBlend mode="normal" in="SourceGraphic" in2="BackgroundImageFix" result="shape"/>
<feGaussianBlur stdDeviation="2.5" result="effect1_foregroundBlur_10027_56014"/>
</filter>
<filter id="filter7_f_10027_56014" x="221" y="-8.5" width="183.5" height="48" filterUnits="userSpaceOnUse" color-interpolation-filters="sRGB">
<feFlood flood-opacity="0" result="BackgroundImageFix"/>
<feBlend mode="normal" in="SourceGraphic" in2="BackgroundImageFix" result="shape"/>
<feGaussianBlur stdDeviation="2.5" result="effect1_foregroundBlur_10027_56014"/>
</filter>
<filter id="filter8_d_10027_56014" x="151" y="-8" width="86" height="18" filterUnits="userSpaceOnUse" color-interpolation-filters="sRGB">
<feFlood flood-opacity="0" result="BackgroundImageFix"/>
<feColorMatrix in="SourceAlpha" type="matrix" values="0 0 0 0 0 0 0 0 0 0 0 0 0 0 0 0 0 0 127 0" result="hardAlpha"/>
<feOffset/>
<feGaussianBlur stdDeviation="4"/>
<feComposite in2="hardAlpha" operator="out"/>
<feColorMatrix type="matrix" values="0 0 0 0 0.909804 0 0 0 0 0.996078 0 0 0 0 0.360784 0 0 0 0.4 0"/>
<feBlend mode="normal" in2="BackgroundImageFix" result="effect1_dropShadow_10027_56014"/>
<feBlend mode="normal" in="SourceGraphic" in2="effect1_dropShadow_10027_56014" result="shape"/>
</filter>
<linearGradient id="paint0_linear_10027_56014" x1="0" y1="16" x2="390" y2="16" gradientUnits="userSpaceOnUse">
<stop stop-color="white" stop-opacity="0"/>
<stop offset="0.4375" stop-color="white" stop-opacity="0.41"/>
<stop offset="1" stop-color="white" stop-opacity="0"/>
</linearGradient>
<linearGradient id="paint1_linear_10027_56014" x1="148" y1="12.75" x2="-14.5" y2="12.75" gradientUnits="userSpaceOnUse">
<stop stop-color="white"/>
<stop offset="1" stop-color="white" stop-opacity="0.4"/>
</linearGradient>
<linearGradient id="paint2_linear_10027_56014" x1="240" y1="12.75" x2="402.5" y2="12.75" gradientUnits="userSpaceOnUse">
<stop stop-color="white"/>
<stop offset="1" stop-color="white" stop-opacity="0.4"/>
</linearGradient>
<clipPath id="clip0_10027_56014">
<rect width="390" height="91" fill="white"/>
</clipPath>
</defs>
</svg>
