<svg width="390" height="84" viewBox="0 0 390 84" fill="none" xmlns="http://www.w3.org/2000/svg">
<g clip-path="url(#clip0_12428_41245)">
<path d="M270.75 1.07837H390V89.8186H0V1.07837H120L141.202 1.00024C149.779 0.968516 157.265 6.67859 159.562 14.8538C165.119 29.1953 179.113 39.3723 195.5 39.3723C211.868 39.3723 225.848 29.2187 231.418 14.9036C233.698 6.70255 241.197 0.968297 249.792 1.00024L270.75 1.07837Z" fill="#160B2C"/>
<mask id="path-2-outside-1_12428_41245" maskUnits="userSpaceOnUse" x="-1" y="-0.999512" width="392" height="92" fill="black">
<rect fill="white" x="-1" y="-0.999512" width="392" height="92"/>
<path d="M270.75 1.07861H390V89.8188H0V1.07861H120L141.202 1.00049C149.78 0.968759 157.265 6.67865 159.562 14.854C165.119 29.1955 179.113 39.3726 195.5 39.3726C211.868 39.3726 225.848 29.2188 231.418 14.9038C233.698 6.70262 241.196 0.96854 249.792 1.00049L270.75 1.07861Z"/>
</mask>
<path d="M270.75 1.07861L270.746 2.07861H270.75V1.07861ZM390 1.07861H391V0.0786133H390V1.07861ZM390 89.8188V90.8188H391V89.8188H390ZM0 89.8188H-1V90.8188H0V89.8188ZM0 1.07861V0.0786133H-1V1.07861H0ZM120 1.07861V2.07862L120.004 2.07861L120 1.07861ZM141.202 1.00049L141.206 2.00048L141.206 2.00048L141.202 1.00049ZM159.562 14.854L158.599 15.1244L158.612 15.1706L158.629 15.2153L159.562 14.854ZM231.418 14.9038L232.35 15.2664L232.368 15.2198L232.381 15.1716L231.418 14.9038ZM249.792 1.00049L249.796 0.000495255V0.000495195L249.792 1.00049ZM270.75 1.07861V2.07861H390V1.07861V0.0786133H270.75V1.07861ZM390 1.07861H389V89.8188H390H391V1.07861H390ZM390 89.8188V88.8188H0V89.8188V90.8188H390V89.8188ZM0 89.8188H1V1.07861H0H-1V89.8188H0ZM0 1.07861V2.07861H120V1.07861V0.0786133H0V1.07861ZM120 1.07861L120.004 2.07861L141.206 2.00048L141.202 1.00049L141.198 0.000495076L119.996 0.0786201L120 1.07861ZM141.202 1.00049L141.206 2.00048C149.332 1.97042 156.423 7.37973 158.599 15.1244L159.562 14.854L160.524 14.5836C158.107 5.97756 150.228 -0.032905 141.198 0.000495136L141.202 1.00049ZM159.562 14.854L158.629 15.2153C164.332 29.9316 178.689 40.3726 195.5 40.3726V39.3726V38.3726C179.537 38.3726 165.906 28.4594 160.494 14.4927L159.562 14.854ZM195.5 39.3726V40.3726C212.291 40.3726 226.634 29.9555 232.35 15.2664L231.418 14.9038L230.486 14.5412C225.061 28.4821 211.445 38.3726 195.5 38.3726V39.3726ZM231.418 14.9038L232.381 15.1716C234.541 7.40247 241.645 1.97022 249.788 2.00048L249.792 1.00049L249.796 0.000495195C240.747 -0.0331349 232.854 6.00277 230.454 14.636L231.418 14.9038ZM249.792 1.00049L249.788 2.00048L270.746 2.07861L270.75 1.07861L270.754 0.0786203L249.796 0.000495255L249.792 1.00049Z" fill="url(#paint0_linear_12428_41245)" mask="url(#path-2-outside-1_12428_41245)"/>
</g>
<defs>
<linearGradient id="paint0_linear_12428_41245" x1="0" y1="46.5933" x2="390" y2="46.5933" gradientUnits="userSpaceOnUse">
<stop stop-color="#160B2C"/>
<stop offset="0.504089" stop-color="#866DFF"/>
<stop offset="1" stop-color="#160B2C"/>
</linearGradient>
<clipPath id="clip0_12428_41245">
<rect width="390" height="84" fill="white"/>
</clipPath>
</defs>
</svg>
