<svg width="20" height="20" viewBox="0 0 20 20" fill="none" xmlns="http://www.w3.org/2000/svg">
<path d="M17.4707 2.30957H15.0537V1.87012C15.0537 1.54053 14.7241 1.21094 14.3945 1.21094C14.0649 1.21094 13.7354 1.54053 13.7354 1.87012V2.30957H6.37451V1.87012C6.37451 1.54053 6.04492 1.21094 5.71533 1.21094C5.38574 1.21094 5.05615 1.54053 5.05615 1.87012V2.30957H2.5293C1.87012 2.30957 1.21094 2.85889 1.21094 3.62793V17.3608C1.21094 18.1299 1.87012 18.7891 2.5293 18.7891H17.3608C18.1299 18.7891 18.6792 18.1299 18.6792 17.4707V3.62793C18.7891 2.85889 18.1299 2.30957 17.4707 2.30957ZM17.4707 17.4707H2.5293V6.48438H17.3608V17.4707H17.4707ZM17.4707 5.05615H2.5293V3.62793H4.94629V3.73779C4.94629 4.06738 5.27588 4.39697 5.60547 4.39697C5.93506 4.39697 6.26465 4.06738 6.26465 3.73779V3.62793H13.5156V3.73779C13.5156 4.06738 13.8452 4.39697 14.1748 4.39697C14.5044 4.39697 14.834 4.06738 14.834 3.73779V3.62793H17.251V5.05615H17.4707Z" fill="currentColor" fill-opacity="0.4"/>
<path d="M5.71582 11.0986H7.03418C7.47363 11.0986 7.80322 10.769 7.80322 10.4395C7.80322 10.1099 7.47363 9.67041 7.14404 9.67041H5.71582C5.38623 9.67041 5.05664 10 5.05664 10.4395C5.05664 10.8789 5.38623 11.0986 5.71582 11.0986ZM9.34131 11.0986H10.6597C11.0991 11.0986 11.3188 10.769 11.3188 10.4395C11.3188 10.1099 11.0991 9.67041 10.6597 9.67041H9.34131C8.90186 9.67041 8.68213 10 8.68213 10.4395C8.68213 10.8789 8.90186 11.0986 9.34131 11.0986ZM12.8569 11.0986H14.1753C14.5049 11.0986 14.8345 10.769 14.8345 10.4395C14.8345 10.1099 14.5049 9.78027 14.1753 9.78027H12.8569C12.5273 9.67041 12.1978 10 12.1978 10.4395C12.1978 10.8789 12.5273 11.0986 12.8569 11.0986ZM5.71582 14.7241H7.03418C7.47363 14.7241 7.80322 14.3945 7.80322 13.9551C7.80322 13.5156 7.47363 13.2959 7.14404 13.2959H5.71582C5.38623 13.2959 5.05664 13.6255 5.05664 13.9551C5.05664 14.2847 5.38623 14.7241 5.71582 14.7241ZM9.34131 14.7241H10.6597C10.9893 14.7241 11.3188 14.3945 11.3188 14.0649C11.3188 13.7354 11.0991 13.2959 10.6597 13.2959H9.34131C9.01172 13.2959 8.68213 13.6255 8.68213 13.9551C8.68213 14.2847 8.90186 14.7241 9.34131 14.7241Z" fill="currentColor" fill-opacity="0.4"/>
</svg>
