<?xml version="1.0" standalone="no"?><!DOCTYPE svg PUBLIC "-//W3C//DTD SVG 1.1//EN" "http://www.w3.org/Graphics/SVG/1.1/DTD/svg11.dtd"><svg t="1641275032940" class="icon" viewBox="0 0 1024 1024" version="1.1" xmlns="http://www.w3.org/2000/svg" p-id="2687" xmlns:xlink="http://www.w3.org/1999/xlink" width="64" height="64"><defs><style type="text/css"></style></defs><path d="M496.4833795 496.48275898m-372.41379317 0a372.41379317 372.41379317 0 1 0 744.82758633 0 372.41379317 372.41379317 0 1 0-744.82758633 0Z" fill="#FFFFFF" p-id="2688"></path><path d="M511.87648291 62h0.24827607C760.24544786 62 962.00062051 263.84827607 962.00062051 512S760.21441367 962 512.12475898 962c-91.52068974 0-176.4-27.24827607-247.5-74.32758633L91.63855215 942.94482734l56.04827519-167.21379316A446.71034443 446.71034443 0 0 1 62.0006205 512C62.0006205 263.84827607 263.78682734 62 511.87648291 62z m-128.73103506 247.34482734c-8.59655214-20.48275898-15.11379317-21.28965557-28.11724101-21.81724101a250.94482734 250.94482734 0 0 0-14.8655171-0.52758633c-16.94482734 0-34.63448291 4.96551709-45.37241367 15.85862051-12.94137949 13.25172393-45.31034443 44.13103417-45.31034531 107.62758633 0 63.40344785 46.39655215 124.7586205 52.63448291 133.35517266 6.51724102 8.53448291 90.43448291 140.61724102 220.68620683 194.43103417 101.88620683 42.11379316 132.11379316 38.20344785 155.32758633 33.26896583 33.85862051-7.29310342 76.31379316-32.2758624 86.98965557-62.37931026 10.70689658-30.16551709 10.70689658-55.89310342 7.57241367-61.38620684-3.13448291-5.43103418-11.73103418-8.53448291-24.73448291-15.0517248-13.03448291-6.51724102-76.34482734-37.70689658-88.35517266-41.86551709-11.73103418-4.3758624-22.90344786-2.85517266-31.74827607 9.62068975-12.53793076 17.41034443-24.76551709 35.13103418-34.69655127 45.7758624-7.78965557 8.31724102-20.60689658 9.37241367-31.25172392 4.96551708-14.30689658-6.02068974-54.43448291-20.04827607-103.9655171-63.99310341-38.29655215-34.04482734-64.36551709-76.43793076-71.90689657-89.13103418-7.57241367-13.03448291-0.7758624-20.54482734 5.21379228-27.55862139 6.51724102-8.06896583 12.75517266-13.77931026 19.27241455-21.32068974 6.51724102-7.54137949 10.14827607-11.42068974 14.33793076-20.26551709 4.40689658-8.59655214 1.30344785-17.44137949-1.86206923-23.92758633-3.10344786-6.51724102-29.17241367-69.95172393-39.84827608-95.6482752z" fill="#25D366" p-id="2689"></path></svg>