<svg xmlns="http://www.w3.org/2000/svg" style="display: none;">

  <symbol id="ONE_API_HOT" width="16" height="16" viewBox="0 0 16 16">
    <path fill-rule="evenodd" clip-rule="evenodd" d="M6.62692 0C7.70134 0 7.16157 1.21267 7.70134 2.62493C8.2411 4.0372 9.01199 4.97562 9.32756 5.0258C9.94449 5.12389 10.0009 3.12476 10.2747 3.05631C10.678 2.95543 11.0516 3.47771 12.1536 5.0258C14.7807 8.71657 13.3889 14.6599 7.70134 15.0821C2.01374 15.5043 0.00538456 11.249 1.14647 7.19492C1.757 5.0258 2.53017 3.85509 3.72664 2.37089C4.00788 2.02202 5.55251 0 6.62692 0ZM6.77121 8.37892C5.2828 10.0684 4.75272 11.5528 5.18095 12.832C5.82329 14.7508 8.52862 14.5832 9.1167 13.1163C9.56579 11.7069 8.61482 9.92824 8.61482 10.2665C8.61482 10.6047 8.41368 10.944 7.86833 10.7263C7.50476 10.5812 7.13905 9.79875 6.77121 8.37892Z" fill="currentColor"/>
  </symbol>

  <symbol id="ELECTRONIC" width="16" height="16" viewBox="0 0 16 16">
    <path d="M11.4198 2C12.1497 2 12.8012 2.90034 13.227 4.30929L13.2324 4.30875L13.3001 4.56954C13.839 6.7809 13.8016 9.89368 13.069 12.6071C12.6481 13.7423 12.0643 14.4446 11.4193 14.4446L11.3798 14.4419L11.3803 14.4446L4.55149 14.4403C3.94873 14.3797 3.40496 13.7044 3.00511 12.6423L2.99915 12.6418C2.4175 9.92398 2.38666 6.69541 2.81194 4.46674L2.86876 4.18917H2.87146C3.28971 2.87437 3.90924 2.03138 4.60235 2.00108V2H11.4198ZM2.57279 4.18863C2.1632 5.57215 1.97437 7.00599 2.00791 8.48906C2.03821 9.86663 2.24761 11.1831 2.6361 12.4383L2.70102 12.6402H2.31254C1.73305 12.6402 1.28937 11.7658 1.05292 10.5186C0.438267 10.2021 0 9.37371 0 8.40195C0 7.44317 0.426364 6.62507 1.02749 6.29827C1.25691 5.03595 1.71195 4.18809 2.31362 4.18809H2.57387L2.57279 4.18863ZM13.7551 4.30983C14.3184 4.38125 14.8048 5.16039 15.0683 6.35724C15.6191 6.71435 16 7.4962 16 8.40195C16 9.29363 15.631 10.0652 15.0953 10.4304C14.8529 11.63 14.3909 12.4394 13.8471 12.5828L13.7556 12.6001L13.7546 12.6061L13.3423 12.6066L13.438 12.3604C13.8639 11.2052 14.1046 9.94779 14.1587 8.58808C14.2183 7.10121 14.0013 5.67549 13.5073 4.30929L13.7551 4.30983ZM6.67248 5.76152L6.48365 5.83403L6.20554 5.9601C6.12871 5.97525 6.08272 5.93088 6.06703 5.82699C6.05133 5.72311 5.98208 5.66846 5.85925 5.66413C5.62822 5.66413 5.43722 5.67495 5.2868 5.69714C5.15749 5.71553 5.09093 5.77884 5.08606 5.88597L5.08877 5.94332L5.02655 7.79108C5.01897 7.86575 5.02655 7.92094 5.04981 7.95773C5.0655 7.98262 5.08823 7.99831 5.11745 8.00642L5.16723 8.01184L5.88468 7.99723C5.92635 8.01021 5.96206 8.00372 5.99398 7.97775C6.01454 7.96098 6.03348 7.93446 6.05025 7.90038L6.07298 7.84248L6.16767 7.67854C6.25478 7.52595 6.37057 7.41936 6.51449 7.3593C6.63461 7.30953 6.79693 7.30141 7.00254 7.33442L7.13131 7.3593L8.17179 7.65852C8.43746 7.70072 8.70096 7.70072 8.96175 7.65852C9.22255 7.61631 9.46549 7.5292 9.69058 7.39826C9.61212 7.49241 9.49741 7.59954 9.347 7.71803C9.19658 7.83653 9.00883 7.96801 8.78537 8.11139C8.64469 8.18173 8.49806 8.26289 8.34547 8.35596C8.19289 8.44902 8.03436 8.55345 7.87041 8.66924C7.69781 8.8018 7.5474 8.93653 7.42078 9.07396C7.29417 9.21139 7.19029 9.35044 7.10967 9.49166C7.0047 9.65831 6.92138 9.85148 6.8624 10.0706C6.80342 10.2897 6.76663 10.5359 6.7531 10.8081C6.74391 10.8801 6.75473 10.9336 6.78503 10.9688C6.80775 10.9953 6.84184 11.0104 6.88729 11.0159L6.93653 11.0175L9.45575 11.0224C9.57046 11.0337 9.65 11.0288 9.69436 11.0083C9.72791 10.9931 9.74252 10.9677 9.73711 10.9342L9.7252 10.8974L9.68192 10.6631C9.66244 10.504 9.65378 10.3265 9.65649 10.1307C9.65919 9.9348 9.67218 9.72 9.69707 9.48679C9.72358 9.28498 9.762 9.08694 9.81123 8.89432C9.86047 8.7017 9.92053 8.51341 9.99087 8.32999C10.0634 8.12979 10.1445 7.93176 10.2344 7.73751C10.3242 7.54327 10.4232 7.35173 10.5298 7.16344C10.5909 7.03737 10.6786 6.88966 10.7933 6.7203C10.908 6.55095 11.0492 6.36049 11.2169 6.14839C11.2559 6.10835 11.2754 6.07264 11.2754 6.04234C11.2754 6.02178 11.2667 6.00284 11.2499 5.98607L11.218 5.9628L11.066 5.89192L10.7532 5.69768C10.71 5.66792 10.6732 5.6571 10.6407 5.66359C10.6082 5.67008 10.5817 5.69497 10.5606 5.73772C10.5222 5.78858 10.4724 5.83078 10.4097 5.86324C10.3469 5.89571 10.2722 5.91843 10.1851 5.9325C10.0672 5.95198 9.94975 5.96226 9.8318 5.96334C9.71384 5.96442 9.59589 5.95577 9.4774 5.93737C8.93578 5.83186 8.42826 5.73555 7.95536 5.64844C7.54144 5.57215 7.11508 5.61056 6.67627 5.76261H6.67357L6.67248 5.76152Z" fill="currentColor"/>
  </symbol>

  <symbol id="CHESS" width="16" height="16" viewBox="0 0 16 16">
    <g clip-path="url(#clip0_1567_308)">
      <path d="M11.9659 8.99163C11.9819 8.99053 11.999 9.00046 12.0156 9.00487C12.0095 9.02032 12.0045 9.03687 11.9962 9.05121L11.9014 9.20733C11.8859 9.23381 11.8716 9.26029 11.8589 9.28787C11.8098 9.39269 11.8578 9.48868 11.9703 9.51184C12.1474 9.54825 12.325 9.58135 12.5032 9.60618C12.5628 9.61445 12.6301 9.60618 12.6847 9.58411C12.8618 9.5135 12.9843 9.37779 13.0841 9.21836C13.1316 9.14223 13.1531 9.13506 13.2353 9.17202C13.4912 9.28622 13.7069 9.45447 13.8785 9.68176C13.8967 9.70603 13.921 9.72534 13.9419 9.7474L14.562 10.6008C14.5774 10.6301 14.5918 10.6598 14.6083 10.6885C14.6839 10.8165 14.6795 10.9517 14.6646 11.0879C14.6646 11.0901 14.658 11.0912 14.6481 11.0951C14.6326 11.0763 14.6155 11.0565 14.6001 11.0355C14.4655 10.8513 14.3309 10.6676 14.1985 10.4817C14.1659 10.4359 14.135 10.4221 14.0865 10.4497C14.0545 10.4679 14.017 10.4772 13.9817 10.4899C13.8961 10.5208 13.8068 10.544 13.7262 10.5837C13.5707 10.6604 13.4736 10.7856 13.4482 10.9677C13.4283 11.1083 13.403 11.2474 13.3748 11.3864C13.3461 11.5276 13.414 11.6274 13.5481 11.6335C13.5602 11.6341 13.5729 11.6346 13.5839 11.6319C13.6744 11.6092 13.7632 11.5817 13.8548 11.5646C13.9083 11.5546 13.9668 11.5513 14.0197 11.5635C14.0445 11.569 14.0622 11.6181 14.0832 11.6479L14.0903 11.6578C14.1951 11.799 14.2978 11.9413 14.4059 12.0798C14.4528 12.1399 14.4555 12.1945 14.4274 12.2569C14.3954 12.3275 14.3651 12.3992 14.3353 12.4715C14.2299 12.7258 14.0992 12.9647 13.9508 13.1936C13.6882 13.5985 13.377 13.9598 13.0334 14.2936C12.9743 14.351 12.9644 14.351 12.9142 14.2809C12.7211 14.0106 12.5297 13.7392 12.335 13.47C12.3173 13.4457 12.2842 13.4275 12.255 13.4176C12.1297 13.3751 12.0249 13.4264 11.9306 13.4926C11.6928 13.6592 11.4589 13.8302 11.2256 14.0034C11.1776 14.0393 11.1318 14.084 11.0998 14.1347C11.0612 14.1971 11.0331 14.2737 11.0728 14.3493C11.1136 14.4266 11.166 14.4983 11.2179 14.5683C11.3767 14.784 11.5373 14.9981 11.6972 15.2121C11.7199 15.2424 11.7177 15.2634 11.6846 15.2805C11.6057 15.3208 11.5279 15.3633 11.449 15.4041C11.1737 15.5475 10.8858 15.6639 10.5901 15.7605C10.1658 15.8995 9.72673 15.9756 9.27603 15.9999C9.24569 16.0015 9.20541 15.9866 9.18335 15.9657C9.13866 15.9232 9.10115 15.8724 9.06529 15.8222C8.97096 15.6893 8.87718 15.5563 8.78781 15.4201C8.77402 15.3991 8.77181 15.3594 8.78119 15.3368C8.7845 15.3285 8.79609 15.3208 8.80877 15.3153L8.83746 15.2706L8.87111 15.2099C8.87111 15.2094 8.87166 15.2088 8.87166 15.2082L8.87222 15.1983C8.87552 15.1895 8.87773 15.1823 8.8838 15.1757L8.88766 15.1718C8.89097 15.1625 8.89538 15.1542 8.902 15.1481L8.90862 15.1448L8.92462 15.1056L8.93345 15.093L8.94117 15.0654C8.94228 15.0626 8.94338 15.0599 8.94559 15.0576L8.95386 15.0356C8.95551 15.0317 8.95772 15.029 8.95993 15.0268C8.96103 15.019 8.96655 15.0052 8.97482 14.9887C9.00682 14.9247 8.99303 14.8618 8.97868 14.7973C8.97593 14.784 8.96213 14.7669 8.94945 14.762C8.88104 14.7333 8.81098 14.7167 8.73982 14.7057L8.63224 14.6919C8.56053 14.6836 8.48881 14.6726 8.41765 14.6621C8.35586 14.6533 8.29298 14.6318 8.2334 14.6362C8.06514 14.6489 7.93495 14.7366 7.83014 14.8613C7.77166 14.9308 7.72256 15.0085 7.6674 15.0808C7.60671 15.1597 7.60506 15.1591 7.66629 15.243C7.80145 15.4289 7.93716 15.6148 8.07231 15.8013C8.085 15.8184 8.09272 15.8388 8.10265 15.8581L8.09272 15.8719C8.0668 15.8636 8.04142 15.8537 8.01549 15.8471C7.93826 15.8278 7.86048 15.8101 7.78269 15.7919L6.94859 14.6439C6.90501 14.5435 6.86639 14.4409 6.8173 14.3433C6.74337 14.196 6.71745 14.0409 6.70145 13.8832C6.69593 13.8319 6.72407 13.8137 6.76765 13.8004C6.86805 13.7701 6.97562 13.7497 7.06333 13.6978C7.21394 13.6079 7.35737 13.502 7.36619 13.294C7.36674 13.2824 7.37557 13.2719 7.37723 13.2598C7.40591 13.0904 7.44729 12.9222 7.42963 12.7462C7.42688 12.7159 7.39929 12.6784 7.37281 12.6596C7.29393 12.6044 7.21063 12.6204 7.12953 12.6458C7.06609 12.6657 7.0021 12.6839 6.93866 12.7026L6.92376 12.6861C6.93645 12.6563 6.94914 12.6265 6.96238 12.5973C7.02251 12.4649 7.07823 12.3303 7.14443 12.2012C7.19904 12.0953 7.26359 11.9949 7.32813 11.895C7.41474 11.7604 7.50245 11.6258 7.59568 11.4962C7.65526 11.4129 7.72256 11.334 7.79207 11.2584C7.95481 11.0808 8.11755 10.9031 8.28636 10.731C8.37076 10.6449 8.37241 10.6538 8.45682 10.7498C8.49433 10.7922 8.55005 10.8402 8.5997 10.8452C8.72106 10.8573 8.83029 10.8121 8.92738 10.7404C9.05095 10.6488 9.17949 10.5633 9.30085 10.4679C9.42994 10.3664 9.58385 10.293 9.67708 10.1474C9.72783 10.0679 9.77141 9.98792 9.71294 9.88807C9.69529 9.85773 9.67432 9.82905 9.65336 9.80091C9.62798 9.76726 9.62743 9.74133 9.66494 9.72147C9.70356 9.70162 9.74162 9.68065 9.77969 9.65969C10.2138 9.42468 10.6695 9.24043 11.1528 9.12072C11.4192 9.05452 11.6917 9.01701 11.967 8.99494L11.9659 8.99163ZM7.4677 0.0492859L14.6712 2.11469C15.336 2.30501 15.7199 2.99844 15.5296 3.66319L14.0528 8.81455C12.8463 7.88722 10.5857 8.10623 8.60466 9.44234C6.38093 10.9423 5.33003 13.2962 6.19834 14.7708L6.21489 14.7973L3.46488 14.0089C2.80013 13.8186 2.41618 13.1252 2.6065 12.4604L5.9192 0.907111C6.10952 0.242366 6.80295 -0.141587 7.4677 0.0487343V0.0492859ZM10.552 10.1303C9.84975 10.3862 9.24624 10.7933 8.73099 11.3296C8.42206 11.6512 8.16278 12.0108 7.99122 12.4323C7.87261 12.7236 7.79924 13.0259 7.84282 13.353C7.87427 13.5853 7.96474 13.7916 8.13355 13.9621C8.32332 14.154 8.55612 14.2522 8.80933 14.2986C9.233 14.3763 9.64122 14.3179 10.0384 14.1976C10.5321 14.0476 10.984 13.8148 11.4016 13.5152C11.5461 13.3955 11.6956 13.2824 11.8335 13.1555C12.159 12.856 12.4442 12.5195 12.6599 12.1261C12.8315 11.8134 12.9567 11.4818 12.9622 11.11C12.9683 10.667 12.7939 10.3189 12.3912 10.0988C12.2086 9.99896 12.0117 9.95372 11.8103 9.93607C11.3707 9.898 10.9547 9.98296 10.5526 10.1297L10.552 10.1303ZM11.8683 10.2621C12.1104 10.3151 12.3245 10.4221 12.4767 10.6372C12.6235 10.8441 12.6571 11.073 12.634 11.3108C12.6042 11.6214 12.4867 11.8972 12.3311 12.1559C12.0564 12.6133 11.6884 12.9796 11.2278 13.3161C10.7975 13.6228 10.2927 13.8749 9.71845 13.9775C9.46911 14.0222 9.217 14.031 8.96214 13.9747C8.43917 13.8594 8.15175 13.4628 8.20471 12.9299C8.2356 12.6193 8.352 12.3435 8.50647 12.0848C8.74589 11.6832 9.05978 11.35 9.42222 11.0648C9.88506 10.7007 10.3948 10.4243 10.9773 10.2891C11.2692 10.2218 11.5654 10.1953 11.8683 10.2621ZM5.02386 0.721203L2.14697 11.4608C2.14201 11.4802 2.13704 11.4989 2.13318 11.5182C2.0885 11.4327 2.05264 11.3395 2.02837 11.2407L0.0374395 3.25441C-0.129712 2.58359 0.278513 1.90451 0.949327 1.7368L5.02496 0.721203H5.02386ZM2.15028 2.64979C1.9401 2.65697 1.75254 2.70827 1.58759 2.80315C1.42265 2.89804 1.29577 3.02602 1.2053 3.18656C1.11482 3.34709 1.07345 3.52638 1.08007 3.72332C1.08614 3.89599 1.12917 4.05266 1.20916 4.19443C1.28915 4.33621 1.39782 4.4515 1.53574 4.54142C1.67365 4.63134 1.82922 4.68761 2.00299 4.71023C2.11884 4.82387 2.2231 4.91158 2.31523 4.97392C2.40735 5.03626 2.49893 5.07984 2.58885 5.10522C2.67877 5.13059 2.77917 5.14107 2.88895 5.13721C3.00259 5.13335 3.10685 5.10853 3.20064 5.06219C3.29442 5.01585 3.37386 4.9513 3.4373 4.86745L3.18243 4.58611C3.09637 4.6821 2.99763 4.7323 2.88619 4.73616C2.84261 4.73781 2.80179 4.73064 2.76428 4.71464C2.72676 4.69864 2.68815 4.67106 2.64898 4.63024C2.85309 4.54915 3.01307 4.42061 3.12947 4.24463C3.24587 4.06865 3.29993 3.86895 3.29221 3.64553C3.28559 3.44859 3.23153 3.27261 3.13002 3.1187C3.02852 2.96479 2.89281 2.84618 2.7218 2.76288C2.55079 2.67958 2.36046 2.64152 2.14973 2.64924L2.15028 2.64979ZM7.09092 1.31975L6.21764 4.17623L7.01755 4.42061L7.236 3.70622L7.6365 3.47617L8.13575 4.76208L9.07412 5.04895L8.33214 3.08174L9.88616 2.17371L8.99634 1.90175L7.52728 2.7513L7.89027 1.56358L7.09036 1.3192L7.09092 1.31975ZM2.16628 3.11594C2.26668 3.11263 2.35826 3.13304 2.44156 3.17773C2.52486 3.22241 2.59161 3.28696 2.64181 3.37136C2.69201 3.45576 2.71959 3.55396 2.72345 3.66594C2.72732 3.77793 2.7069 3.87778 2.66277 3.96549C2.61864 4.05321 2.5563 4.12272 2.47631 4.17292C2.39632 4.22312 2.3064 4.25015 2.206 4.25346C2.1056 4.25677 2.01402 4.23636 1.93072 4.19167C1.84742 4.14699 1.78067 4.08245 1.73047 3.99804C1.68027 3.91364 1.65269 3.81544 1.64883 3.70346C1.64497 3.59147 1.66538 3.49162 1.70951 3.40391C1.75364 3.31619 1.81598 3.24669 1.89597 3.19649C1.97596 3.14628 2.06588 3.11925 2.16628 3.11594Z" fill="currentColor"/>
    </g>
    <defs>
      <clipPath id="clip0_1567_308">
        <rect width="16" height="16" fill="white"/>
      </clipPath>
    </defs>
  </symbol>

  <symbol id="FISHING" width="16" height="16" viewBox="0 0 16 16">
    <path d="M5.26589 2.42331C5.17721 1.36396 4.89432 0.826453 3.84629 0.00182369C3.84555 0.00123601 3.84597 3.69351e-06 3.84692 5.58835e-06C6.12649 0.0045506 7.2029 0.515519 8.82062 2.1815C8.82082 2.1817 8.8211 2.18181 8.82138 2.18181C12.1124 2.09118 13.6783 2.47492 15.6933 4.36307C15.6936 4.36339 15.6937 4.36394 15.6934 4.36434C15.0089 5.474 14.3903 5.84763 13.0885 6.30247C13.0878 6.30272 13.0871 6.30207 13.0872 6.30132C13.2928 5.03063 12.2581 4.8257 9.53997 4.84842C9.5388 4.84843 9.53861 4.85015 9.53975 4.85043C11.9211 5.44262 12.5952 5.8551 12.1391 6.78748C12.139 6.78773 12.1388 6.78793 12.1385 6.78801C10.2669 7.36206 9.23676 7.68388 8.34976 8.24065C8.34892 8.24118 8.34932 8.24248 8.35031 8.2425C8.83673 8.25301 9.10235 8.22743 9.53082 8.00059C9.53138 8.00029 9.5321 8.0006 9.53227 8.00122C9.83734 9.08185 9.69886 9.45517 9.53223 10.1805C9.53208 10.1811 9.53133 10.1815 9.53074 10.1811L7.39963 8.97008C7.39923 8.96986 7.39871 8.96994 7.39839 8.97026C5.5039 10.9087 6.68736 12.8471 9.76546 14.0592C9.76641 14.0596 9.76729 14.0585 9.76667 14.0577L8.82135 12.849C8.8211 12.8487 8.82108 12.8482 8.82129 12.8479C9.84453 11.113 10.6231 10.5298 12.3725 10.1825C12.3735 10.1823 12.3741 10.1836 12.3734 10.1842C10.0879 12.3736 10.143 13.6557 11.6634 15.9977C11.6639 15.9985 11.6632 15.9995 11.6623 15.9992C10.2216 15.5713 9.40041 15.3437 8.82117 14.0611C8.82103 14.0608 8.82072 14.0606 8.82038 14.0605L6.92555 13.8183C6.92518 13.8182 6.92481 13.8184 6.9246 13.8187C6.76665 14.0456 6.73408 14.2214 6.68827 14.5433C6.68814 14.5441 6.68706 14.5444 6.68649 14.5438C6.01383 13.7651 5.7251 13.2974 5.50339 12.3654C5.50321 12.3647 5.50224 12.3644 5.50169 12.3649L5.02948 12.848C5.02917 12.8483 5.02869 12.8483 5.0283 12.8481C2.18522 11.3938 1.81681 9.3675 3.60644 6.30396C3.60672 6.30346 3.60655 6.30281 3.60604 6.30255L3.1335 6.06087C3.13318 6.06071 3.13279 6.06073 3.13249 6.06092C2.4357 6.51351 2.08052 6.98324 1.47588 7.99684C1.47536 7.99771 1.474 7.99751 1.474 7.99649C1.47587 7.51005 1.86529 6.43194 2.42166 5.33397C2.42186 5.33359 2.42179 5.33313 2.42149 5.33282L1.00166 3.88049C1.00104 3.87985 1.00152 3.87879 1.00241 3.87879C3.33221 3.87698 4.56189 4.14406 6.6876 4.84837L6.68829 4.84835C8.0382 4.30827 9.07069 4.11529 11.1816 3.87983C11.1827 3.8797 11.1828 3.87794 11.1816 3.87782C9.33411 3.68604 8.29672 3.74519 6.45122 4.12116L6.4507 4.12112L4.32063 3.39485C4.31974 3.39454 4.31972 3.39329 4.3206 3.39296L6.91974 2.42618C6.92079 2.42579 6.92051 2.42424 6.91939 2.42424H5.26688C5.26636 2.42424 5.26593 2.42383 5.26589 2.42331Z" fill="currentColor"/>
  </symbol>

  <symbol id="VIDEO" width="16" height="16" viewBox="0 0 16 16">
    <path d="M8.76304 0.000571435C9.10703 0.000571435 9.38587 0.27199 9.38587 0.607407C9.38587 0.882254 9.19845 1.11367 8.94246 1.18853C9.46073 2.32277 10.1756 3.35531 11.0847 4.28556C11.1818 4.38499 11.2829 4.48784 11.3875 4.59355C13.0697 6.29863 15.5548 8.81854 14.2817 11.3996C13.5172 12.9498 11.9544 13.5292 10.1487 12.9607C9.783 12.8453 9.27616 12.5401 8.62761 12.043H8.00478C7.35623 12.5396 6.84882 12.8458 6.48312 12.9607C4.67747 13.5287 3.11524 12.9498 2.35013 11.3996C1.07646 8.8174 3.56265 6.29806 5.24488 4.59298C5.34888 4.48727 5.45001 4.38499 5.54715 4.28613C6.45455 3.35817 7.16767 2.32792 7.68708 1.19539C7.41623 1.12853 7.21738 0.890825 7.21738 0.607407C7.21738 0.272562 7.49623 0.000571435 7.84021 0.000571435C7.89736 0.000571435 7.95221 0.00799971 8.00478 0.0217135L8.00421 3.33874L8.00478 3.33817V7.1066C7.64137 7.23117 7.38137 7.56887 7.38137 7.96543C7.38137 8.46827 7.79964 8.87568 8.31563 8.87568C8.83161 8.87568 9.24931 8.46827 9.24931 7.96543C9.24931 7.56944 8.98932 7.23174 8.6259 7.1066L8.62533 3.33817L8.62647 3.33874L8.62533 0.0148567C8.66933 0.00514275 8.71504 0 8.7619 0L8.76304 0.000571435ZM8.28706 16H4.95118C4.87804 16 4.81804 15.94 4.81804 15.8669C4.81804 15.824 4.83804 15.784 4.87289 15.7589C5.39059 15.38 5.91114 14.8932 6.43512 14.2989C7.07738 13.5692 7.60079 12.8173 8.00535 12.0436H8.57047C8.97446 12.8173 9.49787 13.5692 10.1401 14.2989C10.6635 14.8938 11.1841 15.3806 11.7018 15.7589C11.7366 15.784 11.7566 15.824 11.7566 15.8669C11.7566 15.9406 11.6978 16 11.6235 16H8.28763H8.28706Z" fill="currentColor"/>
  </symbol>

  <symbol id="SPORTS" width="16" height="16" viewBox="0 0 16 16">
    <g clip-path="url(#clip0_1567_305)">
      <path d="M16 8.00087C16 12.4186 12.4184 16 8 16C3.58158 16 0 12.4186 0 8.00087C0 7.26914 0.0981093 6.56063 0.282064 5.88755C0.183955 6.36783 0.132564 6.86843 0.132564 7.38528C0.132564 8.15825 0.247609 8.91322 0.461348 9.62985C0.81933 10.0062 1.95752 10.9708 2.56311 11.4731C2.5088 12.339 2.81714 13.087 3.08986 13.5324C4.10483 14.3397 5.32827 14.8873 6.67319 15.0609C7.18826 14.9041 7.8213 14.3205 8.13198 13.9779C9.26316 13.9779 10.7547 13.7142 11.3585 13.5824L11.2645 14.1974C12.8523 13.3373 14.0939 11.936 14.7316 10.246L13.038 11.2083L12.1539 9.14261L13.4801 5.88988L15.1088 6.46307C14.7952 4.5292 13.7271 2.84273 12.2099 1.70506C12.2572 2.39962 12.2806 3.09767 12.287 3.56052C11.4385 3.2086 9.8413 3.41418 9.14928 3.56052C8.51274 2.78698 7.55792 1.74397 7.16023 1.31886C7.76991 0.857174 8.2406 0.529636 8.71888 0.256107C8.35448 0.203259 7.98131 0.175965 7.60172 0.175965C6.58092 0.175965 5.61442 0.358317 4.73728 0.693405C5.73356 0.247976 6.83787 0 7.99942 0C12.4173 0 15.9994 3.58143 15.9994 7.99913L16 8.00087ZM2.38733 5.58383C1.86817 5.72843 0.930287 6.06236 0.273305 6.49269C0.563545 4.69413 1.49558 3.10871 2.82882 1.97626L3.97868 2.72658C3.50741 3.19524 2.52924 4.42351 2.38733 5.58383ZM7.77925 6.55018L4.50836 7.29759L4.19885 10.814L7.46974 12.2641L9.72392 9.58281L7.77925 6.55018Z" fill="currentColor"/>
    </g>
    <defs>
      <clipPath id="clip0_1567_305">
        <rect width="16" height="16" fill="white"/>
      </clipPath>
    </defs>
  </symbol>

  <symbol id="LOTTERY" width="16" height="16" viewBox="0 0 16 16">
    <path fill-rule="evenodd" clip-rule="evenodd" d="M8 16C12.4182 16 16 12.4182 16 8C16 3.58172 12.4182 0 8 0C3.58172 0 0 3.58172 0 8C0 12.4182 3.58172 16 8 16ZM12.3374 6.74682C12.3374 9.08904 10.4386 10.9878 8.0964 10.9878C5.75422 10.9878 3.85547 9.08904 3.85547 6.74682C3.85547 4.4046 5.75422 2.50586 8.0964 2.50586C10.4386 2.50586 12.3374 4.4046 12.3374 6.74682ZM8.66752 9.97752C8.25352 10.058 7.87225 10.0623 7.52357 9.99064C7.17634 9.9168 6.88852 9.78032 6.66011 9.58104C6.4317 9.38184 6.28859 9.13352 6.23077 8.83608C6.18618 8.60672 6.19722 8.386 6.26389 8.17408C6.33199 7.96001 6.44418 7.77176 6.60043 7.60935C6.75634 7.44515 6.94281 7.32337 7.15983 7.24398L7.15252 7.20635C6.84714 7.20434 6.58113 7.10821 6.35446 6.91795C6.12744 6.7259 5.98468 6.47936 5.92616 6.17831C5.87078 5.89339 5.90482 5.62363 6.02827 5.36904C6.15138 5.11266 6.34572 4.89263 6.61129 4.70898C6.8783 4.52318 7.19726 4.39423 7.5682 4.32213C7.93913 4.25003 8.28232 4.25027 8.59768 4.32286C8.9148 4.39511 9.17848 4.52703 9.38872 4.71863C9.59856 4.90844 9.73184 5.14474 9.78872 5.42751C9.84576 5.7307 9.804 6.01312 9.66328 6.27478C9.52264 6.53645 9.31376 6.72489 9.03672 6.8401L9.04408 6.87773C9.27144 6.87073 9.48728 6.91431 9.69152 7.0085C9.89728 7.10055 10.0718 7.23306 10.2151 7.40605C10.3599 7.57688 10.4555 7.77682 10.5018 8.00584C10.5579 8.30368 10.5174 8.58768 10.3802 8.858C10.243 9.12824 10.0264 9.3628 9.73032 9.56168C9.43568 9.75848 9.08144 9.89704 8.66752 9.97752ZM8.50136 9.12272C8.68592 9.08688 8.84072 9.0224 8.96584 8.92928C9.09056 8.83432 9.18 8.72024 9.23408 8.58704C9.28952 8.4516 9.30216 8.306 9.27184 8.15008C9.24088 7.9906 9.1732 7.85777 9.06888 7.75159C8.96416 7.64362 8.83608 7.5681 8.68448 7.52504C8.53264 7.48018 8.36704 7.47517 8.18784 7.51C8.01048 7.54448 7.85883 7.61115 7.73299 7.71C7.60681 7.80705 7.51542 7.92524 7.45881 8.06456C7.40365 8.20176 7.39157 8.35008 7.42257 8.50952C7.45287 8.66544 7.51822 8.79592 7.61861 8.90104C7.71866 9.00432 7.84518 9.0764 7.99818 9.11736C8.15088 9.15648 8.31856 9.15824 8.50136 9.12272ZM8.02328 6.6633C8.17736 6.63335 8.3084 6.57534 8.41624 6.48929C8.52408 6.40323 8.60128 6.29804 8.64776 6.1737C8.69432 6.04937 8.70344 5.91462 8.6752 5.76947C8.64736 5.62612 8.58896 5.5073 8.49992 5.41302C8.41056 5.31695 8.30088 5.24994 8.17072 5.21201C8.04032 5.17228 7.89622 5.16774 7.73853 5.19839C7.58262 5.2287 7.45074 5.28687 7.34287 5.37293C7.23466 5.45719 7.15712 5.5606 7.11028 5.68314C7.06487 5.80354 7.0561 5.93542 7.08397 6.07878C7.11218 6.22393 7.17114 6.34544 7.26082 6.4433C7.35051 6.54117 7.46149 6.60978 7.59374 6.64917C7.72599 6.68855 7.86917 6.69326 8.02328 6.6633Z" fill="currentColor"/>
  </symbol>
</svg>
