<svg width="31" height="30" viewBox="0 0 31 30" fill="none" xmlns="http://www.w3.org/2000/svg">
<g id="close_button">
<rect x="0.35498" width="30" height="30" rx="15" fill="black" fill-opacity="0.32"/>
<g id="Group">
<path id="&#229;&#155;&#190;&#230;&#160;&#135;&#233;&#162;&#156;&#232;&#137;&#178;" fill-rule="evenodd" clip-rule="evenodd" d="M14.79 12.835C15.1805 13.2256 15.8137 13.2256 16.2042 12.835L21.19 7.84926C21.5805 7.45873 22.2137 7.45873 22.6042 7.84926L22.79 8.03504C23.1805 8.42557 23.1805 9.05873 22.79 9.44926L17.8042 14.435C17.4137 14.8256 17.4137 15.4587 17.8042 15.8493L22.79 20.835C23.1805 21.2256 23.1805 21.8587 22.79 22.2493L22.6042 22.435C22.2137 22.8256 21.5805 22.8256 21.19 22.435L16.2042 17.4493C15.8137 17.0587 15.1805 17.0587 14.79 17.4493L9.80418 22.435C9.41365 22.8256 8.78049 22.8256 8.38996 22.435L8.20418 22.2493C7.81365 21.8587 7.81365 21.2256 8.20418 20.835L13.19 15.8493C13.5805 15.4587 13.5805 14.8256 13.19 14.435L8.20418 9.44926C7.81365 9.05873 7.81365 8.42557 8.20418 8.03504L8.38996 7.84926C8.78049 7.45873 9.41365 7.45873 9.80418 7.84926L14.79 12.835Z" fill="#C1C1C1"/>
</g>
</g>
</svg>
