<svg width="40" height="40" viewBox="0 0 40 40" fill="none" xmlns="http://www.w3.org/2000/svg">
<path fill-rule="evenodd" clip-rule="evenodd" d="M19.482 17.3492C19.8725 17.7397 20.5057 17.7397 20.8962 17.3492L28.0154 10.2301C28.4059 9.83953 29.039 9.83953 29.4296 10.2301L30.1487 10.9492C30.5392 11.3397 30.5392 11.9729 30.1487 12.3634L23.0296 19.4825C22.639 19.873 22.639 20.5062 23.0296 20.8967L30.1487 28.0158C30.5392 28.4064 30.5392 29.0395 30.1487 29.4301L29.4296 30.1492C29.039 30.5397 28.4059 30.5397 28.0154 30.1492L20.8962 23.0301C20.5057 22.6395 19.8725 22.6395 19.482 23.0301L12.3629 30.1492C11.9724 30.5397 11.3392 30.5397 10.9487 30.1492L10.2296 29.4301C9.83904 29.0395 9.83904 28.4064 10.2296 28.0158L17.3487 20.8967C17.7392 20.5062 17.7392 19.873 17.3487 19.4825L10.2296 12.3634C9.83904 11.9729 9.83904 11.3397 10.2296 10.9492L10.9487 10.2301C11.3392 9.83953 11.9724 9.83953 12.3629 10.2301L19.482 17.3492Z" fill="currentColor"/>
</svg>
