<svg viewBox="0 0 12 12" fill="none" xmlns="http://www.w3.org/2000/svg">
<path d="M4.63239 0H4.57713C3.68297 0 2.97384 -1.24757e-08 2.41373 0.0669783C1.83855 0.133957 1.36468 0.277123 0.968674 0.602805C0.834717 0.711644 0.711644 0.835554 0.60113 0.969511C0.276285 1.36552 0.133957 1.83855 0.0653039 2.41457C6.23784e-09 2.97551 0 3.68381 0 4.57713V4.63155C0 5.52571 -1.24757e-08 6.23401 0.0669783 6.79495C0.133957 7.37013 0.277123 7.844 0.602805 8.24001C0.711644 8.37396 0.835554 8.49703 0.969511 8.60671C1.34459 8.91481 1.79 9.05882 2.32582 9.13165C2.75951 9.19026 3.28277 9.20449 3.91321 9.207C3.92074 9.55529 3.93665 9.86004 3.97181 10.1254C4.03963 10.6278 4.18447 11.0506 4.5202 11.3863C4.85593 11.7229 5.27956 11.8669 5.7819 11.9347C6.26582 12 6.88118 12 7.6439 12H8.26345C9.027 12 9.64236 12 10.1263 11.9347C10.6286 11.8677 11.0514 11.7229 11.3871 11.3863C11.7237 11.0514 11.8677 10.6278 11.9355 10.1254C12 9.64153 12 9.02616 12 8.26261V7.64306C12 6.88035 12 6.26498 11.9355 5.78106C11.8686 5.27873 11.7237 4.85509 11.3871 4.51936C11.0514 4.18363 10.6286 4.03879 10.1263 3.97181C9.82172 3.93546 9.51539 3.91589 9.20868 3.91321C9.20533 3.28277 9.1911 2.75951 9.13249 2.32415C9.06049 1.78832 8.91565 1.34375 8.60755 0.968674C8.49762 0.834469 8.3748 0.711365 8.24084 0.60113C7.84483 0.276285 7.37096 0.133957 6.79579 0.0653039C6.23484 6.23784e-09 5.52655 0 4.63239 0ZM8.37145 3.90735H7.6439C6.88118 3.90735 6.26582 3.90735 5.7819 3.97265C5.27956 4.03963 4.85593 4.18447 4.5202 4.5202C4.18447 4.85593 4.03963 5.27956 3.97265 5.7819C3.90735 6.26582 3.90735 6.88118 3.90735 7.6439V8.37145C3.2878 8.36726 2.81644 8.35387 2.43717 8.3028C1.98591 8.24168 1.7113 8.13368 1.50031 7.96037C1.40822 7.88502 1.3245 7.8013 1.24915 7.7092C1.06747 7.48734 0.956115 7.19347 0.897509 6.69699C0.838903 6.19131 0.837229 5.53324 0.837229 4.60476C0.837229 3.67711 0.838066 3.01821 0.898346 2.51252C0.956952 2.01605 1.06747 1.72218 1.24998 1.50031C1.32533 1.40822 1.40906 1.3245 1.50115 1.24915C1.72218 1.06747 2.01605 0.956115 2.51252 0.897509C3.01821 0.838903 3.67711 0.837229 4.6056 0.837229C5.53241 0.837229 6.19214 0.838066 6.69699 0.898346C7.19347 0.956952 7.48734 1.06747 7.71004 1.24998C7.8013 1.32533 7.88586 1.40906 7.96121 1.50115C8.13368 1.71046 8.24168 1.98674 8.3028 2.43717C8.35303 2.81644 8.36726 3.2878 8.37145 3.90735ZM5.11212 5.11296C5.26701 4.95807 5.48385 4.85676 5.89325 4.80234C6.31438 4.74541 6.87281 4.74374 7.67488 4.74374H8.23247C9.0337 4.74374 9.59297 4.74541 10.0141 4.80234C10.4243 4.85676 10.6412 4.95807 10.7952 5.11212C10.9501 5.26701 11.0506 5.48385 11.105 5.89325C11.1619 6.31522 11.1636 6.87365 11.1636 7.67488V8.23331C11.1636 9.03454 11.1619 9.59297 11.105 10.0141C11.0506 10.4243 10.9501 10.6412 10.7952 10.7952C10.6412 10.9501 10.4243 11.0506 10.0141 11.105C9.59297 11.1628 9.03454 11.1636 8.23247 11.1636H7.67488C6.87365 11.1636 6.31438 11.1619 5.89325 11.105C5.48301 11.0506 5.26701 10.9501 5.11212 10.7952C4.95807 10.6412 4.85676 10.4243 4.80234 10.0141C4.74541 9.59297 4.74374 9.03454 4.74374 8.23331V7.67488C4.74374 6.87365 4.74541 6.31522 4.80234 5.89325C4.85676 5.48301 4.95807 5.26701 5.11212 5.11212V5.11296Z" fill="currentColor"/>
</svg>
