<svg xmlns="http://www.w3.org/2000/svg" width="24" height="24" viewBox="0 0 24 24" fill="none">
  <rect x="1" y="1" width="22" height="6" rx="3" stroke="currentColor" stroke-width="2"/>
  <path d="M6 7H18C18.5523 7 19 7.44772 19 8V20C19 21.6569 17.6569 23 16 23H8C6.34315 23 5 21.6569 5 20V8C5 7.44772 5.44772 7 6 7Z" stroke="currentColor" stroke-width="2"/>
  <path d="M11.333 12H14C14.5527 12 15 11.5522 15 11C15 10.4478 14.5527 10 14 10H13C13 9.4478 12.5527 9 12 9C11.4473 9 11 9.4478 11 10V10.0361C9.8723 10.2111 9 11.2437 9 12.5C9 13.8784 10.0469 15 11.333 15H12.667C12.8242 15 13 15.2139 13 15.5C13 15.7861 12.8242 16 12.667 16H10C9.4473 16 9 16.4478 9 17C9 17.5522 9.4473 18 10 18H11C11 18.5522 11.4473 19 12 19C12.5527 19 13 18.5522 13 18V17.9639C14.1277 17.7889 15 16.7563 15 15.5C15 14.1216 13.9531 13 12.667 13H11.333C11.1758 13 11 12.7861 11 12.5C11 12.2139 11.1758 12 11.333 12Z" fill="currentColor"/>
</svg>