<svg width="200" height="200" viewBox="0 0 200 200" fill="none" xmlns="http://www.w3.org/2000/svg">
<path d="M122.695 31.5279C142.686 28.8522 160.31 36.4831 167.235 51.3541C168.283 53.6859 169.359 56.311 170.428 59.1178C163.674 53.6593 154.665 49.9999 144.386 48.8189C131.497 47.6902 118.045 46.7017 104.269 46.7017C90.4928 46.7017 77.0415 47.6902 64.1524 48.8189C43.7241 51.121 28.5058 62.2075 25.8253 78.9508C24.445 89.0064 23.2686 99.4769 23.2686 110.202C23.2686 119.231 24.1025 128.078 25.1895 136.651C23.3586 131.475 21.6818 126.165 20.3028 120.707C17.676 110.308 16.2508 99.8683 15.1261 89.7808C13.624 72.891 25.664 58.4147 44.9063 51.1793C57.1263 46.928 69.9261 42.6755 83.2823 39.3013C96.6386 35.9272 109.922 33.5905 122.695 31.5279Z" fill="#00438A"/>
<path d="M104.269 46.7021C90.4926 46.7021 77.0411 47.6903 64.152 48.819C43.7236 51.1211 28.5051 62.2074 25.8246 78.9507C24.4443 89.0065 23.2686 99.4772 23.2686 110.202C23.2686 120.927 24.4443 131.396 25.8246 141.454C28.2984 156.357 44.9749 169.118 64.152 171.585C77.0411 172.714 90.4926 173.702 104.269 173.702C118.045 173.702 131.496 172.714 144.385 171.585C165.049 168.911 179.641 157.195 182.713 141.454C184.435 131.67 185.269 120.927 185.269 110.202C185.269 99.4772 184.226 87.5253 182.713 78.9507C179.641 62.8365 164.422 51.1211 144.385 48.819C131.496 47.6903 118.045 46.7021 104.269 46.7021Z" fill="#2056AC"/>
<path d="M170.848 99.2739C170.504 95.1075 166.727 91.7021 162.491 91.7021H131.251C120.914 91.7021 112.346 99.8618 112.269 110.062C112.193 120.343 120.615 128.702 131.017 128.702H162.43C166.682 128.702 170.459 125.281 170.799 121.099C171.118 117.166 171.273 113.386 171.268 109.479C171.267 106.073 171.126 102.669 170.846 99.2739H170.848Z" fill="#5F79A2"/>
</svg>
