<svg width="24" height="24" viewBox="0 0 24 24" fill="none" xmlns="http://www.w3.org/2000/svg">
<g clip-path="url(#clip0_12056_32610)">
<path d="M23.1278 16.141H18.418C16.212 16.141 14.4167 14.2085 14.4167 11.8339C14.4167 9.45937 16.212 7.52686 18.418 7.52686H23.1242C23.6039 7.52686 23.9964 7.94544 23.9964 8.46573C23.9964 8.98211 23.6075 9.40461 23.1242 9.40461H18.418C17.1751 9.40461 16.1611 10.496 16.1611 11.8339C16.1611 13.1718 17.1751 14.2633 18.418 14.2633H23.1242C23.6039 14.2633 23.9964 14.6819 23.9964 15.2022C23.9964 15.7225 23.6075 16.141 23.1278 16.141Z" fill="currentColor"/>
<path d="M18.952 12.6942H18.5886C18.1089 12.6942 17.7164 12.2756 17.7164 11.7553C17.7164 11.235 18.1053 10.8164 18.5886 10.8164H18.952C19.4318 10.8164 19.8242 11.235 19.8242 11.7553C19.8242 12.2756 19.4354 12.6942 18.952 12.6942Z" fill="currentColor"/>
<path d="M17.026 24H6.97396C3.12901 24 0 20.6318 0 16.4929V7.50709C0 3.36822 3.12901 0 6.97396 0H17.026C20.871 0 24 3.36822 24 7.50709V16.4929C24 20.6318 20.871 24 17.026 24ZM6.97396 1.87384C4.08843 1.87384 1.7444 4.40098 1.7444 7.50318V16.489C1.7444 19.5951 4.09207 22.1183 6.97396 22.1183H17.026C19.9116 22.1183 22.2556 19.5912 22.2556 16.489V7.50318C22.2556 4.39707 19.9079 1.87384 17.026 1.87384H6.97396Z" fill="currentColor"/>
<path opacity="0.4" d="M12.4252 7.55402H6.14539C5.66568 7.55402 5.27319 7.13544 5.27319 6.61514C5.27319 6.09485 5.66205 5.67627 6.14539 5.67627H12.4252C12.9049 5.67627 13.2974 6.09485 13.2974 6.61514C13.2974 7.13544 12.9086 7.55402 12.4252 7.55402Z" fill="currentColor"/>
</g>
<defs>
<clipPath id="clip0_12056_32610">
<rect width="24" height="24" fill="white"/>
</clipPath>
</defs>
</svg>
