<svg width="24" height="24" viewBox="0 0 24 24" fill="none" xmlns="http://www.w3.org/2000/svg">
<mask id="mask0_5_283205" style="mask-type:luminance" maskUnits="userSpaceOnUse" x="2" y="2" width="20" height="20">
<path d="M22 2H2V22H22V2Z" fill="white"/>
</mask>
<g mask="url(#mask0_5_283205)">
</g>
<path d="M14.2695 5.15283C16.2686 4.88526 18.0311 5.64822 18.7236 7.13525C18.8287 7.36912 18.9358 7.63295 19.043 7.91455C18.3675 7.36805 17.4671 7.0005 16.4385 6.88232C15.1496 6.76946 13.8043 6.67041 12.4268 6.67041C11.0492 6.67042 9.70391 6.76946 8.41504 6.88232C6.37233 7.11259 4.85007 8.22076 4.58203 9.89502C4.44401 10.9005 4.32716 11.9476 4.32715 13.02C4.32715 13.9231 4.41176 14.808 4.52051 15.6655C4.33731 15.1477 4.16824 14.6169 4.03027 14.0708C3.76759 13.031 3.62517 11.9868 3.5127 10.978C3.36252 9.28914 4.56617 7.84124 6.49023 7.11768C7.71221 6.69256 8.99253 6.26759 10.3281 5.93018C11.6638 5.59276 12.9922 5.35909 14.2695 5.15283Z" fill="#306E2C"/>
<g filter="url(#filter0_i_5_283205)">
<path d="M12.4267 6.67041C11.0491 6.67041 9.70392 6.76923 8.415 6.8821C6.37216 7.1123 4.85032 8.22094 4.58226 9.89527C4.44424 10.9008 4.32666 11.9479 4.32666 13.0204C4.32666 14.0929 4.44424 15.1398 4.58226 16.1456C4.82965 17.6359 6.4973 18.912 8.415 19.1587C9.70392 19.2716 11.0491 19.3704 12.4267 19.3704C13.8043 19.3704 15.1494 19.2716 16.4383 19.1587C18.5047 18.8913 19.9639 17.7197 20.2711 16.1456C20.4433 15.1672 20.5267 14.0929 20.5267 13.0204C20.5267 11.9479 20.4224 10.7527 20.2711 9.89527C19.9639 8.28384 18.442 7.1123 16.4383 6.8821C15.1494 6.76923 13.8043 6.67041 12.4267 6.67041Z" fill="#19CC10" fill-opacity="0.4"/>
</g>
<path d="M19.085 11.9276C19.0506 11.5109 18.6729 11.1704 18.2493 11.1704H15.1253C14.0916 11.1704 13.2347 11.9864 13.2271 13.0064C13.2195 14.0345 14.0617 14.8704 15.1019 14.8704H18.2432C18.6684 14.8704 19.0461 14.5283 19.0801 14.1101C19.112 13.7168 19.1275 13.3388 19.127 12.9481C19.1269 12.6075 19.1128 12.267 19.0848 11.9276H19.085Z" fill="#19CC10"/>
<defs>
<filter id="filter0_i_5_283205" x="4.32666" y="6.67041" width="16.2002" height="12.7002" filterUnits="userSpaceOnUse" color-interpolation-filters="sRGB">
<feFlood flood-opacity="0" result="BackgroundImageFix"/>
<feBlend mode="normal" in="SourceGraphic" in2="BackgroundImageFix" result="shape"/>
<feColorMatrix in="SourceAlpha" type="matrix" values="0 0 0 0 0 0 0 0 0 0 0 0 0 0 0 0 0 0 127 0" result="hardAlpha"/>
<feOffset/>
<feGaussianBlur stdDeviation="0.5"/>
<feComposite in2="hardAlpha" operator="arithmetic" k2="-1" k3="1"/>
<feColorMatrix type="matrix" values="0 0 0 0 1 0 0 0 0 1 0 0 0 0 1 0 0 0 0.3 0"/>
<feBlend mode="normal" in2="shape" result="effect1_innerShadow_5_283205"/>
</filter>
</defs>
</svg>
