<svg width="217" height="42" viewBox="0 0 217 42" fill="none" xmlns="http://www.w3.org/2000/svg">
<mask id="mask0_10938_41502" style="mask-type:alpha" maskUnits="userSpaceOnUse" x="0" y="0" width="217" height="42">
<path d="M0 12C0 5.37258 5.37258 0 12 0H177.299C181.43 0 185.27 2.12468 187.465 5.62425L197.108 21L203.693 31.5L206.021 35.2115C206.662 36.2339 207.417 37.1806 208.27 38.0337L209.087 38.8501C209.436 39.1988 209.825 39.5052 210.246 39.7628C211.585 40.5829 213.04 41.1973 214.562 41.5854L216.188 42H0V12Z" fill="#2E2D2D"/>
</mask>
<g mask="url(#mask0_10938_41502)">
<path opacity="0.4" d="M155.729 3.02301C154.935 1.68985 155.896 0 157.448 0H281.387L237.757 42H178.931L155.729 3.02301Z" fill="url(#paint0_linear_10938_41502)"/>
<path opacity="0.4" d="M277.62 3.47095C278.959 2.23673 278.086 0 276.265 0H153.93L176.97 42H235.797L277.62 3.47095Z" fill="url(#paint1_linear_10938_41502)"/>
<path opacity="0.4" d="M155.729 3.02301C154.935 1.68985 155.896 0 157.448 0H281.387L237.757 42H178.931L155.729 3.02301Z" fill="url(#paint2_linear_10938_41502)"/>
<g opacity="0.4">
<path opacity="0.2" d="M323.88 -0.5L322.879 0.375977L274.893 42.376L274.751 42.5H155.058L154.913 42.2607L131.052 3.30566C130.032 1.63986 131.231 -0.499986 133.184 -0.5H323.88Z" stroke="url(#paint3_linear_10938_41502)"/>
<path opacity="0.2" d="M128.712 -0.5L129.19 0.264648L155.41 42.2646L155.556 42.5H275.248L275.389 42.375L318.926 3.87305C320.65 2.34816 319.572 -0.499772 317.27 -0.5H128.712Z" stroke="url(#paint4_linear_10938_41502)"/>
<path opacity="0.2" d="M131.479 3.04462C130.662 1.71197 131.621 0 133.184 0H322.55L274.564 42H155.339L131.479 3.04462Z" fill="url(#paint5_linear_10938_41502)"/>
<path opacity="0.3" d="M131.479 3.04462C130.662 1.71197 131.621 0 133.184 0H322.55L274.564 42H155.339L131.479 3.04462Z" fill="url(#paint6_linear_10938_41502)"/>
</g>
</g>
<defs>
<linearGradient id="paint0_linear_10938_41502" x1="153.93" y1="-7.98" x2="212.37" y2="31.373" gradientUnits="userSpaceOnUse">
<stop stop-color="white" stop-opacity="0.2"/>
<stop offset="1" stop-opacity="0"/>
</linearGradient>
<linearGradient id="paint1_linear_10938_41502" x1="281.387" y1="-7.98" x2="222.947" y2="31.373" gradientUnits="userSpaceOnUse">
<stop stop-color="white" stop-opacity="0.2"/>
<stop offset="1" stop-opacity="0"/>
</linearGradient>
<linearGradient id="paint2_linear_10938_41502" x1="153.93" y1="-7.98" x2="212.37" y2="31.373" gradientUnits="userSpaceOnUse">
<stop stop-color="white" stop-opacity="0.2"/>
<stop offset="1" stop-opacity="0"/>
</linearGradient>
<linearGradient id="paint3_linear_10938_41502" x1="132.087" y1="1.5" x2="148.949" y2="43.5615" gradientUnits="userSpaceOnUse">
<stop stop-color="white"/>
<stop offset="0.847686" stop-color="white" stop-opacity="0.5"/>
<stop offset="1" stop-color="white" stop-opacity="0"/>
</linearGradient>
<linearGradient id="paint4_linear_10938_41502" x1="324.034" y1="1.26" x2="270.386" y2="42.5171" gradientUnits="userSpaceOnUse">
<stop stop-color="white"/>
<stop offset="1" stop-color="white" stop-opacity="0"/>
</linearGradient>
<linearGradient id="paint5_linear_10938_41502" x1="216.188" y1="25.2" x2="152.902" y2="-7.68672" gradientUnits="userSpaceOnUse">
<stop offset="0.382543" stop-opacity="0"/>
<stop offset="1" stop-color="white" stop-opacity="0.3"/>
</linearGradient>
<linearGradient id="paint6_linear_10938_41502" x1="216.188" y1="25.2" x2="152.902" y2="-7.68672" gradientUnits="userSpaceOnUse">
<stop offset="0.382543" stop-opacity="0"/>
<stop offset="1" stop-color="white" stop-opacity="0.3"/>
</linearGradient>
</defs>
</svg>
