<svg width="24" height="24" viewBox="0 0 24 24" fill="none" xmlns="http://www.w3.org/2000/svg">
<circle cx="11.5635" cy="14.875" r="5.5" fill="white"/>
<path d="M7.99448 12.3137C7.99448 12.3137 7.01409 15.1324 8.97488 14.8873C10.9357 14.6422 11.3033 12.4363 14.1219 12.4363C14.1219 12.4363 11.7935 15.9902 13.2641 16.7255C14.7347 17.3382 15.1023 16.6029 16.4504 15.6225C16.3278 17.2157 15.7151 20.402 11.1808 20.0343C6.64644 19.6667 4.56311 15.7451 7.99448 12.3137ZM11.9161 21.75C16.0827 21.75 18.9013 18.8088 19.5141 14.6422C20.4945 7.28921 17.0631 3.2451 16.6955 3C14.8572 7.90196 12.4062 7.04412 11.9161 7.04412C12.2837 6.30882 13.8768 4.96078 13.6317 5.20588C13.5092 5.20588 10.4455 4.71569 7.01409 8.02451C4.80821 10.2304 4.44056 12.9265 4.44056 14.5196C4.31801 18.4412 7.74939 21.75 11.9161 21.75Z" fill="url(#paint0_linear_11597_1767)"/>
<defs>
<linearGradient id="paint0_linear_11597_1767" x1="19.5" y1="3" x2="4.5" y2="18.5" gradientUnits="userSpaceOnUse">
<stop stop-color="#FFE74C"/>
<stop offset="1" stop-color="#FF6704"/>
</linearGradient>
</defs>
</svg>
