<svg width="32" height="32" viewBox="0 0 32 32" fill="none" xmlns="http://www.w3.org/2000/svg">
<path d="M17.3914 2.71304C17.2055 2.58295 16.9255 2.75021 17.0436 2.92304C18.1024 4.47112 18.9316 7.28109 14.7815 10.5111C14.2171 8.13597 11.4388 6.93727 11.4388 6.93727C12.3926 8.5504 11.8523 10.7564 11.0734 12.3676C10.6884 13.1649 10.1415 13.8953 9.50269 14.5662C9.42393 14.6479 9.34955 14.7297 9.27517 14.8096C7.07656 17.2219 6.64559 19.4 6.66746 20.7975C6.66746 20.8161 6.66746 20.8328 6.66746 20.8514C6.66746 25.5365 11.1391 29.3333 16.652 29.3333C22.1649 29.3333 26.3434 25.4733 26.6366 20.8514C26.7087 19.7196 27.2907 9.65431 17.3914 2.71676V2.71304ZM21.5196 22.7117C21.3686 24.8489 19.2072 26.4788 16.6914 26.3505C14.1756 26.2223 12.257 24.3862 12.4079 22.249C12.4079 22.249 12.2679 19.4539 15.5625 17.6958C18.8572 15.9377 17.6255 13.0534 17.6255 13.0534C17.6255 13.0534 22.0993 17.7014 21.5174 22.7117H21.5196Z" fill="#FF5900"/>
</svg>
