<svg width="40" height="40" viewBox="0 0 40 40" fill="none" xmlns="http://www.w3.org/2000/svg">
<rect width="40" height="40" rx="20" fill="currentColor"/>
<path d="M27.6948 16.9133C28.0396 17.2034 28.3431 17.4978 28.6062 17.7967C28.8684 18.0952 29 18.3899 29 18.6798C29 19.0043 28.8809 19.2691 28.6429 19.4738C28.4051 19.6791 28.1134 19.9091 27.7691 20.1654C27.2437 20.5745 26.69 21.0061 26.1072 21.4586C25.5547 21.8876 25.0006 22.3144 24.4449 22.7389C23.92 23.1398 23.4564 23.4901 23.054 23.788C22.6516 24.0865 22.3683 24.2867 22.2045 24.3896C21.6627 24.7309 21.2441 24.855 20.9489 24.7606C20.6531 24.6663 20.4643 24.4831 20.3818 24.2104V21.2404H20.2836C19.0355 21.2404 17.9444 21.3813 17.0087 21.6631C16.0737 21.9449 15.2523 22.3717 14.5467 22.9434C13.8404 23.5155 13.2244 24.2244 12.6991 25.0691C12.1741 25.9139 11.6982 26.8904 11.2707 28C11.2216 27.9665 11.1722 27.8722 11.1225 27.7187C11.0896 27.5823 11.0608 27.3859 11.0368 27.1297C11.0128 26.8739 11 26.5156 11 26.0526C11 24.6196 11.2088 23.2801 11.6277 22.0342C12.0463 20.7881 12.6454 19.7003 13.4248 18.7697C14.2042 17.8396 15.1486 17.1099 16.257 16.5805C17.365 16.0512 18.6091 15.7952 19.9877 15.8122C20.0689 15.8122 20.1394 15.8162 20.1966 15.8252C20.2541 15.8342 20.3245 15.8383 20.4061 15.8383L20.3818 13.1502C20.4148 12.6723 20.6041 12.3264 20.9489 12.1127C21.2931 11.8994 21.7279 11.9888 22.2532 12.3814C22.5525 12.6294 22.8522 12.8768 23.1524 13.1236C23.6403 13.5256 24.1287 13.9267 24.6177 14.3271C25.17 14.7806 25.7198 15.2374 26.2672 15.6973C26.8256 16.1664 27.3018 16.5718 27.6964 16.9133H27.6948Z" fill="var(--ep-color-icon-inverse)"/>
</svg>
