<svg width="31" height="31" viewBox="0 0 31 31" fill="currentColor" xmlns="http://www.w3.org/2000/svg">
<g clip-path="url(#clip0_9010_9794)">
<path d="M7.06574 8.69149C5.07915 8.69149 3.4966 9.33192 2.31809 10.6128C1.10596 11.8936 0.5 13.5113 0.5 15.5C0.5 17.4549 1.10596 19.1064 2.31809 20.3872C3.49681 21.6681 5.07915 22.3085 7.06596 22.3085C8.21064 22.3085 9.55745 21.803 11.1736 20.8591C12.453 20.084 13.9009 19.0053 15.4834 17.6234C17.066 19.0053 18.5136 20.084 19.7932 20.8591C21.4091 21.803 22.7894 22.3085 23.934 22.3085C25.887 22.3085 27.5032 21.6681 28.7153 20.3872C29.894 19.1064 30.5 17.4549 30.5 15.5C30.5 13.5113 29.894 11.8936 28.7155 10.6128C27.5034 9.33192 25.8872 8.69149 23.934 8.69149C22.6547 8.69149 21.1732 9.23085 19.4223 10.343C18.2102 11.0847 16.897 12.1294 15.483 13.4102C13.9004 11.9947 12.4526 10.916 11.1732 10.1409C9.55723 9.16341 8.21043 8.69149 7.06574 8.69149ZM23.9343 11.8598C24.9781 11.8598 25.8198 12.1968 26.4257 12.9047C27.0321 13.5787 27.3687 14.4215 27.3687 15.5C27.3687 16.5447 27.0319 17.4213 26.426 18.0953C25.8198 18.7694 24.9781 19.14 23.9345 19.14C23.1936 19.14 22.2172 18.7357 21.0387 17.9943C20.096 17.3872 19.0185 16.5447 17.84 15.5C19.0185 14.4213 20.0623 13.6126 21.0051 13.0396C22.2172 12.2306 23.1936 11.8598 23.9343 11.8598ZM7.06574 11.8598C7.77277 11.8598 8.74915 12.2643 9.96128 13.0732C10.8704 13.6462 11.914 14.4551 13.1262 15.5336C12.0487 16.4774 11.106 17.2189 10.2645 17.7919C8.95128 18.6685 7.87383 19.1402 7.06574 19.1402C5.9883 19.1402 5.1466 18.7694 4.54021 18.0953C3.93426 17.4213 3.63128 16.5449 3.63128 15.5C3.63128 14.4213 3.93426 13.5787 4.54043 12.9047C5.14638 12.1968 5.9883 11.86 7.06574 11.86V11.8598Z" fill="currentColor"/>
</g>
<defs>
<clipPath id="clip0_9010_9794">
<rect width="30" height="30" fill="currentColor" transform="translate(0.5 0.5)"/>
</clipPath>
</defs>
</svg>
