<svg width="24" height="24" viewBox="0 0 24 24" fill="none" xmlns="http://www.w3.org/2000/svg">
<mask id="mask0_5_283178" style="mask-type:luminance" maskUnits="userSpaceOnUse" x="2" y="2" width="20" height="20">
<path d="M22 2H2V22H22V2Z" fill="white"/>
</mask>
<g mask="url(#mask0_5_283178)">
</g>
<g filter="url(#filter0_i_5_283178)">
<path d="M9.695 4.83367C10.3898 4.29335 11.2448 4 12.125 4C13.0052 4 13.8602 4.29335 14.555 4.83367L18.7217 8.07451C19.1976 8.44461 19.5827 8.91854 19.8475 9.46012C20.1124 10.0017 20.2501 10.5966 20.25 11.1995V16.2353C20.25 17.2852 19.833 18.292 19.0906 19.0343C18.3483 19.7766 17.3415 20.1937 16.2917 20.1937H7.95833C7.43852 20.1937 6.92379 20.0913 6.44354 19.8924C5.9633 19.6934 5.52693 19.4019 5.15937 19.0343C4.41704 18.292 4 17.2852 4 16.2353V11.1987C3.99995 10.5958 4.13761 10.0009 4.40248 9.45928C4.66735 8.9177 5.05243 8.44378 5.52833 8.07367L9.695 4.83367ZM9.24 14.2437C9.20833 14.4045 9.20833 14.5978 9.20833 14.9853C9.20833 15.3728 9.20833 15.5662 9.24 15.727C9.30425 16.0505 9.46302 16.3476 9.69622 16.5808C9.92941 16.814 10.2265 16.9728 10.55 17.037C10.7108 17.0687 10.9042 17.0687 11.2917 17.0687H12.9583C13.3458 17.0687 13.5392 17.0687 13.7 17.037C14.0235 16.9728 14.3206 16.814 14.5538 16.5808C14.787 16.3476 14.9457 16.0505 15.01 15.727C15.0417 15.5662 15.0417 15.3728 15.0417 14.9853C15.0417 14.5978 15.0417 14.4045 15.01 14.2437C14.9457 13.9202 14.787 13.6231 14.5538 13.3899C14.3206 13.1567 14.0235 12.9979 13.7 12.9337C13.5392 12.902 13.3458 12.902 12.9583 12.902H11.2917C10.9042 12.902 10.7108 12.902 10.55 12.9337C10.2265 12.9979 9.92941 13.1567 9.69622 13.3899C9.46302 13.6231 9.30425 13.9202 9.24 14.2437Z" fill="url(#paint0_linear_5_283178)"/>
</g>
<path d="M10.7502 12.8335H13.2502C14.3613 12.8335 14.9168 13.3891 14.9168 14.5002V15.3335C14.9168 16.4446 14.3613 17.0002 13.2502 17.0002H10.7502C9.63905 17.0002 9.0835 16.4446 9.0835 15.3335V14.5002C9.0835 13.3891 9.63905 12.8335 10.7502 12.8335Z" fill="#81C500"/>
<defs>
<filter id="filter0_i_5_283178" x="4" y="4" width="16.25" height="16.1938" filterUnits="userSpaceOnUse" color-interpolation-filters="sRGB">
<feFlood flood-opacity="0" result="BackgroundImageFix"/>
<feBlend mode="normal" in="SourceGraphic" in2="BackgroundImageFix" result="shape"/>
<feColorMatrix in="SourceAlpha" type="matrix" values="0 0 0 0 0 0 0 0 0 0 0 0 0 0 0 0 0 0 127 0" result="hardAlpha"/>
<feOffset/>
<feGaussianBlur stdDeviation="0.5"/>
<feComposite in2="hardAlpha" operator="arithmetic" k2="-1" k3="1"/>
<feColorMatrix type="matrix" values="0 0 0 0 1 0 0 0 0 1 0 0 0 0 1 0 0 0 0.3 0"/>
<feBlend mode="normal" in2="shape" result="effect1_innerShadow_5_283178"/>
</filter>
<linearGradient id="paint0_linear_5_283178" x1="12.125" y1="4" x2="12.125" y2="20.1937" gradientUnits="userSpaceOnUse">
<stop stop-color="#404B3E"/>
<stop offset="1" stop-color="#242B22"/>
</linearGradient>
</defs>
</svg>
