<svg width="24" height="24" viewBox="0 0 24 24" fill="none" xmlns="http://www.w3.org/2000/svg">
<g clip-path="url(#clip0_12056_32596)">
<path d="M9.7666 0.768799C11.0035 -0.253869 12.9817 -0.25756 14.2334 0.768799L22.7998 7.82935C23.5621 8.46247 23.9999 9.37842 24 10.3401V20.6936C23.9963 22.5212 22.4585 24.0002 20.5645 24.0002H3.43359C1.54142 24.0001 2.33863e-05 22.5156 0 20.6936V10.342C0.000101209 9.3748 0.439668 8.45511 1.2002 7.82935L9.7666 0.768799ZM13.8613 2.63989C12.8183 1.7849 11.1694 1.78798 10.1387 2.63989L3 8.52466C2.36621 9.04614 2.00007 9.81236 2 10.6184V19.2444C2 20.7627 3.2845 22.0001 4.86133 22.0002H19.1367C20.7152 22.0002 21.9969 20.7674 22 19.2444V10.6174C22 9.81591 21.6354 9.05234 21 8.52466L13.8613 2.63989Z" fill="currentColor"/>
<rect x="6" y="16" width="12" height="3" rx="1.5" fill="currentColor"/>
</g>
<defs>
<clipPath id="clip0_12056_32596">
<rect width="24" height="24" fill="white"/>
</clipPath>
</defs>
</svg>
