<svg width="24" height="24" viewBox="0 0 24 24" fill="none" xmlns="http://www.w3.org/2000/svg">
<path d="M9.76615 0.768447C11.0031 -0.254302 12.9822 -0.257994 14.2338 0.768447L22.8 7.82985C23.5625 8.46307 24 9.37874 24 10.3406V20.6936C23.9963 22.5213 22.4585 24 20.5643 24H3.43385C1.54154 24 0 22.5157 0 20.6936V10.3424C0 9.37505 0.439385 8.45568 1.2 7.82985L9.76615 0.768447ZM16.6154 16.6155H7.38462C6.89499 16.6155 6.42541 16.81 6.07919 17.1562C5.73297 17.5025 5.53846 17.972 5.53846 18.4616C5.53846 18.9513 5.73297 19.4208 6.07919 19.767C6.42541 20.1133 6.89499 20.3078 7.38462 20.3078H16.6154C17.105 20.3078 17.5746 20.1133 17.9208 19.767C18.267 19.4208 18.4615 18.9513 18.4615 18.4616C18.4615 17.972 18.267 17.5025 17.9208 17.1562C17.5746 16.81 17.105 16.6155 16.6154 16.6155Z" fill="currentColor"/>
</svg>
