<svg width="36" height="36" viewBox="0 0 36 36" fill="none" xmlns="http://www.w3.org/2000/svg">
<g clip-path="url(#clip0_1995_24178)">
<g filter="url(#filter0_d_1995_24178)">
<path d="M27.6152 16.2891C27.9025 16.2309 28.1968 16.2391 28.4814 16.3125C28.7663 16.386 29.0366 16.5237 29.2754 16.7178C29.5141 16.9119 29.7176 17.1592 29.874 17.4443C30.0999 17.8563 30.2197 18.3343 30.2197 18.8223V27.6426C30.2197 28.6656 29.8681 29.6468 29.2432 30.3701C28.6182 31.0934 27.7705 31.5 26.8867 31.5H9.11328C8.22953 31.4999 7.38175 31.0934 6.75684 30.3701C6.13198 29.6468 5.78125 28.6655 5.78125 27.6426V18.832C5.78126 18.3711 5.88792 17.9181 6.09082 17.5215C6.29372 17.1249 6.58545 16.7988 6.93457 16.5771C7.2837 16.3556 7.67822 16.2466 8.07617 16.2617C8.47408 16.277 8.86154 16.4154 9.19727 16.6631L17.9766 21.335L26.8066 16.6523C27.0529 16.4712 27.3278 16.3473 27.6152 16.2891ZM23.5547 4.5C24.4385 4.50003 25.2862 4.90655 25.9111 5.62988C26.536 6.35323 26.8867 7.3345 26.8867 8.35742V14.7861L18.0186 19.4062L9.11328 14.7861V8.35742C9.11328 7.33444 9.46487 6.35324 10.0898 5.62988C10.7148 4.90654 11.5624 4.5 12.4463 4.5H23.5547ZM19.8643 6.85742C19.166 6.85742 18.4958 7.13338 18 7.625C17.5042 7.13338 16.834 6.85742 16.1357 6.85742C15.4376 6.85747 14.7672 7.13342 14.2715 7.625C13.7849 8.10783 13.5078 8.7628 13.5 9.44824C13.4923 10.1339 13.7547 10.7954 14.2305 11.2891L14.2715 11.3301L17.2012 14.2422C17.4137 14.4529 17.7007 14.5713 18 14.5713C18.2993 14.5713 18.5863 14.453 18.7988 14.2422V14.2432L21.7275 11.3311L21.7744 11.2822C22.2475 10.7881 22.5077 10.1284 22.499 9.44434C22.4902 8.76021 22.2132 8.10688 21.7275 7.625C21.2318 7.13349 20.5623 6.85753 19.8643 6.85742Z" fill="white"/>
</g>
</g>
<defs>
<filter id="filter0_d_1995_24178" x="-0.91875" y="-1.2" width="37.8385" height="40.4" filterUnits="userSpaceOnUse" color-interpolation-filters="sRGB">
<feFlood flood-opacity="0" result="BackgroundImageFix"/>
<feColorMatrix in="SourceAlpha" type="matrix" values="0 0 0 0 0 0 0 0 0 0 0 0 0 0 0 0 0 0 127 0" result="hardAlpha"/>
<feOffset dy="1"/>
<feGaussianBlur stdDeviation="3.35"/>
<feComposite in2="hardAlpha" operator="out"/>
<feColorMatrix type="matrix" values="0 0 0 0 0 0 0 0 0 0 0 0 0 0 0 0 0 0 0.25 0"/>
<feBlend mode="normal" in2="BackgroundImageFix" result="effect1_dropShadow_1995_24178"/>
<feBlend mode="normal" in="SourceGraphic" in2="effect1_dropShadow_1995_24178" result="shape"/>
</filter>
<clipPath id="clip0_1995_24178">
<rect width="36" height="36" fill="white"/>
</clipPath>
</defs>
</svg>
