<svg width="390" height="290" viewBox="0 0 390 290" fill="none" xmlns="http://www.w3.org/2000/svg">
<g clip-path="url(#clip0_10838_42507)">
<g opacity="0.4">
<mask id="mask0_10838_42507" style="mask-type:alpha" maskUnits="userSpaceOnUse" x="45" y="0" width="302" height="290">
<rect x="45" width="302" height="290" fill="url(#paint0_radial_10838_42507)"/>
</mask>
<g mask="url(#mask0_10838_42507)">
<g opacity="0.6" filter="url(#filter0_f_10838_42507)">
<path d="M207.162 280.561L196.676 214.601L203.544 214.107L207.162 280.561ZM186.782 213.201L177.062 271.964L179.914 212.708L186.782 213.201ZM231.438 267.769L209.442 211.285L216.103 209.819L231.438 267.769ZM175.358 205.77L146.398 262.844L168.88 203.833L175.358 205.77ZM161.816 201.51L118.106 258.032L155.846 198.679L161.816 201.51ZM257.521 252.297L216.23 199.216L222.201 196.385L257.521 252.297ZM152.271 194.725L95.7939 245.604L146.988 191.085L152.271 194.725ZM287.869 245.604L232.594 195.9L237.876 192.26L287.869 245.604ZM307.897 229.061L245.153 190.025L249.561 185.662L307.897 229.061ZM144.653 186.59L75.9707 222.635L140.698 181.951L144.653 186.59ZM322.885 209.321L250.293 178.166L253.74 173.262L322.885 209.321ZM139.288 176.76L59.1201 204.342L136.374 171.628L139.288 176.76ZM145.867 164.884L47.5107 183.6L144.083 159.414L145.867 164.884ZM335.184 183.6L255.459 168.984L257.243 163.515L335.184 183.6ZM341.082 157.27L258.582 160.301V154.238L341.082 157.27ZM130.116 158.102L58 155.27L130.116 152.438V158.102ZM257.577 147.549L256.38 141.972L378 127.232L257.577 147.549ZM140.624 141.33L140.022 146.972L26 135.936L140.624 141.33ZM139.389 133.365L137.031 138.687L53.4971 110.7L139.389 133.365ZM251.678 137.031L249.319 131.71L348.844 104.97L251.678 137.031ZM142.769 125.784L138.814 130.423L63.8398 83.8457L142.769 125.784ZM252.107 123.832L248.66 118.928L329.563 83.8311L252.107 123.832ZM145.801 113.575L140.926 117.579L72.4268 57.3125L145.801 113.575ZM242.172 115.884L237.739 111.545L316.962 60.6406L242.172 115.884ZM156.831 105.865L151.184 109.113L99.167 43.1592L156.831 105.865ZM237.73 101.82L232.448 98.1797L296.984 39.4121L237.73 101.82ZM167.543 98.5352L161.294 101.146L127.182 28.2959L167.543 98.5352ZM178.669 94.7773L171.879 95.8506L159.973 17.5684L178.669 94.7773ZM225.685 92.4307L219.437 90.0381L258.639 27.6855L225.685 92.4307ZM210.555 89.3936L203.765 88.4102L219.683 30.5674L210.555 89.3936ZM194.428 87.6104H187.533L190.98 23L194.428 87.6104Z" fill="currentColor"/>
</g>
</g>
</g>
<path opacity="0.8" d="M259.304 70L261.87 78.029L268.804 81L261.87 83.971L259.304 92L256.738 83.971L249.804 81L256.738 78.029L259.304 70Z" fill="currentColor"/>
<path opacity="0.5" d="M281.804 117L283.424 121.379L287.804 123L283.424 124.621L281.804 129L280.183 124.621L275.804 123L280.183 121.379L281.804 117Z" fill="currentColor"/>
<path opacity="0.3" d="M323.804 79L325.424 83.3795L329.804 85L325.424 86.6205L323.804 91L322.183 86.6205L317.804 85L322.183 83.3795L323.804 79Z" fill="currentColor"/>
<path opacity="0.8" d="M96.3037 92L99.1397 100.759L106.804 104L99.1397 107.241L96.3037 116L93.4678 107.241L85.8037 104L93.4678 100.759L96.3037 92Z" fill="currentColor"/>
<path opacity="0.5" d="M61.8037 60L63.4243 64.7444L67.8037 66.5L63.4243 68.2556L61.8037 73L60.1832 68.2556L55.8037 66.5L60.1832 64.7444L61.8037 60Z" fill="currentColor"/>
<path opacity="0.5" d="M23.8037 100L24.614 102.555L26.8037 103.5L24.614 104.445L23.8037 107L22.9934 104.445L20.8037 103.5L22.9934 102.555L23.8037 100Z" fill="currentColor"/>
</g>
<defs>
<filter id="filter0_f_10838_42507" x="22" y="13.5684" width="360" height="270.992" filterUnits="userSpaceOnUse" color-interpolation-filters="sRGB">
<feFlood flood-opacity="0" result="BackgroundImageFix"/>
<feBlend mode="normal" in="SourceGraphic" in2="BackgroundImageFix" result="shape"/>
<feGaussianBlur stdDeviation="2" result="effect1_foregroundBlur_10838_42507"/>
</filter>
<radialGradient id="paint0_radial_10838_42507" cx="0" cy="0" r="1" gradientTransform="matrix(-137.184 135.87 -141.093 -149.667 189.184 154.13)" gradientUnits="userSpaceOnUse">
<stop stop-color="#D9D9D9"/>
<stop offset="1" stop-color="#737373" stop-opacity="0"/>
</radialGradient>
<clipPath id="clip0_10838_42507">
<rect width="390" height="290" fill="white"/>
</clipPath>
</defs>
</svg>
