<svg width="20" height="20" viewBox="0 0 20 20" fill="none" xmlns="http://www.w3.org/2000/svg">
<path d="M8.6088 12.9061C9.16969 12.9052 9.72488 12.7937 10.2426 12.5779C10.7603 12.3621 11.2303 12.0462 11.6258 11.6485L12.1855 11.0887L11.1569 10.06L10.5971 10.6198C10.0904 11.1288 9.40883 11.4256 8.69104 11.4499C7.97325 11.4743 7.27315 11.2242 6.73319 10.7506L6.70047 10.7216C6.66857 10.6942 6.63824 10.6651 6.6096 10.6343L4.30871 8.33342C4.04538 8.07133 3.83642 7.75979 3.69384 7.41671C3.55126 7.07363 3.47786 6.70575 3.47786 6.33422C3.47786 5.96269 3.55126 5.59482 3.69384 5.25174C3.83642 4.90866 4.04538 4.59712 4.30871 4.33502L4.35232 4.29141C4.61442 4.02808 4.92596 3.81912 5.26904 3.67654C5.61212 3.53396 5.97999 3.46056 6.35152 3.46056C6.72305 3.46056 7.09093 3.53396 7.43401 3.67654C7.77709 3.81912 8.08863 4.02808 8.35072 4.29141L9.5248 5.46548C9.55555 5.49412 9.58468 5.52445 9.61203 5.55635L10.0664 6.1234L11.2005 5.21467L10.7316 4.64399C10.6703 4.56994 10.6048 4.49954 10.5353 4.43317L9.36122 3.25909C8.96403 2.86004 8.49191 2.54338 7.97199 2.3273C7.45206 2.11123 6.89457 2 6.33153 2C5.76849 2 5.211 2.11123 4.69108 2.3273C4.17115 2.54338 3.69903 2.86004 3.30184 3.25909L3.25822 3.30271C2.85916 3.69991 2.5425 4.17202 2.32643 4.69195C2.11036 5.21188 1.99912 5.76937 1.99912 6.33241C1.99912 6.89544 2.11036 7.45293 2.32643 7.97286C2.5425 8.49279 2.85916 8.9649 3.25822 9.3621L5.55911 11.663C5.62022 11.7256 5.68453 11.7851 5.75176 11.8411C6.53657 12.5382 7.54824 12.9258 8.5979 12.9316L8.6088 12.9061Z" fill="currentColor"/>
<path d="M13.6694 17.9951C14.2322 17.996 14.7896 17.8853 15.3093 17.6695C15.829 17.4536 16.3008 17.1368 16.6973 16.7374L16.7409 16.6938C17.14 16.2966 17.4566 15.8244 17.6727 15.3045C17.8888 14.7846 18 14.2271 18 13.6641C18 13.101 17.8888 12.5435 17.6727 12.0236C17.4566 11.5037 17.14 11.0316 16.7409 10.6344L14.44 8.33348C14.3789 8.27083 14.3146 8.21138 14.2474 8.15536C13.4313 7.43246 12.3701 7.04834 11.2805 7.08144C10.1908 7.11454 9.15489 7.56237 8.38426 8.33348L7.82448 8.90779L8.85316 9.93647L9.41294 9.37669C9.91963 8.86769 10.6012 8.57083 11.319 8.54653C12.0368 8.52222 12.7369 8.77228 13.2768 9.24584L13.3096 9.27492C13.3415 9.30227 13.3718 9.3314 13.4004 9.36215L15.7013 11.663C15.9647 11.9251 16.1736 12.2367 16.3162 12.5798C16.4588 12.9228 16.5322 13.2907 16.5322 13.6622C16.5322 14.0338 16.4588 14.4016 16.3162 14.7447C16.1736 15.0878 15.9647 15.3994 15.7013 15.6614L15.6577 15.7051C15.3956 15.9684 15.0841 16.1773 14.741 16.3199C14.3979 16.4625 14.03 16.5359 13.6585 16.5359C13.287 16.5359 12.9191 16.4625 12.576 16.3199C12.2329 16.1773 11.9214 15.9684 11.6593 15.7051L10.4852 14.531C10.4545 14.5024 10.4254 14.472 10.398 14.4401L9.94363 13.8731L8.80591 14.7818L9.27845 15.3525C9.33969 15.4265 9.40524 15.4969 9.47473 15.5633L10.6488 16.7374C11.0444 17.1359 11.515 17.4522 12.0334 17.6681C12.5518 17.8839 13.1079 17.995 13.6694 17.9951Z" fill="currentColor"/>
</svg>
