<svg width="18" height="19" viewBox="0 0 18 19" fill="none" xmlns="http://www.w3.org/2000/svg">
<path d="M14.3072 9.59913H15.8357C15.9987 9.59644 16.1542 9.52978 16.2685 9.41352C16.3829 9.29726 16.447 9.14071 16.447 8.97763C16.447 8.81455 16.3829 8.658 16.2685 8.54174C16.1542 8.42548 15.9987 8.35882 15.8357 8.35613H14.3072C14.1441 8.35882 13.9886 8.42548 13.8743 8.54174C13.7599 8.658 13.6958 8.81455 13.6958 8.97763C13.6958 9.14071 13.7599 9.29726 13.8743 9.41352C13.9886 9.52978 14.1441 9.59644 14.3072 9.59913ZM14.3661 7.33715C14.4461 7.33715 14.527 7.32199 14.6053 7.28915L16.015 6.69965C16.0903 6.66821 16.1586 6.62224 16.2161 6.56437C16.2736 6.50651 16.3192 6.43788 16.3501 6.36241C16.3811 6.28695 16.3969 6.20612 16.3966 6.12454C16.3963 6.04297 16.38 5.96225 16.3485 5.88699C16.3171 5.81172 16.2711 5.74339 16.2132 5.68589C16.1554 5.62839 16.0867 5.58285 16.0113 5.55188C15.9358 5.52092 15.855 5.50512 15.7734 5.5054C15.6918 5.50568 15.6111 5.52202 15.5359 5.55351L14.1261 6.143C14.0508 6.17445 13.9825 6.22042 13.925 6.27828C13.8675 6.33615 13.822 6.40477 13.791 6.48024C13.76 6.55571 13.7442 6.63654 13.7445 6.71811C13.7448 6.79969 13.7612 6.88041 13.7926 6.95566C13.8402 7.06855 13.9199 7.16493 14.0219 7.23277C14.1239 7.30061 14.2436 7.33692 14.3661 7.33715ZM16.0159 11.3053L14.6061 10.7158C14.2895 10.5836 13.9257 10.7326 13.7935 11.0493C13.6613 11.3659 13.8103 11.7297 14.127 11.8619L15.5367 12.4514C15.6887 12.5149 15.8597 12.5154 16.012 12.4529C16.1644 12.3904 16.2858 12.2699 16.3494 12.118C16.4127 11.9659 16.4132 11.795 16.3507 11.6426C16.2882 11.4903 16.1678 11.369 16.0159 11.3053ZM11.6696 2.83762L7.06566 5.50466H3.12362C2.25622 5.50466 1.55304 6.20785 1.55304 7.07525V11.099C1.55304 11.9664 2.25622 12.6695 3.12362 12.6695V14.3294C3.12362 15.3442 3.91102 16.2099 4.92579 16.2486C5.99193 16.289 6.87281 15.4334 6.87281 14.3757V12.6695H7.03787L11.6797 15.1244C12.1479 15.372 12.7105 15.0326 12.7105 14.5037V3.45406C12.7096 2.91931 12.1378 2.58077 11.6696 2.83762ZM11.2418 11.6396C11.2418 11.9184 11.0153 12.1449 10.7365 12.1449C10.4578 12.1449 10.2312 11.9184 10.2312 11.6396V7.09377C10.2312 6.81503 10.4578 6.58849 10.7365 6.58849C11.0153 6.58849 11.2418 6.81503 11.2418 7.09377V11.6396Z" fill="currentColor"/>
</svg>
