<svg width="24" height="24" viewBox="0 0 24 24" fill="none" xmlns="http://www.w3.org/2000/svg">
<path d="M15.9 12.6C17.7 11.4 18.9 9.3 18.9 6.9C18.9 3.1 15.8 0 12 0C8.2 0 5.1 3.1 5.1 6.9C5.1 9.3 6.3 11.4 8.1 12.6C3.9 14.2 1 18.2 1 22.9C1 23.5 1.4 23.9 2 23.9C2.6 23.9 3 23.5 3 22.9C3 18 7.1 13.9 12 13.9C16.9 13.9 21 17.9 21 22.9C21 23.5 21.4 23.9 22 23.9C22.6 23.9 23 23.4 23 22.9C23 18.2 20 14.2 15.9 12.6ZM7.1 7C7.1 4.3 9.3 2.1 12 2.1C14.7 2.1 16.9 4.3 16.9 7C16.9 9.7 14.7 11.9 12 11.9C9.3 11.9 7.1 9.7 7.1 7Z" fill="currentColor"/>
</svg>
