<svg width="32" height="32" viewBox="0 0 32 32" fill="none" xmlns="http://www.w3.org/2000/svg">
<path d="M26.4156 20.0273C26.2073 19.4148 25.6224 19.0014 24.9639 19.0014H19.5739C19.2922 19.0014 19.0625 19.2249 19.0625 19.5006V21.0012C19.0625 22.6549 17.6874 24.0024 16 24.0024C14.3126 24.0024 12.9375 22.6549 12.9375 21.0012V19.5006C12.9375 19.2249 12.7078 19.0014 12.4261 19.0014H7.03606C6.37763 19.0014 5.79269 19.4148 5.58444 20.0273L3.75 25.0651V26.5045C3.75 27.3314 4.436 28.0051 5.28125 28.0051H26.7188C27.564 28.0051 28.25 27.3314 28.25 26.5045V25.0651L26.4156 20.0273ZM11.9177 23.0041C11.9177 23.148 11.8564 23.2827 11.7462 23.3777C11.7156 23.4022 11.0143 24.0024 9.875 24.0024C8.73575 24.0024 8.03444 23.4022 8.00381 23.3777C7.89356 23.2827 7.83231 23.148 7.83231 23.0041V22.0026C7.83231 21.8954 7.86906 21.7882 7.93338 21.7025C7.9885 21.629 8.50912 21.0012 9.87194 21.0012C11.2347 21.0012 11.7554 21.629 11.8105 21.7025C11.8779 21.7882 11.9116 21.8954 11.9116 22.0026V23.0041H11.9177ZM24.1677 23.0041C24.1677 23.148 24.1064 23.2827 23.9962 23.3777C23.9656 23.4022 23.2642 24.0024 22.125 24.0024C20.9858 24.0024 20.2844 23.4022 20.2538 23.3777C20.1436 23.2827 20.0823 23.148 20.0823 23.0041V22.0026C20.0823 21.8954 20.1191 21.7882 20.1834 21.7025C20.2385 21.629 20.7591 21.0012 22.1219 21.0012C23.4848 21.0012 24.0054 21.629 24.0605 21.7025C24.1279 21.7882 24.1616 21.8924 24.1616 22.0026V23.0041H24.1677ZM13.9573 13.5807V21.0012C13.9573 22.1037 14.873 23.001 16 23.001C17.127 23.001 18.0427 22.1037 18.0427 21.0012V13.5807C19.8434 12.8059 21.1052 11.045 21.1052 8.99618C21.1052 6.23687 18.8144 3.99512 16 3.99512C13.1856 3.99512 10.8948 6.23993 10.8948 8.99618C10.8948 11.045 12.1566 12.809 13.9573 13.5807Z" fill="currentColor"/>
</svg>
