<svg xmlns="http://www.w3.org/2000/svg" width="32" height="33" viewBox="0 0 32 33" fill="none">
  <path fill-rule="evenodd" clip-rule="evenodd" d="M4.79979 5.5081L15.7558 16.0721L10.8515 1.77185C10.9237 1.74713 10.9961 1.7229 11.0687 1.69917L14.611 0.970082C14.9914 0.935477 15.3757 0.914046 15.7634 0.90625L16.4112 15.5665L22.9542 2.42554C23.8908 2.86512 24.7779 3.39192 25.6049 3.99542L18.1277 15.5665L30.3896 9.54858C31.1764 11.0567 31.7292 12.7051 32 14.4462L18.1277 16.7463L31.9203 19.8499C31.7126 20.9651 31.3888 22.0397 30.9618 23.0609L18.1277 17.589L26.6245 29.0252C25.5091 29.9858 24.2596 30.7965 22.9078 31.4257L17.45 18.2632L15.2756 32.9062C14.653 32.8752 14.0396 32.8089 13.4376 32.7094L12.8756 32.5896L16.4335 18.2632L5.5038 28.9717C4.01281 27.6744 2.7646 26.1078 1.83585 24.3482L15.7558 17.589H0.0140119C0.0047013 17.3654 0 17.1406 0 16.9148C0 16.0731 0.0652717 15.2467 0.191054 14.4401L15.7558 16.7463L2.35086 8.57821C3.03979 7.4565 3.86358 6.4257 4.79979 5.5081Z" fill="url(#paint0_radial_1441_626)" fill-opacity="0.5"/>
  <path d="M19.6013 21.6703V20.2517H19.1926C18.4768 19.0723 16.8956 18.2525 15.0605 18.2525C13.2254 18.2525 11.6437 19.0723 10.9279 20.2517H10.5192V21.6703C10.5192 23.5583 12.5523 25.0884 15.0605 25.0884C17.5686 25.0884 19.6013 23.5605 19.6013 21.6703Z" fill="#E86124"/>
  <path d="M11.861 21.6703V20.2517H12.2697C12.8969 19.2185 14.189 18.4617 15.7313 18.2894C15.5086 18.2648 15.2846 18.2525 15.0605 18.2525C13.225 18.2525 11.6437 19.0723 10.9279 20.2517H10.5192V21.6703C10.5192 23.5583 12.5523 25.0884 15.0605 25.0884C15.2846 25.0886 15.5086 25.0761 15.7313 25.0511C13.5412 24.8072 11.861 23.3869 11.861 21.6703Z" fill="#DC4A26"/>
  <path d="M15.0605 23.6697C17.5685 23.6697 19.6017 22.1393 19.6017 20.2515C19.6017 18.3637 17.5685 16.8334 15.0605 16.8334C12.5524 16.8334 10.5192 18.3637 10.5192 20.2515C10.5192 22.1393 12.5524 23.6697 15.0605 23.6697Z" fill="#F0E92D"/>
  <path d="M15.0603 22.7246C16.8753 22.7246 18.3466 21.6172 18.3466 20.2512C18.3466 18.8851 16.8753 17.7777 15.0603 17.7777C13.2453 17.7777 11.774 18.8851 11.774 20.2512C11.774 21.6172 13.2453 22.7246 15.0603 22.7246Z" fill="#EF8521"/>
  <path d="M12.7377 20.68C12.7377 19.3022 13.7846 18.1414 15.2101 17.7804C15.1603 17.7804 15.1102 17.7773 15.06 17.7773C13.2445 17.7773 11.7733 18.8848 11.7733 20.2508C11.7733 21.13 12.3839 21.8998 13.2999 22.3402C12.937 21.8619 12.7397 21.2793 12.7377 20.68Z" fill="#E86124"/>
  <path d="M19.1221 19.6163V18.1974H18.7134C17.9972 17.0179 16.4164 16.1982 14.5809 16.1982C12.7453 16.1982 11.1646 17.0179 10.4483 18.1974H10.0396V19.6163C10.0396 21.504 12.0727 23.0345 14.5809 23.0345C17.089 23.0345 19.1221 21.504 19.1221 19.6163Z" fill="#E86124"/>
  <path d="M11.3818 19.6163V18.1974H11.7905C12.4173 17.1646 13.7098 16.4078 15.2517 16.2355C15.029 16.2107 14.805 16.1982 14.5809 16.1982C12.7453 16.1982 11.1646 17.0179 10.4483 18.1974H10.0396V19.6163C10.0396 21.504 12.0727 23.0345 14.5809 23.0345C14.805 23.0344 15.029 23.022 15.2517 22.9972C13.062 22.7533 11.3818 21.3326 11.3818 19.6163Z" fill="#DC4A26"/>
  <path d="M14.5809 21.6153C17.0889 21.6153 19.1221 20.085 19.1221 18.1972C19.1221 16.3094 17.0889 14.779 14.5809 14.779C12.0728 14.779 10.0396 16.3094 10.0396 18.1972C10.0396 20.085 12.0728 21.6153 14.5809 21.6153Z" fill="#F0E92D"/>
  <path d="M14.58 20.6706C16.3949 20.6706 17.8663 19.5632 17.8663 18.1971C17.8663 16.8311 16.3949 15.7237 14.58 15.7237C12.765 15.7237 11.2936 16.8311 11.2936 18.1971C11.2936 19.5632 12.765 20.6706 14.58 20.6706Z" fill="#EF8521"/>
  <path d="M12.2581 18.6263C12.2581 17.2485 13.3049 16.0877 14.7304 15.7267C14.6803 15.7267 14.6306 15.7237 14.58 15.7237C12.7649 15.7237 11.2936 16.8311 11.2936 18.1971C11.2936 19.0763 11.9043 19.8461 12.8203 20.2866C12.457 19.8084 12.2597 19.2257 12.2581 18.6263Z" fill="#E86124"/>
  <path d="M19.6013 17.5433V16.1243H19.1926C18.4768 14.9449 16.8956 14.1252 15.0605 14.1252C13.2254 14.1252 11.6437 14.9449 10.9279 16.1243H10.5192V17.5433C10.5192 19.431 12.5523 20.961 15.0605 20.961C17.5686 20.961 19.6013 19.431 19.6013 17.5433Z" fill="#E86124"/>
  <path d="M11.861 17.5433V16.1243H12.2697C12.8969 15.0911 14.189 14.3343 15.7313 14.1625C15.5086 14.1375 15.2846 14.125 15.0605 14.1252C13.225 14.1252 11.6437 14.9449 10.9279 16.1243H10.5192V17.5433C10.5192 19.431 12.5523 20.961 15.0605 20.961C15.2846 20.9611 15.5086 20.9488 15.7313 20.9242C13.5412 20.6799 11.861 19.2591 11.861 17.5433Z" fill="#DC4A26"/>
  <path d="M15.0605 19.5423C17.5685 19.5423 19.6017 18.012 19.6017 16.1242C19.6017 14.2364 17.5685 12.706 15.0605 12.706C12.5524 12.706 10.5192 14.2364 10.5192 16.1242C10.5192 18.012 12.5524 19.5423 15.0605 19.5423Z" fill="#F0E92D"/>
  <path d="M15.0603 18.5972C16.8753 18.5972 18.3466 17.4898 18.3466 16.1238C18.3466 14.7577 16.8753 13.6503 15.0603 13.6503C13.2453 13.6503 11.774 14.7577 11.774 16.1238C11.774 17.4898 13.2453 18.5972 15.0603 18.5972Z" fill="#EF8521"/>
  <path d="M12.7377 16.5525C12.7377 15.1752 13.7846 14.0139 15.2101 13.6529C15.1603 13.6529 15.1102 13.6503 15.06 13.6503C13.2445 13.6503 11.7733 14.7577 11.7733 16.1238C11.7733 17.0029 12.3839 17.7728 13.2999 18.2132C12.9369 17.7347 12.7396 17.152 12.7377 16.5525Z" fill="#E86124"/>
  <path d="M19.1221 15.4893V14.0703H18.7134C17.9972 12.8909 16.4164 12.0711 14.5809 12.0711C12.7453 12.0711 11.1646 12.8909 10.4483 14.0703H10.0396V15.4893C10.0396 17.377 12.0727 18.907 14.5809 18.907C17.089 18.907 19.1221 17.377 19.1221 15.4893Z" fill="#E86124"/>
  <path d="M11.3818 15.4893V14.0703H11.7905C12.4173 13.0371 13.7098 12.2803 15.2517 12.108C15.029 12.0834 14.805 12.0711 14.5809 12.0711C12.7453 12.0711 11.1646 12.8909 10.4483 14.0703H10.0396V15.4893C10.0396 17.377 12.0727 18.907 14.5809 18.907C14.805 18.9072 15.029 18.8947 15.2517 18.8697C13.062 18.6258 11.3818 17.2051 11.3818 15.4893Z" fill="#DC4A26"/>
  <path d="M14.5809 17.4883C17.0889 17.4883 19.1221 15.9579 19.1221 14.0701C19.1221 12.1823 17.0889 10.652 14.5809 10.652C12.0728 10.652 10.0396 12.1823 10.0396 14.0701C10.0396 15.9579 12.0728 17.4883 14.5809 17.4883Z" fill="#F0E92D"/>
  <path d="M14.58 16.5436C16.3949 16.5436 17.8663 15.4362 17.8663 14.0701C17.8663 12.704 16.3949 11.5966 14.58 11.5966C12.765 11.5966 11.2936 12.704 11.2936 14.0701C11.2936 15.4362 12.765 16.5436 14.58 16.5436Z" fill="#EF8521"/>
  <path d="M12.2581 14.4989C12.2581 13.1212 13.3049 11.9604 14.7304 11.5993C14.6803 11.5993 14.6306 11.5963 14.58 11.5963C12.7649 11.5963 11.2936 12.7037 11.2936 14.0698C11.2936 14.9489 11.9043 15.7187 12.8203 16.1592C12.4572 15.6809 12.2599 15.0983 12.2581 14.4989Z" fill="#E86124"/>
  <path d="M27.4292 22.3246V20.9056H27.0205C26.3042 19.7261 24.7235 18.9064 22.8879 18.9064C21.0524 18.9064 19.4712 19.7261 18.7554 20.9056H18.3467V22.3246C18.3467 24.2122 20.3798 25.7427 22.8879 25.7427C25.3961 25.7427 27.4292 24.2109 27.4292 22.3246Z" fill="#E86124"/>
  <path d="M19.6884 22.3246V20.9056H20.0971C20.7244 19.8728 22.0164 19.1156 23.5588 18.9437C23.3361 18.9187 23.1121 18.9063 22.8879 18.9064C21.0524 18.9064 19.4712 19.7261 18.7554 20.9056H18.3467V22.3246C18.3467 24.2122 20.3798 25.7427 22.8879 25.7427C23.1121 25.7427 23.336 25.7302 23.5588 25.7054C21.3691 25.4611 19.6884 24.0408 19.6884 22.3246Z" fill="#DC4A26"/>
  <path d="M22.8879 24.3242C25.396 24.3242 27.4292 22.7939 27.4292 20.9061C27.4292 19.0183 25.396 17.4879 22.8879 17.4879C20.3799 17.4879 18.3467 19.0183 18.3467 20.9061C18.3467 22.7939 20.3799 24.3242 22.8879 24.3242Z" fill="#F0E92D"/>
  <path d="M22.8877 23.3795C24.7027 23.3795 26.174 22.2721 26.174 20.906C26.174 19.54 24.7027 18.4326 22.8877 18.4326C21.0727 18.4326 19.6014 19.54 19.6014 20.906C19.6014 22.2721 21.0727 23.3795 22.8877 23.3795Z" fill="#EF8521"/>
  <path d="M20.5651 21.3348C20.5651 19.9574 21.612 18.7962 23.0375 18.4352C22.9878 18.4352 22.9376 18.4326 22.8875 18.4326C21.0724 18.4326 19.6007 19.54 19.6007 20.906C19.6007 21.7852 20.2114 22.555 21.1274 22.9955C20.7643 22.517 20.567 21.9343 20.5651 21.3348Z" fill="#E86124"/>
  <path d="M26.7358 19.9618V18.5428H26.327C25.6112 17.3634 24.03 16.5436 22.1945 16.5436C20.359 16.5436 18.7782 17.3634 18.0624 18.5428H17.6537V19.9618C17.6537 21.8495 19.6868 23.3795 22.1945 23.3795C24.7022 23.3795 26.7358 21.8495 26.7358 19.9618Z" fill="#E86124"/>
  <path d="M18.9954 19.9618V18.5428H19.4028C20.0301 17.5096 21.3221 16.7528 22.8645 16.5805C22.642 16.5559 22.4184 16.5436 22.1945 16.5436C20.3594 16.5436 18.7782 17.3634 18.0624 18.5428H17.6537V19.9618C17.6537 21.8495 19.6868 23.3795 22.1945 23.3795C22.4188 23.3796 22.6429 23.3673 22.8658 23.3426C20.6757 23.0983 18.9954 21.6776 18.9954 19.9618Z" fill="#DC4A26"/>
  <path d="M22.1949 21.9608C24.703 21.9608 26.7362 20.4304 26.7362 18.5426C26.7362 16.6548 24.703 15.1245 22.1949 15.1245C19.6869 15.1245 17.6537 16.6548 17.6537 18.5426C17.6537 20.4304 19.6869 21.9608 22.1949 21.9608Z" fill="#F0E92D"/>
  <path d="M22.1941 21.0161C24.0091 21.0161 25.4804 19.9087 25.4804 18.5426C25.4804 17.1765 24.0091 16.0691 22.1941 16.0691C20.3791 16.0691 18.9078 17.1765 18.9078 18.5426C18.9078 19.9087 20.3791 21.0161 22.1941 21.0161Z" fill="#EF8521"/>
  <path d="M19.8722 18.9713C19.8722 17.594 20.9191 16.4328 22.3446 16.0717C22.2948 16.07 22.2447 16.0691 22.1941 16.0691C20.3791 16.0691 18.9078 17.1765 18.9078 18.5426C18.9078 19.4218 19.5185 20.1916 20.4345 20.632C20.0714 20.1536 19.8741 19.5708 19.8722 18.9713Z" fill="#E86124"/>
  <path d="M13.5986 19.6499L12.5356 18.7039L12.2629 19.0077C10.902 18.7521 9.23398 19.3783 8.01045 20.7391C6.78691 22.1 6.34679 23.8206 6.75376 25.1358L6.48114 25.4396L7.54415 26.3856C8.95874 27.644 11.4608 27.1567 13.1327 25.2968C14.8047 23.437 15.0132 20.9084 13.5986 19.6499Z" fill="#E86124"/>
  <path d="M8.43812 25.3899L7.37511 24.4439L7.64773 24.1401C7.2918 22.9863 7.58492 21.5247 8.48523 20.2654C8.31803 20.4145 8.15943 20.5729 8.01021 20.7397C6.78886 22.101 6.34656 23.8207 6.75309 25.1369L6.48047 25.4406L7.54348 26.3866C8.95807 27.6451 11.4601 27.1577 13.132 25.2979C13.2815 25.1323 13.4215 24.9584 13.5512 24.7771C11.9085 26.2348 9.72403 26.5342 8.43812 25.3899Z" fill="#DC4A26"/>
  <path d="M12.0688 24.3503C13.7408 22.4906 13.9497 19.9627 12.5353 18.7042C11.1209 17.4457 8.61883 17.933 6.94679 19.7928C5.27476 21.6525 5.06591 24.1804 6.48031 25.4389C7.89472 26.6974 10.3968 26.2101 12.0688 24.3503Z" fill="#F0E92D"/>
  <path d="M11.3608 23.7213C12.5708 22.3755 12.7219 20.5462 11.6984 19.6355C10.6749 18.7248 8.86434 19.0776 7.65436 20.4234C6.44438 21.7692 6.29321 23.5985 7.31671 24.5092C8.34021 25.4199 10.1508 25.0671 11.3608 23.7213Z" fill="#EF8521"/>
  <path d="M8.28006 24.0809C7.24801 23.1627 7.07484 21.6135 7.75662 20.3147C7.72201 20.3503 7.68799 20.3867 7.65455 20.424C6.44454 21.7693 6.29318 23.5992 7.31693 24.5101C7.97559 25.0963 8.96052 25.1584 9.9014 24.7704C9.3001 24.7215 8.73105 24.4795 8.28006 24.0809Z" fill="#E86124"/>
  <defs>
    <radialGradient id="paint0_radial_1441_626" cx="0" cy="0" r="1" gradientUnits="userSpaceOnUse" gradientTransform="translate(16 16.9063) rotate(90) scale(16 16)">
      <stop offset="0.53125" stop-color="#F9F9F9"/>
      <stop offset="1" stop-color="white" stop-opacity="0"/>
    </radialGradient>
  </defs>
</svg>
