<svg width="200" height="200" viewBox="0 0 200 200" fill="none" xmlns="http://www.w3.org/2000/svg">
<g filter="url(#filter0_i_10028_57798)">
<path d="M183.163 101.663C183.163 108.649 174.625 114.393 172.917 120.757C171.21 127.122 175.634 136.669 172.296 142.413C168.959 148.157 158.558 149.011 153.823 153.823C149.088 158.635 148.312 168.881 142.413 172.219C136.514 175.556 127.355 171.132 120.757 172.917C114.16 174.703 108.571 183.163 101.663 183.163C94.755 183.163 89.0112 174.625 82.5688 172.917C76.1264 171.21 67.045 175.634 60.9131 172.219C54.7812 168.804 54.3155 158.558 49.5031 153.823C44.6907 149.088 34.445 148.235 31.0298 142.413C27.6145 136.592 32.194 127.433 30.4088 120.757C28.6236 114.082 20.1631 108.649 20.1631 101.663C20.1631 94.6774 28.7012 88.9336 30.4088 82.5688C32.1164 76.204 27.6921 67.045 31.0298 60.9131C34.3674 54.7812 44.6907 54.3155 49.5031 49.5031C54.3155 44.6907 55.0917 34.445 60.9131 31.0298C66.7345 27.6145 75.8936 32.194 82.5688 30.4088C89.244 28.6236 94.6774 20.1631 101.663 20.1631C108.649 20.1631 114.393 28.7012 120.757 30.4088C127.122 32.1164 136.281 27.6921 142.413 31.0298C148.545 34.3674 149.011 44.6907 153.823 49.5031C158.635 54.3155 168.881 55.0917 172.296 60.9131C175.712 66.7345 171.132 75.8936 172.917 82.5688C174.703 89.244 183.163 94.6774 183.163 101.663Z" fill="#E8FE5C" fill-opacity="0.4"/>
<path d="M94.5704 69.546C96.7315 64.9505 103.268 64.9504 105.43 69.546L110.998 81.3863C111.847 83.1923 113.538 84.4578 115.511 84.7626L128.488 86.7682C133.309 87.5133 135.273 93.3946 131.867 96.887L122.113 106.888C120.784 108.251 120.18 110.163 120.486 112.042L122.727 125.804C123.531 130.748 118.283 134.443 113.9 132.018L102.905 125.935C101.097 124.935 98.9027 124.935 97.0955 125.935L86.0999 132.018C81.7173 134.443 76.4685 130.748 77.2733 125.804L79.5138 112.042C79.8196 110.163 79.216 108.251 77.8872 106.888L68.1332 96.887C64.7272 93.3946 66.6912 87.5133 71.5123 86.7682L84.4892 84.7626C86.4615 84.4578 88.1531 83.1923 89.0024 81.3863L94.5704 69.546Z" fill="#E8FE5C"/>
</g>
<defs>
<filter id="filter0_i_10028_57798" x="20.1631" y="20.1631" width="163" height="163" filterUnits="userSpaceOnUse" color-interpolation-filters="sRGB">
<feFlood flood-opacity="0" result="BackgroundImageFix"/>
<feBlend mode="normal" in="SourceGraphic" in2="BackgroundImageFix" result="shape"/>
<feColorMatrix in="SourceAlpha" type="matrix" values="0 0 0 0 0 0 0 0 0 0 0 0 0 0 0 0 0 0 127 0" result="hardAlpha"/>
<feOffset/>
<feGaussianBlur stdDeviation="5"/>
<feComposite in2="hardAlpha" operator="arithmetic" k2="-1" k3="1"/>
<feColorMatrix type="matrix" values="0 0 0 0 1 0 0 0 0 1 0 0 0 0 1 0 0 0 0.3 0"/>
<feBlend mode="normal" in2="shape" result="effect1_innerShadow_10028_57798"/>
</filter>
</defs>
</svg>
