<svg width="24" height="24" viewBox="0 0 24 24" fill="none" xmlns="http://www.w3.org/2000/svg">
<g clip-path="url(#clip0_12056_32607)">
<path d="M14.4 0.000548114C15.6446 0.000528148 16.8405 0.470467 17.7355 1.31123C18.6305 2.152 19.1546 3.29786 19.1973 4.50711L19.2 4.66711H20.2286C21.2026 4.66703 22.1389 5.03335 22.8414 5.68935C23.5439 6.34535 23.9581 7.24015 23.9973 8.18636L24 8.33369V11.0003C24.0001 11.7486 23.7647 12.479 23.3256 13.0935C22.8864 13.708 22.2644 14.1772 21.5431 14.4382L21.3929 14.4889L21.2571 14.5289V19.0001C21.2571 20.2698 20.7602 21.492 19.8673 22.4186C18.9743 23.3451 17.7522 23.9067 16.4489 23.9893L16.2809 23.9973L16.1143 24H7.88571C6.5506 24 5.26782 23.4952 4.30859 22.5924C3.34936 21.6895 2.78886 20.4594 2.7456 19.1621L2.74286 19.0001V14.5289L2.60709 14.4889C1.90088 14.2657 1.27808 13.845 0.816653 13.2794C0.35523 12.7137 0.0756886 12.0283 0.0130286 11.309L0.00274316 11.1476L1.21889e-08 11.0003V8.33369C-7.82488e-05 7.38671 0.376714 6.47642 1.05147 5.79346C1.72623 5.1105 2.64661 4.70783 3.61989 4.66978L3.77143 4.66711H4.8C4.7999 3.84791 5.02162 3.04312 5.44287 2.33364C5.86411 1.62415 6.47005 1.03498 7.19976 0.625337C7.92946 0.215696 8.75724 2.40508e-05 9.59986 2.0114e-09C10.4425 -2.40467e-05 11.2703 0.215601 12 0.625201C12.7294 0.214994 13.5574 -0.000500193 14.4 0.000548114ZM18.0425 6.6664L18.0288 6.66706H3.77143C3.33619 6.667 2.91723 6.82788 2.59951 7.11708C2.2818 7.40628 2.08912 7.80214 2.06057 8.22436L2.05714 8.33369V11.0003C2.05708 11.4234 2.22256 11.8308 2.52003 12.1396C2.81749 12.4485 3.22467 12.6358 3.65897 12.6636L3.87017 12.6716C4.10786 12.6937 4.33021 12.7956 4.49912 12.9597C4.66802 13.1237 4.77294 13.3398 4.79589 13.5709L4.8 13.6669V19.0001C4.8 19.7713 5.10546 20.5128 5.65298 21.0708C6.2005 21.6288 6.94801 21.9604 7.74034 21.9967L7.88571 22H16.1143C16.9075 22 17.6702 21.7031 18.2442 21.1708C18.8181 20.6385 19.1592 19.9118 19.1966 19.1414L19.2 19.0001V13.6669C19.2 13.4183 19.2953 13.1787 19.4672 12.9946C19.6391 12.8106 19.8753 12.6955 20.1298 12.6716L20.341 12.6636C20.7558 12.637 21.1465 12.4648 21.4404 12.1791C21.7343 11.8933 21.9114 11.5135 21.9387 11.1103L21.9429 11.0003V8.33369C21.9429 7.91056 21.7774 7.50324 21.48 7.19435C21.1825 6.88547 20.7753 6.69815 20.341 6.6704L20.2286 6.66706L18.0425 6.6664ZM9.6 2.0005C8.89629 2.0005 8.2195 2.26345 7.70961 2.73497C7.19973 3.20648 6.89576 3.85049 6.86057 4.53378L6.85714 4.66711H12.3429L12.3415 4.58711L12.336 4.47511L12.3278 4.38378L12.3099 4.25045L12.2825 4.10645L12.251 3.98046L12.2126 3.85179L12.1666 3.72446L12.1317 3.63847C12.0869 3.53473 12.0353 3.43386 11.9774 3.33647L11.8869 3.19381L11.8251 3.10714L11.7813 3.04981L11.6942 2.94448L11.5845 2.82582L11.4679 2.71449L11.3451 2.60982C10.9339 2.27935 10.4321 2.0731 9.90171 2.0165L9.73714 2.00317L9.6 2.0005ZM14.4 2.0005C14.2382 2.0005 14.0784 2.01384 13.9227 2.0405L13.7685 2.07117L13.6162 2.1105L13.7397 2.30383L13.8521 2.50049L13.9433 2.67849C14.0277 2.85182 14.101 3.03048 14.1627 3.21447L14.2313 3.43847L14.2917 3.67846C14.3314 3.85513 14.3602 4.03646 14.3781 4.22045L14.3925 4.40245L14.3973 4.49845L14.4 4.66711H17.1429C17.1429 4.00635 16.8906 3.36911 16.4349 2.87889C15.9792 2.38868 15.3525 2.08041 14.6763 2.01384L14.5371 2.00384L14.4 2.0005Z" fill="currentColor"/>
<path d="M15.4285 12.3335C15.6927 12.3336 15.9467 12.4325 16.1378 12.6098C16.329 12.787 16.4427 13.0289 16.4554 13.2854C16.4681 13.5419 16.3788 13.7933 16.206 13.9876C16.0332 14.1818 15.7902 14.304 15.5273 14.3288L15.4285 14.3335H8.5714C8.30725 14.3333 8.05328 14.2344 7.8621 14.0572C7.67093 13.88 7.55722 13.638 7.54452 13.3815C7.53183 13.125 7.62113 12.8736 7.79392 12.6794C7.96671 12.4851 8.20974 12.3629 8.47266 12.3382L8.5714 12.3335H15.4285Z" fill="currentColor"/>
</g>
<defs>
<clipPath id="clip0_12056_32607">
<rect width="24" height="24" fill="white"/>
</clipPath>
</defs>
</svg>
