<svg width="24" height="24" viewBox="0 0 24 24" fill="none" xmlns="http://www.w3.org/2000/svg">
<mask id="mask0_5_283192" style="mask-type:luminance" maskUnits="userSpaceOnUse" x="2" y="2" width="20" height="20">
<path d="M22 2H2V22H22V2Z" fill="white"/>
</mask>
<g mask="url(#mask0_5_283192)">
</g>
<g filter="url(#filter0_i_5_283192)">
<path d="M20.3 12.15C20.3 12.8486 19.4462 13.423 19.2754 14.0594C19.1047 14.6959 19.5471 15.6506 19.2133 16.225C18.8796 16.7994 17.8395 16.8848 17.366 17.366C16.8925 17.8472 16.8149 18.8718 16.225 19.2056C15.6351 19.5393 14.7192 19.0969 14.0594 19.2754C13.3997 19.454 12.8408 20.3 12.15 20.3C11.4592 20.3 10.8848 19.4462 10.2406 19.2754C9.59633 19.1047 8.68819 19.5471 8.075 19.2056C7.46181 18.864 7.41524 17.8395 6.934 17.366C6.45276 16.8925 5.42819 16.8071 5.08667 16.225C4.74514 15.6429 5.2031 14.727 5.02457 14.0594C4.84605 13.3919 4 12.8486 4 12.15C4 11.4514 4.85381 10.877 5.02457 10.2406C5.19533 9.60409 4.7529 8.68819 5.08667 8.075C5.42043 7.46181 6.45276 7.41524 6.934 6.934C7.41524 6.45276 7.49286 5.42819 8.075 5.08667C8.65714 4.74514 9.57305 5.2031 10.2406 5.02457C10.9081 4.84605 11.4514 4 12.15 4C12.8486 4 13.423 4.85381 14.0594 5.02457C14.6959 5.19533 15.6118 4.7529 16.225 5.08667C16.8382 5.42043 16.8848 6.45276 17.366 6.934C17.8472 7.41524 18.8718 7.49286 19.2133 8.075C19.5549 8.65714 19.0969 9.57305 19.2754 10.2406C19.454 10.9081 20.3 11.4514 20.3 12.15Z" fill="#19CC10" fill-opacity="0.4"/>
</g>
<path d="M11.638 8.56954C11.7821 8.26317 12.2179 8.26317 12.362 8.56954L13.145 10.2347C13.2017 10.3551 13.3144 10.4395 13.4459 10.4598L15.2325 10.7359C15.5539 10.7856 15.6848 11.1777 15.4578 11.4105L14.1409 12.7608C14.0523 12.8517 14.012 12.9792 14.0324 13.1044L14.3388 14.9868C14.3925 15.3163 14.0426 15.5627 13.7504 15.401L12.1936 14.5398C12.0732 14.4731 11.9268 14.4731 11.8064 14.5398L10.2496 15.401C9.95742 15.5627 9.6075 15.3163 9.66115 14.9868L9.96758 13.1044C9.98797 12.9792 9.94773 12.8517 9.85914 12.7608L8.54222 11.4105C8.31515 11.1777 8.44608 10.7856 8.76748 10.7359L10.5541 10.4598C10.6856 10.4395 10.7983 10.3551 10.855 10.2347L11.638 8.56954Z" fill="#19CC10"/>
<defs>
<filter id="filter0_i_5_283192" x="4" y="4" width="16.2998" height="16.2998" filterUnits="userSpaceOnUse" color-interpolation-filters="sRGB">
<feFlood flood-opacity="0" result="BackgroundImageFix"/>
<feBlend mode="normal" in="SourceGraphic" in2="BackgroundImageFix" result="shape"/>
<feColorMatrix in="SourceAlpha" type="matrix" values="0 0 0 0 0 0 0 0 0 0 0 0 0 0 0 0 0 0 127 0" result="hardAlpha"/>
<feOffset/>
<feGaussianBlur stdDeviation="0.5"/>
<feComposite in2="hardAlpha" operator="arithmetic" k2="-1" k3="1"/>
<feColorMatrix type="matrix" values="0 0 0 0 1 0 0 0 0 1 0 0 0 0 1 0 0 0 0.3 0"/>
<feBlend mode="normal" in2="shape" result="effect1_innerShadow_5_283192"/>
</filter>
</defs>
</svg>
