<svg width="32" height="33" viewBox="0 0 32 33" fill="none" xmlns="http://www.w3.org/2000/svg">
<path d="M20.4738 7.61098C20.4738 6.72262 19.7293 6 18.8162 6H12.1843C11.2702 6 10.5262 6.72287 10.5262 7.61098V25.9997H20.4751V15.637L20.4738 7.61098ZM16.0645 11.1429H15.2573V8.64355H14.2569V8.0541C14.3931 8.05855 14.5293 8.04851 14.6632 8.02416C14.7875 8.0026 14.9069 7.95966 15.0161 7.89729C15.127 7.83403 15.2214 7.74612 15.292 7.64053C15.3625 7.53493 15.4071 7.41455 15.4224 7.28895H16.0645L16.0645 11.1429ZM2 13.0785V24.394C2 25.2795 2.74451 26 3.65758 26H9.07865V11.4576H3.69429C2.75965 11.4576 2 12.1847 2 13.0785ZM6.0025 13.5091C5.89084 13.404 5.74752 13.3514 5.57362 13.3514C5.46827 13.3477 5.36419 13.3751 5.27476 13.4303C5.19319 13.4837 5.12587 13.5558 5.07852 13.6404C5.02793 13.7298 4.99203 13.8265 4.97215 13.927C4.95166 14.0292 4.94124 14.1332 4.94105 14.2375H4.16916C4.16009 14.03 4.18707 13.8226 4.24894 13.6241C4.30532 13.4426 4.3982 13.2742 4.52201 13.129C4.64665 12.9855 4.80317 12.8725 4.97935 12.7988C5.18021 12.7165 5.39611 12.6761 5.61351 12.6801C5.79013 12.6794 5.96566 12.7075 6.13307 12.7631C6.29166 12.8145 6.43917 12.8947 6.56806 12.9995C6.69413 13.1034 6.79591 13.2331 6.8664 13.3796C6.94194 13.5378 6.97987 13.711 6.97728 13.886C6.97728 14.0804 6.94537 14.2472 6.88076 14.3872C6.8178 14.5246 6.73126 14.6503 6.62496 14.7586C6.51605 14.8695 6.39504 14.9682 6.26415 15.0528C6.1296 15.1404 5.99409 15.2279 5.8576 15.3155C5.72112 15.4031 5.58817 15.4957 5.45875 15.5934C5.32944 15.6928 5.21473 15.8095 5.11788 15.9401H6.99934V16.612H4.07822C4.07822 16.3877 4.11137 16.193 4.17767 16.0279C4.24203 15.8662 4.33324 15.7164 4.44756 15.5845C4.56687 15.4496 4.7013 15.3286 4.84827 15.2238C5.00231 15.1142 5.16432 15.0024 5.33431 14.8884C5.42153 14.8297 5.5145 14.7699 5.61324 14.709C5.70906 14.6502 5.79938 14.5832 5.88311 14.5085C5.96336 14.4364 6.03228 14.3528 6.0876 14.2606C6.14352 14.1653 6.17203 14.0568 6.17004 13.9467C6.17004 13.7593 6.11419 13.6134 6.0025 13.5091ZM27.307 15.5508H21.9232V26H27.3424C28.2568 26 29 25.2795 29 24.394V17.1836C29 16.2834 28.2409 15.5508 27.307 15.5508ZM26.8178 20.1009C26.7392 20.2549 26.6275 20.3902 26.4905 20.4972C26.3497 20.6058 26.1899 20.6877 26.019 20.7389C25.8383 20.7945 25.65 20.8225 25.4607 20.8219C25.253 20.8242 25.0463 20.7925 24.8491 20.7281C24.6751 20.6715 24.5154 20.5786 24.3809 20.4557C24.2504 20.3335 24.1488 20.1844 24.0833 20.0189C24.0102 19.8293 23.9764 19.627 23.9839 19.4242H24.751C24.7545 19.5243 24.7716 19.6234 24.8021 19.7189C24.8298 19.8073 24.8743 19.8897 24.9331 19.9616C24.9914 20.0301 25.064 20.0853 25.1459 20.1235C25.2413 20.166 25.3453 20.1867 25.45 20.1839C25.6322 20.1839 25.7853 20.1313 25.9106 20.0223C26.0358 19.9134 26.0967 19.7662 26.0967 19.5789C26.0967 19.4322 26.0674 19.3202 26.0087 19.243C25.9514 19.167 25.8735 19.1086 25.784 19.0746C25.6884 19.0392 25.5877 19.0188 25.4857 19.0142C25.3777 19.0089 25.2743 19.006 25.1759 19.006V18.4544C25.2685 18.4618 25.3616 18.4618 25.4543 18.4544C25.549 18.4482 25.6421 18.4269 25.73 18.3914C25.8118 18.3589 25.884 18.3068 25.9404 18.2398C25.9951 18.1736 26.0225 18.0855 26.0225 17.9753C26.0225 17.8102 25.9656 17.6835 25.8518 17.5952C25.7402 17.5083 25.6017 17.4619 25.4596 17.4639C25.2549 17.4639 25.1009 17.5293 24.9962 17.6593C24.8914 17.7893 24.8417 17.954 24.8457 18.1518H24.0807C24.0858 17.9662 24.1232 17.7828 24.1913 17.6097C24.2535 17.4514 24.3486 17.3079 24.4705 17.1883C24.5925 17.0688 24.7385 16.9759 24.8991 16.9157C25.0775 16.8492 25.2669 16.8165 25.4575 16.8193C25.6196 16.8196 25.7807 16.843 25.9361 16.8886C26.0903 16.9319 26.2356 17.0017 26.3653 17.0948C26.4906 17.1848 26.596 17.2991 26.675 17.4308C26.7566 17.5694 26.798 17.7275 26.7947 17.8878C26.798 18.0628 26.7495 18.2349 26.6551 18.383C26.5624 18.5264 26.423 18.6237 26.2371 18.6748V18.6861C26.4551 18.7341 26.6269 18.8369 26.7524 18.9945C26.8779 19.1521 26.9399 19.3411 26.9385 19.5616C26.9423 19.7483 26.9009 19.9331 26.8178 20.1009Z" fill="#50BF5A"/>
</svg>
