<svg width="366" height="120" viewBox="0 0 366 120" fill="none" xmlns="http://www.w3.org/2000/svg">
<g clip-path="url(#clip0_14180_35688)">
<path opacity="0.2" d="M421.205 -16L375.128 -16L308.564 99.1L355.128 98L421.205 -16Z" fill="url(#paint0_linear_14180_35688)"/>
<path opacity="0.4" d="M375.564 -16L329.487 -16L262.923 99.1L309.487 98L375.564 -16Z" fill="url(#paint1_linear_14180_35688)"/>
<path opacity="0.6" d="M329.923 -16L283.846 -16L217.282 99.1L263.846 98L329.923 -16Z" fill="url(#paint2_linear_14180_35688)"/>
<path opacity="0.8" d="M284.282 -16L238.205 -16L171.641 99.1L218.205 98L284.282 -16Z" fill="url(#paint3_linear_14180_35688)"/>
<path d="M238.641 -16L192.564 -16L126 99.1L172.564 98L238.641 -16Z" fill="url(#paint4_linear_14180_35688)"/>
<path opacity="0.2" d="M-56 -16L-9.92309 -16L56.641 99.1L10.0769 98L-56 -16Z" fill="url(#paint5_linear_14180_35688)"/>
<path opacity="0.4" d="M-10.3589 -16L35.718 -16L102.282 99.1L55.718 98L-10.3589 -16Z" fill="url(#paint6_linear_14180_35688)"/>
<path opacity="0.6" d="M35.282 -16L81.3589 -16L147.923 99.1L101.359 98L35.282 -16Z" fill="url(#paint7_linear_14180_35688)"/>
<path opacity="0.8" d="M80.9231 -16L127 -16L193.564 99.1L147 98L80.9231 -16Z" fill="url(#paint8_linear_14180_35688)"/>
<path d="M126.564 -16L172.641 -16L239.205 99.1L192.641 98L126.564 -16Z" fill="url(#paint9_linear_14180_35688)"/>
</g>
<defs>
<linearGradient id="paint0_linear_14180_35688" x1="386.203" y1="46.5" x2="345.703" y2="23.1173" gradientUnits="userSpaceOnUse">
<stop stop-color="#606060" stop-opacity="0.06"/>
<stop offset="1" stop-color="#606060" stop-opacity="0.3"/>
</linearGradient>
<linearGradient id="paint1_linear_14180_35688" x1="340.562" y1="46.5" x2="300.062" y2="23.1173" gradientUnits="userSpaceOnUse">
<stop stop-color="#606060" stop-opacity="0.06"/>
<stop offset="1" stop-color="#606060" stop-opacity="0.3"/>
</linearGradient>
<linearGradient id="paint2_linear_14180_35688" x1="294.921" y1="46.5" x2="254.421" y2="23.1173" gradientUnits="userSpaceOnUse">
<stop stop-color="#606060" stop-opacity="0.06"/>
<stop offset="1" stop-color="#606060" stop-opacity="0.3"/>
</linearGradient>
<linearGradient id="paint3_linear_14180_35688" x1="249.28" y1="46.5" x2="208.78" y2="23.1173" gradientUnits="userSpaceOnUse">
<stop stop-color="#606060" stop-opacity="0.06"/>
<stop offset="1" stop-color="#606060" stop-opacity="0.3"/>
</linearGradient>
<linearGradient id="paint4_linear_14180_35688" x1="203.639" y1="46.5" x2="163.139" y2="23.1173" gradientUnits="userSpaceOnUse">
<stop stop-color="#606060" stop-opacity="0.06"/>
<stop offset="1" stop-color="#606060" stop-opacity="0.3"/>
</linearGradient>
<linearGradient id="paint5_linear_14180_35688" x1="-20.998" y1="46.5" x2="19.502" y2="23.1173" gradientUnits="userSpaceOnUse">
<stop stop-color="#606060" stop-opacity="0.06"/>
<stop offset="1" stop-color="#606060" stop-opacity="0.3"/>
</linearGradient>
<linearGradient id="paint6_linear_14180_35688" x1="24.6431" y1="46.5" x2="65.1431" y2="23.1173" gradientUnits="userSpaceOnUse">
<stop stop-color="#606060" stop-opacity="0.06"/>
<stop offset="1" stop-color="#606060" stop-opacity="0.3"/>
</linearGradient>
<linearGradient id="paint7_linear_14180_35688" x1="70.2839" y1="46.5" x2="110.784" y2="23.1173" gradientUnits="userSpaceOnUse">
<stop stop-color="#606060" stop-opacity="0.06"/>
<stop offset="1" stop-color="#606060" stop-opacity="0.3"/>
</linearGradient>
<linearGradient id="paint8_linear_14180_35688" x1="115.925" y1="46.5" x2="156.425" y2="23.1173" gradientUnits="userSpaceOnUse">
<stop stop-color="#606060" stop-opacity="0.06"/>
<stop offset="1" stop-color="#606060" stop-opacity="0.3"/>
</linearGradient>
<linearGradient id="paint9_linear_14180_35688" x1="161.566" y1="46.5" x2="202.066" y2="23.1173" gradientUnits="userSpaceOnUse">
<stop stop-color="#606060" stop-opacity="0.06"/>
<stop offset="1" stop-color="#606060" stop-opacity="0.3"/>
</linearGradient>
<clipPath id="clip0_14180_35688">
<rect width="366" height="120" fill="white"/>
</clipPath>
</defs>
</svg>
