<svg width="24" height="24" viewBox="0 0 24 24" fill="none" xmlns="http://www.w3.org/2000/svg">
<path fill-rule="evenodd" clip-rule="evenodd" d="M5.76914 3H18.2307C18.5978 3.00042 18.9497 3.14643 19.2093 3.40601C19.4689 3.66558 19.6149 4.01752 19.6153 4.38462V19.6154C19.6149 19.9825 19.4689 20.3344 19.2093 20.594C18.9497 20.8536 18.5978 20.9996 18.2307 21H5.76914C5.40204 20.9996 5.0501 20.8536 4.79053 20.594C4.53095 20.3344 4.38494 19.9825 4.38452 19.6154V4.38462C4.38494 4.01752 4.53095 3.66558 4.79053 3.40601C5.0501 3.14643 5.40204 3.00042 5.76914 3ZM7.69231 15H16.2308C16.4144 15 16.5905 15.0729 16.7203 15.2028C16.8501 15.3326 16.9231 15.5087 16.9231 15.6923C16.9231 15.8759 16.8501 16.052 16.7203 16.1818C16.5905 16.3117 16.4144 16.3846 16.2308 16.3846H7.69231C7.5087 16.3846 7.3326 16.3117 7.20277 16.1818C7.07294 16.052 7 15.8759 7 15.6923C7 15.5087 7.07294 15.3326 7.20277 15.2028C7.3326 15.0729 7.5087 15 7.69231 15ZM11.2308 17H7.69231C7.5087 17 7.3326 17.0729 7.20277 17.2028C7.07294 17.3326 7 17.5087 7 17.6923C7 17.8759 7.07294 18.052 7.20277 18.1818C7.3326 18.3117 7.5087 18.3846 7.69231 18.3846H11.2308C11.4144 18.3846 11.5905 18.3117 11.7203 18.1818C11.8501 18.052 11.9231 17.8759 11.9231 17.6923C11.9231 17.5087 11.8501 17.3326 11.7203 17.2028C11.5905 17.0729 11.4144 17 11.2308 17ZM15.903 13.9952C16.0848 14.0211 16.2694 13.9736 16.4162 13.8634C16.563 13.7531 16.6599 13.589 16.6858 13.4072C16.7116 13.2254 16.6641 13.0408 16.5538 12.894C15.9403 12.0719 15.1219 11.425 14.1804 11.0178C14.6958 10.5472 15.057 9.93166 15.2164 9.25208C15.3758 8.5725 15.326 7.8606 15.0736 7.20982C14.8212 6.55903 14.3779 5.99975 13.802 5.60539C13.2261 5.21102 12.5443 5 11.8463 5C11.1483 5 10.4666 5.21104 9.89062 5.60541C9.31468 5.99978 8.87142 6.55907 8.61902 7.20986C8.36661 7.86065 8.31686 8.57255 8.47628 9.25213C8.63571 9.9317 8.99686 10.5472 9.51235 11.0179C8.57074 11.4251 7.75234 12.072 7.13877 12.8942C7.02849 13.041 6.98106 13.2256 7.00689 13.4074C7.03272 13.5892 7.12971 13.7533 7.27652 13.8635C7.42333 13.9738 7.60793 14.0213 7.78972 13.9954C7.9715 13.9696 8.13558 13.8726 8.24586 13.7258C8.66508 13.1669 9.20868 12.7132 9.8336 12.4007C10.4585 12.0883 11.1476 11.9256 11.8463 11.9256C12.545 11.9255 13.2341 12.0882 13.859 12.4006C14.484 12.7131 15.0276 13.1667 15.4468 13.7256C15.5571 13.8724 15.7212 13.9694 15.903 13.9952ZM13.5731 9.61801C13.8013 9.27646 13.9231 8.87491 13.9231 8.46413C13.9225 7.91349 13.7035 7.38558 13.3141 6.99622C12.9248 6.60686 12.3969 6.38784 11.8462 6.38721C11.4354 6.38721 11.0339 6.50902 10.6923 6.73723C10.3508 6.96545 10.0846 7.28982 9.92738 7.66933C9.77019 8.04883 9.72906 8.46643 9.8092 8.86932C9.88933 9.2722 10.0871 9.64227 10.3776 9.93274C10.6681 10.2232 11.0381 10.421 11.441 10.5011C11.8439 10.5813 12.2615 10.5402 12.641 10.383C13.0205 10.2258 13.3449 9.95955 13.5731 9.61801Z" fill="currentColor" />
</svg>
