<svg width="24" height="24" viewBox="0 0 24 24" fill="none" xmlns="http://www.w3.org/2000/svg">
<path d="M19.344 5.21121H17.0688V3.74511C17.0688 3.23943 16.5828 2.88291 16.1076 3.0357L12.0972 4.33446C12.036 4.35629 11.9676 4.35629 11.9064 4.33446L7.896 3.0357C7.4208 2.88291 6.9348 3.23943 6.9348 3.74511V5.21121H4.656C3.7452 5.21121 3 5.96427 3 6.88468C3 7.80508 3.7452 8.55814 4.656 8.55814H19.344C20.2548 8.55814 21 7.80508 21 6.88468C21 5.96427 20.2548 5.21121 19.344 5.21121ZM17.8356 9.3585H6.168C5.6532 9.3585 5.2356 9.7805 5.2356 10.3007V19.0719C5.2356 20.1305 6.096 21 7.1436 21H16.8636C17.9148 21 18.7716 20.1305 18.7716 19.0719V10.3007C18.768 9.7805 18.3504 9.3585 17.8356 9.3585ZM14.5164 14.6408L13.7352 15.4121C13.6344 15.5139 13.5876 15.6558 13.6092 15.8013L13.7928 16.8891C13.854 17.2456 13.4832 17.5185 13.1628 17.3511L12.1944 16.8382C12.0684 16.7727 11.9172 16.7727 11.7912 16.8382L10.8228 17.3511C10.506 17.5185 10.1316 17.2456 10.1928 16.8891L10.3764 15.8013C10.4016 15.6595 10.3548 15.5139 10.2504 15.4121L9.4764 14.6408C9.2208 14.3862 9.3612 13.946 9.7176 13.895L10.7976 13.735C10.938 13.7131 11.0604 13.6258 11.1252 13.4949L11.6076 12.5053C11.766 12.1816 12.2268 12.1816 12.3852 12.5053L12.8676 13.4949C12.9324 13.6258 13.0512 13.7131 13.1952 13.735L14.2752 13.895C14.6316 13.946 14.772 14.3862 14.5164 14.6408Z" fill="currentColor"/>
</svg>
