<svg width="24" height="25" viewBox="0 0 24 25" fill="none" xmlns="http://www.w3.org/2000/svg">
<path fill-rule="evenodd" clip-rule="evenodd" d="M5.76938 21.8828H18.2309C18.598 21.8824 18.95 21.7364 19.2095 21.4768C19.4691 21.2172 19.6151 20.8653 19.6155 20.4982V5.26743C19.6151 4.90033 19.4691 4.5484 19.2095 4.28882C18.95 4.02925 18.598 3.88323 18.2309 3.88281H5.76938C5.40229 3.88323 5.05035 4.02925 4.79077 4.28882C4.5312 4.5484 4.38519 4.90033 4.38477 5.26743V20.4982C4.38519 20.8653 4.5312 21.2172 4.79077 21.4768C5.05035 21.7364 5.40229 21.8824 5.76938 21.8828ZM14.7694 19.8059H9.23092C9.04731 19.8059 8.87122 19.733 8.74138 19.6031C8.61155 19.4733 8.53861 19.2972 8.53861 19.1136C8.53861 18.93 8.61155 18.7539 8.74138 18.624C8.87122 18.4942 9.04731 18.4213 9.23092 18.4213H14.7694C14.953 18.4213 15.1291 18.4942 15.2589 18.624C15.3887 18.7539 15.4617 18.93 15.4617 19.1136C15.4617 19.2972 15.3887 19.4733 15.2589 19.6031C15.1291 19.733 14.953 19.8059 14.7694 19.8059ZM9.15361 10.5681H10.3553C10.3326 10.2968 10.268 10.056 10.1614 9.84579C10.0549 9.63556 9.91426 9.45872 9.73955 9.31525C9.56483 9.17037 9.36171 9.06028 9.13017 8.985C8.89864 8.90971 8.64509 8.87207 8.36952 8.87207C7.97747 8.87207 7.62236 8.95801 7.30418 9.12988C6.986 9.30034 6.73315 9.55247 6.54565 9.88627C6.35815 10.2187 6.2644 10.6278 6.2644 11.1135C6.2644 11.5965 6.35602 12.0049 6.53926 12.3387C6.72392 12.6725 6.97463 12.9253 7.29139 13.0972C7.60957 13.2691 7.96895 13.355 8.36952 13.355C8.68912 13.355 8.96966 13.306 9.21114 13.208C9.45261 13.11 9.65503 12.9807 9.81838 12.8202C9.98315 12.6583 10.1103 12.4822 10.1998 12.2918C10.2893 12.1001 10.3411 11.9118 10.3553 11.7272L9.15361 11.7187C9.1394 11.8124 9.11171 11.8969 9.07051 11.9722C9.03074 12.0461 8.97889 12.1093 8.91497 12.1618C8.85105 12.2144 8.77577 12.2549 8.68912 12.2833C8.60247 12.3103 8.50446 12.3238 8.39509 12.3238C8.20332 12.3238 8.03926 12.279 7.9029 12.1895C7.76654 12.0986 7.66213 11.9637 7.58969 11.7847C7.51867 11.6043 7.48315 11.3806 7.48315 11.1135C7.48315 10.8607 7.51796 10.6441 7.58756 10.4637C7.65858 10.2833 7.76227 10.1448 7.89864 10.0482C8.03642 9.95162 8.20475 9.90332 8.40361 9.90332C8.51725 9.90332 8.61881 9.91966 8.7083 9.95233C8.79778 9.98358 8.87378 10.029 8.93628 10.0887C9.0002 10.1469 9.04992 10.2165 9.08543 10.2975C9.12236 10.3785 9.14509 10.4687 9.15361 10.5681ZM10.8928 13.2953V8.93164H12.7763C13.1002 8.93164 13.3836 8.99556 13.6265 9.1234C13.8694 9.25124 14.0583 9.43093 14.1932 9.66246C14.3282 9.894 14.3957 10.1646 14.3957 10.4743C14.3957 10.7868 14.3261 11.0574 14.1869 11.286C14.0491 11.5147 13.8552 11.6909 13.6052 11.8145C13.3566 11.938 13.0661 11.9998 12.7337 11.9998H12.0775V13.2953H10.8928ZM12.0775 11.0794H12.4951C12.6343 11.0794 12.7529 11.0552 12.8509 11.0069C12.9504 10.9572 13.0263 10.8869 13.0789 10.796C13.1329 10.7051 13.1599 10.5978 13.1599 10.4743C13.1599 10.3493 13.1329 10.2427 13.0789 10.1547C13.0263 10.0652 12.9504 9.99698 12.8509 9.95011C12.7529 9.90181 12.6343 9.87766 12.4951 9.87766H12.0775V11.0794ZM14.8303 13.2953V8.93164H17.8985V9.88619H16.015V10.6362H17.711V11.5907H16.015V13.2953H14.8303Z" fill="currentColor" />
</svg>
