<svg width="24" height="25" viewBox="0 0 24 25" fill="none" xmlns="http://www.w3.org/2000/svg">
<g id="Base/serivce">
<path id="Vector" d="M12.0821 17.7615C12.17 17.7615 12.2595 17.7561 12.3496 17.7454C13.2137 17.6417 13.9475 17.0377 14.2183 16.2054C14.2388 16.1431 14.2093 16.0764 14.1496 16.0491C14.0907 16.0216 14.0194 16.0453 13.9861 16.1012C13.9829 16.1065 13.6396 16.661 12.303 16.8416C12.103 16.8684 11.9083 16.8825 11.7237 16.8825C10.7873 16.8819 10.37 16.5289 10.3662 16.5257C10.3191 16.4838 10.2472 16.4827 10.1989 16.5235C10.1501 16.5643 10.1389 16.6353 10.1721 16.6896C10.5798 17.3504 11.3112 17.7615 12.0821 17.7615ZM19.2687 9.47818C19.2569 9.47818 19.2461 9.48035 19.2349 9.48035C18.4518 6.08992 15.4595 3.56079 11.8718 3.56079C8.18541 3.56079 5.1244 6.22958 4.44595 9.76033C3.78628 9.87905 3.28418 10.4589 3.28418 11.1601V13.9665C3.28418 14.753 3.91494 15.3909 4.69375 15.3909C5.13306 15.3909 5.52083 15.1834 5.77878 14.8648C6.40206 16.5133 7.67093 17.8425 9.27674 18.5438C9.28057 18.5354 9.31097 18.4763 9.34756 18.4292C9.37284 18.3965 9.40117 18.3698 9.42547 18.3698C9.45066 18.3698 9.47377 18.3789 9.49354 18.3928C9.12189 18.1161 7.77944 16.6938 7.48865 14.709C7.36107 13.8353 8.01543 12.9777 8.77752 12.8359C10.001 12.6081 11.218 12.3486 12.4414 12.1251C13.2192 11.9832 13.7506 11.5566 14.0757 10.8462C14.1518 10.6802 14.2618 10.3445 14.3123 9.86026C14.3256 9.78826 14.3847 9.73298 14.4603 9.73298C14.5108 9.73298 14.5537 9.75875 14.5821 9.79584L14.6158 9.77489C15.098 10.475 16.0543 12.0251 16.1916 13.6596C16.3493 15.5284 16.2614 16.8083 14.831 18.1177C14.8293 18.1194 14.8271 18.1215 14.8251 18.1231C14.8052 18.1446 14.7934 18.1725 14.7934 18.2032C14.7934 18.2434 14.8148 18.2779 14.8459 18.2988C14.8577 18.3037 14.8695 18.3101 14.8813 18.315C14.891 18.3171 14.9001 18.3203 14.9098 18.3203C14.9195 18.3203 14.9281 18.3171 14.9366 18.315C14.957 18.3042 14.9763 18.2918 14.9961 18.2811C16.4427 17.4842 17.5524 16.1534 18.0652 14.5526C18.2728 14.861 18.5978 15.083 18.9753 15.1604C18.3698 17.9146 15.9133 19.6383 12.87 19.9C12.6876 19.4476 12.2387 19.1263 11.7114 19.1263C11.0228 19.1263 10.4645 19.6717 10.4645 20.3438C10.4645 21.016 11.0227 21.5608 11.7114 21.5608C12.2666 21.5608 12.7316 21.2041 12.893 20.714C16.4158 20.4277 19.2398 18.3337 19.8293 15.0803C20.3501 14.8626 20.7158 14.3517 20.7158 13.7553V10.9156C20.7158 10.1219 20.0678 9.47818 19.2687 9.47818ZM17.9691 10.2939C17.0503 7.805 14.6694 6.02703 11.8686 6.02703C9.07951 6.02703 6.7072 7.78994 5.77986 10.2627C5.73373 10.2062 5.67961 10.1579 5.6265 10.109C6.15149 7.09575 8.74485 4.80468 11.8718 4.80468C14.9837 4.80468 17.569 7.07321 18.1112 10.0656C18.0576 10.1376 18.0083 10.2127 17.9691 10.2939ZM9.27694 18.5438C9.27684 18.5438 9.27684 18.5438 9.27674 18.5438C9.27616 18.545 9.27616 18.5452 9.27694 18.5438Z" fill="currentColor"/>
</g>
</svg>
