<svg width="24" height="24" viewBox="0 0 24 24" fill="none" xmlns="http://www.w3.org/2000/svg">
<path d="M12.082 17.2007C12.1699 17.2007 12.2594 17.1953 12.3495 17.1846C13.2136 17.0809 13.9474 16.4769 14.2182 15.6446C14.2386 15.5823 14.2091 15.5156 14.1495 15.4883C14.0906 15.4608 14.0193 15.4846 13.9859 15.5404C13.9828 15.5457 13.6395 16.1003 12.3029 16.2808C12.1028 16.3076 11.9081 16.3217 11.7236 16.3217C10.7872 16.3211 10.3699 15.9681 10.3661 15.9649C10.319 15.923 10.247 15.9219 10.1987 15.9627C10.15 16.0035 10.1387 16.0745 10.172 16.1288C10.5796 16.7896 11.3111 17.2007 12.082 17.2007ZM19.2685 8.91739C19.2568 8.91739 19.246 8.91956 19.2348 8.91956C18.4517 5.52912 15.4593 3 11.8716 3C8.18529 3 5.12428 5.66879 4.44582 9.19954C3.78616 9.31825 3.28406 9.89807 3.28406 10.5993V13.4057C3.28406 14.1922 3.91482 14.8301 4.69362 14.8301C5.13294 14.8301 5.52071 14.6226 5.77866 14.304C6.40194 15.9525 7.6708 17.2817 9.27662 17.983C9.28045 17.9746 9.31084 17.9155 9.34744 17.8684C9.37272 17.8357 9.40105 17.809 9.42535 17.809C9.45053 17.809 9.47365 17.8181 9.49342 17.8321C9.12177 17.5553 7.77932 16.133 7.48853 14.1482C7.36095 13.2745 8.01531 12.4169 8.77739 12.2751C10.0008 12.0473 11.2179 11.7878 12.4413 11.5643C13.219 11.4224 13.7505 10.9958 14.0755 10.2855C14.1517 10.1194 14.2617 9.78366 14.3121 9.29947C14.3255 9.22747 14.3845 9.17219 14.4602 9.17219C14.5106 9.17219 14.5535 9.19795 14.582 9.23505L14.6157 9.2141C15.0979 9.91418 16.0542 11.4643 16.1915 13.0988C16.3492 14.9676 16.2612 16.2475 14.8308 17.5569C14.8292 17.5586 14.827 17.5607 14.8249 17.5624C14.8051 17.5838 14.7933 17.6117 14.7933 17.6424C14.7933 17.6826 14.8147 17.7171 14.8458 17.738C14.8576 17.7429 14.8694 17.7493 14.8812 17.7542C14.8908 17.7563 14.9 17.7595 14.9096 17.7595C14.9194 17.7595 14.9279 17.7563 14.9365 17.7542C14.9569 17.7434 14.9761 17.7311 14.996 17.7203C16.4426 16.9234 17.5523 15.5926 18.0651 13.9919C18.2727 14.3002 18.5977 14.5222 18.9752 14.5996C18.3696 17.3538 15.9132 19.0776 12.8699 19.3392C12.6875 18.8868 12.2386 18.5655 11.7113 18.5655C11.0227 18.5655 10.4644 19.1109 10.4644 19.7831C10.4644 20.4552 11.0226 21 11.7113 21C12.2665 21 12.7315 20.6433 12.8929 20.1532C16.4157 19.8669 19.2396 17.773 19.8292 14.5195C20.3499 14.3018 20.7157 13.7909 20.7157 13.1945V10.3548C20.7157 9.56114 20.0677 8.91739 19.2685 8.91739ZM17.969 9.73309C17.0502 7.24421 14.6693 5.46624 11.8685 5.46624C9.07939 5.46624 6.70708 7.22915 5.77974 9.70192C5.7336 9.64546 5.67949 9.59716 5.62638 9.54825C6.15136 6.53496 8.74473 4.24389 11.8716 4.24389C14.9836 4.24389 17.5689 6.51242 18.1111 9.50478C18.0575 9.57678 18.0081 9.65193 17.969 9.73309ZM9.27682 17.983C9.27672 17.983 9.27672 17.983 9.27662 17.983C9.27604 17.9842 9.27604 17.9844 9.27682 17.983Z" fill="currentColor"/>
</svg>
