<svg width="23" height="23" viewBox="0 0 23 23" fill="none" xmlns="http://www.w3.org/2000/svg">
<path d="M11.3214 0.263184C5.21439 0.263184 0.263672 5.21398 0.263672 11.321C0.263672 17.428 5.21439 22.3787 11.3214 22.3787C17.4285 22.3787 22.3792 17.428 22.3792 11.321C22.3792 5.21398 17.4285 0.263184 11.3214 0.263184ZM11.1728 19.2701C10.6055 19.587 10.1415 19.7455 9.78166 19.7455C9.46618 19.7455 9.2163 19.6485 9.03177 19.455C8.8472 19.2614 8.755 18.9927 8.755 18.6494C8.755 17.549 9.43033 14.8593 10.7811 10.5805C10.8443 10.3779 10.8758 10.1974 10.8758 10.039C10.8758 9.86309 10.7947 9.77493 10.6326 9.77493C10.4524 9.77493 10.2477 9.84552 10.0182 9.98619C9.78842 10.1271 9.27709 10.5762 8.48494 11.3333L7.89053 10.8842C8.78992 9.91588 9.61071 9.22674 10.3526 8.81745C11.0949 8.40814 11.7264 8.20337 12.2481 8.20337C12.5362 8.20337 12.7565 8.26504 12.9093 8.38814C13.0621 8.51157 13.1388 8.67867 13.1388 8.89003C13.1388 9.14547 12.8469 10.2284 12.263 12.1389C11.3112 15.2642 10.8352 17.1485 10.8352 17.7911C10.8352 17.9144 10.8666 18.0179 10.9298 18.1014C10.9927 18.1851 11.0602 18.2267 11.1324 18.2267C11.4205 18.2267 12.159 17.681 13.3476 16.5892L13.8744 17.091C12.6404 18.2267 11.7401 18.9531 11.1728 19.2701ZM14.3151 5.89116C14.0404 6.18628 13.732 6.33347 13.3898 6.33347C13.1198 6.33347 12.8945 6.24102 12.7144 6.05612C12.5343 5.87141 12.4444 5.62931 12.4444 5.32979C12.4444 4.93373 12.5747 4.59687 12.836 4.31949C13.0971 4.04229 13.4079 3.90366 13.7682 3.90366C14.0471 3.90366 14.2769 3.99399 14.457 4.17425C14.6371 4.35491 14.727 4.58596 14.727 4.86756C14.7271 5.25503 14.5898 5.59608 14.3151 5.89116Z" fill="currentColor"/>
</svg>
