<svg xmlns="http://www.w3.org/2000/svg" style="display: none;">
  <symbol id="inicio" width="24" height="24" viewBox="0 0 24 24" fill="none">
  <g clip-path="url(#clip0_9143_26938)">
    <rect x="3.19995" y="2.3999" width="1.6" height="19.2" rx="0.8" fill="#828894"/>
    <rect x="13.6067" y="2.53713" width="13.3922" height="13.3922" rx="1.6" transform="rotate(45 13.6067 2.53713)" stroke="#828894" stroke-width="1.6"/>
    <rect x="13.6001" y="8" width="5.6" height="5.6" rx="0.941405" transform="rotate(45 13.6001 8)" fill="#828894"/>
  </g>
  <defs>
    <clipPath id="clip0_9143_26938">
      <rect width="24" height="24" fill="white"/>
    </clipPath>
  </defs>
</symbol>

<symbol id="inicio-active" width="24" height="24" viewBox="0 0 24 24" fill="none">
  <rect x="12.7351" y="1.6001" width="14.8918" height="14.8918" rx="2.4" transform="rotate(45 12.7351 1.6001)" fill="var(--ep-color-icon-brand-primary)"/>
  <rect x="1.59985" y="2.3999" width="2.4" height="19.2" rx="1.2" fill="var(--ep-color-icon-brand-primary)"/>
  <rect x="12.2297" y="8" width="5.9818" height="5.9818" rx="0.941405" transform="rotate(45 12.2297 8)" fill="white"/>
</symbol>


<symbol id="promo" width="24" height="24" viewBox="0 0 24 24" fill="none">
  <path d="M20.8103 20.1719C20.8101 21.4023 19.8122 22.4001 18.5818 22.4004H5.42847C4.19795 22.4002 3.20015 21.4024 3.19995 20.1719V12H4.68628V20.1719C4.68648 20.5819 5.01849 20.9139 5.42847 20.9141H18.5818C18.9917 20.9138 19.3248 20.5818 19.325 20.1719V12H20.8103V20.1719Z" fill="#828894"/>
  <rect x="2.3999" y="6.3999" width="19.2" height="4" rx="1.48571" stroke="#828894" stroke-width="1.48571"/>
  <path d="M6.80005 4.14704C6.80005 2.7404 7.94035 1.6001 9.34699 1.6001H9.77148C11.0023 1.6001 12 2.59786 12 3.82867V6.05724H8.71025C7.65528 6.05724 6.80005 5.20201 6.80005 4.14704V4.14704Z" stroke="#828894" stroke-width="1.48571"/>
  <path d="M17.2 4.14704C17.2 2.7404 16.0596 1.6001 14.653 1.6001H14.2285C12.9977 1.6001 12 2.59786 12 3.82867V6.05724H15.2897C16.3447 6.05724 17.2 5.20201 17.2 4.14704V4.14704Z" stroke="#828894" stroke-width="1.48571"/>
  <rect x="11.6288" y="6.42856" width="0.742857" height="14.1143" stroke="#828894" stroke-width="0.742857"/>
</symbol>

<symbol id="promo-active" width="24" height="24" viewBox="0 0 24 24" fill="none">
  <path d="M4 20.1139C4 20.9344 4.66518 21.5996 5.48571 21.5996H18.5143C19.3348 21.5996 20 20.9344 20 20.1139V11.1996H4V20.1139Z" fill="var(--ep-color-icon-brand-primary)"/>
  <rect x="2.3999" y="6.3999" width="19.2" height="4" rx="1.48571" fill="var(--ep-color-icon-brand-primary)"/>
  <path d="M6.80005 4.94684C6.80005 3.54021 7.94035 2.3999 9.34699 2.3999H9.77148C11.0023 2.3999 12 3.39767 12 4.62847V6.85705H8.71025C7.65528 6.85705 6.80005 6.00182 6.80005 4.94684Z" fill="var(--ep-color-icon-brand-primary)"/>
  <path d="M17.2 4.94684C17.2 3.54021 16.0596 2.3999 14.653 2.3999H14.2285C12.9977 2.3999 12 3.39767 12 4.62847V6.85705H15.2897C16.3447 6.85705 17.2 6.00182 17.2 4.94684Z" fill="var(--ep-color-icon-brand-primary)"/>
  <rect x="11.2" y="8" width="1.6" height="13.6" fill="white"/>
</symbol>

<symbol id="agency" width="24" height="24" viewBox="0 0 24 24" fill="none">
  <g clip-path="url(#clip0_9143_26942)">
    <path d="M14.975 14.0998C14.5461 14.0994 14.13 14.2466 13.7969 14.5169L10.5596 12.175C10.6138 11.8774 10.6138 11.5724 10.5596 11.2748L13.7969 8.9329C14.1302 9.20328 14.5464 9.35056 14.9756 9.34996C15.4727 9.34954 15.9494 9.15182 16.3009 8.80023C16.6524 8.44864 16.8499 7.97192 16.8502 7.47476C16.8498 6.97752 16.652 6.50077 16.3003 6.14927C15.9486 5.79776 15.4717 5.60024 14.9745 5.6001C14.684 5.60035 14.3975 5.66807 14.1376 5.79792C13.8777 5.92777 13.6515 6.1162 13.4768 6.34836C13.3021 6.58053 13.1838 6.85008 13.131 7.13579C13.0783 7.42149 13.0926 7.71554 13.1729 7.99476L10.0988 10.2225C9.86585 9.91264 9.56404 9.66122 9.2172 9.48812C8.87036 9.31502 8.488 9.225 8.10036 9.22516C7.77203 9.22502 7.44689 9.28958 7.14351 9.41515C6.84014 9.54072 6.56448 9.72483 6.33229 9.95697C6.10009 10.1891 5.91592 10.4647 5.79029 10.7681C5.66466 11.0714 5.60003 11.3966 5.6001 11.7249C5.59996 12.0533 5.66453 12.3785 5.79013 12.6819C5.91573 12.9853 6.0999 13.261 6.3321 13.4932C6.5643 13.7254 6.83998 13.9095 7.14339 14.0351C7.4468 14.1607 7.77199 14.2253 8.10036 14.2252C8.488 14.2253 8.87036 14.1353 9.2172 13.9622C9.56404 13.7891 9.86585 13.5377 10.0988 13.2278L13.1734 15.4545C13.0931 15.7338 13.0787 16.0279 13.1313 16.3136C13.184 16.5994 13.3024 16.869 13.4771 17.1013C13.6517 17.3335 13.878 17.522 14.1379 17.6519C14.3979 17.7817 14.6844 17.8495 14.975 17.8497C15.4722 17.8494 15.9489 17.6518 16.3005 17.3003C16.6521 16.9488 16.8498 16.4722 16.8502 15.975C16.8499 15.4778 16.6523 15.001 16.3007 14.6494C15.9491 14.2978 15.4723 14.1001 14.975 14.0998ZM14.975 6.6625C15.1906 6.66257 15.3973 6.74827 15.5497 6.90075C15.7021 7.05323 15.7876 7.26 15.7876 7.47556C15.7875 7.69113 15.7018 7.89784 15.5493 8.05022C15.3968 8.2026 15.1901 8.28817 14.9745 8.2881C14.8678 8.28806 14.7621 8.267 14.6635 8.22613C14.5649 8.18525 14.4753 8.12535 14.3998 8.04985C14.2475 7.89737 14.1619 7.6906 14.162 7.47503C14.162 7.25946 14.2477 7.05275 14.4002 6.90037C14.5527 6.74799 14.7595 6.66243 14.975 6.6625ZM8.10036 13.0998C7.73579 13.0994 7.38626 12.9544 7.12842 12.6967C6.87058 12.4389 6.72546 12.0895 6.7249 11.7249C6.72546 11.3603 6.87058 11.0109 7.12842 10.7531C7.38626 10.4954 7.73579 10.3504 8.10036 10.35C8.46485 10.3505 8.81424 10.4956 9.07197 10.7533C9.32969 11.011 9.47473 11.3604 9.4753 11.7249C9.47473 12.0894 9.32969 12.4388 9.07197 12.6965C8.81424 12.9542 8.46485 13.0993 8.10036 13.0998ZM14.975 16.7873C14.8683 16.7872 14.7626 16.7661 14.664 16.7252C14.5654 16.6843 14.4759 16.6244 14.4005 16.5489C14.325 16.4733 14.2652 16.3837 14.2244 16.2851C14.1836 16.1864 14.1627 16.0807 14.1628 15.974C14.1628 15.8672 14.1839 15.7615 14.2248 15.663C14.2658 15.5644 14.3257 15.4748 14.4012 15.3994C14.4767 15.324 14.5664 15.2641 14.665 15.2234C14.7637 15.1826 14.8694 15.1616 14.9761 15.1617C15.1917 15.1618 15.3983 15.2476 15.5507 15.4001C15.703 15.5527 15.7885 15.7595 15.7884 15.975C15.7882 16.1906 15.7025 16.3973 15.5499 16.5496C15.3974 16.7019 15.1906 16.7874 14.975 16.7873Z" fill="#828894"/>
    <path d="M11.5996 1.1543C11.8471 1.01139 12.1529 1.01139 12.4004 1.1543L21.1924 6.23047C21.4399 6.37337 21.5928 6.63802 21.5928 6.92383V17.0762C21.5928 17.362 21.4399 17.6266 21.1924 17.7695L12.4004 22.8457C12.1529 22.9886 11.8471 22.9886 11.5996 22.8457L2.80762 17.7695C2.5601 17.6266 2.40723 17.362 2.40723 17.0762V6.92383C2.40723 6.63802 2.5601 6.37337 2.80762 6.23047L11.5996 1.1543Z" stroke="#828894" stroke-width="1.6"/>
  </g>
  <defs>
    <clipPath id="clip0_9143_26942">
      <rect width="24" height="24" fill="white"/>
    </clipPath>
  </defs>
</symbol>

<symbol id="agency-active" width="24" height="24" viewBox="0 0 24 24" fill="none">
  <path d="M11.6801 1.2155C12.1256 0.958266 12.6746 0.958266 13.1201 1.2155L21.0332 5.78411C21.4787 6.04134 21.7532 6.51673 21.7532 7.03119V16.1684C21.7532 16.6829 21.4787 17.1583 21.0332 17.4155L13.1201 21.9841C12.6746 22.2413 12.1256 22.2413 11.6801 21.9841L3.76702 17.4155C3.32149 17.1583 3.04702 16.6829 3.04702 16.1684V7.03119C3.04702 6.51673 3.32149 6.04134 3.76702 5.78411L11.6801 1.2155Z" fill="var(--ep-color-icon-brand-primary)"/>
  <path d="M15.9626 13.5442C15.5617 13.5438 15.1728 13.6815 14.8614 13.9341L11.8355 11.7451C11.8862 11.4669 11.8862 11.1819 11.8355 10.9037L14.8614 8.71475C15.1729 8.96747 15.562 9.10514 15.9631 9.10458C16.4278 9.10418 16.8733 8.91938 17.2019 8.59075C17.5304 8.26212 17.7151 7.81653 17.7154 7.35184C17.715 6.88707 17.5301 6.44146 17.2014 6.11291C16.8726 5.78436 16.4269 5.59974 15.9621 5.59961C15.6906 5.59985 15.4228 5.66314 15.1798 5.78451C14.9369 5.90588 14.7255 6.082 14.5622 6.299C14.399 6.51601 14.2883 6.76796 14.2391 7.03501C14.1898 7.30205 14.2032 7.5769 14.2782 7.83788L11.4048 9.92013C11.1871 9.63051 10.905 9.3955 10.5808 9.23371C10.2566 9.07192 9.89925 8.98777 9.53693 8.98793C9.23004 8.9878 8.92613 9.04814 8.64257 9.16551C8.35901 9.28287 8.10135 9.45496 7.88432 9.67195C7.66729 9.88893 7.49515 10.1465 7.37772 10.4301C7.26029 10.7136 7.19989 11.0175 7.19995 11.3244C7.19982 11.6313 7.26018 11.9353 7.37758 12.2189C7.49497 12.5025 7.66711 12.7602 7.88414 12.9772C8.10118 13.1942 8.35886 13.3664 8.64245 13.4838C8.92605 13.6012 9.23 13.6615 9.53693 13.6614C9.89925 13.6615 10.2566 13.5774 10.5808 13.4156C10.905 13.2538 11.1871 13.0188 11.4048 12.7292L14.2787 14.8104C14.2036 15.0715 14.1901 15.3464 14.2393 15.6135C14.2886 15.8806 14.3992 16.1326 14.5625 16.3497C14.7258 16.5667 14.9372 16.7429 15.1802 16.8643C15.4232 16.9857 15.691 17.049 15.9626 17.0492C16.4273 17.0489 16.8729 16.8643 17.2015 16.5357C17.5302 16.2072 17.715 15.7617 17.7154 15.297C17.7151 14.8322 17.5303 14.3865 17.2017 14.0579C16.8731 13.7293 16.4274 13.5445 15.9626 13.5442ZM15.9626 6.59263C16.1641 6.59269 16.3573 6.6728 16.4998 6.81532C16.6422 6.95784 16.7222 7.1511 16.7221 7.35259C16.722 7.55408 16.6419 7.74729 16.4994 7.88972C16.3569 8.03215 16.1636 8.11213 15.9621 8.11206C15.8624 8.11203 15.7636 8.09235 15.6714 8.05414C15.5793 8.01593 15.4955 7.95994 15.425 7.88937C15.2826 7.74685 15.2026 7.55358 15.2027 7.35209C15.2027 7.1506 15.2828 6.95739 15.4253 6.81497C15.5679 6.67254 15.7611 6.59256 15.9626 6.59263ZM9.53693 12.6095C9.19617 12.6092 8.86946 12.4736 8.62846 12.2327C8.38746 11.9918 8.25182 11.6652 8.25129 11.3244C8.25182 10.9836 8.38746 10.657 8.62846 10.4161C8.86946 10.1752 9.19617 10.0397 9.53693 10.0393C9.87761 10.0398 10.2042 10.1754 10.4451 10.4163C10.686 10.6572 10.8215 10.9837 10.8221 11.3244C10.8215 11.6651 10.686 11.9917 10.4451 12.2326C10.2042 12.4735 9.87761 12.609 9.53693 12.6095ZM15.9626 16.0562C15.8629 16.0561 15.7641 16.0364 15.6719 15.9982C15.5798 15.9599 15.4961 15.9039 15.4256 15.8333C15.3551 15.7627 15.2992 15.6789 15.261 15.5867C15.2229 15.4945 15.2033 15.3957 15.2034 15.296C15.2035 15.1962 15.2232 15.0974 15.2614 15.0053C15.2997 14.9131 15.3557 14.8294 15.4263 14.7589C15.4969 14.6884 15.5807 14.6325 15.6729 14.5944C15.765 14.5563 15.8639 14.5367 15.9636 14.5368C16.1651 14.5369 16.3583 14.6171 16.5007 14.7596C16.6431 14.9022 16.723 15.0955 16.7228 15.297C16.7227 15.4985 16.6425 15.6916 16.5 15.834C16.3574 15.9764 16.1641 16.0563 15.9626 16.0562Z" fill="white"/>
</symbol>

<symbol id="entrar" width="24" height="24" viewBox="0 0 24 24" fill="none">
  <rect x="1.60005" y="2.4001" width="20.8" height="19.2" rx="1.42222" stroke="#828894" stroke-width="1.6"/>
  <path d="M15.7161 8.34277H22.3997V16.4004H15.7161C14.9306 16.4004 14.2932 15.763 14.2932 14.9775V9.76562C14.2932 8.98015 14.9306 8.34277 15.7161 8.34277Z" stroke="#828894" stroke-width="1.6"/>
  <rect x="16.1482" y="10.3999" width="3.73333" height="3.71429" rx="0.8" fill="#828894"/>
</symbol>

<symbol id="entrar-active" width="24" height="24" viewBox="0 0 24 24" fill="none">
  <path d="M20.3918 2.8916C21.5833 2.8917 22.5488 3.85745 22.5491 5.04883V8.23047H15.0657L14.8381 8.24219C13.7175 8.35595 12.843 9.30251 12.843 10.4531V15.665C12.8433 16.8154 13.7177 17.7622 14.8381 17.876L15.0657 17.8877H22.5491V20.9297C22.5491 22.1213 21.5834 23.0878 20.3918 23.0879H2.95728C1.76583 23.0877 0.800049 22.1212 0.800049 20.9297V5.04883C0.800289 3.85753 1.76598 2.89184 2.95728 2.8916H20.3918ZM20.9495 9.83008V16.2881H15.0657C14.7222 16.2881 14.4429 16.0085 14.4426 15.665V10.4531C14.4426 10.1095 14.722 9.83008 15.0657 9.83008H20.9495Z" fill="var(--ep-color-icon-brand-primary)"/>
  <rect x="15.4976" y="11.0869" width="3.73333" height="3.71429" rx="1.6" fill="white"/>
</symbol>

<symbol id="perfil" width="24" height="24" viewBox="0 0 24 24" fill="none">
  <circle cx="11.6001" cy="6" r="5.2" stroke="#828894" stroke-width="1.6"/>
  <rect x="1.60005" y="14.4001" width="20" height="8" rx="4" stroke="#828894" stroke-width="1.6"/>
</symbol>

<symbol id="perfil-active" width="24" height="24" viewBox="0 0 24 24" fill="none">
  <circle cx="11.1999" cy="6.3998" r="5.6" fill="var(--ep-color-icon-brand-primary)"/>
  <mask id="path-2-inside-1_9143_26958" fill="white">
    <path d="M14.6158 6.7998C14.9384 6.7998 15.2043 7.06274 15.1574 7.38194C15.033 8.22749 14.6399 9.01668 14.0284 9.62823C13.2782 10.3784 12.2608 10.7998 11.2 10.7998C10.1391 10.7998 9.12167 10.3784 8.37152 9.62823C7.75997 9.01668 7.36689 8.22749 7.24252 7.38194C7.19557 7.06274 7.4615 6.79981 7.78414 6.79981C8.10678 6.79981 8.36227 7.06409 8.42837 7.37988C8.54029 7.91458 8.80554 8.40991 9.19769 8.80206C9.72873 9.33309 10.449 9.63142 11.2 9.63142C11.9509 9.63142 12.6712 9.33309 13.2022 8.80206C13.5944 8.40991 13.8596 7.91458 13.9715 7.37988C14.0376 7.06409 14.2931 6.7998 14.6158 6.7998Z"/>
  </mask>
  <path d="M14.6158 6.7998C14.9384 6.7998 15.2043 7.06274 15.1574 7.38194C15.033 8.22749 14.6399 9.01668 14.0284 9.62823C13.2782 10.3784 12.2608 10.7998 11.2 10.7998C10.1391 10.7998 9.12167 10.3784 8.37152 9.62823C7.75997 9.01668 7.36689 8.22749 7.24252 7.38194C7.19557 7.06274 7.4615 6.79981 7.78414 6.79981C8.10678 6.79981 8.36227 7.06409 8.42837 7.37988C8.54029 7.91458 8.80554 8.40991 9.19769 8.80206C9.72873 9.33309 10.449 9.63142 11.2 9.63142C11.9509 9.63142 12.6712 9.33309 13.2022 8.80206C13.5944 8.40991 13.8596 7.91458 13.9715 7.37988C14.0376 7.06409 14.2931 6.7998 14.6158 6.7998Z" stroke="white" stroke-width="1.77778" mask="url(#path-2-inside-1_9143_26958)"/>
  <rect x="0.799805" y="14.3999" width="20.8" height="9.6" rx="4.8" fill="var(--ep-color-icon-brand-primary)"/>
</symbol>
</svg>
