<svg xmlns="http://www.w3.org/2000/svg" style="display: none;">
  <symbol id="inicio" width="32" height="32" viewBox="0 0 32 32" fill="currentColor">
    <path opacity="0.4" d="M13.4267 3.76001L4.18668 11.16C3.14668 11.9867 2.48001 13.7333 2.70667 15.04L4.48001 25.6533C4.80001 27.5467 6.61333 29.08 8.53333 29.08H23.4667C25.3734 29.08 27.2 27.5333 27.52 25.6533L29.2933 15.04C29.5067 13.7333 28.84 11.9867 27.8133 11.16L18.5733 3.77331C17.1467 2.62664 14.84 2.62667 13.4267 3.76001Z" />
    <path d="M16 20.6667C17.841 20.6667 19.3333 19.1743 19.3333 17.3333C19.3333 15.4924 17.841 14 16 14C14.1591 14 12.6667 15.4924 12.6667 17.3333C12.6667 19.1743 14.1591 20.6667 16 20.6667Z" />
  </symbol>

  <symbol id="promo" width="32" height="32" viewBox="0 0 32 32" fill="currentColor">
    <path opacity="0.4" d="M5.31999 19.5466L3.29334 17.52C2.46667 16.6933 2.46667 15.3333 3.29334 14.5066L5.31999 12.4799C5.66666 12.1333 5.94666 11.4533 5.94666 10.9733V8.10665C5.94666 6.93332 6.90667 5.97327 8.08 5.97327H10.9467C11.4267 5.97327 12.1067 5.69331 12.4533 5.34664L14.48 3.31995C15.3067 2.49328 16.6667 2.49328 17.4933 3.31995L19.52 5.34664C19.8667 5.69331 20.5467 5.97327 21.0267 5.97327H23.8934C25.0667 5.97327 26.0267 6.93332 26.0267 8.10665V10.9733C26.0267 11.4533 26.3067 12.1333 26.6533 12.4799L28.68 14.5066C29.5067 15.3333 29.5067 16.6933 28.68 17.52L26.6533 19.5466C26.3067 19.8933 26.0267 20.5733 26.0267 21.0533V23.92C26.0267 25.0933 25.0667 26.0533 23.8934 26.0533H21.0267C20.5467 26.0533 19.8667 26.3333 19.52 26.68L17.4933 28.7067C16.6667 29.5333 15.3067 29.5333 14.48 28.7067L12.4533 26.68C12.1067 26.3333 11.4267 26.0533 10.9467 26.0533H8.08C6.90667 26.0533 5.94666 25.0933 5.94666 23.92V21.0533C5.94666 20.5599 5.66666 19.8799 5.31999 19.5466Z" />
    <path d="M15.4872 11.4253C15.6913 10.9913 16.3087 10.9913 16.5128 11.4253L17.6221 13.7843C17.7023 13.9549 17.8621 14.0744 18.0483 14.1032L20.5794 14.4944C21.0347 14.5647 21.2202 15.1202 20.8985 15.45L19.0328 17.363C18.9073 17.4917 18.8503 17.6723 18.8792 17.8497L19.3133 20.5164C19.3893 20.9833 18.8936 21.3323 18.4797 21.1033L16.2743 19.8832C16.1036 19.7887 15.8963 19.7887 15.7256 19.8832L13.5202 21.1033C13.1063 21.3323 12.6106 20.9833 12.6866 20.5164L13.1207 17.8497C13.1496 17.6723 13.0926 17.4917 12.9671 17.363L11.1014 15.45C10.7798 15.1202 10.9652 14.5647 11.4206 14.4944L13.9516 14.1032C14.1379 14.0744 14.2976 13.9549 14.3778 13.7843L15.4872 11.4253Z" />
  </symbol>

  <symbol id="entrar" width="32" height="32" viewBox="0 0 32 32" fill="currentColor">
    <path opacity="0.4" d="M24.0533 18.0667C23.4933 18.6133 23.1733 19.4 23.2533 20.24C23.3733 21.68 24.6933 22.7333 26.1333 22.7333H28.6667V24.32C28.6667 27.08 26.4133 29.3333 23.6533 29.3333H8.34666C5.58666 29.3333 3.33333 27.08 3.33333 24.32V15.3467C3.33333 12.5867 5.58666 10.3333 8.34666 10.3333H23.6533C26.4133 10.3333 28.6667 12.5867 28.6667 15.3467V17.2667H25.9733C25.2267 17.2667 24.5467 17.56 24.0533 18.0667Z" />
    <path d="M19.8 5.26668V10.3333H8.34666C5.58666 10.3333 3.33333 12.5867 3.33333 15.3467V10.4534C3.33333 8.8667 4.30666 7.45331 5.78666 6.89331L16.3733 2.89331C18.0267 2.27997 19.8 3.49335 19.8 5.26668Z" />
    <path d="M30.08 18.6266V21.3734C30.08 22.1067 29.4933 22.7067 28.7467 22.7333H26.1333C24.6933 22.7333 23.3733 21.68 23.2533 20.24C23.1733 19.4 23.4933 18.6133 24.0533 18.0667C24.5467 17.56 25.2267 17.2667 25.9733 17.2667H28.7467C29.4933 17.2934 30.08 17.8933 30.08 18.6266Z" />
    <path d="M18.6667 17H9.33333C8.78666 17 8.33333 16.5467 8.33333 16C8.33333 15.4533 8.78666 15 9.33333 15H18.6667C19.2133 15 19.6667 15.4533 19.6667 16C19.6667 16.5467 19.2133 17 18.6667 17Z" />
  </symbol>

  <symbol id="perfil" width="32" height="32" viewBox="0 0 32 32" fill="currentColor">
    <path opacity="0.4" d="M16 2.66666C12.5067 2.66666 9.66666 5.50666 9.66666 8.99999C9.66666 12.4267 12.3467 15.2 15.84 15.32C15.9467 15.3067 16.0533 15.3067 16.1333 15.32C16.16 15.32 16.1733 15.32 16.2 15.32C16.2133 15.32 16.2133 15.32 16.2267 15.32C19.64 15.2 22.32 12.4267 22.3333 8.99999C22.3333 5.50666 19.4933 2.66666 16 2.66666Z" />
    <path d="M22.7733 18.8667C19.0533 16.3867 12.9867 16.3867 9.24001 18.8667C7.54668 20 6.61334 21.5333 6.61334 23.1733C6.61334 24.8133 7.54668 26.3333 9.22668 27.4533C11.0933 28.7067 13.5467 29.3333 16 29.3333C18.4533 29.3333 20.9067 28.7067 22.7733 27.4533C24.4533 26.32 25.3867 24.8 25.3867 23.1467C25.3733 21.5067 24.4533 19.9867 22.7733 18.8667Z" />
  </symbol>
</svg>
