<svg xmlns="http://www.w3.org/2000/svg" style="display: none;">
  <symbol id="inicio" width="28" height="28" viewBox="0 0 28 28" fill="currentColor">
    <path d="M8.10186 11.0906L13.1604 6.03198C13.4065 5.78589 13.7319 5.66284 14.0546 5.66284C14.38 5.66284 14.7026 5.78589 14.9487 6.03198L20.0265 11.1097L25.3339 16.4171C25.3858 16.4691 25.4733 16.4527 25.5034 16.3871C25.7194 15.8976 25.8343 15.3644 25.8343 14.8148C25.8343 13.773 25.4296 12.7968 24.694 12.0613L16.8081 4.17261C15.2878 2.65503 12.8187 2.65503 11.2983 4.17261L3.41514 12.0585C2.67959 12.7941 2.2749 13.7703 2.2749 14.8121C2.2749 15.3617 2.38975 15.8976 2.60576 16.3843C2.63584 16.45 2.72334 16.4664 2.77529 16.4144L8.10186 11.0906Z"/>
    <path d="M5.5124 15.482C5.36475 15.6297 5.28271 15.8293 5.28271 16.0371V22.3453C5.28271 23.8301 6.48584 25.0332 7.97061 25.0332H10.7952C11.0796 25.0332 11.312 24.8035 11.312 24.5164V18.416C11.312 18.1043 11.6976 17.9648 11.9737 17.9648H16.1382C16.4554 17.9648 16.7999 18.1371 16.7999 18.416V24.5164C16.7999 24.8008 17.0296 25.0332 17.3167 25.0332H20.1413C21.6261 25.0332 22.8292 23.8273 22.8292 22.3453V16.0371C22.8292 15.8293 22.7472 15.6297 22.5995 15.482L14.3827 7.2707C14.1995 7.0875 13.9069 7.0875 13.7237 7.2707L5.5124 15.482Z"/>
  </symbol>

  <symbol id="entrar" width="28" height="28" viewBox="0 0 28 28" fill="currentColor">
    <path d="M20.1348 8.68457C20.2952 8.65001 20.4656 8.69525 20.5762 8.80078C20.6862 8.9064 20.7195 9.05563 20.6621 9.18848C20.1351 10.4076 19.8908 11.1134 19.8672 11.9834C20.8708 12.331 21.6886 12.8646 22.3008 13.5723C22.9633 14.338 23.2254 15.1254 23.3281 15.6592C23.3521 15.6714 23.4188 15.6962 23.5615 15.6963H24.3916C25.0946 15.6963 25.667 16.1872 25.667 16.79V18.9219C25.667 19.5236 25.0944 20.0137 24.3916 20.0137H23.5625C23.3185 20.0137 23.2516 20.0922 23.1357 20.3008C22.5265 21.3891 21.5736 22.2575 20.3809 22.8135C20.2867 22.8574 20.2526 22.8954 20.2471 22.9111C20.2464 22.9136 20.2471 22.9453 20.2471 22.9453C20.2596 22.9636 20.2705 22.983 20.2793 23.0029L20.543 23.5996C20.6682 23.8802 20.6575 24.1884 20.5127 24.4648C20.3674 24.742 20.1047 24.9542 19.7734 25.0615L18.1348 25.5928C17.984 25.6418 17.8256 25.667 17.665 25.667C17.1204 25.6669 16.6256 25.3759 16.4307 24.9424C16.403 24.886 16.2176 24.5046 16.0635 24.1113C16.0457 24.0665 16.0314 24.0379 16.0215 24.0205C16.0107 24.0199 15.9969 24.0195 15.9795 24.0195C15.8764 24.0195 15.7214 24.0338 15.5254 24.0518C15.1214 24.0887 14.5109 24.1445 13.6113 24.1445C12.6146 24.1445 11.9949 24.0337 11.585 23.96C11.4504 23.9359 11.3312 23.9137 11.2568 23.9082C11.2416 23.9322 11.2187 23.974 11.1885 24.042C11.0129 24.4435 10.7945 24.931 10.792 24.9365C10.5987 25.3725 10.1018 25.6668 9.55566 25.667C9.39515 25.667 9.23661 25.642 9.08594 25.5928L7.44629 25.0605C7.11566 24.953 6.8539 24.7418 6.70898 24.4648C6.56426 24.1884 6.55316 23.881 6.67871 23.5986C6.68034 23.5949 6.68289 23.5905 6.68457 23.5869C6.69361 23.5686 6.97638 22.9844 7.13184 22.5742C7.18882 22.4232 7.15468 22.4002 7.00879 22.3037C6.99617 22.2954 6.98416 22.287 6.97266 22.2793C5.97741 21.5972 4.29604 20.1562 4.19824 18.1543C4.16046 17.3838 4.23458 16.6596 4.41895 15.9902C4.20363 15.9292 3.85331 15.8101 3.50391 15.6064C2.73806 15.1602 2.33301 14.5281 2.33301 13.7793C2.33308 12.9869 2.83196 12.2909 3.60352 12.0059C3.82958 11.9223 4.09301 12.0113 4.19043 12.2051C4.28794 12.399 4.18319 12.6246 3.95703 12.708C3.50581 12.8747 3.22566 13.2848 3.22559 13.7793C3.22559 14.2637 3.48106 14.6624 3.98535 14.9629C4.24549 15.1177 4.51217 15.2102 4.6748 15.2578C4.71541 15.1628 4.75816 15.0688 4.80371 14.9766C5.23956 14.0927 5.89118 13.3568 6.74023 12.79C8.69126 11.4885 10.9391 10.8555 13.6113 10.8555C14.5686 10.8555 15.5097 10.94 16.4141 11.1064C17.1801 9.85194 18.4007 9.05783 20.1348 8.68457ZM19.8555 15.5361C19.3155 15.5361 18.8779 15.9411 18.8779 16.4395C18.8782 16.9381 19.3156 17.3428 19.8555 17.3428C20.3937 17.3427 20.8288 16.9381 20.8291 16.4395C20.8291 15.9412 20.3938 15.5362 19.8555 15.5361ZM10.6846 2.33301C13.4448 2.33301 15.6826 4.57087 15.6826 7.33105C15.6826 8.10204 15.508 8.8323 15.1963 9.48438C10.9996 9.02648 8.35648 10.0703 7.08301 10.7959C6.21852 9.89747 5.68652 8.67634 5.68652 7.33105C5.68659 4.57095 7.9244 2.33313 10.6846 2.33301ZM9.28613 5.93164V8.73047H12.084V5.93164H9.28613Z" />
  </symbol>

  <symbol id="withdraw" width="28" height="28" viewBox="0 0 28 28" fill="currentColor">
    <path d="M24.0498 7.63599C25.154 7.63623 26.0495 8.53179 26.0498 9.63599V13.467H21.8203C20.0938 13.467 18.6943 14.8665 18.6943 16.593C18.6945 18.3194 20.0939 19.719 21.8203 19.719H26.0498V23.6663C26.0498 24.7707 25.1541 25.666 24.0498 25.6663H4.85547C3.75092 25.6663 2.8555 24.7708 2.85547 23.6663V7.63599H24.0498Z" />
    <path d="M3 5.99951H18V3.99951C18 2.89494 17.1046 1.99951 16 1.99951H5C3.89543 1.99951 3 2.89494 3 3.99951V5.99951Z" />
    <circle cx="22.1667" cy="16.3356" r="1.16667" />
  </symbol>

  <symbol id="perfil" width="28" height="28" viewBox="0 0 28 28" fill="currentColor">
    <path d="M20.0896 17C18.4854 18.3046 16.4 19.1743 13.9938 19.1743C11.5875 19.1743 9.5021 18.3046 7.73751 17C3.7271 18.8844 1.00507 21.5065 1.00507 26H26.6717C26.6717 21.5065 23.9396 19.0293 20.0896 17Z" />
    <path d="M14.049 16C17.9379 16 21.049 12.8043 21.049 9C21.049 5.19565 17.9379 2 14.049 2C10.1601 2 7.04897 5.19565 7.04897 9C7.04897 12.9565 10.3156 16 14.049 16Z" />
  </symbol>
</svg>
