<svg width="20" height="20" viewBox="0 0 20 20" fill="none" xmlns="http://www.w3.org/2000/svg">
<path d="M5.02593 14.351C5.62249 14.3816 6.18875 14.6401 6.6131 15.0791C7.06557 15.5474 7.3201 16.1825 7.3201 16.8446V17.5H6.32015V16.8446C6.32015 16.4569 6.17104 16.0849 5.9061 15.8107C5.64127 15.5366 5.28195 15.3825 4.90745 15.3823C4.53384 15.3838 4.17581 15.5382 3.91205 15.812C3.64807 16.0861 3.49995 16.4577 3.49996 16.8446V17.5H2.5V16.8446C2.5 16.1839 2.75299 15.5498 3.20375 15.0818C3.65449 14.6139 4.26629 14.3499 4.90484 14.3476H4.9068L5.02593 14.351ZM9.99967 13.0368C10.6378 13.0369 11.2502 13.2995 11.7014 13.7663C12.1526 14.2333 12.4058 14.8668 12.4058 15.5271H12.4065V17.5H11.4065V15.5271H11.4059C11.4059 15.1411 11.2576 14.7708 10.9938 14.4978C10.7301 14.2251 10.3726 14.0715 9.99967 14.0715C9.62668 14.0715 9.26868 14.2249 9.00493 14.4978C8.74119 14.7708 8.59283 15.1411 8.59283 15.5271V17.4993H7.59288V15.5271C7.59288 14.8667 7.84666 14.2333 8.29793 13.7663C8.7492 13.2994 9.36147 13.0369 9.99967 13.0368ZM15.2143 14.351C15.8091 14.3837 16.3731 14.6433 16.7956 15.0818C17.2463 15.5498 17.5 16.184 17.5 16.8446V17.5H16.5V16.8446C16.5 16.4577 16.3512 16.0861 16.0873 15.812C15.8236 15.5383 15.4654 15.3838 15.0919 15.3823C14.7176 15.3826 14.3586 15.5368 14.0939 15.8107C13.8289 16.0849 13.6799 16.4568 13.6799 16.8446V17.5H12.6799V16.8446C12.6799 16.1824 12.9343 15.5474 13.3869 15.0791C13.8394 14.611 14.4533 14.3476 15.0932 14.3476H15.0952L15.2143 14.351ZM4.9068 10.4025C5.88602 10.4026 6.68016 11.2241 6.68016 12.2373C6.67992 13.2503 5.88587 14.072 4.9068 14.0721C3.9276 14.0721 3.13367 13.2504 3.13344 12.2373C3.13344 11.224 3.92745 10.4025 4.9068 10.4025ZM15.0932 10.4025C16.0723 10.4027 16.8666 11.2242 16.8666 12.2373C16.8663 13.2502 16.0722 14.0719 15.0932 14.0721C14.114 14.0721 13.3201 13.2504 13.3198 12.2373C13.3198 11.224 14.1139 10.4025 15.0932 10.4025ZM4.9068 11.4371C4.47972 11.4371 4.13339 11.7954 4.13339 12.2373C4.13362 12.679 4.47986 13.0375 4.9068 13.0375C5.33361 13.0374 5.67997 12.6789 5.6802 12.2373C5.6802 11.7955 5.33376 11.4372 4.9068 11.4371ZM15.0932 11.4371C14.6661 11.4371 14.3198 11.7954 14.3198 12.2373C14.32 12.679 14.6663 13.0375 15.0932 13.0375C15.5199 13.0373 15.8664 12.6788 15.8666 12.2373C15.8666 11.7956 15.5201 11.4373 15.0932 11.4371ZM9.99967 9.08494C10.979 9.085 11.773 9.90652 11.773 10.9198C11.7728 11.9328 10.9788 12.7546 9.99967 12.7546C9.02055 12.7545 8.22655 11.9328 8.22631 10.9198C8.22631 9.90654 9.02041 9.08503 9.99967 9.08494ZM9.99967 10.1196C9.57267 10.1197 9.22627 10.4779 9.22627 10.9198C9.2265 11.3614 9.57281 11.7199 9.99967 11.72C10.4266 11.7199 10.7728 11.3614 10.7731 10.9198C10.7731 10.4779 10.4267 10.1196 9.99967 10.1196ZM5.35404 5.41863L5.55 5.82413L5.98487 5.88947L6.98093 6.03833L6.26481 6.76984L5.94842 7.09248L6.02003 7.5458L6.18408 8.58245L5.29024 8.08467L4.9068 7.87114L4.52335 8.08467L3.61909 8.58784L3.79421 7.54109L3.86973 7.08979L3.55594 6.76984L2.83918 6.03833L3.83523 5.88947L4.26685 5.8248L4.4576 5.422L4.90224 4.48303L5.35404 5.41863ZM15.5418 5.422L15.7318 5.8248L16.1641 5.88947L17.1602 6.03833L16.4441 6.76984L16.1296 7.09046L16.2051 7.54109L16.3803 8.58784L15.476 8.08467L15.0926 7.87114L14.7098 8.08467L13.8153 8.58245L13.9793 7.5458L14.0516 7.09181L13.7352 6.76984L13.0184 6.03833L14.0145 5.88947L14.4487 5.82413L14.6453 5.41863L15.0978 4.48303L15.5418 5.422ZM10.4489 3.44975L10.639 3.85188L11.0771 3.91722L12.0927 4.06743L11.3525 4.8023L11.0374 5.11485L11.1123 5.5621L11.2861 6.59807L10.387 6.10771L9.99967 5.8962L9.61297 6.10771L8.71392 6.59807L8.88709 5.5621L8.96196 5.11485L8.64687 4.8023L7.90732 4.06743L8.92225 3.91722L9.35973 3.85188L9.55048 3.44975L9.99967 2.5L10.4489 3.44975Z" fill="currentColor"/>
</svg>
