<svg width="14" height="15" viewBox="0 0 14 15" fill="none" xmlns="http://www.w3.org/2000/svg">
<g clip-path="url(#clip0_5249_19925)">
<path d="M7.00001 0.5C10.866 0.5 14 3.634 14 7.5C14 11.366 10.866 14.5 7.00001 14.5C5.71634 14.5 4.51334 14.1543 3.47868 13.5513L1.07434 14.2067C0.966183 14.236 0.852206 14.2362 0.743927 14.2074C0.635647 14.1785 0.5369 14.1216 0.457664 14.0423C0.378427 13.9631 0.321507 13.8644 0.292654 13.7561C0.263802 13.6478 0.264039 13.5338 0.293342 13.4257L0.949008 11.0213C0.325652 9.95263 -0.00190216 8.73722 8.30956e-06 7.5C8.30956e-06 3.634 3.13401 0.5 7.00001 0.5ZM7.00001 1.83333C3.87034 1.83333 1.33334 4.37033 1.33334 7.5C1.33334 8.51667 1.60034 9.492 2.10067 10.3497L2.36668 10.8057L1.86867 12.6313L3.69434 12.1333L4.15034 12.3993C5.01518 12.9038 5.99881 13.1686 7.00001 13.1667C10.1297 13.1667 12.6667 10.6297 12.6667 7.5C12.6667 4.37033 10.1297 1.83333 7.00001 1.83333ZM9.74201 5.36667C9.98534 5.58 10.022 5.94133 9.83534 6.19767L9.79967 6.242L6.88034 9.57533C6.77615 9.69424 6.63047 9.76885 6.47309 9.7839C6.31571 9.79896 6.15852 9.75333 6.03367 9.65633L5.99201 9.621L4.24467 7.998C4.1275 7.88947 4.05673 7.73991 4.0471 7.58049C4.03748 7.42106 4.08975 7.26408 4.19302 7.14224C4.29629 7.02041 4.44259 6.94312 4.60144 6.9265C4.76028 6.90987 4.91942 6.95519 5.04567 7.053L5.08868 7.08967L6.36801 8.27767L8.86701 5.42467C8.92067 5.36342 8.98587 5.31334 9.05889 5.2773C9.13191 5.24125 9.21131 5.21994 9.29256 5.21459C9.37382 5.20923 9.45533 5.21994 9.53245 5.24609C9.60956 5.27224 9.68077 5.31333 9.74201 5.367V5.36667Z" fill="currentColor"/>
</g>
<defs>
<clipPath id="clip0_5249_19925">
<rect width="14" height="14" fill="white" transform="translate(0 0.5)"/>
</clipPath>
</defs>
</svg>
