<svg width="21" height="21" viewBox="0 0 21 21" fill="none" xmlns="http://www.w3.org/2000/svg">
<path d="M19.5 21C20.3284 21 21 20.3284 21 19.5C21 18.6716 20.3284 18 19.5 18L1.5 18C0.671574 18 1.08635e-07 18.6716 0 19.5C-1.08635e-07 20.3284 0.671573 21 1.5 21L19.5 21Z" fill="white"/>
<path d="M3 1.5C3 0.671574 2.32843 7.24234e-08 1.5 0C0.671574 -7.24234e-08 1.65194e-06 0.671573 1.57951e-06 1.5L0 19.5C-1.08635e-07 20.3284 0.671573 21 1.5 21C2.32843 21 3 20.3284 3 19.5L3 1.5Z" fill="white"/>
</svg>
