<svg width="17" height="16" viewBox="0 0 17 16" fill="none" xmlns="http://www.w3.org/2000/svg">
<rect x="0.5" width="16" height="16" rx="8" fill="white"/>
<path d="M11.5783 6.76513C11.7162 6.88118 11.8376 6.99894 11.9429 7.11849C12.0478 7.23787 12.1004 7.35576 12.1004 7.47173C12.1004 7.60153 12.0527 7.70745 11.9576 7.78933C11.8624 7.87143 11.7458 7.96344 11.608 8.06595C11.3979 8.22962 11.1764 8.40225 10.9433 8.58324C10.7223 8.75484 10.5006 8.92555 10.2783 9.09536C10.0684 9.25571 9.88295 9.39586 9.72198 9.51502C9.56103 9.6344 9.44769 9.71449 9.3822 9.75563C9.16546 9.89216 8.99802 9.9418 8.87995 9.90406C8.76164 9.86634 8.6861 9.79305 8.65311 9.68396V8.49597H8.61384C8.11458 8.49597 7.67814 8.55233 7.30387 8.66504C6.92985 8.77776 6.60132 8.94847 6.31907 9.17715C6.03656 9.40599 5.79015 9.68957 5.58004 10.0274C5.37001 10.3654 5.17966 10.756 5.00866 11.1998C4.98903 11.1864 4.96926 11.1487 4.94939 11.0873C4.93625 11.0327 4.92472 10.9542 4.91512 10.8517C4.90552 10.7494 4.90039 10.606 4.90039 10.4208C4.90039 9.84763 4.9839 9.31185 5.15148 8.81348C5.31891 8.31504 5.55855 7.87992 5.87029 7.50767C6.18207 7.13564 6.55983 6.84378 7.00319 6.63202C7.44638 6.4203 7.94401 6.3179 8.49549 6.32467C8.52796 6.32467 8.55615 6.32629 8.57904 6.32988C8.60203 6.33347 8.63018 6.33514 8.66283 6.33514L8.6531 5.25987C8.66632 5.06871 8.74201 4.93037 8.87994 4.8449C9.01764 4.75956 9.19154 4.79532 9.40166 4.95237C9.52138 5.05157 9.64129 5.15053 9.76137 5.24926C9.9565 5.41003 10.1519 5.5705 10.3475 5.73065C10.5684 5.91205 10.7883 6.09475 11.0073 6.27872C11.2306 6.46636 11.4211 6.62852 11.5789 6.76513H11.5783Z" fill="#53C154"/>
</svg>
