<svg width="14" height="14" viewBox="0 0 14 14" fill="none" xmlns="http://www.w3.org/2000/svg">
  <g  clip-path="url(#clip0_5344_39909)">
    <path d="M6.31455 3.13898C6.62548 2.62232 7.37452 2.62232 7.68545 3.13898L8.47104 4.44436C8.58274 4.62997 8.76494 4.76235 8.97598 4.81122L10.4602 5.15498C11.0477 5.29103 11.2792 6.00341 10.8839 6.45878L9.88513 7.6093C9.74313 7.7729 9.67353 7.98708 9.69226 8.2029L9.82399 9.72074C9.87613 10.3215 9.27014 10.7618 8.71491 10.5265L7.31207 9.93221C7.11261 9.84771 6.8874 9.84771 6.68793 9.93221L5.28509 10.5265C4.72986 10.7618 4.12387 10.3215 4.17601 9.72074L4.30774 8.2029C4.32647 7.98708 4.25687 7.7729 4.11487 7.6093L3.11613 6.45878C2.72085 6.00341 2.95231 5.29103 3.53976 5.15498L5.02402 4.81122C5.23506 4.76235 5.41726 4.62997 5.52896 4.44436L6.31455 3.13898Z" fill="currentColor" fill-opacity="0.93"/>
    <path opacity="0.7" d="M7 0C10.8659 0 14 3.13411 14 7C13.9999 10.8658 10.8658 14 7 14C3.1342 14 0.00010282 10.8658 0 7C0 3.13413 3.13414 2.91211e-05 7 0ZM7.68555 3.13867C7.37459 2.62226 6.62541 2.62226 6.31445 3.13867L5.5293 4.44434C5.41765 4.62985 5.23533 4.76259 5.02441 4.81152L3.54004 5.15527C2.95259 5.29133 2.72092 6.00362 3.11621 6.45898L4.11523 7.60938C4.25711 7.77294 4.32634 7.9874 4.30762 8.20312L4.17578 9.7207C4.12364 10.3214 4.72993 10.7616 5.28516 10.5264L6.6875 9.93262C6.88697 9.84811 7.11303 9.84811 7.3125 9.93262L8.71484 10.5264C9.27007 10.7616 9.87636 10.3214 9.82422 9.7207L9.69238 8.20312C9.67366 7.9874 9.74289 7.77294 9.88477 7.60938L10.8838 6.45898C11.2791 6.00362 11.0474 5.29133 10.46 5.15527L8.97559 4.81152C8.76467 4.76259 8.58235 4.62985 8.4707 4.44434L7.68555 3.13867Z" fill="url(#paint0_linear_5344_39909)"/>
  </g>
  <defs>
    <linearGradient id="paint0_linear_5344_39909" x1="3.5" y1="14" x2="3.5" y2="0" gradientUnits="userSpaceOnUse">
      <stop stop-color="white"/>
      <stop offset="1" stop-color="white"/>
    </linearGradient>
    <clipPath id="clip0_5344_39909">
      <rect width="14" height="14" fill="white"/>
    </clipPath>
  </defs>
</svg>
