<svg width="24" height="24" viewBox="0 0 24 24" fill="none" xmlns="http://www.w3.org/2000/svg">
<mask id="mask0_5_283178" style="mask-type:luminance" maskUnits="userSpaceOnUse" x="2" y="2" width="20" height="20">
<path d="M22 2H2V22H22V2Z" fill="white"/>
</mask>
<g mask="url(#mask0_5_283178)">
<path d="M11.0502 17.1505L9.05851 20.6005C8.95017 20.7922 8.74183 20.9172 8.51683 20.9172H8.43351C8.31077 20.9005 8.1956 20.8482 8.10229 20.7667C8.00898 20.6852 7.9416 20.5782 7.9085 20.4588L7.4585 18.7838L5.7835 19.2338C5.66424 19.2651 5.5384 19.2604 5.42181 19.2203C5.30522 19.1802 5.20309 19.1066 5.12826 19.0086C5.05344 18.9106 5.00927 18.7927 5.0013 18.6697C4.99334 18.5466 5.02193 18.424 5.0835 18.3172L6.8835 15.2005C7.12516 15.3505 7.37516 15.4838 7.6335 15.5755C8.14183 16.2172 8.8335 16.7088 9.62516 16.9672C10.0418 17.1088 10.4835 17.1755 10.9252 17.1755H11.0418L11.0502 17.1505ZM17.2585 15.1838C17.0252 15.3338 16.7752 15.4588 16.5085 15.5588C16.114 16.0564 15.6125 16.4586 15.0412 16.7356C14.4698 17.0126 13.8434 17.1572 13.2085 17.1588H13.0918L15.0835 20.6088C15.1918 20.8005 15.4002 20.9255 15.6252 20.9255H15.7085C15.9585 20.8922 16.1668 20.7088 16.2335 20.4672L16.6835 18.7922L18.3585 19.2422C18.6002 19.3088 18.8585 19.2172 19.0168 19.0172C19.0923 18.9193 19.1366 18.8011 19.144 18.6777C19.1514 18.5544 19.1217 18.4317 19.0585 18.3255L17.2585 15.2088V15.1838ZM18.7168 9.45056C18.7168 10.1589 18.4585 10.8506 17.9918 11.3839C18.0502 12.1088 17.8502 12.7922 17.4418 13.3505C17.0283 13.9226 16.4213 14.3252 15.7335 14.4838C15.3668 15.0838 14.8002 15.5422 14.1252 15.7588C13.4533 15.9729 12.7275 15.9433 12.0752 15.6755C11.4252 15.9505 10.6918 15.9755 10.0252 15.7588C9.35016 15.5422 8.7835 15.0838 8.41683 14.4922C7.75016 14.3422 7.12516 13.9338 6.7085 13.3505C6.29183 12.7755 6.10016 12.0755 6.15016 11.3756C5.70016 10.8506 5.4335 10.1589 5.4335 9.45056C5.4335 8.74222 5.69183 8.05056 6.1585 7.51722C6.10017 6.79222 6.30016 6.10889 6.7085 5.55056C7.12204 4.9785 7.72901 4.57583 8.41683 4.41722C8.7835 3.81722 9.35016 3.35889 10.0252 3.14222C10.7002 2.92555 11.4335 2.95889 12.0752 3.22556C12.7275 2.95772 13.4533 2.92821 14.1252 3.14222C14.8002 3.35889 15.3668 3.81722 15.7335 4.40889C16.4002 4.55889 17.0252 4.96722 17.4418 5.55056C17.8585 6.12556 18.0502 6.82556 18.0002 7.52556C18.4502 8.05056 18.7168 8.74222 18.7168 9.45056ZM14.3335 8.88389C14.2971 8.77253 14.2302 8.67363 14.1403 8.59848C14.0504 8.52334 13.9412 8.47497 13.8252 8.45889L13.0002 8.34222L12.6335 7.59222C12.4252 7.16722 11.7252 7.16722 11.5085 7.59222L11.1418 8.34222L10.3168 8.45889C10.0835 8.49222 9.8835 8.65889 9.80851 8.88389C9.73351 9.10889 9.80018 9.35889 9.96684 9.52556L10.5668 10.1089L10.4252 10.9339C10.3835 11.1672 10.4835 11.4089 10.6752 11.5422C10.8668 11.6839 11.1252 11.7006 11.3335 11.5922L12.0752 11.2006L12.8168 11.5922C12.9085 11.6422 13.0085 11.6672 13.1085 11.6672C13.1992 11.6676 13.2888 11.6482 13.3712 11.6103C13.4535 11.5725 13.5266 11.5171 13.5853 11.448C13.6441 11.379 13.687 11.298 13.7112 11.2106C13.7353 11.1232 13.7401 11.0316 13.7252 10.9422L13.5835 10.1172L14.1835 9.53389C14.3502 9.36722 14.4168 9.11722 14.3418 8.89222L14.3335 8.88389Z" fill="currentColor"/>
</g>
</svg>
