<?xml version="1.0" encoding="UTF-8"?>
<svg id="_图层_1" data-name="图层_1" xmlns="http://www.w3.org/2000/svg" xmlns:xlink="http://www.w3.org/1999/xlink" version="1.1" viewBox="0 0 25 25">
  <!-- Generator: Adobe Illustrator 29.0.1, SVG Export Plug-In . SVG Version: 2.1.0 Build 192)  -->
  <defs>
    <style>
      .st0 {
        fill: url(#_未命名的渐变);
        fill-rule: evenodd;
      }
    </style>
    <linearGradient id="_未命名的渐变" data-name="未命名的渐变" x1="19.6" y1="3.5" x2="1.6" y2="22.6" gradientTransform="translate(0 25.9) scale(1 -1)" gradientUnits="userSpaceOnUse">
      <stop offset="0" stop-color="#7041f3"/>
      <stop offset="1" stop-color="#f5c84c"/>
    </linearGradient>
  </defs>
  <path class="st0" d="M20.5,13.8h-.6c-.1,0-.2,0-.2,0,0-.4-.3-1-.8-1.6-.5-.5-1.1-1-1.9-1.2,0-.7.2-1.2.6-2.2,0-.1,0-.2,0-.3,0,0-.2-.1-.3,0-1.3.3-2.3.9-2.9,1.9-.7-.1-1.4-.2-2.2-.2-2,0-3.8.5-5.3,1.5-.7.4-1.2,1-1.5,1.7,0,0,0,.1,0,.2-.1,0-.3-.1-.5-.2-.4-.2-.6-.5-.6-.9s.2-.7.6-.8c.2,0,.3-.2.2-.4,0-.1-.3-.2-.4-.2-.6.2-1,.8-1,1.4s.3,1.1.9,1.4c.3.2.5.2.7.3-.1.5-.2,1.1-.2,1.7,0,1.5,1.4,2.7,2.1,3.2h0s0,0,0,0c.1,0,.1,0,0,.2-.1.3-.3.8-.3.8h0c0,.2,0,.5,0,.7.1.2.3.4.6.5l1.3.4c.1,0,.2,0,.4,0,.4,0,.8-.2.9-.6,0,0,.2-.4.3-.7,0,0,0,0,0-.1,0,0,.1,0,.2,0h0c.3,0,.8.1,1.6.1s1.2,0,1.5,0h0s0,0,0,0h0c.2,0,.3,0,.3,0s0,0,0,0c0,0,0,0,0,0,.1.3.3.6.3.6.1.3.5.6.9.6s.2,0,.4,0l1.3-.4c.3,0,.5-.2.6-.5.1-.2.1-.5,0-.7l-.2-.5s0,0,0,0c0,0,0,0,0,0,0,0,0,0,.1,0,.9-.4,1.6-1.1,2.1-1.9,0-.2.1-.2.3-.2h.6c.5,0,1-.4,1-.8v-1.6c0-.5-.4-.8-1-.8ZM17,15.1c-.4,0-.7-.3-.7-.7s.3-.7.7-.7.7.3.7.7-.3.7-.7.7ZM13.4,9c.2-.5.4-1.1.4-1.7,0-2.1-1.7-3.9-3.8-3.9s-3.8,1.7-3.8,3.9.4,2,1.1,2.7c1-.6,3-1.4,6.2-1ZM11,8.4h-2.1v-2.2h2.1v2.2Z"/>
</svg>