<svg width="30" height="30" viewBox="0 0 30 30" fill="none" xmlns="http://www.w3.org/2000/svg">
<path fill-rule="evenodd" clip-rule="evenodd" d="M23.6719 10.8008H4.92188V22.832C4.92188 24.2127 6.04116 25.332 7.42187 25.332H23.6719C25.0526 25.332 26.1719 24.2127 26.1719 22.832V20.5371H21.9531C20.5616 20.5371 19.4336 19.4091 19.4336 18.0176C19.4336 16.6261 20.5616 15.498 21.9531 15.498H26.1719V13.3008C26.1719 11.9201 25.0526 10.8008 23.6719 10.8008Z" fill="currentColor"/>
<path d="M4.92188 9.35547H18.6719V8.08404C18.6719 6.70333 17.5526 5.58404 16.1719 5.58404H7.42188C6.04116 5.58404 4.92188 6.70333 4.92188 8.08404V9.35547Z" fill="currentColor"/>
<circle cx="22.0605" cy="18.0664" r="0.810547" fill="currentColor"/>
</svg>
