<svg viewBox="0 0 28 28" fill="none" xmlns="http://www.w3.org/2000/svg">
<path d="M24 19.5556V14C24 11.9554 23.3864 10.0542 22.3333 8.47034C21.1824 6.83546 20.3976 6.03109 18.4444 5.03947C17.1056 4.37412 15.5965 4 14 4C8.47715 4 4 8.47715 4 14V19.5556" stroke="#595959" stroke-width="1.5" stroke-linecap="round"/>
<path d="M25.1111 17.8889V20.1111" stroke="#595959" stroke-width="1.5" stroke-linecap="round"/>
<path d="M2.88892 17.8889V20.1111" stroke="#595959" stroke-width="1.5" stroke-linecap="round"/>
<path d="M8.73473 14.8923L8.73482 14.8925C8.73689 14.8955 8.76618 14.9384 8.78482 15.1299C8.80472 15.3343 8.80556 15.6099 8.80556 16.0496V21.7893C8.80556 22.3048 8.80453 22.631 8.77872 22.8706C8.76653 22.9837 8.75103 23.0517 8.73758 23.0929C8.72586 23.1287 8.71714 23.1398 8.71555 23.1418L8.71545 23.1419C8.68352 23.1828 8.64565 23.2148 8.6051 23.2376C8.60505 23.2377 8.60496 23.2377 8.60479 23.2378C8.60436 23.238 8.60343 23.2385 8.6014 23.2391C8.59827 23.2402 8.59003 23.2426 8.57439 23.2449C8.54069 23.2499 8.4801 23.2533 8.37494 23.245C8.14997 23.2273 7.84742 23.1688 7.35874 23.0725C6.67521 22.9377 6.21668 22.8464 5.86914 22.741C5.53612 22.6401 5.37215 22.5447 5.25732 22.4389C5.14289 22.3334 5.04378 22.2092 4.96415 22.0702C4.88175 21.9263 4.82003 21.7312 4.78596 21.3635C4.75075 20.9835 4.75 20.4928 4.75 19.7703V18.0307C4.75 17.3014 4.75071 16.8043 4.78536 16.4201C4.81903 16.0468 4.88017 15.8512 4.95999 15.71C5.0656 15.5233 5.2059 15.3636 5.37056 15.2395C5.49038 15.1493 5.66152 15.0708 6.00759 15.0023C6.36696 14.9311 6.8377 14.8838 7.53686 14.8149C7.95932 14.7732 8.2178 14.7487 8.40973 14.75C8.499 14.7507 8.55064 14.7572 8.57983 14.7633C8.5935 14.7661 8.60103 14.7686 8.60426 14.7698C8.60724 14.7709 8.60812 14.7715 8.60819 14.7715C8.65617 14.7992 8.70017 14.8398 8.73473 14.8923Z" stroke="#595959" stroke-width="1.5"/>
<path d="M19.1946 16.0496C19.1946 15.6099 19.1954 15.3343 19.2153 15.1299C19.234 14.9384 19.2632 14.8955 19.2653 14.8925C19.2654 14.8924 19.2654 14.8924 19.2654 14.8923C19.3 14.8398 19.344 14.7992 19.392 14.7715C19.392 14.7715 19.3929 14.7709 19.3959 14.7698C19.3991 14.7686 19.4066 14.7661 19.4203 14.7633C19.4495 14.7572 19.5011 14.7507 19.5904 14.75C19.7823 14.7487 20.0408 14.7732 20.4633 14.8149C21.1624 14.8838 21.6332 14.9311 21.9925 15.0023C22.3386 15.0708 22.5098 15.1493 22.6296 15.2395C22.7942 15.3636 22.9345 15.5233 23.0401 15.71C23.12 15.8512 23.1811 16.0468 23.2148 16.4201C23.2494 16.8043 23.2501 17.3014 23.2501 18.0307V19.7703C23.2501 20.4928 23.2494 20.9835 23.2142 21.3635C23.1801 21.7312 23.1184 21.9263 23.036 22.0702C22.9564 22.2092 22.8572 22.3334 22.7428 22.4389C22.628 22.5447 22.464 22.6401 22.131 22.741C21.7835 22.8464 21.3249 22.9377 20.6414 23.0725C20.1527 23.1688 19.8502 23.2273 19.6252 23.245C19.52 23.2533 19.4594 23.2499 19.4257 23.2449C19.4101 23.2426 19.4019 23.2402 19.3987 23.2391C19.3961 23.2383 19.3953 23.2378 19.3951 23.2377L19.395 23.2376C19.3545 23.2148 19.3166 23.1828 19.2847 23.1419L18.7036 23.5961L19.2847 23.1419L19.2846 23.1418C19.283 23.1398 19.2743 23.1287 19.2626 23.0929C19.2491 23.0517 19.2336 22.9837 19.2214 22.8706C19.1956 22.631 19.1946 22.3048 19.1946 21.7893V16.0496Z" stroke="#595959" stroke-width="1.5"/>
<circle cx="25" cy="23" r="3" fill="#52C51A"/>
</svg>
