<svg viewBox="0 0 13 14" fill="none" xmlns="http://www.w3.org/2000/svg">
<g clip-path="url(#clip0_4435_2894)">
<rect y="0.5" width="13" height="13" rx="6.5" fill="currentColor"/>
<path d="M7.24674 2.77273L7.16152 9.04545H6.17288L6.08765 2.77273H7.24674ZM6.6672 11.5682C6.45697 11.5682 6.27657 11.4929 6.12601 11.3423C5.97544 11.1918 5.90015 11.0114 5.90015 10.8011C5.90015 10.5909 5.97544 10.4105 6.12601 10.2599C6.27657 10.1094 6.45697 10.0341 6.6672 10.0341C6.87743 10.0341 7.05782 10.1094 7.20839 10.2599C7.35896 10.4105 7.43424 10.5909 7.43424 10.8011C7.43424 10.9403 7.39873 11.0682 7.32771 11.1847C7.25953 11.3011 7.1672 11.3949 7.05072 11.4659C6.93709 11.5341 6.80924 11.5682 6.6672 11.5682Z" fill="white"/>
</g>
<defs>
<clipPath id="clip0_4435_2894">
<rect y="0.5" width="13" height="13" rx="6.5" fill="white"/>
</clipPath>
</defs>
</svg>
