<svg width="16" height="16" viewBox="0 0 16 16" fill="none" xmlns="http://www.w3.org/2000/svg">
<g id="&#229;&#142;&#134;&#229;&#143;&#178;&#232;&#174;&#176;&#229;&#189;&#149;">
<path id="Vector" d="M12.5943 3.31784C13.1128 3.31784 13.4379 3.76148 13.4379 4.20584V13.9564C13.4379 14.4524 12.9201 15 12.4539 15H3.65899C3.08881 15 2.66699 14.408 2.66699 13.9564V4.2582C2.66699 3.70984 2.94772 3.31057 3.56227 3.3622H3.8139C4.0219 3.37675 4.18481 3.5542 4.17754 3.7622V5.50184C4.17754 5.70184 4.3179 5.90184 4.55427 5.90184L11.5579 5.85675C11.7506 5.85675 11.9361 5.70911 11.9361 5.45675V3.71784C11.9361 3.4662 12.1208 3.31784 12.3579 3.31784H12.5943ZM8.3819 10.4102H5.52445C5.45628 10.4097 5.38869 10.4228 5.32561 10.4486C5.26252 10.4745 5.2052 10.5126 5.15696 10.5608C5.10872 10.6089 5.07053 10.6662 5.0446 10.7292C5.01867 10.7923 5.00552 10.8599 5.0059 10.928C5.0059 11.2095 5.23572 11.4466 5.52445 11.4466H8.38263C8.51991 11.446 8.6514 11.3912 8.7484 11.294C8.84541 11.1969 8.90006 11.0653 8.90045 10.928C8.90083 10.8599 8.88768 10.7923 8.86175 10.7292C8.83582 10.6662 8.79763 10.6089 8.74939 10.5608C8.70115 10.5126 8.64382 10.4745 8.58074 10.4486C8.51766 10.4228 8.45007 10.4097 8.3819 10.4102ZM10.5368 8.34475H5.48008C5.41194 8.34736 5.34498 8.36345 5.28309 8.39208C5.22119 8.42071 5.16558 8.46132 5.11947 8.51156C5.07335 8.5618 5.03764 8.62068 5.01441 8.68479C4.99117 8.74891 4.98086 8.81699 4.98408 8.88511C4.9867 8.95326 5.00278 9.02021 5.03141 9.08211C5.06004 9.144 5.10065 9.19962 5.15089 9.24573C5.20113 9.29185 5.26001 9.32755 5.32413 9.35079C5.38824 9.37403 5.45633 9.38433 5.52445 9.38111H10.5368C10.605 9.3815 10.6726 9.36835 10.7356 9.34242C10.7986 9.31648 10.8559 9.27829 10.9041 9.23005C10.9523 9.18181 10.9904 9.12449 11.0162 9.06141C11.0421 8.99832 11.0551 8.93074 11.0546 8.86257C11.055 8.79446 11.0419 8.72695 11.016 8.66395C10.9901 8.60095 10.952 8.54372 10.9038 8.49555C10.8557 8.44739 10.7984 8.40927 10.7354 8.38338C10.6724 8.35749 10.6049 8.34436 10.5368 8.34475ZM9.15208 1.66693C9.56663 1.6742 9.89972 2.00002 9.90699 2.41457C9.90699 2.61457 10.0481 2.81457 10.2852 2.81457H10.5288C10.7441 2.82184 10.907 2.99929 10.8997 3.21457V4.40584C10.8997 4.60584 10.7586 4.80584 10.5215 4.80584H5.53972C5.48898 4.80528 5.43887 4.79463 5.39228 4.77452C5.3457 4.7544 5.30359 4.72522 5.26839 4.68867C5.2332 4.65212 5.20562 4.60893 5.18728 4.56163C5.16894 4.51432 5.16018 4.46383 5.16154 4.41311V3.22184C5.16154 3.02257 5.30263 2.82184 5.53972 2.82184H5.82045C6.01317 2.82184 6.19863 2.6742 6.19863 2.42257C6.2059 2.00802 6.53899 1.67493 6.95354 1.66766L9.15208 1.66693ZM8.07863 2.42184C7.65681 2.42184 7.27863 2.82184 7.27863 3.26548C7.27863 3.70984 7.65681 4.10911 8.07863 4.10911C8.50045 4.10911 8.87863 3.81384 8.87863 3.26548C8.87863 2.82184 8.55208 2.42184 8.07863 2.42184Z" fill="currentColor"/>
</g>
</svg>
